<svg xmlns="http://www.w3.org/2000/svg" width="682" height="1189" fill="none"><mask id="a" width="193.252" height="263.042" x="128.128" y="6.871" fill="#000" maskUnits="userSpaceOnUse"><path fill="#fff" d="M128.128 6.871H321.38v263.042H128.128z"/><path d="M157.231 47.61c3.074-21.876 23.301-37.118 45.178-34.043l75.26 10.577c21.876 3.075 37.118 23.301 34.044 45.178l-21.99 156.462c-3.074 21.876-23.301 37.118-45.177 34.044l-75.261-10.577c-21.876-3.075-37.118-23.302-34.043-45.178z"/></mask><path fill="#0C44B4" d="M157.231 47.61c3.074-21.876 23.301-37.118 45.178-34.043l75.26 10.577c21.876 3.075 37.118 23.301 34.044 45.178l-21.99 156.462c-3.074 21.876-23.301 37.118-45.177 34.044l-75.261-10.577c-21.876-3.075-37.118-23.302-34.043-45.178z"/><path fill="#F9C382" d="M230.169 88.432c-16.205-2.278-31.484 1.93-32.886 11.902-1.051 7.48 5.275 14.723 16.078 16.241 6.219.874 13.331-1.954 18.041-1.292q.252.035.49.083c6.978 1.412 6.325 7.246 15.328 8.511 4.215.592 9.528-2.474 10.754-11.2 1.577-11.218-9.8-21.715-27.805-24.245"/><path fill="#F9C382" d="m255.405 104.831 3.601.506-1.012 7.202-3.601-.506zm-57.11-11.699 3.601.507-1.012 7.202-3.601-.507z"/><path fill="#A0041E" d="M248.407 115.429c-4.089-.575-5.719-2.19-7.61-4.059-1.723-1.705-3.677-3.636-7.563-4.424q-.317-.065-.645-.111c-2.58-.363-5.484.116-8.558.626-3.218.53-6.545 1.079-9.481.667-9.39-1.32-15.468-7.521-14.453-14.743 1.365-9.715 16.945-12.872 30.91-10.91 16.692 2.347 27.703 11.912 26.18 22.747-1.158 8.23-5.887 10.614-8.78 10.207"/><path fill="#FEE5C7" d="M230.831 83.723c15.648 2.2 25.975 11.135 24.554 21.246-1.048 7.462-5.11 9.45-6.802 9.212-3.302-.464-4.513-1.66-6.348-3.475-1.826-1.806-4.099-4.055-8.671-4.981q-.39-.08-.799-.138c-2.967-.417-6.052.093-9.315.632-3.038.502-6.177 1.019-8.726.661-7.159-1.006-13.862-5.879-12.828-13.242 1.252-8.905 15.843-11.755 28.935-9.915m.35-2.493c-16.204-2.278-31.484 1.93-32.886 11.902-1.051 7.48 5.275 14.723 16.078 16.242 6.219.874 13.331-1.955 18.041-1.293q.252.035.49.083c6.978 1.413 6.326 7.246 15.328 8.511 4.215.592 9.528-2.474 10.754-11.2 1.577-11.218-9.8-21.715-27.805-24.245"/><path fill="#FEE5C7" d="M227.505 83.363s5.127.613 8.377 3.611c1.626 1.5.034 4.136.034 4.136l2.866 1.358s.1-1.52 5.752-1.735c4.155-.157 7.828 3.643 7.828 3.643s-3.701-6.876-12.529-9.387c-8.827-2.513-12.328-1.627-12.328-1.627"/><path fill="#F9F7F8" d="M242.032 95.466c-.387 2.753-3.925 4.532-7.902 3.973s-6.888-3.245-6.502-5.997c.387-2.753 3.926-4.533 7.903-3.974s6.888 3.245 6.501 5.998"/><path fill="#B5ABB2" d="M238.432 94.96c-.194 1.377-1.964 2.267-3.952 1.987s-3.444-1.622-3.25-3 1.963-2.265 3.951-1.985 3.444 1.62 3.251 2.998"/><path fill="#fff" d="m214.817 183.952-6.952-.977 14.759-17.848-12.013-1.688.761-5.419 18.431 2.59-.762 5.419zm-34.087 20.455 1.253-8.912 1.022.143-.805 5.728 3.21-2.409 1.295.182-2.858 2.143 2.064 3.853-1.248-.175-1.641-3.066-1.001.743-.269 1.914zm5.634 1.895c.085-.606.451-1.052 1.103-1.384a1.1 1.1 0 0 1-.295-.914c.067-.476.371-.833.876-1.065a2.09 2.09 0 0 1-.598-1.78c.162-1.153 1.202-2 2.628-1.8.44.062.819.212 1.118.412l2.222.312-.123.879-1.296-.182c.125.321.16.677.11 1.033-.161 1.141-1.189 1.99-2.627 1.788a3 3 0 0 1-.815-.235c-.274.143-.447.337-.479.562-.035.25.071.447.439.498l1.711.241c1.581.222 2.209 1.098 2.059 2.167-.177 1.26-1.569 2.022-3.363 1.77-1.771-.249-2.839-1.102-2.67-2.302m3.242-3.495c.867.122 1.45-.402 1.552-1.127.104-.737-.312-1.401-1.18-1.523-.891-.125-1.462.4-1.565 1.137-.104.737.302 1.388 1.193 1.513m-2.239 3.514c-.102.725.585 1.27 1.773 1.437 1.26.177 2.126-.21 2.237-.994.08-.571-.178-1.067-1.247-1.218l-1.937-.272c-.459.251-.759.572-.826 1.047m9.554-2.692c.246-1.747 1.655-3.064 3.532-2.8.891.125 1.544.569 1.994 1.25l.511-3.637 1.01.142-1.253 8.913-1.01-.142.1-.713c-.62.531-1.369.777-2.26.652-1.878-.264-2.869-1.918-2.624-3.665m1.07.15c-.179 1.272.535 2.402 1.806 2.581a2.36 2.36 0 0 0 2.164-.823l.33-2.353c-.363-.778-1.033-1.272-1.853-1.387-1.271-.179-2.269.711-2.447 1.982m12.316 3.779c-.664.67-1.622 1.02-2.739.863-2.02-.284-3.059-1.944-2.814-3.691.256-1.818 1.619-3.069 3.473-2.808 1.628.228 2.525 1.518 2.318 2.991a3 3 0 0 1-.16.62l-4.599-.646c-.166 1.443.627 2.439 1.911 2.619.772.109 1.476-.156 1.943-.635zm-2.224-4.784c-.986-.139-1.757.347-2.117 1.351l3.589.504c.088-.884-.415-1.706-1.472-1.855m10.892 6.184a3.13 3.13 0 0 0 2.781-.991l.795.815c-.906.927-2.225 1.432-3.723 1.222-2.602-.366-4.089-2.635-3.755-5.012s2.389-4.148 4.991-3.782c1.497.211 2.625 1.072 3.241 2.201l-.988.564a3.13 3.13 0 0 0-2.4-1.719c-1.877-.264-3.431 1.045-3.691 2.898-.261 1.854.872 3.54 2.749 3.804m9.944-6.503c2.59.364 4.077 2.633 3.743 5.009s-2.389 4.148-4.979 3.784c-2.603-.366-4.089-2.635-3.755-5.011s2.388-4.148 4.991-3.782m-1.089 7.747c1.865.263 3.419-1.046 3.679-2.9.261-1.853-.872-3.539-2.737-3.802-1.878-.264-3.431 1.045-3.692 2.899-.26 1.854.872 3.54 2.75 3.803m5.66 1.62.136-.963 3.223-2.503c1.118-.885 1.623-1.287 1.747-2.166.122-.868-.438-1.455-1.282-1.574-.879-.123-1.511.236-2.112.976l-.804-.659c.826-.962 1.84-1.45 3.135-1.268 1.39.196 2.368 1.254 2.178 2.609-.159 1.129-1.014 1.869-2.159 2.774l-2.607 1.997 4.242.596-.135.963zm12.849.8c-.663.67-1.621 1.02-2.738.863-2.021-.284-3.06-1.944-2.814-3.691.255-1.818 1.619-3.069 3.473-2.808 1.628.229 2.525 1.518 2.318 2.991a3 3 0 0 1-.16.62l-4.599-.646c-.166 1.443.627 2.439 1.91 2.619.773.109 1.476-.156 1.944-.635zm-2.224-4.784c-.986-.139-1.757.347-2.116 1.351l3.589.504c.088-.884-.415-1.706-1.473-1.855"/><path fill="#AEC8FC" d="M156.241 47.472c3.151-22.424 23.883-38.047 46.307-34.895l78.231 10.994c22.423 3.152 38.046 23.884 34.895 46.307l-7.922-1.113c2.997-21.33-10.533-40.864-30.222-43.63l-75.261-10.578c-21.329-2.998-41.05 11.863-44.048 33.193zM293.684 226.34c-3.382 24.064-25.631 40.83-49.695 37.448l-75.26-10.577c-22.424-3.152-38.047-23.884-34.895-46.307l2.398-2.693c-2.767 19.689 12.281 38.08 33.61 41.078l75.26 10.577c19.689 2.767 37.893-10.951 40.66-30.64zm-124.955 26.871c-22.424-3.152-38.047-23.884-34.895-46.307l22.407-159.433c3.151-22.424 23.883-38.047 46.307-34.895l-.279 1.98c-21.329-2.998-41.05 11.863-44.048 33.193l-21.989 156.462c-2.767 19.689 12.281 38.08 33.61 41.078zm112.05-229.64c22.423 3.15 38.046 23.883 34.895 46.306l-21.99 156.463c-3.382 24.064-25.631 40.83-49.695 37.448l1.113-7.922c19.689 2.767 37.893-10.951 40.66-30.64l21.99-156.462c2.997-21.33-10.533-40.864-30.222-43.63z" mask="url(#a)"/><mask id="b" width="193.252" height="263.042" x="91.664" y="266.321" fill="#000" maskUnits="userSpaceOnUse"><path fill="#fff" d="M91.664 266.321h193.252v263.042H91.664z"/><path d="M120.768 307.061c3.074-21.876 23.301-37.118 45.177-34.044l75.261 10.577c21.876 3.075 37.118 23.302 34.043 45.178L253.26 485.234c-3.075 21.877-23.301 37.119-45.178 34.044l-75.26-10.577c-21.876-3.075-37.118-23.301-34.044-45.178z"/></mask><path fill="#34A59E" d="M120.768 307.061c3.074-21.876 23.301-37.118 45.177-34.044l75.261 10.577c21.876 3.075 37.118 23.302 34.043 45.178L253.26 485.234c-3.075 21.877-23.301 37.119-45.178 34.044l-75.26-10.577c-21.876-3.075-37.118-23.301-34.044-45.178z"/><path fill="#272124" d="M171.89 394.022s-8.642-1.215-7.529-9.137l7.794-55.455s1.113-7.922 9.755-6.707l30.249 4.251s8.642 1.214 7.529 9.137l-7.794 55.455s-1.114 7.922-9.756 6.707z"/><path fill="#CCDCFD" d="m175.837 331.968 39.611 5.566-7.237 51.494-39.611-5.567z"/><path fill="#EBF2FF" d="m192.163 359.508 23.285-21.974-23.772 25.44-23.076 20.487z"/><path fill="#fff" d="M182.933 436.593c-.686 4.884-5.156 7.455-10.539 6.699-4.955-.697-7.771-3.419-9.344-7.494l5.732-2.502c.903 2.89 2.118 4.333 4.364 4.648 1.925.271 3.481-.71 3.726-2.457.271-1.925-1.158-3.144-3.332-3.449l-3.993-.561.752-5.348 3.814.536c1.533.216 2.957-.348 3.178-1.916.195-1.391-.764-2.325-2.297-2.541-1.818-.255-3.028.593-4.125 1.929l-4.458-3.716c2.306-2.694 5.449-4.106 9.798-3.495 4.777.671 7.905 3.765 7.319 7.936-.321 2.281-1.478 4.046-3.339 5.129 2.132 1.645 3.115 3.964 2.744 6.602m6.049 8.267 2.625-18.681-4.435 1.812-2.358-4.693 7.96-3.353 5.74.807-3.507 24.954zm-44.715 18.997 1.252-8.912 1.022.144-.805 5.727 3.211-2.408 1.295.182-2.858 2.143 2.064 3.852-1.248-.175-1.641-3.066-1.001.744-.269 1.913zm5.634 1.895c.085-.606.45-1.052 1.103-1.384a1.1 1.1 0 0 1-.296-.914c.067-.475.372-.833.877-1.064a2.09 2.09 0 0 1-.598-1.781c.162-1.153 1.202-2 2.628-1.8.44.062.819.212 1.118.412l2.222.312-.124.879-1.295-.182c.125.321.159.677.109 1.034-.16 1.14-1.188 1.99-2.626 1.788a3 3 0 0 1-.815-.236c-.275.143-.448.337-.479.563-.035.249.07.446.439.498l1.711.24c1.58.222 2.209 1.098 2.058 2.168-.177 1.259-1.568 2.021-3.363 1.769-1.77-.249-2.838-1.102-2.669-2.302m3.242-3.495c.867.122 1.45-.402 1.552-1.127.103-.737-.312-1.401-1.18-1.523-.891-.125-1.462.4-1.565 1.137-.104.737.301 1.388 1.193 1.513m-2.239 3.515c-.102.724.585 1.269 1.773 1.436 1.26.177 2.126-.21 2.236-.994.08-.57-.177-1.067-1.247-1.217l-1.937-.273c-.459.251-.758.572-.825 1.048m9.554-2.693c.245-1.747 1.654-3.063 3.532-2.8.891.126 1.544.569 1.993 1.25l.511-3.636 1.01.142-1.252 8.912-1.01-.142.1-.713c-.62.531-1.37.777-2.261.652-1.877-.264-2.869-1.918-2.623-3.665m1.069.15c-.178 1.272.535 2.402 1.807 2.581a2.35 2.35 0 0 0 2.163-.823l.331-2.353c-.363-.778-1.033-1.272-1.853-1.387-1.272-.179-2.269.711-2.448 1.982m12.316 3.779c-.663.67-1.621 1.02-2.738.863-2.021-.283-3.06-1.944-2.814-3.691.255-1.818 1.619-3.069 3.473-2.808 1.628.229 2.525 1.518 2.318 2.992a3 3 0 0 1-.16.619l-4.599-.646c-.166 1.443.627 2.439 1.91 2.619.773.109 1.476-.156 1.944-.635zm-2.223-4.784c-.987-.138-1.758.347-2.117 1.351l3.589.504c.088-.884-.415-1.706-1.472-1.855m10.892 6.184a3.13 3.13 0 0 0 2.781-.99l.794.814c-.906.927-2.225 1.432-3.722 1.222-2.603-.366-4.089-2.635-3.755-5.011s2.388-4.148 4.991-3.783c1.497.211 2.624 1.072 3.241 2.201l-.988.564a3.13 3.13 0 0 0-2.4-1.719c-1.878-.264-3.431 1.045-3.692 2.899-.26 1.853.872 3.539 2.75 3.803m9.943-6.503c2.591.364 4.077 2.633 3.743 5.01s-2.388 4.147-4.979 3.783c-2.602-.365-4.089-2.634-3.755-5.011s2.389-4.148 4.991-3.782m-1.089 7.748c1.866.262 3.419-1.047 3.68-2.9.26-1.854-.872-3.54-2.738-3.802-1.877-.264-3.431 1.044-3.691 2.898-.261 1.854.872 3.54 2.749 3.804m5.661 1.619.135-.962 3.224-2.504c1.118-.885 1.623-1.287 1.746-2.166.122-.867-.437-1.455-1.281-1.574-.879-.123-1.512.236-2.112.976l-.805-.658c.826-.963 1.84-1.451 3.135-1.269 1.391.196 2.369 1.254 2.179 2.609-.159 1.129-1.014 1.869-2.16 2.775l-2.607 1.996 4.243.596-.136.963zm12.849.8c-.664.67-1.622 1.02-2.739.864-2.02-.284-3.059-1.945-2.813-3.692.255-1.818 1.618-3.069 3.472-2.808 1.628.229 2.525 1.518 2.318 2.992-.033.237-.1.458-.159.619l-4.599-.646c-.167 1.443.626 2.439 1.91 2.619.772.109 1.476-.156 1.943-.635zm-2.224-4.784c-.986-.138-1.757.347-2.116 1.351l3.588.504c.088-.884-.414-1.706-1.472-1.855"/><path fill="#C5FCF8" d="M119.777 306.922c3.152-22.424 23.884-38.047 46.307-34.895l78.232 10.995c22.423 3.151 38.046 23.883 34.894 46.307l-7.922-1.114c2.998-21.329-10.533-40.863-30.222-43.63l-75.26-10.578c-21.329-2.997-41.051 11.864-44.048 33.193zm137.444 178.869c-3.382 24.064-25.631 40.83-49.695 37.448l-75.261-10.577c-22.423-3.151-38.046-23.884-34.895-46.307l2.398-2.693c-2.767 19.689 12.281 38.08 33.611 41.078l75.26 10.577c19.689 2.767 37.893-10.951 40.66-30.639zm-124.956 26.871c-22.423-3.151-38.046-23.884-34.895-46.307l22.407-159.433c3.152-22.424 23.884-38.047 46.307-34.895l-.278 1.98c-21.329-2.997-41.051 11.864-44.048 33.193l-21.99 156.462c-2.767 19.689 12.281 38.08 33.611 41.078zm112.051-229.64c22.423 3.151 38.046 23.883 34.894 46.307l-21.989 156.462c-3.382 24.064-25.631 40.83-49.695 37.448l1.113-7.922c19.689 2.767 37.893-10.951 40.66-30.639l21.989-156.463c2.998-21.329-10.533-40.863-30.222-43.63z" mask="url(#b)"/><mask id="c" width="193.531" height="265.023" x="54.923" y="525.771" fill="#000" maskUnits="userSpaceOnUse"><path fill="#fff" d="M54.923 525.771h193.531v265.023H54.923z"/><path d="M84.304 566.511c3.075-21.876 23.301-37.118 45.178-34.044l75.26 10.578c21.877 3.074 37.119 23.301 34.044 45.177l-22.268 158.443c-3.074 21.876-23.301 37.118-45.177 34.044l-75.26-10.577c-21.877-3.075-37.12-23.302-34.045-45.178z"/></mask><path fill="#235DD2" d="M84.304 566.511c3.075-21.876 23.301-37.118 45.178-34.044l75.26 10.578c21.877 3.074 37.119 23.301 34.044 45.177l-22.268 158.443c-3.074 21.876-23.301 37.118-45.177 34.044l-75.26-10.577c-21.877-3.075-37.12-23.302-34.045-45.178z"/><path fill="#E9952E" d="m146.096 631.409 30.808 4.33s4.621.649 5.487-5.512c.433-3.081 1.299-9.243-.025-11s-10.807-12.514-15.429-13.164l-9.242-1.299c-4.621-.649-16.92 8.618-16.92 8.618l-6.378.675s-4.838.891-5.271 3.971l-.649 4.622s-1.614.304-1.964 2.798c-.443 3.147 2.638 3.58 2.638 3.58z"/><path fill="#EBF2FF" d="m160.343 608.278-3.081-.433c-3.081-.433-13.622 7.511-13.622 7.511s7.754.676 15.516 1.365zm14.754 6.786c-1.324-1.757-7.052-5.704-10.133-6.137l-1.541-.216-1.164 8.286c6.223.554 11.761 1.057 12.405 1.148 1.541.216 1.757-1.324.433-3.081"/><path fill="#013" d="M140.825 635.381a6.222 6.222 0 1 0 1.731-12.323 6.222 6.222 0 0 0-1.731 12.323"/><path fill="#CFC5CC" d="M141.258 632.3a3.111 3.111 0 1 0 .866-6.162 3.111 3.111 0 0 0-.866 6.162"/><path fill="#013" d="M167.012 639.061a6.223 6.223 0 1 0 1.731-12.322 6.223 6.223 0 0 0-1.731 12.322"/><path fill="#CFC5CC" d="M167.445 635.98a3.11 3.11 0 1 0 .867-6.16 3.11 3.11 0 0 0-.867 6.16"/><path fill="#fff" d="m124.258 701.384.762-5.418 9.748-7.028c1.373-.97 2.699-2.129 2.925-3.733.23-1.64-.74-2.758-2.273-2.974-2.21-.31-3.673 1.047-5.212 2.94l-4.427-3.676c2.676-3.26 6.291-5.187 10.997-4.526 4.527.636 7.727 3.994 7.101 8.451-.481 3.422-3.139 5.775-5.436 7.379l-6.008 4.209 10.267 1.443-.762 5.418zm20.671 2.905.762-5.418 9.749-7.028c1.372-.97 2.698-2.129 2.924-3.733.23-1.64-.74-2.758-2.273-2.973-2.21-.311-3.673 1.046-5.211 2.939l-4.428-3.676c2.676-3.26 6.291-5.187 10.997-4.526 4.528.637 7.727 3.995 7.101 8.451-.481 3.422-3.138 5.775-5.436 7.379l-6.008 4.209 10.267 1.443-.762 5.419zm-46.04 19.878c.085-.606.45-1.051 1.103-1.384a1.1 1.1 0 0 1-.296-.914c.067-.475.372-.832.877-1.064a2.09 2.09 0 0 1-.598-1.781c.162-1.152 1.202-2 2.628-1.799.44.061.819.212 1.118.411l2.222.312-.124.88-1.295-.182c.125.32.159.677.109 1.033-.16 1.141-1.188 1.99-2.626 1.788a3 3 0 0 1-.815-.236c-.275.143-.447.337-.479.563-.035.25.07.446.439.498l1.711.24c1.58.223 2.209 1.099 2.058 2.168-.177 1.26-1.568 2.021-3.363 1.769-1.77-.249-2.838-1.102-2.67-2.302m3.242-3.495c.867.122 1.45-.402 1.552-1.127.103-.736-.312-1.401-1.18-1.523-.891-.125-1.462.401-1.565 1.138-.104.736.301 1.387 1.193 1.512m-2.24 3.515c-.101.725.586 1.27 1.774 1.437 1.26.177 2.126-.21 2.236-.995.08-.57-.177-1.067-1.246-1.217l-1.937-.272c-.46.25-.76.572-.826 1.047m9.555-2.693c.245-1.746 1.654-3.063 3.532-2.799.891.125 1.544.568 1.993 1.249l.511-3.636 1.01.142-1.252 8.913-1.01-.142.1-.713c-.62.53-1.369.777-2.261.651-1.877-.264-2.869-1.918-2.623-3.665m1.069.151c-.178 1.271.535 2.402 1.807 2.58a2.35 2.35 0 0 0 2.163-.823l.331-2.352c-.363-.779-1.033-1.273-1.853-1.388-1.271-.179-2.269.711-2.448 1.983m12.316 3.779c-.663.67-1.621 1.02-2.738.863-2.021-.284-3.06-1.945-2.814-3.692.256-1.818 1.619-3.068 3.473-2.808 1.628.229 2.525 1.519 2.318 2.992a3 3 0 0 1-.16.62l-4.599-.646c-.166 1.442.627 2.438 1.91 2.619.773.108 1.476-.156 1.944-.636zm-2.223-4.784c-.987-.139-1.758.346-2.117 1.35l3.589.505c.088-.885-.415-1.707-1.472-1.855m10.892 6.184a3.13 3.13 0 0 0 2.781-.991l.794.815c-.906.927-2.225 1.432-3.722 1.221-2.602-.365-4.089-2.634-3.755-5.011s2.388-4.148 4.991-3.782c1.497.21 2.624 1.072 3.241 2.2l-.988.564a3.13 3.13 0 0 0-2.4-1.718c-1.878-.264-3.431 1.044-3.691 2.898-.261 1.854.871 3.54 2.749 3.804m9.943-6.504c2.591.364 4.077 2.633 3.743 5.01s-2.388 4.148-4.979 3.784c-2.602-.366-4.089-2.635-3.755-5.012s2.389-4.148 4.991-3.782m-1.089 7.748c1.866.262 3.419-1.046 3.68-2.9.26-1.854-.872-3.54-2.738-3.802-1.877-.264-3.431 1.045-3.691 2.898-.261 1.854.872 3.54 2.749 3.804m5.661 1.62.135-.963 3.224-2.504c1.118-.885 1.623-1.286 1.747-2.166.121-.867-.438-1.455-1.282-1.573-.879-.124-1.511.236-2.112.975l-.804-.658c.826-.962 1.839-1.45 3.135-1.268 1.39.195 2.368 1.254 2.178 2.608-.159 1.129-1.014 1.869-2.159 2.775l-2.608 1.997 4.243.596-.136.962zm12.849.8c-.664.67-1.622 1.02-2.739.863-2.02-.284-3.059-1.945-2.813-3.692.255-1.818 1.618-3.068 3.472-2.808 1.628.229 2.525 1.519 2.318 2.992a3 3 0 0 1-.159.62l-4.599-.646c-.167 1.442.626 2.439 1.91 2.619.772.108 1.476-.156 1.943-.636zm-2.224-4.784c-.986-.139-1.757.346-2.116 1.35l3.588.505c.088-.885-.414-1.707-1.472-1.855m2.434 8.206 4.458-10.849 1.022.144-4.458 10.849zm5.422-1.625 1.253-8.912 1.022.143-.805 5.728 3.21-2.409 1.295.182-2.858 2.143 2.064 3.853-1.248-.175-1.641-3.066-1.001.743-.269 1.914zm6.522.917.841-5.99 1.01.142-.091.654c.525-.459 1.171-.744 2.002-.627.868.121 1.526.614 1.787 1.426.567-.587 1.267-.997 2.301-.852 1.284.18 2.102 1.168 1.873 2.796l-.526 3.743-1.01-.142.521-3.707c.141-.999-.338-1.647-1.193-1.768-.761-.107-1.356.246-1.846.892-.007.132-.013.265-.033.407l-.527 3.744-1.01-.142.521-3.708c.141-.998-.326-1.645-1.193-1.767-.82-.115-1.403.324-1.834.893l-.583 4.148z"/><path fill="#AEC8FC" d="M83.314 566.372c3.151-22.423 23.884-38.046 46.307-34.895l78.231 10.995c22.423 3.151 38.046 23.884 34.895 46.307l-7.922-1.114c2.998-21.329-10.533-40.863-30.222-43.63l-75.26-10.577c-21.33-2.998-41.05 11.863-44.049 33.192zm137.165 180.85c-3.382 24.064-25.631 40.83-49.695 37.448l-75.26-10.577c-22.424-3.152-38.047-23.884-34.895-46.307l2.398-2.693c-2.767 19.689 12.28 38.08 33.61 41.078l75.26 10.577c19.689 2.767 37.893-10.951 40.66-30.64zM95.524 774.093c-22.424-3.152-38.047-23.884-34.895-46.307l22.685-161.414c3.151-22.423 23.884-38.046 46.307-34.895l-.278 1.981c-21.33-2.998-41.05 11.863-44.049 33.192L63.027 725.093c-2.767 19.689 12.28 38.08 33.61 41.078zm112.328-231.621c22.423 3.151 38.046 23.884 34.895 46.307l-22.268 158.443c-3.382 24.064-25.631 40.83-49.695 37.448l1.113-7.922c19.689 2.767 37.893-10.951 40.66-30.64l22.268-158.443c2.998-21.329-10.533-40.863-30.222-43.63z" mask="url(#c)"/><mask id="d" width="193.252" height="263.042" x="18.459" y="787.202" fill="#000" maskUnits="userSpaceOnUse"><path fill="#fff" d="M18.459 787.202h193.252v263.042H18.459z"/><path d="M47.563 827.942c3.074-21.876 23.3-37.118 45.177-34.044L168 804.475c21.877 3.075 37.119 23.302 34.044 45.178l-21.989 156.467c-3.075 21.87-23.301 37.11-45.178 34.04l-75.26-10.58c-21.876-3.07-37.118-23.3-34.044-45.176z"/></mask><path fill="#D47909" d="M47.563 827.942c3.074-21.876 23.3-37.118 45.177-34.044L168 804.475c21.877 3.075 37.119 23.302 34.044 45.178l-21.989 156.467c-3.075 21.87-23.301 37.11-45.178 34.04l-75.26-10.58c-21.876-3.07-37.118-23.3-34.044-45.176z"/><path fill="#272124" d="M139.895 902.89s-.784 5.577-6.36 4.793l-36.246-5.094c-5.576-.784-4.793-6.36-4.793-6.36l3.723-26.488c.783-5.576 6.36-4.792 6.36-4.792l36.246 5.094s5.576.784 4.792 6.36z"/><path fill="#272124" d="M124.838 871.473a1.407 1.407 0 1 1-2.248 1.695l-11.014-14.616a1.407 1.407 0 1 1 2.249-1.694z"/><path fill="#272124" d="M115.629 870.179a1.406 1.406 0 0 0-.277 1.971c.468.622 1.35.746 1.971.277l14.616-11.013a1.407 1.407 0 1 0-1.695-2.248z"/><path fill="#90B3F8" d="M120.114 871.678c11.152 1.567 13.745 3.353 14.943 4.943s2.2 4.574 1.221 11.545c-.98 6.97-2.766 9.563-4.356 10.761s-4.574 2.2-15.727.633c-11.152-1.568-13.745-3.354-14.943-4.944s-2.2-4.574-1.221-11.544 2.766-9.563 4.356-10.761 4.574-2.2 15.727-.633"/><path fill="#B5ABB2" d="M134.623 904.993a2.112 2.112 0 1 0 .587-4.183 2.112 2.112 0 0 0-.587 4.183m-37.64-5.29a2.112 2.112 0 1 0 .587-4.184 2.112 2.112 0 0 0-.587 4.184"/><path fill="#fff" d="M96.36 955.595c-.687 4.884-5.156 7.455-10.54 6.699-4.955-.696-7.771-3.419-9.343-7.493l5.732-2.503c.902 2.89 2.117 4.333 4.363 4.648 1.925.271 3.48-.71 3.726-2.457.271-1.925-1.157-3.144-3.332-3.449l-3.993-.561.752-5.348 3.814.536c1.533.216 2.957-.348 3.178-1.916.195-1.39-.764-2.325-2.297-2.54-1.818-.256-3.028.592-4.124 1.928l-4.459-3.716c2.306-2.694 5.449-4.106 9.798-3.495 4.777.672 7.905 3.765 7.319 7.936-.32 2.282-1.477 4.046-3.338 5.129 2.131 1.645 3.114 3.964 2.743 6.602m4.286-2.633 2.747-14.373 15.757 2.214-.761 5.419-9.982-1.403-.73 3.642.713.1c7.165 1.007 9.754 4.316 9.033 9.449-.752 5.348-5.338 7.975-10.614 7.234-4.884-.687-7.813-3.389-9.38-7.499l5.732-2.502c.933 2.93 2.224 4.348 4.399 4.653 1.961.276 3.445-.715 3.691-2.462.275-1.961-1.122-3.139-3.939-3.535zm30.961-11.135c6.809.957 9.042 7.051 7.985 14.573s-4.884 12.765-11.693 11.808c-6.773-.952-9.042-7.051-7.985-14.574s4.919-12.759 11.693-11.807m-.746 5.566c-2.567-.36-4.104 2.296-4.78 7.108-.681 4.849.069 7.79 2.635 8.15 2.46.346 4.033-2.305 4.709-7.118.681-4.848-.104-7.794-2.564-8.14m-59.798 37.345 1.252-8.912 1.022.144-.805 5.727 3.21-2.408 1.296.182-2.858 2.143 2.064 3.852-1.248-.175-1.641-3.066-1.001.744-.27 1.913zm5.634 1.895c.085-.606.45-1.052 1.103-1.384a1.1 1.1 0 0 1-.296-.914c.067-.475.372-.833.877-1.064a2.09 2.09 0 0 1-.598-1.781c.162-1.153 1.202-2 2.628-1.8.44.062.819.212 1.118.412l2.222.312-.124.879-1.295-.182c.124.321.16.677.11 1.034-.161 1.14-1.19 1.99-2.627 1.788a3 3 0 0 1-.815-.236c-.275.143-.448.337-.48.563-.034.249.071.446.44.498l1.71.24c1.581.222 2.21 1.098 2.06 2.168-.178 1.259-1.57 2.021-3.364 1.769-1.77-.249-2.838-1.102-2.67-2.302m3.242-3.495c.867.122 1.45-.402 1.552-1.127.103-.737-.312-1.401-1.18-1.523-.891-.125-1.462.4-1.565 1.137-.104.737.301 1.388 1.193 1.513m-2.24 3.515c-.101.724.586 1.269 1.774 1.436 1.26.177 2.126-.21 2.236-.994.08-.57-.177-1.067-1.247-1.217l-1.937-.273c-.459.251-.759.572-.825 1.048m9.555-2.693c.245-1.747 1.654-3.063 3.532-2.8.89.126 1.544.569 1.993 1.25l.511-3.636 1.01.142-1.252 8.912-1.01-.142.1-.713c-.62.531-1.37.777-2.26.652-1.878-.264-2.87-1.918-2.624-3.665m1.07.15c-.18 1.272.534 2.402 1.806 2.581a2.36 2.36 0 0 0 2.163-.823l.33-2.353c-.362-.778-1.032-1.272-1.852-1.387-1.272-.179-2.27.711-2.448 1.982m12.315 3.779c-.663.67-1.622 1.02-2.739.863-2.02-.283-3.059-1.944-2.813-3.691.255-1.818 1.619-3.069 3.472-2.808 1.628.229 2.526 1.518 2.319 2.992a3 3 0 0 1-.16.619l-4.599-.646c-.166 1.443.627 2.439 1.91 2.619.772.109 1.476-.156 1.944-.635zm-2.224-4.784c-.986-.138-1.757.347-2.116 1.351l3.589.504c.088-.884-.415-1.706-1.473-1.855m10.893 6.184a3.13 3.13 0 0 0 2.781-.99l.794.814c-.906.927-2.225 1.432-3.722 1.222-2.603-.366-4.089-2.635-3.755-5.011s2.388-4.148 4.991-3.783c1.497.211 2.624 1.072 3.241 2.201l-.988.564a3.13 3.13 0 0 0-2.4-1.719c-1.878-.264-3.431 1.045-3.692 2.899-.26 1.853.872 3.539 2.75 3.803m9.943-6.503c2.591.364 4.077 2.633 3.743 5.01s-2.388 4.147-4.979 3.783c-2.602-.365-4.089-2.634-3.755-5.011s2.389-4.148 4.991-3.782m-1.089 7.748c1.866.262 3.419-1.047 3.68-2.9.26-1.854-.872-3.54-2.738-3.802-1.877-.264-3.431 1.044-3.691 2.898-.261 1.854.872 3.54 2.749 3.804m5.661 1.619.135-.962 3.224-2.504c1.118-.885 1.623-1.287 1.746-2.166.122-.867-.437-1.455-1.281-1.574-.879-.123-1.512.236-2.112.976l-.805-.658c.826-.963 1.84-1.451 3.135-1.269 1.391.196 2.369 1.254 2.179 2.609-.159 1.129-1.014 1.869-2.16 2.775l-2.607 1.996 4.242.596-.135.963zm12.849.8c-.664.67-1.622 1.02-2.739.864-2.02-.284-3.059-1.945-2.814-3.692.256-1.818 1.619-3.069 3.473-2.808 1.628.229 2.525 1.518 2.318 2.992a3 3 0 0 1-.16.62l-4.598-.647c-.167 1.443.626 2.439 1.91 2.62.772.108 1.476-.157 1.943-.636zm-2.224-4.784c-.986-.138-1.757.347-2.117 1.351l3.589.504c.088-.884-.414-1.706-1.472-1.855"/><path fill="#FCD4A4" d="M46.572 827.803c3.152-22.424 23.884-38.046 46.307-34.895l78.231 10.995c22.424 3.151 38.047 23.883 34.895 46.307l-7.922-1.114c2.998-21.329-10.533-40.863-30.222-43.63l-75.26-10.578c-21.33-2.997-41.05 11.864-44.048 33.193zm137.444 178.867c-3.382 24.07-25.631 40.83-49.695 37.45l-75.26-10.58c-22.424-3.15-38.047-23.88-34.896-46.304l2.398-2.693c-2.767 19.687 12.281 38.077 33.61 41.077l75.261 10.58c19.689 2.77 37.893-10.95 40.66-30.64zM59.06 1033.54c-22.423-3.15-38.046-23.88-34.895-46.304l22.407-159.433c3.152-22.424 23.884-38.046 46.307-34.895l-.278 1.98c-21.33-2.997-41.05 11.864-44.048 33.193l-21.99 156.462c-2.767 19.687 12.281 38.077 33.61 41.077zm112.05-229.637c22.424 3.151 38.047 23.883 34.895 46.307l-21.989 156.46c-3.382 24.07-25.631 40.83-49.695 37.45l1.113-7.92c19.689 2.77 37.893-10.95 40.66-30.64l21.989-156.464c2.998-21.329-10.533-40.863-30.222-43.63z" mask="url(#d)"/><mask id="e" width="193.252" height="263.042" x="294.129" y="119.065" fill="#000" maskUnits="userSpaceOnUse"><path fill="#fff" d="M294.129 119.065h193.252v263.042H294.129z"/><path d="M323.232 159.805c3.074-21.876 23.301-37.118 45.178-34.043l75.26 10.577c21.876 3.074 37.118 23.301 34.044 45.177l-21.99 156.463c-3.074 21.876-23.301 37.118-45.177 34.044l-75.261-10.578c-21.876-3.074-37.118-23.301-34.043-45.177z"/></mask><path fill="#34A59E" d="M323.232 159.805c3.074-21.876 23.301-37.118 45.178-34.043l75.26 10.577c21.876 3.074 37.118 23.301 34.044 45.177l-21.99 156.463c-3.074 21.876-23.301 37.118-45.177 34.044l-75.261-10.578c-21.876-3.074-37.118-23.301-34.043-45.177z"/><path fill="#002F8E" d="M411.788 231.382a4.46 4.46 0 0 1-5.02 3.783l-28.608-4.021a4.457 4.457 0 0 1-3.782-5.02l2.01-14.303a4.46 4.46 0 0 1 5.02-3.783l28.607 4.021a4.457 4.457 0 0 1 3.783 5.019z"/><path fill="#002F8E" d="m377.006 207.419 37.41 5.258-.927 6.602-37.41-5.258z"/><path fill="#EAE5E8" d="m377.006 207.419 37.41 5.258-1.082 7.702-37.41-5.257z"/><path fill="#272124" d="m377.006 207.419 4.402.619-5.484 7.084zm12.104 1.701-5.484 7.084 7.702 1.082 5.484-7.083zm15.404 2.165-5.484 7.084 7.702 1.082 5.484-7.083z"/><path fill="#EAE5E8" d="m376.197 199.684 37.571-3.928.81 7.734-37.572 3.929z"/><path fill="#272124" d="m376.197 199.684 5.23 7.273-4.421.462zm20.701 5.656-5.229-7.274-7.736.809 5.23 7.274zm15.472-1.618-5.23-7.274-7.736.809 5.23 7.273z"/><path fill="#fff" d="m371.011 294.732 2.625-18.68-4.435 1.812-2.358-4.694 7.96-3.353 5.74.807-3.507 24.955zm10.901 1.568.761-5.418 9.749-7.028c1.372-.97 2.699-2.129 2.924-3.733.231-1.64-.739-2.758-2.272-2.973-2.211-.311-3.674 1.046-5.212 2.939l-4.428-3.676c2.676-3.26 6.292-5.187 10.997-4.526 4.528.637 7.728 3.995 7.101 8.451-.481 3.422-3.138 5.775-5.436 7.379l-6.008 4.209 10.267 1.443-.761 5.418zm-35.181 20.302 1.253-8.913 1.022.144-.805 5.728 3.21-2.409 1.295.182-2.858 2.143 2.064 3.853-1.248-.175-1.641-3.067-1.001.744-.269 1.913zm5.634 1.894c.085-.606.451-1.051 1.103-1.384a1.1 1.1 0 0 1-.295-.914c.067-.475.371-.832.876-1.064a2.09 2.09 0 0 1-.598-1.781c.162-1.152 1.202-2 2.628-1.799.44.061.819.212 1.118.411l2.222.313-.123.879-1.296-.182c.125.32.16.677.11 1.033-.161 1.141-1.189 1.99-2.627 1.788a3 3 0 0 1-.815-.236c-.275.143-.447.337-.479.563-.035.25.071.446.439.498l1.711.241c1.581.222 2.209 1.098 2.059 2.167-.177 1.26-1.569 2.021-3.363 1.769-1.771-.249-2.839-1.101-2.67-2.302m3.242-3.495c.867.122 1.45-.402 1.552-1.126.103-.737-.312-1.402-1.18-1.523-.891-.126-1.462.4-1.565 1.137-.104.736.302 1.387 1.193 1.512m-2.239 3.515c-.102.725.585 1.27 1.773 1.437 1.26.177 2.126-.21 2.237-.995.08-.57-.178-1.067-1.247-1.217l-1.937-.272c-.459.25-.759.572-.826 1.047m9.554-2.692c.246-1.747 1.655-3.064 3.532-2.8.891.125 1.544.568 1.994 1.249l.511-3.636 1.01.142-1.253 8.913-1.01-.142.1-.713c-.62.531-1.369.777-2.26.651-1.878-.264-2.869-1.918-2.624-3.664m1.07.15c-.179 1.271.535 2.402 1.806 2.58a2.35 2.35 0 0 0 2.164-.823l.33-2.352c-.363-.779-1.033-1.273-1.853-1.388-1.271-.178-2.269.711-2.447 1.983m12.316 3.779c-.664.67-1.622 1.02-2.739.863-2.02-.284-3.059-1.945-2.814-3.692.256-1.818 1.619-3.068 3.473-2.808 1.628.229 2.525 1.519 2.318 2.992a3 3 0 0 1-.16.62l-4.599-.646c-.166 1.443.627 2.439 1.911 2.619.772.108 1.476-.156 1.943-.636zm-2.224-4.784c-.986-.139-1.757.346-2.117 1.35l3.589.505c.088-.885-.415-1.707-1.472-1.855m10.892 6.184a3.13 3.13 0 0 0 2.781-.991l.795.815c-.906.927-2.225 1.432-3.723 1.221-2.602-.365-4.089-2.634-3.755-5.011s2.389-4.148 4.991-3.782c1.497.21 2.625 1.072 3.241 2.2l-.988.564a3.13 3.13 0 0 0-2.4-1.718c-1.877-.264-3.431 1.044-3.691 2.898-.261 1.854.872 3.54 2.749 3.804m9.944-6.504c2.59.364 4.077 2.633 3.743 5.01s-2.389 4.148-4.979 3.784c-2.603-.366-4.089-2.635-3.755-5.011s2.388-4.148 4.991-3.783m-1.089 7.748c1.865.262 3.419-1.046 3.679-2.9.261-1.854-.872-3.54-2.737-3.802-1.878-.264-3.431 1.045-3.692 2.899-.26 1.853.872 3.539 2.75 3.803m5.66 1.62.136-.963 3.223-2.503c1.118-.886 1.623-1.287 1.747-2.167.122-.867-.438-1.455-1.282-1.573-.879-.124-1.511.236-2.112.975l-.804-.658c.826-.962 1.84-1.45 3.135-1.268 1.39.195 2.368 1.254 2.178 2.609-.159 1.128-1.014 1.869-2.159 2.774l-2.607 1.997 4.242.596-.135.962zm12.849.8c-.663.67-1.621 1.02-2.738.863-2.021-.284-3.06-1.945-2.814-3.692.255-1.818 1.619-3.068 3.472-2.808 1.628.229 2.526 1.519 2.319 2.992a3 3 0 0 1-.16.62l-4.599-.646c-.166 1.443.627 2.439 1.91 2.619.773.109 1.476-.156 1.943-.636zm-2.224-4.784c-.986-.139-1.757.347-2.116 1.35l3.589.505c.088-.885-.415-1.707-1.473-1.855"/><path fill="#C5FCF8" d="M322.242 159.666c3.151-22.423 23.883-38.046 46.307-34.895l78.231 10.995c22.423 3.151 38.046 23.884 34.895 46.307l-7.922-1.113c2.997-21.33-10.533-40.864-30.222-43.631l-75.261-10.577c-21.329-2.998-41.05 11.863-44.048 33.193zm137.443 178.87c-3.382 24.064-25.631 40.83-49.695 37.448l-75.26-10.577c-22.424-3.152-38.047-23.884-34.895-46.308l2.398-2.692c-2.767 19.689 12.281 38.08 33.61 41.077l75.26 10.578c19.689 2.767 37.893-10.951 40.66-30.64zM334.73 365.407c-22.424-3.152-38.047-23.884-34.895-46.308l22.407-159.433c3.151-22.423 23.883-38.046 46.307-34.895l-.279 1.981c-21.329-2.998-41.05 11.863-44.048 33.193l-21.989 156.462c-2.767 19.689 12.281 38.08 33.61 41.077zm112.05-229.641c22.423 3.151 38.046 23.884 34.895 46.307l-21.99 156.463c-3.382 24.064-25.631 40.83-49.695 37.448l1.113-7.922c19.689 2.767 37.893-10.951 40.66-30.64l21.99-156.462c2.997-21.33-10.533-40.864-30.222-43.631z" mask="url(#e)"/><mask id="f" width="193.252" height="263.042" x="257.665" y="378.516" fill="#000" maskUnits="userSpaceOnUse"><path fill="#fff" d="M257.665 378.516h193.252v263.042H257.665z"/><path d="M286.769 419.256c3.074-21.877 23.301-37.119 45.177-34.044l75.261 10.577c21.876 3.075 37.118 23.301 34.043 45.178l-21.989 156.462c-3.075 21.876-23.301 37.118-45.178 34.044l-75.26-10.577c-21.876-3.075-37.118-23.302-34.044-45.178z"/></mask><path fill="#D47909" d="M286.769 419.256c3.074-21.877 23.301-37.119 45.177-34.044l75.261 10.577c21.876 3.075 37.118 23.301 34.043 45.178l-21.989 156.462c-3.075 21.876-23.301 37.118-45.178 34.044l-75.26-10.577c-21.876-3.075-37.118-23.302-34.044-45.178z"/><path fill="#EAE5E8" d="M380.196 488.344c-.428-1.551-.932-3.24-2.608-3.475l-1.519-.214a3.07 3.07 0 0 0 3.465-2.622l3.644-25.922a3.074 3.074 0 0 0-2.609-3.476l-39.478-5.548a3.073 3.073 0 0 0-3.466 2.622l-3.643 25.922a3.074 3.074 0 0 0 2.608 3.476l-1.518-.213c-1.676-.236-2.745 1.168-3.465 2.622l-4.082 7.006a3.074 3.074 0 0 0 2.608 3.477l48.59 6.829a3.074 3.074 0 0 0 3.465-2.623z"/><path fill="#746770" d="m327.52 488.651-.004.088.111 1.087c.332 1.118 1.28 2 2.506 2.173l48.59 6.829c1.633.229 3.138-.883 3.435-2.498z"/><path fill="#749FF4" d="M376.712 480.08a1.535 1.535 0 0 1-1.733 1.311l-36.442-5.121a1.537 1.537 0 0 1-1.304-1.738l3.214-22.87a1.536 1.536 0 0 1 1.733-1.311l36.442 5.121c.84.118 1.422.897 1.304 1.738z"/><path fill="#B5ABB2" d="m378.12 491.066-.69-3.465c-.265-.749-.786-1.406-1.625-1.524l-39.248-5.516c-.838-.118-1.463.426-1.977 1.326l-1.466 2.855c-.46.859.466 1.62 1.304 1.738l11.506 1.617s1.433.129 1.805-.687c.43-.943.977-2.378 1.086-2.629.169-.385.703-.723 1.413-.623l13.025 1.83c.76.107 1.079.544 1.111 1.033.02.318.23 1.799.285 2.799.046.891 1.729 1.15 1.729 1.15l10.012 1.407c.837.118 1.948-.455 1.73-1.311"/><path fill="#746770" d="m361.687 491.963-11.815-1.66c-.569-.08-.743-.636-.59-1.129.152-.491.927-2.645 1-2.898.071-.255.496-.511.876-.458l10.651 1.497c.451.063.71.352.731.86.02.509.108 2.556.073 3.016-.035.461-.381.849-.926.772"/><path fill="#fff" d="m324.149 552.721 2.626-18.68-4.436 1.812-2.357-4.694 7.96-3.353 5.739.807-3.507 24.955zm29.306-3.298c-.686 4.884-5.155 7.456-10.538 6.699-4.956-.696-7.772-3.419-9.344-7.493l5.732-2.503c.902 2.89 2.117 4.333 4.363 4.649 1.925.27 3.481-.711 3.726-2.458.271-1.925-1.157-3.144-3.332-3.449l-3.993-.561.752-5.348 3.814.536c1.533.216 2.957-.347 3.178-1.916.195-1.39-.764-2.325-2.297-2.54-1.818-.256-3.028.592-4.124 1.928l-4.459-3.716c2.306-2.694 5.449-4.106 9.798-3.495 4.777.672 7.905 3.765 7.319 7.936-.321 2.282-1.478 4.046-3.338 5.129 2.131 1.645 3.114 3.964 2.743 6.602m4.287-2.633 2.747-14.373 15.757 2.214-.762 5.419-9.981-1.403-.73 3.642.713.1c7.165 1.007 9.754 4.316 9.032 9.449-.751 5.348-5.337 7.975-10.614 7.234-4.884-.687-7.812-3.389-9.379-7.499l5.732-2.502c.933 2.93 2.224 4.348 4.399 4.653 1.961.276 3.445-.715 3.691-2.462.275-1.961-1.122-3.139-3.939-3.535zm-47.474 29.262 1.252-8.912 1.022.143-.805 5.728 3.211-2.409 1.295.182-2.858 2.143 2.064 3.853-1.248-.175-1.641-3.066-1.001.743-.269 1.914zm5.634 1.895c.085-.606.45-1.052 1.103-1.384a1.1 1.1 0 0 1-.296-.914c.067-.476.372-.833.877-1.065a2.08 2.08 0 0 1-.598-1.78c.162-1.153 1.202-2 2.628-1.8.44.062.819.212 1.118.411l2.222.313-.124.879-1.295-.182c.125.321.159.677.109 1.033-.16 1.141-1.188 1.99-2.626 1.788a3 3 0 0 1-.815-.235c-.275.143-.448.337-.479.562-.035.25.07.446.439.498l1.711.241c1.58.222 2.209 1.098 2.058 2.167-.177 1.26-1.568 2.022-3.363 1.769-1.77-.248-2.838-1.101-2.669-2.301m3.242-3.495c.867.122 1.45-.402 1.552-1.127.103-.737-.312-1.401-1.18-1.523-.891-.125-1.462.4-1.565 1.137-.104.737.301 1.387 1.193 1.513m-2.239 3.514c-.102.725.585 1.27 1.773 1.437 1.26.177 2.126-.21 2.236-.994.08-.571-.177-1.067-1.247-1.218l-1.937-.272c-.459.251-.759.572-.825 1.047m9.554-2.692c.245-1.747 1.654-3.064 3.532-2.8.891.125 1.544.569 1.993 1.25l.511-3.637 1.01.142-1.252 8.913-1.01-.142.1-.713c-.62.531-1.37.777-2.261.652-1.877-.264-2.869-1.918-2.623-3.665m1.069.15c-.178 1.272.535 2.402 1.807 2.581a2.35 2.35 0 0 0 2.163-.823l.331-2.353c-.363-.778-1.033-1.272-1.853-1.388-1.272-.178-2.269.712-2.448 1.983m12.316 3.779c-.663.67-1.621 1.02-2.738.863-2.021-.284-3.06-1.944-2.814-3.691.255-1.818 1.619-3.069 3.473-2.808 1.628.228 2.525 1.518 2.318 2.991a3 3 0 0 1-.16.62l-4.599-.646c-.166 1.443.627 2.439 1.91 2.619.773.109 1.476-.156 1.944-.636zm-2.224-4.784c-.986-.139-1.757.347-2.116 1.35l3.589.505c.088-.885-.415-1.706-1.473-1.855m10.893 6.184a3.13 3.13 0 0 0 2.781-.991l.794.815c-.906.927-2.225 1.432-3.722 1.222-2.603-.366-4.089-2.635-3.755-5.012s2.388-4.148 4.991-3.782c1.497.211 2.624 1.072 3.241 2.201l-.988.564a3.13 3.13 0 0 0-2.4-1.719c-1.878-.264-3.431 1.045-3.692 2.898-.26 1.854.872 3.54 2.75 3.804m9.943-6.503c2.591.364 4.077 2.633 3.743 5.009s-2.388 4.148-4.979 3.784c-2.602-.366-4.089-2.635-3.755-5.011s2.389-4.148 4.991-3.782m-1.089 7.747c1.866.263 3.419-1.046 3.68-2.9.26-1.854-.872-3.54-2.738-3.802-1.877-.264-3.431 1.045-3.691 2.899-.261 1.854.872 3.54 2.749 3.803m5.661 1.62.135-.963 3.224-2.503c1.118-.885 1.623-1.287 1.746-2.166.122-.868-.437-1.455-1.281-1.574-.879-.124-1.512.236-2.112.976l-.805-.659c.826-.962 1.84-1.45 3.135-1.268 1.391.196 2.369 1.254 2.179 2.609-.159 1.129-1.014 1.869-2.16 2.774l-2.607 1.997 4.243.596-.136.963zm12.849.8c-.664.67-1.622 1.02-2.739.863-2.02-.284-3.059-1.944-2.813-3.691.255-1.818 1.618-3.069 3.472-2.808 1.628.229 2.525 1.518 2.318 2.991-.033.238-.1.459-.16.62l-4.598-.646c-.167 1.443.626 2.439 1.91 2.619.772.109 1.476-.156 1.943-.635zm-2.224-4.784c-.986-.139-1.757.347-2.116 1.351l3.588.504c.088-.884-.414-1.706-1.472-1.855"/><path fill="#FCD4A4" d="M285.778 419.117c3.152-22.424 23.884-38.047 46.307-34.895l78.232 10.994c22.423 3.152 38.046 23.884 34.894 46.307l-7.922-1.113c2.998-21.329-10.533-40.864-30.222-43.631l-75.26-10.577c-21.329-2.998-41.051 11.863-44.048 33.193zm137.444 178.869c-3.382 24.064-25.631 40.83-49.695 37.448l-75.261-10.577c-22.423-3.152-38.046-23.884-34.895-46.307l2.398-2.693c-2.767 19.689 12.281 38.08 33.611 41.078l75.26 10.577c19.689 2.767 37.893-10.951 40.66-30.64zm-124.956 26.871c-22.423-3.152-38.046-23.884-34.895-46.307l22.407-159.433c3.152-22.424 23.884-38.047 46.307-34.895l-.278 1.98c-21.329-2.998-41.051 11.863-44.048 33.193l-21.99 156.462c-2.767 19.689 12.281 38.08 33.611 41.078zm112.051-229.641c22.423 3.152 38.046 23.884 34.894 46.307l-21.989 156.463c-3.382 24.064-25.631 40.83-49.695 37.448l1.113-7.922c19.689 2.767 37.893-10.951 40.66-30.64l21.989-156.462c2.998-21.329-10.533-40.864-30.222-43.631z" mask="url(#f)"/><mask id="g" width="193.252" height="263.042" x="221.202" y="637.966" fill="#000" maskUnits="userSpaceOnUse"><path fill="#fff" d="M221.202 637.966h193.252v263.042H221.202z"/><path d="M250.305 678.706c3.075-21.876 23.301-37.118 45.178-34.044l75.26 10.577c21.877 3.075 37.118 23.302 34.044 45.178l-21.989 156.462c-3.075 21.877-23.302 37.119-45.178 34.044l-75.26-10.577c-21.877-3.075-37.119-23.301-34.044-45.178z"/></mask><path fill="#0C44B4" d="M250.305 678.706c3.075-21.876 23.301-37.118 45.178-34.044l75.26 10.577c21.877 3.075 37.118 23.302 34.044 45.178l-21.989 156.462c-3.075 21.877-23.302 37.119-45.178 34.044l-75.26-10.577c-21.877-3.075-37.119-23.301-34.044-45.178z"/><path fill="#FEE5C7" d="M341.618 737.908c.203-1.445 3.461-8.665 5.972-10.556 2.508-1.891.643-4.574-1.557-4.883-4.92-.691-14.605 8.114-15.417 13.893-1.015 7.223 6.166 16.223 11.087 16.915 2.2.309 4.685-1.41 2.795-3.921-1.892-2.508-3.286-8.559-2.88-11.448"/><path fill="#FEE5C7" d="M310.151 719.319c.619-4.4 3.4-8.498 5.6-8.189 6.601.927 18.267 9.672 18.921 20.984.655 11.313-24.521-12.795-24.521-12.795m3.301 27.392c1.892 2.509 5.984 5.33 10.386 5.948s-3.644-6.683-.963-9.11c3.681-3.338-9.423 3.162-9.423 3.162"/><path fill="#110D10" d="M297.198 738.629c1.563-3.146 1.073-5.646-.518-8.299-1.59-2.656 5.981-1.965 7.992 1.684 2.01 3.649 6.978 10.234 1.854 9.425-5.119-.816-9.328-2.81-9.328-2.81"/><path fill="#F6B360" d="M295.513 730.674c1.208 1.458 9.56 7.692 9.308 8.876-.252 1.185-3.275-.59-4.429-1.033-2.076-.796-2.631-1.251-3.241-1.231-1.278.294-1.044 1.623-.695 2.413 1.634 4.075 9.579 8.215 16.621 9.204 12.152 1.708 25.82-7.59 26.438-11.992.619-4.4-11.335-17.302-23.488-19.01-12.123-1.705-19.57 6.179-20.514 12.773"/><path fill="#110D10" d="M306.7 722.688a2.917 2.917 0 1 1-.812 5.78 2.917 2.917 0 0 1 .812-5.78"/><path fill="#D47909" d="M315.738 743.081a1.46 1.46 0 0 1-.982-2.293c2.906-4.062 4.376-7.883 2.099-13.323a1.459 1.459 0 0 1 2.693-1.127c2.97 7.099.444 12.146-2.42 16.147-.326.458-.87.669-1.39.596"/><path fill="#fff" d="M309.5 807.821c-.686 4.884-5.156 7.455-10.539 6.698-4.955-.696-7.772-3.419-9.344-7.493l5.732-2.503c.903 2.89 2.118 4.333 4.364 4.649 1.925.27 3.481-.711 3.726-2.458.271-1.925-1.158-3.143-3.332-3.449l-3.993-.561.751-5.347 3.815.536c1.533.215 2.957-.348 3.178-1.917.195-1.39-.764-2.325-2.297-2.54-1.818-.256-3.028.592-4.125 1.929l-4.458-3.717c2.305-2.693 5.449-4.106 9.798-3.495 4.777.672 7.905 3.765 7.319 7.936-.321 2.282-1.478 4.046-3.339 5.13 2.132 1.644 3.115 3.964 2.744 6.602m4.286-2.633 2.748-14.374 15.757 2.215-.762 5.418-9.982-1.402-.73 3.641.713.101c7.166 1.007 9.755 4.315 9.033 9.449-.751 5.347-5.338 7.974-10.614 7.233-4.884-.687-7.812-3.388-9.38-7.499l5.733-2.502c.933 2.93 2.224 4.348 4.399 4.653 1.96.276 3.445-.715 3.69-2.462.276-1.961-1.122-3.139-3.938-3.534zm-39.982 30.314 1.253-8.912 1.022.143-.805 5.728 3.21-2.408 1.296.182-2.858 2.143 2.063 3.852-1.247-.175-1.642-3.066-1.001.744-.269 1.913zm5.634 1.895c.085-.606.451-1.052 1.104-1.384a1.1 1.1 0 0 1-.296-.914c.067-.476.371-.833.877-1.065a2.08 2.08 0 0 1-.598-1.78c.162-1.153 1.202-2 2.628-1.8.439.062.818.212 1.117.412l2.222.312-.123.879-1.295-.182c.124.321.159.677.109 1.034-.16 1.14-1.189 1.99-2.627 1.787a3 3 0 0 1-.815-.235c-.274.143-.447.337-.479.563-.035.249.071.446.439.497l1.711.241c1.581.222 2.209 1.098 2.059 2.168-.177 1.259-1.569 2.021-3.363 1.769-1.771-.249-2.838-1.102-2.67-2.302m3.242-3.495c.868.122 1.45-.402 1.552-1.127.104-.737-.312-1.401-1.179-1.523-.892-.125-1.462.4-1.566 1.137-.103.737.302 1.388 1.193 1.513m-2.239 3.515c-.102.724.585 1.269 1.774 1.436 1.259.177 2.126-.21 2.236-.994.08-.571-.177-1.067-1.247-1.217l-1.937-.273c-.459.251-.759.572-.826 1.048m9.554-2.693c.246-1.747 1.655-3.064 3.532-2.8.892.126 1.544.569 1.994 1.25l.511-3.636 1.01.142-1.253 8.912-1.01-.142.101-.713c-.62.531-1.37.777-2.261.652-1.878-.264-2.869-1.918-2.624-3.665m1.07.15c-.179 1.272.535 2.402 1.806 2.581a2.36 2.36 0 0 0 2.164-.823l.331-2.353c-.364-.778-1.033-1.272-1.853-1.387-1.272-.179-2.269.711-2.448 1.982m12.316 3.779c-.664.67-1.622 1.02-2.739.863-2.02-.284-3.059-1.944-2.813-3.691.255-1.818 1.618-3.069 3.472-2.808 1.628.229 2.525 1.518 2.318 2.992-.033.237-.1.458-.159.619l-4.599-.646c-.167 1.443.626 2.439 1.91 2.619.772.109 1.476-.156 1.943-.635zm-2.224-4.784c-.986-.139-1.757.347-2.116 1.351l3.588.504c.088-.884-.414-1.706-1.472-1.855m10.892 6.184a3.13 3.13 0 0 0 2.781-.99l.795.814c-.906.927-2.225 1.432-3.722 1.222-2.603-.366-4.09-2.635-3.756-5.011s2.389-4.148 4.991-3.783c1.498.211 2.625 1.072 3.242 2.201l-.988.564a3.13 3.13 0 0 0-2.401-1.719c-1.877-.264-3.43 1.045-3.691 2.899-.26 1.853.872 3.539 2.749 3.803m9.944-6.503c2.59.364 4.077 2.633 3.743 5.009s-2.389 4.148-4.979 3.784c-2.603-.365-4.089-2.634-3.755-5.011s2.388-4.148 4.991-3.782m-1.089 7.748c1.866.262 3.419-1.047 3.679-2.901.261-1.853-.872-3.539-2.737-3.802-1.878-.263-3.431 1.045-3.692 2.899-.26 1.854.872 3.54 2.75 3.804m5.661 1.619.135-.962 3.224-2.504c1.118-.885 1.622-1.287 1.746-2.166.122-.868-.438-1.455-1.281-1.574-.88-.123-1.512.236-2.113.976l-.804-.659c.826-.962 1.84-1.45 3.135-1.268 1.39.196 2.369 1.254 2.178 2.609-.158 1.129-1.014 1.869-2.159 2.774l-2.607 1.997 4.242.596-.135.963zm12.849.8c-.664.67-1.622 1.02-2.739.863-2.02-.283-3.059-1.944-2.814-3.691.256-1.818 1.619-3.069 3.473-2.808 1.628.229 2.525 1.518 2.318 2.992a3 3 0 0 1-.16.619l-4.599-.646c-.166 1.443.627 2.439 1.91 2.619.773.109 1.476-.156 1.944-.635zm-2.224-4.784c-.987-.138-1.758.347-2.117 1.351l3.589.504c.088-.884-.415-1.706-1.472-1.855"/><path fill="#AEC8FC" d="M249.315 678.567c3.151-22.424 23.884-38.047 46.307-34.895l78.231 10.995c22.423 3.151 38.046 23.883 34.895 46.307l-7.922-1.114c2.998-21.329-10.533-40.863-30.222-43.63l-75.26-10.578c-21.33-2.997-41.051 11.864-44.049 33.193zm137.444 178.869c-3.382 24.064-25.632 40.83-49.696 37.448l-75.26-10.577c-22.423-3.151-38.046-23.884-34.895-46.307l2.398-2.693c-2.767 19.689 12.281 38.08 33.61 41.078l75.261 10.577c19.688 2.767 37.892-10.951 40.66-30.639zm-124.956 26.871c-22.423-3.151-38.046-23.884-34.895-46.307l22.407-159.433c3.151-22.424 23.884-38.047 46.307-34.895l-.278 1.98c-21.33-2.997-41.051 11.864-44.049 33.193l-21.989 156.462c-2.767 19.689 12.281 38.08 33.61 41.078zm112.05-229.64c22.423 3.151 38.046 23.883 34.895 46.307l-21.989 156.462c-3.382 24.064-25.632 40.83-49.696 37.448l1.114-7.922c19.688 2.767 37.892-10.951 40.66-30.639l21.989-156.463c2.998-21.329-10.533-40.863-30.222-43.63z" mask="url(#g)"/><mask id="h" width="193.252" height="263.042" x="184.739" y="897.416" fill="#000" maskUnits="userSpaceOnUse"><path fill="#fff" d="M184.739 897.416h193.252v263.042H184.739z"/><path d="M213.842 938.156c3.074-21.876 23.301-37.118 45.177-34.044l75.261 10.577c21.876 3.075 37.118 23.302 34.044 45.178l-21.99 156.463c-3.074 21.88-23.301 37.12-45.177 34.04l-75.261-10.57c-21.876-3.08-37.118-23.31-34.044-45.18z"/></mask><path fill="#34A59E" d="M213.842 938.156c3.074-21.876 23.301-37.118 45.177-34.044l75.261 10.577c21.876 3.075 37.118 23.302 34.044 45.178l-21.99 156.463c-3.074 21.88-23.301 37.12-45.177 34.04l-75.261-10.57c-21.876-3.08-37.118-23.31-34.044-45.18z"/><path fill="#002F8E" d="M302.398 1009.73c-.341 2.42-2.6 4.13-5.02 3.79l-28.608-4.03c-2.421-.34-4.123-2.59-3.783-5.01l2.011-14.309a4.456 4.456 0 0 1 5.019-3.782l28.608 4.02a4.46 4.46 0 0 1 3.783 5.02z"/><path fill="#002F8E" d="m267.616 985.77 37.41 5.258-.927 6.602-37.411-5.258z"/><path fill="#EAE5E8" d="m267.616 985.77 37.41 5.258-1.082 7.702-37.41-5.258z"/><path fill="#272124" d="m267.616 985.77 4.401.619-5.483 7.083zm12.103 1.701-5.483 7.084 7.702 1.082 5.484-7.083zm15.405 2.165-5.484 7.084 7.702 1.082 5.484-7.083z"/><path fill="#EAE5E8" d="m266.807 978.034 37.571-3.928.81 7.735-37.572 3.929z"/><path fill="#272124" d="m266.807 978.034 5.23 7.274-4.421.462zm20.701 5.657-5.229-7.275-7.736.809 5.229 7.275zm15.471-1.619-5.229-7.274-7.736.809 5.23 7.273z"/><path fill="#fff" d="m261.621 1073.08 2.625-18.68-4.435 1.81-2.358-4.69 7.96-3.35 5.74.8-3.508 24.96zm10.9 1.57.762-5.42 9.749-7.03c1.372-.97 2.698-2.12 2.924-3.73.23-1.64-.739-2.76-2.272-2.97-2.211-.31-3.674 1.05-5.212 2.94l-4.428-3.68c2.676-3.26 6.291-5.19 10.997-4.52 4.528.63 7.727 3.99 7.101 8.45-.481 3.42-3.138 5.77-5.436 7.38l-6.008 4.2 10.267 1.45-.761 5.42zm-35.18 20.3 1.253-8.91 1.021.14-.804 5.73 3.21-2.41 1.295.18-2.858 2.15 2.064 3.85-1.248-.17-1.641-3.07-1.001.74-.269 1.92zm5.634 1.9c.085-.61.451-1.05 1.103-1.39a1.08 1.08 0 0 1-.295-.91c.066-.48.371-.83.876-1.07a2.08 2.08 0 0 1-.598-1.78c.162-1.15 1.202-2 2.628-1.8.44.07.819.22 1.118.42l2.222.31-.124.88-1.295-.18c.125.32.16.67.109 1.03-.16 1.14-1.188 1.99-2.626 1.79a3.3 3.3 0 0 1-.815-.24c-.275.14-.447.34-.479.56-.035.25.071.45.439.5l1.711.24c1.581.22 2.209 1.1 2.058 2.17-.177 1.26-1.568 2.02-3.362 1.77-1.771-.25-2.839-1.1-2.67-2.3m3.242-3.5c.867.12 1.45-.4 1.552-1.12.103-.74-.312-1.41-1.18-1.53-.891-.12-1.462.4-1.565 1.14-.104.74.302 1.39 1.193 1.51m-2.239 3.52c-.102.72.585 1.27 1.773 1.43 1.26.18 2.126-.21 2.236-.99.081-.57-.177-1.07-1.246-1.22l-1.937-.27c-.46.25-.759.57-.826 1.05m9.554-2.7c.245-1.74 1.654-3.06 3.532-2.8.891.13 1.544.57 1.993 1.25l.512-3.63 1.01.14-1.253 8.91-1.01-.14.1-.71c-.62.53-1.369.77-2.261.65-1.877-.26-2.869-1.92-2.623-3.67m1.069.15c-.178 1.28.535 2.41 1.807 2.59.832.11 1.625-.19 2.163-.83l.331-2.35a2.38 2.38 0 0 0-1.853-1.39c-1.271-.18-2.269.71-2.448 1.98m12.317 3.78c-.664.67-1.622 1.02-2.739.87-2.02-.29-3.059-1.95-2.814-3.69.256-1.82 1.619-3.07 3.473-2.81 1.628.23 2.525 1.52 2.318 2.99-.033.24-.101.46-.16.62l-4.599-.65c-.166 1.45.627 2.44 1.91 2.62.773.11 1.476-.15 1.944-.63zm-2.224-4.78c-.987-.14-1.758.35-2.117 1.35l3.589.5c.088-.88-.415-1.7-1.472-1.85m10.892 6.18a3.12 3.12 0 0 0 2.781-.99l.794.82c-.905.92-2.225 1.43-3.722 1.22-2.602-.37-4.089-2.64-3.755-5.01.334-2.38 2.389-4.15 4.991-3.78 1.497.21 2.624 1.07 3.241 2.2l-.988.56a3.13 3.13 0 0 0-2.4-1.72c-1.878-.26-3.431 1.05-3.691 2.9-.261 1.85.872 3.54 2.749 3.8m9.943-6.5c2.591.36 4.078 2.63 3.744 5.01s-2.389 4.15-4.979 3.78c-2.603-.36-4.09-2.63-3.756-5.01.334-2.37 2.389-4.15 4.991-3.78m-1.089 7.75c1.866.26 3.419-1.05 3.68-2.9.26-1.86-.872-3.54-2.738-3.8-1.877-.27-3.43 1.04-3.691 2.89-.26 1.86.872 3.54 2.749 3.81m5.661 1.62.135-.97 3.224-2.5c1.118-.88 1.623-1.29 1.747-2.16.122-.87-.438-1.46-1.282-1.58-.879-.12-1.511.24-2.112.98l-.804-.66c.826-.96 1.839-1.45 3.135-1.27 1.39.2 2.368 1.25 2.178 2.61-.159 1.13-1.014 1.87-2.159 2.77l-2.608 2 4.243.6-.136.96zm12.849.8c-.664.67-1.622 1.02-2.739.86-2.02-.28-3.059-1.94-2.813-3.69.255-1.82 1.619-3.07 3.472-2.81 1.628.23 2.526 1.52 2.319 2.99a3 3 0 0 1-.16.62l-4.599-.64c-.167 1.44.627 2.44 1.91 2.62.772.1 1.476-.16 1.943-.64zm-2.224-4.79c-.986-.14-1.757.35-2.116 1.35l3.589.51c.087-.89-.415-1.71-1.473-1.86"/><path fill="#C5FCF8" d="M212.851 938.017c3.152-22.423 23.884-38.046 46.308-34.895l78.231 10.995c22.423 3.151 38.046 23.884 34.895 46.307l-7.922-1.114c2.997-21.329-10.534-40.863-30.222-43.63l-75.261-10.577c-21.329-2.998-41.05 11.863-44.048 33.192zm137.444 178.873c-3.382 24.06-25.631 40.83-49.695 37.44l-75.26-10.57c-22.424-3.15-38.047-23.89-34.895-46.31l2.398-2.69c-2.767 19.69 12.28 38.08 33.61 41.08l75.26 10.57c19.689 2.77 37.893-10.95 40.66-30.64zm-124.955 26.87c-22.424-3.15-38.047-23.89-34.895-46.31l22.406-159.433c3.152-22.423 23.884-38.046 46.308-34.895l-.279 1.981c-21.329-2.998-41.05 11.863-44.048 33.192l-21.989 156.465c-2.767 19.69 12.28 38.08 33.61 41.08zm112.05-229.643c22.423 3.151 38.046 23.884 34.895 46.307l-21.99 156.466c-3.382 24.06-25.631 40.83-49.695 37.44l1.113-7.92c19.689 2.77 37.893-10.95 40.66-30.64l21.99-156.46c2.997-21.329-10.534-40.863-30.222-43.63z" mask="url(#h)"/><mask id="i" width="193.252" height="263.042" x="484.624" y="56.973" fill="#000" maskUnits="userSpaceOnUse"><path fill="#fff" d="M484.624 56.973h193.252v263.042H484.624z"/><path d="M513.728 97.713c3.074-21.876 23.301-37.118 45.177-34.044l75.261 10.577c21.876 3.075 37.118 23.302 34.043 45.178L646.22 275.886c-3.075 21.877-23.301 37.119-45.178 34.044l-75.26-10.577c-21.876-3.074-37.118-23.301-34.044-45.178z"/></mask><path fill="#D47909" d="M513.728 97.713c3.074-21.876 23.301-37.118 45.177-34.044l75.261 10.577c21.876 3.075 37.118 23.302 34.043 45.178L646.22 275.886c-3.075 21.877-23.301 37.119-45.178 34.044l-75.26-10.577c-21.876-3.074-37.118-23.301-34.044-45.178z"/><path fill="#272124" d="M606.06 172.661s-.784 5.577-6.36 4.793l-36.246-5.094c-5.576-.784-4.793-6.36-4.793-6.36l3.723-26.487c.783-5.577 6.36-4.793 6.36-4.793l36.246 5.094s5.576.784 4.792 6.36z"/><path fill="#272124" d="M591.003 141.245a1.406 1.406 0 1 1-2.248 1.694l-11.014-14.616a1.407 1.407 0 1 1 2.249-1.694z"/><path fill="#272124" d="M581.794 139.95a1.406 1.406 0 0 0-.277 1.971c.469.622 1.35.746 1.971.278l14.616-11.014a1.407 1.407 0 1 0-1.695-2.248z"/><path fill="#90B3F8" d="M586.279 141.449c11.152 1.568 13.745 3.354 14.943 4.944s2.2 4.574 1.221 11.544-2.766 9.563-4.356 10.761-4.574 2.2-15.727.633c-11.152-1.568-13.745-3.354-14.943-4.944s-2.2-4.574-1.22-11.544c.979-6.97 2.765-9.563 4.355-10.761s4.574-2.2 15.727-.633"/><path fill="#B5ABB2" d="M600.788 174.764a2.112 2.112 0 1 0 .589-4.18 2.112 2.112 0 0 0-.589 4.18m-37.64-5.29a2.111 2.111 0 1 0 .588-4.182 2.111 2.111 0 0 0-.588 4.182"/><path fill="#fff" d="M562.525 225.367c-.687 4.884-5.156 7.455-10.539 6.698-4.956-.696-7.772-3.419-9.344-7.493l5.732-2.503c.902 2.89 2.117 4.333 4.363 4.649 1.925.27 3.481-.711 3.726-2.458.271-1.925-1.157-3.143-3.332-3.449l-3.993-.561.752-5.348 3.814.536c1.533.216 2.958-.347 3.178-1.916.195-1.39-.764-2.325-2.297-2.54-1.818-.256-3.028.592-4.124 1.928l-4.458-3.716c2.305-2.694 5.448-4.106 9.797-3.495 4.777.672 7.905 3.765 7.319 7.936-.321 2.282-1.477 4.046-3.338 5.129 2.131 1.645 3.114 3.965 2.744 6.603m4.286-2.633 2.747-14.374 15.757 2.214-.761 5.419-9.982-1.403-.73 3.642.713.1c7.165 1.007 9.754 4.316 9.033 9.45-.752 5.347-5.338 7.974-10.614 7.233-4.884-.687-7.813-3.389-9.38-7.499l5.732-2.502c.933 2.93 2.224 4.348 4.399 4.653 1.961.276 3.445-.715 3.691-2.462.275-1.961-1.122-3.139-3.939-3.535zm30.961-11.136c6.809.957 9.043 7.051 7.985 14.573s-4.884 12.765-11.693 11.808c-6.773-.952-9.042-7.051-7.985-14.573s4.919-12.76 11.693-11.808m-.746 5.566c-2.567-.36-4.103 2.296-4.78 7.108-.681 4.849.069 7.79 2.635 8.15 2.46.346 4.033-2.305 4.709-7.117.681-4.849-.104-7.795-2.564-8.141m-59.799 37.345 1.252-8.912 1.022.144-.805 5.727 3.211-2.408 1.295.182-2.858 2.143 2.064 3.853-1.248-.176-1.641-3.066-1.001.744-.269 1.913zm5.634 1.895c.085-.606.45-1.052 1.103-1.384a1.1 1.1 0 0 1-.296-.914c.067-.475.372-.832.877-1.064a2.08 2.08 0 0 1-.598-1.781c.162-1.153 1.202-2 2.628-1.8.44.062.818.212 1.118.412l2.222.312-.124.88-1.295-.183c.125.321.159.677.109 1.034-.16 1.141-1.188 1.99-2.626 1.788a3 3 0 0 1-.815-.236c-.275.143-.448.337-.479.563-.035.249.07.446.439.498l1.711.24c1.58.222 2.209 1.098 2.058 2.168-.177 1.259-1.568 2.021-3.363 1.769-1.77-.249-2.838-1.102-2.669-2.302m3.242-3.495c.867.122 1.45-.402 1.552-1.127.103-.737-.313-1.401-1.18-1.523-.891-.125-1.462.401-1.565 1.137-.104.737.301 1.388 1.193 1.513m-2.239 3.515c-.102.725.585 1.269 1.773 1.436 1.26.178 2.126-.21 2.236-.994.08-.57-.177-1.067-1.247-1.217l-1.937-.273c-.459.251-.759.572-.825 1.048m9.554-2.693c.245-1.747 1.654-3.063 3.532-2.8.891.126 1.544.569 1.993 1.25l.511-3.636 1.01.142-1.252 8.912-1.01-.142.1-.713c-.62.531-1.37.777-2.261.652-1.877-.264-2.869-1.918-2.623-3.665m1.069.15c-.178 1.272.535 2.402 1.807 2.581a2.35 2.35 0 0 0 2.163-.823l.331-2.353c-.363-.778-1.033-1.272-1.853-1.387-1.272-.179-2.269.711-2.448 1.982m12.316 3.779c-.663.67-1.621 1.021-2.738.864-2.021-.284-3.06-1.945-2.814-3.692.255-1.818 1.619-3.069 3.472-2.808 1.628.229 2.526 1.518 2.319 2.992a3 3 0 0 1-.16.62l-4.599-.647c-.166 1.443.627 2.439 1.91 2.62.773.108 1.476-.157 1.943-.636zm-2.224-4.784c-.986-.138-1.757.347-2.116 1.351l3.589.504c.088-.884-.415-1.706-1.473-1.855m10.893 6.184a3.13 3.13 0 0 0 2.781-.99l.794.814c-.906.927-2.225 1.433-3.722 1.222-2.603-.366-4.089-2.635-3.755-5.011s2.388-4.148 4.991-3.782c1.497.21 2.624 1.071 3.241 2.2l-.988.564a3.13 3.13 0 0 0-2.4-1.719c-1.878-.264-3.431 1.045-3.692 2.899-.26 1.853.872 3.539 2.75 3.803m9.943-6.503c2.591.364 4.077 2.633 3.743 5.01s-2.388 4.148-4.979 3.783c-2.602-.365-4.089-2.634-3.755-5.011s2.389-4.148 4.991-3.782m-1.089 7.748c1.866.262 3.419-1.047 3.68-2.9.26-1.854-.872-3.54-2.738-3.802-1.877-.264-3.431 1.044-3.691 2.898-.261 1.854.872 3.54 2.749 3.804m5.661 1.619.135-.962 3.224-2.504c1.118-.885 1.623-1.287 1.746-2.166.122-.867-.437-1.455-1.281-1.574-.879-.123-1.512.236-2.112.976l-.805-.658c.826-.963 1.84-1.45 3.135-1.268 1.391.195 2.369 1.253 2.179 2.608-.159 1.129-1.014 1.869-2.16 2.775l-2.607 1.996 4.243.596-.136.963zm12.849.8c-.664.671-1.622 1.021-2.739.864-2.02-.284-3.059-1.945-2.814-3.692.256-1.818 1.619-3.068 3.473-2.808 1.628.229 2.525 1.518 2.318 2.992-.033.237-.1.458-.16.62l-4.598-.647c-.167 1.443.626 2.439 1.91 2.62.772.108 1.476-.156 1.943-.636zm-2.224-4.784c-.986-.138-1.757.347-2.116 1.351l3.588.504c.088-.884-.414-1.706-1.472-1.855"/><path fill="#FCD4A4" d="M512.737 97.574c3.152-22.423 23.884-38.046 46.307-34.895l78.232 10.995c22.423 3.151 38.046 23.883 34.894 46.307l-7.922-1.114c2.998-21.33-10.533-40.863-30.222-43.63l-75.26-10.577c-21.33-2.998-41.051 11.863-44.048 33.192zm137.444 178.869c-3.382 24.064-25.631 40.83-49.695 37.448l-75.261-10.577c-22.423-3.151-38.046-23.884-34.895-46.307l2.398-2.692c-2.767 19.688 12.281 38.079 33.611 41.077l75.26 10.577c19.689 2.767 37.893-10.951 40.66-30.639zm-124.956 26.871c-22.423-3.151-38.046-23.884-34.895-46.307l22.407-159.433c3.152-22.423 23.884-38.046 46.307-34.895l-.278 1.98c-21.33-2.997-41.051 11.864-44.048 33.193l-21.99 156.463c-2.767 19.688 12.281 38.079 33.611 41.077zm112.051-229.64c22.423 3.151 38.046 23.883 34.894 46.307l-21.989 156.462c-3.382 24.064-25.631 40.83-49.695 37.448l1.113-7.922c19.689 2.767 37.893-10.951 40.66-30.639l21.989-156.463c2.998-21.33-10.533-40.863-30.222-43.63z" mask="url(#i)"/><mask id="j" width="193.252" height="263.042" x="448.161" y="316.423" fill="#000" maskUnits="userSpaceOnUse"><path fill="#fff" d="M448.161 316.423h193.252v263.042H448.161z"/><path d="M477.264 357.163c3.075-21.876 23.301-37.118 45.178-34.044l75.26 10.578c21.877 3.074 37.118 23.301 34.044 45.177l-21.989 156.463c-3.075 21.876-23.302 37.118-45.178 34.043l-75.26-10.577c-21.877-3.074-37.119-23.301-34.044-45.177z"/></mask><path fill="#0C44B4" d="M477.264 357.163c3.075-21.876 23.301-37.118 45.178-34.044l75.26 10.578c21.877 3.074 37.118 23.301 34.044 45.177l-21.989 156.463c-3.075 21.876-23.302 37.118-45.178 34.043l-75.26-10.577c-21.877-3.074-37.119-23.301-34.044-45.177z"/><path fill="#F9C382" d="M550.202 397.984c-16.204-2.277-31.484 1.93-32.886 11.903-1.051 7.479 5.275 14.723 16.078 16.241 6.219.874 13.331-1.955 18.041-1.293q.252.036.49.084c6.978 1.412 6.326 7.245 15.328 8.51 4.215.593 9.528-2.474 10.754-11.199 1.577-11.219-9.8-21.715-27.805-24.246"/><path fill="#F9C382" d="m575.438 414.383 3.601.506-1.012 7.202-3.601-.506zm-57.109-11.698 3.601.506-1.013 7.202-3.601-.506z"/><path fill="#A0041E" d="M568.44 424.981c-4.089-.574-5.718-2.189-7.609-4.058-1.724-1.706-3.677-3.636-7.564-4.425q-.316-.064-.645-.111c-2.58-.362-5.484.116-8.558.626-3.218.53-6.545 1.08-9.481.667-9.39-1.319-15.468-7.52-14.453-14.742 1.366-9.715 16.946-12.872 30.91-10.91 16.693 2.346 27.703 11.912 26.18 22.747-1.158 8.23-5.887 10.613-8.78 10.206"/><path fill="#FEE5C7" d="M550.864 393.276c15.648 2.199 25.976 11.134 24.555 21.246-1.049 7.461-5.111 9.45-6.803 9.212-3.302-.464-4.513-1.661-6.347-3.475-1.827-1.807-4.1-4.056-8.672-4.981q-.39-.08-.799-.138c-2.967-.417-6.052.093-9.315.631-3.038.502-6.177 1.02-8.726.661-7.159-1.006-13.862-5.879-12.827-13.241 1.251-8.905 15.842-11.755 28.934-9.915m.35-2.494c-16.204-2.277-31.484 1.93-32.885 11.903-1.052 7.479 5.275 14.723 16.078 16.241 6.218.874 13.33-1.955 18.04-1.293q.252.036.49.084c6.979 1.412 6.326 7.245 15.328 8.511 4.215.592 9.528-2.475 10.755-11.2 1.576-11.219-9.801-21.715-27.806-24.246"/><path fill="#FEE5C7" d="M547.538 392.915s5.127.614 8.377 3.612c1.626 1.499.034 4.136.034 4.136l2.867 1.357s.099-1.519 5.751-1.734c4.156-.158 7.828 3.643 7.828 3.643s-3.701-6.877-12.528-9.388c-8.827-2.513-12.329-1.626-12.329-1.626"/><path fill="#F9F7F8" d="M562.066 405.018c-.387 2.753-3.926 4.533-7.903 3.974s-6.888-3.245-6.501-5.998 3.925-4.532 7.902-3.973 6.888 3.244 6.502 5.997"/><path fill="#B5ABB2" d="M558.465 404.512c-.194 1.378-1.964 2.267-3.951 1.988s-3.445-1.623-3.251-3 1.964-2.265 3.951-1.986 3.445 1.621 3.251 2.998"/><path fill="#fff" d="m534.85 493.504-6.952-.977 14.76-17.847-12.014-1.689.761-5.418 18.431 2.59-.761 5.419zm-34.087 20.456 1.253-8.913 1.022.144-.805 5.728 3.21-2.409 1.296.182-2.858 2.143 2.063 3.853-1.247-.176-1.642-3.066-1.001.744-.269 1.913zm5.634 1.894c.085-.606.451-1.051 1.104-1.384a1.1 1.1 0 0 1-.296-.914c.067-.475.371-.832.877-1.064a2.08 2.08 0 0 1-.598-1.781c.162-1.152 1.202-2 2.628-1.799.439.061.818.211 1.117.411l2.222.312-.123.88-1.295-.182c.124.32.159.676.109 1.033-.161 1.141-1.189 1.99-2.627 1.788a3 3 0 0 1-.815-.236c-.274.143-.447.337-.479.563-.035.249.071.446.439.498l1.711.24c1.581.222 2.209 1.098 2.059 2.168-.177 1.26-1.569 2.021-3.363 1.769-1.771-.249-2.838-1.102-2.67-2.302m3.242-3.495c.868.122 1.45-.402 1.552-1.127.104-.736-.312-1.401-1.179-1.523-.892-.125-1.462.401-1.566 1.138-.103.736.302 1.387 1.193 1.512m-2.239 3.515c-.102.725.585 1.27 1.774 1.437 1.259.177 2.126-.21 2.236-.995.08-.57-.177-1.067-1.247-1.217l-1.937-.272c-.459.25-.759.572-.826 1.047m9.554-2.693c.246-1.746 1.655-3.063 3.532-2.799.892.125 1.544.568 1.994 1.249l.511-3.636 1.01.142-1.253 8.912-1.01-.142.101-.713c-.62.531-1.37.777-2.261.652-1.878-.264-2.869-1.918-2.624-3.665m1.07.151c-.179 1.271.535 2.402 1.806 2.58a2.35 2.35 0 0 0 2.164-.823l.331-2.353c-.364-.778-1.033-1.272-1.853-1.387-1.272-.179-2.269.711-2.448 1.983m12.316 3.779c-.664.67-1.622 1.02-2.739.863-2.02-.284-3.059-1.945-2.813-3.692.255-1.818 1.618-3.068 3.472-2.808 1.628.229 2.525 1.518 2.318 2.992-.033.238-.1.458-.16.62l-4.598-.647c-.167 1.443.626 2.439 1.91 2.62.772.108 1.476-.156 1.943-.636zm-2.224-4.785c-.986-.138-1.757.347-2.116 1.351l3.588.504c.088-.884-.414-1.706-1.472-1.855m10.892 6.185a3.13 3.13 0 0 0 2.781-.991l.795.814c-.906.927-2.225 1.433-3.722 1.222-2.603-.365-4.09-2.634-3.756-5.011s2.389-4.148 4.991-3.782c1.498.21 2.625 1.071 3.242 2.2l-.988.564a3.14 3.14 0 0 0-2.401-1.719c-1.877-.263-3.43 1.045-3.691 2.899s.872 3.54 2.749 3.804m9.944-6.504c2.59.364 4.077 2.633 3.743 5.01s-2.389 4.148-4.979 3.784c-2.603-.366-4.089-2.635-3.755-5.012s2.388-4.148 4.991-3.782m-1.089 7.748c1.866.262 3.419-1.046 3.679-2.9.261-1.854-.872-3.54-2.737-3.802-1.878-.264-3.431 1.045-3.692 2.898-.26 1.854.872 3.54 2.75 3.804m5.661 1.62.135-.963 3.224-2.504c1.118-.885 1.622-1.286 1.746-2.166.122-.867-.438-1.455-1.281-1.573-.88-.124-1.512.236-2.113.975l-.804-.658c.826-.963 1.84-1.45 3.135-1.268 1.39.195 2.369 1.254 2.178 2.608-.158 1.129-1.014 1.869-2.159 2.775l-2.607 1.996 4.242.597-.135.962zm12.849.8c-.664.67-1.622 1.02-2.739.863-2.02-.284-3.059-1.945-2.814-3.692.256-1.818 1.619-3.068 3.473-2.808 1.628.229 2.525 1.519 2.318 2.992a3 3 0 0 1-.16.62l-4.599-.646c-.166 1.442.627 2.438 1.91 2.619.773.108 1.476-.156 1.944-.636zm-2.224-4.784c-.987-.139-1.758.346-2.117 1.35l3.589.504c.088-.884-.415-1.706-1.472-1.854"/><path fill="#AEC8FC" d="M476.274 357.024c3.151-22.423 23.884-38.046 46.307-34.895l78.231 10.995c22.423 3.151 38.046 23.884 34.895 46.307l-7.922-1.113c2.998-21.33-10.533-40.864-30.222-43.631l-75.26-10.577c-21.33-2.998-41.051 11.863-44.049 33.192zm137.444 178.869c-3.382 24.064-25.632 40.83-49.696 37.449l-75.26-10.578c-22.423-3.151-38.046-23.883-34.895-46.307l2.398-2.692c-2.767 19.689 12.281 38.08 33.61 41.077l75.261 10.577c19.688 2.767 37.892-10.95 40.66-30.639zm-124.956 26.871c-22.423-3.151-38.046-23.883-34.895-46.307l22.407-159.433c3.151-22.423 23.884-38.046 46.307-34.895l-.278 1.981c-21.33-2.998-41.051 11.863-44.049 33.192l-21.989 156.463c-2.767 19.689 12.281 38.08 33.61 41.077zm112.05-229.64c22.423 3.151 38.046 23.884 34.895 46.307l-21.989 156.462c-3.382 24.064-25.632 40.83-49.696 37.449l1.114-7.923c19.688 2.767 37.892-10.95 40.66-30.639l21.989-156.462c2.998-21.33-10.533-40.864-30.222-43.631z" mask="url(#j)"/><mask id="k" width="193.252" height="263.042" x="411.698" y="575.873" fill="#000" maskUnits="userSpaceOnUse"><path fill="#fff" d="M411.698 575.873H604.95v263.042H411.698z"/><path d="M440.801 616.613c3.074-21.876 23.301-37.118 45.177-34.043l75.261 10.577c21.876 3.074 37.118 23.301 34.044 45.178l-21.99 156.462c-3.074 21.876-23.301 37.118-45.177 34.044l-75.261-10.578c-21.876-3.074-37.118-23.301-34.044-45.177z"/></mask><path fill="#34A59E" d="M440.801 616.613c3.074-21.876 23.301-37.118 45.177-34.043l75.261 10.577c21.876 3.074 37.118 23.301 34.044 45.178l-21.99 156.462c-3.074 21.876-23.301 37.118-45.177 34.044l-75.261-10.578c-21.876-3.074-37.118-23.301-34.044-45.177z"/><path fill="#002F8E" d="M529.356 688.19a4.457 4.457 0 0 1-5.019 3.783l-28.608-4.021a4.457 4.457 0 0 1-3.783-5.019l2.011-14.304a4.457 4.457 0 0 1 5.019-3.783l28.608 4.021a4.457 4.457 0 0 1 3.783 5.019z"/><path fill="#002F8E" d="m494.575 664.227 37.41 5.258-.927 6.602-37.411-5.258z"/><path fill="#EAE5E8" d="m494.575 664.227 37.41 5.258-1.082 7.702-37.41-5.257z"/><path fill="#272124" d="m494.575 664.227 4.401.619-5.483 7.084zm12.103 1.701-5.483 7.084 7.702 1.082 5.484-7.083zm15.405 2.165-5.484 7.084 7.702 1.082 5.484-7.083z"/><path fill="#EAE5E8" d="m493.766 656.492 37.571-3.928.809 7.734-37.571 3.93z"/><path fill="#272124" d="m493.766 656.492 5.23 7.273-4.421.463zm20.701 5.656-5.23-7.274-7.735.809 5.229 7.274zm15.471-1.618-5.229-7.274-7.736.809 5.23 7.273z"/><path fill="#fff" d="m488.58 751.54 2.625-18.68-4.435 1.812-2.358-4.694 7.96-3.353 5.74.807-3.508 24.955zm10.9 1.568.762-5.418 9.749-7.028c1.372-.97 2.698-2.129 2.924-3.733.23-1.64-.739-2.758-2.272-2.973-2.211-.311-3.674 1.046-5.212 2.939l-4.428-3.676c2.676-3.26 6.291-5.187 10.997-4.526 4.528.637 7.727 3.995 7.101 8.451-.481 3.422-3.138 5.775-5.436 7.379l-6.008 4.209 10.267 1.443-.761 5.419zM464.3 773.41l1.253-8.913 1.021.144-.805 5.728 3.211-2.409 1.295.182-2.858 2.143 2.064 3.853-1.248-.175-1.641-3.067-1.001.744-.269 1.913zm5.634 1.894c.085-.606.451-1.051 1.103-1.384a1.1 1.1 0 0 1-.295-.914c.066-.475.371-.832.876-1.064a2.09 2.09 0 0 1-.598-1.781c.162-1.152 1.202-2 2.628-1.799.44.062.819.212 1.118.411l2.222.313-.124.879-1.295-.182c.125.32.16.677.109 1.033-.16 1.141-1.188 1.99-2.626 1.788a3 3 0 0 1-.815-.236c-.275.143-.447.337-.479.563-.035.25.071.446.439.498l1.711.241c1.581.222 2.209 1.098 2.058 2.167-.177 1.26-1.568 2.021-3.362 1.769-1.771-.249-2.839-1.101-2.67-2.302m3.242-3.494c.867.121 1.45-.403 1.552-1.127.103-.737-.312-1.402-1.18-1.523-.891-.126-1.462.4-1.565 1.137-.104.737.302 1.387 1.193 1.513m-2.239 3.514c-.102.725.585 1.27 1.773 1.437 1.26.177 2.126-.21 2.236-.995.081-.57-.177-1.067-1.246-1.217l-1.937-.272c-.46.25-.759.572-.826 1.047m9.554-2.692c.245-1.747 1.654-3.064 3.532-2.8.891.125 1.544.568 1.993 1.25l.512-3.637 1.01.142-1.253 8.913-1.01-.142.1-.713c-.62.531-1.369.777-2.261.651-1.877-.263-2.869-1.918-2.623-3.664m1.069.15c-.178 1.271.535 2.402 1.807 2.58a2.35 2.35 0 0 0 2.163-.822l.331-2.353c-.363-.778-1.033-1.272-1.853-1.388-1.271-.178-2.269.711-2.448 1.983m12.317 3.779c-.664.67-1.622 1.02-2.739.863-2.02-.284-3.059-1.945-2.814-3.692.256-1.818 1.619-3.068 3.473-2.808 1.628.229 2.525 1.519 2.318 2.992a3 3 0 0 1-.16.62l-4.599-.646c-.166 1.443.627 2.439 1.91 2.619.773.109 1.476-.156 1.944-.636zm-2.224-4.784c-.987-.139-1.758.347-2.117 1.35l3.589.505c.088-.885-.415-1.707-1.472-1.855m10.892 6.184a3.13 3.13 0 0 0 2.781-.991l.794.815c-.905.927-2.225 1.432-3.722 1.222-2.602-.366-4.089-2.635-3.755-5.012s2.389-4.148 4.991-3.782c1.497.21 2.624 1.072 3.241 2.2l-.988.564a3.13 3.13 0 0 0-2.4-1.718c-1.878-.264-3.431 1.044-3.691 2.898-.261 1.854.872 3.54 2.749 3.804m9.943-6.504c2.591.364 4.078 2.633 3.744 5.01s-2.389 4.148-4.979 3.784c-2.603-.366-4.09-2.635-3.756-5.011s2.389-4.148 4.991-3.783m-1.089 7.748c1.866.262 3.419-1.046 3.68-2.9.26-1.854-.872-3.54-2.738-3.802-1.877-.264-3.43 1.045-3.691 2.899-.26 1.853.872 3.539 2.749 3.803m5.661 1.62.135-.963 3.224-2.503c1.118-.885 1.623-1.287 1.747-2.166.122-.868-.438-1.456-1.282-1.574-.879-.124-1.511.236-2.112.975l-.804-.658c.826-.962 1.839-1.45 3.135-1.268 1.39.195 2.368 1.254 2.178 2.609-.159 1.128-1.014 1.869-2.159 2.774l-2.608 1.997 4.243.596-.136.962zm12.849.8c-.664.67-1.622 1.02-2.739.863-2.02-.284-3.059-1.945-2.813-3.691.255-1.819 1.619-3.069 3.472-2.808 1.628.228 2.526 1.518 2.319 2.991a3 3 0 0 1-.16.62l-4.599-.646c-.167 1.443.627 2.439 1.91 2.619.772.109 1.476-.156 1.943-.636zm-2.224-4.784c-.986-.139-1.757.347-2.116 1.35l3.588.505c.088-.885-.414-1.707-1.472-1.855"/><path fill="#C5FCF8" d="M439.81 616.474c3.152-22.423 23.884-38.046 46.308-34.895l78.231 10.995c22.423 3.151 38.046 23.884 34.895 46.307l-7.923-1.113c2.998-21.33-10.533-40.864-30.221-43.631l-75.261-10.577c-21.329-2.998-41.05 11.863-44.048 33.193zm137.444 178.87c-3.382 24.064-25.631 40.83-49.695 37.448l-75.26-10.577c-22.424-3.152-38.047-23.884-34.895-46.308l2.398-2.692c-2.767 19.689 12.28 38.08 33.61 41.077l75.26 10.578c19.689 2.767 37.893-10.951 40.66-30.64zm-124.955 26.871c-22.424-3.152-38.047-23.884-34.895-46.308l22.406-159.433c3.152-22.423 23.884-38.046 46.308-34.895l-.279 1.981c-21.329-2.998-41.05 11.863-44.048 33.193l-21.989 156.462c-2.767 19.689 12.28 38.08 33.61 41.077zm112.05-229.641c22.423 3.151 38.046 23.884 34.895 46.307l-21.99 156.463c-3.382 24.064-25.631 40.83-49.695 37.448l1.113-7.922c19.689 2.767 37.893-10.951 40.66-30.64l21.989-156.462c2.998-21.33-10.533-40.864-30.221-43.631z" mask="url(#k)"/><mask id="l" width="193.531" height="265.023" x="374.956" y="835.324" fill="#000" maskUnits="userSpaceOnUse"><path fill="#fff" d="M374.956 835.324h193.531v265.023H374.956z"/><path d="M404.337 876.064c3.075-21.877 23.302-37.119 45.178-34.044l75.26 10.577c21.877 3.075 37.119 23.301 34.044 45.178l-22.268 158.445c-3.074 21.87-23.301 37.12-45.177 34.04l-75.261-10.58c-21.876-3.07-37.118-23.3-34.043-45.17z"/></mask><path fill="#235DD2" d="M404.337 876.064c3.075-21.877 23.302-37.119 45.178-34.044l75.26 10.577c21.877 3.075 37.119 23.301 34.044 45.178l-22.268 158.445c-3.074 21.87-23.301 37.12-45.177 34.04l-75.261-10.58c-21.876-3.07-37.118-23.3-34.043-45.17z"/><path fill="#E9952E" d="m498.144 935.924-1.467-.206a1.486 1.486 0 0 1-1.261-1.674 1.485 1.485 0 0 1 1.673-1.26l1.467.206a1.486 1.486 0 0 1 1.261 1.673 1.486 1.486 0 0 1-1.673 1.261"/><path fill="#110D10" d="M464.322 942.391a6.668 6.668 0 1 1-13.205-1.858 6.668 6.668 0 0 1 13.205 1.858m35.21 4.948a6.668 6.668 0 0 1-13.204-1.855 6.667 6.667 0 0 1 13.204 1.855"/><path fill="#EAE5E8" d="M461.388 941.978a3.704 3.704 0 1 1-7.337-1.03 3.704 3.704 0 0 1 7.337 1.03m35.21 4.949a3.704 3.704 0 1 1-7.335-1.033 3.704 3.704 0 0 1 7.335 1.033"/><path fill="#E9952E" d="m459.769 930.653 5.277-9.714-.462-1.7s-1.346-.177-1.261-1.673 4.167-4.021 5.02-3.783c.853.24-.413 2.934-.413 2.934s3.289 1.296 2.522 3.347c-.766 2.052-5.276 12.256-5.276 12.256s2.387 1.644 3.008 3.881c.446 1.607 2.256 1.841 4.195 2.086 1.938.249 6.446.896 7.748-1.903 1.299-2.796 2.085-4.195 2.085-4.195l-1.261-1.673 15.083-.873s-1.715 2.724.849 4.608c2.94 2.162 3.645 4.505 4.837 8.16.783 2.405.266 2.875-1.879 2.728-2.877-.195-6.593-.35-8.605-.409-1.783-.05-3.691 1.949-6.449 1.562-2.758-.388-14.757-2.001-17.634-2.757-5.044-1.321-6.361-5.382-14.052-6.463-3.04-.427-1.233-2.511.591-3.904 2.026-1.549 6.071-2.737 6.077-2.515"/><path fill="#D47909" d="m481.618 947.066-4.401-.619a2.97 2.97 0 0 1-2.522-3.346 2.97 2.97 0 0 1 3.347-2.522l4.401.618a2.973 2.973 0 0 1 2.522 3.347 2.973 2.973 0 0 1-3.347 2.522"/><path fill="#D47909" d="m477.216 946.447-7.335-1.031a1.486 1.486 0 0 1-1.261-1.673 1.486 1.486 0 0 1 1.673-1.261l7.336 1.031a1.485 1.485 0 0 1 1.26 1.673 1.486 1.486 0 0 1-1.673 1.261"/><path fill="#110D10" d="M483.886 930.928c-2.374-.334-3.63-.052-4.195-2.086s.383-2.938 1.879-2.728c1.496.211 8.441.916 11.943.183s4.65-.59 4.401.618c-.249 1.209-1.88 2.728-1.88 2.728s-2.252 2.676-12.148 1.285m-10.5-10.452-4.769-.67a1.486 1.486 0 0 1-1.261-1.673 1.485 1.485 0 0 1 1.673-1.261l4.77.67a1.485 1.485 0 0 1 1.26 1.673 1.486 1.486 0 0 1-1.673 1.261"/><path fill="#E9952E" d="M463.85 919.136a.743.743 0 0 1-.63-.837l.206-1.467a.743.743 0 0 1 .837-.63.74.74 0 0 1 .63.836l-.206 1.467a.743.743 0 0 1-.837.631"/><path fill="#110D10" d="m472.629 915.881-.184-.025a1.393 1.393 0 0 1-1.181-1.568l.438-3.119a1.39 1.39 0 0 1 1.57-1.181l.183.025a1.39 1.39 0 0 1 1.181 1.568l-.438 3.119a1.39 1.39 0 0 1-1.569 1.181"/><path fill="#110D10" d="m467.684 918.277-.028-.036a.72.72 0 0 1 .141-1.005l4.769-3.595a.72.72 0 0 1 1.005.141l.03.037a.72.72 0 0 1-.142 1.005l-4.77 3.595a.72.72 0 0 1-1.005-.142"/><path fill="#fff" d="M455.29 986.308c6.809.957 9.043 7.051 7.985 14.572s-4.884 12.77-11.693 11.81c-6.773-.95-9.042-7.05-7.985-14.575 1.057-7.522 4.92-12.759 11.693-11.807m-.746 5.566c-2.567-.361-4.103 2.295-4.78 7.108-.681 4.848.069 7.788 2.636 8.148 2.459.35 4.032-2.3 4.708-7.12.681-4.844-.104-7.79-2.564-8.136m11.17 27.886-5.24-.73 5.015-11.11 6.345.89zm19.499-29.247c6.025.847 8.396 4.67 7.905 8.164-.305 2.173-1.574 3.963-3.848 4.873 2.57 1.64 3.644 4.08 3.234 7-.612 4.35-4.403 7.27-10.998 6.34-6.524-.91-9.435-4.78-8.824-9.12.411-2.93 2.117-4.98 5.033-5.8-1.893-1.54-2.656-3.614-2.35-5.788.491-3.494 3.859-6.51 9.848-5.669m-1.296 9.997c1.605.23 2.728-.525 2.939-2.023.205-1.461-.658-2.564-2.262-2.789-1.818-.256-2.952.566-3.157 2.028-.211 1.497.698 2.534 2.48 2.784m-1.649 11.22c2.353.33 3.863-.58 4.118-2.4.266-1.89-.918-3.29-3.271-3.62-2.389-.34-3.95.68-4.215 2.57-.256 1.81.979 3.11 3.368 3.45m-62.493 21.01 1.253-8.92 1.022.15-.805 5.73 3.21-2.41 1.295.18-2.858 2.14 2.064 3.86-1.248-.18-1.641-3.07-1.001.75-.269 1.91zm5.634 1.89c.085-.6.451-1.05 1.103-1.38-.243-.25-.34-.6-.295-.92.066-.47.371-.83.876-1.06a2.1 2.1 0 0 1-.598-1.78c.162-1.15 1.202-2 2.628-1.8.44.06.819.21 1.118.41l2.222.31-.123.88-1.296-.18c.125.32.16.68.11 1.03-.161 1.14-1.189 1.99-2.627 1.79a3.3 3.3 0 0 1-.815-.23c-.275.14-.447.33-.479.56-.035.25.071.44.439.5l1.711.24c1.581.22 2.209 1.09 2.059 2.16-.177 1.26-1.569 2.03-3.363 1.77-1.771-.25-2.839-1.1-2.67-2.3m3.242-3.49c.867.12 1.45-.41 1.552-1.13.103-.74-.312-1.4-1.18-1.52-.891-.13-1.462.4-1.565 1.13-.104.74.302 1.39 1.193 1.52m-2.239 3.51c-.102.73.585 1.27 1.773 1.44 1.26.18 2.126-.21 2.236-1 .081-.57-.177-1.06-1.246-1.21l-1.937-.28c-.46.25-.759.58-.826 1.05m9.554-2.69c.246-1.75 1.655-3.06 3.532-2.8.891.12 1.544.57 1.994 1.25l.511-3.64 1.01.14-1.253 8.92-1.01-.15.1-.71a2.73 2.73 0 0 1-2.26.65c-1.878-.26-2.869-1.91-2.624-3.66m1.07.15c-.179 1.27.534 2.4 1.806 2.58.832.12 1.625-.18 2.164-.82l.33-2.36c-.363-.77-1.033-1.27-1.853-1.38-1.271-.18-2.269.71-2.447 1.98m12.316 3.78c-.664.67-1.622 1.02-2.739.86-2.02-.28-3.059-1.94-2.814-3.69.256-1.82 1.619-3.07 3.473-2.81 1.628.23 2.525 1.52 2.318 2.99-.033.24-.101.46-.16.62l-4.599-.64c-.166 1.44.627 2.44 1.91 2.62.773.1 1.477-.16 1.944-.64zm-2.224-4.79c-.986-.13-1.758.35-2.117 1.35l3.589.51c.088-.89-.415-1.71-1.472-1.86m10.892 6.19a3.15 3.15 0 0 0 2.781-.99l.794.81c-.905.93-2.224 1.43-3.722 1.22-2.602-.36-4.089-2.63-3.755-5.01.334-2.37 2.389-4.15 4.991-3.78 1.497.21 2.624 1.07 3.241 2.2l-.988.56a3.12 3.12 0 0 0-2.4-1.71c-1.877-.27-3.431 1.04-3.691 2.89-.261 1.86.872 3.54 2.749 3.81m9.943-6.51c2.591.37 4.078 2.64 3.744 5.01-.334 2.38-2.389 4.15-4.979 3.79-2.603-.37-4.09-2.64-3.755-5.01.334-2.38 2.388-4.15 4.99-3.79m-1.088 7.75c1.865.26 3.418-1.04 3.679-2.9.261-1.85-.872-3.54-2.737-3.8-1.878-.26-3.431 1.04-3.692 2.9-.26 1.85.872 3.54 2.75 3.8m5.66 1.62.136-.96 3.223-2.5c1.118-.89 1.623-1.29 1.747-2.17.122-.87-.438-1.46-1.282-1.57-.879-.13-1.511.23-2.112.97l-.804-.66c.826-.96 1.84-1.45 3.135-1.26 1.39.19 2.368 1.25 2.178 2.6-.159 1.13-1.014 1.87-2.159 2.78l-2.607 1.99 4.242.6-.135.96zm12.849.8c-.663.67-1.622 1.02-2.739.87-2.02-.29-3.059-1.95-2.813-3.7.255-1.81 1.619-3.06 3.472-2.8 1.628.22 2.526 1.51 2.319 2.99a3 3 0 0 1-.16.62l-4.599-.65c-.166 1.44.627 2.44 1.91 2.62.772.11 1.476-.16 1.943-.64zm-2.224-4.78c-.986-.14-1.757.34-2.116 1.35l3.589.5c.088-.88-.415-1.7-1.473-1.85m2.435 8.2 4.457-10.84 1.022.14-4.457 10.85zm5.421-1.62 1.253-8.91 1.022.14-.805 5.73 3.21-2.41 1.296.18-2.858 2.14 2.063 3.86-1.247-.18-1.642-3.06-1.001.74-.269 1.91zm6.522.92.842-5.99 1.01.14-.092.65c.525-.46 1.171-.74 2.003-.63.867.13 1.525.62 1.786 1.43.568-.59 1.268-1 2.301-.85 1.284.18 2.102 1.17 1.874 2.8l-.526 3.74-1.011-.14.521-3.71c.141-1-.338-1.65-1.193-1.77-.761-.11-1.356.25-1.846.89-.007.14-.013.27-.033.41l-.526 3.74-1.01-.14.521-3.71c.14-.99-.327-1.64-1.194-1.76-.82-.12-1.403.32-1.834.89l-.583 4.15z"/><path fill="#AEC8FC" d="M403.347 875.925c3.151-22.424 23.884-38.047 46.307-34.895l78.231 10.994c22.424 3.152 38.047 23.884 34.895 46.307l-7.922-1.113c2.998-21.329-10.533-40.864-30.222-43.631l-75.26-10.577c-21.33-2.997-41.051 11.863-44.048 33.193zm137.166 180.845c-3.382 24.07-25.632 40.83-49.696 37.45l-75.26-10.57c-22.424-3.16-38.047-23.89-34.895-46.31l2.398-2.69c-2.767 19.68 12.281 38.08 33.61 41.07l75.261 10.58c19.688 2.77 37.892-10.95 40.659-30.64zm-124.956 26.88c-22.424-3.16-38.047-23.89-34.895-46.31l22.685-161.415c3.151-22.424 23.884-38.047 46.307-34.895l-.278 1.98c-21.33-2.997-41.051 11.863-44.048 33.193L383.06 1034.65c-2.767 19.68 12.281 38.08 33.61 41.07zm112.328-231.626c22.424 3.152 38.047 23.884 34.895 46.307l-22.267 158.439c-3.382 24.07-25.632 40.83-49.696 37.45l1.114-7.92c19.688 2.77 37.892-10.95 40.659-30.64l22.268-158.442c2.998-21.329-10.533-40.864-30.222-43.631z" mask="url(#l)"/></svg>