<svg xmlns="http://www.w3.org/2000/svg" width="120" height="92" fill="none"><path fill="#ADDEDB" d="M36.67 65.03c.46-.46.49-1.18.11-1.7-8.24-11.1-7.32-26.85 2.74-36.92 10.07-10.07 25.82-10.98 36.92-2.74.52.39 1.24.35 1.7-.11.55-.55.5-1.47-.12-1.93-12.11-9.02-29.32-8.03-40.32 2.96S25.72 52.8 34.74 64.91c.46.62 1.38.67 1.93.12m45.8-37.13c-.46.46-.49 1.18-.11 1.7 8.24 11.1 7.32 26.85-2.74 36.92S53.8 77.5 42.7 69.26c-.52-.39-1.24-.35-1.7.11-.55.55-.5 1.47.12 1.93 12.11 9.02 29.32 8.04 40.32-2.96s11.98-28.21 2.96-40.32c-.46-.62-1.38-.67-1.93-.12"/><path fill="#13706D" d="M68.2 31.32H50.94c-3.59 0-6.51 2.92-6.51 6.51v17.26c0 3.59 2.92 6.51 6.51 6.51H68.2c3.59 0 6.51-2.92 6.51-6.51V37.83c0-3.59-2.92-6.51-6.51-6.51m-21.88 6.51c0-2.55 2.07-4.62 4.62-4.62h2.55c.42 0 .79.29.88.71.44 2.02-.15 4.18-1.66 5.68a6.19 6.19 0 0 1-5.68 1.66.9.9 0 0 1-.71-.88zm15.85 21.88H50.94c-2.55 0-4.62-2.07-4.62-4.62V43.86c0-.41.37-.73.77-.67s.83.1 1.25.1c.86 0 1.72-.14 2.54-.41.31-.1.6.2.48.5a8.76 8.76 0 0 0 2 9.27c2.5 2.51 6.15 3.17 9.27 2 .31-.11.6.18.5.49-.4 1.21-.51 2.51-.31 3.79.06.41-.25.78-.67.78zm10.65-4.62c0 2.55-2.07 4.62-4.62 4.62h-2.55c-.42 0-.79-.29-.88-.71-.44-2.02.15-4.18 1.66-5.68a6.19 6.19 0 0 1 5.68-1.66.9.9 0 0 1 .71.88zm0-6.03c0 .42-.37.73-.78.67-1.27-.2-2.57-.09-3.79.31-.31.1-.6-.19-.49-.5 1.17-3.12.5-6.76-2-9.27s-6.15-3.17-9.27-2c-.31.11-.6-.18-.5-.49.4-1.21.51-2.51.31-3.79-.06-.41.25-.78.67-.78H68.2c2.55 0 4.62 2.07 4.62 4.62z"/><path fill="#ADDEDB" d="M102.39 66.12H91.91a1.247 1.247 0 0 1-1.08-1.87c3.08-5.39 4.7-11.55 4.7-17.79 0-5.16-1.07-10.13-3.17-14.79a36.2 36.2 0 0 0-10.07-13.08 36.05 36.05 0 0 0-22.72-8.08c-3.96 0-7.85.64-11.56 1.9-.38.13-.8.07-1.13-.17-.33-.23-.52-.61-.52-1.02V7.5a1.25 1.25 0 0 1 2.5 0v2.02c3.47-1 7.06-1.51 10.71-1.51 8.84 0 17.47 3.07 24.3 8.65 4.6 3.76 8.33 8.59 10.76 13.99 2.25 4.98 3.39 10.3 3.39 15.82 0 5.97-1.39 11.86-4.03 17.16h8.4c1.15 0 2.08-.93 2.08-2.08V31.2c0-1.15-.93-2.08-2.08-2.08-2.53 0-4.58-2.06-4.58-4.58V10.85c0-2.53 2.06-4.58 4.58-4.58s4.58 2.06 4.58 4.58v7.37a1.25 1.25 0 0 1-2.5 0v-7.37c0-1.15-.93-2.08-2.08-2.08s-2.08.93-2.08 2.08v13.69c0 1.15.93 2.08 2.08 2.08 2.53 0 4.58 2.06 4.58 4.58v30.35c0 2.53-2.06 4.58-4.58 4.58zM25.14 33.59H13.17a1.25 1.25 0 0 1 0-2.5h11.15a38.7 38.7 0 0 1 10.51-14.06v-5.64c0-1.45-1.18-2.64-2.64-2.64H17.06c-1.45 0-2.64 1.18-2.64 2.64v9.46c0 1.45 1.18 2.64 2.64 2.64s2.64-1.18 2.64-2.64v-2.7c0-2.83 2.3-5.14 5.14-5.14h3.81a1.25 1.25 0 0 1 0 2.5h-3.81c-1.45 0-2.64 1.18-2.64 2.64v2.7c0 2.83-2.3 5.14-5.14 5.14s-5.14-2.3-5.14-5.14v-9.46c0-2.83 2.3-5.14 5.14-5.14h15.13c2.83 0 5.14 2.3 5.14 5.14v6.23c0 .38-.17.73-.46.97a36.2 36.2 0 0 0-10.56 14.23c-.19.47-.65.78-1.16.78zm-9.38 52.15c-2.12 0-3.84-1.72-3.84-3.84V46.38c0-3.05 2.48-5.53 5.53-5.53h.68c1.46 0 2.83.57 3.86 1.6a5.6 5.6 0 0 1 1.63 3.97c0 9.26 3.48 18.02 9.8 24.72a35.83 35.83 0 0 0 22.67 11.11c.69.07 1.19.68 1.12 1.36-.07.69-.67 1.2-1.36 1.12-1.93-.18-3.86-.52-5.75-1-7.07-1.79-13.47-5.56-18.51-10.89-6.76-7.16-10.48-16.54-10.48-26.39 0-.88-.32-1.67-.9-2.25-.56-.56-1.3-.87-2.09-.87h-.68c-1.67 0-3.03 1.36-3.03 3.03v35.52a1.34 1.34 0 0 0 2.68 0v-9.27a3.841 3.841 0 0 1 7.68 0v9.2c0 .74.6 1.34 1.34 1.34h6.29a1.25 1.25 0 0 1 0 2.5h-6.29c-2.12 0-3.84-1.72-3.84-3.84v-9.2a1.34 1.34 0 0 0-2.68 0v9.27c0 2.12-1.72 3.84-3.84 3.84zm88.47 0h-3.3c-2.13 0-3.86-1.73-3.86-3.86v-3.35a1.25 1.25 0 0 1 2.5 0v3.35c0 .75.61 1.36 1.36 1.36h3.3c.75 0 1.36-.61 1.36-1.36v-6.52c0-.75-.61-1.36-1.36-1.36h-13.3c-.75 0-1.36.61-1.36 1.36 0 2.13-1.73 3.86-3.86 3.86h-4.54c-.93 0-1.81.22-2.56.65a38.3 38.3 0 0 1-11.65 4.33c-.68.13-1.33-.31-1.47-.99-.13-.68.31-1.33.99-1.47 3.83-.75 7.49-2.11 10.88-4.05 1.12-.64 2.44-.98 3.8-.98h4.54c.75 0 1.36-.61 1.36-1.36 0-2.13 1.73-3.86 3.86-3.86h13.3c2.13 0 3.86 1.73 3.86 3.86v6.52c0 2.13-1.73 3.86-3.86 3.86z"/><path fill="#ADDEDB" d="M88.51 85.67h-7.22a1.25 1.25 0 0 1 0-2.5h7.22c1.45 0 2.63-1.18 2.63-2.63a1.25 1.25 0 0 1 2.5 0c0 2.83-2.3 5.13-5.13 5.13m12.4-47.6c-.69 0-1.25-.56-1.25-1.25v-4.14a1.25 1.25 0 0 1 2.5 0v4.14c0 .69-.56 1.25-1.25 1.25M18.35 64.23c-.69 0-1.25-.56-1.25-1.25v-4.29a1.25 1.25 0 0 1 2.5 0v4.29c0 .69-.56 1.25-1.25 1.25m84.04 16.56c-.69 0-1.25-.56-1.25-1.25V78.4a1.25 1.25 0 0 1 2.5 0v1.14c0 .69-.56 1.25-1.25 1.25m-11.1-64.7c-.6 0-1.2-.23-1.65-.67-1.19-1.15-2.56-2.2-4.07-3.13a1.25 1.25 0 1 1 1.31-2.13c1.57.96 3 2.05 4.26 3.24v-3.09c0-.86-.7-1.55-1.55-1.55h-9.53a1.25 1.25 0 0 1 0-2.5h9.53c2.23 0 4.05 1.82 4.05 4.05v3.44c0 .95-.56 1.79-1.43 2.16-.3.13-.61.19-.92.19z"/></svg>