<svg xmlns="http://www.w3.org/2000/svg" width="120" height="92" fill="none"><path fill="#fff" d="M101.93 25.04H67.57a4.65 4.65 0 0 0-4.65 4.65v49.79a4.65 4.65 0 0 0 4.65 4.65h34.36a4.65 4.65 0 0 0 4.65-4.65V29.69a4.65 4.65 0 0 0-4.65-4.65"/><path fill="#13706D" d="M101.93 85.13H67.57c-3.11 0-5.65-2.53-5.65-5.65V29.69c0-3.11 2.53-5.65 5.65-5.65h34.36c3.11 0 5.65 2.53 5.65 5.65v49.79c0 3.11-2.53 5.65-5.65 5.65M67.57 26.04c-2.01 0-3.65 1.64-3.65 3.65v49.79c0 2.01 1.64 3.65 3.65 3.65h34.36c2.01 0 3.65-1.64 3.65-3.65V29.69c0-2.01-1.64-3.65-3.65-3.65z"/><path fill="#fff" d="M97.88 25.04H63.52a4.65 4.65 0 0 0-4.65 4.65v49.79a4.65 4.65 0 0 0 4.65 4.65h34.36a4.65 4.65 0 0 0 4.65-4.65V29.69a4.65 4.65 0 0 0-4.65-4.65"/><path fill="#13706D" d="M97.88 85.13H63.52c-3.11 0-5.65-2.53-5.65-5.65V29.69c0-3.11 2.53-5.65 5.65-5.65h34.36c3.11 0 5.65 2.53 5.65 5.65v49.79c0 3.11-2.53 5.65-5.65 5.65M63.52 26.04c-2.01 0-3.65 1.64-3.65 3.65v49.79c0 2.01 1.64 3.65 3.65 3.65h34.36c2.01 0 3.65-1.64 3.65-3.65V29.69c0-2.01-1.64-3.65-3.65-3.65z"/><path fill="#AFE0DD" d="M93.62 25.04H59.26a4.65 4.65 0 0 0-4.65 4.65v49.79a4.65 4.65 0 0 0 4.65 4.65h34.36a4.65 4.65 0 0 0 4.65-4.65V29.69a4.65 4.65 0 0 0-4.65-4.65"/><path fill="#13706D" d="M93.63 85.13H59.27c-3.11 0-5.65-2.53-5.65-5.65V29.69c0-3.11 2.53-5.65 5.65-5.65h34.36c3.11 0 5.65 2.53 5.65 5.65v49.79c0 3.11-2.53 5.65-5.65 5.65M59.26 26.04c-2.01 0-3.65 1.64-3.65 3.65v49.79c0 2.01 1.64 3.65 3.65 3.65h34.36c2.01 0 3.65-1.64 3.65-3.65V29.69c0-2.01-1.64-3.65-3.65-3.65z"/><path fill="#fff" d="M58.76 10.07c.81 2.18 3.52 2.91 5.31 1.42 2.4-2 5.99.08 5.47 3.16-.39 2.29 1.6 4.28 3.88 3.88 3.08-.53 5.15 3.06 3.16 5.47-1.48 1.79-.76 4.5 1.42 5.31 2.93 1.08 2.93 5.23 0 6.31-2.18.81-2.91 3.52-1.42 5.31 2 2.4-.08 5.99-3.16 5.47-2.29-.39-4.28 1.6-3.88 3.88.53 3.08-3.06 5.15-5.47 3.16-1.79-1.48-4.5-.76-5.31 1.42-1.08 2.93-5.23 2.93-6.31 0-.81-2.18-3.52-2.91-5.31-1.42-2.4 2-5.99-.08-5.47-3.16.39-2.29-1.6-4.28-3.88-3.88-3.08.53-5.15-3.06-3.16-5.47 1.48-1.79.76-4.5-1.42-5.31-2.93-1.08-2.93-5.23 0-6.31 2.18-.81 2.91-3.52 1.42-5.31-2-2.4.08-5.99 3.16-5.47 2.29.39 4.28-1.6 3.88-3.88-.53-3.08 3.06-5.15 5.47-3.16 1.79 1.48 4.5.76 5.31-1.42 1.08-2.93 5.23-2.93 6.31 0"/><path fill="#13706D" d="M55.6 58.06a4.32 4.32 0 0 1-4.09-2.85c-.27-.73-.86-1.26-1.61-1.46s-1.52-.03-2.12.46a4.33 4.33 0 0 1-4.97.42 4.33 4.33 0 0 1-2.12-4.52c.13-.77-.11-1.52-.66-2.07s-1.31-.79-2.07-.66c-1.82.32-3.59-.52-4.52-2.12a4.33 4.33 0 0 1 .42-4.97c.5-.6.67-1.37.47-2.12s-.74-1.34-1.46-1.61a4.33 4.33 0 0 1-2.85-4.1 4.32 4.32 0 0 1 2.85-4.09c.73-.27 1.26-.86 1.46-1.61s.03-1.53-.47-2.12a4.31 4.31 0 0 1-.42-4.97 4.33 4.33 0 0 1 4.52-2.12c.76.13 1.52-.11 2.07-.66s.79-1.3.66-2.07c-.31-1.82.52-3.59 2.12-4.52a4.33 4.33 0 0 1 4.97.42c.6.5 1.37.67 2.12.46.75-.2 1.34-.73 1.61-1.46a4.33 4.33 0 0 1 4.09-2.85 4.32 4.32 0 0 1 4.09 2.85c.27.73.86 1.26 1.61 1.46s1.52.03 2.12-.47a4.31 4.31 0 0 1 4.97-.42c1.6.92 2.43 2.7 2.12 4.52-.13.77.11 1.52.66 2.07s1.31.79 2.07.66c1.82-.31 3.59.52 4.52 2.12s.76 3.55-.42 4.97c-.5.6-.67 1.37-.47 2.12s.74 1.34 1.46 1.61a4.33 4.33 0 0 1 2.85 4.09 4.33 4.33 0 0 1-2.85 4.09c-.73.27-1.26.86-1.46 1.61s-.03 1.53.47 2.12a4.31 4.31 0 0 1 .42 4.97 4.33 4.33 0 0 1-4.52 2.12c-.76-.13-1.52.11-2.07.66s-.79 1.3-.66 2.07c.31 1.82-.52 3.59-2.12 4.52-1.6.92-3.55.76-4.97-.42-.6-.5-1.37-.67-2.12-.46-.75.2-1.34.74-1.61 1.46a4.33 4.33 0 0 1-4.09 2.85zm-6.33-6.41c.38 0 .77.05 1.15.15 1.39.37 2.47 1.36 2.96 2.7.42 1.14 1.42 1.55 2.22 1.55s1.8-.41 2.22-1.55c.5-1.35 1.58-2.33 2.97-2.7s2.81-.06 3.92.86c.93.78 2 .63 2.69.23s1.35-1.25 1.15-2.45c-.24-1.41.2-2.81 1.22-3.82a4.3 4.3 0 0 1 3.82-1.22c1.19.2 2.05-.46 2.45-1.15s.55-1.76-.23-2.69a4.31 4.31 0 0 1-.86-3.92 4.29 4.29 0 0 1 2.7-2.96c1.14-.42 1.54-1.42 1.54-2.22s-.41-1.8-1.54-2.22a4.31 4.31 0 0 1-2.7-2.96c-.37-1.39-.06-2.81.86-3.92.78-.93.63-2 .23-2.69s-1.26-1.35-2.45-1.15c-1.42.25-2.81-.2-3.82-1.22s-1.46-2.41-1.22-3.82c.2-1.2-.46-2.05-1.15-2.45s-1.76-.55-2.69.23c-1.1.92-2.53 1.23-3.92.86a4.39 4.39 0 0 1-2.97-2.7c-.42-1.14-1.42-1.54-2.22-1.55-.8 0-1.8.41-2.22 1.55a4.31 4.31 0 0 1-2.96 2.7c-1.39.37-2.82.06-3.92-.86-.93-.78-2-.63-2.69-.23s-1.35 1.25-1.15 2.45c.24 1.41-.2 2.81-1.22 3.82a4.33 4.33 0 0 1-3.82 1.22c-1.19-.2-2.05.46-2.45 1.15s-.55 1.76.23 2.69c.92 1.1 1.23 2.53.86 3.92a4.29 4.29 0 0 1-2.7 2.96c-1.14.42-1.54 1.42-1.54 2.22s.41 1.8 1.54 2.22a4.31 4.31 0 0 1 2.7 2.96c.37 1.39.06 2.81-.86 3.92-.78.93-.63 2-.23 2.69s1.26 1.35 2.45 1.15c1.42-.25 2.81.2 3.82 1.22a4.33 4.33 0 0 1 1.22 3.82c-.2 1.2.46 2.05 1.15 2.45s1.76.55 2.69-.23c.8-.66 1.77-1.01 2.77-1.01"/><path fill="#13706D" d="M61.23 28.24h-3.92l-.39-3.88a2.575 2.575 0 0 0-2.57-2.33c-1.33 0-2.42 1.09-2.42 2.42v.31c0 1.08-.26 2.17-.74 3.14l-.96 1.92a2.1 2.1 0 0 0-1.15-.34H46.6c-1.17 0-2.11.95-2.11 2.11v8.69c0 1.17.95 2.11 2.11 2.11h2.48c.63 0 1.21-.28 1.61-.75.6.48 1.34.75 2.11.75h7.69c1.73 0 3.17-1.3 3.34-3.02l.75-7.45c.01-.11.02-.22.02-.33 0-1.85-1.5-3.36-3.35-3.36zm-7.56-3.48v-.31c0-.38.31-.68.68-.68.44 0 .8.33.84.76l.47 4.66c.04.45.42.79.87.79h4.71c.89 0 1.61.72 1.61 1.61v.16l-.75 7.45a1.6 1.6 0 0 1-1.6 1.45h-7.69c-.89 0-1.61-.72-1.61-1.61v-7.25l1.56-3.12c.61-1.21.93-2.57.93-3.92zm-7.45 6.83c0-.21.17-.37.37-.37h2.48c.2 0 .37.17.37.37v8.69c0 .21-.17.37-.37.37h-2.48c-.2 0-.37-.17-.37-.37z"/><path fill="#AFE0DD" d="M49.08 31.22h-2.49a.37.37 0 0 0-.37.37v8.69c0 .204.165.37.37.37h2.49a.37.37 0 0 0 .37-.37v-8.69a.37.37 0 0 0-.37-.37M27.73 84.13h-4.18c-2.37 0-4.28-1.92-4.28-4.28v-6.54c0-.72.58-1.31 1.31-1.31h10.14c.72 0 1.31.58 1.31 1.31v6.54c0 2.37-1.92 4.28-4.28 4.28zm-4.28-20.82c-1.52-2.84-4.99-5.48-9.15-5.96 0 0-2.43 5.82.76 10.05 2.1 2.78 5.06 3.46 6.84 3.6h.15c-1.79-2.74-6.47-10.04-4.13-7.75 2.29 2.24 4.57 5.83 5.4 7.2.23-.24.4-.54.47-.89.33-1.66.65-4.39-.35-6.25zm8.85-3.38c-4.89.94-6.24 6.18-6.61 9.08 3.8-6.23 12.69-6.22 12.69-6.22-6.2 1.37-10.96 6.56-12.1 7.9.23.16.52.26.83.26h2.18s5.34.48 8.87-1.25 4.92-8.66 4.92-8.66-3.95-2.43-10.78-1.11m-8.81-19.72s-3.35 2.22-4.16 8.28c-.66 4.98 3.61 11.87 5.15 14.16.13.2.33.34.55.45.02-1.15.03-3.37-.02-7.3-.08-6.6-.62-8.84-.62-8.84s3.05 8.21 1.81 16.2c.34-.12.62-.36.76-.67.78-1.77 3.02-7.22 3.27-12.18.3-6.02-6.73-10.11-6.73-10.11z"/></svg>