<svg xmlns="http://www.w3.org/2000/svg" width="120" height="92" fill="none"><path fill="#AFE0DD" d="M37.35 14.35H21.71a4.47 4.47 0 0 0-4.47 4.47v10.93a4.47 4.47 0 0 0 4.47 4.47h15.64a4.47 4.47 0 0 0 4.47-4.47V18.82a4.47 4.47 0 0 0-4.47-4.47m29.72 0H51.43a4.47 4.47 0 0 0-4.47 4.47v10.93a4.47 4.47 0 0 0 4.47 4.47h15.64a4.47 4.47 0 0 0 4.47-4.47V18.82a4.47 4.47 0 0 0-4.47-4.47m29.71 0H81.14a4.47 4.47 0 0 0-4.47 4.47v10.93a4.47 4.47 0 0 0 4.47 4.47h15.64a4.47 4.47 0 0 0 4.47-4.47V18.82a4.47 4.47 0 0 0-4.47-4.47M37.35 38.36H21.71a4.47 4.47 0 0 0-4.47 4.47v10.93a4.47 4.47 0 0 0 4.47 4.47h15.64a4.47 4.47 0 0 0 4.47-4.47V42.83a4.47 4.47 0 0 0-4.47-4.47m29.72 0H51.43a4.47 4.47 0 0 0-4.47 4.47v10.93a4.47 4.47 0 0 0 4.47 4.47h15.64a4.47 4.47 0 0 0 4.47-4.47V42.83a4.47 4.47 0 0 0-4.47-4.47m29.71 0H81.14a4.47 4.47 0 0 0-4.47 4.47v10.93a4.47 4.47 0 0 0 4.47 4.47h15.64a4.47 4.47 0 0 0 4.47-4.47V42.83a4.47 4.47 0 0 0-4.47-4.47m-59.43 24H21.71a4.47 4.47 0 0 0-4.47 4.47v10.93a4.47 4.47 0 0 0 4.47 4.47h15.64a4.47 4.47 0 0 0 4.47-4.47V66.83a4.47 4.47 0 0 0-4.47-4.47m29.72 0H51.43a4.47 4.47 0 0 0-4.47 4.47v10.93a4.47 4.47 0 0 0 4.47 4.47h15.64a4.47 4.47 0 0 0 4.47-4.47V66.83a4.47 4.47 0 0 0-4.47-4.47m29.71 0H81.14a4.47 4.47 0 0 0-4.47 4.47v10.93a4.47 4.47 0 0 0 4.47 4.47h15.64a4.47 4.47 0 0 0 4.47-4.47V66.83a4.47 4.47 0 0 0-4.47-4.47"/><path fill="#fff" d="m48.44 56.27 1.68 4.51a7.84 7.84 0 0 0 3.6 4.15l2.5 1.37c.79.43.79 1.57 0 2.01l-2.5 1.37a7.92 7.92 0 0 0-3.6 4.15l-1.68 4.51c-.37.99-1.77.99-2.14 0l-1.68-4.51a7.84 7.84 0 0 0-3.6-4.15l-2.5-1.37c-.79-.43-.79-1.57 0-2.01l2.5-1.37a7.92 7.92 0 0 0 3.6-4.15l1.68-4.51c.37-.99 1.77-.99 2.14 0"/><path fill="#13706D" d="M47.37 80.07c-.9 0-1.69-.55-2.01-1.39l-1.68-4.51a6.84 6.84 0 0 0-3.14-3.62l-2.5-1.37c-.69-.38-1.12-1.1-1.12-1.88s.43-1.51 1.12-1.88l2.5-1.37a6.88 6.88 0 0 0 3.14-3.62l1.68-4.51c.32-.85 1.11-1.39 2.01-1.39s1.69.55 2.01 1.39l1.68 4.51a6.84 6.84 0 0 0 3.14 3.62l2.5 1.37c.69.38 1.12 1.1 1.12 1.88s-.43 1.5-1.11 1.88l-2.5 1.37a6.88 6.88 0 0 0-3.14 3.62l-1.68 4.5c-.32.85-1.1 1.39-2.01 1.39zm0-23.54c-.1 0-.12.06-.14.09l-1.68 4.5c-.75 2-2.18 3.66-4.05 4.68L39 67.17s-.08.04-.08.13.06.12.08.13l2.5 1.37a8.82 8.82 0 0 1 4.05 4.68l1.68 4.5s.04.09.14.09.12-.06.14-.09l1.68-4.5c.74-2 2.18-3.66 4.05-4.68l2.5-1.37s.07-.04.07-.13-.06-.12-.08-.13l-2.5-1.37a8.82 8.82 0 0 1-4.05-4.68l-1.68-4.51s-.04-.09-.14-.09z"/><path fill="#fff" d="m40.71 23.33 1.25 3.36a5.9 5.9 0 0 0 2.68 3.1l1.87 1.02c.59.32.59 1.17 0 1.5l-1.87 1.02a5.86 5.86 0 0 0-2.68 3.1l-1.25 3.36c-.28.74-1.32.74-1.6 0l-1.25-3.36a5.9 5.9 0 0 0-2.68-3.1l-1.87-1.02c-.59-.32-.59-1.17 0-1.5l1.87-1.02a5.86 5.86 0 0 0 2.68-3.1l1.25-3.36c.28-.74 1.32-.74 1.6 0"/><path fill="#13706D" d="M39.91 41.35c-.78 0-1.46-.47-1.74-1.21l-1.25-3.36c-.41-1.1-1.2-2.01-2.23-2.57l-1.87-1.02c-.6-.33-.96-.95-.96-1.63s.37-1.3.96-1.62l1.87-1.02a4.85 4.85 0 0 0 2.23-2.57l1.25-3.36c.27-.73.96-1.21 1.74-1.21s1.46.47 1.74 1.21l1.25 3.36c.41 1.1 1.2 2.01 2.23 2.57L47 29.94c.59.32.96.95.96 1.62 0 .68-.37 1.3-.96 1.63l-1.87 1.02a4.85 4.85 0 0 0-2.23 2.57l-1.25 3.36c-.27.73-.96 1.21-1.74 1.21m-5.89-9.79 1.63.89c1.45.79 2.56 2.08 3.14 3.63l1.12 3 1.12-3a6.9 6.9 0 0 1 3.14-3.63l1.63-.89-1.63-.89a6.86 6.86 0 0 1-3.14-3.63l-1.12-3-1.12 3a6.9 6.9 0 0 1-3.14 3.63z"/><path fill="#fff" d="m82.43 11 2.41 15.63a7.63 7.63 0 0 0 6.02 6.31l10.73 2.17c1.56.31 1.56 2.54 0 2.85l-10.73 2.17a7.62 7.62 0 0 0-6.02 6.31l-2.41 15.63c-.25 1.65-2.62 1.65-2.88 0l-2.41-15.63a7.63 7.63 0 0 0-6.02-6.31l-10.73-2.17c-1.56-.31-1.56-2.54 0-2.85l10.73-2.17a7.62 7.62 0 0 0 6.02-6.31L79.55 11c.25-1.65 2.62-1.65 2.88 0"/><path fill="#13706D" d="M80.99 64.31a2.42 2.42 0 0 1-2.43-2.08L76.15 46.6a6.64 6.64 0 0 0-5.23-5.48l-10.73-2.17c-1.18-.24-1.97-1.21-1.97-2.41s.79-2.17 1.97-2.41l10.73-2.17a6.64 6.64 0 0 0 5.23-5.48l2.41-15.63c.19-1.23 1.19-2.08 2.43-2.08s2.24.86 2.43 2.08l2.41 15.63a6.64 6.64 0 0 0 5.23 5.48l10.73 2.17c1.18.24 1.97 1.21 1.97 2.41s-.79 2.17-1.97 2.41l-10.73 2.17a6.64 6.64 0 0 0-5.23 5.48l-2.41 15.63c-.19 1.23-1.19 2.08-2.43 2.08m0-53.55c-.15 0-.4.05-.45.39l-2.41 15.63a8.64 8.64 0 0 1-6.81 7.13l-10.73 2.17c-.32.06-.37.31-.37.45s.05.38.37.45l10.73 2.17c3.52.71 6.26 3.58 6.81 7.13l2.41 15.63c.05.34.3.39.45.39s.4-.05.45-.39l2.41-15.63a8.64 8.64 0 0 1 6.81-7.13l10.73-2.17c.32-.06.37-.31.37-.45s-.05-.38-.37-.45l-10.73-2.17a8.66 8.66 0 0 1-6.81-7.13l-2.41-15.63c-.05-.34-.3-.39-.45-.39"/></svg>