<svg xmlns="http://www.w3.org/2000/svg" width="120" height="92" fill="none"><path fill="#AFE0DD" d="M55.71 84.96h35.77a3.82 3.82 0 0 0 3.82-3.82V10.86a3.82 3.82 0 0 0-3.82-3.82H55.42zm-40.02 0h35.79V7.04H15.43c-2.11 0-3.83 1.72-3.82 3.83l.26 70.28c0 2.1 1.71 3.8 3.82 3.8z"/><path fill="#fff" d="M26.47 84.96H76.5c4.61 0 8.34-3.74 8.34-8.34H18.13c0 4.61 3.74 8.34 8.34 8.34"/><path fill="#13706D" d="M76.5 85.96H26.47c-5.15 0-9.34-4.19-9.34-9.34 0-.55.45-1 1-1h66.71c.55 0 1 .45 1 1 0 5.15-4.19 9.34-9.34 9.34m-57.31-8.35a7.355 7.355 0 0 0 7.28 6.34H76.5c3.71 0 6.79-2.77 7.28-6.34z"/><path fill="#fff" d="M22.73 76.61h57.5V49.99a5.56 5.56 0 0 0-5.56-5.56H28.29a5.56 5.56 0 0 0-5.56 5.56z"/><path fill="#13706D" d="M80.23 77.61h-57.5c-.55 0-1-.45-1-1V49.99c0-3.62 2.94-6.56 6.56-6.56h46.38c3.62 0 6.56 2.94 6.56 6.56v26.62c0 .55-.45 1-1 1m-56.5-2h55.5V49.99c0-2.51-2.04-4.56-4.56-4.56H28.29c-2.51 0-4.56 2.04-4.56 4.56z"/><path fill="#AFE0DD" d="m53.08 49.38-2.9 5.1c-.52.92.14 2.05 1.2 2.05s1.7 1.1 1.21 2.02l-9.08 17.1h32.13V49.38H53.07zm-8.09 13.19c.51-.92-.16-2.04-1.2-2.04h-.81a1.37 1.37 0 0 1-1.2-2.04l5.03-9.11H28.22v26.27h9.55z"/><path fill="#fff" d="M82.14 12.89c-11.86.93-21.44 10.61-22.26 22.49-.3 4.41.57 8.59 2.34 12.26l-3.98 12.69 13.06-2.6c3.78 2.35 8.25 3.69 13.04 3.65 13.13-.13 24.249-11.55 24.039-24.67-.22-13.88-12.08-24.93-26.25-23.82z"/><path fill="#13706D" d="M84.11 62.38c-4.59 0-9.07-1.24-12.99-3.59l-12.68 2.52a1 1 0 0 1-.94-.31.98.98 0 0 1-.21-.97l3.86-12.32a25.46 25.46 0 0 1-2.27-12.4c.85-12.37 10.81-22.44 23.17-23.41 7.07-.56 13.84 1.75 19.06 6.5a25.36 25.36 0 0 1 8.27 18.3c.1 6.52-2.56 13.06-7.31 17.93-4.74 4.87-11.2 7.69-17.72 7.76h-.25zm-12.8-5.65c.19 0 .37.05.53.15 3.75 2.33 8.09 3.57 12.51 3.5 5.99-.06 11.93-2.67 16.31-7.15 4.38-4.49 6.84-10.51 6.74-16.5-.1-6.4-2.88-12.54-7.62-16.85-4.8-4.37-11.02-6.5-17.56-5.98-11.38.9-20.55 10.17-21.33 21.56-.28 4.07.5 8.13 2.24 11.76.11.23.13.49.05.73l-3.47 11.09 11.41-2.27c.06-.01.13-.02.2-.02z"/><path fill="#13706D" d="M83.58 49.66a1 1 0 0 1-.71-.29 1 1 0 0 1-.21-.32 1 1 0 0 1-.08-.38 1.05 1.05 0 0 1 .29-.71c.37-.38 1.05-.37 1.42 0 .09.09.16.2.21.32.06.12.08.25.08.39 0 .13-.02.26-.07.38-.06.12-.13.23-.22.32a1 1 0 0 1-.71.29"/><path fill="#fff" d="M83.58 42.77v-2.79c0-.45.12-.89.34-1.28l.18-.32c.27-.48.75-.8 1.3-.89a5.08 5.08 0 0 0-.84-10.09H83.3a5.08 5.08 0 0 0-5.08 5.08"/><path fill="#13706D" d="M83.58 43.77c-.55 0-1-.45-1-1v-2.79c0-.62.16-1.23.46-1.77l.18-.32c.42-.74 1.15-1.25 2.01-1.39 1.97-.33 3.4-2.02 3.4-4.02 0-2.25-1.83-4.08-4.08-4.08h-1.26c-2.25 0-4.08 1.83-4.08 4.08 0 .55-.45 1-1 1s-1-.45-1-1a6.09 6.09 0 0 1 6.08-6.08h1.26a6.09 6.09 0 0 1 6.08 6.08c0 2.99-2.13 5.51-5.08 6-.26.04-.48.19-.59.4l-.18.32c-.14.24-.21.51-.21.79v2.79c0 .55-.45 1-1 1z"/></svg>