<svg width="40" height="40" viewBox="0 0 40 40" fill="none" xmlns="http://www.w3.org/2000/svg">
<g id="etiquette" clip-path="url(#clip0_1779_74)">
<g id="Calque_3">
<g id="Group">
<path id="Vector" d="M32 0H8C3.58172 0 0 3.58172 0 8V32C0 36.4183 3.58172 40 8 40H32C36.4183 40 40 36.4183 40 32V8C40 3.58172 36.4183 0 32 0Z" fill="#DCF0EF"/>
<g id="Group_2">
<path id="Vector_2" d="M29.99 13H10.01C7.79534 13 6 14.7953 6 17.01V22.99C6 25.2047 7.79534 27 10.01 27H29.99C32.2047 27 34 25.2047 34 22.99V17.01C34 14.7953 32.2047 13 29.99 13Z" fill="white"/>
<path id="Vector_3" d="M29.99 28H10.01C7.25 28 5 25.75 5 22.98V17.01C5 14.25 7.25 12 10.01 12H29.98C32.74 12 34.99 14.25 34.99 17.01V22.98C34.99 25.75 32.74 28 29.98 28H29.99ZM10.01 14C8.35 14 7 15.35 7 17.01V22.98C7 24.64 8.35 26 10.01 26H29.98C31.64 26 32.99 24.65 32.99 22.98V17.01C32.99 15.35 31.64 14 29.98 14H10.01Z" fill="#13706D"/>
</g>
<g id="Group_3">
<path id="Vector_4" d="M28.16 19.5H18C17.45 19.5 17 19.05 17 18.5C17 17.95 17.45 17.5 18 17.5H28.16C28.71 17.5 29.16 17.95 29.16 18.5C29.16 19.05 28.71 19.5 28.16 19.5Z" fill="#13706D"/>
<path id="Vector_5" d="M23.16 22.5H18C17.45 22.5 17 22.05 17 21.5C17 20.95 17.45 20.5 18 20.5H23.16C23.71 20.5 24.16 20.95 24.16 21.5C24.16 22.05 23.71 22.5 23.16 22.5Z" fill="#13706D"/>
</g>
<g id="Group_4">
<path id="Vector_6" d="M12 22C13.1046 22 14 21.1046 14 20C14 18.8954 13.1046 18 12 18C10.8954 18 10 18.8954 10 20C10 21.1046 10.8954 22 12 22Z" fill="#C0E6E3"/>
<path id="Vector_7" d="M12 23C10.35 23 9 21.65 9 20C9 18.35 10.35 17 12 17C13.65 17 15 18.35 15 20C15 21.65 13.65 23 12 23ZM12 19C11.45 19 11 19.45 11 20C11 20.55 11.45 21 12 21C12.55 21 13 20.55 13 20C13 19.45 12.55 19 12 19Z" fill="#13706D"/>
</g>
</g>
</g>
</g>
<defs>
<clipPath id="clip0_1779_74">
<rect width="40" height="40" fill="white"/>
</clipPath>
</defs>
</svg>
