<svg xmlns="http://www.w3.org/2000/svg" width="89" height="89" fill="none"><path fill="#AFE0DD" d="M62.62 38.802c-1.33-6.74-7.27-11.81-14.4-11.81-5.66 0-10.58 3.21-13.03 7.89-5.9.65-10.48 5.62-10.48 11.69 0 6.49 5.26 11.75 11.75 11.75h25.46c5.41 0 9.79-4.38 9.79-9.79s-4.02-9.36-9.11-9.74z"/><path fill="#13706D" d="M73.79 75.662h-4.01c-.55 0-1-.45-1-1s.45-1 1-1h3.97c.55 0 1.02.45 1.02 1s-.42 1-.98 1m-11.96 0h-3.97c-.55 0-1-.45-1-1s.45-1 1-1h3.97c.55 0 1 .45 1 1s-.45 1-1 1m-11.9 0h-3.97c-.55 0-1-.45-1-1s.45-1 1-1h3.97c.55 0 1 .45 1 1s-.45 1-1 1m-11.91 0h-3.97c-.55 0-1-.45-1-1s.45-1 1-1h3.97c.55 0 1 .45 1 1s-.45 1-1 1m-11.91 0h-3.97c-.55 0-1-.45-1-1s.45-1 1-1h3.97c.55 0 1 .45 1 1s-.45 1-1 1m-11.89-.14c-.09 0-.18-.01-.27-.04a4.86 4.86 0 0 1-3.36-3.41c-.14-.53.18-1.08.71-1.22s1.08.18 1.22.71c.26.96 1.01 1.73 1.97 2 .53.15.84.7.69 1.23-.12.44-.53.73-.96.73m63.36-5.65c-.55 0-1-.45-1-1v-3.97c0-.55.45-1 1-1s1 .45 1 1v3.97c0 .55-.45 1-1 1m-66.16-4.98c-.55 0-1-.45-1-1v-3.97c0-.55.45-1 1-1s1 .45 1 1v3.97c0 .55-.45 1-1 1m66.16-6.93c-.55 0-1-.45-1-1v-3.97c0-.55.45-1 1-1s1 .45 1 1v3.97c0 .55-.45 1-1 1m-66.16-4.98c-.55 0-1-.45-1-1v-3.97c0-.55.45-1 1-1s1 .45 1 1v3.97c0 .55-.45 1-1 1m66.16-6.92c-.55 0-1-.45-1-1v-3.97c0-.55.45-1 1-1s1 .45 1 1v3.97c0 .55-.45 1-1 1m-66.16-4.98c-.55 0-1-.45-1-1v-3.97c0-.55.45-1 1-1s1 .45 1 1v3.97c0 .55-.45 1-1 1m66.16-6.93c-.55 0-1-.45-1-1v-3.97c0-.55.45-1 1-1s1 .45 1 1v3.97c0 .55-.45 1-1 1m-66.16-4.98c-.55 0-1-.45-1-1v-3.97c0-.55.45-1 1-1s1 .45 1 1v3.97c0 .55-.45 1-1 1m66.02-6.92a.99.99 0 0 1-.96-.74 2.86 2.86 0 0 0-1.98-1.99c-.53-.15-.85-.7-.7-1.23s.7-.85 1.23-.7c1.64.45 2.93 1.75 3.38 3.39.15.53-.17 1.08-.7 1.23-.09.02-.18.04-.26.04zm-10.6-2.82h-3.97c-.55 0-1-.45-1-1s.45-1 1-1h3.97c.55 0 1 .45 1 1s-.45 1-1 1m-11.91 0h-3.97c-.55 0-1-.45-1-1s.45-1 1-1h3.97c.55 0 1 .45 1 1s-.45 1-1 1m-11.91 0h-3.97c-.55 0-1-.45-1-1s.45-1 1-1h3.97c.55 0 1 .45 1 1s-.45 1-1 1m-11.91 0h-3.97c-.55 0-1-.45-1-1s.45-1 1-1h3.97c.55 0 1 .45 1 1s-.45 1-1 1m-11.91 0h-4.01c-.54-.02-.97-.46-.97-1 0-.55.45-1 1-1h3.97c.55 0 1 .45 1 1s-.45 1-1 1z"/><path fill="#fff" d="M59.17 26.972c-1.33-6.74-7.27-11.81-14.4-11.81-5.66 0-10.58 3.21-13.03 7.89-5.9.65-10.48 5.62-10.48 11.69 0 6.49 5.26 11.75 11.75 11.75h25.46c5.41 0 9.79-4.38 9.79-9.79s-4.02-9.36-9.11-9.74z"/><path fill="#13706D" d="M58.49 47.502H33.03c-7.03 0-12.75-5.72-12.75-12.75 0-6.35 4.63-11.68 10.84-12.62a15.66 15.66 0 0 1 13.66-7.97c7.22 0 13.5 4.96 15.22 11.89 5.27.75 9.29 5.3 9.29 10.65 0 5.95-4.84 10.79-10.79 10.79zm-13.72-31.34c-5.11 0-9.77 2.82-12.14 7.36-.15.29-.45.49-.78.53-5.47.6-9.59 5.2-9.59 10.7 0 5.93 4.82 10.75 10.75 10.75h25.46c4.85 0 8.79-3.95 8.79-8.79 0-4.56-3.59-8.4-8.18-8.74a1 1 0 0 1-.91-.8c-1.26-6.38-6.9-11.01-13.42-11.01z"/><path fill="#13706D" d="M44.79 21.382a.996.996 0 0 1 1.41 0l3 3c.39.39.39 1.02 0 1.41l-3 3a.996.996 0 1 1-1.41-1.41l1.29-1.29h-1.59c-3.55 0-6.5 2.95-6.5 6.5s2.95 6.5 6.5 6.5 6.5-2.95 6.5-6.5c0-.55.45-1 1-1s1 .45 1 1c0 4.65-3.85 8.5-8.5 8.5s-8.5-3.85-8.5-8.5 3.85-8.5 8.5-8.5h1.59l-1.29-1.29a.996.996 0 0 1 0-1.41z"/><path fill="#AFE0DD" d="M66.11 63.642H44.96c-.9 0-1.63.73-1.63 1.63v.01c0 .9.73 1.63 1.63 1.63h21.15c.9 0 1.63-.73 1.63-1.63v-.01c0-.9-.73-1.63-1.63-1.63"/><path fill="#13706D" d="M37.95 63.642H22.9c-.9 0-1.63.73-1.63 1.63v.01c0 .9.73 1.63 1.63 1.63h15.05c.9 0 1.63-.73 1.63-1.63v-.01c0-.9-.73-1.63-1.63-1.63"/></svg>