<svg xmlns="http://www.w3.org/2000/svg" width="89" height="89" fill="none"><path fill="#fff" d="M73.53 16.002H15.04a3.83 3.83 0 0 0-3.83 3.83v58.49a3.83 3.83 0 0 0 3.83 3.83h58.49a3.83 3.83 0 0 0 3.83-3.83v-58.49a3.83 3.83 0 0 0-3.83-3.83"/><path fill="#13706D" d="M73.53 83.162H15.04c-2.67 0-4.83-2.17-4.83-4.83v-58.49c0-2.67 2.17-4.83 4.83-4.83h58.48c2.67 0 4.83 2.17 4.83 4.83v58.48c0 2.67-2.17 4.83-4.83 4.83zm-58.49-66.16c-1.56 0-2.83 1.27-2.83 2.83v58.48c0 1.56 1.27 2.83 2.83 2.83h58.48c1.56 0 2.83-1.27 2.83-2.83v-58.47c0-1.56-1.27-2.83-2.83-2.83H15.04z"/><path fill="#AFE0DD" d="M65.17 23.442H23.55a4.11 4.11 0 0 0-4.11 4.11v19.19a4.11 4.11 0 0 0 4.11 4.11h41.62a4.11 4.11 0 0 0 4.11-4.11v-19.19a4.11 4.11 0 0 0-4.11-4.11"/><path fill="#13706D" d="M65.16 51.852H23.55c-2.82 0-5.11-2.29-5.11-5.11v-19.18c0-2.82 2.29-5.11 5.11-5.11h41.61c2.82 0 5.11 2.29 5.11 5.11v19.18c0 2.82-2.29 5.11-5.11 5.11m-41.61-27.41c-1.72 0-3.11 1.4-3.11 3.11v19.18c0 1.72 1.4 3.11 3.11 3.11h41.61c1.72 0 3.11-1.4 3.11-3.11v-19.18c0-1.72-1.4-3.11-3.11-3.11z"/><path fill="#AFE0DD" d="M68.8 62.882H19.89c-.9 0-1.63.73-1.63 1.63v.01c0 .9.73 1.63 1.63 1.63H68.8c.9 0 1.63-.73 1.63-1.63v-.01c0-.9-.73-1.63-1.63-1.63m0-6.21H19.89c-.9 0-1.63.73-1.63 1.63v.01c0 .9.73 1.63 1.63 1.63H68.8c.9 0 1.63-.73 1.63-1.63v-.01c0-.9-.73-1.63-1.63-1.63m-18.62 12.43H19.89c-.9 0-1.63.73-1.63 1.63v.01c0 .9.73 1.63 1.63 1.63h30.29c.9 0 1.63-.73 1.63-1.63v-.01c0-.9-.73-1.63-1.63-1.63"/><path fill="#13706D" d="M23.49 23.442h16.02v10.89c0 1.8-1.46 3.25-3.25 3.25H20.44v-11.09a3.05 3.05 0 0 1 3.05-3.05"/><path fill="#fff" d="m36.23 32.322-2.74-2.89a.99.99 0 0 0-1.44 0l-.53.55-2.2-2.31a1 1 0 0 0-.72-.31c-.25-.02-.54.11-.73.32l-4.15 4.44c-.38.4-.36 1.04.05 1.41.19.18.44.27.68.27.27 0 .53-.11.73-.32l3.43-3.66 1.54 1.62-.84.88c-.38.4-.36 1.03.04 1.41s1.03.37 1.41-.04l2.02-2.13 2.02 2.12c.2.21.46.31.72.31.25 0 .5-.09.69-.28.4-.38.42-1.01.04-1.41zm-1.61-3.51a1.35 1.35 0 1 1 .001-2.702 1.35 1.35 0 0 1-.001 2.702m35.61-19.65 1.6 10.43a5.1 5.1 0 0 0 4.01 4.21l7.16 1.45c1.04.21 1.04 1.69 0 1.9l-7.16 1.45c-2.09.42-3.69 2.1-4.01 4.21l-1.6 10.43c-.17 1.1-1.75 1.1-1.92 0l-1.6-10.43a5.1 5.1 0 0 0-4.01-4.21l-7.16-1.45c-1.04-.21-1.04-1.69 0-1.9l7.16-1.45c2.09-.42 3.69-2.1 4.01-4.21l1.6-10.43c.17-1.1 1.75-1.1 1.92 0"/><path fill="#13706D" d="M69.27 45.052c-1 0-1.8-.69-1.95-1.67l-1.6-10.43a4.1 4.1 0 0 0-3.22-3.38l-7.16-1.45c-.93-.19-1.58-.98-1.58-1.93s.65-1.74 1.58-1.93l7.16-1.45a4.1 4.1 0 0 0 3.22-3.38l1.6-10.43c.15-.98.95-1.67 1.95-1.67s1.8.69 1.95 1.67l1.6 10.43a4.1 4.1 0 0 0 3.22 3.38l7.16 1.45c.93.19 1.58.98 1.58 1.93s-.65 1.74-1.58 1.93l-7.16 1.45a4.1 4.1 0 0 0-3.22 3.38l-1.6 10.43c-.15.98-.95 1.67-1.95 1.67m-.03-35.75-1.54 10.44a6.1 6.1 0 0 1-4.8 5.03l-7.16 1.45 7.16 1.39c2.49.5 4.42 2.53 4.8 5.03l1.6 10.43 1.55-10.43a6.1 6.1 0 0 1 4.8-5.03l7.16-1.45-7.16-1.39a6.09 6.09 0 0 1-4.8-5.03l-1.6-10.43v-.02z"/><path fill="#fff" d="m49.18 4.412 1.12 3a5.26 5.26 0 0 0 2.4 2.77l1.67.91c.53.29.53 1.05 0 1.34l-1.67.91a5.26 5.26 0 0 0-2.4 2.77l-1.12 3a.764.764 0 0 1-1.43 0l-1.12-3a5.26 5.26 0 0 0-2.4-2.77l-1.67-.91a.763.763 0 0 1 0-1.34l1.67-.91a5.26 5.26 0 0 0 2.4-2.77l1.12-3a.764.764 0 0 1 1.43 0"/><path fill="#13706D" d="M48.46 20.622c-.74 0-1.39-.45-1.65-1.15l-1.12-3a4.26 4.26 0 0 0-1.94-2.24l-1.67-.91a1.756 1.756 0 0 1 0-3.09l1.67-.91c.89-.49 1.58-1.29 1.94-2.24l1.12-3c.26-.7.91-1.15 1.65-1.15s1.39.45 1.65 1.15l1.12 3c.36.96 1.05 1.75 1.94 2.24l1.67.91a1.768 1.768 0 0 1 0 3.1l-1.67.91a4.26 4.26 0 0 0-1.94 2.24l-1.12 3c-.26.7-.91 1.15-1.65 1.15zm-5.04-8.86 1.29.71c1.32.72 2.33 1.89 2.86 3.3l.9 2.41.9-2.41a6.22 6.22 0 0 1 2.86-3.3l1.29-.7-1.29-.7a6.26 6.26 0 0 1-2.86-3.3l-.9-2.41-.9 2.41a6.22 6.22 0 0 1-2.86 3.3l-1.29.7z"/><path fill="#fff" d="m55.29 34.362.84 2.24c.33.88.96 1.62 1.79 2.07l1.24.68c.4.22.4.78 0 1l-1.24.68c-.83.45-1.46 1.19-1.79 2.07l-.84 2.24c-.18.49-.88.49-1.07 0l-.84-2.24c-.33-.88-.96-1.62-1.79-2.07l-1.24-.68c-.4-.22-.4-.78 0-1l1.24-.68c.83-.45 1.46-1.19 1.79-2.07l.84-2.24c.18-.49.88-.49 1.07 0"/><path fill="#13706D" d="M54.76 46.712c-.66 0-1.24-.4-1.47-1.02l-.84-2.24c-.24-.66-.72-1.2-1.33-1.54l-1.24-.68a1.57 1.57 0 0 1 0-2.76l1.24-.68c.61-.34 1.09-.88 1.33-1.54l.84-2.24c.23-.62.81-1.02 1.47-1.02s1.24.4 1.47 1.02l.84 2.24c.24.66.72 1.2 1.33 1.54l1.24.68a1.57 1.57 0 0 1 0 2.76l-1.24.68c-.61.34-1.09.88-1.33 1.54l-.84 2.24c-.23.62-.81 1.02-1.47 1.02m-3.23-6.86.55.3c1.04.57 1.83 1.49 2.25 2.59l.43 1.16.43-1.16a4.85 4.85 0 0 1 2.25-2.59l.55-.3-.55-.3a4.96 4.96 0 0 1-2.25-2.59l-.43-1.16-.43 1.16a4.85 4.85 0 0 1-2.25 2.59z"/></svg>