<svg xmlns="http://www.w3.org/2000/svg" width="89" height="89" fill="none"><path fill="#AFE0DD" d="M74.52 21.612H14.48a4.11 4.11 0 0 0-4.11 4.11v8.19a4.11 4.11 0 0 0 4.11 4.11h60.04a4.11 4.11 0 0 0 4.11-4.11v-8.19a4.11 4.11 0 0 0-4.11-4.11"/><path fill="#13706D" d="M74.52 39.022H14.48c-2.82 0-5.11-2.29-5.11-5.11v-8.19c0-2.82 2.29-5.11 5.11-5.11h60.03c2.82 0 5.11 2.29 5.11 5.11v8.19c0 2.82-2.29 5.11-5.11 5.11zm-60.04-16.41c-1.72 0-3.11 1.4-3.11 3.11v8.19c0 1.72 1.4 3.11 3.11 3.11h60.03c1.72 0 3.11-1.4 3.11-3.11v-8.19c0-1.72-1.4-3.11-3.11-3.11z"/><path fill="#AFE0DD" d="M59.2 54.982c-.49 0-.95.13-1.35.36a2.73 2.73 0 0 0-2.3-1.27c-.7 0-1.34.27-1.83.7-.48-.44-1.12-.7-1.83-.7-.32 0-.64.06-.93.16v-5.65c0-1.5-1.22-2.73-2.73-2.73s-2.73 1.22-2.73 2.73v11.82l-1.51-1.2c-.49-.4-1.09-.61-1.73-.61-.1 0-.2 0-.29.02a2.76 2.76 0 0 0-2.02 1.23c-.61.93-.61 2.13.01 3.06l4.44 6.66a8.19 8.19 0 0 0 6.83 3.65h3.55c1.91 0 3.7-.74 5.04-2.09a7.1 7.1 0 0 0 2.09-5.05v-8.38c0-1.5-1.22-2.73-2.73-2.73z"/><path fill="#13706D" d="M45.08 64.512c-3.04 0-5.86-1.51-7.54-4.03l-4.9-7.35a3.07 3.07 0 0 1 0-3.41 3.07 3.07 0 0 1 2.56-1.37c.69 0 1.37.24 1.92.67l1.64 1.31v-13.01c0-1.67 1.35-3.02 3.02-3.02s3.02 1.35 3.02 3.02v6.21c.32-.11.66-.17 1.01-.17.75 0 1.46.28 2.01.77.55-.49 1.27-.77 2.01-.77 1.04 0 2 .54 2.55 1.4a3.017 3.017 0 0 1 4.5 2.63v9.24c0 2.11-.82 4.08-2.31 5.57a7.83 7.83 0 0 1-5.57 2.31zm-9.88-14.15h-.12a1.06 1.06 0 0 0-.76.46c-.24.36-.24.82 0 1.17l4.9 7.35a7.04 7.04 0 0 0 5.86 3.14H49c1.57 0 3.04-.61 4.15-1.72a5.82 5.82 0 0 0 1.72-4.15v-9.24c0-.56-.45-1.01-1.01-1.01s-1.01.45-1.01 1.01v2.01c0 .56-.45 1.01-1.01 1.01s-1.01-.45-1.01-1.01v-3.02c0-.56-.45-1.01-1.01-1.01s-1.01.45-1.01 1.01v3.02c0 .56-.45 1.01-1.01 1.01s-1.01-.45-1.01-1.01v-3.02c0-.56-.45-1.01-1.01-1.01s-1.01.45-1.01 1.01v3.02c0 .56-.45 1.01-1.01 1.01s-1.01-.45-1.01-1.01v-12.08c0-.56-.45-1.01-1.01-1.01s-1.01.45-1.01 1.01v15.1c0 .38-.22.74-.57.91-.14.06-.29.1-.44.1-.23 0-.45-.08-.63-.22l-3.27-2.62a1.06 1.06 0 0 0-.66-.23z"/><path fill="#fff" d="M35.2 50.362h-.12a1.06 1.06 0 0 0-.76.46c-.24.36-.24.82 0 1.17l4.9 7.35a7.04 7.04 0 0 0 5.86 3.14H49c1.57 0 3.04-.61 4.15-1.72a5.82 5.82 0 0 0 1.72-4.15v-9.24c0-.56-.45-1.01-1.01-1.01s-1.01.45-1.01 1.01v2.01c0 .56-.45 1.01-1.01 1.01s-1.01-.45-1.01-1.01v-3.02c0-.56-.45-1.01-1.01-1.01s-1.01.45-1.01 1.01v3.02c0 .56-.45 1.01-1.01 1.01s-1.01-.45-1.01-1.01v-3.02c0-.56-.45-1.01-1.01-1.01s-1.01.45-1.01 1.01v3.02c0 .56-.45 1.01-1.01 1.01s-1.01-.45-1.01-1.01v-12.08c0-.56-.45-1.01-1.01-1.01s-1.01.45-1.01 1.01v15.1c0 .38-.22.74-.57.91-.14.06-.29.1-.44.1-.23 0-.45-.08-.63-.22l-3.27-2.62a1.06 1.06 0 0 0-.66-.23z"/><path fill="#D8E9E8" d="M71.33 27.652H44.69c-.9 0-1.63.73-1.63 1.63v.01c0 .9.73 1.63 1.63 1.63h26.64c.9 0 1.63-.73 1.63-1.63v-.01c0-.9-.73-1.63-1.63-1.63m-34.48 0H17.67c-.9 0-1.63.73-1.63 1.63v.01c0 .9.73 1.63 1.63 1.63h19.18c.9 0 1.63-.73 1.63-1.63v-.01c0-.9-.73-1.63-1.63-1.63"/></svg>