<svg xmlns="http://www.w3.org/2000/svg" width="89" height="89" fill="none"><path fill="#AFE0DD" d="M76.18 8.682H13.29c-.9 0-1.63.73-1.63 1.63v.01c0 .9.73 1.63 1.63 1.63h62.89c.9 0 1.63-.73 1.63-1.63v-.01c0-.9-.73-1.63-1.63-1.63m0-6.21H13.29c-.9 0-1.63.73-1.63 1.63v.01c0 .9.73 1.63 1.63 1.63h62.89c.9 0 1.63-.73 1.63-1.63v-.01c0-.9-.73-1.63-1.63-1.63m-23.61 12.42H13.29c-.9 0-1.63.73-1.63 1.63v.01c0 .9.73 1.63 1.63 1.63h39.28c.9 0 1.63-.73 1.63-1.63v-.01c0-.9-.73-1.63-1.63-1.63m23.61 62.98H13.29c-.9 0-1.63.73-1.63 1.63v.01c0 .9.73 1.63 1.63 1.63h62.89c.9 0 1.63-.73 1.63-1.63v-.01c0-.9-.73-1.63-1.63-1.63m-9.42 6.21H40.12c-.9 0-1.63.73-1.63 1.63v.01c0 .9.73 1.63 1.63 1.63h26.64c.9 0 1.63-.73 1.63-1.63v-.01c0-.9-.73-1.63-1.63-1.63m-34.48 0H13.1c-.9 0-1.63.73-1.63 1.63v.01c0 .9.73 1.63 1.63 1.63h19.18c.9 0 1.63-.73 1.63-1.63v-.01c0-.9-.73-1.63-1.63-1.63"/><path fill="#fff" d="M73.74 24.282H15.25a3.83 3.83 0 0 0-3.83 3.83v39.5a3.83 3.83 0 0 0 3.83 3.83h58.49a3.83 3.83 0 0 0 3.83-3.83v-39.5a3.83 3.83 0 0 0-3.83-3.83"/><path fill="#13706D" d="M73.74 72.442H15.26c-2.67 0-4.83-2.17-4.83-4.83v-39.49c0-2.67 2.17-4.83 4.83-4.83h58.48c2.67 0 4.83 2.17 4.83 4.83v39.49c0 2.67-2.17 4.83-4.83 4.83m-58.48-47.15c-1.56 0-2.83 1.27-2.83 2.83v39.49c0 1.56 1.27 2.83 2.83 2.83h58.48c1.56 0 2.83-1.27 2.83-2.83v-39.49c0-1.56-1.27-2.83-2.83-2.83z"/><path fill="#13706D" d="M15.29 25.142h16.02v10.89c0 1.8-1.46 3.25-3.25 3.25H12.24v-11.09a3.05 3.05 0 0 1 3.05-3.05"/><path fill="#fff" d="M20.01 36.102c-.26 0-.51-.1-.71-.29l-2.89-2.89a1 1 0 0 1-.29-.71c0-.27.11-.52.29-.71l2.89-2.89a.996.996 0 1 1 1.41 1.41l-2.18 2.18 2.18 2.18a.996.996 0 0 1-.71 1.7zm3.52 0c-.26 0-.51-.1-.71-.29a.996.996 0 0 1 0-1.41l2.18-2.18-2.18-2.18a.996.996 0 1 1 1.41-1.41l2.89 2.89c.19.19.29.44.29.71s-.11.52-.29.71l-2.89 2.89c-.2.2-.45.29-.71.29z"/><path fill="#AFE0DD" d="M32.27 61.112h-6.14c-.9 0-1.63.73-1.63 1.63v.01c0 .9.73 1.63 1.63 1.63h6.14c.9 0 1.63-.73 1.63-1.63v-.01c0-.9-.73-1.63-1.63-1.63m3.9-6.09H26.13c-.9 0-1.63.73-1.63 1.63v.01c0 .9.73 1.63 1.63 1.63h10.04c.9 0 1.63-.73 1.63-1.63v-.01c0-.9-.73-1.63-1.63-1.63m2.4-6.08H26.13c-.9 0-1.63.73-1.63 1.63v.01c0 .9.73 1.63 1.63 1.63h12.44c.9 0 1.63-.73 1.63-1.63v-.01c0-.9-.73-1.63-1.63-1.63"/><path fill="#13706D" d="M47.62 56.662v-5.62h-.04l-1.05.73c-.19.13-.32.18-.53.18-.41 0-.72-.31-.72-.74 0-.31.12-.55.43-.76l1.6-1.09c.45-.3.81-.35 1.23-.35.77 0 1.22.46 1.22 1.2v6.45c0 .64-.43 1.06-1.06 1.06s-1.07-.42-1.07-1.06zm4.29-3.31c0-2.77 1.4-4.42 3.62-4.42s3.61 1.64 3.61 4.41-1.38 4.45-3.61 4.45-3.62-1.68-3.62-4.44m5.05 0c0-1.85-.54-2.75-1.43-2.75s-1.44.91-1.44 2.74.55 2.78 1.44 2.78 1.43-.93 1.43-2.77m3.58 0c0-2.77 1.4-4.42 3.62-4.42s3.61 1.64 3.61 4.41-1.38 4.45-3.61 4.45-3.62-1.68-3.62-4.44m5.05 0c0-1.85-.54-2.75-1.43-2.75s-1.44.91-1.44 2.74.55 2.78 1.44 2.78 1.43-.93 1.43-2.77m-18.76 10.04v-3.19c0-.27.16-.41.39-.41s.39.14.39.41v1.8h.01l1.05-1.05c.11-.11.19-.16.31-.16.2 0 .35.15.35.34 0 .12-.03.19-.15.3l-.74.7.81 1.03c.09.12.11.19.11.29 0 .21-.15.36-.38.36-.17 0-.26-.06-.39-.25l-.74-.98-.25.23v.59c0 .27-.16.41-.39.41s-.39-.14-.39-.41zm3.12.91a.46.46 0 0 1-.06-.22c0-.17.12-.29.32-.29.1 0 .18.03.27.11.21.2.42.31.68.32.43 0 .69-.24.69-.6v-.46h-.02c-.14.31-.47.52-.89.52-.72 0-1.17-.55-1.17-1.43s.44-1.45 1.19-1.45c.42 0 .73.22.88.55h.02v-.16c0-.27.17-.4.4-.4s.39.13.39.4v2.44c0 .75-.55 1.21-1.48 1.2-.59 0-1.03-.23-1.22-.53m1.9-2.04c0-.52-.25-.86-.65-.86s-.63.33-.63.85.24.84.63.84.65-.31.65-.84zm2.73-.14c0-1.06.61-1.67 1.56-1.67.61 0 1.07.25 1.32.71.05.1.08.2.08.3 0 .21-.14.35-.36.35-.18 0-.29-.07-.38-.25-.15-.3-.36-.45-.65-.45-.45 0-.73.38-.73 1.01s.28 1.02.74 1.02c.3 0 .52-.14.65-.45.09-.18.19-.25.36-.25.23 0 .39.15.39.36 0 .08-.02.16-.05.24-.2.46-.71.76-1.33.76-1 0-1.59-.62-1.59-1.67zm3.52.01c0-1.03.62-1.68 1.6-1.68s1.6.64 1.6 1.68-.62 1.67-1.6 1.67-1.6-.64-1.6-1.67m2.36 0c0-.62-.3-1.01-.76-1.01s-.76.39-.76 1.01.3 1 .76 1 .76-.39.76-1m1.4 1.26c0-.15.07-.26.23-.4l.92-.84c.38-.35.48-.49.48-.7 0-.23-.18-.4-.44-.4-.21 0-.36.1-.48.32-.1.16-.2.22-.37.22-.21 0-.34-.12-.34-.33 0-.06 0-.12.03-.18.14-.37.57-.66 1.16-.66.74 0 1.22.39 1.22.96 0 .42-.21.65-.72 1.12l-.64.59v.02h1.12c.21 0 .33.12.33.32s-.12.32-.33.32h-1.79c-.26 0-.39-.15-.39-.35zm2.95-.85c0-.79.47-1.29 1.22-1.29s1.2.48 1.2 1.14c0 .2-.11.31-.32.31h-1.33v.04c0 .3.2.5.48.5.22 0 .37-.07.54-.25a.32.32 0 0 1 .25-.11c.16 0 .3.1.3.28 0 .06-.02.12-.05.18-.16.29-.56.46-1.04.46-.78 0-1.25-.47-1.25-1.27zm1.67-.3c-.01-.26-.19-.43-.44-.43s-.43.18-.45.43z"/><path fill="#AFE0DD" d="M63.94 32.692c-1.02-.17-2-.06-2.87.26a6.313 6.313 0 0 0-10.91 3.34c-.86-.27-1.83-.3-2.88.32-1.23.73-2.07 2.05-1.99 3.48a3.763 3.763 0 0 0 3.9 3.54c1.27-.05 2.36-.72 3-1.7a6.31 6.31 0 0 0 7.33.81c1.01.79 2.3 1.25 3.69 1.19a5.648 5.648 0 0 0 5.3-6.91c-.49-2.21-2.33-3.94-4.56-4.31z"/><path fill="#13706D" d="M62.98 44.912c-1.26 0-2.5-.36-3.56-1.03-.87.39-1.79.61-2.75.65-1.55.07-3.07-.38-4.35-1.24-.83.8-1.94 1.28-3.11 1.32-2.58.12-4.78-1.91-4.93-4.48-.1-1.75.85-3.44 2.48-4.4.83-.49 1.71-.69 2.62-.62.88-2.96 3.57-5.1 6.74-5.22 1.93-.08 3.8.62 5.22 1.92.9-.23 1.82-.27 2.76-.11 2.64.44 4.79 2.48 5.37 5.08.43 1.96-.01 3.98-1.22 5.55a6.61 6.61 0 0 1-5.02 2.58zm-3.48-3.2c.22 0 .44.07.62.21a4.64 4.64 0 0 0 6.54-.83c.86-1.11 1.16-2.49.85-3.89-.4-1.81-1.9-3.23-3.74-3.54a4.76 4.76 0 0 0-2.37.21c-.38.13-.8.03-1.08-.27a5.33 5.33 0 0 0-4.12-1.73c-2.56.1-4.69 2-5.06 4.54-.04.29-.21.54-.46.7s-.55.19-.83.11c-.77-.24-1.41-.17-2.07.22-.97.57-1.55 1.57-1.5 2.56a2.777 2.777 0 0 0 2.86 2.6c.89-.03 1.71-.5 2.2-1.25.16-.24.42-.41.71-.44.29-.04.58.05.8.25 1.04.93 2.37 1.41 3.75 1.36a5.16 5.16 0 0 0 2.41-.69c.15-.09.32-.13.49-.13z"/><path fill="#AFE0DD" d="M19 53.002a2.43 2.43 0 1 0 0-4.86 2.43 2.43 0 0 0 0 4.86m0 6.09a2.43 2.43 0 1 0 0-4.86 2.43 2.43 0 0 0 0 4.86m0 6.08a2.43 2.43 0 1 0 0-4.86 2.43 2.43 0 0 0 0 4.86"/></svg>