<svg width="24" height="24" viewBox="0 0 24 24" fill="none" xmlns="http://www.w3.org/2000/svg">
<g id="icn-fabrication">
<g id="Vector">
<path d="M15.75 4.46V2.75H3.75V10.75H19.75V6.75H18.04C16.77 6.75 15.75 5.72 15.75 4.46Z" fill="white"/>
<path d="M19.75 11.5H3.75C3.34 11.5 3 11.16 3 10.75V2.75C3 2.34 3.34 2 3.75 2H15.75C16.16 2 16.5 2.34 16.5 2.75V4.46C16.5 5.31 17.19 6 18.04 6H19.75C20.16 6 20.5 6.34 20.5 6.75V10.75C20.5 11.16 20.16 11.5 19.75 11.5ZM4.5 10H19V7.5H18.04C16.36 7.5 15 6.13 15 4.46V3.5H4.5V10Z" fill="#26807C"/>
<path d="M12.75 10.75H8.75V20.75H12.75V10.75Z" fill="#AADCD9"/>
<path d="M12.75 21.5H8.75C8.34 21.5 8 21.16 8 20.75V10.75C8 10.34 8.34 10 8.75 10H12.75C13.16 10 13.5 10.34 13.5 10.75V20.75C13.5 21.16 13.16 21.5 12.75 21.5ZM9.5 20H12V11.5H9.5V20Z" fill="#26807C"/>
<path d="M12.75 16.75H8.75V20.75H12.75V16.75Z" fill="white"/>
<path d="M12.75 21.5H8.75C8.34 21.5 8 21.16 8 20.75V16.75C8 16.34 8.34 16 8.75 16H12.75C13.16 16 13.5 16.34 13.5 16.75V20.75C13.5 21.16 13.16 21.5 12.75 21.5ZM9.5 20H12V17.5H9.5V20Z" fill="#26807C"/>
</g>
</g>
</svg>
