<svg xmlns="http://www.w3.org/2000/svg" width="24" height="24" fill="none"><path fill="#fff" d="M16.51 1.75H6.99a5.24 5.24 0 0 0-5.24 5.24v9.52a5.24 5.24 0 0 0 5.24 5.24h9.52a5.24 5.24 0 0 0 5.24-5.24V6.99a5.24 5.24 0 0 0-5.24-5.24"/><path fill="#26807C" d="M16.5 22.5H6.99c-3.31 0-5.99-2.69-5.99-6V7c0-3.31 2.69-6 5.99-6h9.51c3.31 0 6 2.69 6 6v9.51c0 3.31-2.69 6-6 6zm-9.51-20C4.52 2.5 2.5 4.52 2.5 7v9.51c0 2.48 2.02 4.5 4.49 4.5h9.51c2.48 0 4.5-2.02 4.5-4.5V7c0-2.48-2.02-4.5-4.5-4.5z"/><path fill="#26807C" d="M15.75 10.5h-8c-.41 0-.75-.34-.75-.75S7.34 9 7.75 9h8c.41 0 .75.34.75.75s-.34.75-.75.75m0 4h-8c-.41 0-.75-.34-.75-.75s.34-.75.75-.75h8c.41 0 .75.34.75.75s-.34.75-.75.75"/></svg>