<svg xmlns="http://www.w3.org/2000/svg" width="24" height="24" fill="none"><path fill="#fff" d="M15.113 17.161c4.513 0 8.171-3.68 8.171-8.22S19.626.72 15.113.72 6.94 4.4 6.94 8.94s3.659 8.221 8.172 8.221"/><path fill="#26817C" d="M15.113 17.881c-4.902 0-8.888-4.01-8.888-8.94C6.225 4.01 10.211 0 15.113 0S24 4.01 24 8.94c0 4.932-3.986 8.941-8.887 8.941m0-16.441c-4.111 0-7.456 3.365-7.456 7.5 0 4.136 3.345 7.502 7.456 7.502 4.11 0 7.456-3.366 7.456-7.501 0-4.136-3.345-7.501-7.456-7.501"/><path fill="#E0F4F3" d="M15.113 14.084c2.823 0 5.112-2.303 5.112-5.143 0-2.841-2.289-5.144-5.112-5.144S10 6.1 10 8.941c0 2.84 2.289 5.143 5.113 5.143"/><path fill="#26817C" d="M15.113 14.804c-3.213 0-5.829-2.631-5.829-5.863s2.616-5.864 5.829-5.864 5.828 2.631 5.828 5.864-2.615 5.863-5.828 5.863m0-10.29c-2.426 0-4.397 1.983-4.397 4.423s1.975 4.424 4.397 4.424 4.397-1.987 4.397-4.424-1.975-4.423-4.397-4.423"/><path fill="#E0F4F3" d="m6.438 14.65 2.854 2.871-5.225 5.256c-.665.67-1.743.67-2.408 0l-.445-.448a1.72 1.72 0 0 1 0-2.423z"/><path fill="#26817C" fill-rule="evenodd" d="M1.152 23.284a2.4 2.4 0 0 0 1.71.712l.004.004c.619 0 1.238-.238 1.71-.713L9.8 18.032a.724.724 0 0 0 0-1.018l-.923-.929.776-.78a.724.724 0 0 0 0-1.02.714.714 0 0 0-1.012 0l-.777.782-.92-.925a.734.734 0 0 0-1.012 0L.708 19.397A2.42 2.42 0 0 0 0 21.117c0 .648.25 1.26.708 1.72zm6.168-6.735-.88-.885-4.72 4.748a1 1 0 0 0-.289.701c0 .267.104.515.29.702l.444.447v.003a.985.985 0 0 0 1.399 0l4.719-4.747-.88-.885a1 1 0 0 1-.083-.084" clip-rule="evenodd"/></svg>