<svg width="24" height="24" viewBox="0 0 24 24" fill="none" xmlns="http://www.w3.org/2000/svg">
<g id="icn-next-actions">
<g id="Vector">
<path d="M14.5474 22.1037L12.8205 23.1202C12.3718 23.3853 11.8109 23.3853 11.3621 23.1202L9.63523 22.1037C9.2205 21.859 8.96894 21.417 8.96894 20.9377V16.2295H15.2137V20.9377C15.2137 21.417 14.9587 21.8624 14.5474 22.1037Z" fill="white"/>
<path d="M12.093 24.0006C11.7225 24.0006 11.3485 23.902 11.0188 23.7083L9.29188 22.6918C8.67319 22.3281 8.28905 21.655 8.28905 20.9377V16.2295C8.28905 15.8556 8.595 15.5496 8.96894 15.5496H15.2171C15.591 15.5496 15.897 15.8556 15.897 16.2295V20.9377C15.897 21.655 15.5128 22.3281 14.8942 22.6918L13.1672 23.7083C12.8341 23.902 12.4636 24.0006 12.093 24.0006ZM9.64883 16.9094V20.9377C9.64883 21.1757 9.7746 21.4 9.98197 21.519L11.7089 22.5355C11.9468 22.6748 12.2392 22.6748 12.4772 22.5355L14.2041 21.519C14.408 21.4 14.5372 21.1757 14.5372 20.9377V16.9094H9.64883Z" fill="#83777F"/>
<path d="M19.5072 8.09127C19.5072 3.71959 15.7202 0.228376 11.2466 0.724693C7.83013 1.10543 5.07659 3.87937 4.71965 7.2958C4.45449 9.82498 5.46752 12.1264 7.18764 13.6425C8.34004 14.659 8.96894 16.1377 8.96894 17.6743H15.2137C15.2137 16.1479 15.8324 14.6624 16.9814 13.6561C18.5281 12.2998 19.5038 10.3111 19.5038 8.09467L19.5072 8.09127Z" fill="#D5CDD2"/>
<path fill-rule="evenodd" clip-rule="evenodd" d="M15.2171 18.3542H8.96894C8.595 18.3542 8.28905 18.0482 8.28905 17.6743C8.28905 16.3043 7.72475 15.0227 6.73891 14.1525C4.75024 12.3983 3.7678 9.87257 4.04656 7.22441C4.43749 3.48163 7.43239 0.462937 11.1718 0.0482062C13.4766 -0.203352 15.778 0.527526 17.4913 2.06067C19.2046 3.59382 20.1871 5.79325 20.1871 8.09127C20.1871 10.3893 19.1842 12.6295 17.4335 14.1661C16.4579 15.0227 15.897 16.3009 15.897 17.6743C15.897 18.0482 15.591 18.3542 15.2171 18.3542ZM12.6588 16.9944H14.5746C14.7378 15.4918 15.4313 14.1151 16.5361 13.1462C17.991 11.868 18.8273 10.0255 18.8273 8.09466C18.8273 6.16379 18.008 4.35189 16.5837 3.0771C15.1389 1.78192 13.2692 1.18702 11.3213 1.40458C8.21426 1.74452 5.72248 4.25331 5.39613 7.36719C5.16497 9.57342 5.98424 11.6743 7.63636 13.1326C8.74797 14.1117 9.44826 15.4918 9.61143 16.9944H11.2677C11.3209 16.6826 11.4293 16.3164 11.5512 15.9045L11.5557 15.8895C11.9364 14.6114 12.4565 12.8607 11.4979 12.1196C11.0322 11.7592 10.801 11.2663 10.8418 10.7326C10.9098 9.86915 11.7358 8.99549 12.5993 8.30881H10.0871C9.71318 8.30881 9.40723 8.00286 9.40723 7.62892C9.40723 7.25498 9.71318 6.94904 10.0871 6.94904H14.8531C15.1625 6.94904 15.4344 7.1598 15.5126 7.45895C15.5908 7.7581 15.4548 8.07425 15.1829 8.22382C13.7823 8.99549 12.2492 10.2329 12.2016 10.8414L12.2015 10.8464C12.2012 10.8842 12.2008 10.9445 12.3341 11.0454C14.0271 12.3575 13.3268 14.7167 12.8611 16.2805C12.8549 16.3014 12.8487 16.3223 12.8425 16.3431C12.7728 16.5784 12.7057 16.8049 12.6588 16.9944Z" fill="#83777F"/>
<path d="M8.9689 21.6346C8.66975 21.6346 8.3978 21.4374 8.31281 21.1349C8.21423 20.7746 8.42499 20.3972 8.78873 20.2986L15.0369 18.5785C15.3972 18.4765 15.7746 18.6907 15.8732 19.0544C15.9717 19.4148 15.761 19.7921 15.3972 19.8907L9.14907 21.6108C9.08788 21.6278 9.02669 21.6346 8.9689 21.6346Z" fill="#83777F"/>
</g>
</g>
</svg>
