<svg xmlns="http://www.w3.org/2000/svg" width="24" height="24" fill="none"><path fill="#fff" d="M21.046 5.326c-1.25-.2-2.34.76-2.34 1.97v-2.21c0-1-.68-1.92-1.66-2.08-1.25-.2-2.34.76-2.34 1.97v-1.11c0-1-.68-1.92-1.66-2.08-1.25-.2-2.34.76-2.34 1.97v6.34-5.01c0-1-.68-1.92-1.66-2.08-1.25-.2-2.34.76-2.34 1.97v7.31l-.21.13-.92-1.81c-.47-.93-1.58-1.44-2.55-1.06-1.12.44-1.6 1.73-1.07 2.77l2.57 5.07a7.2 7.2 0 0 0 4.61 3.41l1.77.41c2.46.57 5.05.35 7.38-.63a7.21 7.21 0 0 0 4.41-6.65v-6.54c0-1-.68-1.92-1.66-2.08z"/><path fill="#26807C" fill-rule="evenodd" d="M10.746 21.956c.96.22 1.93.33 2.9.33v-.02c1.68 0 3.36-.33 4.94-1a7.95 7.95 0 0 0 4.87-7.34v-6.54c0-1.39-.98-2.61-2.29-2.82-.6-.1-1.2 0-1.72.27-.1-1.29-1.05-2.38-2.28-2.58-.69-.11-1.39.04-1.96.41-.37-.84-1.13-1.48-2.04-1.63-.81-.13-1.62.1-2.24.62-.32.28-.57.63-.74 1.01-.31-.2-.65-.34-1.02-.4a2.75 2.75 0 0 0-2.24.62 2.75 2.75 0 0 0-.97 2.1v4.84c-.75-.99-2.07-1.41-3.2-.97-.73.28-1.3.86-1.58 1.58-.27.73-.23 1.54.12 2.23l2.59 5.11c1.1 1.9 2.95 3.27 5.09 3.77zm-7.44-11.69c.13-.06.26-.08.4-.08l.03-.02c.48 0 .96.3 1.21.78l.798 1.57a.76.76 0 0 0 .512.62c1.78.59 4.32 1.92 4.43 3.04.04.39.37.68.75.68l-.01-.01h.07c.42-.04.72-.41.68-.82-.188-2.035-3.126-3.435-4.67-4.038V4.976c0-.36.16-.71.44-.95s.64-.34 1.02-.28c.59.1 1.03.67 1.03 1.34v5.01c0 .41.34.75.75.75s.75-.34.75-.75v-6.34c0-.36.16-.71.44-.95s.64-.34 1.02-.28c.59.1 1.03.67 1.03 1.34v.948a.7.7 0 0 0-.02.172v5.12c0 .41.34.75.75.75s.75-.34.75-.75V5.148a.7.7 0 0 0 .02-.172c0-.37.16-.71.44-.95s.64-.34 1.02-.28c.59.1 1.03.67 1.03 1.34V7.17a1 1 0 0 0-.01.124v2.81c0 .41.34.75.75.75s.75-.34.75-.75V7.42a1 1 0 0 0 .01-.124c0-.37.16-.71.44-.95s.64-.34 1.02-.28c.59.1 1.03.67 1.03 1.34v6.54c0 2.61-1.56 4.95-3.96 5.96-2.2.92-4.6 1.13-6.92.59l-1.77-.41a6.47 6.47 0 0 1-4.11-3.02l-2.57-5.07c-.16-.31-.18-.68-.05-1.01s.38-.59.72-.72" clip-rule="evenodd"/></svg>