<svg xmlns="http://www.w3.org/2000/svg" width="24" height="24" fill="none"><path fill="#fff" d="M14.547 22.103 12.82 23.12a1.44 1.44 0 0 1-1.458 0l-1.727-1.017a1.35 1.35 0 0 1-.666-1.166V16.23h6.245v4.708c0 .48-.255.925-.667 1.166"/><path fill="#26817C" d="M12.093 24c-.37 0-.745-.099-1.074-.292L9.292 22.69a2.04 2.04 0 0 1-1.003-1.754V16.23c0-.374.306-.68.68-.68h6.248c.374 0 .68.306.68.68v4.708c0 .717-.384 1.39-1.003 1.754l-1.727 1.017a2.14 2.14 0 0 1-1.074.292M9.649 16.91v4.028a.67.67 0 0 0 .333.581l1.727 1.017c.238.14.53.14.768 0l1.727-1.017a.68.68 0 0 0 .333-.58v-4.03z"/><path fill="#E0F4F3" d="M19.507 8.09a7.416 7.416 0 0 0-8.26-7.366c-3.417.38-6.17 3.155-6.527 6.571a7.38 7.38 0 0 0 2.468 6.347c1.152 1.017 1.78 2.495 1.78 4.032h6.246c0-1.527.618-3.012 1.767-4.018a7.38 7.38 0 0 0 2.523-5.562z"/><path fill="#26817C" fill-rule="evenodd" d="M15.217 18.354H8.97a.68.68 0 0 1-.68-.68c0-1.37-.564-2.652-1.55-3.522-1.989-1.754-2.971-4.28-2.692-6.928C4.437 3.48 7.432.462 11.172.048a8.15 8.15 0 0 1 6.32 2.012 8.1 8.1 0 0 1 2.695 6.03 8.13 8.13 0 0 1-2.754 6.076c-.975.856-1.536 2.134-1.536 3.508 0 .374-.306.68-.68.68m-2.558-1.36h1.916c.163-1.503.856-2.88 1.961-3.848a6.73 6.73 0 0 0 2.291-5.052c0-1.93-.819-3.743-2.243-5.017-1.445-1.296-3.315-1.89-5.263-1.673-3.107.34-5.599 2.849-5.925 5.963a6.67 6.67 0 0 0 2.24 5.765 6 6 0 0 1 1.975 3.862h1.657c.053-.312.161-.678.283-1.09l.005-.015c.38-1.278.9-3.029-.058-3.77-.466-.36-.697-.853-.656-1.387.068-.863.894-1.737 1.757-2.424h-2.512a.68.68 0 0 1-.68-.68c0-.373.306-.68.68-.68h4.766a.679.679 0 0 1 .33 1.275c-1.4.772-2.934 2.01-2.981 2.618v.005c0 .038-.001.098.132.199 1.693 1.312.993 3.671.527 5.235l-.019.063c-.07.235-.136.461-.183.65" clip-rule="evenodd"/><path fill="#26817C" d="M8.969 21.634a.681.681 0 0 1-.18-1.336l6.248-1.72a.68.68 0 0 1 .36 1.312L9.15 21.61a.7.7 0 0 1-.18.024"/></svg>