<svg xmlns="http://www.w3.org/2000/svg" width="24" height="24" fill="none"><path fill="#fff" d="M15.75 4.46V2.75h-12v8h16v-4h-1.71a2.29 2.29 0 0 1-2.29-2.29"/><path fill="#26807C" d="M19.75 11.5h-16c-.41 0-.75-.34-.75-.75v-8c0-.41.34-.75.75-.75h12c.41 0 .75.34.75.75v1.71c0 .85.69 1.54 1.54 1.54h1.71c.41 0 .75.34.75.75v4c0 .41-.34.75-.75.75M4.5 10H19V7.5h-.96C16.36 7.5 15 6.13 15 4.46V3.5H4.5z"/><path fill="#AADCD9" d="M12.75 10.75h-4v10h4z"/><path fill="#26807C" d="M12.75 21.5h-4c-.41 0-.75-.34-.75-.75v-10c0-.41.34-.75.75-.75h4c.41 0 .75.34.75.75v10c0 .41-.34.75-.75.75M9.5 20H12v-8.5H9.5z"/><path fill="#fff" d="M12.75 16.75h-4v4h4z"/><path fill="#26807C" d="M12.75 21.5h-4c-.41 0-.75-.34-.75-.75v-4c0-.41.34-.75.75-.75h4c.41 0 .75.34.75.75v4c0 .41-.34.75-.75.75M9.5 20H12v-2.5H9.5z"/></svg>