<svg xmlns="http://www.w3.org/2000/svg" width="94" height="36" fill="none"><path fill="#26827C" d="M8.222 0C3.964 0 .502 3.472.502 7.741V28.26c0 4.267 3.462 7.74 7.72 7.74h20.462c4.256 0 7.72-3.472 7.72-7.741V7.74c0-4.268-3.463-7.741-7.72-7.741zM2.746 7.741c0-3.032 2.451-5.491 5.476-5.491h3.024c.5 0 .93.35 1.039.84a7.36 7.36 0 0 1-1.964 6.755 7.31 7.31 0 0 1-6.737 1.968 1.07 1.07 0 0 1-.837-1.04V7.74zM21.53 33.75H8.222c-3.024 0-5.476-2.458-5.476-5.492V14.912a.8.8 0 0 1 .918-.796q.74.119 1.483.118a9.6 9.6 0 0 0 3.016-.487.458.458 0 0 1 .575.593c-1.385 3.704-.595 8.04 2.376 11.018A10.35 10.35 0 0 0 22.1 27.739c.362-.137.714.212.592.58a9.64 9.64 0 0 0-.369 4.5.804.804 0 0 1-.794.928zm12.629-5.492c0 3.032-2.451 5.492-5.476 5.492h-3.024c-.5 0-.931-.35-1.04-.84a7.36 7.36 0 0 1 1.964-6.755 7.31 7.31 0 0 1 6.737-1.969c.488.108.837.54.837 1.04v3.032zm0-7.171a.804.804 0 0 1-.926.796 9.6 9.6 0 0 0-4.487.37.46.46 0 0 1-.58-.594c1.386-3.702.595-8.038-2.375-11.017A10.35 10.35 0 0 0 14.803 8.26c-.362.136-.714-.213-.592-.581a9.64 9.64 0 0 0 .37-4.5.804.804 0 0 1 .793-.928h13.31c3.023 0 5.476 2.458 5.476 5.491v13.346zM43.05 4.685h2.695v10.631H43.05zm5.149 2.977h2.408v.395a2.77 2.77 0 0 1 1.878-.698c.893 0 1.681.364 2.196 1.108.499-.592 1.196-1.108 2.454-1.108 1.53 0 2.802 1.094 2.802 3.31v4.647h-2.423v-4.54c0-.684-.348-1.155-1.03-1.155-.773 0-1.075.668-1.196.866v4.83h-2.423v-4.541c0-.684-.348-1.155-1.03-1.155-.757 0-1.06.668-1.227.927v4.768H48.2V7.662zm13.631 0h2.408v.425c.515-.471 1.18-.728 2.12-.728 2.439 0 3.847 1.898 3.847 4.131s-1.408 4.131-3.847 4.131c-.94 0-1.605-.258-2.12-.728v4.16H61.83zm2.408 2.87v1.914c.454.592 1.015.911 1.772.911 1.06 0 1.713-.743 1.713-1.867 0-1.123-.65-1.867-1.713-1.867-.772 0-1.347.334-1.772.91m6.831 2.627c0-1.17.893-2.065 2.56-2.338l2.15-.364c-.015-.577-.514-1.018-1.227-1.018-.636 0-1.105.304-1.454.804l-1.757-1.336c.697-.971 1.862-1.55 3.287-1.55 2.423 0 3.544 1.459 3.544 3.13v4.828h-2.393v-.576c-.423.47-1.287.804-2.09.804-1.544 0-2.619-.896-2.619-2.385zm3.15.517c.772 0 1.256-.365 1.559-.82v-.76l-1.5.26c-.62.106-.832.334-.832.683 0 .395.303.638.773.638zm11.011-1.018 1.878 1.427c-.713.942-1.849 1.534-3.257 1.534-2.695 0-4.24-1.898-4.24-4.131s1.545-4.132 4.24-4.132c1.408 0 2.544.592 3.257 1.534L85.23 10.32c-.272-.395-.742-.7-1.408-.7-.984 0-1.71.745-1.71 1.868s.726 1.868 1.756 1.868a1.64 1.64 0 0 0 1.363-.7zm3.74-2.841h-1.423V7.661h1.423V5.747h2.423v1.914h2.09v2.157h-2.09v2.521c0 .608.319.942.954.942.56 0 .924-.075 1.151-.167v2.081c-.41.183-.878.273-1.59.273-2.076 0-2.938-1.246-2.938-3.129zM50.139 27.532l2.135 1.625c-.984 1.307-2.559 2.158-4.498 2.158-3.377 0-5.68-2.582-5.68-5.62 0-3.037 2.303-5.619 5.68-5.619 1.938 0 3.514.851 4.498 2.142l-2.136 1.64c-.499-.729-1.302-1.246-2.362-1.246-1.697 0-2.909 1.306-2.909 3.082s1.212 3.082 2.909 3.082a2.81 2.81 0 0 0 2.362-1.245m14.313-1.837c0 3.037-2.303 5.62-5.664 5.62-3.362 0-5.68-2.583-5.68-5.62s2.303-5.62 5.68-5.62 5.664 2.583 5.664 5.62m-2.771 0c0-1.791-1.212-3.082-2.893-3.082s-2.909 1.306-2.909 3.082 1.212 3.082 2.909 3.082 2.893-1.306 2.893-3.082m4.117 6.052 2.384-2.29c.337-.318.654-.685.654-1.131s-.307-.724-.732-.724c-.613 0-.96.426-1.306 1.001l-1.345-.834c.603-.991 1.514-1.656 2.82-1.656s2.254.793 2.254 2.033c0 .952-.632 1.696-1.197 2.222l-1.474 1.378h2.85v1.507h-4.908z"/></svg>