<svg width="40" height="40" viewBox="0 0 40 40" fill="none" xmlns="http://www.w3.org/2000/svg">
<g id="simulateur" clip-path="url(#clip0_1779_88)">
<g id="Calque_3">
<g id="Group">
<path id="Vector" d="M32 0H8C3.58172 0 0 3.58172 0 8V32C0 36.4183 3.58172 40 8 40H32C36.4183 40 40 36.4183 40 32V8C40 3.58172 36.4183 0 32 0Z" fill="#DCF0EF"/>
<g id="Group_2">
<path id="Vector_2" d="M29.99 6H10.01C7.79534 6 6 7.79534 6 10.01V29.99C6 32.2047 7.79534 34 10.01 34H29.99C32.2047 34 34 32.2047 34 29.99V10.01C34 7.79534 32.2047 6 29.99 6Z" fill="white"/>
<path id="Vector_3" d="M29.99 35H10.01C7.25 35 5 32.75 5 29.99V10.01C5 7.25 7.25 5 10.01 5H29.98C32.74 5 34.99 7.25 34.99 10.01V29.98C34.99 32.74 32.74 34.99 29.98 34.99L29.99 35ZM10.01 7C8.35 7 7 8.35 7 10.01V29.98C7 31.64 8.35 32.99 10.01 32.99H29.98C31.64 32.99 32.99 31.64 32.99 29.98V10.01C32.99 8.35 31.64 7 29.98 7H10.01Z" fill="#13706D"/>
</g>
<path id="Vector_4" d="M20 35C19.45 35 19 34.55 19 34V6C19 5.45 19.45 5 20 5C20.55 5 21 5.45 21 6V34C21 34.55 20.55 35 20 35Z" fill="#13706D"/>
<path id="Vector_5" d="M34 21H6C5.45 21 5 20.55 5 20C5 19.45 5.45 19 6 19H34C34.55 19 35 19.45 35 20C35 20.55 34.55 21 34 21Z" fill="#13706D"/>
<g id="Group_3">
<path id="Vector_6" d="M11.3502 29.5097C11.0902 29.5097 10.8402 29.4097 10.6402 29.2197C10.2502 28.8297 10.2502 28.1997 10.6402 27.8097L14.2902 24.1597C14.6802 23.7697 15.3102 23.7697 15.7002 24.1597C16.0902 24.5497 16.0902 25.1797 15.7002 25.5697L12.0502 29.2197C11.8502 29.4197 11.6002 29.5097 11.3402 29.5097H11.3502Z" fill="#13706D"/>
</g>
<g id="Group_4">
<path id="Vector_7" d="M15.0002 29.5097C14.7402 29.5097 14.4902 29.4097 14.2902 29.2197L10.6402 25.5697C10.2502 25.1797 10.2502 24.5497 10.6402 24.1597C11.0302 23.7697 11.6602 23.7697 12.0502 24.1597L15.7002 27.8097C16.0902 28.1997 16.0902 28.8297 15.7002 29.2197C15.5002 29.4197 15.2502 29.5097 14.9902 29.5097H15.0002Z" fill="#13706D"/>
</g>
<path id="Vector_8" d="M15.7596 13.6797H10.5996C10.0496 13.6797 9.59961 13.2297 9.59961 12.6797C9.59961 12.1297 10.0496 11.6797 10.5996 11.6797H15.7596C16.3096 11.6797 16.7596 12.1297 16.7596 12.6797C16.7596 13.2297 16.3096 13.6797 15.7596 13.6797Z" fill="#13706D"/>
<path id="Vector_9" d="M13.1699 16.2596C12.6199 16.2596 12.1699 15.8096 12.1699 15.2596V10.0996C12.1699 9.54961 12.6199 9.09961 13.1699 9.09961C13.7199 9.09961 14.1699 9.54961 14.1699 10.0996V15.2596C14.1699 15.8096 13.7199 16.2596 13.1699 16.2596Z" fill="#13706D"/>
<path id="Vector_10" d="M29.7596 13.6797H24.5996C24.0496 13.6797 23.5996 13.2297 23.5996 12.6797C23.5996 12.1297 24.0496 11.6797 24.5996 11.6797H29.7596C30.3096 11.6797 30.7596 12.1297 30.7596 12.6797C30.7596 13.2297 30.3096 13.6797 29.7596 13.6797Z" fill="#13706D"/>
<g id="Group_5">
<path id="Vector_11" d="M20 20H34V29.99C34 32.21 32.2 34 29.99 34H20V20Z" fill="#C0E6E3"/>
<path id="Vector_12" d="M29.99 35H20C19.45 35 19 34.55 19 34V20C19 19.45 19.45 19 20 19H34C34.55 19 35 19.45 35 20V29.99C35 32.75 32.75 35 29.99 35ZM21 33H29.99C31.65 33 33 31.65 33 29.99V21H21V33Z" fill="#13706D"/>
</g>
<path id="Vector_13" d="M29.7596 25.6797H24.5996C24.0496 25.6797 23.5996 25.2297 23.5996 24.6797C23.5996 24.1297 24.0496 23.6797 24.5996 23.6797H29.7596C30.3096 23.6797 30.7596 24.1297 30.7596 24.6797C30.7596 25.2297 30.3096 25.6797 29.7596 25.6797Z" fill="#13706D"/>
<path id="Vector_14" d="M29.7596 29.6797H24.5996C24.0496 29.6797 23.5996 29.2297 23.5996 28.6797C23.5996 28.1297 24.0496 27.6797 24.5996 27.6797H29.7596C30.3096 27.6797 30.7596 28.1297 30.7596 28.6797C30.7596 29.2297 30.3096 29.6797 29.7596 29.6797Z" fill="#13706D"/>
</g>
</g>
</g>
<defs>
<clipPath id="clip0_1779_88">
<rect width="40" height="40" fill="white"/>
</clipPath>
</defs>
</svg>
