<svg width="220" height="180" viewBox="0 0 220 180" fill="none" xmlns="http://www.w3.org/2000/svg">
<path d="M107.654 12.751H112.346C169.747 12.751 216.353 59.3576 216.353 116.758V141.349C216.353 155.96 204.495 167.818 189.884 167.818H30.116C15.5048 167.818 3.64697 155.96 3.64697 141.349V116.758C3.64697 59.3576 50.2535 12.751 107.654 12.751Z" fill="#E0F4F3"/>
<path d="M128.309 48.6229C128.11 48.6229 127.911 48.5632 127.732 48.434L111.919 37.1924C111.471 36.8743 111.362 36.2581 111.68 35.8108C111.998 35.3635 112.614 35.2542 113.062 35.5723L128.875 46.8139C129.323 47.1319 129.432 47.7482 129.114 48.1955C128.925 48.4638 128.617 48.6129 128.299 48.6129L128.309 48.6229Z" fill="#13706D"/>
<path d="M96.3432 46.0982C95.9854 46.0982 95.6474 45.9094 95.4685 45.5814C95.2101 45.0943 95.389 44.498 95.8661 44.2395L111.521 35.7909L111.72 30.9106C111.74 30.3639 112.217 29.9365 112.753 29.9564C113.3 29.9763 113.727 30.4435 113.708 30.9901L113.489 36.437C113.479 36.7849 113.28 37.1029 112.972 37.2719L96.8203 45.9889C96.6712 46.0684 96.5121 46.1082 96.3531 46.1082L96.3432 46.0982Z" fill="#13706D"/>
<path d="M112.863 31.9245C112.803 31.9245 112.754 31.9245 112.694 31.9245C112.147 31.9145 111.71 31.4573 111.73 30.9007C111.75 30.354 112.187 29.8869 112.753 29.9366C115.089 30.0161 117.097 28.1176 117.167 25.752C117.226 23.3864 115.348 21.4084 112.982 21.3388C111.849 21.319 110.746 21.7265 109.911 22.5216C109.076 23.3168 108.599 24.3803 108.579 25.5234C108.559 26.0701 108.161 26.5074 107.555 26.4875C107.008 26.4776 106.571 26.0204 106.591 25.4638C106.631 23.784 107.327 22.2235 108.549 21.0705C109.772 19.9175 111.372 19.3012 113.042 19.3509C116.511 19.4404 119.254 22.3328 119.165 25.8017C119.075 29.211 116.272 31.9245 112.883 31.9245H112.863Z" fill="#13706D"/>
<path d="M61.7733 144.241C61.7733 144.241 60.2824 152.948 62.0815 154.131C63.8805 155.314 66.9121 155.632 69.6951 157.053C72.4882 158.475 75.2116 157.978 75.2712 155.503C75.3309 153.028 76.7125 148.863 76.7125 148.863" fill="#AFE0DD"/>
<path d="M72.6274 158.833C71.5838 158.833 70.4209 158.534 69.248 157.938C67.9658 157.282 66.624 156.874 65.3219 156.477C63.9105 156.05 62.5686 155.642 61.5349 154.956C59.4277 153.565 60.3124 146.875 60.7894 144.062C60.8789 143.526 61.3958 143.158 61.9325 143.247C62.4692 143.337 62.837 143.854 62.7475 144.39C62.0518 148.486 61.9921 152.72 62.6283 153.286C63.4234 153.803 64.5665 154.151 65.8984 154.559C67.2104 154.956 68.7013 155.413 70.1426 156.149C71.544 156.865 72.9455 157.034 73.7208 156.576C74.0886 156.358 74.2675 155.99 74.2774 155.463C74.337 152.869 75.7087 148.714 75.7683 148.535C75.9373 148.018 76.5039 147.73 77.0207 147.909C77.5376 148.078 77.8258 148.645 77.6469 149.161C77.637 149.201 76.315 153.217 76.2554 155.503C76.2256 156.725 75.6789 157.709 74.7247 158.276C74.1283 158.634 73.4027 158.803 72.6076 158.803L72.6274 158.833Z" fill="#13706D"/>
<path d="M147.83 148.714C147.83 148.714 149.489 153.585 150.096 155.433C150.702 157.282 154.4 157.024 156.835 155.851C159.27 154.678 161.238 151.865 160.393 146.816" fill="#AFE0DD"/>
<path d="M152.889 157.759C152.114 157.759 151.378 157.65 150.762 157.381C149.957 157.043 149.4 156.467 149.162 155.731C148.555 153.893 146.896 149.032 146.896 149.022L148.774 148.376C148.774 148.376 150.434 153.256 151.05 155.105C151.07 155.175 151.14 155.374 151.537 155.543C152.601 155.99 154.788 155.721 156.418 154.936C157.918 154.211 160.314 152.213 159.429 146.965C159.34 146.428 159.708 145.911 160.244 145.822C160.791 145.732 161.298 146.1 161.387 146.637C162.52 153.416 158.893 155.95 157.272 156.725C156.04 157.322 154.39 157.739 152.879 157.739L152.889 157.759Z" fill="#13706D"/>
<path d="M128.309 47.6289C113.857 52.3701 97.3074 47.46 97.3074 47.46L93.749 57.3101L126.172 62.4488L129.651 57.3101L128.309 47.6289Z" fill="#AFE0DD"/>
<path d="M126.162 63.4427C126.112 63.4427 126.062 63.4427 126.003 63.4328L93.58 58.294C93.2917 58.2443 93.0333 58.0754 92.8743 57.8169C92.7252 57.5585 92.6953 57.2504 92.7947 56.9721L96.3531 47.122C96.532 46.625 97.0588 46.3566 97.5657 46.5057C97.7248 46.5554 113.996 51.2767 127.981 46.6847C128.259 46.5952 128.567 46.635 128.816 46.7841C129.064 46.9431 129.233 47.2015 129.273 47.4898L130.615 57.1709C130.645 57.4094 130.595 57.6579 130.456 57.8666L126.977 63.0054C126.788 63.2837 126.48 63.4427 126.152 63.4427H126.162ZM95.0908 56.5149L125.695 61.3654L128.607 57.0615L127.484 48.9211C114.98 52.5887 101.522 49.587 97.9235 48.6527L95.0908 56.5049V56.5149Z" fill="#13706D"/>
<path d="M108.27 55.4911L108.161 53.046L115.029 52.8273L115.169 56.336" fill="white"/>
<path d="M115.169 57.3299C114.642 57.3299 114.195 56.9125 114.175 56.3757L114.075 53.8511L109.195 54.0002L109.255 55.4414C109.275 55.9881 108.857 56.4553 108.301 56.4751C107.724 56.495 107.287 56.0776 107.267 55.5209L107.157 53.0758C107.148 52.8074 107.237 52.549 107.426 52.3602C107.605 52.1614 107.863 52.052 108.122 52.0421L114.99 51.8334C115.527 51.8334 115.994 52.2409 116.014 52.7876L116.153 56.2962C116.173 56.8429 115.745 57.3101 115.199 57.3299C115.189 57.3299 115.169 57.3299 115.159 57.3299H115.169Z" fill="#13706D"/>
<path d="M95.5776 44.488C95.5776 44.488 101.174 56.8031 112.425 56.5944C123.677 56.3857 129.133 46.3269 129.133 46.3269L132.046 47.3307C132.046 47.3307 140.186 48.5831 143.904 57.6679C147.621 66.7526 152.879 81.2743 152.879 81.2743C152.879 81.2743 156 102.048 156.338 108.628C156.676 115.208 157.451 131.25 158.833 135.872C160.214 140.494 161.288 144.033 160.413 146.806C159.539 149.579 149.907 149.052 147.84 148.704C145.772 148.356 146.08 145.056 146.08 145.056C146.08 145.056 139.073 149.251 130.495 147.193C121.917 145.126 110.656 144.788 104.742 144.559C98.8278 144.331 86.0257 147.611 79.3662 140.822C79.3662 140.822 78.9189 148.386 76.7322 148.863C74.5455 149.34 61.4452 147.283 61.306 142.89C61.1669 138.496 67.3294 115.794 67.1405 105.507C66.9517 95.2195 70.5299 77.8054 70.5299 77.8054C70.5299 77.8054 77.8753 53.6921 84.4751 49.4976C91.075 45.313 95.5776 44.488 95.5776 44.488Z" fill="#C4EAE7"/>
<path d="M152.7 149.996C150.007 149.996 147.73 149.708 147.671 149.698C146.041 149.42 145.355 148.018 145.136 146.657C142.572 147.82 136.896 149.768 130.257 148.167C122.196 146.229 111.809 145.832 105.607 145.603L104.692 145.563C103.34 145.514 101.631 145.653 99.6429 145.812C93.6493 146.289 85.6381 146.925 80.1713 142.86C79.8433 145.653 79.0084 149.39 76.931 149.847C74.7642 150.324 65.8584 148.943 62.1609 146.07C60.9582 145.136 60.332 144.082 60.2922 142.939C60.2326 141.061 61.1768 136.409 62.3795 130.525C64.0991 122.086 66.2361 111.58 66.1267 105.537C65.9478 95.2493 69.3969 78.3322 69.5459 77.6165C69.874 76.5232 77.1 53.0062 83.9285 48.6726C90.6078 44.4284 95.19 43.5537 95.3788 43.5239C95.8261 43.4444 96.2734 43.673 96.4622 44.0905C96.5119 44.2097 101.959 55.8191 112.395 55.6104C122.911 55.4116 128.189 45.9591 128.249 45.8597C128.478 45.4323 128.994 45.2335 129.452 45.3925L132.284 46.3765C133.288 46.5555 141.101 48.2452 144.808 57.31C148.486 66.3053 153.744 80.8071 153.794 80.9562C153.813 81.0159 153.833 81.0854 153.843 81.1451C153.972 81.9999 156.974 102.038 157.312 108.588L157.362 109.572C157.73 116.629 158.485 131.3 159.767 135.604L159.807 135.733C161.198 140.395 162.302 144.082 161.338 147.124C160.592 149.489 156.268 150.006 152.68 150.006L152.7 149.996ZM146.071 144.072C146.259 144.072 146.438 144.122 146.597 144.221C146.915 144.42 147.094 144.778 147.055 145.156C147.055 145.176 146.895 147.551 147.989 147.74C151.358 148.307 158.952 148.098 159.449 146.517C160.224 144.062 159.201 140.633 157.909 136.3L157.869 136.17C156.517 131.648 155.752 116.808 155.384 109.682L155.334 108.697C155.006 102.475 152.134 83.0932 151.895 81.5427C151.438 80.2803 146.478 66.6433 142.969 58.0655C139.53 49.6467 132.195 48.3843 131.877 48.3346C131.817 48.3346 131.758 48.3148 131.708 48.2949L129.551 47.5494C128.01 49.9548 122.444 57.4194 112.425 57.6082C112.326 57.6082 112.216 57.6082 112.117 57.6082C102.058 57.6082 96.4622 48.3943 95.021 45.6609C93.5301 46.0684 89.8226 47.291 84.992 50.3623C79.8334 53.6324 73.482 71.5037 71.4643 78.1135C71.4543 78.193 67.9357 95.4481 68.1146 105.507C68.224 111.769 66.0572 122.394 64.3277 130.922C63.2045 136.449 62.2304 141.23 62.2801 142.88C62.3 143.406 62.6678 143.953 63.3834 144.51C66.6337 147.034 74.9829 148.257 76.5036 147.919C77.1596 147.77 78.1337 144.559 78.3623 140.782C78.3822 140.385 78.6406 140.047 79.0084 139.908C79.3762 139.769 79.7936 139.858 80.062 140.146C84.833 145.007 93.3015 144.331 99.4839 143.834C101.531 143.665 103.301 143.526 104.762 143.585L105.666 143.615C111.948 143.854 122.454 144.251 130.704 146.239C138.765 148.177 145.474 144.261 145.544 144.221C145.703 144.132 145.872 144.082 146.051 144.082L146.071 144.072Z" fill="#13706D"/>
<path d="M112.425 61.0175C96.4524 61.0175 91.8404 46.5256 91.8006 46.3765C91.6416 45.8497 91.9398 45.2931 92.4567 45.1341C92.9835 44.9651 93.5401 45.2633 93.6991 45.7901C93.8681 46.3268 97.9532 59.0296 112.425 59.0296C112.465 59.0296 112.505 59.0296 112.535 59.0296C127.156 58.96 131.062 47.1518 131.102 47.0325C131.271 46.5057 131.827 46.2175 132.354 46.3865C132.881 46.5554 133.169 47.1121 133 47.6389C132.96 47.7681 128.597 60.9479 112.544 61.0175C112.505 61.0175 112.465 61.0175 112.425 61.0175Z" fill="#13706D"/>
<path d="M79.3562 141.816C79.2966 141.816 79.227 141.816 79.1674 141.796C78.6307 141.687 78.2828 141.17 78.3822 140.633L80.7677 128.537C81.5628 124.481 81.8709 120.337 81.6622 116.212C81.2448 107.922 80.9168 92.7743 83.3917 84.5046C86.7612 73.2232 84.3161 57.6182 84.2962 57.4591C84.2067 56.9224 84.5745 56.4055 85.1212 56.3161C85.6579 56.2266 86.1748 56.5944 86.2642 57.1411C86.3736 57.7971 88.8088 73.3425 85.31 85.0712C82.9245 93.0526 83.2525 107.942 83.6601 116.102C83.8787 120.396 83.5607 124.7 82.7357 128.915L80.3502 141.011C80.2607 141.488 79.8433 141.816 79.3761 141.816H79.3562Z" fill="#13706D"/>
<path d="M146.07 146.06C146.07 146.06 146.011 146.06 145.971 146.06C145.424 146.011 145.027 145.523 145.076 144.977C145.424 141.339 143.625 134.779 141.886 128.437C140.087 121.877 138.228 115.099 138.367 110.516C138.447 107.902 138.198 102.227 137.94 96.2234C137.691 90.4584 137.423 84.4947 137.393 80.0318C137.334 73.1537 139.649 62.6774 139.749 62.24C139.868 61.7033 140.405 61.3654 140.932 61.4846C141.468 61.6039 141.806 62.1307 141.687 62.6674C141.667 62.7768 139.331 73.3624 139.381 80.012C139.421 84.435 139.679 90.3789 139.928 96.1339C140.196 102.177 140.445 107.882 140.355 110.576C140.226 114.86 142.045 121.49 143.804 127.911C145.673 134.729 147.442 141.17 147.054 145.166C147.005 145.683 146.577 146.06 146.07 146.06Z" fill="#13706D"/>
<path d="M138.715 90.8262C138.318 90.8262 137.94 90.5876 137.791 90.1901C135.485 84.1965 133.388 71.0564 133.298 70.4998C133.209 69.9531 133.587 69.4462 134.123 69.3667C134.67 69.2773 135.177 69.655 135.256 70.1917C135.276 70.3308 137.413 83.6896 139.64 89.4843C139.839 90.0012 139.58 90.5678 139.073 90.7666C138.954 90.8063 138.835 90.8361 138.715 90.8361V90.8262Z" fill="#13706D"/>
<path d="M72.9852 79.1969C72.9156 79.1969 72.846 79.1969 72.7764 79.177C71.4048 78.8888 70.4605 78.7993 70.4506 78.7993C69.9039 78.7496 69.4964 78.2725 69.5461 77.7259C69.5958 77.1792 70.0629 76.7717 70.6196 76.8214C70.6593 76.8214 71.693 76.9208 73.184 77.2388C73.7207 77.3581 74.0587 77.8849 73.9493 78.4216C73.8499 78.8888 73.4325 79.2069 72.9752 79.2069L72.9852 79.1969Z" fill="#13706D"/>
<path d="M80.1714 82.0695C79.9826 82.0695 79.7838 82.0098 79.6148 81.9005C78.6904 81.2743 77.5971 80.7078 76.3646 80.2307C75.8477 80.0319 75.5992 79.4554 75.7881 78.9485C75.9769 78.4415 76.5634 78.1831 77.0703 78.3819C78.4519 78.9087 79.6844 79.5448 80.738 80.2605C81.1952 80.5686 81.3045 81.1849 80.9964 81.6421C80.8075 81.9204 80.4895 82.0794 80.1714 82.0794V82.0695Z" fill="#13706D"/>
<path d="M84.0081 87.0193C83.5807 87.0193 83.1831 86.741 83.0539 86.3037C82.8551 85.6079 82.5371 84.9519 82.1295 84.3357C81.8214 83.8784 81.9407 83.2622 82.3979 82.9541C82.8551 82.6459 83.4714 82.7652 83.7795 83.2224C84.3063 84.0077 84.7039 84.8525 84.9623 85.7371C85.1114 86.2639 84.8132 86.8206 84.2864 86.9696C84.197 86.9995 84.0976 87.0094 84.0081 87.0094V87.0193Z" fill="#13706D"/>
<path d="M138.844 95.0704C138.646 95.0704 138.437 95.0108 138.258 94.8815C137.811 94.5535 137.721 93.9373 138.039 93.49C138.039 93.49 138.626 92.6949 139.58 91.4922C139.918 91.0648 140.544 90.9952 140.981 91.3331C141.409 91.6711 141.478 92.2973 141.14 92.7346C140.216 93.8876 139.659 94.6629 139.65 94.6728C139.451 94.9412 139.153 95.0803 138.844 95.0803V95.0704Z" fill="#13706D"/>
<path d="M143.437 89.4645C143.198 89.4645 142.959 89.385 142.771 89.2061C142.363 88.8383 142.333 88.2121 142.701 87.8046C143.884 86.4926 145.027 85.3197 146.1 84.3258C146.508 83.958 147.134 83.9779 147.502 84.3854C147.879 84.7929 147.85 85.4191 147.442 85.7869C146.418 86.7311 145.315 87.8642 144.172 89.1266C143.973 89.3452 143.705 89.4546 143.437 89.4546V89.4645Z" fill="#13706D"/>
<path d="M150.563 83.1529C150.215 83.1529 149.877 82.974 149.698 82.646C149.43 82.1689 149.589 81.5626 150.076 81.2942C151.04 80.7475 151.945 80.4096 152.75 80.3002C153.297 80.2307 153.794 80.6084 153.873 81.155C153.943 81.7017 153.565 82.1987 153.018 82.2782C152.472 82.3577 151.806 82.6062 151.06 83.0336C150.901 83.1231 150.732 83.1628 150.573 83.1628L150.563 83.1529Z" fill="#13706D"/>
<path d="M83.0441 135.504C82.9149 135.504 82.7856 135.475 82.6564 135.425C81.2053 134.819 80.3306 134.282 80.3008 134.262C79.8336 133.974 79.6845 133.367 79.9728 132.9C80.261 132.433 80.8673 132.284 81.3345 132.572C81.3345 132.572 82.1296 133.049 83.4317 133.606C83.9386 133.815 84.1772 134.401 83.9585 134.908C83.7995 135.286 83.4317 135.514 83.0441 135.514V135.504Z" fill="#13706D"/>
<path d="M133.199 137.781C132.652 137.781 132.215 137.343 132.205 136.797C132.205 136.25 132.642 135.803 133.189 135.793C134.75 135.773 136.27 135.693 137.702 135.534C138.238 135.475 138.735 135.872 138.795 136.419C138.855 136.966 138.457 137.453 137.91 137.512C136.409 137.671 134.829 137.761 133.209 137.781H133.199ZM128.577 137.632C128.577 137.632 128.527 137.632 128.498 137.632C126.828 137.502 125.247 137.284 123.806 137.005C123.269 136.896 122.922 136.379 123.021 135.832C123.13 135.296 123.647 134.948 124.194 135.047C125.556 135.316 127.056 135.524 128.657 135.644C129.203 135.683 129.611 136.17 129.571 136.717C129.531 137.234 129.094 137.632 128.577 137.632ZM91.3038 137.274C89.9819 137.274 88.6202 137.135 87.2485 136.856C86.7118 136.747 86.3639 136.22 86.4732 135.683C86.5826 135.147 87.0994 134.799 87.6461 134.908C89.1271 135.206 90.5584 135.335 91.9996 135.276C92.5562 135.256 93.0134 135.673 93.0333 136.23C93.0532 136.777 92.6357 137.244 92.0791 137.264C91.8207 137.274 91.5623 137.284 91.3038 137.284V137.274ZM96.6016 136.558C96.1345 136.558 95.717 136.22 95.6275 135.743C95.5281 135.206 95.886 134.689 96.4227 134.58C98.0031 134.292 99.5537 134.033 101.025 133.825C101.571 133.745 102.068 134.123 102.148 134.67C102.227 135.216 101.85 135.713 101.303 135.793C99.8618 136.001 98.341 136.25 96.7905 136.538C96.7308 136.548 96.6712 136.558 96.6116 136.558H96.6016ZM119.532 135.862C119.463 135.862 119.383 135.862 119.313 135.842C117.962 135.534 116.481 135.316 114.89 135.186C114.344 135.147 113.936 134.66 113.976 134.113C114.026 133.566 114.493 133.159 115.049 133.198C116.729 133.338 118.31 133.576 119.751 133.904C120.288 134.023 120.625 134.56 120.496 135.097C120.387 135.554 119.979 135.872 119.532 135.872V135.862ZM105.746 135.286C105.239 135.286 104.802 134.898 104.752 134.381C104.702 133.835 105.11 133.357 105.657 133.308C107.277 133.169 108.857 133.089 110.338 133.059C110.875 133.029 111.342 133.487 111.342 134.033C111.342 134.58 110.915 135.037 110.358 135.047C108.927 135.067 107.396 135.147 105.816 135.286C105.786 135.286 105.756 135.286 105.726 135.286H105.746Z" fill="#13706D"/>
<path d="M142.363 136.707C141.936 136.707 141.538 136.429 141.409 135.991C141.26 135.465 141.558 134.908 142.085 134.759C143.456 134.361 143.785 134.014 143.824 133.984C144.182 133.566 144.818 133.526 145.226 133.884C145.643 134.242 145.683 134.868 145.325 135.286C144.848 135.832 143.973 136.28 142.641 136.667C142.552 136.697 142.453 136.707 142.363 136.707Z" fill="#13706D"/>
<path d="M193.204 142.194C192.727 142.194 192.429 142.194 192.349 142.194H163.832C163.286 142.194 162.838 141.747 162.838 141.2C162.838 140.653 163.286 140.206 163.832 140.206H192.379C196.355 140.305 207.169 139.769 210.757 136.2C210.757 135.465 210.608 133.556 209.336 132.105C208.252 130.873 206.563 130.197 204.316 130.107C196.047 129.759 181.018 118.746 180.382 118.279C180.233 118.16 179.259 117.424 177.947 118.309C177.579 118.558 177.37 118.955 177.032 119.651C176.187 121.39 175.044 123.766 169.14 124.621C164.071 125.356 162.391 123.348 161.039 121.738C160.592 121.201 160.205 120.744 159.737 120.446C159.28 120.148 159.151 119.532 159.449 119.074C159.747 118.617 160.364 118.488 160.821 118.786C161.536 119.253 162.053 119.87 162.56 120.466C163.763 121.887 164.886 123.229 168.862 122.653C173.712 121.947 174.527 120.267 175.253 118.786C175.631 118.011 176.018 117.216 176.853 116.659C178.941 115.268 180.889 116.102 181.634 116.729C181.724 116.798 196.752 127.811 204.416 128.129C207.238 128.249 209.405 129.153 210.866 130.823C213.043 133.318 212.765 136.578 212.755 136.707C212.735 136.916 212.646 137.115 212.516 137.274C208.471 141.876 196.573 142.204 193.244 142.204L193.204 142.194Z" fill="#13706D"/>
<path d="M169.558 136.816C167.043 136.816 164.668 136.697 162.491 136.459C161.944 136.399 161.547 135.912 161.616 135.365C161.676 134.819 162.163 134.421 162.71 134.491C165.254 134.769 168.077 134.888 171.109 134.829C173.027 134.789 175.184 134.779 177.51 134.759C187.896 134.689 202.12 134.59 210.877 132.165C211.403 132.016 211.95 132.324 212.099 132.861C212.248 133.387 211.94 133.934 211.403 134.083C202.398 136.578 188.026 136.677 177.52 136.747C175.204 136.767 173.057 136.777 171.148 136.816C170.612 136.826 170.085 136.836 169.568 136.836L169.558 136.816Z" fill="#13706D"/>
<path d="M200.997 135.624C200.997 135.624 200.967 135.624 200.957 135.624C200.41 135.604 199.983 135.137 200.003 134.59C200.042 133.467 200.291 129.71 201.603 128.507C202.05 128.09 202.527 128.03 202.835 128.04C203.382 128.07 203.809 128.527 203.78 129.074C203.76 129.571 203.372 129.968 202.895 130.018C202.488 130.495 202.07 132.642 201.991 134.66C201.971 135.196 201.533 135.614 200.997 135.614V135.624Z" fill="#13706D"/>
<path d="M165.135 132.692C166.754 132.692 168.067 131.379 168.067 129.759C168.067 128.14 166.754 126.827 165.135 126.827C163.515 126.827 162.203 128.14 162.203 129.759C162.203 131.379 163.515 132.692 165.135 132.692Z" fill="#AFE0DD"/>
<path d="M165.135 133.685C162.968 133.685 161.208 131.926 161.208 129.759C161.208 127.593 162.968 125.833 165.135 125.833C167.301 125.833 169.061 127.593 169.061 129.759C169.061 131.926 167.301 133.685 165.135 133.685ZM165.135 127.821C164.071 127.821 163.196 128.686 163.196 129.759C163.196 130.833 164.061 131.698 165.135 131.698C166.208 131.698 167.073 130.833 167.073 129.759C167.073 128.686 166.208 127.821 165.135 127.821Z" fill="#13706D"/>
<path d="M184.894 125.883C184.715 125.883 184.527 125.833 184.368 125.734C183.9 125.446 183.761 124.829 184.059 124.362L186.167 121.013C186.455 120.545 187.071 120.406 187.538 120.704C188.005 120.993 188.145 121.609 187.846 122.076L185.739 125.426C185.55 125.724 185.222 125.893 184.894 125.893V125.883Z" fill="#13706D"/>
<path d="M187.837 127.821C187.658 127.821 187.469 127.771 187.31 127.672C186.843 127.384 186.704 126.768 187.002 126.3L189.109 122.951C189.397 122.484 190.014 122.344 190.481 122.643C190.948 122.931 191.087 123.547 190.789 124.014L188.682 127.364C188.493 127.662 188.165 127.831 187.837 127.831V127.821Z" fill="#13706D"/>
<path d="M191.157 129.501C190.978 129.501 190.789 129.451 190.63 129.352C190.163 129.064 190.023 128.447 190.322 127.98L192.429 124.631C192.717 124.163 193.333 124.024 193.801 124.322C194.268 124.611 194.407 125.227 194.109 125.694L192.001 129.044C191.813 129.342 191.485 129.511 191.157 129.511V129.501Z" fill="#13706D"/>
<path d="M181.714 124.213C181.535 124.213 181.346 124.163 181.187 124.064C180.72 123.776 180.581 123.16 180.879 122.692L182.986 119.343C183.274 118.876 183.89 118.736 184.358 119.035C184.825 119.323 184.964 119.939 184.666 120.406L182.559 123.756C182.37 124.054 182.042 124.223 181.714 124.223V124.213Z" fill="#13706D"/>
<path d="M23.4165 114.82L24.6987 143.029C24.7882 144.977 29.1814 146.348 34.519 146.11C39.8565 145.871 44.1106 144.092 44.0212 142.154L42.739 113.946L23.4264 114.82H23.4165Z" fill="#AFE0DD"/>
<path d="M33.3064 147.134C31.08 147.134 28.9927 146.855 27.3427 146.339C24.4205 145.424 23.7545 144.052 23.7048 143.078L22.4226 114.87C22.4127 114.602 22.5021 114.353 22.6811 114.154C22.86 113.956 23.1085 113.846 23.3669 113.836L42.6794 112.962C43.2062 112.942 43.6933 113.359 43.7131 113.906L44.9953 142.114C45.0351 143.098 44.4984 144.52 41.6656 145.692C39.7671 146.488 37.2425 146.985 34.5489 147.104C34.1314 147.124 33.7139 147.134 33.2965 147.134H33.3064ZM24.4602 115.774L25.6927 142.989C25.7126 143.357 26.4183 143.973 27.9391 144.45C29.6884 144.997 32.0043 145.235 34.4693 145.126C36.9344 145.017 39.2304 144.569 40.9102 143.864C42.3812 143.247 43.0273 142.581 43.0174 142.214L41.7849 114.999L24.4503 115.784L24.4602 115.774Z" fill="#13706D"/>
<path d="M33.2104 117.317C38.5462 117.074 42.8002 115.304 42.712 113.363C42.6239 111.422 38.2269 110.044 32.8912 110.287C27.5555 110.529 23.3014 112.299 23.3896 114.24C23.4777 116.182 27.8747 117.559 33.2104 117.317Z" fill="#AFE0DD"/>
<path d="M32.0343 118.349C27.1639 118.349 22.5321 117.027 22.4029 114.293C22.3631 113.309 22.8998 111.898 25.7326 110.715C27.6311 109.92 30.1557 109.423 32.8493 109.304C38.1372 109.065 43.5741 110.367 43.7033 113.329C43.7431 114.313 43.2063 115.725 40.3736 116.908C38.4751 117.703 35.9505 118.2 33.2569 118.319C32.8493 118.339 32.4418 118.349 32.0343 118.349ZM34.1017 111.262C33.724 111.262 33.3364 111.262 32.9388 111.292C30.4738 111.401 28.1877 111.848 26.498 112.554C25.0269 113.17 24.3808 113.836 24.3908 114.204C24.4305 115.099 27.7901 116.58 33.1674 116.341C35.6324 116.232 37.9284 115.784 39.6082 115.079C41.0793 114.462 41.7253 113.797 41.7154 113.429C41.6756 112.604 38.7932 111.272 34.1017 111.272V111.262Z" fill="#13706D"/>
<path d="M33.0261 113.042C35.6858 112.921 37.8061 112.036 37.762 111.066C37.7179 110.095 35.5261 109.406 32.8665 109.527C30.2069 109.648 28.0865 110.532 28.1306 111.503C28.1747 112.474 30.3665 113.163 33.0261 113.042Z" fill="white"/>
<path d="M32.402 114.045C29.7382 114.045 27.2036 113.3 27.1241 111.55C27.0346 109.652 29.9171 108.668 32.8095 108.538C34.2011 108.479 35.5528 108.618 36.5865 108.946C38.4154 109.522 38.7235 110.497 38.7534 111.023C38.7732 111.55 38.5546 112.554 36.7853 113.29C35.7914 113.707 34.4694 113.975 33.0679 114.035C32.8493 114.035 32.6306 114.055 32.4119 114.055L32.402 114.045ZM29.2313 111.451C29.6786 111.729 30.9707 112.137 32.9785 112.047C34.9763 111.958 36.2287 111.431 36.6561 111.113C36.2088 110.835 34.9068 110.427 32.9089 110.516C30.9111 110.606 29.6587 111.133 29.2313 111.451Z" fill="#13706D"/>
<path d="M37.3021 127.573C34.8371 127.573 32.4516 127.165 30.3543 126.33C20.8819 122.553 22.3928 114.144 22.4126 114.055C22.522 113.518 23.0289 113.17 23.5756 113.27C24.1123 113.369 24.4701 113.896 24.3608 114.433C24.3011 114.741 23.1979 121.341 31.0899 124.481C36.0696 126.469 43.226 125.664 48.4841 122.533C52.1021 120.386 56.6047 116.152 57.5489 108.181C58.2745 102.058 57.1712 97.7938 55.6704 94.9213C53.3942 95.786 50.9391 95.945 48.4741 95.3387C45.1543 94.5237 42.5502 92.3966 42.2718 90.2894C42.1128 89.0967 42.7092 88.0332 43.892 87.3772C46.3272 86.0353 49.6669 86.4329 52.609 88.4109C54.1397 89.4346 55.4318 90.7765 56.4953 92.3668C57.9465 91.5418 59.4374 90.2596 60.819 88.3015C61.1371 87.8543 61.7534 87.7449 62.2006 88.063C62.6479 88.381 62.7573 88.9973 62.4392 89.4446C61.0278 91.4524 59.338 93.0029 57.4794 94.0665C59.4275 97.9131 60.173 102.893 59.517 108.419C58.4733 117.186 53.4936 121.867 49.488 124.243C45.8203 126.42 41.4369 127.563 37.2822 127.563L37.3021 127.573ZM47.1124 88.5798C46.2874 88.5798 45.5221 88.7587 44.8561 89.1265C44.1703 89.5042 44.22 89.8819 44.2399 90.041C44.389 91.1542 46.3172 92.7743 48.9512 93.4204C50.1042 93.7086 52.2213 93.9969 54.6168 93.2017C53.4141 91.5021 52.1716 90.518 51.4957 90.0608C50.0346 89.0768 48.494 88.5699 47.1025 88.5699L47.1124 88.5798Z" fill="#13706D"/>
<path d="M177.48 76.1355L178.772 84.5145C179.03 86.2043 180.322 87.556 181.992 87.894L187.747 89.0569C188.582 89.2259 188.582 90.4186 187.747 90.5876L181.992 91.7505C180.313 92.0885 179.03 93.4403 178.772 95.13L177.48 103.509C177.341 104.394 176.068 104.394 175.939 103.509L174.647 95.13C174.389 93.4403 173.096 92.0885 171.427 91.7505L165.672 90.5876C164.837 90.4186 164.837 89.2259 165.672 89.0569L171.427 87.894C173.106 87.556 174.389 86.2043 174.647 84.5145L175.939 76.1355C176.078 75.2509 177.351 75.2509 177.48 76.1355Z" fill="white"/>
<path d="M58.6625 46.5952L59.1992 50.0641C59.4875 51.9029 60.8889 53.374 62.7178 53.7517L64.6958 54.1493C66.137 54.4375 66.137 56.505 64.6958 56.7932L62.7178 57.1908C60.8889 57.5585 59.4875 59.0296 59.1992 60.8783L58.6625 64.3473C58.4239 65.8779 56.2273 65.8779 55.9887 64.3473L55.452 60.8783C55.1638 59.0395 53.7623 57.5685 51.9334 57.1908L49.9554 56.7932C48.5142 56.505 48.5142 54.4375 49.9554 54.1493L51.9334 53.7517C53.7623 53.3839 55.1638 51.9129 55.452 50.0641L55.9887 46.5952C56.2273 45.0645 58.4239 45.0645 58.6625 46.5952Z" fill="white"/>
<path d="M147.472 30.8609L147.9 33.6539C148.128 35.1349 149.261 36.3277 150.733 36.6258L152.333 36.9538C153.496 37.1924 153.496 38.8523 152.333 39.0908L150.733 39.4189C149.261 39.717 148.128 40.8998 147.9 42.3908L147.472 45.1838C147.283 46.4163 145.514 46.4163 145.325 45.1838L144.898 42.3908C144.669 40.9098 143.536 39.717 142.065 39.4189L140.465 39.0908C139.302 38.8523 139.302 37.1924 140.465 36.9538L142.065 36.6258C143.536 36.3277 144.669 35.1448 144.898 33.6539L145.325 30.8609C145.514 29.6284 147.283 29.6284 147.472 30.8609Z" fill="white"/>
<path d="M119.979 69.6251H102.824C99.2554 69.6251 96.353 72.5275 96.353 76.0958V93.2514C96.353 96.8197 99.2554 99.7221 102.824 99.7221H119.979C123.548 99.7221 126.45 96.8197 126.45 93.2514V76.0958C126.45 72.5275 123.548 69.6251 119.979 69.6251ZM98.2316 76.0958C98.2316 73.5612 100.289 71.5037 102.824 71.5037H105.358C105.776 71.5037 106.143 71.7919 106.233 72.2094C106.67 74.2172 106.084 76.3641 104.583 77.8551C103.092 79.346 100.945 79.9424 98.9373 79.505C98.5298 79.4156 98.2316 79.0577 98.2316 78.6303V76.0958ZM113.986 97.8435H102.824C100.289 97.8435 98.2316 95.786 98.2316 93.2514V82.0893C98.2316 81.6818 98.5994 81.3637 98.997 81.4234C99.3945 81.483 99.8219 81.5228 100.239 81.5228C101.094 81.5228 101.949 81.3836 102.764 81.1152C103.072 81.0158 103.36 81.314 103.241 81.6122C102.078 84.7133 102.744 88.3313 105.229 90.8262C107.714 93.321 111.342 93.977 114.443 92.8141C114.751 92.7047 115.039 92.993 114.94 93.3011C114.542 94.5038 114.433 95.7959 114.632 97.0682C114.691 97.4757 114.383 97.8435 113.966 97.8435H113.986ZM124.571 93.2514C124.571 95.786 122.514 97.8435 119.979 97.8435H117.445C117.027 97.8435 116.66 97.5552 116.57 97.1378C116.133 95.13 116.719 92.9831 118.22 91.4921C119.711 90.0012 121.858 89.4048 123.866 89.8422C124.273 89.9316 124.571 90.2894 124.571 90.7168V93.2514ZM124.571 87.2579C124.571 87.6753 124.204 87.9835 123.796 87.9238C122.534 87.725 121.242 87.8344 120.029 88.232C119.721 88.3313 119.433 88.0431 119.542 87.735C120.705 84.6338 120.039 81.0158 117.554 78.521C115.069 76.0262 111.441 75.3702 108.34 76.5331C108.032 76.6424 107.744 76.3542 107.843 76.0461C108.241 74.8434 108.35 73.5512 108.151 72.279C108.092 71.8715 108.4 71.5037 108.817 71.5037H119.979C122.514 71.5037 124.571 73.5612 124.571 76.0958V87.2579Z" fill="#13706D"/>
</svg>
