<svg width="220" height="179" viewBox="0 0 220 179" fill="none" xmlns="http://www.w3.org/2000/svg">
<g id="tools-transports">
<path id="Vector" d="M107.654 11.9273H112.346C169.747 11.9273 216.353 58.5334 216.353 115.934V140.524C216.353 155.135 204.495 166.993 189.884 166.993H30.1159C15.5047 166.993 3.64686 155.135 3.64686 140.524V115.934C3.64686 58.5334 50.2534 11.9273 107.654 11.9273Z" fill="#E0F4F3"/>
<path id="Vector_2" d="M23.1284 81.9607C33.2766 74.2476 50.2037 73.5022 50.2037 73.5022C50.2037 73.5022 53.5831 73.5817 64.3874 71.8622C75.1917 70.1427 72.2695 66.3756 96.7705 57.7581C121.271 49.1406 120.695 44.4492 120.695 44.4492C120.695 44.4492 109.662 48.5939 100.09 50.6613C90.5185 52.7288 90.926 55.5913 83.9385 57.9569C76.951 60.3225 75.48 60.0044 64.3278 61.3363C60.6104 61.7836 57.9665 62.5688 56.1078 63.4236C48.8718 66.7235 41.0891 68.9698 33.1375 69.5065C24.4205 70.093 18.4667 69.5861 14.7792 68.9698C11.3798 75.669 8.68621 82.7856 6.7977 90.2303C12.006 88.3915 18.2679 85.6681 23.1383 81.9706L23.1284 81.9607Z" fill="white"/>
<g id="Group">
<path id="Vector_3" d="M174.925 80.5592H130.615C127.782 80.5592 125.486 82.8554 125.486 85.688C125.486 88.5205 127.782 90.8167 130.615 90.8167H174.925C177.758 90.8167 180.054 88.5205 180.054 85.688C180.054 82.8554 177.758 80.5592 174.925 80.5592Z" fill="#AFE0DD"/>
<path id="Vector_4" d="M174.925 91.8007H130.605C127.225 91.8007 124.482 89.0574 124.482 85.678C124.482 82.2986 127.225 79.5553 130.605 79.5553H174.925C178.305 79.5553 181.048 82.2986 181.048 85.678C181.048 89.0574 178.305 91.8007 174.925 91.8007ZM130.615 81.5432C128.338 81.5432 126.48 83.4019 126.48 85.678C126.48 87.9541 128.338 89.8128 130.615 89.8128H174.935C177.211 89.8128 179.07 87.9541 179.07 85.678C179.07 83.4019 177.211 81.5432 174.935 81.5432H130.615Z" fill="#13706D"/>
</g>
<g id="Group_2">
<path id="Vector_5" d="M152.253 62.6881H130.615C127.782 62.6881 125.486 64.9843 125.486 67.8168C125.486 70.6494 127.782 72.9456 130.615 72.9456H152.253C155.086 72.9456 157.382 70.6494 157.382 67.8168C157.382 64.9843 155.086 62.6881 152.253 62.6881Z" fill="#AFE0DD"/>
<path id="Vector_6" d="M152.253 73.9395H130.615C127.235 73.9395 124.492 71.1962 124.492 67.8168C124.492 64.4374 127.235 61.6941 130.615 61.6941H152.253C155.632 61.6941 158.376 64.4374 158.376 67.8168C158.376 71.1962 155.632 73.9395 152.253 73.9395ZM130.615 63.682C128.338 63.682 126.48 65.5407 126.48 67.8168C126.48 70.093 128.338 71.9516 130.615 71.9516H152.253C154.529 71.9516 156.388 70.093 156.388 67.8168C156.388 65.5407 154.529 63.682 152.253 63.682H130.615Z" fill="#13706D"/>
</g>
<g id="Group_3">
<path id="Vector_7" d="M191.624 98.4204H130.615C127.782 98.4204 125.486 100.717 125.486 103.549C125.486 106.382 127.782 108.678 130.615 108.678H191.624C194.456 108.678 196.752 106.382 196.752 103.549C196.752 100.717 194.456 98.4204 191.624 98.4204Z" fill="#AFE0DD"/>
<path id="Vector_8" d="M191.624 109.662H130.615C127.235 109.662 124.492 106.919 124.492 103.539C124.492 100.16 127.235 97.4165 130.615 97.4165H191.624C195.003 97.4165 197.746 100.16 197.746 103.539C197.746 106.919 195.003 109.662 191.624 109.662ZM130.615 99.4143C128.338 99.4143 126.48 101.273 126.48 103.549C126.48 105.825 128.338 107.684 130.615 107.684H191.624C193.9 107.684 195.758 105.825 195.758 103.549C195.758 101.273 193.9 99.4143 191.624 99.4143H130.615Z" fill="#13706D"/>
</g>
<g id="Group_4">
<path id="Vector_9" d="M40.1946 125.317C41.2382 128.805 43.912 129.253 47.7586 133.169C50.323 134.004 52.0624 136.389 52.0624 139.083V145.533C52.0624 148.972 49.2793 151.755 45.8402 151.755H12.6322" fill="#D8E9E8"/>
<path id="Vector_10" d="M45.8402 152.749H12.6322C12.0855 152.749 11.6383 152.302 11.6383 151.755C11.6383 151.209 12.0855 150.761 12.6322 150.761H45.8402C48.7227 150.761 51.0684 148.416 51.0684 145.533V139.083C51.0684 136.807 49.6173 134.809 47.4504 134.113C47.3013 134.063 47.1622 133.984 47.0529 133.864C45.6613 132.453 44.4388 131.509 43.3553 130.684C41.4768 129.243 39.9858 128.1 39.2404 125.605C39.0813 125.078 39.3795 124.521 39.9063 124.372C40.4331 124.213 40.9897 124.511 41.1488 125.038C41.7054 126.917 42.7888 127.742 44.568 129.113C45.6017 129.909 46.8839 130.893 48.3052 132.304C51.1579 133.338 53.0663 136.031 53.0663 139.083V145.533C53.0663 149.509 49.826 152.749 45.8502 152.749H45.8402Z" fill="#13706D"/>
</g>
<g id="Group_5">
<path id="Vector_11" d="M4.58118 103.132H27.7006C31.905 103.132 35.5627 106.183 36.5368 110.507L40.2244 126.778L32.6604 125.336C27.8298 124.412 22.9296 123.915 18.0095 123.826C13.7256 123.756 9.43168 124.005 5.18749 124.581L2.73243 124.909" fill="#AFE0DD"/>
<path id="Vector_12" d="M40.2144 127.772C40.1548 127.772 40.0952 127.772 40.0256 127.752L32.4616 126.31C27.7006 125.406 22.8302 124.899 17.9797 124.82C13.7554 124.75 9.49132 124.998 5.30677 125.565L2.8517 125.893C2.30503 125.963 1.80805 125.585 1.73847 125.038C1.6689 124.492 2.0466 123.995 2.59327 123.925L5.04834 123.597C9.33228 123.021 13.7057 122.772 18.0194 122.832C22.9793 122.911 27.9689 123.428 32.8393 124.352L38.9124 125.515L35.5627 110.725C34.6881 106.839 31.4478 104.126 27.6906 104.126H4.58118C4.03451 104.126 3.58723 103.678 3.58723 103.132C3.58723 102.585 4.03451 102.138 4.58118 102.138H27.7006C32.392 102.138 36.4175 105.487 37.5109 110.288L41.1985 126.559C41.268 126.887 41.1786 127.225 40.94 127.473C40.7512 127.672 40.4928 127.781 40.2244 127.781L40.2144 127.772Z" fill="#13706D"/>
</g>
<g id="Group_6">
<path id="Vector_13" d="M28.3168 151.755H39.4789V161.695C39.4789 163.842 37.7296 165.591 35.5826 165.591H32.2231C30.0761 165.591 28.3268 163.842 28.3268 161.695V151.755H28.3168Z" fill="#AFE0DD"/>
<path id="Vector_14" d="M35.5826 166.585H32.2231C29.5294 166.585 27.3328 164.388 27.3328 161.695V151.755C27.3328 151.209 27.7801 150.761 28.3268 150.761H39.4889C40.0355 150.761 40.4828 151.209 40.4828 151.755V161.695C40.4828 164.388 38.2862 166.585 35.5926 166.585H35.5826ZM29.3108 152.749V161.695C29.3108 163.295 30.6129 164.597 32.2131 164.597H35.5727C37.173 164.597 38.475 163.295 38.475 161.695V152.749H29.3008H29.3108Z" fill="#13706D"/>
</g>
<g id="Group_7">
<path id="Vector_15" d="M47.7884 143.208H39.8069C36.5468 143.208 33.8929 140.564 33.8929 137.294C33.8929 135.753 35.1453 134.501 36.6859 134.501H47.9971C50.2435 134.501 52.0624 136.319 52.0624 138.566V143.198" fill="white"/>
<path id="Vector_16" d="M52.0624 144.201C51.5157 144.201 51.0684 143.754 51.0684 143.208V138.576C51.0684 136.886 49.6868 135.504 47.9971 135.504H36.6859C35.692 135.504 34.8869 136.31 34.8869 137.303C34.8869 140.017 37.0934 142.224 39.8069 142.224H47.7884C48.3351 142.224 48.7823 142.671 48.7823 143.217C48.7823 143.764 48.3351 144.211 47.7884 144.211H39.8069C36.0001 144.211 32.8989 141.11 32.8989 137.303C32.8989 135.216 34.5986 133.517 36.6859 133.517H47.9971C50.7901 133.517 53.0563 135.783 53.0563 138.576V143.208C53.0563 143.754 52.6091 144.201 52.0624 144.201Z" fill="#13706D"/>
</g>
<path id="Vector_17" d="M31.08 124.71C30.5333 124.71 30.0861 124.263 30.0861 123.716C30.0861 120.118 27.1539 117.186 23.5558 117.186C21.2299 117.186 19.0631 118.438 17.9002 120.446C17.6219 120.923 17.0156 121.082 16.5385 120.804C16.0614 120.526 15.9023 119.919 16.1806 119.442C17.7014 116.818 20.5242 115.188 23.5558 115.188C28.2572 115.188 32.074 119.015 32.074 123.706C32.074 124.253 31.6267 124.7 31.08 124.7V124.71Z" fill="#13706D"/>
<g id="Group_8">
<path id="Vector_18" d="M4.58118 145.325H20.6832V140.236H4.58118" fill="#AFE0DD"/>
<path id="Vector_19" d="M20.6832 146.319H4.58118C4.03451 146.319 3.58723 145.871 3.58723 145.325C3.58723 144.778 4.03451 144.331 4.58118 144.331H19.6992V141.23H4.58118C4.03451 141.23 3.58723 140.782 3.58723 140.236C3.58723 139.689 4.03451 139.242 4.58118 139.242H20.6932C21.2399 139.242 21.6871 139.689 21.6871 140.236V145.325C21.6871 145.871 21.2399 146.319 20.6932 146.319H20.6832Z" fill="#13706D"/>
</g>
<g id="Group_9">
<path id="Vector_20" d="M42.1626 123.488C42.1626 123.488 43.2361 121.311 45.2936 121.162C47.351 121.013 49.2694 121.112 49.8956 122.474C50.5218 123.836 50.4522 126.698 48.017 126.768C45.5818 126.837 44.2598 126.39 44.2598 126.39" fill="#D8E9E8"/>
<path id="Vector_21" d="M47.5101 127.772C45.2637 127.772 44.0014 127.354 43.9418 127.334C43.4249 127.155 43.1466 126.599 43.3156 126.072C43.4945 125.555 44.0511 125.267 44.5779 125.446C44.5779 125.446 45.7905 125.833 47.9872 125.774C48.5935 125.754 48.832 125.485 48.9612 125.277C49.3489 124.651 49.2893 123.537 48.9911 122.891C48.6829 122.235 47.53 121.997 45.3631 122.156C43.912 122.255 43.0572 123.915 43.0472 123.935C42.7987 124.422 42.2024 124.621 41.7153 124.382C41.2283 124.134 41.0196 123.547 41.268 123.06C41.3177 122.951 42.6198 120.367 45.224 120.188C46.695 120.088 49.7763 119.87 50.8001 122.066C51.3269 123.209 51.4561 125.038 50.6609 126.33C50.1043 127.225 49.1799 127.742 48.0568 127.772C47.8679 127.772 47.689 127.772 47.52 127.772H47.5101Z" fill="#13706D"/>
</g>
<path id="Vector_22" d="M36.2386 166.585C35.692 166.585 35.2447 166.138 35.2447 165.591V157.709C35.2447 157.163 35.692 156.715 36.2386 156.715C36.7853 156.715 37.2326 157.163 37.2326 157.709V165.591C37.2326 166.138 36.7853 166.585 36.2386 166.585Z" fill="#13706D"/>
<path id="Vector_23" d="M32.2131 159.667C31.6664 159.667 31.2192 159.22 31.2192 158.673V151.755C31.2192 151.209 31.6664 150.761 32.2131 150.761C32.7598 150.761 33.2071 151.209 33.2071 151.755V158.673C33.2071 159.22 32.7598 159.667 32.2131 159.667Z" fill="#13706D"/>
<path id="Vector_24" d="M32.2131 166.585C31.6664 166.585 31.2192 166.138 31.2192 165.591V161.645C31.2192 161.099 31.6664 160.651 32.2131 160.651C32.7598 160.651 33.2071 161.099 33.2071 161.645V165.591C33.2071 166.138 32.7598 166.585 32.2131 166.585Z" fill="#13706D"/>
<path id="Vector_25" d="M128.398 40.3243C128.329 40.3243 128.269 40.3243 128.199 40.3044L126.639 39.9864C126.102 39.8771 125.754 39.3503 125.864 38.8135C125.973 38.2768 126.49 37.9289 127.036 38.0383L128.597 38.3563C129.134 38.4657 129.482 38.9924 129.372 39.5292C129.273 39.9963 128.865 40.3243 128.398 40.3243Z" fill="#13706D"/>
<path id="Vector_26" d="M128.02 41.6165C127.931 41.6165 127.832 41.6065 127.742 41.5767C127.215 41.4177 126.917 40.871 127.066 40.3442L127.444 39.0521C127.513 38.8235 127.653 38.6346 127.841 38.5054L135.386 33.4562C135.843 33.148 136.459 33.2773 136.767 33.7345C137.075 34.1917 136.946 34.8079 136.489 35.1161L129.243 39.9665L128.965 40.9108C128.835 41.3481 128.438 41.6264 128.01 41.6264L128.02 41.6165Z" fill="#13706D"/>
<path id="Vector_27" d="M133.547 42.0836C133 42.0836 132.553 41.6363 132.553 41.0897V36.5871L127.056 34.6588C126.539 34.4799 126.261 33.9134 126.45 33.3965C126.629 32.8797 127.195 32.6014 127.712 32.7902L133.895 34.9471C134.292 35.0862 134.561 35.4639 134.561 35.8913V41.1095C134.541 41.6562 134.103 42.1035 133.557 42.1035L133.547 42.0836Z" fill="#13706D"/>
<path id="Vector_28" d="M86.7812 129.571C85.3996 129.571 84.6641 128.974 84.2963 128.477C83.3421 127.185 83.859 125.356 83.9186 125.157C84.0777 124.631 84.6343 124.333 85.1611 124.492C85.4891 124.591 85.7376 124.849 85.827 125.157C85.8767 124.989 85.9761 124.829 86.1153 124.7C86.5228 124.333 87.149 124.362 87.5167 124.76C88.133 125.426 89.4947 127.135 88.8983 128.467C88.6797 128.964 88.133 129.561 86.7812 129.561V129.571ZM85.827 125.734C85.7276 126.082 85.6084 126.917 85.8966 127.304C86.0358 127.493 86.3339 127.593 86.7812 127.593C86.8806 127.593 86.9502 127.593 87.0198 127.583C86.8906 127.225 86.483 126.599 86.0556 126.122C85.9463 126.002 85.8767 125.873 85.837 125.734H85.827Z" fill="#13706D"/>
<path id="Vector_29" d="M84.8828 126.44C84.8331 126.44 84.7734 126.44 84.7237 126.43C84.187 126.34 83.8093 125.833 83.8988 125.287C84.028 124.492 85.171 117.474 86.0159 115.626C86.1948 115.238 86.4532 114.552 86.7514 113.757C88.1529 110.02 89.445 106.859 91.1049 106.024C93.0431 105.06 94.9515 104.374 95.031 104.344C95.5479 104.155 96.1145 104.434 96.3033 104.951C96.4922 105.467 96.2238 106.034 95.697 106.223C95.6771 106.223 93.8184 106.899 91.9895 107.813C90.8863 108.36 89.3456 112.485 88.6101 114.463C88.302 115.288 88.0336 116.003 87.8249 116.47C87.2683 117.673 86.3439 122.593 85.8568 125.605C85.7773 126.092 85.3599 126.44 84.8728 126.44H84.8828Z" fill="#13706D"/>
<path id="Vector_30" d="M98.649 109.92C98.0427 109.92 97.4265 109.761 96.85 109.433C94.4446 108.101 94.6633 103.589 94.703 103.082C94.7428 102.535 95.2 102.108 95.7566 102.158C96.3033 102.197 96.7208 102.665 96.681 103.211C96.5816 104.762 96.8699 107.177 97.8141 107.694C98.3111 107.962 98.7882 108.002 99.2454 107.793C99.7921 107.545 100.1 107.068 100.14 106.909C100.259 106.372 100.796 106.044 101.333 106.163C101.869 106.282 102.197 106.819 102.078 107.356C101.869 108.241 101.044 109.165 100.051 109.612C99.5933 109.811 99.1162 109.92 98.6391 109.92H98.649Z" fill="#13706D"/>
<g id="Group_10">
<path id="Vector_31" d="M95.3193 100.816L94.6335 102.585C94.6335 102.585 95.0807 104.006 98.6391 104.006C99.5138 104.006 100.2 103.917 100.736 103.788C101.879 103.509 102.506 102.277 102.068 101.184L101.969 100.935C101.631 100.08 100.955 99.4044 100.09 99.0764C99.2255 98.7484 98.1719 98.5695 97.0587 98.9969C96.2437 99.305 95.6374 99.9908 95.3193 100.806V100.816Z" fill="#AFE0DD"/>
<path id="Vector_32" d="M98.6292 105C94.5539 105 93.7886 103.231 93.6793 102.883C93.6097 102.665 93.6196 102.436 93.6991 102.227L94.385 100.458C94.8223 99.3348 95.6672 98.4701 96.6909 98.0824C97.834 97.655 99.1261 97.6749 100.428 98.162C101.541 98.5794 102.436 99.464 102.883 100.577L102.983 100.826C103.301 101.621 103.251 102.505 102.863 103.261C102.476 104.006 101.78 104.553 100.965 104.752C100.299 104.911 99.5138 105 98.6292 105ZM95.7566 102.426C96.0747 102.645 96.8599 103.012 98.6292 103.012C99.3448 103.012 99.9809 102.953 100.498 102.824C100.766 102.764 100.975 102.595 101.104 102.346C101.233 102.098 101.243 101.81 101.144 101.551L101.044 101.303C100.806 100.706 100.339 100.239 99.7424 100.011C98.8876 99.6926 98.1024 99.6628 97.4066 99.9312C96.8997 100.12 96.4822 100.577 96.2437 101.164L95.7566 102.416V102.426Z" fill="#13706D"/>
</g>
<path id="Vector_33" d="M109.662 132.095C108.976 132.095 108.3 131.867 107.724 131.419C106.929 130.803 106.491 129.909 106.63 129.143C106.78 128.328 107.734 127.225 108.4 126.549C108.141 125.028 107.396 120.585 107.277 119.939C107.207 119.581 106.551 118.309 105.974 117.345C105.696 116.878 105.845 116.262 106.312 115.983C106.78 115.705 107.396 115.854 107.674 116.321C108.002 116.858 109.066 118.687 109.225 119.581C109.364 120.367 110.437 126.728 110.437 126.728C110.487 127.056 110.378 127.384 110.149 127.613C109.463 128.269 108.767 129.103 108.608 129.451C108.668 129.581 108.847 129.819 109.145 129.978C109.473 130.147 109.821 130.147 110.189 129.978C110.765 129.71 110.895 127.772 110.626 126.201C110.596 125.973 110.109 121.788 110.109 119.542C110.109 117.633 107.704 111.312 106.432 109.483C105.517 108.161 102.804 106.869 101.83 106.481C101.512 106.352 101.283 106.074 101.223 105.746L100.925 104.175C100.826 103.639 101.174 103.112 101.71 103.012C102.247 102.903 102.774 103.261 102.873 103.798L103.072 104.841C104.225 105.348 106.899 106.67 108.062 108.34C109.424 110.308 112.087 117.057 112.087 119.532C112.087 121.659 112.574 125.863 112.584 125.903C112.713 126.648 113.31 130.724 111.014 131.767C110.576 131.966 110.109 132.065 109.662 132.065V132.095Z" fill="#13706D"/>
<path id="Vector_34" d="M98.4006 130.415C98.331 130.415 98.2614 130.415 98.1918 130.396L88.1728 128.239C87.636 128.119 87.2981 127.593 87.4074 127.056C87.5167 126.519 88.0435 126.181 88.5902 126.291L98.4999 128.428L107.595 128.328C108.141 128.358 108.589 128.766 108.599 129.312C108.599 129.859 108.161 130.306 107.615 130.316L98.4105 130.415H98.4006Z" fill="#13706D"/>
<path id="Vector_35" d="M100.12 138.208C99.8219 138.208 99.5237 138.079 99.3349 137.82L97.178 135.027C97.0289 134.829 96.9494 134.58 96.9792 134.332L97.4165 129.342C97.4662 128.795 97.9632 128.388 98.49 128.437C99.0367 128.487 99.4442 128.964 99.3945 129.511L98.9969 134.113L100.915 136.598C101.253 137.035 101.174 137.661 100.736 137.989C100.557 138.128 100.339 138.198 100.13 138.198L100.12 138.208Z" fill="#13706D"/>
<g id="Group_11">
<path id="Vector_36" d="M98.15 139.116L97.3569 139.059C96.6725 139.009 96.0777 139.524 96.0284 140.209L94.2138 165.399C94.1645 166.084 94.6794 166.679 95.3638 166.728L96.1569 166.785C96.8413 166.834 97.4361 166.319 97.4854 165.635L99.3 140.444C99.3493 139.76 98.8344 139.165 98.15 139.116Z" fill="#AFE0DD"/>
<path id="Vector_37" d="M96.2437 167.778C96.194 167.778 96.1343 167.778 96.0846 167.778L95.2895 167.718C94.6931 167.678 94.1464 167.4 93.7588 166.953C93.3712 166.506 93.1823 165.929 93.2221 165.333L95.041 140.136C95.0807 139.54 95.3591 139.003 95.8063 138.606C96.2536 138.218 96.84 138.029 97.4265 138.069L98.2216 138.128C98.818 138.168 99.3548 138.447 99.7523 138.894C100.14 139.341 100.339 139.918 100.289 140.514L98.4701 165.71C98.4304 166.307 98.1521 166.844 97.7048 167.241C97.2973 167.599 96.7804 167.788 96.2437 167.788V167.778ZM96.2238 165.79C96.3033 165.79 96.3629 165.76 96.4027 165.73C96.4425 165.7 96.4822 165.651 96.4822 165.561L98.3012 140.365C98.3012 140.285 98.2713 140.226 98.2415 140.186C98.2117 140.156 98.162 140.106 98.0726 140.106L97.2774 140.047C97.1879 140.047 97.1382 140.077 97.0985 140.106C97.0587 140.136 97.019 140.186 97.019 140.275L95.2 165.472C95.2 165.551 95.2298 165.611 95.2597 165.651C95.2895 165.691 95.3392 165.73 95.4286 165.73L96.2238 165.79Z" fill="#13706D"/>
</g>
<path id="Vector_38" d="M89.9818 159.767C89.0375 159.767 87.6957 159.25 86.9999 157.282C86.2147 155.045 87.6758 153.197 88.3914 152.461V143.277C88.3914 139.58 89.5842 136.28 90.0016 135.246L88.9779 131.35C88.8387 130.823 89.1568 130.276 89.6836 130.137C90.2203 129.998 90.757 130.316 90.8962 130.843L92.0094 135.067C92.0691 135.286 92.0492 135.514 91.9597 135.723C91.9398 135.763 90.3793 139.331 90.3793 143.277V152.889C90.3793 153.187 90.2501 153.465 90.0215 153.654C90.0116 153.664 88.3417 155.095 88.8785 156.626C89.2959 157.819 89.9022 157.799 90.0911 157.769C90.6179 157.669 91.1546 157.987 91.2739 158.504C91.4031 159.021 91.1049 159.548 90.598 159.687C90.429 159.737 90.2203 159.767 89.9917 159.767H89.9818Z" fill="#13706D"/>
<path id="Vector_39" d="M102.883 153.286C102.724 153.286 102.575 153.246 102.426 153.177C101.939 152.928 101.75 152.322 101.999 151.835C103.112 149.678 102.963 147.124 102.963 147.104C102.963 146.905 102.844 142.929 103.539 140.265C104.165 137.88 104.036 133.586 104.036 133.546C104.016 133 104.454 132.543 105 132.523C105.507 132.503 106.004 132.94 106.024 133.487C106.024 133.676 106.153 138.109 105.458 140.772C104.831 143.158 104.941 146.975 104.941 147.014C104.941 147.104 105.13 150.096 103.748 152.759C103.569 153.097 103.221 153.296 102.863 153.296L102.883 153.286Z" fill="#13706D"/>
<path id="Vector_40" d="M92.1784 126.44C92.0392 126.44 91.91 126.41 91.7709 126.35C91.2739 126.122 91.0453 125.535 91.2739 125.038L92.9239 121.351L92.2182 115.486C92.1486 114.94 92.5462 114.443 93.0829 114.383C93.6495 114.314 94.1265 114.711 94.1862 115.248L94.9217 121.381C94.9416 121.559 94.9217 121.738 94.8422 121.907L93.073 125.853C92.904 126.221 92.5462 126.44 92.1685 126.44H92.1784Z" fill="#13706D"/>
<path id="Vector_41" d="M67.8166 166.684C67.2699 166.684 66.8226 166.237 66.8226 165.691V95.4286C66.8226 94.8819 67.2699 94.4347 67.8166 94.4347C68.3632 94.4347 68.8105 94.8819 68.8105 95.4286V165.691C68.8105 166.237 68.3632 166.684 67.8166 166.684Z" fill="#13706D"/>
<path id="Vector_42" d="M71.2358 128.418C70.6891 128.418 70.2418 127.97 70.2418 127.424V95.4286C70.2418 94.8819 70.6891 94.4347 71.2358 94.4347C71.7825 94.4347 72.2297 94.8819 72.2297 95.4286V127.424C72.2297 127.97 71.7825 128.418 71.2358 128.418Z" fill="#13706D"/>
<g id="Group_12">
<path id="Vector_43" d="M72.4285 64.5468H67.0413C65.3066 64.5468 63.9004 65.953 63.9004 67.6876V92.2877C63.9004 94.0224 65.3066 95.4286 67.0413 95.4286H72.4285C74.1632 95.4286 75.5694 94.0224 75.5694 92.2877V67.6876C75.5694 65.953 74.1632 64.5468 72.4285 64.5468Z" fill="#D8E9E8"/>
<path id="Vector_44" d="M72.4186 96.4226H67.0313C64.7552 96.4226 62.8965 94.5639 62.8965 92.2877V67.6876C62.8965 65.4115 64.7552 63.5528 67.0313 63.5528H72.4186C74.6947 63.5528 76.5534 65.4115 76.5534 67.6876V92.2877C76.5534 94.5639 74.6947 96.4226 72.4186 96.4226ZM67.0413 65.5407C65.8585 65.5407 64.8944 66.5048 64.8944 67.6876V92.2877C64.8944 93.4705 65.8585 94.4347 67.0413 94.4347H72.4285C73.6113 94.4347 74.5755 93.4705 74.5755 92.2877V67.6876C74.5755 66.5048 73.6113 65.5407 72.4285 65.5407H67.0413Z" fill="#13706D"/>
</g>
<g id="Group_13">
<path id="Vector_45" d="M69.7349 74.3371C71.4641 74.3371 72.8659 72.9353 72.8659 71.2062C72.8659 69.477 71.4641 68.0753 69.7349 68.0753C68.0057 68.0753 66.6039 69.477 66.6039 71.2062C66.6039 72.9353 68.0057 74.3371 69.7349 74.3371Z" fill="white"/>
<path id="Vector_46" d="M69.7349 75.3211C67.4587 75.3211 65.61 73.4724 65.61 71.1962C65.61 68.9201 67.4587 67.0714 69.7349 67.0714C72.0111 67.0714 73.8598 68.9201 73.8598 71.1962C73.8598 73.4724 72.0111 75.3211 69.7349 75.3211ZM69.7349 69.0692C68.562 69.0692 67.5979 70.0234 67.5979 71.2062C67.5979 72.389 68.5521 73.3432 69.7349 73.3432C70.9177 73.3432 71.8719 72.389 71.8719 71.2062C71.8719 70.0234 70.9177 69.0692 69.7349 69.0692Z" fill="#13706D"/>
</g>
<g id="Group_14">
<path id="Vector_47" d="M69.7349 83.2031C71.4641 83.2031 72.8659 81.8013 72.8659 80.0722C72.8659 78.343 71.4641 76.9412 69.7349 76.9412C68.0057 76.9412 66.6039 78.343 66.6039 80.0722C66.6039 81.8013 68.0057 83.2031 69.7349 83.2031Z" fill="#D8E9E8"/>
<path id="Vector_48" d="M69.7349 84.197C67.4587 84.197 65.61 82.3483 65.61 80.0722C65.61 77.796 67.4587 75.9473 69.7349 75.9473C72.0111 75.9473 73.8598 77.796 73.8598 80.0722C73.8598 82.3483 72.0111 84.197 69.7349 84.197ZM69.7349 77.9352C68.562 77.9352 67.5979 78.8894 67.5979 80.0722C67.5979 81.255 68.5521 82.2091 69.7349 82.2091C70.9177 82.2091 71.8719 81.255 71.8719 80.0722C71.8719 78.8894 70.9177 77.9352 69.7349 77.9352Z" fill="#13706D"/>
</g>
<g id="Group_15">
<path id="Vector_49" d="M69.7349 92.079C71.4641 92.079 72.8659 90.6773 72.8659 88.9481C72.8659 87.2189 71.4641 85.8172 69.7349 85.8172C68.0057 85.8172 66.6039 87.2189 66.6039 88.9481C66.6039 90.6773 68.0057 92.079 69.7349 92.079Z" fill="#AFE0DD"/>
<path id="Vector_50" d="M69.7349 93.073C67.4587 93.073 65.61 91.2242 65.61 88.9481C65.61 86.672 67.4587 84.8232 69.7349 84.8232C72.0111 84.8232 73.8598 86.672 73.8598 88.9481C73.8598 91.2242 72.0111 93.073 69.7349 93.073ZM69.7349 86.8111C68.562 86.8111 67.5979 87.7653 67.5979 88.9481C67.5979 90.1309 68.5521 91.0851 69.7349 91.0851C70.9177 91.0851 71.8719 90.1309 71.8719 88.9481C71.8719 87.7653 70.9177 86.8111 69.7349 86.8111Z" fill="#13706D"/>
</g>
<path id="Vector_51" d="M71.2358 169.378C70.6891 169.378 70.2418 168.931 70.2418 168.384V136.389C70.2418 135.842 70.6891 135.395 71.2358 135.395C71.7825 135.395 72.2297 135.842 72.2297 136.389V168.384C72.2297 168.931 71.7825 169.378 71.2358 169.378Z" fill="#13706D"/>
</g>
</svg>
