<svg width="219" height="180" viewBox="0 0 219 180" fill="none" xmlns="http://www.w3.org/2000/svg">
<g id="tools-defi-chaussures">
<path id="Vector" d="M107.321 12.4866H112.013C169.414 12.4866 216.02 59.0931 216.02 116.494V141.084C216.02 155.696 204.162 167.553 189.551 167.553H29.783C15.1718 167.553 3.31396 155.696 3.31396 141.084V116.494C3.31396 59.0931 49.9205 12.4866 107.321 12.4866Z" fill="#E0F4F3"/>
<path id="Vector_2" d="M139.804 76.8153C144.799 76.8153 148.849 72.7657 148.849 67.7703C148.849 62.7749 144.799 58.7253 139.804 58.7253C134.808 58.7253 130.759 62.7749 130.759 67.7703C130.759 72.7657 134.808 76.8153 139.804 76.8153Z" fill="white"/>
<path id="Vector_3" d="M168.609 146.233C170.464 146.233 171.968 144.729 171.968 142.873C171.968 141.018 170.464 139.514 168.609 139.514C166.753 139.514 165.249 141.018 165.249 142.873C165.249 144.729 166.753 146.233 168.609 146.233Z" fill="white"/>
<g id="Group">
<g id="Group_2">
<g id="Group_3">
<path id="Vector_4" d="M67.4738 120.957C67.4738 120.957 68.9647 127.855 72.2249 130.519C75.4851 133.182 85.0668 139.136 79.2223 144.474C79.2223 144.474 68.9945 143.877 63.3191 140.22C57.6436 136.562 43.8574 120.957 43.8574 120.957L38.1919 116.156L47.386 112.667L67.4837 120.957H67.4738Z" fill="#E0F4F3"/>
<path id="Vector_5" d="M79.2221 145.478C79.2221 145.478 79.1824 145.478 79.1625 145.478C78.7351 145.448 68.6067 144.822 62.7722 141.065C57.1564 137.447 44.1853 122.845 43.1515 121.682L37.5456 116.921C37.2773 116.693 37.148 116.345 37.2077 115.997C37.2673 115.649 37.5059 115.361 37.8339 115.232L47.028 111.743C47.2665 111.653 47.5249 111.653 47.7635 111.753L67.8612 120.042C68.1594 120.172 68.388 120.43 68.4576 120.748C68.4676 120.818 69.9088 127.338 72.8608 129.743C73.2385 130.052 73.7156 130.409 74.2424 130.817C77.2939 133.133 81.8959 136.632 82.0748 140.578C82.1543 142.267 81.4188 143.818 79.908 145.209C79.7191 145.378 79.4806 145.468 79.242 145.468L79.2221 145.478ZM40.12 116.494L44.5033 120.211C44.5033 120.211 44.5729 120.271 44.6027 120.311C44.7419 120.47 58.369 135.856 63.8655 139.395C68.6166 142.456 76.8963 143.301 78.8643 143.46C79.7291 142.565 80.1366 141.651 80.0869 140.677C79.9477 137.655 75.624 134.365 73.0397 132.407C72.4931 131.99 72.006 131.622 71.6085 131.294C68.6166 128.859 67.0661 123.402 66.6387 121.682L47.3758 113.731L40.12 116.484V116.494Z" fill="#13706D"/>
</g>
<g id="Group_4">
<path id="Vector_6" d="M26.2642 102.529C30.1108 93.0367 39.0464 90.4524 39.0464 90.4524C39.0464 90.4524 40.2789 96.7342 46.511 100.193C52.7431 103.652 62.2652 101.257 62.2652 101.257C62.2652 101.257 67.3145 113.969 68.5072 119.734L62.3745 127.05C62.3745 127.05 59.3628 122.428 53.9458 118.74C48.5287 115.053 43.2508 116.544 43.2508 116.544" fill="#E0F4F3"/>
<path id="Vector_7" d="M62.3648 128.044C62.3648 128.044 62.325 128.044 62.3051 128.044C61.9871 128.024 61.7088 127.855 61.5299 127.596C61.5 127.557 58.548 123.094 53.3695 119.565C48.3997 116.176 43.5492 117.488 43.4995 117.498C42.9727 117.647 42.426 117.339 42.277 116.812C42.1279 116.285 42.436 115.739 42.9628 115.59C43.1914 115.52 48.7575 114.019 54.4927 117.925C58.4784 120.639 61.182 123.819 62.4244 125.44L67.424 119.476C66.2909 114.526 62.7127 105.183 61.6392 102.42C59.0847 102.927 51.481 104.089 46.0242 101.068C41.0047 98.2947 39.0367 93.8319 38.3707 91.7644C36.0548 92.7186 30.0712 95.78 27.1887 102.907C26.98 103.414 26.4035 103.662 25.8966 103.453C25.3897 103.245 25.1412 102.668 25.3499 102.161C29.3357 92.331 38.3906 89.6175 38.7782 89.5082C39.0466 89.4286 39.3348 89.4684 39.5734 89.6175C39.8119 89.7666 39.9809 90.0051 40.0306 90.2735C40.0406 90.3331 41.2731 96.1577 46.9982 99.3284C52.8129 102.549 61.9374 100.322 62.0268 100.302C62.5139 100.183 63.0108 100.442 63.1898 100.899C63.3985 101.426 68.2887 113.761 69.4815 119.545C69.5411 119.844 69.4616 120.152 69.2728 120.39L63.1401 127.706C62.9512 127.934 62.6729 128.064 62.3747 128.064L62.3648 128.044Z" fill="#13706D"/>
</g>
<g id="Group_5">
<path id="Vector_8" d="M25.33 103.185L21.2349 108.075C20.9864 108.373 21.0262 108.821 21.3244 109.069L34.8223 120.4C35.1205 120.649 35.5677 120.609 35.8162 120.311L37.1879 118.671C37.4364 118.373 37.8836 118.333 38.1818 118.581C40.2691 120.321 47.8331 126.781 51.1032 131.94C54.7113 137.616 69.9586 147.674 76.6876 147.923C77.3337 147.943 77.95 147.674 78.3674 147.177L79.6695 145.627C80.0273 145.199 79.7689 144.543 79.2123 144.484C75.9322 144.126 67.0165 142.168 56.4308 131.801C55.2878 130.688 54.264 129.455 53.3595 128.133C51.4909 125.4 47.1473 119.615 40.7562 114.407C33.7389 108.691 28.5802 104.258 26.8309 102.738C26.473 102.43 25.9264 102.469 25.6182 102.837L25.3201 103.185H25.33Z" fill="#C4EAE7"/>
<path id="Vector_9" d="M76.777 148.917C76.777 148.917 76.6975 148.917 76.6578 148.917C69.6106 148.658 53.9956 138.351 50.2683 132.477C47.187 127.626 40.1796 121.553 37.7643 119.536L36.5716 120.947C35.9653 121.663 34.8918 121.762 34.1761 121.156L20.6782 109.825C20.3304 109.536 20.1216 109.119 20.0819 108.672C20.0421 108.224 20.1813 107.777 20.4695 107.429L24.5745 102.539L24.8727 102.191C25.1908 101.813 25.6381 101.575 26.135 101.535C26.632 101.495 27.1091 101.654 27.4868 101.982C29.3555 103.602 34.4544 107.976 41.3922 113.631C47.7933 118.85 52.1568 124.605 54.1844 127.567C55.0591 128.839 56.0531 130.022 57.1265 131.085C67.4637 141.214 76.0912 143.142 79.3216 143.49C79.9378 143.559 80.4745 143.957 80.7032 144.543C80.9318 145.12 80.8324 145.786 80.4248 146.263L79.1228 147.814C78.5264 148.519 77.6716 148.917 76.7571 148.917H76.777ZM37.7345 117.428C38.1221 117.428 38.5098 117.558 38.8179 117.826C41.0543 119.685 48.6084 126.155 51.948 131.413C55.3871 136.83 70.2865 146.7 76.7373 146.939C77.0852 146.939 77.4032 146.81 77.6219 146.541L78.5761 145.408C74.7891 144.881 66.0125 142.556 55.7549 132.517C54.582 131.364 53.5086 130.081 52.5643 128.7C50.5963 125.817 46.362 120.241 40.1498 115.182C33.3213 109.626 28.272 105.282 26.304 103.593L22.189 108.503L35.2496 119.456L36.4424 118.045C36.7803 117.647 37.2574 117.438 37.7444 117.438L37.7345 117.428Z" fill="#13706D"/>
</g>
</g>
<g id="Group_6">
<path id="Vector_10" d="M58.9455 108.055C58.4982 108.055 58.0907 107.757 57.9814 107.3C57.8521 106.763 58.1702 106.226 58.7069 106.097L63.4978 104.904C64.0345 104.775 64.5713 105.093 64.7005 105.63C64.8297 106.167 64.5116 106.704 63.9749 106.833L59.184 108.025C59.1045 108.045 59.025 108.055 58.9455 108.055Z" fill="#13706D"/>
</g>
<g id="Group_7">
<path id="Vector_11" d="M60.9235 113.115C60.4762 113.115 60.0687 112.816 59.9594 112.359C59.8302 111.822 60.1482 111.286 60.685 111.157L65.4758 109.964C66.0126 109.835 66.5493 110.153 66.6785 110.689C66.8077 111.226 66.4897 111.763 65.9529 111.892L61.1621 113.085C61.0826 113.105 61.003 113.115 60.9235 113.115Z" fill="#13706D"/>
</g>
<g id="Group_8">
<path id="Vector_12" d="M62.6828 118.343C62.2355 118.343 61.828 118.045 61.7187 117.587C61.5895 117.051 61.9075 116.514 62.4443 116.385L67.2351 115.192C67.7719 115.063 68.3086 115.381 68.4378 115.918C68.567 116.454 68.249 116.991 67.7122 117.12L62.9214 118.313C62.8418 118.333 62.7623 118.343 62.6828 118.343Z" fill="#13706D"/>
</g>
</g>
<g id="Group_9">
<g id="Group_10">
<path id="Vector_13" d="M174.135 83.2561C174.135 83.2561 165.547 86.4268 163.182 91.9333C160.816 97.4398 153.491 98.7817 153.491 98.7817L152.497 105.352L176.232 94.1697L174.135 83.2561Z" fill="#AFE0DD"/>
<path id="Vector_14" d="M152.487 106.346C152.278 106.346 152.069 106.276 151.89 106.147C151.592 105.928 151.443 105.56 151.503 105.203L152.497 98.6325C152.556 98.215 152.884 97.8771 153.302 97.8075C153.371 97.7975 160.14 96.4855 162.257 91.5456C164.762 85.7011 173.409 82.4608 173.777 82.3217C174.046 82.2223 174.354 82.2422 174.612 82.3913C174.871 82.5403 175.049 82.7789 175.099 83.0671L177.196 93.9808C177.286 94.428 177.057 94.8753 176.64 95.0642L152.904 106.246C152.765 106.306 152.626 106.346 152.477 106.346H152.487ZM154.365 99.6065L153.749 103.662L175.099 93.6031L173.38 84.6475C171.074 85.6812 165.776 88.4047 164.086 92.3308C161.959 97.2807 156.353 99.1096 154.355 99.6065H154.365Z" fill="#13706D"/>
</g>
<g id="Group_11">
<path id="Vector_15" d="M188.607 99.726C188.607 99.726 190.456 102.171 191.658 104.248C192.265 105.302 192.006 106.594 191.082 107.081C187.295 109.079 177.594 114.168 174.821 115.271L172.465 114.387C172.465 114.387 168.867 115.341 163.599 118.681C159.395 121.345 154.067 126.215 149.127 128.292C137.289 133.262 127.668 135.409 122.221 132.586C122.221 132.586 115.492 124.018 129.387 117.16C129.387 117.16 139.923 107.022 144.525 98.7619C144.525 98.7619 147.318 95.3725 151.135 97.7679C154.952 100.163 158.063 101.525 166.7 97.0821C171.998 94.3586 170.229 87.8184 174.125 83.2661C174.125 83.2661 182.603 87.9476 188.607 99.7459V99.726Z" fill="#E0F4F3"/>
<path id="Vector_16" d="M128.274 134.822C125.68 134.822 123.513 134.365 121.763 133.461C121.634 133.391 121.525 133.302 121.435 133.192C121.326 133.053 118.861 129.843 119.815 125.638C120.63 122.04 123.662 118.909 128.811 116.335C129.934 115.242 139.426 105.859 143.66 98.2747C143.69 98.225 143.72 98.1754 143.76 98.1257C144.923 96.7142 148.054 94.6567 151.662 96.923C154.842 98.9208 157.595 100.65 166.243 96.1874C168.847 94.8456 169.503 92.4005 170.249 89.5677C170.845 87.3114 171.531 84.757 173.36 82.61C173.668 82.2522 174.185 82.1627 174.592 82.3814C174.95 82.5802 183.369 87.3214 189.442 99.1991C189.76 99.6265 191.38 101.813 192.503 103.751C192.96 104.537 193.09 105.471 192.851 106.306C192.642 107.031 192.175 107.618 191.539 107.956C187.553 110.063 177.972 115.083 175.179 116.196C174.95 116.285 174.692 116.285 174.463 116.196L172.425 115.43C171.481 115.729 168.35 116.842 164.126 119.506C162.675 120.42 161.074 121.623 159.385 122.885C156.303 125.191 152.815 127.805 149.505 129.197C140.559 132.954 133.532 134.822 128.274 134.822ZM122.887 131.801C127.618 134.077 136.305 132.586 148.739 127.368C151.821 126.076 155.061 123.65 158.202 121.305C159.921 120.013 161.551 118.8 163.072 117.836C168.41 114.456 172.067 113.462 172.217 113.423C172.415 113.373 172.624 113.383 172.823 113.452L174.811 114.198C177.912 112.886 186.828 108.204 190.625 106.197C190.823 106.087 190.913 105.898 190.963 105.749C191.052 105.441 190.992 105.063 190.804 104.745C189.641 102.748 187.832 100.352 187.822 100.322C187.782 100.273 187.752 100.223 187.732 100.173C182.951 90.7803 176.51 85.9696 174.373 84.5681C173.211 86.238 172.694 88.1861 172.187 90.0746C171.392 93.0863 170.557 96.1974 167.167 97.9467C158.202 102.569 154.653 101.127 150.618 98.5928C147.815 96.8335 145.767 98.8612 145.36 99.3184C140.708 107.588 130.52 117.448 130.093 117.866C130.023 117.935 129.934 117.995 129.844 118.044C125.183 120.341 122.469 123.034 121.773 126.046C121.127 128.849 122.479 131.175 122.897 131.801H122.887Z" fill="#13706D"/>
</g>
<g id="Group_12">
<path id="Vector_17" d="M136.593 116.215C138.144 117.259 140.291 117.905 143.054 116.891C149.385 114.575 158.848 109.228 161.492 113.154" fill="white"/>
<path id="Vector_18" d="M140.371 118.382C138.84 118.382 137.369 117.925 136.047 117.03C135.59 116.722 135.47 116.106 135.778 115.649C136.087 115.192 136.703 115.072 137.16 115.381C138.82 116.504 140.689 116.693 142.726 115.947C144.038 115.47 145.479 114.854 147.01 114.208C153.292 111.554 159.782 108.81 162.327 112.588C162.635 113.045 162.516 113.661 162.059 113.969C161.601 114.277 160.985 114.158 160.677 113.701C159.047 111.275 152.795 113.919 147.775 116.037C146.225 116.693 144.754 117.309 143.402 117.806C142.368 118.183 141.355 118.372 140.371 118.372V118.382Z" fill="#13706D"/>
</g>
<g id="Group_13">
<path id="Vector_19" d="M122.221 132.576C122.221 132.576 115.492 124.008 129.387 117.15C129.387 117.15 129.427 117.11 129.506 117.031C131.236 118.919 133.472 122.13 136.076 127.557C136.891 129.246 137.458 130.827 137.836 132.288C131.196 134.127 125.799 134.415 122.221 132.566V132.576Z" fill="white"/>
<path id="Vector_20" d="M128.284 134.832C125.699 134.832 123.542 134.375 121.773 133.461C121.644 133.391 121.535 133.302 121.445 133.192C121.336 133.053 118.871 129.843 119.825 125.638C120.64 122.04 123.672 118.909 128.82 116.335C129.009 116.146 129.278 116.047 129.546 116.047C129.814 116.047 130.073 116.166 130.252 116.375C132.438 118.76 134.695 122.388 136.981 127.139C137.776 128.809 138.392 130.459 138.81 132.059C138.949 132.586 138.631 133.123 138.114 133.262C134.317 134.306 131.057 134.832 128.284 134.832ZM122.896 131.801C125.898 133.242 130.51 133.172 136.613 131.602C136.245 130.429 135.768 129.217 135.192 127.994C133.184 123.799 131.206 120.549 129.317 118.303C124.984 120.539 122.439 123.143 121.773 126.046C121.127 128.849 122.479 131.175 122.896 131.801Z" fill="#13706D"/>
</g>
<g id="Group_14">
<path id="Vector_21" d="M176.729 85.0452C179.711 87.3511 184.69 92.0227 188.607 99.7358C188.607 99.7358 190.455 102.181 191.658 104.258C192.264 105.312 192.006 106.604 191.082 107.091C189.432 107.966 186.668 109.417 183.836 110.868C182.176 109.934 180.486 108.284 178.886 105.6C171.689 93.5037 176.719 85.0551 176.719 85.0551L176.729 85.0452Z" fill="white"/>
<path id="Vector_22" d="M183.846 111.852C183.677 111.852 183.508 111.812 183.359 111.723C181.391 110.61 179.601 108.721 178.041 106.097C170.676 93.7124 175.655 84.906 175.874 84.5382C176.023 84.2897 176.262 84.1208 176.54 84.0611C176.818 84.0114 177.117 84.081 177.335 84.25C180.108 86.3969 185.366 91.1977 189.452 99.199C189.77 99.6264 191.39 101.813 192.513 103.751C192.97 104.547 193.099 105.471 192.861 106.306C192.652 107.031 192.185 107.618 191.549 107.956C189.899 108.83 187.126 110.282 184.303 111.743C184.164 111.812 184.005 111.852 183.846 111.852ZM177.087 86.6056C176.073 89.1402 174.334 95.9687 179.751 105.083C181.003 107.2 182.394 108.751 183.885 109.725C186.539 108.353 189.074 107.021 190.624 106.206C190.823 106.097 190.913 105.908 190.962 105.759C191.052 105.451 190.992 105.073 190.803 104.755C189.64 102.757 187.831 100.362 187.821 100.332C187.782 100.282 187.752 100.233 187.732 100.183C184.253 93.3447 179.89 88.9514 177.097 86.6056H177.087Z" fill="#13706D"/>
</g>
<g id="Group_15">
<path id="Vector_23" d="M188.607 99.7256C188.607 99.7256 190.456 102.171 191.658 104.248C192.265 105.302 192.006 106.594 191.082 107.081C187.295 109.079 177.594 114.168 174.821 115.271C174.821 115.271 169.871 117.309 164.603 120.648C160.398 123.312 154.057 126.205 149.127 128.282C137.289 133.252 127.667 135.399 122.221 132.576C122.221 132.576 120.541 130.439 120.59 127.447L121.058 127.517C121.058 127.517 130.49 130.638 143.163 124.853C155.289 119.306 158.977 114.436 169.205 110.112C177.842 106.455 182.643 104.377 188.607 99.7355V99.7256Z" fill="white"/>
<path id="Vector_24" d="M128.274 134.822C125.68 134.822 123.513 134.365 121.763 133.461C121.634 133.391 121.525 133.301 121.435 133.192C121.356 133.093 119.537 130.737 119.597 127.427C119.597 127.139 119.726 126.871 119.945 126.692C120.163 126.503 120.451 126.423 120.73 126.463L121.197 126.533C121.257 126.533 121.306 126.553 121.366 126.572C121.455 126.602 130.62 129.485 142.746 123.948C148.769 121.195 152.646 118.641 156.393 116.166C160.12 113.711 163.639 111.385 168.817 109.198C177.723 105.431 182.256 103.423 187.991 98.9504C188.199 98.7814 188.468 98.7119 188.736 98.7516C189.005 98.7914 189.243 98.9206 189.402 99.1393C189.482 99.2387 191.301 101.654 192.523 103.761C192.98 104.556 193.11 105.481 192.871 106.316C192.662 107.041 192.195 107.628 191.559 107.966C187.573 110.073 177.991 115.092 175.198 116.205C175.159 116.215 170.278 118.253 165.15 121.503C160.478 124.465 153.351 127.606 149.525 129.216C140.579 132.973 133.552 134.842 128.294 134.842L128.274 134.822ZM122.887 131.801C127.618 134.077 136.305 132.586 148.739 127.368C152.506 125.787 159.524 122.696 164.066 119.814C169.344 116.464 174.224 114.436 174.433 114.357C177.157 113.283 186.659 108.304 190.615 106.206C190.813 106.097 190.903 105.908 190.953 105.759C191.042 105.451 190.982 105.073 190.794 104.755C190.048 103.473 189.034 102.022 188.398 101.147C182.842 105.342 178.24 107.369 169.593 111.037C164.583 113.154 161.144 115.43 157.496 117.836C153.679 120.35 149.743 122.954 143.581 125.767C132.846 130.677 124.427 129.375 121.684 128.729C121.932 130.26 122.618 131.403 122.897 131.82L122.887 131.801Z" fill="#13706D"/>
</g>
<g id="Group_16">
<path id="Vector_25" d="M148.759 102.21C149.483 101.841 149.786 100.983 149.435 100.293C149.084 99.6036 148.213 99.3429 147.488 99.7112C146.764 100.08 146.462 100.937 146.813 101.627C147.164 102.317 148.035 102.578 148.759 102.21Z" fill="white"/>
<path id="Vector_26" d="M148.073 103.364C147.835 103.364 147.596 103.324 147.358 103.254C146.731 103.065 146.215 102.638 145.926 102.062C145.33 100.879 145.827 99.4176 147.03 98.8013C147.606 98.5032 148.262 98.4435 148.878 98.6324C149.505 98.8212 150.021 99.2486 150.31 99.8251C150.598 100.402 150.648 101.068 150.429 101.684C150.22 102.29 149.783 102.787 149.206 103.085C148.849 103.264 148.461 103.364 148.073 103.364ZM148.173 100.521C148.093 100.521 148.014 100.541 147.934 100.581C147.705 100.7 147.596 100.958 147.696 101.167C147.755 101.286 147.855 101.336 147.934 101.356C148.053 101.396 148.193 101.376 148.312 101.316C148.431 101.256 148.521 101.157 148.56 101.038C148.59 100.968 148.6 100.849 148.54 100.74C148.481 100.62 148.381 100.571 148.302 100.551C148.262 100.541 148.212 100.531 148.163 100.531L148.173 100.521Z" fill="#13706D"/>
</g>
<g id="Group_17">
<path id="Vector_27" d="M144.717 107.423C145.441 107.055 145.743 106.197 145.393 105.507C145.042 104.817 144.17 104.556 143.446 104.925C142.722 105.293 142.419 106.151 142.77 106.841C143.121 107.531 143.993 107.791 144.717 107.423Z" fill="white"/>
<path id="Vector_28" d="M144.018 108.572C143.521 108.572 143.024 108.423 142.597 108.115C142.07 107.737 141.742 107.181 141.642 106.544C141.553 105.898 141.722 105.242 142.139 104.716C142.954 103.662 144.485 103.433 145.549 104.199C146.075 104.576 146.403 105.133 146.503 105.769C146.592 106.415 146.423 107.071 146.006 107.598C145.519 108.234 144.763 108.562 144.018 108.562V108.572ZM144.127 105.739C143.968 105.739 143.809 105.809 143.71 105.948C143.63 106.047 143.601 106.157 143.62 106.276C143.62 106.346 143.66 106.445 143.769 106.515C143.968 106.664 144.276 106.604 144.445 106.395C144.525 106.296 144.555 106.187 144.535 106.067C144.535 105.998 144.495 105.898 144.386 105.829C144.306 105.769 144.217 105.749 144.127 105.749V105.739Z" fill="#13706D"/>
</g>
<g id="Group_18">
<path id="Vector_29" d="M140.435 112.524C141.16 112.155 141.462 111.298 141.111 110.608C140.76 109.918 139.889 109.657 139.165 110.025C138.441 110.394 138.138 111.252 138.489 111.942C138.84 112.631 139.711 112.892 140.435 112.524Z" fill="white"/>
<path id="Vector_30" d="M139.754 113.671C139.257 113.671 138.76 113.522 138.332 113.214C137.806 112.836 137.478 112.279 137.378 111.643C137.289 110.997 137.458 110.341 137.875 109.814C138.69 108.761 140.221 108.532 141.284 109.298C141.811 109.675 142.149 110.232 142.239 110.868C142.328 111.514 142.159 112.17 141.742 112.697C141.255 113.333 140.499 113.661 139.754 113.661V113.671ZM139.446 111.037C139.366 111.136 139.336 111.256 139.356 111.365C139.356 111.435 139.396 111.534 139.505 111.604C139.704 111.753 140.012 111.693 140.181 111.484C140.261 111.385 140.291 111.266 140.281 111.156C140.281 111.087 140.241 110.987 140.131 110.918C139.933 110.769 139.625 110.828 139.456 111.037H139.446Z" fill="#13706D"/>
</g>
<g id="Group_19">
<path id="Vector_31" d="M167.923 103.374C167.923 103.374 162.347 106.693 157.546 106.773C152.745 106.852 151.205 108.82 151.205 108.82" fill="white"/>
<path id="Vector_32" d="M151.204 109.804C150.986 109.804 150.767 109.735 150.578 109.586C150.161 109.248 150.081 108.642 150.419 108.214C150.608 107.976 152.397 105.878 157.526 105.789C161.999 105.709 167.356 102.559 167.416 102.529C167.883 102.25 168.499 102.4 168.778 102.877C169.056 103.344 168.907 103.96 168.43 104.238C168.191 104.377 162.575 107.687 157.566 107.777C153.391 107.846 151.99 109.437 151.98 109.457C151.781 109.685 151.493 109.814 151.214 109.814L151.204 109.804Z" fill="#13706D"/>
</g>
</g>
<g id="Group_20">
<g id="Group_21">
<g id="Group_22">
<path id="Vector_33" d="M76.3892 57.9701C75.8425 61.1309 74.8883 71.468 83.3966 79.688C83.3966 79.688 96.1391 73.4857 107.122 71.3785C118.105 69.2714 144.435 57.5825 146.463 50.3067C146.463 50.3067 145.539 43.9454 135.361 46.1818C125.182 48.4182 105.234 42.0072 98.0176 44.0249C98.0176 44.0249 93.9524 44.8499 95.324 50.2073C96.6957 55.5647 89.9169 59.3915 86.8853 60.0574C80.0767 61.5583 80.2557 56.9662 78.1187 56.6481C77.2837 56.5189 76.5184 57.1352 76.3693 57.9701H76.3892Z" fill="white"/>
<path id="Vector_34" d="M83.3969 80.6819C83.1484 80.6819 82.8999 80.5825 82.711 80.4035C73.8151 71.8158 74.8787 60.932 75.4154 57.801C75.6539 56.4194 76.9461 55.4752 78.2879 55.664C79.3713 55.823 79.9876 56.5983 80.584 57.3438C81.6177 58.6359 82.7011 59.9678 86.6868 59.0932C88.5853 58.6757 92.1337 56.8468 93.724 54.2625C94.4894 53.0201 94.7081 51.7379 94.3801 50.4557C93.8334 48.3286 93.9924 46.5594 94.8571 45.1877C95.9406 43.4483 97.7595 43.0706 97.839 43.0507C101.407 42.0568 107.868 43.0209 114.716 44.0447C121.893 45.1182 130.023 46.3407 135.172 45.2076C139.307 44.3031 142.547 44.6311 144.793 46.1817C147.089 47.772 147.447 50.0581 147.467 50.1575C147.487 50.2967 147.477 50.4358 147.437 50.565C145.121 58.8546 117.46 70.4044 107.321 72.3426C96.5966 74.4001 83.9733 80.5129 83.8441 80.5725C83.705 80.6421 83.5559 80.6719 83.4068 80.6719L83.3969 80.6819ZM77.9202 57.632C77.6617 57.632 77.4232 57.8507 77.3735 58.139C76.8865 60.9717 75.9323 70.6628 83.6056 78.4952C86.3489 77.203 97.2228 72.273 106.944 70.4044C118.583 68.1779 143.183 56.6182 145.449 50.2668C145.33 49.8196 144.903 48.6666 143.621 47.8018C141.861 46.6091 139.088 46.3904 135.589 47.1558C130.083 48.3684 122.121 47.1756 114.418 46.0127C107.788 45.0188 101.537 44.0844 98.3062 44.979C98.1968 45.0088 97.1532 45.2474 96.527 46.2612C95.9803 47.1458 95.9107 48.3883 96.3083 49.9488C96.7755 51.7777 96.4773 53.5767 95.4237 55.2963C93.406 58.5763 89.2612 60.5543 87.1242 61.0214C81.9357 62.1645 80.1963 60.0076 79.0433 58.5862C78.5861 58.0197 78.2979 57.6718 77.9997 57.632C77.9798 57.632 77.9599 57.632 77.9301 57.632H77.9202Z" fill="#13706D"/>
</g>
<g id="Group_23">
<path id="Vector_35" d="M95.4831 52.1951C95.016 56.489 89.5393 59.4708 86.8954 60.0473C80.0868 61.5482 80.2657 56.9561 78.1287 56.638C77.2938 56.5088 76.5284 57.1251 76.3893 57.96C76.0613 59.8485 75.5941 64.2915 77.0751 69.311L77.2341 69.2414C77.2341 69.2414 88.3068 65.8818 94.4892 75.0361C98.4054 73.5949 102.898 72.1835 107.122 71.3685C111.178 70.5932 117.34 68.5059 123.582 65.8122L124.427 61.6873C124.427 61.6873 119.199 55.0179 109.945 56.8567C101.338 58.5663 98.8129 55.7534 95.4732 52.1951H95.4831Z" fill="#AFE0DD"/>
<path id="Vector_36" d="M94.4891 76.0301C94.1711 76.0301 93.853 75.8711 93.6641 75.5928C88.1477 67.4423 78.3274 69.967 77.5621 70.1757L77.4527 70.2254C77.1943 70.3347 76.8961 70.3347 76.6377 70.2155C76.3793 70.0962 76.1904 69.8676 76.1109 69.5992C74.61 64.5002 75.0275 60.0175 75.4052 57.801C75.6437 56.4194 76.9359 55.4751 78.2777 55.664C79.3611 55.823 79.9774 56.5983 80.5837 57.3438C81.6174 58.6359 82.7008 59.9678 86.6866 59.0931C89.2808 58.5166 94.1114 55.6938 94.4991 52.0957C94.5388 51.708 94.8072 51.38 95.1749 51.2608C95.5427 51.1315 95.9502 51.2409 96.2186 51.5192L96.318 51.6285C99.4987 55.0278 101.795 57.4829 109.766 55.8926C119.517 53.9544 124.994 60.7928 125.222 61.081C125.401 61.3096 125.471 61.6078 125.411 61.8961L124.566 66.0309C124.497 66.349 124.288 66.6173 123.99 66.7466C117.628 69.4799 111.406 71.5772 107.321 72.3624C103.703 73.0582 99.5086 74.2708 94.837 75.9804C94.7277 76.0202 94.6084 76.04 94.4991 76.04L94.4891 76.0301ZM81.9255 67.6709C85.7821 67.6709 91.0799 68.7643 94.8668 73.8434C99.3496 72.2332 103.405 71.0703 106.943 70.3944C110.79 69.6589 116.664 67.6908 122.727 65.1065L123.373 61.9656C122.201 60.6834 117.609 56.3597 110.154 57.8308C102.123 59.4311 98.942 57.1847 95.99 54.1631C94.4195 57.9401 89.7082 60.4449 87.114 61.0114C81.9255 62.1545 80.1861 59.9976 79.0331 58.5763C78.5759 58.0097 78.2877 57.6618 77.9895 57.6221C77.6913 57.5724 77.4229 57.8109 77.3732 58.129C77.1049 59.6696 76.6576 63.5858 77.7708 68.0884C78.6355 67.9095 80.1265 67.6709 81.9255 67.6709Z" fill="#13706D"/>
</g>
<g id="Group_24">
<path id="Vector_37" d="M135.371 46.1718C134.923 46.2712 134.456 46.3507 133.969 46.4203C133.969 46.4203 133.373 51.6187 127.061 54.3123C120.75 57.0059 109.558 70.812 109.558 70.812C121.565 67.7009 144.565 57.0855 146.463 50.2968C146.463 50.2968 145.539 43.9354 135.361 46.1718H135.371Z" fill="#C4EAE7"/>
<path id="Vector_38" d="M109.567 71.8059C109.239 71.8059 108.921 71.637 108.732 71.3487C108.504 70.9909 108.524 70.5138 108.792 70.1858C109.259 69.6093 120.213 56.1611 126.673 53.3979C132.379 50.9528 132.975 46.3508 132.985 46.3011C133.035 45.8538 133.392 45.496 133.84 45.4264C134.297 45.3668 134.744 45.2872 135.162 45.1978C139.297 44.2833 142.537 44.6213 144.783 46.1719C147.079 47.7622 147.437 50.0483 147.457 50.1477C147.477 50.2868 147.467 50.426 147.427 50.5552C145.32 58.0993 121.545 68.7247 109.816 71.7662C109.736 71.7861 109.647 71.796 109.567 71.796V71.8059ZM134.804 47.295C134.376 48.9649 132.816 52.9407 127.459 55.2268C123.045 57.1153 115.949 64.888 112.44 68.9533C124.964 65.0272 143.481 55.7933 145.449 50.257C145.33 49.8097 144.902 48.6567 143.62 47.792C141.861 46.5993 139.088 46.3806 135.589 47.1459C135.341 47.2056 135.072 47.2553 134.814 47.295H134.804Z" fill="#13706D"/>
</g>
<g id="Group_25">
<path id="Vector_39" d="M107.122 71.3684C104.498 71.8753 99.7272 71.5274 97.0933 72.3524C88.7242 74.9963 82.3827 78.6441 82.3827 78.6441C81.021 81.3278 83.1083 83.3257 83.9035 84.6973C84.6191 85.9199 86.1598 86.3871 87.4519 85.8006C92.8888 83.3157 106.824 76.1891 113.484 74.7379C117.032 73.9626 123.016 72.0343 128.413 69.2513C133.81 66.4682 138.631 62.8403 142.05 59.7789C148.878 53.6561 146.453 50.2866 146.453 50.2866C144.425 57.5624 118.096 69.2513 107.112 71.3585L107.122 71.3684Z" fill="#E0F4F3"/>
<path id="Vector_40" d="M86.2888 87.063C84.9967 87.063 83.7542 86.3971 83.0585 85.2143C82.9292 84.9857 82.7603 84.7471 82.5814 84.4887C81.6669 83.1667 80.1263 80.9403 81.5079 78.2069C81.5973 78.0379 81.7365 77.8888 81.8955 77.7894C82.154 77.6403 88.4258 74.0621 96.7949 71.4182C98.4349 70.9013 100.701 70.8119 102.898 70.7224C104.438 70.6628 105.89 70.6031 106.933 70.4043C118.712 68.1481 143.749 56.3498 145.509 50.0382C145.608 49.6705 145.916 49.3921 146.294 49.3226C146.672 49.253 147.049 49.412 147.278 49.7201C147.397 49.8891 150.14 53.8948 142.726 60.5344C140.29 62.7211 135.251 66.8659 128.88 70.1459C123.254 73.0483 117.191 74.9567 113.702 75.722C108.514 76.8551 98.6437 81.5764 92.1233 84.6974C90.4435 85.5025 88.9824 86.1983 87.8692 86.7151C87.3523 86.9537 86.8156 87.063 86.2789 87.063H86.2888ZM83.1579 79.3698C82.5714 80.8011 83.2274 81.9342 84.2114 83.3556C84.4202 83.6637 84.619 83.942 84.7681 84.2104C85.2253 84.9956 86.1993 85.2938 87.0442 84.9061C88.1475 84.3992 89.5987 83.7035 91.2685 82.9083C97.8783 79.7376 107.868 74.9567 113.285 73.7739C116.644 73.0383 122.518 71.1896 127.975 68.3767C134.148 65.196 139.038 61.1705 141.404 59.0534C143.908 56.807 145.061 55.008 145.558 53.6662C142.129 57.5326 135.102 61.419 130.609 63.6653C122.389 67.7604 113.036 71.2492 107.321 72.3525C106.128 72.5811 104.607 72.6407 102.987 72.7103C100.93 72.7898 98.7928 72.8793 97.4112 73.3166C90.2149 75.5928 84.4599 78.6542 83.1678 79.3698H83.1579Z" fill="#13706D"/>
</g>
<g id="Group_26">
<path id="Vector_41" d="M102.749 50.7538C102.679 50.7538 102.6 50.7538 102.53 50.724C101.994 50.6047 101.656 50.068 101.785 49.5312L102.908 44.6112C103.027 44.0744 103.564 43.7365 104.101 43.8657C104.638 43.985 104.975 44.5217 104.846 45.0584L103.723 49.9785C103.614 50.4357 103.206 50.7538 102.759 50.7538H102.749Z" fill="#13706D"/>
</g>
<g id="Group_27">
<path id="Vector_42" d="M108.275 51.3004C108.206 51.3004 108.126 51.3004 108.057 51.2706C107.52 51.1513 107.182 50.6146 107.311 50.0779L108.434 45.1578C108.554 44.6211 109.09 44.2831 109.627 44.4123C110.164 44.5316 110.502 45.0683 110.373 45.6051L109.249 50.5251C109.14 50.9824 108.733 51.3004 108.285 51.3004H108.275Z" fill="#13706D"/>
</g>
<g id="Group_28">
<path id="Vector_43" d="M113.861 52.1056C113.792 52.1056 113.712 52.1056 113.643 52.0758C113.106 51.9565 112.768 51.4198 112.897 50.883L114.02 45.963C114.14 45.4262 114.676 45.0883 115.213 45.2175C115.75 45.3368 116.088 45.8735 115.959 46.4102L114.835 51.3303C114.726 51.7875 114.319 52.1056 113.871 52.1056H113.861Z" fill="#13706D"/>
</g>
</g>
<g id="Group_29">
<path id="Vector_44" d="M95.9802 68.5458C98.0661 68.5458 99.7572 66.8547 99.7572 64.7687C99.7572 62.6827 98.0661 60.9917 95.9802 60.9917C93.8942 60.9917 92.2031 62.6827 92.2031 64.7687C92.2031 66.8547 93.8942 68.5458 95.9802 68.5458Z" fill="white"/>
<path id="Vector_45" d="M95.9801 69.5397C95.2446 69.5397 94.5091 69.3707 93.8332 69.0228C92.7001 68.4463 91.8552 67.4623 91.4576 66.2596C91.06 65.047 91.1594 63.7548 91.7359 62.6217C92.3124 61.4886 93.2964 60.6438 94.5091 60.2462C95.7217 59.8486 97.0138 59.948 98.1469 60.5245C99.28 61.101 100.125 62.085 100.522 63.2976C100.92 64.5102 100.821 65.8024 100.244 66.9355C99.6677 68.0686 98.6837 68.9135 97.481 69.311C96.9939 69.4701 96.487 69.5496 95.99 69.5496L95.9801 69.5397ZM95.9801 61.9955C95.6919 61.9955 95.3937 62.0452 95.1154 62.1347C94.4097 62.3633 93.8332 62.8603 93.5052 63.5163C92.8094 64.888 93.366 66.5578 94.7277 67.2436C96.0994 67.9394 97.7692 67.3828 98.465 66.0211C98.8029 65.3551 98.8526 64.6096 98.624 63.9039C98.3954 63.1982 97.8984 62.6217 97.2424 62.2937C96.8448 62.0949 96.4174 61.9955 95.99 61.9955H95.9801Z" fill="#13706D"/>
</g>
</g>
<path id="Vector_46" d="M113.156 103.274C113.891 101.754 114.18 99.9843 113.812 98.1057C113.126 94.6368 110.164 91.9532 106.655 91.5854C101.755 91.0884 97.6204 94.9251 97.6204 99.7259C97.6204 100.044 97.6403 100.362 97.68 100.67C95.8512 99.9346 93.8136 99.5867 91.6865 99.7756C85.2059 100.342 80.0373 105.849 79.8584 112.349C79.6696 119.675 85.5438 125.668 92.8295 125.668C95.1653 125.668 97.352 125.052 99.2405 123.968C101.129 122.885 103.326 122.905 105.284 123.75C107.242 124.595 109.359 124.873 111.645 124.465C116.307 123.63 119.955 119.744 120.531 115.043C121.197 109.626 117.907 104.875 113.166 103.264L113.156 103.274Z" fill="white"/>
<path id="Vector_47" d="M58.2796 86.069C61.3263 86.069 63.7961 83.5992 63.7961 80.5526C63.7961 77.5059 61.3263 75.0361 58.2796 75.0361C55.233 75.0361 52.7632 77.5059 52.7632 80.5526C52.7632 83.5992 55.233 86.069 58.2796 86.069Z" fill="white"/>
</g>
</svg>
