<svg width="219" height="180" viewBox="0 0 219 180" fill="none"
  xmlns="http://www.w3.org/2000/svg">
  <g id="tools-quiz">
    <path id="Vector" d="M106.988 12.4866H111.679C169.079 12.4866 215.685 59.0931 215.685 116.494V141.084C215.685 155.696 203.827 167.553 189.216 167.553H29.4505C14.8396 167.553 2.98193 155.696 2.98193 141.084V116.494C2.98193 59.0931 49.5877 12.4866 106.988 12.4866Z" fill="#DCF0EF"/>
    <g id="Group">
      <path id="Vector_2" d="M178.701 75.1851C179.406 73.5252 180.639 72.6804 182.458 72.6804C184.505 72.6804 185.986 73.9825 185.986 75.8312C185.986 77.7893 185.191 78.7733 182.09 80.5922C179.605 82.0037 178.263 83.6735 178.263 86.1584V86.2976C178.263 88.4644 179.675 89.9454 181.861 89.9454C183.621 89.9454 184.684 89.1005 185.211 87.5102C185.668 85.8702 186.255 85.0452 189.386 83.2461C192.735 81.3079 194.306 78.982 194.306 75.6324C194.306 70.0961 189.773 66.488 182.865 66.488C177.687 66.488 173.88 68.4461 172.359 71.3187C171.882 72.1834 171.654 73.078 171.654 74.052C171.634 76.0996 172.995 77.4215 175.142 77.4215C176.743 77.4215 178.035 76.6661 178.701 75.1851Z" fill="#C0E6E3"/>
      <path id="Vector_3" d="M181.981 100.412C184.346 100.412 186.284 98.6126 186.284 96.3066C186.284 94.0006 184.346 92.2214 181.981 92.2214C179.615 92.2214 177.677 94.0205 177.677 96.3066C177.677 98.5927 179.595 100.412 181.981 100.412Z" fill="#C0E6E3"/>
    </g>
    <g id="Group_2">
      <path id="Vector_4" d="M96.959 132.795C97.6647 131.135 98.8972 130.29 100.716 130.29C102.764 130.29 104.245 131.592 104.245 133.441C104.245 135.399 103.449 136.383 100.348 138.202C97.8635 139.613 96.5216 141.283 96.5216 143.768V143.907C96.5216 146.074 97.9331 147.555 100.12 147.555C101.879 147.555 102.943 146.71 103.469 145.12C103.927 143.48 104.513 142.655 107.644 140.856C110.994 138.918 112.564 136.592 112.564 133.242C112.564 127.706 108.032 124.098 101.124 124.098C95.9451 124.098 92.1383 126.056 90.6175 128.928C90.1404 129.793 89.9118 130.688 89.9118 131.662C89.892 133.709 91.2537 135.031 93.4006 135.031C95.0009 135.031 96.293 134.276 96.959 132.795Z" fill="#ABDCD9"/>
      <path id="Vector_5" d="M100.249 158.021C102.615 158.021 104.553 156.222 104.553 153.916C104.553 151.61 102.615 149.831 100.249 149.831C97.8835 149.831 95.9453 151.63 95.9453 153.916C95.9453 156.202 97.8636 158.021 100.249 158.021Z" fill="#ABDCD9"/>
    </g>
    <g id="Group_3">
      <path id="Vector_6" d="M19.4419 119.993C20.1476 118.333 21.3801 117.488 23.199 117.488C25.2466 117.488 26.7276 118.79 26.7276 120.639C26.7276 122.597 25.9324 123.581 22.8313 125.4C20.3464 126.811 19.0045 128.481 19.0045 130.966V131.105C19.0045 133.272 20.416 134.753 22.6027 134.753C24.362 134.753 25.4255 133.908 25.9523 132.318C26.4095 130.678 26.9959 129.853 30.1269 128.054C33.4765 126.116 35.047 123.79 35.047 120.44C35.047 114.904 30.5145 111.296 23.6066 111.296C18.4281 111.296 14.6212 113.254 13.1005 116.126C12.6234 116.991 12.3947 117.886 12.3947 118.86C12.3749 120.907 13.7366 122.229 15.8835 122.229C17.4838 122.229 18.7759 121.474 19.4419 119.993Z" fill="#C0E6E3"/>
      <path id="Vector_7" d="M22.7316 145.229C25.0972 145.229 27.0354 143.43 27.0354 141.124C27.0354 138.818 25.0972 137.039 22.7316 137.039C20.3659 137.039 18.4277 138.838 18.4277 141.124C18.4277 143.41 20.3461 145.229 22.7316 145.229Z" fill="#C0E6E3"/>
    </g>
    <path id="Vector_8" d="M215.685 123.432C213.488 124.287 211.848 125.609 210.973 127.249C210.496 128.113 210.268 129.008 210.268 129.982C210.248 132.03 211.61 133.351 213.757 133.351C214.472 133.351 215.118 133.192 215.685 132.894V123.422V123.432Z" fill="#C0E6E3"/>
    <g id="Group_4">
      <path id="Vector_9" d="M72.2101 38.2498C69.8146 38.2498 67.9062 40.0488 67.9062 42.3349C67.9062 44.621 69.8246 46.4399 72.2101 46.4399C74.5956 46.4399 76.5139 44.6409 76.5139 42.3349C76.5139 40.0289 74.5757 38.2498 72.2101 38.2498Z" fill="#C0E6E3"/>
      <path id="Vector_10" d="M65.3717 23.43C66.9719 23.43 68.2641 22.6746 68.93 21.1936C69.6357 19.5337 70.8682 18.6889 72.6872 18.6889C74.7347 18.6889 76.2157 19.9909 76.2157 21.8397C76.2157 23.7978 75.4205 24.7818 72.3194 26.6007C69.8345 28.0121 68.4927 29.682 68.4927 32.1669V32.306C68.4927 34.4729 69.9041 35.9538 72.0908 35.9538C73.8501 35.9538 74.9136 35.109 75.4404 33.5187C75.8976 31.8786 76.4841 31.0536 79.615 29.2546C82.9647 27.3164 84.5351 24.9905 84.5351 21.6409C84.5351 19.1659 83.6207 17.0786 82.0005 15.5281C75.2814 17.188 68.8207 19.494 62.688 22.3864C63.2943 23.0523 64.2087 23.4499 65.3617 23.4499L65.3717 23.43Z" fill="#C0E6E3"/>
    </g>
    <path id="Vector_11" d="M69.4171 162.643C69.4171 157.107 64.8847 153.499 57.9767 153.499C52.7982 153.499 48.9913 155.457 47.4706 158.329C46.9935 159.194 46.7649 160.089 46.7649 161.063C46.745 163.11 48.1067 164.432 50.2536 164.432C51.8539 164.432 53.1461 163.677 53.812 162.196C54.5177 160.536 55.7502 159.691 57.5691 159.691C59.6167 159.691 61.0977 160.993 61.0977 162.842C61.0977 164.691 60.3125 165.764 57.3107 167.533H67.7771C68.8704 166.162 69.4171 164.571 69.4171 162.633V162.643Z" fill="#C0E6E3"/>
    <path id="Vector_12" d="M154.856 160.109C175.661 160.109 192.526 143.243 192.526 122.438C192.526 101.633 175.661 84.7668 154.856 84.7668C134.051 84.7668 117.186 101.633 117.186 122.438C117.186 143.243 134.051 160.109 154.856 160.109Z" fill="#C0E6E3"/>
    <path id="Vector_13" d="M157.4 155.517C178.765 155.517 196.085 138.197 196.085 116.832C196.085 95.467 178.765 78.1472 157.4 78.1472C136.036 78.1472 118.716 95.467 118.716 116.832C118.716 138.197 136.036 155.517 157.4 155.517Z" fill="white"/>
    <g id="poulet">
      <g id="poulet_2">
        <path id="Vector_14" d="M170.054 116.017C171.316 114.844 171.386 112.866 170.213 111.614L166.416 107.528C165.243 106.266 163.265 106.197 162.013 107.369L161.764 107.598C158.902 110.262 155.134 111.663 151.218 111.753C147.968 111.832 144.738 113.095 142.233 115.579C137.462 120.311 137.025 128.014 141.249 133.242C146.119 139.255 154.966 139.812 160.532 134.624C162.927 132.397 164.309 129.495 164.657 126.483C165.124 122.468 167.102 118.77 170.064 116.017H170.054Z" fill="#8DC4BF"/>
        <path id="Vector_15" d="M160.532 134.624C162.927 132.397 164.309 129.495 164.656 126.483C165.124 122.468 167.102 118.77 170.064 116.017C171.326 114.844 171.395 112.866 170.223 111.614L166.426 107.528C165.253 106.266 163.275 106.197 162.022 107.369L161.774 107.598C161.774 107.598 159.726 110.54 161.486 114.655C163.245 118.77 161.704 123.143 160.015 122.587C159.876 122.537 159.717 122.477 159.557 122.388C157.49 121.344 155.065 122.875 155.224 125.191L155.244 125.489C155.373 127.318 153.832 128.819 152.013 128.64C150.85 128.531 149.737 129.107 149.161 130.121L148.495 131.284C148.018 132.119 147.163 132.666 146.209 132.765L141.259 133.242C146.129 139.255 154.975 139.812 160.542 134.624H160.532Z" fill="#ABDCD9"/>
        <path id="Vector_16" d="M141.905 122.786C141.905 122.736 141.925 122.676 141.935 122.627C142.353 121.146 143.108 119.814 144.162 118.671C145.404 117.319 146.994 116.345 148.764 115.858C149.241 115.729 149.728 116.007 149.857 116.484C149.986 116.961 149.708 117.448 149.241 117.577C147.799 117.975 146.497 118.77 145.474 119.883C144.609 120.818 144.002 121.911 143.655 123.124C143.515 123.601 143.028 123.869 142.551 123.74C142.134 123.621 141.866 123.223 141.905 122.796V122.786Z" fill="white"/>
        <path id="Vector_17" d="M137.532 123.601C137.84 120.41 139.201 117.319 141.597 114.943C144.171 112.389 147.58 110.938 151.189 110.858C154.995 110.769 158.524 109.377 161.148 106.942L161.396 106.713C163.017 105.203 165.561 105.302 167.062 106.922L170.859 111.007C171.584 111.793 171.972 112.816 171.932 113.88C171.893 114.953 171.435 115.937 170.66 116.673C167.788 119.347 165.969 122.865 165.531 126.593C165.144 129.912 163.583 133.004 161.128 135.28C158.275 137.934 154.409 139.295 150.523 139.017C146.587 138.739 143.038 136.88 140.543 133.799C138.168 130.867 137.184 127.169 137.522 123.601H137.532ZM170.143 113.949C170.143 113.949 170.143 113.86 170.143 113.81C170.163 113.214 169.954 112.647 169.547 112.21L165.75 108.125C164.915 107.23 163.504 107.171 162.599 108.016L162.351 108.244C159.409 110.978 155.453 112.538 151.218 112.637C148.058 112.707 145.086 113.979 142.839 116.206C138.406 120.599 138.009 127.835 141.925 132.676C144.112 135.369 147.203 136.989 150.642 137.238C154.041 137.476 157.411 136.284 159.906 133.968C162.043 131.98 163.414 129.286 163.752 126.384C164.229 122.239 166.257 118.323 169.438 115.361C169.835 114.983 170.084 114.486 170.133 113.949H170.143Z" fill="#13706D"/>
        <g id="Group_5">
          <path id="Vector_18" d="M180.997 100.958C180.629 100.571 180.182 100.302 179.705 100.143C179.178 99.9744 178.76 99.5271 178.631 98.9904C178.512 98.5034 178.273 98.0362 177.916 97.6486C176.792 96.4161 174.824 96.3067 173.572 97.4001C172.25 98.563 172.161 100.571 173.343 101.853L166.425 108.284C165.501 109.139 165.362 110.6 166.187 111.544C167.012 112.488 168.533 112.598 169.477 111.713L176.464 105.213C177.657 106.495 179.665 106.544 180.917 105.312C182.1 104.139 182.14 102.171 180.987 100.958H180.997Z" fill="#C6E5E2"/>
          <path id="Vector_19" d="M164.775 109.755C164.855 108.97 165.203 108.204 165.819 107.638L172.16 101.744C171.773 101.078 171.594 100.322 171.634 99.537C171.683 98.4437 172.17 97.4497 172.995 96.7341C174.625 95.3028 177.13 95.4519 178.591 97.0521C179.039 97.5392 179.357 98.1455 179.516 98.7816C179.575 99.0201 179.764 99.2289 180.003 99.2985C180.629 99.4972 181.205 99.865 181.663 100.342C183.154 101.913 183.114 104.427 181.573 105.948C180.798 106.713 179.764 107.121 178.681 107.101C177.896 107.081 177.15 106.843 176.524 106.415L170.113 112.379C169.477 112.975 168.642 113.273 167.777 113.224C166.912 113.184 166.117 112.796 165.541 112.14C164.954 111.474 164.716 110.61 164.795 109.765L164.775 109.755ZM174.238 101.932C174.218 102.151 174.119 102.35 173.96 102.499L167.042 108.93C166.455 109.477 166.376 110.381 166.873 110.948C167.121 111.236 167.479 111.405 167.857 111.425C168.244 111.445 168.602 111.315 168.89 111.047L175.878 104.547C176.236 104.209 176.802 104.228 177.14 104.596C177.548 105.034 178.114 105.292 178.711 105.302C179.317 105.312 179.884 105.093 180.311 104.666C181.146 103.841 181.176 102.419 180.361 101.565C180.102 101.296 179.794 101.098 179.446 100.988C178.621 100.72 177.985 100.034 177.776 99.1891C177.687 98.8313 177.518 98.5033 177.269 98.2349C176.474 97.3602 175.053 97.2807 174.168 98.056C173.711 98.4536 173.453 99.0102 173.413 99.6066C173.383 100.213 173.592 100.789 173.999 101.227C174.158 101.396 174.248 101.634 174.238 101.863C174.238 101.883 174.238 101.903 174.238 101.913V101.932Z" fill="#13706D"/>
        </g>
      </g>
    </g>
    <path id="Vector_20" d="M60.4911 130.509C81.2958 130.509 98.1614 113.643 98.1614 92.8379C98.1614 72.0328 81.2958 55.167 60.4911 55.167C39.6864 55.167 22.8208 72.0328 22.8208 92.8379C22.8208 113.643 39.6864 130.509 60.4911 130.509Z" fill="#C0E6E3"/>
    <path id="Vector_21" d="M62.996 126.473C83.8007 126.473 100.666 109.608 100.666 88.8025C100.666 67.9974 83.8007 51.1316 62.996 51.1316C42.1913 51.1316 25.3257 67.9974 25.3257 88.8025C25.3257 109.608 42.1913 126.473 62.996 126.473Z" fill="white"/>
    <g id="Group_6">
      <g id="Group_7">
        <g id="Group_8">
          <path id="Vector_22" d="M50.5621 72.1736C50.5621 72.1736 45.7911 75.2648 47.3318 81.964C48.5841 87.4507 48.7829 87.4308 48.7829 91.5656C48.7829 95.7005 48.2959 100.79 54.4385 104.666C60.5812 108.542 70.481 104.586 73.0056 102.569" fill="#8DC4BF"/>
          <path id="Vector_23" d="M60.8297 107.111C58.4243 107.111 56.0388 106.624 54.0211 105.352C47.9182 101.505 47.958 96.4659 47.9977 92.4205C47.9977 92.1323 47.9977 91.854 47.9977 91.5756C47.9977 88.236 47.8784 87.7489 47.123 84.5285C46.964 83.8626 46.7851 83.0873 46.5664 82.143C45.7116 78.4157 46.7155 75.732 47.7095 74.1417C48.7929 72.4023 50.085 71.5475 50.1447 71.5176C50.5124 71.2791 50.9995 71.3884 51.2281 71.7463C51.4666 72.114 51.3573 72.5911 50.9995 72.8297C50.8205 72.9489 46.7155 75.732 48.107 81.7951C48.3257 82.7295 48.5046 83.5047 48.6637 84.1707C49.429 87.3911 49.5781 88.057 49.588 91.5756C49.588 91.854 49.588 92.1422 49.588 92.4304C49.5582 96.277 49.5284 100.631 54.8858 104.02C58.0168 105.998 62.082 105.69 64.9446 105.074C68.2346 104.378 71.3159 102.956 72.5484 101.972C72.8863 101.704 73.3833 101.754 73.6517 102.102C73.92 102.44 73.8703 102.937 73.5225 103.205C71.6041 104.736 66.1672 107.121 60.8495 107.121L60.8297 107.111Z" fill="#13706D"/>
        </g>
        <g id="Group_9">
          <path id="Vector_24" d="M64.9244 73.9825C64.6958 73.4657 64.4175 72.9687 64.0895 72.4916C61.6344 69.0028 56.8336 67.8995 53.1063 69.9868C48.8323 72.3823 47.5203 77.8391 50.1344 81.8944C50.3729 82.2622 50.6313 82.6001 50.9096 82.9182C53.1063 85.4031 54.4879 88.544 54.4382 91.8638C54.3984 94.4878 55.1837 97.1516 56.9131 99.4477C60.6603 104.437 67.6876 105.789 73.0251 102.579C78.9789 98.9904 80.7581 91.2177 77.0109 85.413C75.6591 83.3158 73.7805 81.7751 71.6535 80.8408C68.612 79.499 66.2563 77.034 64.9244 73.9825Z" fill="#ABDCD9"/>
          <path id="Vector_25" d="M66.7535 105.093C62.7478 105.093 58.7919 103.284 56.2672 99.9249C54.498 97.5692 53.5935 94.7762 53.6432 91.8639C53.6929 88.9218 52.5101 85.9399 50.3134 83.455C50.0053 83.1072 49.7171 82.7295 49.4686 82.3418C48.0969 80.2148 47.6596 77.5907 48.2758 75.1356C48.8921 72.6408 50.4725 70.5833 52.7188 69.321C56.7742 67.0449 62.0521 68.2475 64.7258 72.0544C65.0836 72.5712 65.3917 73.1179 65.6402 73.6745C66.9224 76.6067 69.1688 78.8928 71.9618 80.1253C74.2976 81.159 76.2755 82.8388 77.6671 84.9957C79.5953 87.9875 80.2215 91.5458 79.4164 95.0247C78.6113 98.4936 76.4843 101.416 73.4229 103.265C71.3654 104.507 69.0495 105.103 66.7535 105.103V105.093ZM57.1618 69.7385C55.8995 69.7385 54.6371 70.0466 53.4842 70.6927C51.6155 71.7363 50.3134 73.4459 49.7966 75.5134C49.2797 77.5808 49.6376 79.6979 50.7905 81.487C50.9993 81.815 51.2378 82.1231 51.4963 82.4114C53.9513 85.1945 55.2733 88.554 55.2136 91.8838C55.1739 94.4482 55.969 96.9032 57.5296 98.9806C61.0084 103.622 67.6381 104.905 72.6078 101.903C75.3015 100.283 77.1701 97.7084 77.8758 94.6569C78.5815 91.6055 78.0348 88.4745 76.3451 85.8405C75.1225 83.9421 73.3931 82.4611 71.3356 81.5566C68.1748 80.1651 65.6502 77.5907 64.2089 74.2908C64.0002 73.8236 63.7517 73.3664 63.4436 72.939C61.9825 70.8616 59.587 69.7186 57.1618 69.7186V69.7385Z" fill="#13706D"/>
        </g>
        <path id="Vector_26" d="M71.7036 100.412C73.9797 99.0401 75.5701 96.8534 76.1764 94.2692C76.7727 91.6849 76.3155 89.0211 74.8743 86.7946C73.8406 85.1844 72.3695 83.932 70.6301 83.1667C67.0717 81.5962 64.2191 78.7038 62.5989 75.0063C62.4399 74.6386 62.2411 74.2907 62.0125 73.9627C60.8893 72.3624 59.0406 71.4778 57.172 71.4778C56.1979 71.4778 55.2238 71.7163 54.3392 72.2133C52.8979 73.0184 51.8841 74.3404 51.4965 75.9307C51.0989 77.521 51.3673 79.1611 52.2618 80.5427C52.4209 80.7911 52.6097 81.0396 52.8085 81.2583C55.5518 84.3594 57.0328 88.1464 56.9632 91.9234C56.9235 94.1002 57.6093 96.1776 58.9313 97.9369C61.8833 101.863 67.4991 102.956 71.7135 100.412H71.7036Z" fill="#C6E5E2"/>
        <path id="Vector_27" d="M70.8687 99.0104C72.7672 97.8673 74.0891 96.0484 74.5861 93.8915C75.0831 91.7346 74.7054 89.528 73.5027 87.6693C72.6379 86.3275 71.4154 85.2839 69.9642 84.6477C66.0282 82.9182 62.8773 79.7177 61.0981 75.6524C60.9789 75.394 60.8397 75.1356 60.6707 74.897C59.8855 73.7739 58.5735 73.1079 57.1621 73.1079C56.4464 73.1079 55.7407 73.2868 55.1245 73.6347C54.0808 74.2211 53.3453 75.1753 53.067 76.3283C52.7787 77.4813 52.9775 78.6641 53.6236 79.6581C53.7429 79.8469 53.8721 80.0159 54.0212 80.1749C57.0329 83.5842 58.6629 87.7687 58.5934 91.9434C58.5636 93.7523 59.1301 95.4918 60.2334 96.9529C62.6885 100.223 67.3601 101.127 70.8687 99.0104Z" fill="#DCF0EF"/>
        <path id="Vector_28" d="M66.8629 97.1616C69.948 97.1616 72.4489 94.6606 72.4489 91.5755C72.4489 88.4905 69.948 85.9895 66.8629 85.9895C63.7778 85.9895 61.2769 88.4905 61.2769 91.5755C61.2769 94.6606 63.7778 97.1616 66.8629 97.1616Z" fill="#C6E5E2"/>
        <path id="Vector_29" d="M71.5344 88.5142C71.5543 88.6931 71.5643 88.8819 71.5643 89.0708C71.5643 92.152 69.0595 94.6568 65.9782 94.6568C64.0201 94.6568 62.3105 93.6529 61.3066 92.1322C61.5849 94.955 63.9704 97.1616 66.8628 97.1616C69.9441 97.1616 72.4489 94.6568 72.4489 91.5755C72.4489 90.4424 72.1109 89.3888 71.5344 88.5142Z" fill="#8DC4BF"/>
        <path id="Vector_30" d="M66.8625 97.9468C63.3439 97.9468 60.4912 95.0843 60.4912 91.5756C60.4912 88.0669 63.3538 85.2043 66.8625 85.2043C70.3711 85.2043 73.2337 88.0669 73.2337 91.5756C73.2337 95.0843 70.3711 97.9468 66.8625 97.9468ZM66.8625 86.7748C64.2185 86.7748 62.0617 88.9317 62.0617 91.5756C62.0617 94.2195 64.2185 96.3764 66.8625 96.3764C69.5064 96.3764 71.6633 94.2195 71.6633 91.5756C71.6633 88.9317 69.5064 86.7748 66.8625 86.7748Z" fill="#13706D"/>
        <g id="Group_10">
          <path id="Vector_31" d="M52.073 70.5236L51.6853 69.9571C50.8405 68.7345 49.7173 67.7207 48.4053 67.0249" fill="#13706D"/>
          <path id="Vector_32" d="M52.0727 71.3089C51.8242 71.3089 51.5757 71.1896 51.4267 70.9709L51.039 70.4044C50.2737 69.2912 49.23 68.3568 48.0373 67.7207C47.6496 67.5219 47.5105 67.0448 47.7093 66.6572C47.918 66.2795 48.3852 66.1304 48.7728 66.3292C50.1941 67.0846 51.4167 68.1879 52.3312 69.5098L52.7188 70.0764C52.9673 70.4342 52.8778 70.9212 52.52 71.1697C52.3808 71.2592 52.2318 71.3089 52.0727 71.3089Z" fill="#13706D"/>
        </g>
      </g>
    </g>
    <g id="Group_11">
      <g id="Group_12">
        <path id="Vector_33" d="M117.364 29.1749C119.362 30.3379 121.897 29.1749 122.334 26.9087C122.911 23.8573 126.976 23.1814 128.526 25.875C129.67 27.8729 132.453 28.1412 133.963 26.4018C135.991 24.0461 139.848 25.4874 139.838 28.5985C139.838 30.9044 142.104 32.5246 144.281 31.7692C147.213 30.7454 149.837 33.9261 148.276 36.6097C147.113 38.6076 148.276 41.1422 150.543 41.5795C153.594 42.156 154.27 46.2213 151.576 47.7718C149.578 48.9149 149.31 51.698 151.049 53.2088C153.405 55.2364 151.964 59.093 148.853 59.083C146.547 59.083 144.927 61.3493 145.682 63.526C146.706 66.4582 143.525 69.0822 140.842 67.5217C138.844 66.3588 136.309 67.5217 135.872 69.7879C135.295 72.8394 131.23 73.5153 129.679 70.8217C128.536 68.8238 125.753 68.5554 124.243 70.2949C122.215 72.6505 118.358 71.2093 118.368 68.0982C118.368 65.7922 116.102 64.1721 113.925 64.9275C110.993 65.9513 108.369 62.7706 109.93 60.0869C111.093 58.0891 109.93 55.5545 107.663 55.1172C104.612 54.5407 103.936 50.4754 106.63 48.9248C108.628 47.7818 108.896 44.9987 107.156 43.4879C104.801 41.4602 106.242 37.6037 109.353 37.6136C111.659 37.6136 113.279 35.3474 112.524 33.1706C111.5 30.2385 114.681 27.6144 117.364 29.1749Z" fill="white"/>
        <path id="Vector_34" d="M145.285 67.9691C143.873 69.132 141.925 69.291 140.345 68.3667C139.679 67.979 138.894 67.9393 138.188 68.2573C137.482 68.5754 136.995 69.2016 136.856 69.957C136.508 71.756 135.117 73.1178 133.308 73.4259C131.499 73.7241 129.739 72.8991 128.825 71.2988C128.437 70.6229 127.781 70.1955 127.006 70.126C126.231 70.0564 125.505 70.3446 124.998 70.9311C123.805 72.3226 121.917 72.8096 120.197 72.1636C118.478 71.5175 117.375 69.9172 117.375 68.0884C117.375 67.3131 117.017 66.6173 116.391 66.1601C115.764 65.7029 114.979 65.6035 114.254 65.852C112.524 66.4583 110.645 65.9315 109.473 64.5101C108.3 63.0888 108.151 61.1506 109.075 59.5702C109.463 58.9042 109.502 58.119 109.184 57.4133C108.866 56.7076 108.24 56.2205 107.485 56.0814C105.686 55.7434 104.324 54.342 104.016 52.533C103.718 50.724 104.543 48.9547 106.143 48.0502C106.809 47.6626 107.236 47.0066 107.316 46.2313C107.385 45.4659 107.097 44.7304 106.511 44.2235C105.119 43.0208 104.642 41.1422 105.278 39.4227C105.924 37.7032 107.524 36.5999 109.353 36.5999C110.129 36.5999 110.824 36.242 111.272 35.6159C111.719 34.9897 111.828 34.2044 111.58 33.4789C110.973 31.7494 111.5 29.8708 112.912 28.6979C114.333 27.535 116.271 27.376 117.852 28.3004C118.518 28.688 119.303 28.7278 120.009 28.4097C120.714 28.0916 121.201 27.4654 121.34 26.71C121.688 24.911 123.07 23.5492 124.889 23.2411C126.698 22.9429 128.457 23.7679 129.372 25.3682C129.759 26.0441 130.415 26.4715 131.191 26.5411C131.966 26.6106 132.691 26.3124 133.198 25.7359C134.391 24.3444 136.28 23.8673 137.999 24.5034C139.719 25.1396 140.822 26.7498 140.822 28.5787C140.822 29.3539 141.18 30.0497 141.806 30.5069C142.432 30.9641 143.217 31.0635 143.943 30.8151C145.672 30.2087 147.551 30.7355 148.724 32.147C149.897 33.5584 150.046 35.5065 149.131 37.0869C148.744 37.7529 148.704 38.5381 149.022 39.2438C149.34 39.9495 149.966 40.4365 150.722 40.5757C152.521 40.9236 153.882 42.3151 154.191 44.1241C154.489 45.9331 153.664 47.6924 152.064 48.6068C151.398 48.9845 150.97 49.6505 150.891 50.4258C150.821 51.1911 151.109 51.9266 151.696 52.4336C153.087 53.6363 153.564 55.5148 152.928 57.2344C152.282 58.9539 150.682 60.0572 148.853 60.0572C148.078 60.0572 147.382 60.415 146.935 61.0412C146.487 61.6674 146.378 62.4526 146.627 63.1782C147.233 64.9077 146.706 66.7863 145.295 67.9492L145.285 67.9691ZM136.379 67.0646C136.667 66.826 136.995 66.6173 137.363 66.4583C138.665 65.8718 140.116 65.9414 141.349 66.6571C142.392 67.2634 143.416 66.9453 144.032 66.4384C144.639 65.9315 145.156 64.9872 144.758 63.8541C144.291 62.5023 144.5 61.071 145.325 59.9081C146.15 58.7452 147.442 58.0792 148.873 58.0892C150.076 58.0892 150.811 57.3039 151.08 56.5585C151.348 55.813 151.328 54.7395 150.414 53.9543C149.33 53.02 148.793 51.6782 148.933 50.2568C149.072 48.8355 149.857 47.6129 151.099 46.9072C152.133 46.3108 152.382 45.2572 152.252 44.4819C152.123 43.6967 151.557 42.7823 150.374 42.5636C148.972 42.2952 147.829 41.4007 147.233 40.0986C146.637 38.7965 146.716 37.3453 147.432 36.1128C148.038 35.0692 147.72 34.0454 147.213 33.4391C146.706 32.8328 145.762 32.3159 144.629 32.7135C143.287 33.1807 141.846 32.9819 140.683 32.147C139.52 31.322 138.854 30.0298 138.864 28.5985C138.864 27.3959 138.079 26.6703 137.333 26.392C136.588 26.1137 135.514 26.1534 134.729 27.0579C133.795 28.1413 132.453 28.6781 131.031 28.5389C129.61 28.3997 128.388 27.6145 127.682 26.3721C127.085 25.3284 126.032 25.0899 125.257 25.2191C124.481 25.3483 123.557 25.9149 123.338 27.0977C123.07 28.4991 122.175 29.6422 120.873 30.2286C119.591 30.8151 118.1 30.7355 116.887 30.0298C115.844 29.4235 114.82 29.7416 114.214 30.2485C113.607 30.7554 113.091 31.6997 113.488 32.8328C113.955 34.1746 113.757 35.6159 112.922 36.7788C112.087 37.9417 110.795 38.6077 109.373 38.5977C108.171 38.5977 107.435 39.3829 107.167 40.1284C106.898 40.8739 106.918 41.9473 107.833 42.7326C108.916 43.6669 109.453 45.0087 109.314 46.4301C109.174 47.8514 108.389 49.074 107.147 49.7797C106.103 50.3761 105.865 51.4297 105.994 52.205C106.123 52.9902 106.69 53.9046 107.872 54.1233C109.274 54.3917 110.417 55.2862 111.013 56.5883C111.61 57.8904 111.53 59.3416 110.814 60.5741C110.208 61.6177 110.526 62.6415 111.033 63.2478C111.54 63.8541 112.484 64.371 113.617 63.9734C114.959 63.5062 116.4 63.705 117.563 64.5399C118.726 65.3649 119.392 66.6571 119.382 68.0884C119.382 69.291 120.168 70.0266 120.913 70.2949C121.658 70.5633 122.732 70.5335 123.517 69.629C124.451 68.5456 125.793 68.0088 127.215 68.148C128.636 68.2871 129.859 69.0724 130.564 70.3148C131.161 71.3585 132.214 71.597 132.99 71.4678C133.765 71.3386 134.689 70.772 134.908 69.5892C135.107 68.5754 135.624 67.7007 136.389 67.0646H136.379Z" fill="#8DC4BF"/>
      </g>
      <path id="Vector_35" d="M130.882 40.1483L127.881 42.6232L125.127 39.8898C124.183 38.9555 122.702 38.8859 121.678 39.7308C120.654 40.5757 120.505 42.0964 121.35 43.1202L121.549 43.3587C122.235 44.1937 122.722 45.1876 122.97 46.2313L123.447 48.3086C123.05 48.3583 122.662 48.5174 122.344 48.7758L120.436 50.3462C119.541 51.0818 119.412 52.4137 120.148 53.2983L125.644 59.9677C126.38 60.8623 127.712 60.9915 128.596 60.256L130.505 58.6855C130.992 58.2879 131.26 57.7015 131.27 57.0952C132.035 57.0952 132.771 56.8268 133.367 56.3299L139.261 51.4694C140.593 50.3761 140.872 48.4677 139.907 47.0463L135.763 40.8639C135.703 40.7745 135.633 40.685 135.564 40.5955C134.391 39.1742 132.284 38.9754 130.872 40.1483H130.882ZM122.881 42.2654L122.682 42.0268C122.444 41.7386 122.483 41.3112 122.772 41.0726C123.11 40.7943 123.587 40.8242 123.895 41.1223L127.205 44.4024C127.523 44.7205 128.02 44.7403 128.368 44.4521L131.976 41.4802C132.661 40.9136 133.665 41.013 134.232 41.6988C134.262 41.7386 134.301 41.7784 134.331 41.8281L138.476 48.0105C138.933 48.6963 138.804 49.6107 138.168 50.1375L132.274 54.998C131.588 55.5645 130.584 55.4651 130.018 54.7793L125.435 49.2231L124.66 45.8436C124.362 44.5316 123.746 43.2892 122.891 42.2555L122.881 42.2654ZM121.489 52.2149C121.36 52.0558 121.38 51.8272 121.539 51.698L123.447 50.1276C123.607 49.9984 123.835 50.0182 123.964 50.1773L129.461 56.8467C129.59 57.0057 129.57 57.2344 129.411 57.3636L127.503 58.934C127.344 59.0632 127.115 59.0433 126.986 58.8843L121.489 52.2149Z" fill="#8DC4BF"/>
      <path id="Vector_36" d="M123.451 50.1184L121.542 51.693C121.385 51.8222 121.363 52.054 121.492 52.2107L126.987 58.8747C127.116 59.0314 127.348 59.0537 127.505 58.9245L129.414 57.3498C129.571 57.2206 129.593 56.9888 129.464 56.8321L123.969 50.1682C123.839 50.0115 123.608 49.9892 123.451 50.1184Z" fill="#DCF0EF"/>
    </g>
  </g>
</svg>
