<svg xmlns="http://www.w3.org/2000/svg" width="220" height="180" fill="none"><path fill="#E0F4F3" d="M107.654 12.84h4.692c57.401 0 104.007 46.606 104.007 104.007v24.59c0 14.611-11.858 26.469-26.469 26.469H30.116c-14.611 0-26.469-11.858-26.469-26.469v-24.59c0-57.401 46.607-104.008 104.007-104.008"/><path fill="#AFE0DD" d="M107.128 155.352c22.413 0 40.583-18.169 40.583-40.583s-18.17-40.583-40.583-40.583c-22.414 0-40.584 18.17-40.584 40.583 0 22.414 18.17 40.583 40.584 40.583"/><path fill="#fff" d="M110.11 150.383c22.413 0 40.583-18.17 40.583-40.583 0-22.414-18.17-40.584-40.583-40.584-22.414 0-40.584 18.17-40.584 40.584 0 22.413 18.17 40.583 40.584 40.583"/><path fill="#13706D" d="M110.109 151.367c-22.92 0-41.577-18.647-41.577-41.577S87.18 68.213 110.11 68.213s41.577 18.646 41.577 41.577-18.646 41.577-41.577 41.577m0-81.157c-21.827 0-39.589 17.762-39.589 39.59 0 21.827 17.762 39.589 39.589 39.589 21.828 0 39.59-17.762 39.59-39.589 0-21.828-17.762-39.59-39.59-39.59"/><path fill="#E0F4F3" d="M107.714 84.543c16.977 0 30.733 13.756 30.733 30.733 0 3.33-.536 6.531-1.511 9.532a30.5 30.5 0 0 0 3.917-15.008c0-16.977-13.757-30.733-30.733-30.733-13.647 0-25.197 8.895-29.213 21.191 5.258-9.383 15.297-15.725 26.817-15.725z"/><path fill="#AFE0DD" d="m51.347 103.885-1.223-9.015a1.724 1.724 0 1 1 3.42-.457l1.053 7.773.467 3.409a15.5 15.5 0 0 1-2.524 10.775c-1.064 1.57-2.485 3.608-2.237 5.476l5.775 35.156a2.82 2.82 0 0 1-2.415 3.171 2.82 2.82 0 0 1-3.17-2.415l-3.798-35.425c-.258-1.878-2.176-3.459-3.618-4.691a15.47 15.47 0 0 1-5.297-9.721l-.468-3.409-1.053-7.773a1.724 1.724 0 1 1 3.419-.457l1.223 9.015c.129.944.993 1.6 1.938 1.481h.02a1.737 1.737 0 0 0 1.48-1.938l-1.222-9.016a1.724 1.724 0 1 1 3.42-.457l1.222 9.015a1.73 1.73 0 0 0 1.938 1.481l.189-.029c.944-.13 1.6-.994 1.48-1.939zm112.575-23.576-7.276 67.698a2.197 2.197 0 0 0 1.949 2.415 2.177 2.177 0 0 0 2.365-1.679l1.531-6.501a90 90 0 0 0 2.375-18.935l.209-11.182a2.19 2.19 0 0 1 1.392-1.997 7.496 7.496 0 0 0 4.721-7.714l-.606-17.374a9.86 9.86 0 0 0-2.932-6.073c-1.312-1.272-3.509-.477-3.708 1.342z"/><path fill="#13706D" d="M110.109 141.517a31.8 31.8 0 0 1-14.69-3.599.99.99 0 0 1-.418-1.341.99.99 0 0 1 1.342-.418 29.8 29.8 0 0 0 13.766 3.37c16.4 0 29.739-13.339 29.739-29.739s-13.339-29.74-29.739-29.74S80.37 93.39 80.37 109.79c0 7.941 3.091 15.416 8.717 21.032a.99.99 0 0 1 0 1.401.99.99 0 0 1-1.401 0c-5.994-5.993-9.294-13.965-9.294-22.443 0-17.494 14.234-31.727 31.727-31.727s31.727 14.233 31.727 31.727c0 17.493-14.233 31.727-31.727 31.727z"/><path fill="#fff" d="m163.495 85.348-7.276 67.699a2.2 2.2 0 0 0 1.948 2.415 2.18 2.18 0 0 0 2.366-1.68l1.531-6.5a90 90 0 0 0 2.375-18.935l.209-11.182c.02-.885.566-1.68 1.391-1.998a7.495 7.495 0 0 0 4.722-7.713l-.607-17.374a9.85 9.85 0 0 0-2.932-6.073c-1.312-1.273-3.508-.478-3.707 1.341z"/><path fill="#13706D" d="M158.396 156.466c-.11 0-.229 0-.338-.02a3.183 3.183 0 0 1-2.823-3.509l7.276-67.698a3.15 3.15 0 0 1 2.087-2.654 3.16 3.16 0 0 1 3.3.706 10.8 10.8 0 0 1 3.23 6.69l.617 17.433c.377 3.698-1.819 7.296-5.348 8.667a1.2 1.2 0 0 0-.765 1.094l-.209 11.182a91.2 91.2 0 0 1-2.395 19.143l-1.531 6.501a3.186 3.186 0 0 1-3.101 2.455zm6.083-71.008-7.276 67.698a1.204 1.204 0 0 0 1.064 1.322 1.21 1.21 0 0 0 1.292-.915l1.53-6.5a89.4 89.4 0 0 0 2.346-18.726l.209-11.182a3.18 3.18 0 0 1 2.028-2.912c2.693-1.054 4.383-3.807 4.085-6.69l-.617-17.434a8.87 8.87 0 0 0-2.634-5.397 1.18 1.18 0 0 0-1.242-.268 1.19 1.19 0 0 0-.785.994z"/><path fill="#fff" d="m53.852 100.377-1.223-9.015a1.724 1.724 0 1 1 3.42-.458l1.053 7.773.467 3.409a15.5 15.5 0 0 1-2.524 10.775c-1.064 1.57-2.485 3.608-2.237 5.477l5.775 35.156a2.82 2.82 0 0 1-2.415 3.17 2.82 2.82 0 0 1-3.171-2.415L49.2 118.825c-.258-1.879-2.177-3.459-3.618-4.692a15.47 15.47 0 0 1-5.298-9.721l-.467-3.409-1.053-7.773a1.724 1.724 0 1 1 3.419-.457l1.222 9.015c.13.944.994 1.601 1.939 1.481h.02a1.737 1.737 0 0 0 1.48-1.938l-1.222-9.015a1.724 1.724 0 1 1 3.42-.457l1.222 9.015c.129.944.994 1.6 1.938 1.481l.189-.03a1.73 1.73 0 0 0 1.48-1.938z"/><path fill="#13706D" d="M55.78 157.688a3.82 3.82 0 0 1-3.777-3.3l-3.807-35.454c-.189-1.411-1.819-2.803-3.131-3.916l-.14-.119a16.5 16.5 0 0 1-5.635-10.338l-1.52-11.182a2.727 2.727 0 0 1 2.325-3.061c1.491-.209 2.853.845 3.062 2.326l1.222 9.015c.05.398.418.676.825.626a.743.743 0 0 0 .646-.825l-1.222-9.015c-.1-.716.09-1.431.526-2.008a2.65 2.65 0 0 1 1.8-1.043c.715-.1 1.43.09 2.007.526a2.65 2.65 0 0 1 1.044 1.8l1.222 9.015a.8.8 0 0 0 .279.487.7.7 0 0 0 .537.139l.188-.03a.8.8 0 0 0 .487-.278.7.7 0 0 0 .14-.537l-1.223-9.015c-.199-1.481.845-2.863 2.326-3.062 1.48-.198 2.863.845 3.061 2.326l1.521 11.182a16.5 16.5 0 0 1-2.684 11.471l-.099.159c-.964 1.421-2.167 3.2-1.968 4.631l5.765 35.127a3.834 3.834 0 0 1-3.777 4.363zM40.463 92.286h-.1a.737.737 0 0 0-.626.825l1.521 11.182a14.54 14.54 0 0 0 4.96 9.095l.14.119c1.57 1.332 3.518 3.002 3.816 5.188l3.807 35.445c.129.974 1.053 1.67 2.047 1.54a1.826 1.826 0 0 0 1.56-2.057l-5.764-35.126c-.298-2.217 1.133-4.344 2.286-6.044l.1-.149a14.5 14.5 0 0 0 2.355-10.088l-1.52-11.182a.8.8 0 0 0-.279-.487.7.7 0 0 0-.537-.14.76.76 0 0 0-.487.279.7.7 0 0 0-.139.536l1.223 9.016c.1.715-.09 1.431-.527 2.007a2.65 2.65 0 0 1-1.8 1.044l-.188.02a2.7 2.7 0 0 1-2.008-.527 2.65 2.65 0 0 1-1.043-1.799l-1.223-9.015a.8.8 0 0 0-.278-.487.7.7 0 0 0-.537-.14.76.76 0 0 0-.487.28.7.7 0 0 0-.14.536l1.223 9.015a2.726 2.726 0 0 1-2.326 3.061 2.72 2.72 0 0 1-2.027-.526 2.66 2.66 0 0 1-1.044-1.799L41.2 92.892a.74.74 0 0 0-.726-.636zm85.57 11.48c-.12 0-.259-.03-.378-.079a.6.6 0 0 1-.169-.09 1 1 0 0 1-.368-.447 1 1 0 0 1-.079-.378c0-.258.109-.517.298-.705.04-.04.089-.09.149-.12a.6.6 0 0 1 .169-.089 1.01 1.01 0 0 1 1.083.209c.09.099.169.208.219.328a1 1 0 0 1 .069.377 1 1 0 0 1-.069.378c-.05.119-.129.229-.219.328a1 1 0 0 1-.318.209.9.9 0 0 1-.387.079"/><path fill="#C4EAE7" d="M189.884 167.896c1.153 0 2.286-.079 3.399-.228l7.485-36.956a4.83 4.83 0 0 1-3.181-.626 6.3 6.3 0 0 0-1.381-.616l-7.783 38.426h1.471zm19.004-46.318-8.985 44.35a26.5 26.5 0 0 0 5.427-3.012l8.488-41.905c-1.53-.238-3.459-.258-4.93.577zm7.465 17.881-2.803 13.816a26.34 26.34 0 0 0 2.803-11.848v-1.978z"/><path fill="#AFE0DD" d="M215.627 147.6c.358-1.511.597-3.072.686-4.682l-28.606-5.795c-.765 1.511-1.361 3.072-1.55 4.503zm.726-10.944v-4.82l-12.872-2.605c-.079.08-.159.169-.238.249-1.511 1.511-3.827 1.69-5.666.606-2.902-1.709-4.87-.387-4.87-.387s-.626.725-1.491 1.878l25.127 5.089zm-5.596 21.042a26 26 0 0 0 2.713-4.264l-28.148-5.705a127 127 0 0 1-1.084 4.592zm-11.967 8.658a26.4 26.4 0 0 0 6.6-3.479l-22.762-4.612c-.477 1.68-.934 3.24-1.322 4.552z"/><path fill="#E0F4F3" d="M127.931 115.614c1.044-.884 1.61-2.266 1.242-3.807a3.86 3.86 0 0 0-2.773-2.823c-1.103-.278-2.147-.089-2.982.418-1.023.616-2.266.676-3.449.477a5.7 5.7 0 0 0-2.266.08 5.51 5.51 0 0 0-4.095 4.204c-.755 3.598 1.988 7.067 5.427 6.759 4.662-.418 3.051-4.026 6.351-4.274"/><path fill="#13706D" d="M118.608 121.926c-1.66 0-3.251-.726-4.413-2.038a6.85 6.85 0 0 1-1.561-5.944 6.49 6.49 0 0 1 4.851-4.969 6.65 6.65 0 0 1 2.653-.09c1.134.189 2.068.08 2.774-.348a4.9 4.9 0 0 1 3.737-.527 4.86 4.86 0 0 1 3.499 3.559c.427 1.809-.16 3.598-1.571 4.791a.994.994 0 0 1-1.401-.12.984.984 0 0 1 .119-1.401c.835-.716 1.173-1.74.924-2.823-.238-.994-1.053-1.839-2.047-2.087-1.004-.249-1.76.03-2.227.308-1.123.676-2.514.875-4.125.596a4.8 4.8 0 0 0-1.868.07c-1.66.387-3.002 1.769-3.35 3.439a4.87 4.87 0 0 0 1.103 4.214c.865.974 2.048 1.471 3.27 1.352 2.018-.179 2.485-.964 3.072-1.968.566-.964 1.272-2.157 3.3-2.316a.991.991 0 0 1 .149 1.978c-.994.08-1.243.497-1.74 1.342-.666 1.123-1.57 2.664-4.602 2.932-.169.02-.347.02-.516.02zm61.535 45.712a1 1 0 0 1-.298-.05.986.986 0 0 1-.646-1.242c.06-.189 5.894-18.836 5.894-23.796 0-5.476 6.6-13.18 6.879-13.508a1 1 0 0 1 .198-.178c.1-.07 2.525-1.64 5.924.357 1.481.875 3.32.686 4.453-.447 1.73-1.729 2.922-3.509 3.549-5.298.487-1.371 1.381-2.375 2.653-2.972 3.201-1.51 7.743.11 7.932.179a.993.993 0 1 1-.676 1.869c-.039-.01-3.966-1.411-6.411-.249-.785.378-1.322.975-1.63 1.839-.725 2.068-2.077 4.095-4.025 6.034-1.779 1.779-4.602 2.097-6.868.755-1.969-1.153-3.35-.656-3.728-.467-.845 1.014-6.282 7.683-6.282 12.076 0 5.268-5.735 23.607-5.983 24.392a.99.99 0 0 1-.944.696z"/><path fill="#E0F4F3" d="M115.755 104.571a2.276 2.276 0 1 0 0-4.552 2.276 2.276 0 0 0 0 4.552"/><path fill="#13706D" d="M115.755 105.565a3.273 3.273 0 0 1-3.27-3.27 3.266 3.266 0 0 1 3.27-3.27 3.266 3.266 0 0 1 3.27 3.27 3.266 3.266 0 0 1-3.27 3.27m0-4.542c-.706 0-1.282.576-1.282 1.282s.576 1.282 1.282 1.282 1.282-.576 1.282-1.282-.576-1.282-1.282-1.282m69.08 65.899a1 1 0 0 1-.328-.06.98.98 0 0 1-.606-1.262c2.246-6.431 6.47-10.347 10.933-14.492 1.431-1.332 2.912-2.703 4.364-4.204 3.946-4.055 4.761-5.596 4.93-6.063-3.549-5.547-7.266-10.089-7.306-10.129a.995.995 0 1 1 1.541-1.262c.039.05 3.856 4.701 7.474 10.367.149.159.249.368.298.596.11.547.368 1.819-5.506 7.872-1.491 1.531-2.982 2.923-4.433 4.274-4.463 4.145-8.32 7.733-10.407 13.697a.99.99 0 0 1-.934.666zm19.75-25.584"/><path fill="#AFE0DD" d="M149.44 36.953c0 1.192-.934 2.156-2.077 2.156h-36.16c-1.143 0-2.078-.964-2.078-2.156s.935-2.157 2.078-2.157h36.16c1.143 0 2.077.964 2.077 2.157"/><path fill="#13706D" d="M147.363 40.103h-36.16c-1.69 0-3.072-1.411-3.072-3.15 0-1.74 1.382-3.151 3.072-3.151h36.16c1.689 0 3.071 1.411 3.071 3.15 0 1.74-1.382 3.151-3.071 3.151m-36.16-4.313c-.597 0-1.084.517-1.084 1.163s.487 1.162 1.084 1.162h36.16c.596 0 1.083-.516 1.083-1.162 0-.647-.487-1.163-1.083-1.163z"/><path fill="#AFE0DD" d="M134.243 56.464c0 1.193-.935 2.157-2.078 2.157h-20.962c-1.143 0-2.078-.964-2.078-2.157s.935-2.157 2.078-2.157h20.962c1.143 0 2.078.964 2.078 2.157"/><path fill="#13706D" d="M132.165 59.615h-20.962c-1.69 0-3.072-1.412-3.072-3.151 0-1.74 1.382-3.15 3.072-3.15h20.962c1.69 0 3.071 1.41 3.071 3.15s-1.381 3.15-3.071 3.15M111.203 55.3c-.597 0-1.084.517-1.084 1.163s.487 1.163 1.084 1.163h20.962c.597 0 1.084-.517 1.084-1.163s-.487-1.163-1.084-1.163z"/><path fill="#AFE0DD" d="M140.206 46.524c0 1.193-.934 2.157-2.077 2.157h-26.926c-1.143 0-2.078-.964-2.078-2.157 0-1.192.935-2.157 2.078-2.157h26.926c1.143 0 2.077.965 2.077 2.157"/><path fill="#13706D" d="M138.129 49.675h-26.926c-1.69 0-3.072-1.411-3.072-3.15 0-1.74 1.382-3.151 3.072-3.151h26.926c1.69 0 3.071 1.41 3.071 3.15s-1.381 3.151-3.071 3.151m-26.926-4.314c-.597 0-1.084.517-1.084 1.163s.487 1.163 1.084 1.163h26.926c.596 0 1.083-.517 1.083-1.163s-.487-1.163-1.083-1.163z"/><path fill="#AFE0DD" d="M92.974 37.996H68.81a3.26 3.26 0 0 0-3.26 3.26v20.625a3.26 3.26 0 0 0 3.26 3.26h24.162a3.26 3.26 0 0 0 3.26-3.26V41.256a3.26 3.26 0 0 0-3.26-3.26"/><path fill="#fff" d="M96.95 33.136H72.787a3.26 3.26 0 0 0-3.26 3.26V57.02a3.26 3.26 0 0 0 3.26 3.26H96.95a3.26 3.26 0 0 0 3.26-3.26V36.397c0-1.8-1.46-3.26-3.26-3.26"/><path fill="#13706D" d="M76.086 47.24v-6.063h-.04l-1.133.785c-.208.15-.348.199-.566.199-.447 0-.785-.338-.785-.805 0-.338.129-.596.457-.825l1.72-1.173c.486-.328.874-.378 1.331-.378.835 0 1.322.497 1.322 1.292v6.958c0 .696-.457 1.143-1.153 1.143s-1.153-.447-1.153-1.143zm4.711 0c0-.437.18-.745.636-1.133l2.605-2.356c1.063-.974 1.351-1.391 1.351-1.978 0-.656-.507-1.123-1.232-1.123-.596 0-1.014.288-1.342.895-.288.447-.556.626-1.024.626-.596 0-.954-.348-.954-.915 0-.178.03-.337.09-.507.397-1.043 1.61-1.848 3.27-1.848 2.077 0 3.439 1.103 3.439 2.713 0 1.163-.597 1.84-2.038 3.141l-1.809 1.65v.04h3.151c.586 0 .924.348.924.885 0 .536-.338.894-.924.894h-5.05c-.745 0-1.083-.417-1.083-.994zm-6.311 8.21v-3.439c0-.288.179-.447.427-.447.249 0 .428.159.428.447v1.938h.01l1.133-1.133c.109-.12.208-.169.338-.169.218 0 .377.16.377.368 0 .13-.04.209-.159.318l-.795.755.875 1.114c.09.129.12.198.12.308 0 .228-.17.387-.408.387-.18 0-.279-.06-.418-.268l-.805-1.063-.268.248v.636c0 .288-.18.447-.428.447s-.427-.149-.427-.447m3.359.984a.43.43 0 0 1-.06-.238c0-.18.13-.309.349-.309.109 0 .198.04.298.12.228.218.447.338.735.338.467 0 .736-.249.736-.646v-.497h-.02c-.15.338-.507.556-.964.556-.775 0-1.272-.596-1.272-1.55s.477-1.56 1.282-1.56c.447 0 .785.238.954.586h.02v-.17c0-.288.179-.427.427-.427.249 0 .428.14.428.428v2.634c0 .815-.587 1.302-1.59 1.292-.637 0-1.114-.249-1.313-.577zm2.058-2.197c0-.566-.279-.924-.696-.924s-.686.358-.686.924.259.905.686.905.696-.338.696-.905m2.942-.159c0-1.143.656-1.809 1.69-1.809.666 0 1.163.269 1.421.766q.09.164.09.328c0 .228-.16.377-.388.377-.199 0-.318-.08-.418-.278-.158-.328-.397-.487-.705-.487-.487 0-.795.418-.795 1.093 0 .676.308 1.104.795 1.104q.479.002.706-.487c.089-.19.198-.269.387-.269.249 0 .418.16.418.398 0 .09-.02.169-.06.258-.209.497-.765.815-1.441.815-1.074 0-1.72-.666-1.72-1.809zm3.817.01c0-1.113.666-1.809 1.73-1.809 1.063 0 1.729.696 1.729 1.81 0 1.113-.666 1.808-1.73 1.808-1.063 0-1.73-.695-1.73-1.809m2.544 0c0-.666-.328-1.093-.825-1.093s-.825.418-.825 1.093c0 .676.328 1.084.825 1.084s.825-.418.825-1.084m1.502 1.362c0-.169.07-.288.249-.437l1.003-.905c.408-.377.517-.536.517-.765 0-.249-.198-.428-.477-.428-.228 0-.387.11-.517.348-.109.17-.218.239-.397.239-.229 0-.368-.13-.368-.348 0-.07 0-.13.04-.199.149-.407.616-.705 1.252-.705.795 0 1.322.427 1.322 1.043 0 .447-.228.706-.785 1.213l-.696.636v.02h1.213c.228 0 .358.13.358.338s-.13.338-.358.338h-1.939c-.288 0-.417-.16-.417-.378zm3.201-.924c0-.855.507-1.402 1.312-1.402s1.302.517 1.302 1.233c0 .218-.12.338-.348.338h-1.441v.05c0 .317.209.536.527.536.238 0 .397-.08.586-.268a.36.36 0 0 1 .269-.11c.178 0 .318.11.318.299 0 .07-.02.129-.06.198-.179.309-.606.497-1.123.497-.845 0-1.352-.517-1.352-1.371zm1.799-.318c-.01-.289-.209-.468-.477-.468a.484.484 0 0 0-.487.468z"/></svg>