<svg width="120" height="98" viewBox="0 0 120 98" fill="none" xmlns="http://www.w3.org/2000/svg">
<path d="M58.7127 6.53333H61.2873C92.7873 6.53333 118.364 32.0623 118.364 63.504V76.9735C118.364 84.9769 111.856 91.4721 103.838 91.4721H16.1618C8.14364 91.4721 1.63636 84.9769 1.63636 76.9735V63.504C1.63636 32.0623 27.2127 6.53333 58.7127 6.53333Z" fill="#DCF0EF"/>
<path d="M72.0655 60.2101L75.9164 72.03C76.5327 73.9192 79.1782 74.0172 79.9309 72.1715L81.2727 68.8831C81.48 68.3713 81.8782 67.963 82.38 67.7398L86.4709 65.9213C88.2109 65.1482 88.1455 62.6655 86.3673 61.9795L74.8636 57.5641C73.1836 56.9217 71.5091 58.506 72.0655 60.2155V60.2101Z" fill="#C0E6E3"/>
<path d="M13.2382 29.0734H18.4909C21.3491 29.0734 23.6618 26.7649 23.6618 23.9121V18.5384C19.7455 21.5818 16.2436 25.1262 13.2382 29.0734Z" fill="#C0E6E3"/>
<path d="M3.76364 62.2845C6.62182 62.2845 8.93455 59.976 8.93455 57.1232V39.4777C8.93455 38.5358 8.67818 37.6538 8.23636 36.8916C4.20545 44.4975 1.84364 53.1215 1.65273 62.279H3.76364V62.2845Z" fill="#C0E6E3"/>
<path d="M36.4855 34.3218H18.7309C15.8751 34.3218 13.56 36.6326 13.56 39.4831V57.1231C13.56 59.9736 15.8751 62.2844 18.7309 62.2844H36.4855C39.3413 62.2844 41.6564 59.9736 41.6564 57.1231V39.4831C41.6564 36.6326 39.3413 34.3218 36.4855 34.3218Z" fill="#C0E6E3"/>
<path d="M118.364 67.6636C117.993 67.5819 117.611 67.5329 117.218 67.5329H99.4582C96.6 67.5329 94.2873 69.8413 94.2873 72.6942V90.3397C94.2873 90.7262 94.3364 91.1073 94.4127 91.4667H103.833C111.856 91.4667 118.358 84.9769 118.358 76.9681V67.6636H118.364Z" fill="#C0E6E3"/>
<path d="M23.6618 90.3397V72.6942C23.6618 69.8413 21.3491 67.5329 18.4909 67.5329H1.63636V76.9681C1.63636 84.9769 8.13818 91.4667 16.1618 91.4667H23.5364C23.6182 91.1019 23.6618 90.7262 23.6618 90.3397Z" fill="#C0E6E3"/>
<path d="M56.9345 23.9175V6.56604C46.6527 6.88182 37.0527 9.90893 28.8382 14.9559V23.9175C28.8382 26.7704 31.1509 29.0788 34.0091 29.0788H51.7691C54.6273 29.0788 56.94 26.7704 56.94 23.9175H56.9345Z" fill="#C0E6E3"/>
<path d="M62.1055 23.9175C62.1055 26.7704 64.4182 29.0788 67.2764 29.0788H85.0364C87.8945 29.0788 90.2073 26.7704 90.2073 23.9175V14.3843C81.9491 9.52781 72.3545 6.69125 62.1109 6.54425V23.9175H62.1055Z" fill="#C0E6E3"/>
<path d="M101.395 34.3218H83.64C80.7842 34.3218 78.4691 36.6326 78.4691 39.4831V57.1231C78.4691 59.9736 80.7842 62.2844 83.64 62.2844H101.395C104.25 62.2844 106.565 59.9736 106.565 57.1231V39.4831C106.565 36.6326 104.25 34.3218 101.395 34.3218Z" fill="#C0E6E3"/>
<path d="M56.9345 90.3397V72.6942C56.9345 69.8413 54.6218 67.5329 51.7636 67.5329H34.0036C31.1455 67.5329 28.8327 69.8413 28.8327 72.6942V90.3397C28.8327 90.7262 28.8818 91.1073 28.9582 91.4667H56.7982C56.88 91.1019 56.9236 90.7262 56.9236 90.3397H56.9345Z" fill="#C0E6E3"/>
<path d="M110.651 39.4831V57.1286C110.651 59.9815 112.964 62.2899 115.822 62.2899H118.347C118.151 52.9908 115.724 44.2362 111.578 36.5432C110.995 37.3762 110.656 38.3888 110.656 39.4831H110.651Z" fill="#C0E6E3"/>
<path d="M90.2073 90.3397V72.6942C90.2073 69.8413 87.8945 67.5329 85.0364 67.5329H67.2764C64.4182 67.5329 62.1055 69.8413 62.1055 72.6942V90.3397C62.1055 90.7262 62.1545 91.1073 62.2309 91.4667H90.0709C90.1527 91.1019 90.1964 90.7262 90.1964 90.3397H90.2073Z" fill="#C0E6E3"/>
<path d="M94.2873 23.9175C94.2873 26.7703 96.6 29.0788 99.4582 29.0788H106.762C103.244 24.4565 99.0382 20.384 94.2873 17.0193V23.9175Z" fill="#C0E6E3"/>
<path d="M56.7164 33.222H56.7109C46.0468 33.222 37.4018 41.8509 37.4018 52.4953V52.5933C37.4018 63.2377 46.0468 71.8666 56.7109 71.8666H56.7164C67.3805 71.8666 76.0255 63.2377 76.0255 52.5933V52.4953C76.0255 41.8509 67.3805 33.222 56.7164 33.222Z" fill="#C0E6E3"/>
<path d="M60.0545 30.184H59.9455C49.92 30.184 41.7927 38.2962 41.7927 48.3031C41.7927 58.31 49.92 66.4222 59.9455 66.4222H60.0545C70.08 66.4222 78.2073 58.31 78.2073 48.3031C78.2073 38.2962 70.08 30.184 60.0545 30.184Z" fill="white"/>
<path d="M60.0545 66.9666H59.9509C49.6418 66.9666 41.2527 58.5931 41.2527 48.3031C41.2527 38.0131 49.6418 29.6395 59.9509 29.6395H60.0545C70.3636 29.6395 78.7527 38.0131 78.7527 48.3031C78.7527 58.5931 70.3636 66.9666 60.0545 66.9666ZM59.9455 30.7284C50.2364 30.7284 42.3382 38.612 42.3382 48.3031C42.3382 57.9942 50.2364 65.8777 59.9455 65.8777H60.0491C69.7582 65.8777 77.6564 57.9942 77.6564 48.3031C77.6564 38.612 69.7582 30.7284 60.0491 30.7284H59.9455Z" fill="#13706D"/>
<path d="M59.9946 49.6479C59.6946 49.6479 59.4491 49.4029 59.4491 49.1034V40.2235C59.4491 39.9241 59.6946 39.6791 59.9946 39.6791C60.2946 39.6791 60.54 39.9241 60.54 40.2235V49.1034C60.54 49.4029 60.2946 49.6479 59.9946 49.6479Z" fill="#13706D"/>
<path d="M60.0273 50.508C59.8855 50.508 59.7491 50.4536 59.64 50.3502L55.3309 46.0491C55.1182 45.8367 55.1182 45.4937 55.3309 45.2814C55.5436 45.069 55.8873 45.069 56.1 45.2814L60.0273 49.2014L63.8945 45.3413C64.1073 45.1289 64.4509 45.1289 64.6636 45.3413C64.8764 45.5536 64.8764 45.8966 64.6636 46.1089L60.4091 50.3556C60.3 50.4645 60.1636 50.5135 60.0218 50.5135L60.0273 50.508Z" fill="#13706D"/>
<path d="M67.3146 54.2974H52.5545C52.2545 54.2974 52.0091 54.0524 52.0091 53.753V49.2667C52.0091 48.9673 52.2545 48.7223 52.5545 48.7223C52.8545 48.7223 53.1 48.9673 53.1 49.2667V53.2085H66.7691V49.2667C66.7691 48.9673 67.0146 48.7223 67.3146 48.7223C67.6146 48.7223 67.86 48.9673 67.86 49.2667V53.753C67.86 54.0524 67.6146 54.2974 67.3146 54.2974Z" fill="#13706D"/>
<g opacity="0.6">
<path d="M28.14 44.2525L20.5309 43.2126C20.1982 43.169 19.9036 43.267 19.7455 43.4848C19.4182 43.9367 19.7618 44.6935 20.4436 45.0092L26.1164 47.677" fill="white"/>
<path d="M26.1218 48.2215C26.0455 48.2215 25.9636 48.2051 25.8927 48.167L20.22 45.4992C19.68 45.2433 19.26 44.7642 19.1291 44.2361C19.0255 43.8387 19.0964 43.4576 19.3145 43.1581C19.5927 42.777 20.0782 42.5919 20.6127 42.6681L28.2218 43.708C28.5218 43.7516 28.7291 44.0238 28.6909 44.3232C28.6473 44.6227 28.3745 44.8296 28.0745 44.786L20.4655 43.7461C20.3236 43.7243 20.2255 43.7625 20.1982 43.8006C20.1655 43.8496 20.1818 43.9312 20.1873 43.9693C20.2309 44.1436 20.4055 44.3831 20.6891 44.5138L26.3618 47.1816C26.6345 47.3122 26.7491 47.6335 26.6236 47.9057C26.5309 48.1017 26.3345 48.216 26.1273 48.216L26.1218 48.2215Z" fill="#13706D"/>
<path d="M24 50.5735L21.8509 50.9655C21.4036 51.0472 21.0982 51.4555 21.1473 51.9074C21.1909 52.3266 21.5291 52.6533 21.9491 52.6805L24.3055 52.8438" fill="white"/>
<path d="M24.3 53.3882C24.3 53.3882 24.2727 53.3882 24.2618 53.3882L21.9055 53.2249C21.2182 53.1759 20.6673 52.6478 20.5964 51.9618C20.52 51.2322 21.0273 50.5626 21.7473 50.4319L23.8964 50.0399C24.1909 49.9855 24.4745 50.1815 24.5291 50.4755C24.5836 50.7695 24.3873 51.0526 24.0927 51.107L21.9436 51.499C21.78 51.5317 21.6655 51.6841 21.6818 51.8475C21.6982 52.0053 21.8236 52.1251 21.9818 52.136L24.3382 52.2993C24.6382 52.3211 24.8673 52.5825 24.8455 52.8819C24.8236 53.1705 24.5836 53.3882 24.3 53.3882Z" fill="#13706D"/>
<path d="M26.5636 52.4464L26.8418 54.6078C26.8964 55.0542 26.6018 55.4735 26.16 55.566C25.7454 55.6531 25.3309 55.4299 25.1782 55.0379L24.3055 52.8492" fill="white"/>
<path d="M25.9745 56.1268C25.4073 56.1268 24.8836 55.7838 24.6655 55.2339L23.7927 53.0452C23.6836 52.7676 23.82 52.4518 24.0982 52.3374C24.3764 52.2286 24.6927 52.3647 24.8073 52.6423L25.68 54.831C25.74 54.978 25.8927 55.0597 26.0455 55.027C26.2091 54.9943 26.3182 54.8364 26.2964 54.6731L26.0236 52.5117C25.9855 52.2122 26.1982 51.94 26.4982 51.9019C26.7982 51.8692 27.0709 52.0761 27.1091 52.3756L27.3818 54.537C27.4745 55.2611 26.9836 55.9471 26.2691 56.0941C26.1709 56.1159 26.0727 56.1268 25.98 56.1268H25.9745Z" fill="#13706D"/>
<path d="M24.3 52.8438C23.8145 52.4899 23.6782 51.8311 23.9782 51.3085L28.0309 44.3668C28.8055 43.0438 29.9945 42.0148 31.4182 41.4486C32.22 41.1274 33.0764 41.7535 33.0164 42.6137C32.9073 44.1436 32.2855 45.5864 31.2545 46.7243L25.86 52.6805C25.4564 53.1269 24.7855 53.1923 24.3 52.8384V52.8438Z" fill="white"/>
<path d="M24.9927 53.6169C24.6382 53.6169 24.2836 53.508 23.9782 53.2848C23.2691 52.7676 23.0673 51.7985 23.5091 51.0362L27.5618 44.0946C28.3909 42.6736 29.6891 41.552 31.2218 40.9422C31.7727 40.7245 32.3891 40.8007 32.8691 41.1491C33.3491 41.4976 33.6109 42.0584 33.5673 42.6518C33.4473 44.2906 32.7709 45.8695 31.6691 47.089L26.2745 53.0452C25.9364 53.4209 25.4727 53.6115 25.0036 53.6115L24.9927 53.6169ZM24.6218 52.4082C24.8836 52.5988 25.2382 52.5607 25.4564 52.3211L30.8509 46.3649C31.7945 45.325 32.3673 43.9802 32.4709 42.581C32.4873 42.3632 32.3945 42.1672 32.22 42.0366C32.0455 41.9059 31.8273 41.8787 31.6255 41.9604C30.3218 42.483 29.2091 43.4358 28.5055 44.6499L24.4527 51.5916C24.2891 51.8692 24.3655 52.2231 24.6218 52.4082Z" fill="#13706D"/>
<path d="M31.7018 46.8494L35.0073 53.7693C35.1545 54.0742 35.1436 54.3791 34.9855 54.5969C34.6582 55.0488 33.8291 54.9453 33.3164 54.3954L29.0509 49.8058" fill="white"/>
<path d="M34.3582 55.4299C33.8455 55.4299 33.3 55.1849 32.9127 54.7711L28.6473 50.1815C28.44 49.9637 28.4564 49.6152 28.6745 49.4138C28.8927 49.2069 29.2418 49.2232 29.4436 49.441L33.7091 54.0307C33.9218 54.2593 34.2109 54.3519 34.38 54.341C34.4182 54.341 34.5055 54.3301 34.5382 54.2811C34.5655 54.243 34.5709 54.1396 34.5109 54.0089L31.2055 47.089C31.0745 46.8168 31.1891 46.4901 31.4618 46.3649C31.7345 46.2342 32.0618 46.3486 32.1873 46.6208L35.4927 53.5407C35.7273 54.0252 35.7 54.5479 35.4164 54.9236C35.1982 55.223 34.8491 55.4027 34.44 55.4245C34.4073 55.4245 34.38 55.4245 34.3473 55.4245L34.3582 55.4299Z" fill="#13706D"/>
<path d="M30.5782 43.6754H30.5836C30.8127 43.7462 31.0036 43.8877 31.14 44.0837" fill="white"/>
<path d="M31.1345 44.6282C30.96 44.6282 30.7855 44.5465 30.6818 44.3886C30.6218 44.2961 30.5291 44.2307 30.4255 44.1981C30.1364 44.1109 29.9727 43.8115 30.0545 43.5229C30.1418 43.2344 30.4364 43.0711 30.7255 43.1527H30.7309C31.08 43.2562 31.3855 43.4794 31.5873 43.7788C31.7564 44.0293 31.6909 44.3668 31.44 44.5356C31.3473 44.6009 31.2382 44.6282 31.1345 44.6282Z" fill="#13706D"/>
<path d="M30.6055 53.4971C30.4909 53.4971 30.3818 53.4645 30.2836 53.3937C30.0382 53.214 29.9891 52.8765 30.1636 52.6315L30.7418 51.842C30.9218 51.597 31.26 51.548 31.5055 51.7223C31.7509 51.9019 31.8 52.2395 31.6255 52.4845L31.0473 53.2739C30.9382 53.4209 30.7745 53.4971 30.6055 53.4971Z" fill="#13706D"/>
<path d="M22.4236 47.5083C22.3091 47.5083 22.2 47.4756 22.1018 47.4048C21.8564 47.2251 21.8073 46.8876 21.9818 46.6426L22.56 45.8531C22.74 45.6081 23.0782 45.5591 23.3236 45.7334C23.5691 45.913 23.6182 46.2506 23.4436 46.4956L22.8655 47.285C22.7564 47.432 22.5927 47.5083 22.4236 47.5083Z" fill="#13706D"/>
</g>
<g opacity="0.6">
<path d="M83.6618 79.8156H69.1582V87.3343H83.6618V79.8156Z" fill="white"/>
<path d="M83.6618 87.8788H69.1582C68.8582 87.8788 68.6127 87.6338 68.6127 87.3343V79.8156C68.6127 79.5161 68.8582 79.2711 69.1582 79.2711H83.6618C83.9618 79.2711 84.2073 79.5161 84.2073 79.8156V87.3343C84.2073 87.6338 83.9618 87.8788 83.6618 87.8788ZM69.6982 86.7899H83.1109V80.36H69.6982V86.7899Z" fill="#13706D"/>
<path d="M69.1582 79.7393C69.1582 79.7393 69.9 75.852 75.5836 75.1333L83.6673 79.7393H69.1636H69.1582Z" fill="#C0E6E3"/>
<path d="M83.662 80.2838H69.1584C68.9947 80.2838 68.842 80.213 68.7384 80.0878C68.6347 79.9625 68.5911 79.7992 68.6238 79.6413C68.6565 79.4671 69.5129 75.3565 75.5129 74.5943C75.6275 74.578 75.7475 74.6052 75.8511 74.6596L83.9347 79.2656C84.1475 79.3854 84.2565 79.6413 84.1911 79.8754C84.1256 80.115 83.9129 80.2783 83.662 80.2783V80.2838ZM69.9165 79.1949H81.6056L75.4693 75.6941C71.7547 76.2168 70.3856 78.1604 69.9165 79.1949Z" fill="#13706D"/>
<path d="M73.1782 85.897C73.853 85.897 74.4 85.3778 74.4 84.7373C74.4 84.0968 73.853 83.5776 73.1782 83.5776C72.5034 83.5776 71.9564 84.0968 71.9564 84.7373C71.9564 85.3778 72.5034 85.897 73.1782 85.897Z" fill="#C0E6E3"/>
<path d="M73.1782 86.4414C72.2018 86.4414 71.4109 85.6792 71.4109 84.7373C71.4109 83.7954 72.2018 83.0332 73.1782 83.0332C74.1546 83.0332 74.9455 83.7954 74.9455 84.7373C74.9455 85.6792 74.1546 86.4414 73.1782 86.4414ZM73.1782 84.1167C72.8073 84.1167 72.5018 84.3943 72.5018 84.7319C72.5018 85.0694 72.8018 85.3471 73.1782 85.3471C73.5546 85.3471 73.8545 85.0694 73.8545 84.7319C73.8545 84.3943 73.5546 84.1167 73.1782 84.1167Z" fill="#13706D"/>
<path d="M83.6618 82.908C83.4055 82.7174 83.0836 82.6031 82.7291 82.6031C81.8945 82.6031 81.2127 83.2455 81.2127 84.0404C81.2127 84.8353 81.8891 85.4778 82.7291 85.4778C83.0836 85.4778 83.4055 85.3634 83.6618 85.1729V82.908Z" fill="#C0E6E3"/>
<path d="M82.7291 86.0276C81.5945 86.0276 80.6673 85.1402 80.6673 84.0459C80.6673 82.9515 81.5891 82.0641 82.7291 82.0641C83.1873 82.0641 83.6236 82.2056 83.9891 82.4779C84.1255 82.5813 84.2073 82.7446 84.2073 82.9134V85.1783C84.2073 85.3525 84.1255 85.5104 83.9891 85.6139C83.6236 85.8861 83.1873 86.0276 82.7291 86.0276ZM82.7291 83.1475C82.1945 83.1475 81.7582 83.5504 81.7582 84.0404C81.7582 84.5304 82.1945 84.9333 82.7291 84.9333C82.8655 84.9333 82.9964 84.9061 83.1164 84.8571V83.2183C82.9964 83.1693 82.8655 83.1421 82.7291 83.1421V83.1475Z" fill="#13706D"/>
<path d="M76.2982 80.6431C76.2982 81.2855 76.8436 81.8028 77.52 81.8028C78.1964 81.8028 78.7418 81.2855 78.7418 80.6431C78.7418 80.3164 78.6 80.0279 78.3764 79.8156H76.6691C76.4455 80.0279 76.3036 80.3164 76.3036 80.6431H76.2982Z" fill="#C0E6E3"/>
<path d="M77.52 82.3472C76.5436 82.3472 75.7527 81.585 75.7527 80.6431C75.7527 80.1803 75.9436 79.7448 76.2927 79.4181C76.3964 79.3256 76.5273 79.2711 76.6636 79.2711H78.3709C78.5073 79.2711 78.6436 79.3256 78.7418 79.4181C79.0909 79.7448 79.2818 80.1803 79.2818 80.6431C79.2818 81.585 78.4909 82.3472 77.5145 82.3472H77.52ZM76.92 80.36C76.8709 80.4471 76.8436 80.5451 76.8436 80.6431C76.8436 80.9807 77.1436 81.2583 77.52 81.2583C77.8964 81.2583 78.1964 80.9807 78.1964 80.6431C78.1964 80.5451 78.1691 80.4471 78.12 80.36H76.92Z" fill="#13706D"/>
<path d="M75.4145 75.1551C69.8891 75.9282 69.1582 79.7393 69.1582 79.7393H73.6527C73.4073 79.2657 73.2327 78.7593 73.1836 78.2366C73.02 76.6578 74.3564 75.6778 75.42 75.1551H75.4145Z" fill="#ABDCD9"/>
<path d="M83.662 80.2838H69.1584C68.9947 80.2838 68.842 80.213 68.7384 80.0878C68.6347 79.9625 68.5911 79.7992 68.6238 79.6413C68.6565 79.4671 69.5129 75.3565 75.5129 74.5943C75.6275 74.578 75.7475 74.6052 75.8511 74.6596L83.9347 79.2656C84.1475 79.3854 84.2565 79.6413 84.1911 79.8754C84.1256 80.115 83.9129 80.2783 83.662 80.2783V80.2838ZM69.9165 79.1949H81.6056L75.4693 75.6941C71.7547 76.2168 70.3856 78.1604 69.9165 79.1949Z" fill="#13706D"/>
<path d="M83.6618 87.8788H69.1582C68.8582 87.8788 68.6127 87.6338 68.6127 87.3343V79.8156C68.6127 79.5161 68.8582 79.2711 69.1582 79.2711H83.6618C83.9618 79.2711 84.2073 79.5161 84.2073 79.8156V87.3343C84.2073 87.6338 83.9618 87.8788 83.6618 87.8788ZM69.6982 86.7899H83.1109V80.36H69.6982V86.7899Z" fill="#13706D"/>
</g>
<g opacity="0.6">
<path d="M92.3018 54.0143H93.4309C94.0364 54.0143 94.6036 53.6931 94.8927 53.1649C96.1745 50.8293 96.1145 47.7042 96.1145 47.7042H87.5782C87.5782 47.7042 87.5127 50.8293 88.8 53.1649C89.0891 53.6931 89.6564 54.0143 90.2618 54.0143H92.3018Z" fill="white"/>
<path d="M93.4364 54.5587H90.2618C89.4491 54.5587 88.7073 54.1232 88.32 53.4263C86.9836 50.9926 87.0327 47.8294 87.0327 47.6933C87.0382 47.3993 87.2836 47.1597 87.5782 47.1597H96.1145C96.4091 47.1597 96.6545 47.3993 96.66 47.6933C96.66 47.8294 96.7091 50.9926 95.3727 53.4263C94.9909 54.1232 94.2436 54.5587 93.4309 54.5587H93.4364ZM88.1345 48.2486C88.1782 49.2068 88.3855 51.2812 89.2745 52.9036C89.4655 53.2521 89.8418 53.4698 90.2564 53.4698H93.4309C93.8454 53.4698 94.2218 53.2521 94.4182 52.9036C95.3073 51.2812 95.5145 49.2123 95.5582 48.2486H88.1345Z" fill="#13706D"/>
<path d="M96.4309 52.4245H95.4109C95.1109 52.4245 94.8654 52.1795 94.8654 51.88C94.8654 51.5806 95.1109 51.3356 95.4109 51.3356H96.4309C96.8673 51.3356 97.2327 51.0089 97.2927 50.5788C97.3254 50.3284 97.2491 50.0888 97.0855 49.8983C96.9164 49.7077 96.6873 49.6043 96.4364 49.6043H96.0545C95.7545 49.6043 95.5091 49.3593 95.5091 49.0598C95.5091 48.7604 95.7545 48.5154 96.0545 48.5154H96.4364C96.9982 48.5154 97.5327 48.7549 97.9036 49.1796C98.2745 49.5988 98.4491 50.165 98.3782 50.7204C98.2527 51.6949 97.4182 52.4245 96.4364 52.4245H96.4309Z" fill="#13706D"/>
<path d="M96.6273 53.9H86.9182C86.9182 53.9 86.46 55.8817 91.8491 55.8817C97.2382 55.8817 96.6273 53.9 96.6273 53.9Z" fill="white"/>
<path d="M91.8491 56.4262C89.1982 56.4262 87.48 55.9525 86.7382 55.0215C86.2527 54.4172 86.3727 53.8346 86.3836 53.7748C86.4382 53.5298 86.6618 53.3555 86.9127 53.3555H96.6218C96.8618 53.3555 97.0745 53.5134 97.1455 53.7421C97.1673 53.8074 97.3309 54.4009 96.8673 55.027C96.18 55.958 94.4891 56.4316 91.8491 56.4316V56.4262ZM87.6764 54.4444C88.0418 54.8038 89.0564 55.3373 91.8436 55.3373C94.6309 55.3373 95.6618 54.7384 95.9291 54.4444H87.6709H87.6764Z" fill="#13706D"/>
<path d="M90.5564 46.1743C90.3545 46.1743 90.1636 46.0654 90.0655 45.8749L89.6236 44.9929C89.1655 44.0782 89.2582 43.0002 89.8636 42.1726C90.2509 41.6445 90.2836 40.9368 89.9509 40.376L89.3891 39.4341C89.2364 39.1782 89.3182 38.8406 89.58 38.6882C89.8364 38.5358 90.1746 38.6174 90.3273 38.8788L90.8891 39.8206C91.4509 40.7571 91.3964 41.9385 90.7473 42.8205C90.3873 43.316 90.3327 43.9639 90.6055 44.5083L91.0473 45.3903C91.1836 45.6571 91.0745 45.9838 90.8018 46.1199C90.7255 46.158 90.6382 46.1798 90.5564 46.1798V46.1743Z" fill="#13706D"/>
<path d="M93.7418 46.403C93.54 46.403 93.3491 46.2941 93.2509 46.1035L92.9673 45.5318C92.64 44.8785 92.7055 44.0999 93.1364 43.5119C93.3382 43.2343 93.36 42.8586 93.18 42.5646L92.8145 41.9548C92.6618 41.6989 92.7436 41.3614 93.0055 41.209C93.2618 41.0565 93.6 41.1382 93.7527 41.3995L94.1182 42.0093C94.5218 42.6844 94.4836 43.5283 94.02 44.1598C93.8291 44.4212 93.8018 44.7642 93.9436 45.0527L94.2273 45.6244C94.3636 45.8912 94.2545 46.2178 93.9818 46.354C93.9055 46.3921 93.8182 46.4138 93.7364 46.4138L93.7418 46.403Z" fill="#13706D"/>
</g>
<g opacity="0.6">
<path d="M47.7491 18.4186C47.5036 20.678 45.4527 22.7578 43.0091 22.2188C40.4618 22.8286 38.6455 20.6562 38.2691 18.4186C37.86 15.9958 38.6127 12.6148 43.0091 14.6183C47.8964 13.0122 48.0327 15.8488 47.7491 18.4186Z" fill="#ABDCD9"/>
<path d="M42.1473 22.8667C41.3836 22.8667 40.6527 22.6435 39.9927 22.2134C38.8364 21.4457 37.9855 20.0628 37.7236 18.5111C37.4618 16.9758 37.6364 14.994 38.8964 14.0249C39.8782 13.2736 41.2691 13.2736 43.0364 14.0358C45.0273 13.4151 46.4345 13.4641 47.3345 14.1937C48.4855 15.1247 48.4582 16.8832 48.2891 18.4785C48.1364 19.894 47.3618 21.2279 46.2218 22.0446C45.2673 22.7306 44.1327 22.9865 43.0091 22.7796C42.72 22.8395 42.4309 22.8721 42.1473 22.8721V22.8667ZM40.6691 14.553C40.26 14.553 39.8727 14.6456 39.5618 14.8851C38.6836 15.5602 38.6018 17.1609 38.7982 18.326C39.0109 19.5674 39.6982 20.7107 40.5927 21.3041C41.28 21.756 42.0491 21.8867 42.8727 21.6907C42.9545 21.6744 43.0364 21.6689 43.1182 21.6907C44.2145 21.9302 45.0655 21.5382 45.5836 21.1626C46.4618 20.531 47.0836 19.4585 47.2036 18.3641C47.34 17.1337 47.3945 15.6419 46.6473 15.043C46.0364 14.553 44.8691 14.5802 43.1727 15.141C43.0418 15.1846 42.9 15.1737 42.7745 15.1192C42.1418 14.8307 41.3673 14.5639 40.6636 14.5639L40.6691 14.553Z" fill="#13706D"/>
<path d="M43.0036 14.0085C43.0036 14.0085 43.5273 12.0703 41.6891 11.2047L43.0036 14.0085Z" fill="white"/>
<path d="M43.0036 14.553C42.9545 14.553 42.9109 14.5476 42.8618 14.5312C42.5727 14.455 42.3982 14.1556 42.4745 13.867C42.5127 13.7091 42.8182 12.3371 41.4545 11.6947C41.1818 11.5694 41.0673 11.2428 41.1927 10.9706C41.3236 10.6983 41.6455 10.584 41.9182 10.7092C43.7018 11.5477 43.7509 13.3226 43.5327 14.1447C43.4673 14.3897 43.2491 14.5476 43.0091 14.5476L43.0036 14.553Z" fill="#13706D"/>
<path d="M43.0036 12.6094C43.0036 12.6094 43.0855 9.31003 47.4491 9.85992C47.4491 9.85992 46.9745 12.7128 43.0036 12.6094Z" fill="white"/>
<path d="M43.2218 13.1538C43.1455 13.1538 43.0691 13.1538 42.9927 13.1538C42.6927 13.1483 42.4527 12.8979 42.4636 12.5985C42.4636 12.5386 42.5127 11.1557 43.6527 10.1811C44.5582 9.40256 45.8618 9.11401 47.5255 9.32634C47.6727 9.34267 47.8036 9.42434 47.8964 9.54412C47.9836 9.6639 48.0218 9.8109 47.9945 9.9579C47.9945 9.99056 47.4109 13.1647 43.2273 13.1647L43.2218 13.1538ZM46.5109 10.3445C45.5945 10.3445 44.88 10.5622 44.3673 10.9923C43.98 11.319 43.7782 11.7273 43.6691 12.054C45.5673 11.9233 46.3691 10.9815 46.6964 10.3499C46.6309 10.3499 46.5709 10.3499 46.5109 10.3499V10.3445Z" fill="#13706D"/>
<path d="M40.8273 17.5583C41.3695 17.5583 41.8091 17.1196 41.8091 16.5783C41.8091 16.0371 41.3695 15.5983 40.8273 15.5983C40.285 15.5983 39.8455 16.0371 39.8455 16.5783C39.8455 17.1196 40.285 17.5583 40.8273 17.5583Z" fill="white"/>
</g>
<g opacity="0.6">
<path d="M70.3691 16.6274V17.8851C70.3691 18.5275 70.8927 19.0502 71.5364 19.0502H81.6491C82.1018 19.0502 82.4673 18.6854 82.4673 18.2335V17.1283C82.4673 16.4586 81.9218 15.9087 81.2454 15.9087H79.2327L78.4036 13.731C78.12 12.9851 77.4 12.4896 76.6036 12.4896H74.3182C73.1291 12.4896 72.0327 13.143 71.4709 14.1883L70.5436 15.9087C70.4236 16.1265 70.3636 16.3715 70.3636 16.622L70.3691 16.6274Z" fill="#ABDCD9"/>
<path d="M81.6491 19.5946H71.5364C70.5927 19.5946 69.8236 18.827 69.8236 17.8851V16.6274C69.8236 16.2899 69.9109 15.9523 70.0691 15.6529L70.9964 13.9324C71.6564 12.7074 72.9327 11.9452 74.3236 11.9452H76.6091C77.6291 11.9452 78.5618 12.5876 78.9218 13.5404L79.6145 15.3643H81.2509C82.2218 15.3643 83.0182 16.1537 83.0182 17.1283V18.2335C83.0182 18.9849 82.4073 19.5946 81.6545 19.5946H81.6491ZM74.3182 13.0395C73.3255 13.0395 72.42 13.5785 71.9509 14.4496L71.0236 16.1701C70.9473 16.3116 70.9091 16.4695 70.9091 16.6274V17.8851C70.9091 18.2281 71.1873 18.5057 71.5309 18.5057H81.6436C81.7964 18.5057 81.9164 18.3805 81.9164 18.2335V17.1283C81.9164 16.7581 81.6164 16.4532 81.24 16.4532H79.2273C78.9982 16.4532 78.7964 16.3116 78.72 16.0993L77.8909 13.9215C77.6891 13.388 77.1709 13.0286 76.5982 13.0286H74.3127L74.3182 13.0395Z" fill="#13706D"/>
<path d="M73.0309 21.0537C73.8232 21.0537 74.4655 20.4126 74.4655 19.6218C74.4655 18.831 73.8232 18.1899 73.0309 18.1899C72.2386 18.1899 71.5964 18.831 71.5964 19.6218C71.5964 20.4126 72.2386 21.0537 73.0309 21.0537Z" fill="white"/>
<path d="M73.0309 21.5981C71.94 21.5981 71.0509 20.7107 71.0509 19.6218C71.0509 18.5329 71.94 17.6454 73.0309 17.6454C74.1218 17.6454 75.0109 18.5329 75.0109 19.6218C75.0109 20.7107 74.1218 21.5981 73.0309 21.5981ZM73.0309 18.7343C72.54 18.7343 72.1418 19.1318 72.1418 19.6218C72.1418 20.1118 72.54 20.5092 73.0309 20.5092C73.5218 20.5092 73.92 20.1118 73.92 19.6218C73.92 19.1318 73.5218 18.7343 73.0309 18.7343Z" fill="#13706D"/>
<path d="M78.9655 21.0537C79.7577 21.0537 80.4 20.4126 80.4 19.6218C80.4 18.831 79.7577 18.1899 78.9655 18.1899C78.1732 18.1899 77.5309 18.831 77.5309 19.6218C77.5309 20.4126 78.1732 21.0537 78.9655 21.0537Z" fill="white"/>
<path d="M78.9655 21.5981C77.8746 21.5981 76.9855 20.7107 76.9855 19.6218C76.9855 18.5329 77.8746 17.6454 78.9655 17.6454C80.0564 17.6454 80.9455 18.5329 80.9455 19.6218C80.9455 20.7107 80.0564 21.5981 78.9655 21.5981ZM78.9655 18.7343C78.4746 18.7343 78.0764 19.1318 78.0764 19.6218C78.0764 20.1118 78.4746 20.5092 78.9655 20.5092C79.4564 20.5092 79.8545 20.1118 79.8545 19.6218C79.8545 19.1318 79.4564 18.7343 78.9655 18.7343Z" fill="#13706D"/>
<path d="M79.2382 15.9087H70.5491L71.4982 14.1447C72.0491 13.1266 73.1127 12.4896 74.2746 12.4896H76.7509C77.4709 12.4896 78.1091 12.9306 78.3655 13.6002L79.2436 15.9087H79.2382Z" fill="white"/>
<path d="M79.2382 16.4531H70.5491C70.3582 16.4531 70.1782 16.3497 70.08 16.1864C69.9818 16.023 69.9764 15.8161 70.0691 15.6474L71.0182 13.8834C71.6618 12.6856 72.9109 11.9397 74.2746 11.9397H76.7509C77.6891 11.9397 78.5455 12.5277 78.8727 13.4043L79.7509 15.7073C79.8164 15.876 79.7946 16.0611 79.6909 16.2081C79.5873 16.3551 79.4236 16.4423 79.2436 16.4423L79.2382 16.4531ZM71.46 15.3643H78.4473L77.8527 13.7963C77.6782 13.3389 77.2364 13.034 76.7509 13.034H74.2746C73.3146 13.034 72.4364 13.5567 71.9836 14.4006L71.4655 15.3588L71.46 15.3643Z" fill="#13706D"/>
<path d="M75.4364 16.4531C75.1364 16.4531 74.8909 16.2081 74.8909 15.9087V12.4896C74.8909 12.1901 75.1364 11.9451 75.4364 11.9451C75.7364 11.9451 75.9818 12.1901 75.9818 12.4896V15.9087C75.9818 16.2081 75.7364 16.4531 75.4364 16.4531Z" fill="#13706D"/>
</g>
<g opacity="0.6">
<path d="M111.098 74.2458H104.373C103.815 74.2458 103.364 74.6968 103.364 75.2531V86.2617C103.364 86.818 103.815 87.269 104.373 87.269H111.098C111.655 87.269 112.107 86.818 112.107 86.2617V75.2531C112.107 74.6968 111.655 74.2458 111.098 74.2458Z" fill="#ABDCD9"/>
<path d="M111.098 87.8134H104.373C103.516 87.8134 102.818 87.1165 102.818 86.2618V75.2531C102.818 74.3983 103.516 73.7014 104.373 73.7014H111.098C111.955 73.7014 112.653 74.3983 112.653 75.2531V86.2618C112.653 87.1165 111.955 87.8134 111.098 87.8134ZM104.373 74.7903C104.116 74.7903 103.909 74.9972 103.909 75.2531V86.2618C103.909 86.5176 104.116 86.7245 104.373 86.7245H111.098C111.355 86.7245 111.562 86.5176 111.562 86.2618V75.2531C111.562 74.9972 111.355 74.7903 111.098 74.7903H104.373Z" fill="#13706D"/>
</g>
<g opacity="0.6">
<path d="M108.158 74.8012L106.244 78.3455C106.025 78.7484 106.347 79.2275 106.844 79.2275C107.324 79.2275 107.645 79.674 107.46 80.0769L104.373 86.7463H107.847L110.155 78.5089C110.264 78.1223 109.942 77.7467 109.511 77.7467H109.5C109.031 77.7467 108.709 77.3165 108.878 76.9191L109.767 74.8066H108.164L108.158 74.8012Z" fill="white"/>
</g>
<g opacity="0.6">
<path d="M107.847 85.8425C108.396 85.8425 108.84 85.3989 108.84 84.8516C108.84 84.3044 108.396 83.8607 107.847 83.8607C107.299 83.8607 106.855 84.3044 106.855 84.8516C106.855 85.3989 107.299 85.8425 107.847 85.8425Z" fill="white"/>
<path d="M107.847 86.387C106.996 86.387 106.309 85.6955 106.309 84.8516C106.309 84.0077 107.002 83.3163 107.847 83.3163C108.693 83.3163 109.385 84.0077 109.385 84.8516C109.385 85.6955 108.693 86.387 107.847 86.387ZM107.847 84.3997C107.602 84.3997 107.4 84.6012 107.4 84.8462C107.4 85.0912 107.602 85.2926 107.847 85.2926C108.093 85.2926 108.295 85.0912 108.295 84.8462C108.295 84.6012 108.093 84.3997 107.847 84.3997Z" fill="#13706D"/>
</g>
<g opacity="0.6">
<path d="M47.4055 77.2948H38.3891C37.645 77.2948 37.0418 77.8969 37.0418 78.6396V84.3671C37.0418 85.1098 37.645 85.7119 38.3891 85.7119H47.4055C48.1495 85.7119 48.7527 85.1098 48.7527 84.3671V78.6396C48.7527 77.8969 48.1495 77.2948 47.4055 77.2948Z" fill="#ABDCD9"/>
<path d="M47.4055 86.2509H38.3945C37.3473 86.2509 36.5018 85.4016 36.5018 84.3617V78.6396C36.5018 77.5943 37.3527 76.7504 38.3945 76.7504H47.4055C48.4527 76.7504 49.2982 77.5997 49.2982 78.6396V84.3617C49.2982 85.407 48.4473 86.2509 47.4055 86.2509ZM38.3891 77.8393C37.9473 77.8393 37.5873 78.1986 37.5873 78.6396V84.3617C37.5873 84.8027 37.9473 85.162 38.3891 85.162H47.4C47.8418 85.162 48.2018 84.8027 48.2018 84.3617V78.6396C48.2018 78.1986 47.8418 77.8393 47.4 77.8393H38.3891Z" fill="#13706D"/>
<path d="M37.68 85.9841C37.5382 85.9841 37.4018 85.9296 37.2927 85.8262C37.08 85.6138 37.08 85.2708 37.2927 85.0585L40.6855 81.6721C40.8982 81.4597 41.2418 81.4597 41.4545 81.6721C41.6673 81.8844 41.6673 82.2274 41.4545 82.4397L38.0618 85.8262C37.9527 85.9351 37.8164 85.9841 37.6745 85.9841H37.68Z" fill="#13706D"/>
<path d="M48.0273 85.9841C47.8855 85.9841 47.7491 85.9297 47.64 85.8262L44.1927 82.3854C43.98 82.173 43.98 81.83 44.1927 81.6177C44.4055 81.4054 44.7491 81.4054 44.9618 81.6177L48.4091 85.0586C48.6218 85.2709 48.6218 85.6139 48.4091 85.8262C48.3 85.9351 48.1636 85.9841 48.0218 85.9841H48.0273Z" fill="#13706D"/>
<path d="M48.6218 77.9699C48.42 77.567 48.0055 77.2893 47.5255 77.2893H38.2636C37.7618 77.2893 37.3309 77.5887 37.1455 78.0189L37.2164 78.0787L42.8564 83.7083L48.5455 78.0298L48.6218 77.9644V77.9699Z" fill="#C0E6E3"/>
<path d="M42.8564 84.2582C42.7145 84.2582 42.5782 84.2038 42.4691 84.1003L36.78 78.4272C36.6 78.2693 36.5455 78.0189 36.6436 77.8011C36.9273 77.1586 37.56 76.7449 38.2636 76.7449H47.5255C48.2018 76.7449 48.8073 77.1205 49.1073 77.7249C49.2218 77.9481 49.1618 78.2203 48.9709 78.3836L48.8945 78.449L43.2382 84.0949C43.1291 84.2038 42.9927 84.2528 42.8509 84.2528L42.8564 84.2582ZM37.8655 77.9644L42.8564 82.9461L47.88 77.9318C47.7764 77.8664 47.6564 77.8338 47.5309 77.8338H38.2691C38.1218 77.8338 37.9855 77.8828 37.8709 77.9644H37.8655Z" fill="#13706D"/>
</g>
<g opacity="0.6">
<path d="M5.94545 84.6557C6.46364 84.868 7.03636 84.9715 7.63091 84.9497C8.30727 84.9225 8.94 84.7319 9.49091 84.4216C10.1509 84.9334 10.9855 85.2273 11.8855 85.1947C14.1382 85.113 15.8345 83.0224 15.3273 80.7139C15.0109 79.282 13.8164 78.1605 12.3709 77.9209C11.7055 77.812 11.0727 77.8828 10.5055 78.0842C9.72 77.2295 8.58 76.7068 7.32545 76.7558C5.31818 76.832 3.70364 78.3347 3.42 80.2457" fill="#ABDCD9"/>
<path d="M11.7545 85.7445C10.9364 85.7445 10.1345 85.505 9.45273 85.0585C8.89091 85.3253 8.28545 85.4723 7.65818 85.4941C6.99818 85.5159 6.35455 85.407 5.74909 85.162C5.47091 85.0477 5.33454 84.7319 5.44909 84.4542C5.56364 84.1765 5.88 84.0404 6.15818 84.1548C6.62182 84.3399 7.11273 84.4324 7.62 84.4106C8.18727 84.3889 8.73273 84.2364 9.23455 83.9533C9.42545 83.8444 9.66545 83.8608 9.84 83.9969C10.4182 84.4488 11.1436 84.6829 11.88 84.6557C12.8073 84.623 13.6691 84.182 14.2364 83.447C14.8145 82.7011 15.0164 81.7755 14.8091 80.8391C14.5418 79.625 13.5327 78.6722 12.2945 78.4708C11.7491 78.3782 11.2145 78.4272 10.7018 78.6123C10.4945 78.6885 10.2655 78.6286 10.1127 78.4653C9.40364 77.6922 8.41091 77.273 7.35273 77.3111C5.64 77.3764 4.21636 78.6504 3.96545 80.3382C3.92182 80.6377 3.64364 80.8391 3.34364 80.7955C3.04364 80.752 2.84182 80.4743 2.88545 80.1749C3.21273 77.9644 5.07273 76.3039 7.30909 76.2168C8.53636 76.1678 9.75818 76.6251 10.6636 77.469C11.2473 77.3111 11.8527 77.2839 12.4636 77.3873C14.1382 77.665 15.5018 78.9553 15.8673 80.5995C16.14 81.8409 15.8618 83.1203 15.0927 84.1112C14.3236 85.1021 13.1673 85.6955 11.9127 85.7445C11.8582 85.7445 11.8091 85.7445 11.7545 85.7445Z" fill="#13706D"/>
</g>
<g opacity="0.25">
<path d="M72.0655 60.2101L75.9164 72.03C76.5327 73.9192 79.1782 74.0172 79.9309 72.1715L81.2727 68.8831C81.48 68.3713 81.8782 67.963 82.38 67.7398L86.4709 65.9213C88.2109 65.1482 88.1455 62.6655 86.3673 61.9795L74.8636 57.5641C73.1836 56.9217 71.5091 58.506 72.0655 60.2155V60.2101Z" fill="#13706D"/>
</g>
<path d="M74.1 54.5968L78.0982 66.8686C78.5782 68.3332 80.6236 68.4094 81.2073 66.983L82.9145 62.7962C83.0073 62.573 83.1764 62.3933 83.4 62.2953L88.2164 60.1556C89.5636 59.5567 89.5145 57.6348 88.1345 57.1013L76.2709 52.5443C74.9727 52.0434 73.6691 53.2738 74.1 54.5968Z" fill="#ABDCD9"/>
<path d="M79.6745 68.551C79.6473 68.551 79.62 68.551 79.5927 68.551C78.66 68.5183 77.8691 67.9249 77.58 67.032L73.5818 54.7602C73.3145 53.949 73.5382 53.0779 74.16 52.4844C74.7818 51.8964 75.6655 51.7222 76.4673 52.0271L88.3309 56.5841C89.1764 56.9108 89.7164 57.673 89.7382 58.5768C89.76 59.4805 89.2636 60.27 88.4345 60.6402L83.6182 62.7853C83.5255 62.8234 83.4545 62.8996 83.4164 62.9922L81.7091 67.179C81.3655 68.0174 80.5745 68.5455 79.6745 68.551ZM75.66 52.9744C75.3873 52.9744 75.12 53.0779 74.9073 53.2793C74.5909 53.5788 74.4818 54.0089 74.6182 54.4281L78.6164 66.6999C78.7909 67.2443 79.2545 67.4512 79.6309 67.4621C80.0073 67.4784 80.4818 67.3042 80.7 66.7706L82.4073 62.5839C82.5491 62.23 82.8218 61.9469 83.1764 61.7944L87.9927 59.6493C88.4182 59.4588 88.6636 59.0722 88.6527 58.6094C88.6418 58.1466 88.3745 57.771 87.9436 57.6022L76.08 53.0452C75.9436 52.9908 75.8073 52.969 75.6709 52.969L75.66 52.9744Z" fill="#13706D"/>
<path d="M76.1782 54.488L81.4636 60.3843C81.6382 60.5749 81.9109 60.6457 82.1564 60.564L86.9345 58.8926C87.2073 58.7619 87.1855 58.3753 86.9073 58.2719L76.3527 54.243C76.2 54.1831 76.0745 54.3682 76.1836 54.4934L76.1782 54.488Z" fill="white"/>
</svg>
