<svg xmlns="http://www.w3.org/2000/svg" width="220" height="180" fill="none"><path fill="#E0F4F3" d="M107.654 12.663h4.692c57.401 0 104.007 46.606 104.007 104.007v24.591c0 14.611-11.858 26.469-26.469 26.469H30.116c-14.611 0-26.469-11.858-26.469-26.469V116.67c0-57.4 46.607-104.007 104.007-104.007"/><path fill="#AFE0DD" d="M39.3 120.616h30.435a2.43 2.43 0 0 1 2.425 2.425v21.023H36.875v-21.023a2.43 2.43 0 0 1 2.425-2.425"/><path fill="#13706D" d="M72.16 145.068H36.875a.997.997 0 0 1-.994-.994v-21.032a3.42 3.42 0 0 1 3.42-3.42h30.434a3.42 3.42 0 0 1 3.42 3.42v21.032a.997.997 0 0 1-.995.994m-34.29-1.988h33.297v-20.038c0-.796-.646-1.432-1.431-1.432H39.3c-.795 0-1.431.646-1.431 1.432z"/><path fill="#C4EAE7" d="M34.927 143.974h39.181c.825 0 1.491.666 1.491 1.491a5.02 5.02 0 0 1-5.02 5.02H38.456a5.02 5.02 0 0 1-5.02-5.02c0-.825.666-1.491 1.491-1.491"/><path fill="#13706D" d="M70.58 151.479H38.445a6.02 6.02 0 0 1-6.013-6.014 2.486 2.486 0 0 1 2.484-2.485h39.182a2.486 2.486 0 0 1 2.485 2.485 6.02 6.02 0 0 1-6.013 6.014zm-35.653-6.511a.49.49 0 0 0-.498.497 4.034 4.034 0 0 0 4.026 4.026H70.59a4.034 4.034 0 0 0 4.025-4.026.49.49 0 0 0-.497-.497z"/><path fill="#AFE0DD" d="M49.747 143.974h9.542v1.054a2.64 2.64 0 0 1-2.634 2.634H52.38a2.64 2.64 0 0 1-2.634-2.634z"/><path fill="#13706D" d="M56.654 148.666H52.38a3.635 3.635 0 0 1-3.628-3.628v-1.054c0-.546.448-.994.994-.994h9.542c.547 0 .994.448.994.994v1.054a3.635 3.635 0 0 1-3.628 3.628m-5.914-3.698v.06c0 .904.736 1.64 1.64 1.64h4.274c.905 0 1.64-.736 1.64-1.64v-.06z"/><path fill="#E0F4F3" d="M39.986 138.915v-14.064c0-.637.517-1.163 1.163-1.163h22.423c.636 0 1.163.516 1.163 1.163a29.84 29.84 0 0 1-22.234 14.65l-1.173.14c-.885.139-1.332-.05-1.332-.736z"/><path fill="#13706D" d="M55.382 128.568h-11.45a.997.997 0 0 1-.995-.994c0-.547.448-.994.995-.994h11.45c.547 0 .994.447.994.994a.997.997 0 0 1-.994.994m-3.986 3.996h-7.465a.997.997 0 0 1-.993-.994c0-.547.447-.994.993-.994h7.465c.547 0 .994.447.994.994a.997.997 0 0 1-.994.994"/><path fill="#fff" d="M158.346 75.242c4.115-4.373 6.451-10.426 5.854-17.026-.944-10.546-9.572-19.054-20.127-19.87-6.262-.486-11.997 1.67-16.271 5.447-1.064.945-2.664 1.004-3.778.12-4.959-3.936-11.38-6.113-18.328-5.546-11.252.904-20.774 9.213-23.229 20.236a25.9 25.9 0 0 0-.328 9.652c.05.358-.139 1.023-.298 1.023-8.647 0-15.973 7.018-15.665 15.665.07 1.938-2.634 1.342-4.065 1.511-5.914.686-10.685 5.497-11.331 11.41-.795 7.217 4.344 13.399 11.142 14.314 1.7-.199 1.988 1.153 2.068 1.669 1.72 10.874 10.188 19.512 20.972 21.49a9.37 9.37 0 0 1 5.149 2.813 25.94 25.94 0 0 0 18.915 8.15c10.307 0 19.213-5.994 23.427-14.681a3.69 3.69 0 0 1 3.509-2.077q.641.03 1.282.03c14.373 0 26.022-11.649 26.022-26.022a25.93 25.93 0 0 0-5.576-16.092c-2.883-3.658-2.535-8.807.666-12.206z"/><path fill="#13706D" d="M109.016 147.284c-7.504 0-14.472-3.002-19.63-8.459a8.5 8.5 0 0 0-4.603-2.514c-11.241-2.058-19.988-11.023-21.777-22.305-.13-.795-.418-.904-.974-.844-.08.01-.17 0-.249 0-7.564-1.014-12.832-7.783-11.997-15.407.696-6.38 5.835-11.55 12.206-12.285a9 9 0 0 1 1.272-.04c.577 0 1.66.01 1.889-.228.02-.02.04-.1.03-.219-.15-4.284 1.44-8.38 4.482-11.53a17.03 17.03 0 0 1 11.48-5.149c-.497-3.29-.377-6.63.358-9.91 2.545-11.43 12.464-20.067 24.124-21.011 6.878-.547 13.647 1.49 19.024 5.764.725.577 1.799.537 2.495-.089 4.691-4.155 10.724-6.182 17.006-5.695 11.013.854 20.058 9.78 21.042 20.773.587 6.55-1.64 13.04-6.123 17.802-2.902 3.091-3.16 7.673-.606 10.904 3.787 4.8 5.785 10.575 5.785 16.708 0 14.899-12.116 27.016-27.016 27.016a29 29 0 0 1-1.332-.03c-1.103-.07-2.087.527-2.564 1.511-4.493 9.263-14.035 15.247-24.322 15.247zm-46.776-36.13c1.462 0 2.475.914 2.734 2.524 1.66 10.457 9.76 18.756 20.167 20.665a10.53 10.53 0 0 1 5.695 3.101c4.781 5.059 11.242 7.842 18.19 7.842 9.522 0 18.368-5.546 22.533-14.124a4.67 4.67 0 0 1 4.453-2.634c.407.02.825.03 1.232.03 13.796 0 25.028-11.232 25.028-25.028 0-5.675-1.859-11.023-5.357-15.476-3.161-4.015-2.863-9.69.715-13.498 4.145-4.413 6.133-10.188 5.586-16.26-.904-10.04-9.164-18.19-19.213-18.965-5.735-.448-11.242 1.401-15.525 5.198-1.442 1.272-3.569 1.332-5.05.16-4.979-3.957-11.231-5.855-17.623-5.339-10.794.875-19.978 8.877-22.344 19.462a25 25 0 0 0-.318 9.284c.08.516-.08 1.352-.447 1.779-.189.219-.547.397-.835.397a15 15 0 0 0-10.745 4.553c-2.663 2.763-4.055 6.341-3.926 10.078.03.845-.308 1.382-.596 1.68-.815.845-2.137.825-3.32.825-.388 0-.755 0-1.034.03-5.456.636-9.86 5.06-10.456 10.526-.716 6.5 3.747 12.285 10.178 13.2.1 0 .199-.01.298-.01z"/><path fill="#AFE0DD" d="M103.768 99.346H77.836a3.896 3.896 0 0 0-3.897 3.896v16.49a3.897 3.897 0 0 0 3.897 3.896h25.932a3.896 3.896 0 0 0 3.896-3.896v-16.49a3.896 3.896 0 0 0-3.896-3.896"/><path fill="#13706D" d="M103.768 124.632H77.826a4.9 4.9 0 0 1-4.89-4.891v-16.499a4.9 4.9 0 0 1 4.89-4.89h25.942a4.9 4.9 0 0 1 4.89 4.89v16.499a4.9 4.9 0 0 1-4.89 4.891m-25.932-24.293a2.906 2.906 0 0 0-2.903 2.903v16.499a2.906 2.906 0 0 0 2.903 2.903h25.942c1.6 0 2.902-1.302 2.902-2.903v-16.499c0-1.6-1.302-2.903-2.902-2.903z"/><path fill="#C4EAE7" d="M90.082 47.56H66.585a8.43 8.43 0 0 0-8.43 8.43v15.197a8.43 8.43 0 0 0 8.43 8.429h23.497a8.43 8.43 0 0 0 8.428-8.43V55.99a8.43 8.43 0 0 0-8.428-8.428"/><path fill="#13706D" d="M90.081 80.61H66.584c-5.198 0-9.422-4.225-9.422-9.423V55.989c0-5.198 4.224-9.422 9.422-9.422h23.497c5.199 0 9.423 4.224 9.423 9.422v15.198c0 5.198-4.224 9.423-9.423 9.423M66.584 48.555c-4.095 0-7.434 3.34-7.434 7.434v15.198c0 4.095 3.34 7.435 7.434 7.435h23.497c4.096 0 7.435-3.34 7.435-7.435V55.989c0-4.095-3.34-7.434-7.435-7.434z"/><path fill="#13706D" d="M78.333 68.334a.997.997 0 0 1-.994-.994V55.79c0-.546.447-.993.994-.993s.994.447.994.994v11.55a.997.997 0 0 1-.994.993"/><path fill="#13706D" d="M78.333 68.752a.97.97 0 0 1-.656-.249l-7.415-6.57a.99.99 0 0 1-.08-1.401.983.983 0 0 1 1.402-.08l7.415 6.57a.99.99 0 0 1 .08 1.402 1 1 0 0 1-.746.338z"/><path fill="#13706D" d="M78.333 68.752a.98.98 0 0 1-.725-.318.99.99 0 0 1 .05-1.402l7.056-6.57a.99.99 0 1 1 1.352 1.451l-7.057 6.57a1 1 0 0 1-.676.269"/><path fill="#C4EAE7" d="M70.918 69.467v2.386H85.39v-2.386"/><path fill="#13706D" d="M85.39 72.847H70.918a.997.997 0 0 1-.994-.994v-2.376c0-.546.447-.994.994-.994s.994.448.994.994v1.382h12.484v-1.382c0-.546.447-.994.994-.994s.994.448.994.994v2.376a.997.997 0 0 1-.994.994"/><path fill="#C4EAE7" d="M87.517 108.152v6.679a.91.91 0 0 0 1.352.796l6.103-3.39a.913.913 0 0 0-.01-1.6l-6.103-3.29a.91.91 0 0 0-1.342.805"/><path fill="#13706D" d="M88.421 116.74c-.328 0-.666-.09-.964-.269a1.88 1.88 0 0 1-.934-1.64v-6.679c0-.676.348-1.292.924-1.63a1.89 1.89 0 0 1 1.879-.04l6.103 3.29a1.902 1.902 0 0 1 .02 3.34l-6.103 3.389a1.9 1.9 0 0 1-.925.239m.09-8.449v6.391l5.844-3.24z"/><path fill="#fff" d="M114.632 111.233c9.864 0 17.861-7.997 17.861-17.861s-7.997-17.862-17.861-17.862S96.77 83.508 96.77 93.372s7.997 17.861 17.862 17.861"/><path fill="#fff" d="M110.01 93.233c8.047 0 14.571-6.524 14.571-14.572S118.057 64.09 110.01 64.09s-14.571 6.524-14.571 14.571 6.523 14.572 14.571 14.572"/><path fill="#fff" d="M96.383 83.8c-2.843-7.534.964-15.933 8.498-18.776z"/><path fill="#13706D" d="M96.383 84.794c-.398 0-.785-.248-.934-.646-3.032-8.031 1.043-17.026 9.074-20.058a.997.997 0 0 1 1.283.576.997.997 0 0 1-.577 1.283 13.55 13.55 0 0 0-7.584 7.106 13.54 13.54 0 0 0-.338 10.387.996.996 0 0 1-.576 1.283c-.12.04-.239.06-.348.06z"/><path fill="#AFE0DD" d="M170.085 57.262h-45.374a6.32 6.32 0 0 0-6.322 6.321v29.133a6.32 6.32 0 0 0 6.322 6.321h45.374a6.32 6.32 0 0 0 6.321-6.321V63.583a6.32 6.32 0 0 0-6.321-6.321"/><path fill="#13706D" d="M170.085 100.031h-45.384a7.32 7.32 0 0 1-7.316-7.315V63.583a7.32 7.32 0 0 1 7.316-7.315h45.384a7.32 7.32 0 0 1 7.315 7.315v29.133a7.32 7.32 0 0 1-7.315 7.315m-45.374-41.776a5.335 5.335 0 0 0-5.328 5.328v29.133a5.335 5.335 0 0 0 5.328 5.328h45.384a5.334 5.334 0 0 0 5.327-5.328V63.583a5.334 5.334 0 0 0-5.327-5.328z"/><path fill="#13706D" d="M121.56 98.69c-.259 0-.507-.1-.706-.289a.99.99 0 0 1 0-1.401l16.808-16.808a.99.99 0 0 1 1.401 0 .99.99 0 0 1 0 1.402L122.256 98.4a.98.98 0 0 1-.706.289zm51.268 0c-.258 0-.507-.1-.706-.289l-17.086-17.086a.991.991 0 1 1 1.402-1.401L173.524 97a.99.99 0 0 1-.706 1.69z"/><path fill="#C4EAE7" d="M175.77 60.631c-.994-1.998-3.041-3.38-5.427-3.38h-45.89a6.07 6.07 0 0 0-5.547 3.619l.348.308 24.948 24.948a4.254 4.254 0 0 0 6.014 0l25.187-25.187.377-.318z"/><path fill="#13706D" d="M147.204 88.372a5.2 5.2 0 0 1-3.708-1.54L118.25 61.625a.98.98 0 0 1-.248-1.143 7.04 7.04 0 0 1 6.46-4.214h45.891c2.694 0 5.119 1.5 6.322 3.926a.99.99 0 0 1-.249 1.202l-.377.318-25.128 25.128a5.2 5.2 0 0 1-3.707 1.54zm-27.065-27.701 24.769 24.77c1.232 1.232 3.379 1.232 4.612 0l24.998-24.999a5.03 5.03 0 0 0-4.165-2.187h-45.891a5.07 5.07 0 0 0-4.314 2.416z"/><path fill="#C4EAE7" d="M187.25 127.703c-.149-2.077-1.282-3.598-3.042-4.055-.894-.239-1.868-.159-2.733.169a3 3 0 0 0-.278-.547c-.477-.815-1.66-1.829-2.843-2.038-1.034-.288-2.266-.268-3.27.07-.089.03-.179.07-.258.109a10 10 0 0 0-1.203.686 6.7 6.7 0 0 0-2.167-1.232c-.199-.07-.417-.1-.626-.1-.726 0-1.61 0-2.565.299-.059.019-.129.039-.198.059-.229-1.54-.636-3.091-1.153-4.393-.249-.726-1.104-2.863-2.843-3.906-.04-.03-.089-.05-.129-.07-1.63-.815-3.906-.457-5.189.815-1.918 1.918-1.292 5.407-1.192 5.884.089.358.178.875.268 1.392.129.775.248 1.451.398 1.948.109.547.218.984.328 1.431.099.418.208.835.328 1.442.089.337.168.606.258.854-.795-.487-1.73-.874-2.773-.874-2.475 0-4.632 1.719-5.059 4.015-.289 1.203-.309 2.127.387 3.529.05.109.119.208.189.308.249.328.666.835 1.143 1.401.726.875 1.72 2.058 2.127 2.734.587.884 1.034 1.67 1.412 2.336a10.7 10.7 0 0 0 3.568 3.786l.537.338 2.206 2.207c.08.258.07.924-.02 1.401-.119.587.03 1.193.408 1.65a2 2 0 0 0 1.54.726c.716 0 1.521.02 2.346.05 1.809.049 3.519.099 4.722-.05 1.272-.079 2.305-1.024 3.021-1.928.656.835 1.551 1.62 2.545 1.868.477.12 1.053.159 1.61.159a14 14 0 0 0 1.789-.119 1.97 1.97 0 0 0 1.362-.805 2 2 0 0 0 .338-1.551c-.05-.258-.179-1.053-.179-1.61q0-.725.189-1.858c.129-.478 1.162-1.909 2.176-3.022.04-.05.09-.099.12-.149.825-1.093 1.57-2.833 1.848-3.678a1 1 0 0 0 .04-.149c.268-1.083.507-3.25.507-4.264v-5.248z"/><path fill="#fff" d="M156.059 129.552c-.904-1.203-1.809-3.32-3.618-6.024-.904-1.51-3.618-4.522-4.522-5.725-.607-1.202-.607-1.809-.298-3.011.298-1.809 2.107-3.32 4.224-3.32 1.511 0 3.012 1.202 4.224 2.107.607.606 1.511 1.809 2.107 2.415.607.607.607.905 1.203 1.511.606.905.905 1.511.606.298-.298-1.511-.606-3.916-1.202-6.331-.298-1.809-.607-2.107-.905-3.32-.298-1.511-.606-2.415-.904-3.916-.298-.905-.607-3.32-.905-4.523-.298-1.51-.298-4.224.905-5.427.904-.904 2.713-1.202 3.916-.606 1.511.904 2.415 3.012 2.713 3.916.607 1.51 1.203 3.618 1.511 6.023.606 3.012 1.511 7.535 1.511 8.439 0-1.203-.298-3.32 0-4.522.298-.905.904-2.108 2.107-2.416.905-.298 1.809-.298 2.714-.298.904.298 1.809.905 2.415 1.511 1.203 1.809 1.203 5.725 1.203 5.427.298-1.203.298-3.618.904-4.821.298-.606 1.511-1.202 2.107-1.511.905-.298 2.108-.298 3.012 0 .606 0 1.809.905 2.107 1.511.607.905.905 3.916 1.203 5.119 0 .298.298-1.203.904-2.107 1.203-1.809 5.427-2.415 5.726 1.809v6.928c0 1.203-.299 3.916-.607 5.119-.298.904-1.202 3.011-2.107 4.224 0 0-3.32 3.618-3.618 5.427q-.298 1.809-.298 3.012c0 1.202.298 2.713.298 2.713s-2.415.298-3.618 0-2.713-2.415-3.012-3.32c-.606-.904-1.51-.904-2.107 0-.606 1.203-2.107 3.32-3.32 3.32-2.107.298-6.331 0-9.343 0 0 0 .607-3.012-.606-4.224l-3.32-3.32-3.32-2.107z"/><path fill="#13706D" d="M182.568 140.326c-.616 0-1.242-.039-1.739-.159-1.64-.407-3.221-2.733-3.658-3.807a.6.6 0 0 0-.179-.159s-.089.05-.189.199c-.268.527-2.017 3.718-4.095 3.797-1.501.209-3.886.139-6.192.07-1.123-.03-2.236-.07-3.23-.07a.96.96 0 0 1-.766-.368 1 1 0 0 1-.209-.825c.199-1.004.229-2.763-.328-3.319l-3.24-3.241-3.22-2.047a1 1 0 0 1-.259-.239c-.467-.616-.894-1.391-1.431-2.365-.567-1.024-1.272-2.297-2.216-3.708-.577-.954-1.919-2.554-2.992-3.847-.617-.745-1.173-1.401-1.491-1.838a.6.6 0 0 1-.09-.149c-.745-1.491-.715-2.346-.377-3.698.367-2.246 2.653-4.065 5.178-4.065 1.749 0 3.34 1.193 4.602 2.147l.209.159s.069.059.109.089c.328.328.736.815 1.113 1.272.199.239.388.468.577.686a41 41 0 0 0-.646-3.121c-.189-1.123-.358-1.61-.537-2.127a17 17 0 0 1-.368-1.183c-.159-.785-.308-1.371-.457-1.958-.149-.606-.298-1.202-.447-1.948-.179-.576-.348-1.521-.517-2.515-.129-.745-.258-1.51-.388-2.007-.308-1.531-.447-4.761 1.163-6.372 1.223-1.222 3.489-1.57 5.069-.785 1.988 1.193 2.962 3.737 3.211 4.493.407 1.014 1.183 3.25 1.55 6.222.14.706.279 1.401.418 2.067.646-.884 1.382-1.252 1.978-1.401.984-.328 1.988-.328 2.952-.328.109 0 .209.02.318.05.994.328 2.038.984 2.803 1.749q.075.075.119.149.224.328.388.716c.417-.825 1.531-1.441 2.554-1.948.04-.02.09-.04.14-.06 1.063-.358 2.435-.368 3.518-.04 1.034.129 2.356 1.223 2.773 1.988.338.537.567 1.402.785 2.515 1.034-1.094 2.823-1.63 4.324-1.243 1.67.438 2.714 1.889 2.863 3.976v6.998c0 1.252-.298 4.025-.626 5.367-.318.954-1.253 3.201-2.277 4.572-1.351 1.491-3.26 3.946-3.429 4.99q-.288 1.73-.288 2.852c0 1.094.278 2.505.278 2.515.05.269 0 .547-.169.775a1 1 0 0 1-.685.408c-.169.02-1.183.139-2.247.139zm-18.159-2.107c.695.01 1.421.03 2.157.05 2.256.069 4.592.129 5.914-.06h.139c.457 0 1.709-1.342 2.425-2.763.02-.04.04-.07.06-.109.964-1.442 2.803-1.442 3.767 0a1 1 0 0 1 .119.238c.258.775 1.6 2.485 2.316 2.664.497.129 1.411.119 2.226.07a15 15 0 0 1-.139-1.819c0-1.293.01-1.362.318-3.181.338-1.998 3.28-5.298 3.867-5.934.765-1.024 1.62-3.032 1.898-3.866.269-1.084.547-3.708.547-4.811v-6.928c-.09-1.163-.557-1.908-1.382-2.127-.974-.259-2.107.248-2.524.875-.308.467-.557 1.232-.666 1.61-.1.298-.348 1.103-1.203.974-.407-.06-.735-.408-.825-.805-.099-.398-.199-.984-.308-1.62-.169-1.024-.457-2.724-.755-3.161-.02-.03-.04-.07-.06-.109-.149-.299-.944-.905-1.262-.965a.7.7 0 0 1-.279-.049c-.676-.229-1.62-.239-2.326-.02-1.163.586-1.51.884-1.6 1.034-.298.596-.437 1.799-.547 2.763-.079.676-.149 1.312-.278 1.819a1 1 0 0 1-.964.795h-.01c-.537 0-.984-.447-.994-.984-.03-1.253-.268-3.648-.984-4.821a5.5 5.5 0 0 0-1.809-1.143c-.785 0-1.531.02-2.226.249-.815.208-1.243 1.083-1.481 1.779-.149.606-.07 1.839-.01 2.823.03.516.059.994.059 1.391a.997.997 0 0 1-.994.994.997.997 0 0 1-.994-.994c0-.805-.964-5.636-1.481-8.22-.357-2.843-1.063-4.89-1.461-5.874-.407-1.213-1.242-2.793-2.306-3.44-.735-.367-2.087-.168-2.703.458-.795.795-.944 2.962-.636 4.532.129.527.268 1.332.407 2.108.149.874.318 1.858.467 2.286l.03.119c.149.735.298 1.322.438 1.908.159.617.308 1.233.457 2.008.089.368.199.666.298.964.199.577.407 1.163.606 2.376.398 1.57.666 3.22.895 4.552.109.656.209 1.253.308 1.749.139.537.358 1.422-.477 1.78-.825.357-1.272-.338-1.67-.945l-.209-.308c-.318-.338-.497-.596-.656-.825a4 4 0 0 0-.477-.606c-.328-.328-.735-.815-1.113-1.272a23 23 0 0 0-.944-1.094l-.159-.119c-1.034-.775-2.326-1.749-3.41-1.749-1.56 0-3.011 1.113-3.24 2.485-.258 1.043-.278 1.411.169 2.325.318.418.815 1.014 1.382 1.68 1.182 1.412 2.524 3.012 3.15 4.056.955 1.441 1.69 2.743 2.277 3.796.457.835.835 1.501 1.182 1.998l3.161 2.008c.06.04.12.08.169.139l3.31 3.32c1.014 1.014 1.103 2.763 1.024 3.936z"/><path fill="#fff" d="M158.396 131.043a11.7 11.7 0 0 1-3.937-4.165 47 47 0 0 0-2.017-3.35c-.905-1.51-3.618-4.522-4.523-5.725-.606-1.202-.606-1.809-.298-3.011.298-1.809 2.107-3.32 4.224-3.32 1.511 0 3.012 1.202 4.225 2.107.606.606 1.51 1.809 2.107 2.415.606.607.606.905 1.203 1.511.606.905.904 1.511.606.298-.298-1.511-.606-3.916-1.203-6.331-.298-1.809-.606-2.107-.904-3.32-.299-1.511-.607-2.415-.905-3.916-.298-.905-.606-3.32-.904-4.523-.298-1.51-.299-4.224.904-5.427.905-.904 2.714-1.202 3.916-.606 1.511.904 2.416 3.012 2.714 3.916.606 1.51 1.203 3.618 1.511 6.023.606 3.012 1.51 7.535 1.51 8.439 0-1.203-.298-3.32 0-4.522.299-.905.905-2.108 2.108-2.416.904-.298 1.809-.298 2.713-.298.905.298 1.809.905 2.415 1.511 1.203 1.809 1.203 5.725 1.203 5.427.298-1.203.298-3.618.905-4.821.298-.606 1.51-1.202 2.107-1.511.904-.298 2.107-.298 3.012 0 .606 0 1.809.905 2.107 1.511.606.905.904 3.916 1.202 5.119 0 .298.299-1.203.905-2.107 1.203-1.809 5.427-2.415 5.725 1.809v6.928c0 1.203-.298 3.916-.606 5.119-.298.904-1.203 3.011-2.107 4.224 0 0-3.32 3.618-3.618 5.427q-.299 1.809-.299 3.012c0 1.202.299 2.713.299 2.713s-2.416.298-3.618 0c-1.203-.298-2.714-2.415-3.012-3.32-.606-.904-1.511-.904-2.107 0-.607 1.203-2.107 3.32-3.32 3.32-2.107.298-6.332 0-9.343 0 0 0 .606-3.012-.607-4.224l-3.319-3.32-.974-.616z"/><path fill="#13706D" d="M182.568 140.326c-.616 0-1.242-.039-1.739-.159-1.64-.407-3.22-2.733-3.658-3.807a.6.6 0 0 0-.179-.159s-.089.05-.188.199c-.269.527-2.018 3.718-4.096 3.797-1.5.209-3.886.139-6.192.07-1.123-.03-2.236-.07-3.23-.07a.97.97 0 0 1-.766-.368 1 1 0 0 1-.208-.825c.198-1.004.228-2.763-.328-3.319l-3.241-3.241-.884-.556a12.8 12.8 0 0 1-4.274-4.523 43 43 0 0 0-1.978-3.28c-.577-.954-1.919-2.554-2.992-3.847-.616-.745-1.173-1.401-1.491-1.838a.6.6 0 0 1-.089-.149c-.746-1.491-.716-2.346-.378-3.698.368-2.246 2.654-4.065 5.178-4.065 1.75 0 3.34 1.193 4.602 2.147l.209.159s.07.059.109.089c.328.328.736.815 1.114 1.272.198.239.387.468.576.686a41 41 0 0 0-.646-3.121c-.189-1.123-.358-1.61-.537-2.127a16 16 0 0 1-.367-1.183c-.159-.785-.309-1.371-.458-1.958-.149-.606-.298-1.202-.447-1.948-.179-.576-.348-1.521-.517-2.515-.129-.745-.258-1.51-.387-2.007-.309-1.531-.448-4.761 1.163-6.372 1.222-1.222 3.488-1.57 5.069-.785 1.988 1.193 2.962 3.737 3.21 4.493.408 1.014 1.183 3.25 1.551 6.222.139.706.278 1.401.417 2.067.646-.884 1.382-1.252 1.978-1.401.984-.328 1.988-.328 2.952-.328.11 0 .209.02.318.05.994.328 2.038.984 2.803 1.749q.075.075.12.149.224.328.387.716c.418-.825 1.531-1.441 2.555-1.948.039-.02.089-.04.139-.06 1.063-.358 2.435-.368 3.518-.04 1.034.129 2.356 1.223 2.774 1.988.337.537.566 1.402.785 2.515 1.033-1.094 2.823-1.63 4.323-1.243 1.67.438 2.714 1.889 2.863 3.976v6.998c0 1.252-.298 4.025-.626 5.367-.318.954-1.253 3.201-2.276 4.572-1.352 1.491-3.261 3.946-3.429 4.99q-.29 1.73-.289 2.852c0 1.094.279 2.505.279 2.515a1 1 0 0 1-.169.775 1 1 0 0 1-.686.408c-.169.02-1.183.139-2.247.139zm-18.159-2.107c.696.01 1.421.03 2.157.05 2.256.069 4.592.129 5.914-.06h.139c.457 0 1.71-1.342 2.425-2.763.02-.04.04-.07.06-.109.964-1.442 2.803-1.442 3.767 0q.075.104.119.238c.259.775 1.6 2.485 2.316 2.664.497.129 1.412.119 2.227.07a15 15 0 0 1-.14-1.819c0-1.293.01-1.362.318-3.181.338-1.998 3.281-5.298 3.867-5.934.765-1.024 1.62-3.032 1.898-3.866.269-1.084.547-3.708.547-4.811v-6.928c-.089-1.163-.557-1.908-1.382-2.127-.974-.259-2.107.248-2.524.875-.308.467-.557 1.232-.666 1.61-.099.298-.348 1.103-1.203.974-.407-.06-.735-.408-.825-.805-.099-.398-.199-.984-.308-1.62-.169-1.024-.457-2.724-.755-3.161-.02-.03-.04-.07-.06-.109-.149-.299-.944-.905-1.262-.965a.7.7 0 0 1-.279-.049c-.675-.229-1.62-.239-2.325-.02-1.163.586-1.511.884-1.601 1.034-.298.596-.437 1.799-.546 2.763-.08.676-.149 1.312-.279 1.819a1 1 0 0 1-.964.795h-.01c-.536 0-.984-.447-.994-.984-.03-1.253-.268-3.648-.984-4.821a5.5 5.5 0 0 0-1.809-1.143c-.785 0-1.53.02-2.226.249-.815.208-1.243 1.083-1.481 1.779-.149.606-.07 1.839-.01 2.823.03.516.06.994.06 1.391a.997.997 0 0 1-.994.994.997.997 0 0 1-.994-.994c0-.805-.964-5.636-1.481-8.22-.358-2.843-1.064-4.89-1.461-5.874-.408-1.213-1.243-2.793-2.306-3.44-.736-.367-2.088-.168-2.704.458-.795.795-.944 2.962-.636 4.532.129.527.268 1.332.407 2.108.149.874.318 1.858.468 2.286l.029.119c.149.735.299 1.322.438 1.908.159.617.308 1.233.457 2.008.089.368.199.666.298.964.199.577.408 1.163.606 2.376.398 1.57.666 3.22.895 4.552.109.656.209 1.253.308 1.749.139.537.358 1.422-.477 1.78-.825.357-1.272-.338-1.67-.945l-.209-.308c-.318-.338-.497-.596-.656-.825a4 4 0 0 0-.477-.606c-.328-.328-.735-.815-1.113-1.272a23 23 0 0 0-.944-1.094l-.159-.119c-1.034-.775-2.326-1.749-3.409-1.749-1.561 0-3.012 1.113-3.241 2.485-.258 1.043-.278 1.411.169 2.325.318.418.815 1.014 1.382 1.68 1.183 1.412 2.524 3.012 3.151 4.056.805 1.202 1.451 2.335 2.037 3.379a10.85 10.85 0 0 0 3.598 3.817l.974.616c.06.04.12.08.169.139l3.31 3.32c1.014 1.014 1.104 2.763 1.024 3.936z"/><path fill="#13706D" d="M181.068 131.45a.997.997 0 0 1-.994-.994v-10.247c0-.547.447-.994.994-.994s.994.447.994.994v10.247a.997.997 0 0 1-.994.994m-6.024 0a1 1 0 0 1-.994-.964l-.298-10.247a1 1 0 0 1 .964-1.024c.507.01 1.004.417 1.024.964l.298 10.248a.997.997 0 0 1-.964 1.023zm-6.023 0a.997.997 0 0 1-.994-.994v-10.247c0-.547.447-.994.994-.994s.994.447.994.994v10.247a.997.997 0 0 1-.994.994"/><path fill="#fff" d="M114.632 111.243c-9.87 0-17.862-8.001-17.862-17.861z"/><path fill="#13706D" d="M114.632 112.237c-10.397 0-18.856-8.458-18.856-18.855 0-.547.448-.994.994-.994.547 0 .994.447.994.994 0 9.303 7.574 16.867 16.868 16.867.546 0 .994.448.994.994a.997.997 0 0 1-.994.994m-83.184 16.659a1 1 0 0 1-.606-.209 22 22 0 0 1-3.042-2.843.99.99 0 0 1 .08-1.401.99.99 0 0 1 1.401.079c.855.965 1.79 1.829 2.763 2.585a.996.996 0 0 1 .19 1.391.98.98 0 0 1-.786.388zm-6.64-8.548c-.377 0-.745-.219-.914-.597a24.6 24.6 0 0 1-1.342-3.916.99.99 0 0 1 .726-1.202.99.99 0 0 1 1.202.725 23 23 0 0 0 1.233 3.598.99.99 0 0 1-.507 1.312.94.94 0 0 1-.398.08m-2.087-10.636a.984.984 0 0 1-.984-1.003 34 34 0 0 1 .268-4.076c.07-.546.557-.944 1.104-.864a.99.99 0 0 1 .864 1.103 32 32 0 0 0-.248 3.847.99.99 0 0 1-.994.984zm1.948-10.684a.987.987 0 0 1-.914-1.382 24 24 0 0 1 1.968-3.648.993.993 0 0 1 1.371-.288.993.993 0 0 1 .289 1.372 22.3 22.3 0 0 0-1.81 3.34.98.98 0 0 1-.914.596zm6.411-8.767a1 1 0 0 1-.735-.328.99.99 0 0 1 .07-1.402c1.172-1.063 2.077-1.71 2.375-1.908.119-.12.338-.348.676-.646a.99.99 0 0 1 1.401.07.99.99 0 0 1-.07 1.4c-.397.359-.616.597-.626.607-.06.06-.119.11-.188.16 0 0-.955.625-2.237 1.788a1 1 0 0 1-.666.259m8.906-6.272a.99.99 0 0 1-.914-.606.986.986 0 0 1 .526-1.302 21 21 0 0 1 3.986-1.233.99.99 0 0 1 1.173.775.996.996 0 0 1-.775 1.173 18.3 18.3 0 0 0-3.598 1.113c-.13.05-.259.08-.388.08zm14.532-.189c-.12 0-.239-.02-.348-.06a21 21 0 0 0-3.648-1.013.994.994 0 0 1-.805-1.153.99.99 0 0 1 1.153-.805c1.332.228 2.674.606 4.005 1.113a.99.99 0 0 1 .577 1.282 1 1 0 0 1-.934.646z"/></svg>