<svg width="219" height="179" viewBox="0 0 219 179" fill="none" xmlns="http://www.w3.org/2000/svg">
<g id="tools-chauffage">
<path id="Vector" d="M107.321 11.9275H112.012C169.413 11.9275 216.02 58.534 216.02 115.935V140.525C216.02 155.136 204.162 166.994 189.551 166.994H29.7826C15.1715 166.994 3.3136 155.136 3.3136 140.525V115.935C3.3136 58.534 49.9201 11.9275 107.321 11.9275Z" fill="#E0F4F3"/>
<g id="Group">
<path id="Vector_2" d="M112.996 97.666H92.0042C89.1716 97.666 86.8754 99.9622 86.8754 102.795C86.8754 105.627 89.1716 107.924 92.0042 107.924H112.996C115.829 107.924 118.125 105.627 118.125 102.795C118.125 99.9622 115.829 97.666 112.996 97.666Z" fill="#AFE0DD"/>
<path id="Vector_3" d="M112.996 108.918H92.0042C88.6247 108.918 85.8814 106.174 85.8814 102.795C85.8814 99.4153 88.6247 96.672 92.0042 96.672H112.996C116.376 96.672 119.119 99.4153 119.119 102.795C119.119 106.174 116.376 108.918 112.996 108.918ZM92.0042 98.6599C89.728 98.6599 87.8693 100.519 87.8693 102.795C87.8693 105.071 89.728 106.93 92.0042 106.93H112.996C115.273 106.93 117.131 105.071 117.131 102.795C117.131 100.519 115.273 98.6599 112.996 98.6599H92.0042Z" fill="#13706D"/>
</g>
<g id="Group_2">
<path id="Vector_4" d="M144.236 78.8107H92.0042C89.1716 78.8107 86.8754 81.1069 86.8754 83.9395C86.8754 86.772 89.1716 89.0683 92.0042 89.0683H144.236C147.069 89.0683 149.365 86.772 149.365 83.9395C149.365 81.1069 147.069 78.8107 144.236 78.8107Z" fill="#AFE0DD"/>
<path id="Vector_5" d="M144.236 90.0622H92.0042C88.6247 90.0622 85.8814 87.3189 85.8814 83.9395C85.8814 80.56 88.6247 77.8167 92.0042 77.8167H144.236C147.616 77.8167 150.359 80.56 150.359 83.9395C150.359 87.3189 147.616 90.0622 144.236 90.0622ZM92.0042 79.8046C89.728 79.8046 87.8693 81.6633 87.8693 83.9395C87.8693 86.2156 89.728 88.0743 92.0042 88.0743H144.236C146.513 88.0743 148.371 86.2156 148.371 83.9395C148.371 81.6633 146.513 79.8046 144.236 79.8046H92.0042Z" fill="#13706D"/>
</g>
<g id="Group_3">
<path id="Vector_6" d="M104.538 117.525H92.0042C89.1716 117.525 86.8754 119.821 86.8754 122.654C86.8754 125.487 89.1716 127.783 92.0042 127.783H104.538C107.37 127.783 109.667 125.487 109.667 122.654C109.667 119.821 107.37 117.525 104.538 117.525Z" fill="#AFE0DD"/>
<path id="Vector_7" d="M104.538 128.767H92.0042C88.6247 128.767 85.8814 126.023 85.8814 122.644C85.8814 119.265 88.6247 116.521 92.0042 116.521H104.538C107.917 116.521 110.661 119.265 110.661 122.644C110.661 126.023 107.917 128.767 104.538 128.767ZM92.0042 118.519C89.728 118.519 87.8693 120.378 87.8693 122.654C87.8693 124.93 89.728 126.789 92.0042 126.789H104.538C106.814 126.789 108.673 124.93 108.673 122.654C108.673 120.378 106.814 118.519 104.538 118.519H92.0042Z" fill="#13706D"/>
</g>
<path id="Vector_8" d="M132.697 116.78H128.691C126.097 116.78 123.99 114.673 123.99 112.078C123.99 109.484 126.097 107.377 128.691 107.377H132.697C134.565 107.377 135.221 109.802 135.221 112.078C135.221 114.354 134.555 116.78 132.697 116.78ZM132.617 109.355L128.691 109.375C127.2 109.375 125.978 110.587 125.978 112.088C125.978 113.589 127.19 114.802 128.691 114.802H132.647C132.866 114.603 133.243 113.649 133.243 112.088C133.243 110.528 132.836 109.494 132.627 109.355H132.617Z" fill="#13706D"/>
<path id="Vector_9" d="M153.53 119.255V107.377H145.668V100.21L143.67 97.8449C141.911 98.6102 140.678 100.37 140.678 102.417V151.399C140.678 153.009 141.453 154.441 142.636 155.355L145.668 154.023V146.141H153.53V137.583H145.668V119.245H153.53V119.255Z" fill="#AFE0DD"/>
<path id="Vector_10" d="M193.646 155.335L196.528 153.755V100.439L194.332 97.8151C192.682 98.6301 191.549 100.32 191.549 102.288V151.27C191.549 152.95 192.384 154.441 193.656 155.335H193.646Z" fill="#AFE0DD"/>
<path id="Vector_11" d="M170.785 119.255V107.377H162.316V99.8229L160.09 97.9542C158.45 98.7693 157.327 100.459 157.327 102.417V151.399C157.327 153.606 158.768 155.474 160.756 156.13L162.316 155.126V146.141H170.785V137.583H162.316V119.245H170.785V119.255Z" fill="#AFE0DD"/>
<path id="Vector_12" d="M186.678 119.255V107.377H179.293V100.121L176.818 98.0934C175.317 98.9581 174.314 100.568 174.314 102.417V151.399C174.314 153.447 175.546 155.206 177.315 155.971L179.303 154.58V146.141H186.688V137.583H179.303V119.245H186.688L186.678 119.255Z" fill="#AFE0DD"/>
<path id="Vector_13" d="M157.864 157.383C157.804 157.383 157.734 157.383 157.675 157.383C154.375 157.283 151.691 154.421 151.691 150.992V148.735C151.691 147.453 150.647 146.41 149.365 146.41C148.083 146.41 147.039 147.453 147.039 148.735V151.21C147.039 152.89 146.373 154.47 145.161 155.643C143.948 156.816 142.378 157.442 140.668 157.383C137.368 157.283 134.685 154.421 134.685 150.992V102.616C134.685 100.936 135.351 99.3557 136.563 98.1828C137.776 97.01 139.356 96.3937 141.056 96.4434C144.356 96.5428 147.039 99.4054 147.039 102.835V104.544C147.039 105.2 147.318 105.826 147.805 106.264C148.292 106.711 148.928 106.92 149.604 106.86C150.777 106.751 151.691 105.667 151.691 104.405V102.626C151.691 100.946 152.357 99.3656 153.57 98.1928C154.772 97.0199 156.363 96.4037 158.062 96.4533C161.362 96.5527 164.046 99.4153 164.046 102.844V104.554C164.046 105.21 164.324 105.836 164.811 106.274C165.298 106.721 165.925 106.93 166.61 106.87C167.783 106.761 168.698 105.677 168.698 104.415V102.636C168.698 100.956 169.364 99.3855 170.566 98.2126C171.769 97.0398 173.399 96.4136 175.039 96.4633C178.359 96.5527 181.053 99.4253 181.053 102.874V104.554C181.053 105.21 181.331 105.836 181.818 106.274C182.305 106.721 182.941 106.93 183.617 106.87C184.79 106.761 185.714 105.677 185.714 104.415V102.874C185.714 102.328 186.161 101.88 186.708 101.88C187.255 101.88 187.702 102.328 187.702 102.874V104.415C187.702 106.691 185.993 108.639 183.806 108.848C182.593 108.957 181.381 108.56 180.486 107.745C179.591 106.93 179.075 105.767 179.075 104.554V102.874C179.075 100.489 177.246 98.5108 174.999 98.4512C173.836 98.4214 172.783 98.8488 171.968 99.634C171.153 100.429 170.705 101.493 170.705 102.636V104.415C170.705 106.691 168.996 108.639 166.809 108.848C165.597 108.957 164.384 108.56 163.489 107.745C162.595 106.93 162.078 105.767 162.078 104.554V102.844C162.078 100.489 160.259 98.5108 158.023 98.4413C156.919 98.4114 155.796 98.8289 154.981 99.6241C154.156 100.419 153.709 101.483 153.709 102.626V104.405C153.709 106.681 151.999 108.629 149.813 108.838C148.6 108.947 147.387 108.55 146.493 107.735C145.598 106.92 145.081 105.757 145.081 104.544V102.835C145.081 100.479 143.262 98.5009 141.026 98.4313C139.923 98.4015 138.8 98.819 137.985 99.6141C137.16 100.409 136.712 101.473 136.712 102.616V150.992C136.712 153.347 138.531 155.325 140.768 155.395C141.871 155.435 142.994 155.007 143.809 154.212C144.624 153.417 145.081 152.353 145.081 151.21V148.735C145.081 146.36 147.02 144.422 149.395 144.422C151.771 144.422 153.709 146.36 153.709 148.735V150.992C153.709 153.347 155.528 155.325 157.764 155.395C158.917 155.435 159.991 155.007 160.806 154.212C161.631 153.417 162.078 152.353 162.078 151.21V148.735C162.078 146.36 164.016 144.422 166.392 144.422C168.767 144.422 170.705 146.36 170.705 148.735V150.972C170.705 153.357 172.534 155.335 174.781 155.395C175.954 155.425 176.997 154.997 177.812 154.212C178.627 153.417 179.075 152.353 179.075 151.21V148.735C179.075 146.36 181.013 144.422 183.388 144.422C185.764 144.422 187.702 146.36 187.702 148.735V150.972C187.702 153.357 189.531 155.335 191.777 155.395C192.9 155.425 193.994 154.997 194.809 154.212C195.624 153.417 196.071 152.353 196.071 151.21V102.616C196.071 102.039 195.962 101.483 195.733 100.966C195.057 99.3855 193.477 98.3816 191.777 98.4313C190.783 98.4611 189.839 98.8587 189.094 99.5744C188.696 99.9521 188.07 99.9421 187.692 99.5445C187.314 99.147 187.324 98.5208 187.722 98.1431C188.815 97.0895 190.237 96.4931 191.728 96.4533C194.322 96.4037 196.558 97.8548 197.562 100.191C197.89 100.966 198.059 101.781 198.059 102.626V151.22C198.059 152.9 197.393 154.47 196.19 155.643C194.988 156.816 193.368 157.432 191.718 157.393C188.398 157.313 185.704 154.431 185.704 150.982V148.745C185.704 147.463 184.661 146.419 183.378 146.419C182.096 146.419 181.053 147.463 181.053 148.745V151.22C181.053 152.9 180.387 154.47 179.184 155.643C177.981 156.816 176.361 157.432 174.711 157.393C171.391 157.303 168.698 154.431 168.698 150.982V148.745C168.698 147.463 167.654 146.419 166.372 146.419C165.09 146.419 164.046 147.463 164.046 148.745V151.22C164.046 152.9 163.38 154.48 162.167 155.653C161.004 156.786 159.484 157.393 157.864 157.393V157.383ZM183.359 139.005C180.983 139.005 179.045 137.066 179.045 134.691V123.499C179.045 121.223 180.754 119.275 182.941 119.066C184.144 118.947 185.366 119.354 186.261 120.169C187.155 120.984 187.672 122.147 187.672 123.36V134.691C187.672 137.066 185.734 139.005 183.359 139.005ZM183.368 121.034C183.289 121.034 183.209 121.034 183.14 121.044C181.967 121.153 181.043 122.237 181.043 123.499V134.691C181.043 135.973 182.086 137.017 183.368 137.017C184.651 137.017 185.694 135.973 185.694 134.691V123.36C185.694 122.704 185.416 122.077 184.929 121.64C184.492 121.243 183.945 121.034 183.368 121.034ZM166.362 139.005C163.986 139.005 162.048 137.066 162.048 134.691V123.499C162.048 121.223 163.758 119.275 165.944 119.066C167.147 118.947 168.37 119.354 169.264 120.169C170.159 120.984 170.676 122.147 170.676 123.36V134.691C170.676 137.066 168.737 139.005 166.362 139.005ZM166.362 121.034C166.282 121.034 166.203 121.034 166.133 121.044C164.96 121.153 164.046 122.237 164.046 123.499V134.691C164.046 135.973 165.09 137.017 166.372 137.017C167.654 137.017 168.698 135.973 168.698 134.691V123.36C168.698 122.704 168.419 122.077 167.932 121.64C167.495 121.243 166.948 121.034 166.372 121.034H166.362ZM149.365 139.005C146.99 139.005 145.052 137.066 145.052 134.691V123.499C145.052 121.223 146.761 119.275 148.948 119.066C150.16 118.947 151.373 119.354 152.268 120.169C153.162 120.984 153.679 122.147 153.679 123.36V134.691C153.679 137.066 151.741 139.005 149.365 139.005ZM149.365 121.034C149.286 121.034 149.206 121.034 149.137 121.044C147.964 121.153 147.049 122.237 147.049 123.499V134.691C147.049 135.973 148.093 137.017 149.375 137.017C150.657 137.017 151.701 135.973 151.701 134.691V123.36C151.701 122.704 151.423 122.077 150.936 121.64C150.498 121.243 149.952 121.034 149.375 121.034H149.365Z" fill="#13706D"/>
<path id="Vector_14" d="M146.045 149.729C145.499 149.729 145.052 149.282 145.052 148.735V104.534C145.052 103.988 145.499 103.54 146.045 103.54C146.592 103.54 147.039 103.988 147.039 104.534V148.735C147.039 149.282 146.592 149.729 146.045 149.729Z" fill="#13706D"/>
<path id="Vector_15" d="M152.685 149.729C152.138 149.729 151.691 149.282 151.691 148.735V104.534C151.691 103.988 152.138 103.54 152.685 103.54C153.232 103.54 153.679 103.988 153.679 104.534V148.735C153.679 149.282 153.232 149.729 152.685 149.729Z" fill="#13706D"/>
<path id="Vector_16" d="M163.042 149.729C162.495 149.729 162.048 149.282 162.048 148.735V104.534C162.048 103.988 162.495 103.54 163.042 103.54C163.589 103.54 164.036 103.988 164.036 104.534V148.735C164.036 149.282 163.589 149.729 163.042 149.729Z" fill="#13706D"/>
<path id="Vector_17" d="M169.682 149.729C169.135 149.729 168.688 149.282 168.688 148.735V104.534C168.688 103.988 169.135 103.54 169.682 103.54C170.228 103.54 170.676 103.988 170.676 104.534V148.735C170.676 149.282 170.228 149.729 169.682 149.729Z" fill="#13706D"/>
<path id="Vector_18" d="M180.049 149.729C179.502 149.729 179.055 149.282 179.055 148.735V104.534C179.055 103.988 179.502 103.54 180.049 103.54C180.595 103.54 181.043 103.988 181.043 104.534V148.735C181.043 149.282 180.595 149.729 180.049 149.729Z" fill="#13706D"/>
<path id="Vector_19" d="M186.678 149.729C186.132 149.729 185.684 149.282 185.684 148.735V104.534C185.684 103.988 186.132 103.54 186.678 103.54C187.225 103.54 187.672 103.988 187.672 104.534V148.735C187.672 149.282 187.225 149.729 186.678 149.729Z" fill="#13706D"/>
<path id="Vector_20" d="M214.201 137.981H197.045C196.499 137.981 196.051 137.534 196.051 136.987C196.051 136.44 196.499 135.993 197.045 135.993H214.201C214.748 135.993 215.195 136.44 215.195 136.987C215.195 137.534 214.748 137.981 214.201 137.981Z" fill="#13706D"/>
<path id="Vector_21" d="M216.02 141.867H207.442C206.895 141.867 206.448 141.42 206.448 140.873C206.448 140.327 206.895 139.879 207.442 139.879H216.02C216.567 139.879 217.014 140.327 217.014 140.873C217.014 141.42 216.567 141.867 216.02 141.867Z" fill="#13706D"/>
<path id="Vector_22" d="M202.114 141.867H197.512C196.966 141.867 196.518 141.42 196.518 140.873C196.518 140.327 196.966 139.879 197.512 139.879H202.114C202.661 139.879 203.108 140.327 203.108 140.873C203.108 141.42 202.661 141.867 202.114 141.867Z" fill="#13706D"/>
<path id="Vector_23" d="M130.321 146.4H126.345C125.799 146.4 125.351 145.952 125.351 145.406C125.351 144.859 125.799 144.412 126.345 144.412H130.321C130.868 144.412 131.315 144.859 131.315 145.406C131.315 145.952 130.868 146.4 130.321 146.4ZM118.394 146.4H114.418C113.871 146.4 113.424 145.952 113.424 145.406C113.424 144.859 113.871 144.412 114.418 144.412H118.394C118.94 144.412 119.388 144.859 119.388 145.406C119.388 145.952 118.94 146.4 118.394 146.4ZM106.466 146.4H102.49C101.944 146.4 101.496 145.952 101.496 145.406C101.496 144.859 101.944 144.412 102.49 144.412H106.466C107.013 144.412 107.46 144.859 107.46 145.406C107.46 145.952 107.013 146.4 106.466 146.4ZM94.5387 146.4H90.5629C90.0162 146.4 89.569 145.952 89.569 145.406C89.569 144.859 90.0162 144.412 90.5629 144.412H94.5387C95.0854 144.412 95.5327 144.859 95.5327 145.406C95.5327 145.952 95.0854 146.4 94.5387 146.4ZM82.7007 145.704C82.5815 145.704 82.4523 145.684 82.333 145.634C80.9713 145.097 79.7388 144.312 78.6852 143.288C78.2876 142.911 78.2776 142.275 78.6653 141.887C79.043 141.489 79.6791 141.479 80.0668 141.867C80.9315 142.702 81.9453 143.358 83.0586 143.795C83.5655 143.994 83.8239 144.571 83.6152 145.088C83.4661 145.475 83.0884 145.714 82.6908 145.714L82.7007 145.704ZM76.2897 136.381C75.753 136.381 75.3057 136.023 75.2958 135.486V135.396V131.49C75.2958 130.944 75.7431 130.496 76.2897 130.496C76.8364 130.496 77.2837 130.944 77.2837 131.49V135.307C77.2837 135.854 76.8463 136.381 76.2997 136.381C76.2997 136.381 76.2997 136.381 76.2897 136.381ZM76.2897 124.533C75.7431 124.533 75.2958 124.085 75.2958 123.539V119.563C75.2958 119.016 75.7431 118.569 76.2897 118.569C76.8364 118.569 77.2837 119.016 77.2837 119.563V123.539C77.2837 124.085 76.8364 124.533 76.2897 124.533ZM76.2897 112.605C75.7431 112.605 75.2958 112.158 75.2958 111.611V107.635C75.2958 107.089 75.7431 106.641 76.2897 106.641C76.8364 106.641 77.2837 107.089 77.2837 107.635V111.611C77.2837 112.158 76.8364 112.605 76.2897 112.605ZM76.2897 100.678C75.7431 100.678 75.2958 100.23 75.2958 99.6837V95.7079C75.2958 95.1612 75.7431 94.7139 76.2897 94.7139C76.8364 94.7139 77.2837 95.1612 77.2837 95.7079V99.6837C77.2837 100.23 76.8364 100.678 76.2897 100.678ZM179.641 93.9784C179.094 93.9784 178.647 93.5311 178.647 92.9845V89.0086C178.647 88.462 179.094 88.0147 179.641 88.0147C180.188 88.0147 180.635 88.462 180.635 89.0086V92.9845C180.635 93.5311 180.188 93.9784 179.641 93.9784ZM76.2897 88.7502C75.7431 88.7502 75.2958 88.3029 75.2958 87.7562V83.7804C75.2958 83.2338 75.7431 82.7865 76.2897 82.7865C76.8364 82.7865 77.2837 83.2338 77.2837 83.7804V87.7562C77.2837 88.3029 76.8364 88.7502 76.2897 88.7502ZM179.641 82.051C179.094 82.051 178.647 81.6037 178.647 81.057V77.0812C178.647 76.5345 179.094 76.0872 179.641 76.0872C180.188 76.0872 180.635 76.5345 180.635 77.0812V81.057C180.635 81.6037 180.188 82.051 179.641 82.051ZM76.2897 76.8227C75.7431 76.8227 75.2958 76.3755 75.2958 75.8288V71.853C75.2958 71.3063 75.7431 70.859 76.2897 70.859C76.8364 70.859 77.2837 71.3063 77.2837 71.853V75.8288C77.2837 76.3755 76.8364 76.8227 76.2897 76.8227ZM179.641 70.1235C179.094 70.1235 178.647 69.6762 178.647 69.1295V68.3046C178.647 67.3504 178.498 66.416 178.21 65.5115C178.041 64.9848 178.329 64.4281 178.856 64.2592C179.383 64.0902 179.939 64.3784 180.108 64.9052C180.456 65.9986 180.635 67.1416 180.635 68.3046V69.1295C180.635 69.6762 180.188 70.1235 179.641 70.1235ZM77.234 65.0344C77.0948 65.0344 76.9557 65.0046 76.8165 64.945C76.3195 64.7164 76.1009 64.12 76.3394 63.623C76.9557 62.3011 77.8204 61.1183 78.9038 60.1243C79.3114 59.7565 79.9375 59.7764 80.3053 60.1839C80.6731 60.5915 80.6532 61.2177 80.2457 61.5854C79.3511 62.4005 78.6454 63.3646 78.1385 64.458C77.9695 64.8158 77.6117 65.0344 77.234 65.0344ZM174.135 60.3032C173.986 60.3032 173.826 60.2635 173.687 60.1939C172.614 59.6472 171.461 59.3192 170.258 59.2298C169.712 59.19 169.304 58.7129 169.344 58.1563C169.383 57.6096 169.871 57.2021 170.417 57.2418C171.878 57.3611 173.29 57.7488 174.592 58.4246C175.079 58.6731 175.278 59.2695 175.029 59.7665C174.85 60.1144 174.502 60.3032 174.145 60.3032H174.135ZM162.386 59.19H158.41C157.864 59.19 157.416 58.7427 157.416 58.196C157.416 57.6494 157.864 57.2021 158.41 57.2021H162.386C162.933 57.2021 163.38 57.6494 163.38 58.196C163.38 58.7427 162.933 59.19 162.386 59.19ZM150.459 59.19H146.483C145.936 59.19 145.489 58.7427 145.489 58.196C145.489 57.6494 145.936 57.2021 146.483 57.2021H150.459C151.005 57.2021 151.453 57.6494 151.453 58.196C151.453 58.7427 151.005 59.19 150.459 59.19ZM138.531 59.19H134.555C134.009 59.19 133.561 58.7427 133.561 58.196C133.561 57.6494 134.009 57.2021 134.555 57.2021H138.531C139.078 57.2021 139.525 57.6494 139.525 58.196C139.525 58.7427 139.078 59.19 138.531 59.19ZM126.604 59.19H122.628C122.081 59.19 121.634 58.7427 121.634 58.196C121.634 57.6494 122.081 57.2021 122.628 57.2021H126.604C127.15 57.2021 127.598 57.6494 127.598 58.196C127.598 58.7427 127.15 59.19 126.604 59.19ZM114.676 59.19H110.7C110.154 59.19 109.706 58.7427 109.706 58.196C109.706 57.6494 110.154 57.2021 110.7 57.2021H114.676C115.223 57.2021 115.67 57.6494 115.67 58.196C115.67 58.7427 115.223 59.19 114.676 59.19ZM102.749 59.19H98.773C98.2263 59.19 97.779 58.7427 97.779 58.196C97.779 57.6494 98.2263 57.2021 98.773 57.2021H102.749C103.295 57.2021 103.743 57.6494 103.743 58.196C103.743 58.7427 103.295 59.19 102.749 59.19ZM90.8213 59.19H86.8455C86.2989 59.19 85.8516 58.7427 85.8516 58.196C85.8516 57.6494 86.2989 57.2021 86.8455 57.2021H90.8213C91.368 57.2021 91.8153 57.6494 91.8153 58.196C91.8153 58.7427 91.368 59.19 90.8213 59.19Z" fill="#13706D"/>
<g id="Group_4">
<path id="Vector_24" d="M111.834 68.8015H91.537C88.3166 68.8015 85.7025 66.1874 85.7025 62.967V50.2742C85.7025 47.0538 88.3166 44.4397 91.537 44.4397H123.006C126.226 44.4397 128.84 47.0538 128.84 50.2742V62.967C128.84 66.1874 126.226 68.8015 123.006 68.8015" fill="white"/>
<path id="Vector_25" d="M122.996 69.7955C122.449 69.7955 122.002 69.3482 122.002 68.8015C122.002 68.2549 122.449 67.8076 122.996 67.8076C125.659 67.8076 127.836 65.6408 127.836 62.967V50.2742C127.836 47.6104 125.669 45.4337 122.996 45.4337H91.527C88.8633 45.4337 86.6865 47.6005 86.6865 50.2742V62.967C86.6865 65.6308 88.8533 67.8076 91.527 67.8076H111.824C112.37 67.8076 112.818 68.2549 112.818 68.8015C112.818 69.3482 112.37 69.7955 111.824 69.7955H91.527C87.76 69.7955 84.6986 66.7341 84.6986 62.967V50.2742C84.6986 46.5071 87.76 43.4458 91.527 43.4458H122.996C126.763 43.4458 129.824 46.5071 129.824 50.2742V62.967C129.824 66.7341 126.763 69.7955 122.996 69.7955Z" fill="#13706D"/>
</g>
<g id="Group_5">
<path id="Vector_26" d="M93.1671 61.158C93.1671 60.8499 93.2366 60.6014 93.3957 60.3231L97.0037 53.6735V53.6238H92.7894C92.1731 53.6238 91.7258 53.2064 91.7258 52.5901C91.7258 51.9739 92.1731 51.5664 92.7894 51.5664H98.107C98.9916 51.5664 99.6675 52.1031 99.6675 52.9877C99.6675 53.4648 99.5184 53.8823 99.1805 54.5283L95.5724 61.4562C95.2743 62.0327 94.9562 62.2315 94.3896 62.2315C93.6243 62.2315 93.1671 61.7544 93.1671 61.1481V61.158Z" fill="#13706D"/>
<path id="Vector_27" d="M101.407 60.9294C101.407 60.4225 101.616 60.0647 102.142 59.6174L105.144 56.894C106.377 55.7708 106.715 55.2937 106.715 54.6079C106.715 53.8525 106.128 53.3157 105.293 53.3157C104.598 53.3157 104.13 53.6537 103.743 54.3494C103.405 54.8663 103.097 55.075 102.56 55.075C101.864 55.075 101.457 54.6774 101.457 54.0214C101.457 53.8127 101.486 53.6238 101.566 53.435C102.023 52.2224 103.425 51.298 105.333 51.298C107.728 51.298 109.299 52.5703 109.299 54.429C109.299 55.7708 108.613 56.5461 106.943 58.0569L104.856 59.9653V60.015H108.494C109.17 60.015 109.567 60.4126 109.567 61.0388C109.567 61.6649 109.17 62.0625 108.494 62.0625H102.669C101.814 62.0625 101.417 61.5854 101.417 60.9195L101.407 60.9294Z" fill="#13706D"/>
</g>
<g id="Group_6">
<path id="Vector_28" d="M114 61.6948V59.3291C114 59.0409 114.169 58.8918 114.408 58.8918C114.646 58.8918 114.815 59.0409 114.815 59.3291V59.5279H114.835C114.964 59.1502 115.302 58.9017 115.73 58.9017C116.177 58.9017 116.495 59.1304 116.605 59.5379H116.624C116.764 59.1403 117.141 58.9017 117.598 58.9017C118.215 58.9017 118.622 59.3192 118.622 59.9454V61.6948C118.622 61.983 118.443 62.142 118.195 62.142C117.946 62.142 117.777 61.983 117.777 61.6948V60.1541C117.777 59.7963 117.598 59.5975 117.27 59.5975C116.942 59.5975 116.734 59.8361 116.734 60.1839V61.6948C116.734 61.983 116.575 62.142 116.326 62.142C116.078 62.142 115.919 61.983 115.919 61.6948V60.1343C115.919 59.7963 115.73 59.5975 115.412 59.5975C115.094 59.5975 114.875 59.846 114.875 60.1939V61.6948C114.875 61.983 114.696 62.142 114.448 62.142C114.199 62.142 114.02 61.983 114.02 61.6948H114Z" fill="#13706D"/>
<path id="Vector_29" d="M119.407 61.7047C119.407 61.5357 119.467 61.4264 119.646 61.2674L120.898 60.0746C121.415 59.5776 121.554 59.3689 121.554 59.0707C121.554 58.7228 121.286 58.4743 120.908 58.4743C120.57 58.4743 120.342 58.6433 120.183 58.9813C120.083 59.1602 119.984 59.2397 119.795 59.2397C119.557 59.2397 119.417 59.1005 119.417 58.8819C119.417 58.8123 119.427 58.7527 119.447 58.693C119.586 58.2259 120.113 57.7885 120.908 57.7885C121.803 57.7885 122.399 58.2855 122.399 59.0111C122.399 59.5279 122.151 59.846 121.465 60.4921L120.56 61.3668V61.3866H122.141C122.369 61.3866 122.509 61.5258 122.509 61.7345C122.509 61.9432 122.369 62.0824 122.141 62.0824H119.815C119.537 62.0824 119.398 61.9234 119.398 61.7047H119.407Z" fill="#13706D"/>
</g>
<path id="Vector_30" d="M153.749 44.4496C156.169 44.4496 158.132 42.4872 158.132 40.0663C158.132 37.6455 156.169 35.683 153.749 35.683C151.328 35.683 149.365 37.6455 149.365 40.0663C149.365 42.4872 151.328 44.4496 153.749 44.4496Z" fill="white"/>
<path id="Vector_31" d="M37.9529 77.5682C39.6711 77.5682 41.064 76.1753 41.064 74.4571C41.064 72.7389 39.6711 71.3461 37.9529 71.3461C36.2347 71.3461 34.8418 72.7389 34.8418 74.4571C34.8418 76.1753 36.2347 77.5682 37.9529 77.5682Z" fill="white"/>
<path id="Vector_32" d="M16.0362 110.568C18.4571 110.568 20.4195 108.605 20.4195 106.184C20.4195 103.763 18.4571 101.801 16.0362 101.801C13.6154 101.801 11.6529 103.763 11.6529 106.184C11.6529 108.605 13.6154 110.568 16.0362 110.568Z" fill="white"/>
<path id="Vector_33" d="M165.08 84.8141C168.395 84.8141 171.083 82.1263 171.083 78.8107C171.083 75.495 168.395 72.8072 165.08 72.8072C161.764 72.8072 159.076 75.495 159.076 78.8107C159.076 82.1263 161.764 84.8141 165.08 84.8141Z" fill="white"/>
<path id="Vector_34" d="M60.0187 55.4627C62.8513 55.4627 65.1475 53.1664 65.1475 50.3339C65.1475 47.5013 62.8513 45.2051 60.0187 45.2051C57.1861 45.2051 54.8899 47.5013 54.8899 50.3339C54.8899 53.1664 57.1861 55.4627 60.0187 55.4627Z" fill="white"/>
<path id="Vector_35" d="M44.7714 97.4374C47.1868 97.4374 49.1448 95.4793 49.1448 93.064C49.1448 90.6486 47.1868 88.6906 44.7714 88.6906C42.3561 88.6906 40.398 90.6486 40.398 93.064C40.398 95.4793 42.3561 97.4374 44.7714 97.4374Z" fill="white"/>
<path id="Vector_36" d="M61.8277 103.988C63.0354 103.988 64.0144 103.009 64.0144 101.801C64.0144 100.593 63.0354 99.6141 61.8277 99.6141C60.62 99.6141 59.641 100.593 59.641 101.801C59.641 103.009 60.62 103.988 61.8277 103.988Z" fill="white"/>
<path id="Vector_37" d="M89.0621 26.2901C90.2697 26.2901 91.2488 25.3111 91.2488 24.1034C91.2488 22.8957 90.2697 21.9167 89.0621 21.9167C87.8544 21.9167 86.8754 22.8957 86.8754 24.1034C86.8754 25.3111 87.8544 26.2901 89.0621 26.2901Z" fill="white"/>
<path id="Vector_38" d="M124.984 37.3031C126.191 37.3031 127.17 36.3241 127.17 35.1164C127.17 33.9087 126.191 32.9297 124.984 32.9297C123.776 32.9297 122.797 33.9087 122.797 35.1164C122.797 36.3241 123.776 37.3031 124.984 37.3031Z" fill="white"/>
<g id="Group_7">
<path id="Vector_39" d="M47.0523 141.262C47.509 140.392 47.1738 139.317 46.3037 138.86C45.4336 138.403 44.3581 138.738 43.9015 139.609L41.3843 144.405C40.9277 145.275 41.2628 146.351 42.1329 146.807C43.003 147.264 44.0785 146.929 44.5351 146.059L47.0523 141.262Z" fill="#AFE0DD"/>
<path id="Vector_40" d="M42.9724 148.01C42.5251 148.01 42.0878 147.9 41.6902 147.692C41.0342 147.344 40.5471 146.767 40.3285 146.062C40.1098 145.356 40.1794 144.601 40.5173 143.945L43.032 139.144C43.7477 137.792 45.4175 137.265 46.7792 137.981C48.131 138.686 48.6578 140.366 47.9422 141.728L45.4274 146.529C45.0796 147.185 44.5031 147.672 43.7974 147.89C43.529 147.98 43.2507 148.02 42.9724 148.02V148.01ZM45.4871 139.651C45.2088 139.651 44.9305 139.8 44.7913 140.068L42.2766 144.869C42.1772 145.058 42.1573 145.266 42.2269 145.465C42.2866 145.664 42.4257 145.833 42.6146 145.922C42.8034 146.022 43.0121 146.042 43.2109 145.982C43.4097 145.922 43.5787 145.783 43.6681 145.594L46.1829 140.794C46.3816 140.406 46.2326 139.939 45.8548 139.73C45.7356 139.67 45.6163 139.641 45.4871 139.641V139.651Z" fill="#13706D"/>
</g>
<g id="Group_8">
<path id="Vector_41" d="M43.0083 155.31C43.9899 155.356 44.8227 154.597 44.8684 153.616C44.9142 152.634 44.1556 151.801 43.1741 151.756L37.6636 151.499C36.6821 151.453 35.8493 152.211 35.8035 153.193C35.7577 154.174 36.5163 155.007 37.4978 155.053L43.0083 155.31Z" fill="#AFE0DD"/>
<path id="Vector_42" d="M43.0917 156.299C43.0917 156.299 43.0022 156.299 42.9624 156.299L37.4559 156.041C36.7105 156.001 36.0346 155.683 35.5376 155.136C35.0406 154.59 34.7822 153.874 34.822 153.139C34.8915 151.608 36.1936 150.425 37.7243 150.495L43.2308 150.753C44.7615 150.823 45.9443 152.125 45.8747 153.655C45.835 154.391 45.5169 155.077 44.9702 155.574C44.4534 156.041 43.7974 156.299 43.1016 156.299H43.0917ZM37.5851 152.483C37.1677 152.483 36.8198 152.811 36.7999 153.228C36.7999 153.437 36.8596 153.636 37.0087 153.795C37.1478 153.954 37.3466 154.043 37.5553 154.053L43.0618 154.311C43.2706 154.311 43.4694 154.252 43.6284 154.103C43.7874 153.964 43.8769 153.765 43.8868 153.556C43.9067 153.119 43.5688 152.751 43.1414 152.731L37.6348 152.473C37.6348 152.473 37.615 152.473 37.5951 152.473L37.5851 152.483Z" fill="#13706D"/>
</g>
<g id="Group_9">
<path id="Vector_43" d="M51.6165 147.754C51.0609 146.944 49.9535 146.737 49.143 147.293C48.3326 147.848 48.1259 148.956 48.6815 149.766L51.6656 154.12C52.2212 154.93 53.3286 155.137 54.139 154.581C54.9495 154.026 55.1562 152.918 54.6006 152.108L51.6165 147.754Z" fill="#AFE0DD"/>
<path id="Vector_44" d="M53.1306 155.902C52.9616 155.902 52.7827 155.882 52.6137 155.852C51.8881 155.713 51.252 155.305 50.8345 154.689L47.8527 150.336C47.4352 149.729 47.2762 148.984 47.4153 148.258C47.5545 147.533 47.962 146.897 48.5783 146.479C49.8406 145.614 51.5701 145.932 52.4348 147.195L55.4167 151.548C56.2814 152.811 55.9534 154.54 54.701 155.405C54.2339 155.723 53.6971 155.892 53.1405 155.892L53.1306 155.902ZM50.1487 147.99C49.9996 147.99 49.8406 148.03 49.7014 148.129C49.5325 148.248 49.4132 148.427 49.3734 148.636C49.3337 148.845 49.3734 149.053 49.4927 149.222L52.4746 153.576C52.5938 153.745 52.7728 153.864 52.9815 153.904C53.1902 153.944 53.3989 153.904 53.5679 153.785C53.9257 153.536 54.0152 153.049 53.7767 152.691L50.7948 148.338C50.6457 148.119 50.3972 148 50.1487 148V147.99Z" fill="#13706D"/>
</g>
<path id="Vector_45" d="M32.2675 147.811C31.532 147.811 30.8163 147.523 30.2597 146.976C28.2022 144.958 26.6616 142.593 25.8068 140.128C23.8686 134.512 24.5345 129.304 27.8643 124.205C28.2221 123.648 28.888 123.429 29.5142 123.638C30.1305 123.847 30.5281 124.453 30.4784 125.109C30.4088 125.964 30.3392 126.759 30.4088 127.504C30.5579 129.115 31.6711 130.238 33.1819 130.307C34.7822 130.387 35.8457 129.492 36.0047 127.952C36.2035 126.033 36.0047 124.135 35.4481 122.594C31.3033 111.194 38.5294 105.369 41.8393 103.391C42.3462 103.083 42.9823 103.123 43.4495 103.491C43.9166 103.858 44.1055 104.475 43.9365 105.041C42.4754 109.752 44.8509 113.4 47.6241 117.038C48.618 118.34 49.602 119.662 50.6159 121.034C50.924 116.69 52.1863 114.742 54.3432 112.844C54.7706 112.466 55.3769 112.386 55.8838 112.625C56.4007 112.873 56.7287 113.4 56.7088 113.977C56.6094 116.959 58.2991 119.225 60.0883 121.63C60.3864 122.038 60.6846 122.435 60.9828 122.843C66.1116 129.979 66.0619 138.776 60.8536 145.247C60.0584 146.241 58.7663 146.588 57.5835 146.141C56.4206 145.704 55.7049 144.62 55.7646 143.388C55.7646 143.259 55.7646 143.129 55.7646 143C55.7646 137.573 51.1129 133.16 45.3877 133.16C39.6625 133.16 35.0108 137.573 35.0108 143C35.0108 143.497 35.0505 144.004 35.1301 144.491C35.3289 145.734 34.7325 146.906 33.6093 147.483C33.172 147.712 32.7148 147.821 32.2575 147.821L32.2675 147.811ZM28.4109 127.256C26.4429 131.192 26.2143 135.208 27.6953 139.492C28.4408 141.658 29.8124 143.766 31.6612 145.565C32.0886 145.982 32.5756 145.783 32.7148 145.714C32.844 145.644 33.2813 145.376 33.1819 144.799C33.0825 144.203 33.0428 143.597 33.0428 142.99C33.0428 136.47 38.589 131.162 45.4076 131.162C52.2261 131.162 57.7724 136.47 57.7724 142.99C57.7724 143.149 57.7724 143.308 57.7724 143.467C57.7525 144.014 58.1401 144.213 58.3091 144.282C58.6073 144.392 59.0347 144.372 59.3329 144.004C63.9647 138.249 63.9846 130.397 59.3925 124.006C59.1042 123.608 58.816 123.211 58.5178 122.823C56.8281 120.567 55.0986 118.231 54.7905 115.199C53.389 116.69 52.4746 118.718 52.5541 123.956C52.5541 124.383 52.2857 124.771 51.8782 124.91C51.4607 125.049 51.0135 124.91 50.765 124.562L49.2343 122.495C48.1608 121.034 47.1271 119.642 46.0735 118.261C43.3501 114.692 40.8055 110.816 41.71 105.886C38.261 108.361 34.2057 113.301 37.3466 121.938C38.1914 124.264 38.1716 126.61 38.0125 128.18C37.7442 130.765 35.7662 132.434 33.1322 132.315C30.6275 132.216 28.6992 130.317 28.4606 127.713C28.4507 127.564 28.4408 127.425 28.4308 127.276L28.4109 127.256Z" fill="#13706D"/>
<g id="Group_10">
<path id="Vector_46" d="M36.3924 122.256C37.0583 124.075 37.1975 126.153 36.9987 128.051C36.7701 130.268 35.1002 131.381 33.1421 131.301C31.1841 131.222 29.6235 129.771 29.4148 127.604C29.3353 126.789 29.4049 125.974 29.4745 125.039C29.5142 124.592 28.9278 124.393 28.6793 124.761C25.5285 129.602 24.9122 134.552 26.7311 139.82C27.5561 142.215 29.057 144.441 30.9356 146.28C32.2277 147.543 34.4243 146.439 34.1361 144.65C34.0466 144.113 34.0069 143.567 34.0069 143C34.0069 137.017 39.0959 132.176 45.3777 132.176C45.4672 132.176 45.5566 132.186 45.656 132.186C45.6859 128.18 43.9266 124.98 41.3125 121.044C36.4321 113.698 42.3462 104.256 42.3462 104.256C39.5631 105.926 32.3967 111.323 36.3824 122.266L36.3924 122.256Z" fill="#AFE0DD"/>
<path id="Vector_47" d="M32.2675 147.811C31.532 147.811 30.8163 147.523 30.2597 146.976C28.2022 144.958 26.6616 142.593 25.8068 140.128C23.8686 134.512 24.5345 129.304 27.8643 124.205C28.2221 123.648 28.888 123.429 29.5142 123.638C30.1305 123.847 30.5281 124.453 30.4784 125.109C30.4088 125.964 30.3392 126.759 30.4088 127.504C30.5579 129.115 31.6711 130.238 33.1819 130.307C34.7822 130.387 35.8457 129.492 36.0047 127.952C36.2035 126.033 36.0047 124.135 35.4481 122.594C31.3033 111.194 38.5294 105.369 41.8393 103.391C42.2368 103.153 42.7338 103.222 43.0618 103.55C43.3799 103.878 43.4395 104.385 43.201 104.773C43.1413 104.862 37.6945 113.768 42.1573 120.487C44.5528 124.095 46.6997 127.703 46.6699 132.186C46.6699 132.454 46.5605 132.703 46.3717 132.892C46.1828 133.081 45.9542 133.16 45.656 133.17H45.4871C39.6923 133.17 35.0406 137.583 35.0406 143C35.0406 143.497 35.0804 144.004 35.1599 144.491C35.3587 145.734 34.7623 146.906 33.6391 147.483C33.2018 147.712 32.7446 147.821 32.2874 147.821L32.2675 147.811ZM28.4109 127.256C26.4429 131.182 26.2143 135.208 27.6953 139.492C28.4507 141.668 29.8124 143.766 31.6612 145.565C32.0886 145.982 32.5756 145.783 32.7148 145.714C32.844 145.644 33.2813 145.376 33.1819 144.799C33.0825 144.203 33.0428 143.597 33.0428 142.99C33.0428 136.709 38.1815 131.56 44.6522 131.192C44.4235 128.051 42.9823 125.318 40.5074 121.581C37.3068 116.75 38.3604 111.204 39.6923 107.586C36.9589 110.389 34.8021 114.951 37.3366 121.918C38.1815 124.244 38.1616 126.59 38.0026 128.161C37.7342 130.745 35.7563 132.415 33.1223 132.295C30.6175 132.196 28.6892 130.298 28.4507 127.693C28.4408 127.544 28.4308 127.405 28.4209 127.256H28.4109Z" fill="#13706D"/>
</g>
</g>
</svg>
