<svg width="220" height="180" viewBox="0 0 220 180" fill="none" xmlns="http://www.w3.org/2000/svg">
<path d="M107.654 12.6628H112.346C169.747 12.6628 216.353 59.2694 216.353 116.67V141.261C216.353 155.872 204.495 167.73 189.884 167.73H30.116C15.5048 167.73 3.64697 155.872 3.64697 141.261V116.67C3.64697 59.2694 50.2535 12.6628 107.654 12.6628Z" fill="#E0F4F3"/>
<path d="M39.3002 120.616H69.7351C71.077 120.616 72.1604 121.71 72.1604 123.041V144.064H36.875V123.041C36.875 121.7 37.9683 120.616 39.3002 120.616Z" fill="#AFE0DD"/>
<path d="M72.1602 145.068H36.8748C36.3281 145.068 35.8809 144.62 35.8809 144.074V123.042C35.8809 121.153 37.4115 119.622 39.3001 119.622H69.735C71.6235 119.622 73.1542 121.153 73.1542 123.042V144.074C73.1542 144.62 72.7069 145.068 72.1602 145.068ZM37.8688 143.08H71.1662V123.042C71.1662 122.246 70.5202 121.61 69.735 121.61H39.3001C38.5049 121.61 37.8688 122.256 37.8688 123.042V143.08Z" fill="#13706D"/>
<path d="M34.9265 143.974H74.1082C74.9332 143.974 75.5991 144.64 75.5991 145.465C75.5991 148.238 73.3528 150.485 70.5796 150.485H38.455C35.6819 150.485 33.4355 148.238 33.4355 145.465C33.4355 144.64 34.1015 143.974 34.9265 143.974Z" fill="#C4EAE7"/>
<path d="M70.5796 151.479H38.4451C35.1352 151.479 32.4316 148.785 32.4316 145.465C32.4316 144.093 33.5449 142.98 34.9165 142.98H74.0982C75.4699 142.98 76.5831 144.093 76.5831 145.465C76.5831 148.775 73.8895 151.479 70.5697 151.479H70.5796ZM34.9265 144.968C34.6482 144.968 34.4295 145.187 34.4295 145.465C34.4295 147.682 36.2385 149.491 38.455 149.491H70.5896C72.8061 149.491 74.6151 147.682 74.6151 145.465C74.6151 145.187 74.3964 144.968 74.1181 144.968H34.9364H34.9265Z" fill="#13706D"/>
<path d="M49.7466 143.974H59.2885V145.028C59.2885 146.479 58.1057 147.662 56.6546 147.662H52.3806C50.9294 147.662 49.7466 146.479 49.7466 145.028V143.974Z" fill="#AFE0DD"/>
<path d="M56.6544 148.666H52.3804C50.3825 148.666 48.7524 147.036 48.7524 145.038V143.984C48.7524 143.438 49.1997 142.99 49.7464 142.99H59.2884C59.835 142.99 60.2823 143.438 60.2823 143.984V145.038C60.2823 147.036 58.6522 148.666 56.6544 148.666ZM50.7404 144.968V145.028C50.7404 145.932 51.4759 146.668 52.3804 146.668H56.6544C57.5589 146.668 58.2944 145.932 58.2944 145.028V144.968H50.7404Z" fill="#13706D"/>
<path d="M39.9858 138.915V124.851C39.9858 124.214 40.5027 123.688 41.1488 123.688H63.5724C64.2085 123.688 64.7353 124.204 64.7353 124.851C60.0339 132.951 51.804 138.378 42.5005 139.501L41.3277 139.641C40.4431 139.78 39.9958 139.591 39.9958 138.905L39.9858 138.915Z" fill="#E0F4F3"/>
<path d="M55.3818 128.568H43.9315C43.3848 128.568 42.9375 128.121 42.9375 127.574C42.9375 127.027 43.3848 126.58 43.9315 126.58H55.3818C55.9285 126.58 56.3758 127.027 56.3758 127.574C56.3758 128.121 55.9285 128.568 55.3818 128.568Z" fill="#13706D"/>
<path d="M51.3961 132.564H43.9315C43.3848 132.564 42.9375 132.116 42.9375 131.57C42.9375 131.023 43.3848 130.576 43.9315 130.576H51.3961C51.9427 130.576 52.39 131.023 52.39 131.57C52.39 132.116 51.9427 132.564 51.3961 132.564Z" fill="#13706D"/>
<path d="M158.346 75.2422C162.461 70.8688 164.797 64.8156 164.2 58.2157C163.256 47.6699 154.628 39.1616 144.073 38.3466C137.811 37.8595 132.076 40.0164 127.802 43.7934C126.738 44.7377 125.138 44.7973 124.024 43.9127C119.065 39.9767 112.644 37.7999 105.696 38.3665C94.4444 39.271 84.9223 47.5804 82.4673 58.6034C81.7218 61.9431 81.6622 65.1834 82.1392 68.2547C82.1889 68.6125 82.0001 69.2784 81.8411 69.2784C73.1937 69.2784 65.8682 76.2958 66.1763 84.9432C66.2459 86.8814 63.5424 86.285 62.1111 86.454C56.197 87.1398 51.4261 91.9506 50.78 97.8646C49.9848 105.081 55.1236 111.263 61.9222 112.178C63.6219 111.979 63.9101 113.331 63.9896 113.847C65.7092 124.721 74.1777 133.359 84.9621 135.337C86.9301 135.694 88.7391 136.688 90.1108 138.15C94.8519 143.169 101.571 146.3 109.026 146.3C119.333 146.3 128.239 140.306 132.453 131.619C133.109 130.277 134.471 129.472 135.962 129.542C136.389 129.562 136.817 129.572 137.244 129.572C151.617 129.572 163.266 117.923 163.266 103.55C163.266 97.4769 161.179 91.8909 157.69 87.4579C154.807 83.8001 155.155 78.6514 158.356 75.2521L158.346 75.2422Z" fill="white"/>
<path d="M109.016 147.284C101.512 147.284 94.5439 144.282 89.3853 138.825C88.1528 137.523 86.5227 136.629 84.7833 136.311C73.5417 134.253 64.7949 125.288 63.0057 114.006C62.8765 113.211 62.5883 113.102 62.0317 113.162C61.9522 113.172 61.8627 113.162 61.7832 113.162C54.2192 112.148 48.9512 105.379 49.7861 97.7553C50.4819 91.3741 55.6207 86.2055 61.9919 85.47C62.3895 85.4203 62.8169 85.4203 63.2642 85.4302C63.8407 85.4302 64.9241 85.4402 65.1527 85.2016C65.1726 85.1818 65.1924 85.1022 65.1825 84.983C65.0334 80.699 66.6237 76.6039 69.6652 73.4531C72.6769 70.342 76.8217 68.4833 81.1454 68.3044C80.6484 65.0144 80.7677 61.6747 81.5032 58.3947C84.0478 46.9642 93.9674 38.3267 105.627 37.3825C112.505 36.8358 119.274 38.8734 124.651 43.1474C125.376 43.7239 126.45 43.6842 127.146 43.058C131.837 38.9032 137.87 36.8756 144.152 37.3626C155.165 38.2174 164.21 47.1431 165.194 58.1363C165.781 64.6864 163.554 71.1769 159.071 75.938C156.169 79.0292 155.911 83.6113 158.465 86.8417C162.252 91.6425 164.25 97.4173 164.25 103.55C164.25 118.449 152.134 130.566 137.234 130.566C136.787 130.566 136.34 130.556 135.902 130.536C134.799 130.466 133.815 131.063 133.338 132.047C128.845 141.31 119.303 147.294 109.016 147.294V147.284ZM62.2404 111.154C63.7015 111.154 64.7153 112.068 64.9738 113.678C66.6337 124.135 74.7344 132.434 85.1411 134.343C87.2881 134.74 89.3157 135.834 90.8365 137.444C95.6174 142.503 102.078 145.286 109.026 145.286C118.548 145.286 127.394 139.74 131.559 131.162C132.374 129.472 134.113 128.439 136.012 128.528C136.419 128.548 136.837 128.558 137.244 128.558C151.04 128.558 162.272 117.326 162.272 103.53C162.272 97.8547 160.413 92.5072 156.915 88.0543C153.754 84.0387 154.052 78.3632 157.63 74.5564C161.775 70.1432 163.763 64.3684 163.216 58.2953C162.312 48.2563 154.052 40.1059 144.003 39.3306C138.268 38.8834 132.761 40.7321 128.478 44.529C127.036 45.8013 124.909 45.8609 123.428 44.6881C118.449 40.7321 112.197 38.8337 105.805 39.3505C95.0111 40.2252 85.8269 48.2265 83.4613 58.8121C82.7755 61.8835 82.6662 65.0045 83.1433 68.0957C83.2228 68.6125 83.0637 69.4475 82.696 69.8749C82.5071 70.0935 82.1493 70.2724 81.8611 70.2724C77.8256 70.2724 73.9094 71.9323 71.1164 74.8248C68.4526 77.5879 67.0611 81.1662 67.1903 84.9035C67.2201 85.7483 66.8822 86.285 66.5939 86.5832C65.7789 87.4281 64.4569 87.4082 63.2741 87.4082C62.8865 87.4082 62.5187 87.4082 62.2404 87.438C56.7836 88.0742 52.3804 92.4973 51.784 97.964C51.0683 104.464 55.5312 110.249 61.9621 111.164C62.0615 111.164 62.1609 111.154 62.2603 111.154H62.2404Z" fill="#13706D"/>
<path d="M103.768 99.3456H77.8358C75.6839 99.3456 73.9395 101.09 73.9395 103.242V119.732C73.9395 121.883 75.6839 123.628 77.8358 123.628H103.768C105.92 123.628 107.664 121.883 107.664 119.732V103.242C107.664 101.09 105.92 99.3456 103.768 99.3456Z" fill="#AFE0DD"/>
<path d="M103.768 124.632H77.8258C75.1322 124.632 72.9355 122.435 72.9355 119.741V103.242C72.9355 100.548 75.1322 98.3516 77.8258 98.3516H103.768C106.462 98.3516 108.658 100.548 108.658 103.242V119.741C108.658 122.435 106.462 124.632 103.768 124.632ZM77.8357 100.339C76.2355 100.339 74.9334 101.642 74.9334 103.242V119.741C74.9334 121.342 76.2355 122.644 77.8357 122.644H103.778C105.378 122.644 106.68 121.342 106.68 119.741V103.242C106.68 101.642 105.378 100.339 103.778 100.339H77.8357Z" fill="#13706D"/>
<path d="M90.0816 47.5605H66.5845C61.9294 47.5605 58.1558 51.3342 58.1558 55.9893V71.1868C58.1558 75.8419 61.9294 79.6156 66.5845 79.6156H90.0816C94.7366 79.6156 98.5103 75.8419 98.5103 71.1868V55.9893C98.5103 51.3342 94.7366 47.5605 90.0816 47.5605Z" fill="#C4EAE7"/>
<path d="M90.0814 80.6096H66.5843C61.3859 80.6096 57.1616 76.3853 57.1616 71.1869V55.9893C57.1616 50.791 61.3859 46.5667 66.5843 46.5667H90.0814C95.2798 46.5667 99.5041 50.791 99.5041 55.9893V71.1869C99.5041 76.3853 95.2798 80.6096 90.0814 80.6096ZM66.5843 48.5546C62.4892 48.5546 59.1495 51.8942 59.1495 55.9893V71.1869C59.1495 75.282 62.4892 78.6217 66.5843 78.6217H90.0814C94.1765 78.6217 97.5162 75.282 97.5162 71.1869V55.9893C97.5162 51.8942 94.1765 48.5546 90.0814 48.5546H66.5843Z" fill="#13706D"/>
<path d="M78.3328 68.3343C77.7861 68.3343 77.3389 67.887 77.3389 67.3403V55.7906C77.3389 55.2439 77.7861 54.7966 78.3328 54.7966C78.8795 54.7966 79.3268 55.2439 79.3268 55.7906V67.3403C79.3268 67.887 78.8795 68.3343 78.3328 68.3343Z" fill="#13706D"/>
<path d="M78.3328 68.7517C78.0943 68.7517 77.8657 68.6722 77.6768 68.5032L70.2619 61.9332C69.8544 61.5654 69.8146 60.9392 70.1824 60.5317C70.5501 60.1142 71.1763 60.0844 71.5839 60.4522L78.9988 67.0222C79.4063 67.39 79.446 68.0162 79.0783 68.4237C78.8795 68.6424 78.6111 68.7616 78.3328 68.7616V68.7517Z" fill="#13706D"/>
<path d="M78.3331 68.7517C78.0647 68.7517 77.7963 68.6423 77.6075 68.4336C77.2298 68.036 77.2596 67.3999 77.6572 67.0321L84.7142 60.4621C85.1118 60.0844 85.748 60.1142 86.1157 60.5118C86.4934 60.9094 86.4636 61.5455 86.066 61.9133L79.0089 68.4833C78.8201 68.6622 78.5716 68.7517 78.3331 68.7517Z" fill="#13706D"/>
<path d="M70.918 69.4674V71.8529H85.3899V69.4674" fill="#C4EAE7"/>
<path d="M85.3898 72.8469H70.9178C70.3711 72.8469 69.9238 72.3996 69.9238 71.8529V69.4774C69.9238 68.9307 70.3711 68.4834 70.9178 68.4834C71.4645 68.4834 71.9117 68.9307 71.9117 69.4774V70.8589H84.3958V69.4774C84.3958 68.9307 84.8431 68.4834 85.3898 68.4834C85.9364 68.4834 86.3837 68.9307 86.3837 69.4774V71.8529C86.3837 72.3996 85.9364 72.8469 85.3898 72.8469Z" fill="#13706D"/>
<path d="M87.5171 108.152V114.831C87.5171 115.527 88.2626 115.964 88.8689 115.627L94.9717 112.237C95.5979 111.889 95.5979 110.985 94.9618 110.637L88.8589 107.347C88.2526 107.019 87.5171 107.456 87.5171 108.152Z" fill="#C4EAE7"/>
<path d="M88.4214 116.74C88.0934 116.74 87.7555 116.65 87.4573 116.471C86.8708 116.124 86.5229 115.517 86.5229 114.831V108.152C86.5229 107.476 86.8708 106.86 87.4473 106.522C88.0338 106.174 88.7295 106.164 89.3259 106.482L95.4288 109.772C96.045 110.1 96.4227 110.736 96.4327 111.432C96.4327 112.128 96.0649 112.774 95.4487 113.112L89.3458 116.501C89.0575 116.66 88.7395 116.74 88.4214 116.74ZM88.5109 108.291V114.682L94.3553 111.442L88.5109 108.291Z" fill="#13706D"/>
<path d="M114.632 111.233C124.496 111.233 132.493 103.236 132.493 93.3719C132.493 83.5073 124.496 75.5105 114.632 75.5105C104.767 75.5105 96.7705 83.5073 96.7705 93.3719C96.7705 103.236 104.767 111.233 114.632 111.233Z" fill="white"/>
<path d="M110.01 93.2327C118.057 93.2327 124.581 86.7089 124.581 78.6613C124.581 70.6138 118.057 64.09 110.01 64.09C101.962 64.09 95.4385 70.6138 95.4385 78.6613C95.4385 86.7089 101.962 93.2327 110.01 93.2327Z" fill="white"/>
<path d="M96.3831 83.8001C93.5404 76.2659 97.3473 67.867 104.881 65.0243L96.3831 83.8001Z" fill="white"/>
<path d="M96.383 84.7941C95.9854 84.7941 95.5978 84.5456 95.4487 84.148C92.4171 76.1169 96.4923 67.1216 104.523 64.09C105.04 63.8912 105.607 64.1596 105.806 64.6665C106.004 65.1834 105.736 65.7499 105.229 65.9487C101.84 67.2309 99.1462 69.7556 97.6453 73.0555C96.1544 76.3653 96.0351 80.0529 97.3074 83.4423C97.5061 83.9592 97.2378 84.5257 96.7309 84.7245C96.6116 84.7643 96.4923 84.7841 96.383 84.7841V84.7941Z" fill="#13706D"/>
<path d="M170.085 57.2615H124.711C121.219 57.2615 118.389 60.0917 118.389 63.583V92.7158C118.389 96.2071 121.219 99.0374 124.711 99.0374H170.085C173.576 99.0374 176.406 96.2071 176.406 92.7158V63.583C176.406 60.0917 173.576 57.2615 170.085 57.2615Z" fill="#AFE0DD"/>
<path d="M170.085 100.031H124.701C120.665 100.031 117.385 96.7513 117.385 92.7159V63.5831C117.385 59.5476 120.665 56.2676 124.701 56.2676H170.085C174.12 56.2676 177.4 59.5476 177.4 63.5831V92.7159C177.4 96.7513 174.12 100.031 170.085 100.031ZM124.711 58.2555C121.779 58.2555 119.383 60.641 119.383 63.5831V92.7159C119.383 95.6481 121.769 98.0435 124.711 98.0435H170.095C173.027 98.0435 175.422 95.658 175.422 92.7159V63.5831C175.422 60.6509 173.037 58.2555 170.095 58.2555H124.711Z" fill="#13706D"/>
<path d="M121.56 98.6896C121.301 98.6896 121.053 98.5902 120.854 98.4013C120.467 98.0137 120.467 97.3875 120.854 96.9999L137.662 80.1921C138.05 79.8045 138.676 79.8045 139.063 80.1921C139.451 80.5797 139.451 81.2059 139.063 81.5936L122.256 98.4013C122.057 98.6001 121.808 98.6896 121.55 98.6896H121.56Z" fill="#13706D"/>
<path d="M172.828 98.6896C172.57 98.6896 172.321 98.5902 172.122 98.4013L155.036 81.3153C154.649 80.9276 154.649 80.3014 155.036 79.9138C155.424 79.5261 156.05 79.5261 156.438 79.9138L173.524 96.9999C173.912 97.3875 173.912 98.0137 173.524 98.4013C173.325 98.6001 173.077 98.6896 172.818 98.6896H172.828Z" fill="#13706D"/>
<path d="M175.77 60.631C174.776 58.6332 172.729 57.2516 170.343 57.2516H124.453C121.978 57.2516 119.841 58.7425 118.906 60.8696L119.254 61.1777L144.202 86.126C145.862 87.7859 148.556 87.7859 150.216 86.126L175.403 60.9392L175.78 60.6211L175.77 60.631Z" fill="#C4EAE7"/>
<path d="M147.204 88.3723C145.802 88.3723 144.481 87.8256 143.496 86.8317L118.25 61.625C117.922 61.3367 117.823 60.8795 118.002 60.4819C119.125 57.9175 121.659 56.2676 124.462 56.2676H170.353C173.047 56.2676 175.472 57.7685 176.675 60.1937C176.883 60.6012 176.774 61.1081 176.426 61.3964L176.049 61.7144L150.921 86.8416C149.927 87.8356 148.615 88.3823 147.214 88.3823L147.204 88.3723ZM120.139 60.6708L144.908 85.4401C146.14 86.6727 148.287 86.6727 149.52 85.4401L174.518 60.4422C173.583 59.0805 172.043 58.2555 170.353 58.2555H124.462C122.693 58.2555 121.063 59.1799 120.148 60.6708H120.139Z" fill="#13706D"/>
<path d="M187.25 127.703C187.101 125.626 185.968 124.105 184.208 123.648C183.314 123.409 182.34 123.489 181.475 123.817C181.396 123.618 181.306 123.439 181.197 123.27C180.72 122.455 179.537 121.441 178.354 121.232C177.32 120.944 176.088 120.964 175.084 121.302C174.995 121.332 174.905 121.372 174.826 121.411C174.428 121.61 174.01 121.829 173.623 122.097C172.977 121.551 172.211 121.113 171.456 120.865C171.257 120.795 171.039 120.765 170.83 120.765C170.104 120.765 169.22 120.765 168.265 121.064C168.206 121.083 168.136 121.103 168.067 121.123C167.838 119.583 167.431 118.032 166.914 116.73C166.665 116.004 165.81 113.867 164.071 112.824C164.031 112.794 163.982 112.774 163.942 112.754C162.312 111.939 160.036 112.297 158.753 113.569C156.835 115.487 157.461 118.976 157.561 119.453C157.65 119.811 157.739 120.328 157.829 120.845C157.958 121.62 158.077 122.296 158.227 122.793C158.336 123.34 158.445 123.777 158.555 124.224C158.654 124.642 158.763 125.059 158.883 125.666C158.972 126.003 159.051 126.272 159.141 126.52C158.346 126.033 157.411 125.646 156.368 125.646C153.893 125.646 151.736 127.365 151.309 129.661C151.02 130.864 151 131.788 151.696 133.19C151.746 133.299 151.815 133.398 151.885 133.498C152.134 133.826 152.551 134.333 153.028 134.899C153.754 135.774 154.748 136.957 155.155 137.633C155.742 138.517 156.189 139.303 156.567 139.969C157.421 141.499 158.654 142.811 160.135 143.755L160.672 144.093L162.878 146.3C162.958 146.558 162.948 147.224 162.858 147.701C162.739 148.288 162.888 148.894 163.266 149.351C163.644 149.809 164.21 150.077 164.806 150.077C165.522 150.077 166.327 150.097 167.152 150.127C168.961 150.176 170.671 150.226 171.874 150.077C173.146 149.998 174.179 149.053 174.895 148.149C175.551 148.984 176.446 149.769 177.44 150.017C177.917 150.137 178.493 150.176 179.05 150.176C179.825 150.176 180.541 150.097 180.839 150.057C181.386 149.988 181.883 149.699 182.201 149.252C182.519 148.805 182.648 148.238 182.539 147.701C182.489 147.443 182.36 146.648 182.36 146.091C182.36 145.608 182.423 144.988 182.549 144.233C182.678 143.755 183.711 142.324 184.725 141.211C184.765 141.161 184.815 141.112 184.845 141.062C185.67 139.969 186.415 138.229 186.693 137.384C186.713 137.335 186.723 137.285 186.733 137.235C187.001 136.152 187.24 133.985 187.24 132.971V127.862C187.24 127.862 187.24 127.773 187.24 127.723L187.25 127.703Z" fill="#C4EAE7"/>
<path d="M156.059 129.552C155.155 128.349 154.25 126.232 152.441 123.528C151.537 122.018 148.823 119.006 147.919 117.803C147.312 116.601 147.312 115.994 147.621 114.792C147.919 112.983 149.728 111.472 151.845 111.472C153.356 111.472 154.857 112.674 156.069 113.579C156.676 114.185 157.58 115.388 158.176 115.994C158.783 116.601 158.783 116.899 159.379 117.505C159.985 118.41 160.284 119.016 159.985 117.803C159.687 116.292 159.379 113.887 158.783 111.472C158.485 109.663 158.176 109.365 157.878 108.152C157.58 106.641 157.272 105.737 156.974 104.236C156.676 103.331 156.367 100.916 156.069 99.7132C155.771 98.2024 155.771 95.4889 156.974 94.2863C157.878 93.3818 159.687 93.0836 160.89 93.6799C162.401 94.5844 163.305 96.6916 163.603 97.5961C164.21 99.1069 164.806 101.214 165.114 103.619C165.72 106.631 166.625 111.154 166.625 112.058C166.625 110.855 166.327 108.738 166.625 107.536C166.923 106.631 167.529 105.428 168.732 105.12C169.637 104.822 170.541 104.822 171.446 104.822C172.35 105.12 173.255 105.727 173.861 106.333C175.064 108.142 175.064 112.058 175.064 111.76C175.362 110.557 175.362 108.142 175.968 106.939C176.266 106.333 177.479 105.737 178.075 105.428C178.98 105.13 180.183 105.13 181.087 105.428C181.693 105.428 182.896 106.333 183.194 106.939C183.801 107.844 184.099 110.855 184.397 112.058C184.397 112.356 184.695 110.855 185.301 109.951C186.504 108.142 190.728 107.536 191.027 111.76V118.688C191.027 119.891 190.728 122.604 190.42 123.807C190.122 124.711 189.218 126.818 188.313 128.031C188.313 128.031 184.993 131.649 184.695 133.458C184.496 134.664 184.397 135.668 184.397 136.47C184.397 137.672 184.695 139.183 184.695 139.183C184.695 139.183 182.28 139.481 181.077 139.183C179.874 138.885 178.364 136.768 178.065 135.863C177.459 134.959 176.555 134.959 175.958 135.863C175.352 137.066 173.851 139.183 172.638 139.183C170.531 139.481 166.307 139.183 163.295 139.183C163.295 139.183 163.902 136.171 162.689 134.959C161.784 134.054 160.274 132.544 159.369 131.639L156.049 129.532L156.059 129.552Z" fill="white"/>
<path d="M182.568 140.326C181.952 140.326 181.326 140.287 180.829 140.167C179.189 139.76 177.608 137.434 177.171 136.36C177.082 136.251 177.012 136.211 176.992 136.201C176.992 136.201 176.903 136.251 176.803 136.4C176.535 136.927 174.786 140.118 172.708 140.197C171.207 140.406 168.822 140.336 166.516 140.267C165.393 140.237 164.28 140.197 163.286 140.197C162.987 140.197 162.709 140.068 162.52 139.829C162.331 139.601 162.252 139.293 162.311 139.004C162.51 138 162.54 136.241 161.983 135.685L158.743 132.444L155.523 130.397C155.423 130.337 155.334 130.248 155.264 130.158C154.797 129.542 154.37 128.767 153.833 127.793C153.266 126.769 152.561 125.496 151.617 124.085C151.04 123.131 149.698 121.531 148.625 120.238C148.008 119.493 147.452 118.837 147.134 118.4C147.094 118.35 147.064 118.3 147.044 118.251C146.299 116.76 146.329 115.905 146.667 114.553C147.034 112.307 149.32 110.488 151.845 110.488C153.594 110.488 155.185 111.681 156.447 112.635L156.656 112.794C156.656 112.794 156.725 112.853 156.765 112.883C157.093 113.211 157.501 113.698 157.878 114.155C158.077 114.394 158.266 114.623 158.455 114.841C158.286 113.857 158.077 112.774 157.809 111.72C157.62 110.597 157.451 110.11 157.272 109.593C157.153 109.245 157.034 108.897 156.904 108.41C156.745 107.625 156.596 107.039 156.447 106.452C156.298 105.846 156.149 105.25 156 104.504C155.821 103.928 155.652 102.983 155.483 101.989C155.354 101.244 155.225 100.479 155.095 99.9817C154.787 98.451 154.648 95.2206 156.258 93.6104C157.481 92.3879 159.747 92.04 161.327 92.8252C163.315 94.0179 164.289 96.5625 164.538 97.3179C164.945 98.3317 165.721 100.568 166.088 103.54C166.228 104.246 166.367 104.941 166.506 105.607C167.152 104.723 167.888 104.355 168.484 104.206C169.468 103.878 170.472 103.878 171.436 103.878C171.545 103.878 171.645 103.898 171.754 103.928C172.748 104.256 173.792 104.912 174.557 105.677C174.607 105.727 174.646 105.776 174.676 105.826C174.825 106.045 174.955 106.283 175.064 106.542C175.481 105.717 176.595 105.101 177.618 104.594C177.658 104.574 177.708 104.554 177.758 104.534C178.821 104.176 180.193 104.166 181.276 104.494C182.31 104.623 183.632 105.717 184.049 106.482C184.387 107.019 184.616 107.884 184.834 108.997C185.868 107.903 187.657 107.367 189.158 107.754C190.828 108.192 191.872 109.643 192.021 111.73V118.728C192.021 119.98 191.723 122.753 191.395 124.095C191.077 125.049 190.142 127.296 189.118 128.667C187.767 130.158 185.858 132.613 185.689 133.657C185.497 134.81 185.401 135.761 185.401 136.509C185.401 137.603 185.679 139.014 185.679 139.024C185.729 139.293 185.679 139.571 185.51 139.799C185.351 140.028 185.103 140.167 184.825 140.207C184.656 140.227 183.642 140.346 182.578 140.346L182.568 140.326ZM164.409 138.219C165.104 138.229 165.83 138.249 166.566 138.269C168.822 138.338 171.158 138.398 172.48 138.209C172.529 138.209 172.569 138.209 172.619 138.209C173.076 138.209 174.328 136.867 175.044 135.446C175.064 135.406 175.084 135.376 175.104 135.337C176.068 133.895 177.907 133.895 178.871 135.337C178.92 135.406 178.96 135.486 178.99 135.575C179.248 136.35 180.59 138.06 181.306 138.239C181.803 138.368 182.717 138.358 183.532 138.309C183.463 137.772 183.393 137.096 183.393 136.49C183.393 135.197 183.403 135.128 183.711 133.309C184.049 131.311 186.991 128.011 187.578 127.375C188.343 126.351 189.198 124.343 189.476 123.509C189.745 122.425 190.023 119.801 190.023 118.698V111.77C189.933 110.607 189.466 109.862 188.641 109.643C187.667 109.384 186.534 109.891 186.117 110.518C185.809 110.985 185.56 111.75 185.451 112.128C185.351 112.426 185.103 113.231 184.248 113.102C183.841 113.042 183.513 112.694 183.423 112.297C183.324 111.899 183.224 111.313 183.115 110.677C182.946 109.653 182.658 107.953 182.36 107.516C182.34 107.486 182.32 107.446 182.3 107.407C182.151 107.108 181.356 106.502 181.038 106.442C180.928 106.442 180.869 106.432 180.759 106.393C180.083 106.164 179.139 106.154 178.433 106.373C177.27 106.959 176.923 107.257 176.833 107.407C176.535 108.003 176.396 109.206 176.286 110.17C176.207 110.846 176.137 111.482 176.008 111.989C175.909 112.436 175.521 112.784 175.044 112.784H175.034C174.497 112.784 174.05 112.337 174.04 111.8C174.01 110.547 173.772 108.152 173.056 106.979C172.549 106.492 171.883 106.075 171.247 105.836C170.462 105.836 169.716 105.856 169.021 106.085C168.206 106.293 167.778 107.168 167.54 107.864C167.391 108.47 167.47 109.703 167.53 110.687C167.56 111.203 167.589 111.681 167.589 112.078C167.589 112.625 167.142 113.072 166.595 113.072C166.049 113.072 165.601 112.625 165.601 112.078C165.601 111.273 164.637 106.442 164.12 103.858C163.763 101.015 163.057 98.9678 162.659 97.9838C162.252 96.7712 161.417 95.1908 160.353 94.5447C159.618 94.177 158.266 94.3758 157.65 95.0019C156.855 95.7971 156.706 97.9639 157.014 99.5344C157.143 100.061 157.282 100.866 157.421 101.642C157.57 102.516 157.739 103.5 157.888 103.928C157.898 103.967 157.908 104.007 157.918 104.047C158.067 104.782 158.216 105.369 158.356 105.955C158.515 106.572 158.664 107.188 158.813 107.963C158.902 108.331 159.012 108.629 159.111 108.927C159.31 109.504 159.518 110.09 159.717 111.303C160.115 112.873 160.383 114.523 160.612 115.855C160.721 116.511 160.821 117.108 160.92 117.604C161.059 118.141 161.278 119.026 160.443 119.384C159.618 119.741 159.171 119.046 158.773 118.439L158.564 118.131C158.246 117.793 158.067 117.535 157.908 117.306C157.769 117.098 157.66 116.939 157.431 116.7C157.103 116.372 156.696 115.885 156.318 115.428C155.98 115.02 155.632 114.603 155.374 114.334L155.215 114.215C154.181 113.44 152.889 112.466 151.805 112.466C150.245 112.466 148.794 113.579 148.565 114.951C148.307 115.994 148.287 116.362 148.734 117.276C149.052 117.694 149.549 118.29 150.116 118.956C151.298 120.368 152.64 121.968 153.266 123.012C154.221 124.453 154.956 125.755 155.543 126.808C156 127.643 156.378 128.309 156.725 128.806L159.886 130.814C159.946 130.854 160.006 130.894 160.055 130.953L163.365 134.273C164.379 135.287 164.468 137.036 164.389 138.209L164.409 138.219Z" fill="#13706D"/>
<path d="M158.396 131.043C156.756 129.999 155.404 128.568 154.459 126.878C153.923 125.914 153.277 124.781 152.442 123.528C151.537 122.018 148.824 119.006 147.919 117.803C147.313 116.601 147.313 115.994 147.621 114.792C147.919 112.983 149.728 111.472 151.845 111.472C153.356 111.472 154.857 112.674 156.07 113.579C156.676 114.185 157.58 115.388 158.177 115.994C158.783 116.601 158.783 116.899 159.38 117.505C159.986 118.41 160.284 119.016 159.986 117.803C159.688 116.292 159.38 113.887 158.783 111.472C158.485 109.663 158.177 109.365 157.879 108.152C157.58 106.641 157.272 105.737 156.974 104.236C156.676 103.331 156.368 100.916 156.07 99.7132C155.772 98.2024 155.771 95.4889 156.974 94.2863C157.879 93.3818 159.688 93.0836 160.89 93.6799C162.401 94.5844 163.306 96.6916 163.604 97.5961C164.21 99.1069 164.807 101.214 165.115 103.619C165.721 106.631 166.625 111.154 166.625 112.058C166.625 110.855 166.327 108.738 166.625 107.536C166.924 106.631 167.53 105.428 168.733 105.12C169.637 104.822 170.542 104.822 171.446 104.822C172.351 105.12 173.255 105.727 173.861 106.333C175.064 108.142 175.064 112.058 175.064 111.76C175.362 110.557 175.362 108.142 175.969 106.939C176.267 106.333 177.479 105.737 178.076 105.428C178.98 105.13 180.183 105.13 181.088 105.428C181.694 105.428 182.897 106.333 183.195 106.939C183.801 107.844 184.099 110.855 184.397 112.058C184.397 112.356 184.696 110.855 185.302 109.951C186.505 108.142 190.729 107.536 191.027 111.76V118.688C191.027 119.891 190.729 122.604 190.421 123.807C190.123 124.711 189.218 126.818 188.314 128.031C188.314 128.031 184.994 131.649 184.696 133.458C184.497 134.664 184.397 135.668 184.397 136.47C184.397 137.672 184.696 139.183 184.696 139.183C184.696 139.183 182.28 139.481 181.078 139.183C179.875 138.885 178.364 136.768 178.066 135.863C177.46 134.959 176.555 134.959 175.959 135.863C175.352 137.066 173.852 139.183 172.639 139.183C170.532 139.481 166.307 139.183 163.296 139.183C163.296 139.183 163.902 136.171 162.689 134.959C161.785 134.054 160.274 132.544 159.37 131.639L158.396 131.023V131.043Z" fill="white"/>
<path d="M182.568 140.326C181.952 140.326 181.326 140.287 180.829 140.167C179.189 139.76 177.609 137.434 177.171 136.36C177.082 136.251 177.012 136.211 176.992 136.201C176.992 136.201 176.903 136.251 176.804 136.4C176.535 136.927 174.786 140.118 172.708 140.197C171.208 140.406 168.822 140.336 166.516 140.267C165.393 140.237 164.28 140.197 163.286 140.197C162.988 140.197 162.709 140.068 162.52 139.829C162.332 139.601 162.252 139.293 162.312 139.004C162.51 138 162.54 136.241 161.984 135.685L158.743 132.444L157.859 131.888C156.08 130.754 154.609 129.194 153.585 127.365C153.068 126.431 152.442 125.328 151.607 124.085C151.03 123.131 149.688 121.531 148.615 120.238C147.999 119.493 147.442 118.837 147.124 118.4C147.084 118.35 147.054 118.3 147.035 118.251C146.289 116.76 146.319 115.905 146.657 114.553C147.025 112.307 149.311 110.488 151.835 110.488C153.585 110.488 155.175 111.681 156.437 112.635L156.646 112.794C156.646 112.794 156.716 112.853 156.755 112.883C157.083 113.211 157.491 113.698 157.869 114.155C158.067 114.394 158.256 114.623 158.445 114.841C158.276 113.857 158.067 112.774 157.799 111.72C157.61 110.597 157.441 110.11 157.262 109.593C157.143 109.245 157.024 108.897 156.895 108.41C156.736 107.625 156.586 107.039 156.437 106.452C156.288 105.846 156.139 105.25 155.99 104.504C155.811 103.928 155.642 102.983 155.473 101.989C155.344 101.244 155.215 100.479 155.086 99.9817C154.777 98.451 154.638 95.2206 156.249 93.6104C157.471 92.3879 159.737 92.04 161.318 92.8252C163.306 94.0179 164.28 96.5625 164.528 97.3179C164.936 98.3317 165.711 100.568 166.079 103.54C166.218 104.246 166.357 104.941 166.496 105.607C167.142 104.723 167.878 104.355 168.474 104.206C169.458 103.878 170.462 103.878 171.426 103.878C171.536 103.878 171.635 103.898 171.744 103.928C172.738 104.256 173.782 104.912 174.547 105.677C174.597 105.727 174.637 105.776 174.667 105.826C174.816 106.045 174.945 106.283 175.054 106.542C175.472 105.717 176.585 105.101 177.609 104.594C177.648 104.574 177.698 104.554 177.748 104.534C178.811 104.176 180.183 104.166 181.266 104.494C182.3 104.623 183.622 105.717 184.04 106.482C184.377 107.019 184.606 107.884 184.825 108.997C185.858 107.903 187.648 107.367 189.148 107.754C190.818 108.192 191.862 109.643 192.011 111.73V118.728C192.011 119.98 191.713 122.753 191.385 124.095C191.067 125.049 190.132 127.296 189.109 128.667C187.757 130.158 185.848 132.613 185.68 133.657C185.487 134.81 185.391 135.761 185.391 136.509C185.391 137.603 185.67 139.014 185.67 139.024C185.719 139.293 185.67 139.571 185.501 139.799C185.342 140.028 185.093 140.167 184.815 140.207C184.646 140.227 183.632 140.346 182.568 140.346V140.326ZM164.409 138.219C165.105 138.229 165.83 138.249 166.566 138.269C168.822 138.338 171.158 138.398 172.48 138.209C172.53 138.209 172.569 138.209 172.619 138.209C173.076 138.209 174.329 136.867 175.044 135.446C175.064 135.406 175.084 135.376 175.104 135.337C176.068 133.895 177.907 133.895 178.871 135.337C178.921 135.406 178.96 135.486 178.99 135.575C179.249 136.35 180.59 138.06 181.306 138.239C181.803 138.368 182.718 138.358 183.533 138.309C183.463 137.772 183.393 137.096 183.393 136.49C183.393 135.197 183.403 135.128 183.711 133.309C184.049 131.311 186.992 128.011 187.578 127.375C188.343 126.351 189.198 124.343 189.476 123.509C189.745 122.425 190.023 119.801 190.023 118.698V111.77C189.934 110.607 189.466 109.862 188.641 109.643C187.667 109.384 186.534 109.891 186.117 110.518C185.809 110.985 185.56 111.75 185.451 112.128C185.352 112.426 185.103 113.231 184.248 113.102C183.841 113.042 183.513 112.694 183.423 112.297C183.324 111.899 183.224 111.313 183.115 110.677C182.946 109.653 182.658 107.953 182.36 107.516C182.34 107.486 182.32 107.446 182.3 107.407C182.151 107.108 181.356 106.502 181.038 106.442C180.928 106.442 180.869 106.432 180.759 106.393C180.084 106.164 179.139 106.154 178.434 106.373C177.271 106.959 176.923 107.257 176.833 107.407C176.535 108.003 176.396 109.206 176.287 110.17C176.207 110.846 176.138 111.482 176.008 111.989C175.909 112.436 175.521 112.784 175.044 112.784H175.034C174.498 112.784 174.05 112.337 174.04 111.8C174.01 110.547 173.772 108.152 173.056 106.979C172.549 106.492 171.883 106.075 171.247 105.836C170.462 105.836 169.717 105.856 169.021 106.085C168.206 106.293 167.778 107.168 167.54 107.864C167.391 108.47 167.47 109.703 167.53 110.687C167.56 111.203 167.59 111.681 167.59 112.078C167.59 112.625 167.142 113.072 166.596 113.072C166.049 113.072 165.602 112.625 165.602 112.078C165.602 111.273 164.638 106.442 164.121 103.858C163.763 101.015 163.057 98.9678 162.66 97.9838C162.252 96.7712 161.417 95.1908 160.354 94.5447C159.618 94.177 158.266 94.3758 157.65 95.0019C156.855 95.7971 156.706 97.9639 157.014 99.5344C157.143 100.061 157.282 100.866 157.421 101.642C157.57 102.516 157.739 103.5 157.889 103.928C157.898 103.967 157.908 104.007 157.918 104.047C158.067 104.782 158.217 105.369 158.356 105.955C158.515 106.572 158.664 107.188 158.813 107.963C158.902 108.331 159.012 108.629 159.111 108.927C159.31 109.504 159.519 110.09 159.717 111.303C160.115 112.873 160.383 114.523 160.612 115.855C160.721 116.511 160.821 117.108 160.92 117.604C161.059 118.141 161.278 119.026 160.443 119.384C159.618 119.741 159.171 119.046 158.773 118.439L158.564 118.131C158.246 117.793 158.067 117.535 157.908 117.306C157.769 117.098 157.66 116.939 157.431 116.7C157.103 116.372 156.696 115.885 156.318 115.428C155.98 115.02 155.632 114.603 155.374 114.334L155.215 114.215C154.181 113.44 152.889 112.466 151.806 112.466C150.245 112.466 148.794 113.579 148.565 114.951C148.307 115.994 148.287 116.362 148.734 117.276C149.052 117.694 149.549 118.29 150.116 118.956C151.299 120.368 152.64 121.968 153.267 123.012C154.072 124.214 154.718 125.347 155.304 126.391C156.169 127.932 157.411 129.254 158.902 130.208L159.876 130.824C159.936 130.864 159.996 130.904 160.045 130.963L163.355 134.283C164.369 135.297 164.459 137.046 164.379 138.219H164.409Z" fill="#13706D"/>
<path d="M181.068 131.45C180.521 131.45 180.074 131.003 180.074 130.456V120.209C180.074 119.662 180.521 119.215 181.068 119.215C181.614 119.215 182.062 119.662 182.062 120.209V130.456C182.062 131.003 181.614 131.45 181.068 131.45Z" fill="#13706D"/>
<path d="M175.044 131.45C174.508 131.45 174.07 131.023 174.05 130.486L173.752 120.239C173.732 119.692 174.17 119.235 174.716 119.215C175.223 119.225 175.72 119.632 175.74 120.179L176.038 130.427C176.058 130.973 175.621 131.43 175.074 131.45H175.044Z" fill="#13706D"/>
<path d="M169.021 131.45C168.474 131.45 168.027 131.003 168.027 130.456V120.209C168.027 119.662 168.474 119.215 169.021 119.215C169.567 119.215 170.015 119.662 170.015 120.209V130.456C170.015 131.003 169.567 131.45 169.021 131.45Z" fill="#13706D"/>
<path d="M114.632 111.243C104.762 111.243 96.7705 103.242 96.7705 93.3818L114.632 111.243Z" fill="white"/>
<path d="M114.632 112.237C104.235 112.237 95.7764 103.779 95.7764 93.3819C95.7764 92.8352 96.2236 92.3879 96.7703 92.3879C97.317 92.3879 97.7643 92.8352 97.7643 93.3819C97.7643 102.685 105.338 110.249 114.632 110.249C115.178 110.249 115.626 110.697 115.626 111.243C115.626 111.79 115.178 112.237 114.632 112.237Z" fill="#13706D"/>
<path d="M31.4479 128.896C31.2392 128.896 31.0205 128.826 30.8416 128.687C29.7681 127.862 28.7444 126.908 27.8001 125.844C27.4323 125.437 27.4721 124.811 27.8796 124.443C28.2871 124.075 28.9133 124.115 29.2811 124.522C30.1359 125.487 31.0702 126.351 32.0443 127.107C32.4816 127.445 32.5611 128.061 32.2331 128.498C32.0343 128.757 31.7461 128.886 31.4479 128.886V128.896ZM24.8083 120.348C24.4306 120.348 24.0628 120.129 23.8939 119.751C23.3472 118.509 22.89 117.187 22.552 115.835C22.4228 115.299 22.7409 114.762 23.2776 114.633C23.8044 114.503 24.3511 114.821 24.4803 115.358C24.7984 116.601 25.2059 117.813 25.7128 118.956C25.9315 119.463 25.7128 120.05 25.2059 120.268C25.0767 120.328 24.9375 120.348 24.8083 120.348ZM22.721 109.712C22.1743 109.712 21.727 109.265 21.737 108.709C21.737 107.387 21.8364 106.015 22.0053 104.633C22.0749 104.087 22.562 103.689 23.1086 103.769C23.6553 103.838 24.043 104.335 23.9734 104.872C23.8143 106.184 23.7249 107.476 23.7249 108.719C23.7249 109.265 23.2776 109.703 22.7309 109.703L22.721 109.712ZM24.6691 99.0275C24.5399 99.0275 24.4008 98.9976 24.2716 98.948C23.7646 98.7293 23.536 98.1429 23.7547 97.6459C24.2914 96.4034 24.9475 95.1809 25.7227 93.9981C26.0209 93.5408 26.6372 93.4116 27.0944 93.7098C27.5516 94.008 27.6808 94.6242 27.3826 95.0815C26.6769 96.1649 26.0607 97.288 25.5736 98.4212C25.4146 98.7989 25.0468 99.0175 24.6592 99.0175L24.6691 99.0275ZM31.0802 90.2608C30.8118 90.2608 30.5434 90.1515 30.3446 89.9328C29.9769 89.5253 30.0067 88.8991 30.4142 88.5313C31.5871 87.4678 32.4916 86.8217 32.7898 86.6229C32.909 86.5036 33.1277 86.275 33.4656 85.9768C33.8732 85.6091 34.4994 85.6389 34.8671 86.0464C35.2349 86.4539 35.2051 87.0801 34.7975 87.4479C34.4 87.8057 34.1813 88.0443 34.1713 88.0542C34.1117 88.1138 34.0521 88.1635 33.9825 88.2132C33.9825 88.2132 33.0283 88.8394 31.7461 90.0024C31.5572 90.1713 31.3187 90.2608 31.0802 90.2608ZM39.986 83.9889C39.5983 83.9889 39.2306 83.7603 39.0715 83.3826C38.8529 82.8757 39.0914 82.2893 39.5983 82.0805C40.9004 81.5339 42.2423 81.1164 43.5841 80.848C44.1308 80.7387 44.6476 81.0866 44.757 81.6233C44.8663 82.1601 44.5184 82.6869 43.9817 82.7962C42.7691 83.0347 41.5564 83.4124 40.3836 83.9094C40.2544 83.9591 40.1251 83.9889 39.9959 83.9889H39.986ZM54.5176 83.8001C54.3983 83.8001 54.2791 83.7802 54.1697 83.7405C52.9571 83.2832 51.7345 82.9453 50.5219 82.7266C49.9852 82.6272 49.6174 82.1203 49.7168 81.5736C49.8162 81.027 50.333 80.6691 50.8698 80.7685C52.2017 80.9971 53.5435 81.3748 54.8754 81.8818C55.3923 82.0805 55.6507 82.6471 55.4519 83.164C55.3028 83.5615 54.9251 83.81 54.5176 83.81V83.8001Z" fill="#13706D"/>
</svg>
