<svg width="220" height="180" viewBox="0 0 220 180" fill="none" xmlns="http://www.w3.org/2000/svg">
<g id="tools-npm">
<path id="Vector" d="M107.654 12.3984H112.346C169.747 12.3984 216.353 59.005 216.353 116.406V140.996C216.353 155.607 204.495 167.465 189.884 167.465H30.116C15.5048 167.465 3.64697 155.607 3.64697 140.996V116.406C3.64697 59.005 50.2535 12.3984 107.654 12.3984Z" fill="#E0F4F3"/>
<g id="Group">
<path id="Vector_2" d="M131.977 73.0694H77.836C75.6394 73.0694 73.8701 71.3797 73.8701 69.3023V53.5581C73.8701 51.4807 75.6493 49.791 77.836 49.791H143.457C145.654 49.791 147.423 51.4807 147.423 53.5581V69.3023C147.423 71.3797 145.644 73.0694 143.457 73.0694H140.048" fill="white"/>
<path id="Vector_3" d="M143.457 74.0634H140.047C139.501 74.0634 139.053 73.6162 139.053 73.0695C139.053 72.5228 139.501 72.0755 140.047 72.0755H143.457C145.097 72.0755 146.429 70.8331 146.429 69.3024V53.5582C146.429 52.0275 145.097 50.785 143.457 50.785H77.8358C76.1958 50.785 74.8639 52.0275 74.8639 53.5582V69.3024C74.8639 70.8331 76.1958 72.0755 77.8358 72.0755H131.977C132.523 72.0755 132.97 72.5228 132.97 73.0695C132.97 73.6162 132.523 74.0634 131.977 74.0634H77.8358C75.1024 74.0634 72.876 71.9264 72.876 69.3024V53.5582C72.876 50.9341 75.1024 48.7971 77.8358 48.7971H143.457C146.19 48.7971 148.417 50.9341 148.417 53.5582V69.3024C148.417 71.9264 146.19 74.0634 143.457 74.0634Z" fill="#13706D"/>
</g>
<g id="Group_2">
<path id="Vector_4" d="M97.0191 55.7748V73.0597H78.4521C75.9274 73.0597 73.8799 71.3699 73.8799 69.2926V53.5483C73.8799 51.471 75.9274 49.7812 78.4521 49.7812H97.0191V55.7748Z" fill="#C4EAE7"/>
<path id="Vector_5" d="M97.019 74.0634H78.4519C75.3806 74.0634 72.8857 71.9264 72.8857 69.3024V53.5582C72.8857 50.9341 75.3806 48.7971 78.4519 48.7971H97.019C97.5656 48.7971 98.0129 49.2444 98.0129 49.7911V73.0695C98.0129 73.6162 97.5656 74.0634 97.019 74.0634ZM78.4519 50.785C76.4739 50.785 74.8737 52.0275 74.8737 53.5582V69.3024C74.8737 70.8331 76.4839 72.0755 78.4519 72.0755H96.025V50.785H78.4519Z" fill="#13706D"/>
</g>
<g id="Group_3">
<path id="Vector_6" d="M97.2079 67.7219C100.672 67.7219 103.48 64.9139 103.48 61.4501C103.48 57.9862 100.672 55.1782 97.2079 55.1782C93.744 55.1782 90.936 57.9862 90.936 61.4501C90.936 64.9139 93.744 67.7219 97.2079 67.7219Z" fill="white"/>
<path id="Vector_7" d="M97.2077 68.7257C93.2021 68.7257 89.9419 65.4655 89.9419 61.4599C89.9419 57.4543 93.2021 54.1941 97.2077 54.1941C101.213 54.1941 104.474 57.4543 104.474 61.4599C104.474 65.4655 101.213 68.7257 97.2077 68.7257ZM97.2077 56.1721C94.2954 56.1721 91.9298 58.5377 91.9298 61.45C91.9298 64.3622 94.2954 66.7279 97.2077 66.7279C100.12 66.7279 102.486 64.3622 102.486 61.45C102.486 58.5377 100.12 56.1721 97.2077 56.1721Z" fill="#13706D"/>
</g>
<path id="Vector_8" d="M98.7883 61.0524H95.6375C95.0908 61.0524 94.6436 60.6051 94.6436 60.0584C94.6436 59.5117 95.0908 59.0645 95.6375 59.0645H98.7883C99.335 59.0645 99.7823 59.5117 99.7823 60.0584C99.7823 60.6051 99.335 61.0524 98.7883 61.0524Z" fill="#13706D"/>
<path id="Vector_9" d="M98.7883 63.7858H95.6375C95.0908 63.7858 94.6436 63.3385 94.6436 62.7918C94.6436 62.2451 95.0908 61.7979 95.6375 61.7979H98.7883C99.335 61.7979 99.7823 62.2451 99.7823 62.7918C99.7823 63.3385 99.335 63.7858 98.7883 63.7858Z" fill="#13706D"/>
<path id="Vector_10" d="M48.4645 154.852H44.4886C43.942 154.852 43.4947 154.405 43.4947 153.858C43.4947 153.311 43.942 152.864 44.4886 152.864H48.4645C49.0111 152.864 49.4584 153.311 49.4584 153.858C49.4584 154.405 49.0111 154.852 48.4645 154.852ZM37.531 154.852H33.5551C33.0085 154.852 32.5612 154.405 32.5612 153.858C32.5612 153.311 33.0085 152.864 33.5551 152.864H37.531C38.0776 152.864 38.5249 153.311 38.5249 153.858C38.5249 154.405 38.0776 154.852 37.531 154.852ZM26.5975 154.852H22.6216C22.075 154.852 21.6277 154.405 21.6277 153.858C21.6277 153.311 22.075 152.864 22.6216 152.864H26.5975C27.1441 152.864 27.5914 153.311 27.5914 153.858C27.5914 154.405 27.1441 154.852 26.5975 154.852ZM15.664 154.852H11.6881C11.1415 154.852 10.6942 154.405 10.6942 153.858C10.6942 153.311 11.1415 152.864 11.6881 152.864H15.664C16.2106 152.864 16.6579 153.311 16.6579 153.858C16.6579 154.405 16.2106 154.852 15.664 154.852ZM55.3327 154.216C54.945 154.216 54.5773 153.987 54.4183 153.609C54.1996 153.103 54.4381 152.516 54.945 152.307C56.0086 151.85 56.9528 151.135 57.6784 150.22C58.0164 149.793 58.6426 149.713 59.07 150.061C59.4974 150.399 59.5769 151.025 59.229 151.453C58.3046 152.625 57.082 153.55 55.7104 154.136C55.5812 154.186 55.452 154.216 55.3228 154.216H55.3327ZM60.1732 145.26C59.6266 145.26 59.1793 144.813 59.1793 144.266V140.29C59.1793 139.744 59.6266 139.297 60.1732 139.297C60.7199 139.297 61.1672 139.744 61.1672 140.29V144.266C61.1672 144.813 60.7199 145.26 60.1732 145.26ZM60.1534 134.327C59.6365 134.327 59.1992 133.919 59.1594 133.392C59.0898 132.23 58.7221 131.096 58.1058 130.112C57.8176 129.645 57.9567 129.039 58.4139 128.741C58.8811 128.453 59.4874 128.592 59.7856 129.049C60.5808 130.311 61.0479 131.772 61.1374 133.263C61.1672 133.81 60.7497 134.287 60.2031 134.317C60.1832 134.317 60.1633 134.317 60.1434 134.317L60.1534 134.327ZM53.2951 126.932C53.2951 126.932 53.2056 126.932 53.1659 126.932C52.8478 126.892 52.5297 126.872 52.2117 126.872H49.3193C48.7726 126.872 48.3253 126.425 48.3253 125.878C48.3253 125.331 48.7726 124.884 49.3193 124.884H52.2117C52.6192 124.884 53.0267 124.914 53.4243 124.964C53.971 125.033 54.3487 125.54 54.2791 126.077C54.2095 126.574 53.7821 126.942 53.2951 126.942V126.932ZM42.3616 126.862H38.3858C37.8391 126.862 37.3918 126.415 37.3918 125.868C37.3918 125.322 37.8391 124.874 38.3858 124.874H42.3616C42.9083 124.874 43.3555 125.322 43.3555 125.868C43.3555 126.415 42.9083 126.862 42.3616 126.862ZM31.4281 126.862H27.4523C26.9056 126.862 26.4583 126.415 26.4583 125.868C26.4583 125.322 26.9056 124.874 27.4523 124.874H31.4281C31.9748 124.874 32.422 125.322 32.422 125.868C32.422 126.415 31.9748 126.862 31.4281 126.862ZM20.4946 126.862H16.5188C15.9721 126.862 15.5248 126.415 15.5248 125.868C15.5248 125.322 15.9721 124.874 16.5188 124.874H20.4946C21.0413 124.874 21.4885 125.322 21.4885 125.868C21.4885 126.415 21.0413 126.862 20.4946 126.862ZM9.56108 126.862H5.58526C5.03859 126.862 4.59131 126.415 4.59131 125.868C4.59131 125.322 5.03859 124.874 5.58526 124.874H9.56108C10.1078 124.874 10.555 125.322 10.555 125.868C10.555 126.415 10.1078 126.862 9.56108 126.862Z" fill="#13706D"/>
<g id="Group_4">
<path id="Vector_11" d="M21.0609 143.332V136.195C21.0609 135.48 21.4684 135.102 22.1841 135.102C22.6313 135.102 22.9395 135.291 23.2874 135.748L26.7662 140.539H26.8159V136.255C26.8159 135.52 27.2234 135.112 27.9092 135.112C28.5951 135.112 29.0026 135.52 29.0026 136.255V143.402C29.0026 144.097 28.6149 144.485 27.9092 144.485C27.4421 144.485 27.134 144.306 26.796 143.839L23.2874 138.998H23.2377V143.332C23.2377 144.068 22.8301 144.485 22.1344 144.485C21.4386 144.485 21.041 144.077 21.041 143.332H21.0609Z" fill="#13706D"/>
<path id="Vector_12" d="M30.9111 143.272V136.444C30.9111 135.678 31.3385 135.231 32.0741 135.231H34.8571C36.8152 135.231 38.1372 136.503 38.1372 138.452C38.1372 140.4 36.7456 141.662 34.718 141.662H33.227V143.262C33.227 144.028 32.8096 144.465 32.0741 144.465C31.3385 144.465 30.9111 144.028 30.9111 143.262V143.272ZM34.2309 139.923C35.215 139.923 35.7914 139.416 35.7914 138.462C35.7914 137.507 35.215 137 34.2409 137H33.227V139.923H34.2309Z" fill="#13706D"/>
<path id="Vector_13" d="M39.6779 143.402V136.593C39.6779 135.639 40.2246 135.092 41.1788 135.092C41.9839 135.092 42.4212 135.42 42.7492 136.275L44.6477 141.086H44.6974L46.5859 136.275C46.9238 135.42 47.3512 135.092 48.1663 135.092C49.1205 135.092 49.6572 135.629 49.6572 136.593V143.402C49.6572 144.087 49.2795 144.475 48.6334 144.475C47.9874 144.475 47.6196 144.087 47.6196 143.402V138.65H47.5798L45.5522 143.66C45.3832 144.087 45.1148 144.286 44.6676 144.286C44.2203 144.286 43.932 144.087 43.773 143.66L41.7553 138.65H41.7056V143.402C41.7056 144.087 41.3279 144.475 40.6917 144.475C40.0556 144.475 39.668 144.087 39.668 143.402H39.6779Z" fill="#13706D"/>
</g>
<g id="Group_5">
<g id="Group_6">
<path id="Vector_14" d="M111.968 142.835L82.229 134.884V97.1929L111.968 105.145V142.835Z" fill="#AFE0DD"/>
<path id="Vector_15" d="M111.968 143.829C111.879 143.829 111.799 143.819 111.71 143.799L81.9606 135.848C81.5233 135.728 81.2251 135.341 81.2251 134.884V97.1828C81.2251 96.8747 81.3643 96.5864 81.6127 96.3976C81.8612 96.2087 82.1793 96.1392 82.4775 96.2286L112.227 104.18C112.664 104.3 112.962 104.687 112.962 105.144V142.845C112.962 143.153 112.823 143.441 112.574 143.63C112.396 143.769 112.187 143.839 111.968 143.839V143.829ZM83.213 134.118L110.974 141.533V105.89L83.213 98.475V134.118Z" fill="#13706D"/>
</g>
<g id="Group_7">
<path id="Vector_16" d="M141.31 134.883L111.561 142.835V105.144L141.31 97.1926V134.883Z" fill="#C4EAE7"/>
<path id="Vector_17" d="M111.56 143.829C111.342 143.829 111.133 143.759 110.954 143.62C110.706 143.431 110.566 143.143 110.566 142.835V105.134C110.566 104.687 110.865 104.29 111.302 104.17L141.051 96.2186C141.349 96.1391 141.667 96.1988 141.916 96.3876C142.164 96.5765 142.303 96.8647 142.303 97.1728V134.874C142.303 135.321 142.005 135.718 141.568 135.838L111.819 143.789C111.739 143.809 111.65 143.819 111.56 143.819V143.829ZM112.554 105.9V141.543L140.315 134.128V98.4849L112.554 105.9Z" fill="#13706D"/>
</g>
<g id="Group_8">
<path id="Vector_18" d="M82.2285 97.1929L111.56 87.9988L141.309 97.1929L111.56 105.144L82.2285 97.1929Z" fill="white"/>
<path id="Vector_19" d="M111.56 106.138C111.471 106.138 111.381 106.128 111.302 106.099L81.9604 98.147C81.533 98.0277 81.2348 97.65 81.2249 97.2027C81.2149 96.7554 81.5032 96.3678 81.9206 96.2386L111.262 87.0445C111.451 86.9848 111.66 86.9848 111.849 87.0445L141.598 96.2386C142.025 96.3678 142.303 96.7654 142.303 97.2027C142.303 97.65 141.995 98.0277 141.568 98.147L111.819 106.099C111.739 106.118 111.65 106.128 111.56 106.128V106.138ZM85.7672 97.1232L111.56 104.111L137.711 97.1232L111.56 89.0423L85.7672 97.1232Z" fill="#13706D"/>
</g>
</g>
<g id="Group_9">
<path id="Vector_20" d="M97.7846 102.202C97.3671 102.202 96.9795 101.944 96.8403 101.526C96.6614 101.009 96.9496 100.443 97.4665 100.264L124.104 91.2984C124.631 91.1294 125.188 91.4077 125.367 91.9246C125.546 92.4415 125.257 93.008 124.741 93.1869L98.1026 102.152C97.9933 102.192 97.8939 102.202 97.7846 102.202Z" fill="#13706D"/>
</g>
<g id="Group_10">
<path id="Vector_21" d="M82.5768 55.1782H82.5668C80.8431 55.1782 79.4458 56.5755 79.4458 58.2992V58.3092C79.4458 60.0329 80.8431 61.4302 82.5668 61.4302H82.5768C84.3004 61.4302 85.6978 60.0329 85.6978 58.3092V58.2992C85.6978 56.5755 84.3004 55.1782 82.5768 55.1782Z" fill="#C4EAE7"/>
<path id="Vector_22" d="M82.5769 62.424C80.3107 62.424 78.4619 60.5753 78.4619 58.3091C78.4619 56.0428 80.3107 54.1941 82.5769 54.1941C84.8431 54.1941 86.6919 56.0428 86.6919 58.3091C86.6919 60.5753 84.8431 62.424 82.5769 62.424ZM82.5769 56.1721C81.404 56.1721 80.4498 57.1263 80.4498 58.2991C80.4498 59.472 81.404 60.4262 82.5769 60.4262C83.7498 60.4262 84.704 59.472 84.704 58.2991C84.704 57.1263 83.7498 56.1721 82.5769 56.1721Z" fill="#13706D"/>
</g>
<path id="Vector_23" d="M113.777 55.1782H113.767C112.043 55.1782 110.646 56.5755 110.646 58.2992V58.3092C110.646 60.0329 112.043 61.4302 113.767 61.4302H113.777C115.501 61.4302 116.898 60.0329 116.898 58.3092V58.2992C116.898 56.5755 115.501 55.1782 113.777 55.1782Z" fill="#C4EAE7"/>
<path id="Vector_24" d="M87.6164 65.5551H79.4461C78.8994 65.5551 78.4521 65.1078 78.4521 64.5611C78.4521 64.0144 78.8994 63.5671 79.4461 63.5671H87.6164C88.1631 63.5671 88.6104 64.0144 88.6104 64.5611C88.6104 65.1078 88.1631 65.5551 87.6164 65.5551Z" fill="#13706D"/>
<path id="Vector_25" d="M123.637 65.5551H110.676C110.129 65.5551 109.682 65.1078 109.682 64.5611C109.682 64.0144 110.129 63.5671 110.676 63.5671H123.637C124.184 63.5671 124.631 64.0144 124.631 64.5611C124.631 65.1078 124.184 65.5551 123.637 65.5551Z" fill="#C4EAE7"/>
<path id="Vector_26" d="M134.859 65.5551H126.977C126.43 65.5551 125.983 65.1078 125.983 64.5611C125.983 64.0144 126.43 63.5671 126.977 63.5671H134.859C135.406 63.5671 135.853 64.0144 135.853 64.5611C135.853 65.1078 135.406 65.5551 134.859 65.5551Z" fill="#C4EAE7"/>
<path id="Vector_27" d="M85.6285 68.7159H79.4461C78.8994 68.7159 78.4521 68.2687 78.4521 67.722C78.4521 67.1753 78.8994 66.728 79.4461 66.728H85.6285C86.1752 66.728 86.6225 67.1753 86.6225 67.722C86.6225 68.2687 86.1752 68.7159 85.6285 68.7159Z" fill="#13706D"/>
<path id="Vector_28" d="M116.858 68.7159H110.676C110.129 68.7159 109.682 68.2687 109.682 67.722C109.682 67.1753 110.129 66.728 110.676 66.728H116.858C117.405 66.728 117.852 67.1753 117.852 67.722C117.852 68.2687 117.405 68.7159 116.858 68.7159Z" fill="#C4EAE7"/>
<path id="Vector_29" d="M214.733 98.0276H183.831C181.147 98.0276 178.98 100.204 178.98 102.878C178.98 105.552 181.157 107.729 183.831 107.729H215.995C215.727 104.449 215.31 101.208 214.743 98.0276H214.733Z" fill="#AFE0DD"/>
<path id="Vector_30" d="M178.98 121.157C178.98 123.841 181.157 126.007 183.831 126.007H216.353V116.406C216.353 116.406 216.353 116.336 216.353 116.306H183.831C181.147 116.306 178.98 118.483 178.98 121.157Z" fill="#C4EAE7"/>
<path id="Vector_31" d="M28.625 92.8492C31.3086 92.8492 33.4755 90.6724 33.4755 87.9987C33.4755 85.325 31.2987 83.1482 28.625 83.1482H9.08382C8.01035 86.3189 7.09591 89.5592 6.33057 92.8492H28.625Z" fill="#C4EAE7"/>
<path id="Vector_32" d="M13.318 72.5723H58.3243C61.008 72.5723 63.1748 70.3956 63.1748 67.7218C63.1748 65.0481 60.998 62.8713 58.3243 62.8713H18.4667C16.5882 66.0023 14.8587 69.2426 13.3081 72.5723H13.318Z" fill="#AFE0DD"/>
<path id="Vector_33" d="M194.327 81.2994C193.453 81.2994 192.578 81.2596 191.703 81.19C191.157 81.1403 190.749 80.6632 190.799 80.1166C190.848 79.5699 191.325 79.1524 191.872 79.2121C193.154 79.3214 194.456 79.3413 195.709 79.2816C196.265 79.2618 196.723 79.6792 196.752 80.2259C196.782 80.7726 196.355 81.2397 195.808 81.2696C195.321 81.2894 194.824 81.3093 194.337 81.3093L194.327 81.2994ZM202.597 80.1166C202.17 80.1166 201.772 79.8383 201.643 79.4009C201.484 78.8741 201.792 78.3175 202.319 78.1684C203.541 77.8106 204.754 77.3633 205.917 76.8464C206.414 76.6178 207.01 76.8464 207.229 77.3434C207.457 77.8404 207.229 78.4368 206.732 78.6555C205.489 79.2121 204.187 79.6892 202.875 80.0768C202.786 80.1066 202.686 80.1166 202.597 80.1166ZM184.984 79.7786C184.875 79.7786 184.775 79.7587 184.666 79.7289C183.374 79.2916 182.092 78.7648 180.869 78.1585C180.372 77.91 180.173 77.3235 180.422 76.8266C180.67 76.3296 181.257 76.1308 181.754 76.3793C182.897 76.9458 184.089 77.4428 185.302 77.8404C185.819 78.0193 186.107 78.5759 185.928 79.1027C185.789 79.5202 185.402 79.7786 184.984 79.7786ZM175.502 74.4709C175.273 74.4709 175.054 74.3914 174.866 74.2423C173.822 73.3676 172.818 72.4134 171.904 71.3996C171.536 70.9921 171.566 70.3659 171.963 69.9981C172.371 69.6303 172.997 69.6602 173.365 70.0577C174.229 71.002 175.154 71.8966 176.138 72.7116C176.555 73.0595 176.615 73.6956 176.267 74.1131C176.068 74.3516 175.79 74.4709 175.502 74.4709ZM168.594 66.0819C168.246 66.0819 167.908 65.8931 167.719 65.5651C167.063 64.3624 166.477 63.1199 165.99 61.8477C165.791 61.3408 166.049 60.7643 166.556 60.5655C167.063 60.3667 167.64 60.6251 167.838 61.132C168.296 62.3148 168.842 63.4877 169.458 64.6109C169.727 65.088 169.548 65.6943 169.071 65.9626C168.922 66.0422 168.753 66.0819 168.594 66.0819ZM165.204 55.7547C164.707 55.7547 164.29 55.387 164.22 54.89C164.051 53.5879 163.962 52.256 163.962 50.9341V50.8048C163.962 50.2582 164.409 49.8109 164.956 49.8109C165.503 49.8109 165.95 50.2582 165.95 50.8048V50.9341C165.95 52.1666 166.029 53.4189 166.188 54.6415C166.258 55.1882 165.88 55.6852 165.334 55.7547C165.294 55.7547 165.244 55.7547 165.204 55.7547ZM165.801 44.9008C165.721 44.9008 165.642 44.9007 165.562 44.8709C165.025 44.7417 164.707 44.205 164.837 43.6682C165.165 42.3463 165.582 41.0243 166.089 39.7521C166.288 39.2451 166.874 38.9967 167.381 39.1955C167.888 39.3942 168.137 39.9707 167.938 40.4876C167.471 41.6704 167.073 42.9029 166.775 44.1453C166.665 44.6026 166.258 44.9008 165.811 44.9008H165.801Z" fill="#13706D"/>
<path id="Vector_34" d="M153.207 166.074C152.661 166.074 152.213 165.626 152.213 165.08V164.483C152.213 163.241 152.412 162.018 152.79 160.855C152.959 160.339 153.525 160.05 154.042 160.219C154.559 160.388 154.847 160.955 154.678 161.472C154.36 162.436 154.201 163.45 154.201 164.483V165.08C154.201 165.626 153.754 166.074 153.207 166.074ZM157.849 156.701C157.531 156.701 157.223 156.552 157.024 156.263C156.716 155.806 156.835 155.19 157.283 154.882C158.485 154.057 159.827 153.48 161.248 153.152C161.785 153.033 162.322 153.371 162.441 153.898C162.56 154.434 162.222 154.961 161.696 155.09C160.523 155.359 159.42 155.836 158.416 156.522C158.247 156.641 158.048 156.691 157.859 156.691L157.849 156.701ZM205.181 154.852H201.205C200.659 154.852 200.211 154.405 200.211 153.858C200.211 153.311 200.659 152.864 201.205 152.864H205.181C205.728 152.864 206.175 153.311 206.175 153.858C206.175 154.405 205.728 154.852 205.181 154.852ZM194.248 154.852H190.272C189.725 154.852 189.278 154.405 189.278 153.858C189.278 153.311 189.725 152.864 190.272 152.864H194.248C194.794 152.864 195.242 153.311 195.242 153.858C195.242 154.405 194.794 154.852 194.248 154.852ZM183.314 154.852H179.338C178.792 154.852 178.344 154.405 178.344 153.858C178.344 153.311 178.792 152.864 179.338 152.864H183.314C183.861 152.864 184.308 153.311 184.308 153.858C184.308 154.405 183.861 154.852 183.314 154.852ZM172.381 154.852H168.405C167.858 154.852 167.411 154.405 167.411 153.858C167.411 153.311 167.858 152.864 168.405 152.864H172.381C172.927 152.864 173.375 153.311 173.375 153.858C173.375 154.405 172.927 154.852 172.381 154.852Z" fill="#13706D"/>
</g>
</svg>
