<svg width="220" height="180" viewBox="0 0 220 180" fill="none" xmlns="http://www.w3.org/2000/svg">
<g clip-path="url(#clip0_2372_340)">
<path d="M107.64 12.005H112.36C170.11 12.005 217 58.895 217 116.645V141.385C217 156.085 205.07 168.015 190.37 168.015H29.63C14.93 168.005 3 156.075 3 141.375V116.635C3 58.895 49.89 12.005 107.64 12.005Z" fill="#DCF0EF"/>
<path d="M90.8501 101.695C90.9401 106.905 89.3801 111.705 86.5401 116.085C84.8001 118.765 82.6101 121.045 80.0201 122.945C77.1501 125.055 73.9901 126.515 70.5501 127.355C68.2401 127.925 65.8601 128.045 63.4701 128.015C59.9701 127.965 56.6701 127.135 53.5001 125.715C49.5701 123.955 46.2801 121.385 43.6001 118.035C40.9701 114.735 39.2201 111.015 38.3901 106.865C37.5701 102.815 37.6701 98.785 38.7101 94.795C39.5401 91.595 40.9401 88.645 42.9001 85.955C45.3801 82.555 48.4901 79.905 52.2001 77.945C54.2501 76.855 56.4301 76.115 58.7001 75.625C59.1401 75.535 59.3401 75.255 59.5401 74.945C60.4401 73.525 61.7201 72.645 63.3201 72.185C66.3301 71.335 69.8901 73.195 70.9201 76.165C71.9201 79.055 70.9901 82.285 68.3701 83.865C66.9801 84.695 65.5201 85.125 63.8101 84.785C62.3301 84.495 61.1801 83.795 60.1401 82.785C59.8801 82.535 59.6501 82.515 59.3101 82.605C55.2501 83.685 51.9201 85.855 49.2301 89.085C47.3001 91.405 46.0001 94.035 45.3001 96.935C44.7601 99.185 44.5401 101.475 44.8801 103.845C45.3701 107.265 46.5001 110.395 48.5401 113.145C51.1101 116.605 54.4501 119.035 58.6201 120.305C60.5501 120.895 62.5201 121.205 64.5201 121.175C68.9101 121.115 72.9201 119.805 76.4001 117.095C80.0801 114.235 82.5001 110.505 83.5601 105.955C84.1201 103.525 84.2901 101.045 83.8601 98.575C83.3801 95.795 82.4301 93.185 80.8701 90.805C80.6101 90.415 80.4101 90.345 80.0501 90.715C78.7001 92.095 77.3301 93.465 75.9501 94.815C75.5601 95.195 75.5601 95.525 75.7901 95.995C77.1301 98.705 77.5001 101.575 76.7501 104.475C75.4701 109.425 72.2701 112.645 67.3201 113.915C61.8301 115.325 56.0101 112.685 53.3801 107.865C50.9801 103.475 51.0601 99.075 53.6601 94.785C55.6501 91.505 58.6301 89.585 62.3701 89.025C64.9101 88.645 67.4901 88.865 69.8501 90.085C70.4801 90.415 70.8501 90.295 71.3201 89.795C72.7501 88.275 74.2401 86.815 75.7201 85.335C77.1801 83.875 78.6601 82.435 80.1301 80.985C80.7601 80.365 80.8501 80.385 81.4601 81.025C83.0401 82.705 84.6801 84.335 86.0301 86.225C87.1501 87.805 88.0801 89.495 88.8501 91.275C89.8001 93.475 90.3201 95.775 90.7201 98.125C90.9201 99.295 90.7801 100.475 90.8701 101.705L90.8501 101.695ZM58.9301 101.515C58.7801 104.685 61.3801 107.005 64.3601 107.045C67.4001 107.085 69.8501 104.595 69.8801 101.605C69.9101 98.455 67.1601 96.155 64.4901 96.055C61.5001 95.955 58.6301 98.895 58.9301 101.515Z" fill="#13706D"/>
<path d="M149.35 115.545C148.74 116.575 148.12 117.585 147.54 118.625C147.29 119.065 146.99 119.245 146.48 119.245C144.6 119.245 144.6 119.255 143.65 117.655C143.21 116.915 142.77 116.165 142.24 115.285C142.22 115.645 142.2 115.855 142.2 116.065C142.2 118.505 142.18 120.945 142.2 123.395C142.2 123.995 142.02 124.235 141.4 124.195C140.65 124.155 139.89 124.155 139.13 124.195C138.54 124.225 138.36 123.995 138.37 123.425C138.39 120.875 138.37 118.315 138.37 115.765C138.37 113.965 138.39 112.165 138.37 110.375C138.37 109.815 138.54 109.575 139.13 109.585C140.24 109.615 141.35 109.605 142.46 109.585C142.89 109.585 143.16 109.735 143.37 110.115C144.07 111.375 144.79 112.625 145.5 113.885C145.83 114.455 145.87 114.455 146.2 113.885C146.91 112.655 147.62 111.425 148.31 110.175C148.53 109.785 148.78 109.575 149.25 109.585C150.38 109.605 151.52 109.605 152.65 109.585C153.15 109.585 153.37 109.745 153.37 110.275C153.36 114.695 153.36 119.115 153.37 123.525C153.37 124.005 153.19 124.205 152.7 124.185C151.92 124.155 151.14 124.185 150.37 124.185C149.51 124.185 149.5 124.185 149.5 123.265C149.5 120.955 149.5 118.645 149.5 116.335C149.5 116.095 149.5 115.855 149.5 115.605C149.45 115.585 149.4 115.565 149.35 115.545Z" fill="#13706D"/>
<path d="M108.03 81.445C108.03 82.505 108.03 83.565 108.03 84.625C108.03 86.115 108.01 87.595 108.03 89.085C108.03 89.645 107.8 89.815 107.27 89.795C106.49 89.765 105.71 89.755 104.94 89.795C104.31 89.835 104.14 89.565 104.14 88.985C104.16 86.255 104.14 83.525 104.14 80.795C104.14 79.195 104.15 77.595 104.14 76.005C104.14 75.415 104.33 75.165 104.95 75.185C106.04 75.225 107.13 75.215 108.21 75.185C108.75 75.165 109.06 75.365 109.32 75.825C110.74 78.305 112.19 80.785 113.63 83.255C113.71 83.385 113.79 83.515 113.99 83.635C113.99 83.405 113.99 83.175 113.99 82.945C113.99 80.635 114.01 78.325 113.98 76.015C113.98 75.375 114.19 75.145 114.83 75.175C115.63 75.215 116.43 75.195 117.23 75.175C117.68 75.175 117.87 75.355 117.87 75.805C117.87 80.245 117.87 84.685 117.87 89.125C117.87 89.615 117.68 89.785 117.19 89.775C116.01 89.755 114.84 89.745 113.66 89.775C113.2 89.785 112.93 89.605 112.71 89.215C111.29 86.755 109.86 84.295 108.43 81.845C108.34 81.695 108.25 81.545 108.16 81.395C108.11 81.405 108.05 81.415 108 81.425L108.03 81.445Z" fill="#13706D"/>
<path d="M113.83 97.845C114.81 97.845 115.79 97.855 116.76 97.845C117.21 97.845 117.4 98.015 117.39 98.475C117.38 100.315 117.39 102.165 117.39 104.005C117.39 104.345 117.26 104.595 117.05 104.845C115.79 106.275 114.18 107.075 112.31 107.325C109.72 107.665 107.31 107.175 105.38 105.325C103.08 103.115 102.37 100.375 103.34 97.335C104.3 94.325 106.44 92.595 109.56 92.125C112.24 91.715 114.56 92.485 116.49 94.415C116.93 94.855 116.93 95.135 116.39 95.495C115.71 95.955 115.07 96.475 114.43 96.985C114.1 97.245 113.86 97.235 113.59 96.905C112.22 95.255 109.87 95.395 108.62 96.235C107.08 97.265 106.44 99.505 107.16 101.355C107.83 103.065 109.74 104.125 111.59 103.815C112.14 103.725 112.67 103.585 113.16 103.285C113.43 103.125 113.56 102.925 113.58 102.585C113.63 101.365 113.65 101.365 112.42 101.365C111.91 101.365 111.4 101.355 110.89 101.365C110.45 101.365 110.23 101.215 110.25 100.745C110.27 99.995 110.27 99.235 110.25 98.485C110.24 98.015 110.45 97.865 110.89 97.865C111.87 97.885 112.85 97.865 113.82 97.865L113.83 97.845Z" fill="#13706D"/>
<path d="M128.31 90.195C123.83 90.195 120.51 86.895 120.52 82.475C120.53 78.135 123.97 74.775 128.38 74.795C132.73 74.815 136.14 78.195 136.16 82.515C136.18 86.845 132.75 90.205 128.31 90.195ZM128.34 78.435C126.07 78.435 124.46 80.125 124.46 82.515C124.46 84.895 126.07 86.625 128.32 86.645C130.53 86.665 132.22 84.885 132.21 82.535C132.21 80.125 130.61 78.445 128.34 78.445V78.435Z" fill="#13706D"/>
<path d="M168.67 124.175C167.39 124.175 166.53 123.562 166.09 122.335C165.723 121.322 165.007 120.815 163.94 120.815C163.05 120.815 162.16 120.855 161.28 120.805C160.67 120.775 160.4 121.015 160.25 121.565C160.06 122.245 159.77 122.905 159.56 123.585C159.43 124.005 159.21 124.195 158.75 124.185C157.84 124.155 156.93 124.155 156.02 124.185C155.4 124.205 155.37 123.965 155.55 123.465C156.74 120.215 157.91 116.955 159.1 113.705C159.53 112.515 159.98 111.335 160.39 110.135C160.53 109.745 160.75 109.565 161.17 109.575C162.41 109.595 163.66 109.595 164.9 109.575C165.32 109.575 165.54 109.725 165.69 110.125C167.3 114.595 168.92 119.055 170.55 123.515C170.73 124.015 170.62 124.205 170.08 124.175C169.62 124.145 169.15 124.175 168.68 124.175H168.67ZM163.11 113.795L162.96 113.815C162.57 114.925 162.19 116.025 161.8 117.135C161.7 117.415 161.78 117.565 162.09 117.555C162.71 117.555 163.33 117.555 163.95 117.555C164.29 117.555 164.38 117.415 164.27 117.095C163.88 115.995 163.49 114.885 163.11 113.785V113.795Z" fill="#13706D"/>
<path d="M110.77 124.575C106.46 124.575 103.15 121.575 102.97 117.275C102.75 112.285 106.75 108.705 111.73 109.235C113.63 109.435 115.25 110.245 116.57 111.655C116.93 112.035 116.93 112.285 116.48 112.595C115.79 113.075 115.12 113.595 114.47 114.125C114.12 114.405 113.88 114.375 113.58 114.045C112.42 112.755 110.95 112.475 109.39 113.035C107.69 113.645 106.94 115.055 106.9 116.785C106.86 118.415 107.45 119.795 108.99 120.595C110.55 121.395 112.38 121.085 113.56 119.785C113.93 119.375 114.16 119.405 114.54 119.715C115.18 120.235 115.84 120.725 116.51 121.205C116.91 121.485 116.94 121.715 116.6 122.105C115.14 123.725 113.17 124.585 110.78 124.585L110.77 124.575Z" fill="#13706D"/>
<path d="M136.82 107.385C134.87 107.435 133.15 106.805 131.72 105.415C131.36 105.065 131.3 104.805 131.72 104.455C132.36 103.915 132.98 103.335 133.58 102.735C133.91 102.415 134.11 102.495 134.4 102.785C135.15 103.555 136.02 104.095 137.17 103.995C137.62 103.955 137.99 103.825 138.15 103.345C138.33 102.825 138.16 102.425 137.77 102.095C137.31 101.705 136.73 101.505 136.18 101.265C135.49 100.955 134.78 100.685 134.12 100.325C132.34 99.345 131.6 97.815 131.86 95.755C132.06 94.195 133.48 92.665 135.19 92.225C137.79 91.555 140 92.325 141.93 94.105C142.23 94.385 142.31 94.595 141.94 94.905C141.28 95.465 140.64 96.055 140.02 96.655C139.69 96.975 139.44 96.995 139.14 96.645C138.95 96.425 138.73 96.235 138.51 96.055C138.17 95.765 137.79 95.535 137.35 95.425C136.6 95.235 135.96 95.465 135.74 95.995C135.53 96.505 135.79 97.045 136.54 97.405C137.48 97.865 138.47 98.215 139.4 98.685C142.21 100.095 143 103.365 141.09 105.675C140 106.985 138.53 107.445 136.83 107.385H136.82Z" fill="#13706D"/>
<path d="M142.7 90.185C140.79 90.245 139.14 89.615 137.71 88.335C137.25 87.925 137.14 87.615 137.69 87.185C138.28 86.715 138.83 86.195 139.36 85.655C139.73 85.275 139.97 85.245 140.37 85.665C141.09 86.435 141.97 86.925 143.09 86.805C143.55 86.755 143.91 86.585 144.07 86.135C144.23 85.665 144.09 85.255 143.72 84.935C143.38 84.635 142.97 84.455 142.57 84.285C141.61 83.875 140.62 83.535 139.74 82.965C138.11 81.925 137.48 80.405 137.79 78.565C138.1 76.735 139.3 75.555 141.06 75.065C143.64 74.355 145.87 75.105 147.8 76.885C148.16 77.215 148.19 77.465 147.8 77.795C147.15 78.335 146.53 78.905 145.92 79.485C145.61 79.775 145.38 79.785 145.09 79.465C144.71 79.035 144.25 78.685 143.73 78.405C143.36 78.215 142.98 78.145 142.57 78.185C142.13 78.225 141.82 78.425 141.66 78.855C141.5 79.305 141.7 79.635 142.01 79.915C142.4 80.255 142.89 80.425 143.35 80.635C144.06 80.955 144.79 81.235 145.48 81.595C147.52 82.655 148.39 84.535 147.87 86.705C147.41 88.665 145.61 90.095 143.5 90.185C143.23 90.195 142.97 90.185 142.7 90.185Z" fill="#13706D"/>
<path d="M174.8 107.375C172.63 107.445 170.92 106.775 169.48 105.405C169.1 105.045 169.09 104.785 169.5 104.445C170.14 103.895 170.76 103.325 171.36 102.735C171.68 102.425 171.88 102.475 172.17 102.785C172.93 103.585 173.82 104.125 175 103.995C175.46 103.945 175.81 103.755 175.96 103.295C176.1 102.855 175.97 102.465 175.63 102.145C175.3 101.845 174.89 101.655 174.48 101.485C173.5 101.065 172.49 100.715 171.59 100.135C169.99 99.105 169.37 97.605 169.66 95.785C169.95 93.975 171.12 92.785 172.84 92.275C175.46 91.505 177.74 92.255 179.7 94.095C180.03 94.405 180.07 94.645 179.7 94.955C179.07 95.485 178.46 96.035 177.87 96.605C177.51 96.955 177.24 96.985 176.89 96.585C176.51 96.145 176.04 95.815 175.51 95.555C175.11 95.365 174.7 95.315 174.28 95.405C173.5 95.555 173.23 96.405 173.76 96.985C174.12 97.375 174.6 97.545 175.07 97.755C175.82 98.095 176.59 98.385 177.32 98.765C179.37 99.815 180.25 101.675 179.76 103.855C179.32 105.835 177.49 107.295 175.35 107.375C175.11 107.375 174.86 107.375 174.8 107.375Z" fill="#13706D"/>
<path d="M120.39 99.685C120.39 97.505 120.4 95.335 120.39 93.155C120.39 92.585 120.57 92.365 121.15 92.375C123.68 92.395 126.22 92.395 128.75 92.375C129.3 92.375 129.52 92.585 129.5 93.115C129.48 93.715 129.48 94.315 129.5 94.915C129.52 95.445 129.33 95.665 128.77 95.655C127.46 95.625 126.15 95.655 124.84 95.635C124.4 95.635 124.19 95.755 124.2 96.235C124.25 98.325 123.92 97.905 125.84 97.955C126.55 97.975 127.26 97.975 127.97 97.955C128.41 97.945 128.63 98.095 128.61 98.565C128.59 99.235 128.58 99.895 128.61 100.565C128.63 101.065 128.42 101.235 127.94 101.225C126.92 101.205 125.9 101.245 124.87 101.215C124.34 101.205 124.14 101.395 124.19 101.915C124.22 102.285 124.22 102.675 124.19 103.045C124.14 103.585 124.39 103.735 124.89 103.725C126.16 103.705 127.42 103.735 128.69 103.715C129.25 103.705 129.52 103.885 129.49 104.475C129.46 105.095 129.48 105.715 129.49 106.335C129.49 106.765 129.35 106.985 128.87 106.975C126.25 106.965 123.63 106.955 121.01 106.975C120.48 106.975 120.39 106.705 120.39 106.265C120.39 104.065 120.39 101.865 120.39 99.675V99.685Z" fill="#13706D"/>
<path d="M158.13 99.715C158.13 97.535 158.15 95.365 158.12 93.185C158.12 92.565 158.33 92.375 158.93 92.385C161.42 92.405 163.91 92.415 166.39 92.385C167.04 92.385 167.27 92.625 167.23 93.245C167.2 93.845 167.21 94.445 167.23 95.045C167.23 95.495 167.05 95.675 166.59 95.665C165.26 95.645 163.92 95.675 162.59 95.655C162.1 95.655 161.92 95.805 161.93 96.305C161.98 98.325 161.66 97.935 163.56 97.975C164.29 97.985 165.03 97.995 165.76 97.975C166.19 97.975 166.36 98.135 166.35 98.565C166.33 99.255 166.33 99.945 166.35 100.625C166.37 101.105 166.14 101.245 165.71 101.245C164.67 101.235 163.62 101.255 162.58 101.245C162.14 101.245 161.93 101.375 161.94 101.855C162 104.135 161.6 103.705 163.76 103.745C164.69 103.765 165.63 103.765 166.56 103.745C167.04 103.745 167.25 103.935 167.24 104.415C167.23 105.085 167.24 105.745 167.24 106.415C167.24 106.825 167.08 107.015 166.64 107.015C164.02 107.005 161.4 106.995 158.78 107.015C158.2 107.015 158.14 106.715 158.14 106.265C158.15 104.085 158.14 101.915 158.14 99.735L158.13 99.715Z" fill="#13706D"/>
<path d="M149.6 92.395C151.36 92.395 153.11 92.415 154.87 92.395C155.45 92.395 155.73 92.545 155.69 93.185C155.64 93.895 155.67 94.605 155.69 95.315C155.7 95.745 155.51 95.915 155.09 95.905C154.2 95.905 153.31 95.905 152.42 95.905C151.52 95.905 151.52 95.905 151.52 96.785C151.52 99.785 151.52 102.775 151.52 105.775C151.52 106.582 151.127 106.985 150.34 106.985C149.72 106.985 149.09 106.945 148.47 106.985C147.83 107.035 147.61 106.795 147.62 106.155C147.65 103.955 147.63 101.755 147.63 99.565C147.63 98.675 147.63 97.785 147.63 96.905C147.63 96.2317 147.284 95.895 146.59 95.895C145.77 95.895 144.95 95.885 144.12 95.895C143.64 95.905 143.44 95.715 143.45 95.225C143.48 94.495 143.48 93.755 143.45 93.025C143.43 92.515 143.67 92.375 144.13 92.375C145.95 92.385 147.77 92.375 149.6 92.375V92.395Z" fill="#13706D"/>
<path d="M176.01 109.585C177.79 109.585 179.57 109.605 181.34 109.575C181.95 109.565 182.18 109.795 182.16 110.385C182.13 111.045 182.14 111.715 182.16 112.385C182.17 112.885 181.98 113.115 181.45 113.095C180.54 113.075 179.63 113.115 178.72 113.075C178.11 113.045 177.91 113.255 177.92 113.875C177.95 117.005 177.93 120.135 177.93 123.265C177.93 124.165 177.93 124.165 177.05 124.175C176.34 124.175 175.63 124.135 174.92 124.185C174.25 124.235 174.1 123.945 174.11 123.335C174.13 120.225 174.12 117.115 174.12 114.015C174.12 113.402 173.814 113.095 173.2 113.095C172.31 113.095 171.42 113.085 170.53 113.095C170.05 113.095 169.84 112.925 169.86 112.435C169.88 111.725 169.89 111.015 169.86 110.305C169.83 109.735 170.08 109.575 170.61 109.585C172.41 109.605 174.21 109.585 176.01 109.585Z" fill="#13706D"/>
<path d="M119.21 116.935C119.21 114.765 119.23 112.585 119.2 110.415C119.2 109.775 119.41 109.535 120.05 109.575C120.76 109.615 121.47 109.625 122.18 109.575C122.88 109.525 123.04 109.825 123.03 110.465C123 113.595 123.02 116.725 123.02 119.855C123.02 120.455 123.327 120.755 123.94 120.755C125.14 120.755 126.34 120.775 127.54 120.755C128.1 120.745 128.36 120.905 128.33 121.505C128.29 122.195 128.31 122.885 128.33 123.565C128.33 124.025 128.14 124.185 127.69 124.185C125.09 124.175 122.49 124.165 119.9 124.185C119.35 124.185 119.22 123.945 119.22 123.465C119.23 121.295 119.22 119.115 119.22 116.945L119.21 116.935Z" fill="#13706D"/>
<path d="M134.57 116.915C134.57 119.045 134.55 121.175 134.58 123.305C134.58 123.945 134.42 124.245 133.72 124.195C132.99 124.145 132.25 124.145 131.52 124.195C130.87 124.235 130.67 123.985 130.68 123.355C130.7 119.425 130.68 115.505 130.68 111.575C130.68 110.248 131.353 109.585 132.7 109.585C133.94 109.585 134.56 110.208 134.56 111.455C134.56 113.275 134.56 115.095 134.56 116.915H134.57Z" fill="#13706D"/>
<path d="M38.7101 152.015C36.9101 147.865 34.7601 143.915 32.1301 140.225C28.9901 135.815 25.1601 132.015 21.4701 128.085C20.0601 126.585 19.8301 126.555 18.3701 127.995C14.9301 131.375 11.4901 134.755 8.08006 138.155C6.41006 139.825 4.73006 141.495 3.06006 143.165C3.47006 149.275 5.93006 154.825 9.78006 159.115C12.6101 156.335 15.4201 153.535 18.2001 150.695C19.0301 149.845 19.5101 149.995 20.1101 150.915C23.5101 156.125 25.6601 161.805 26.8401 167.855C27.7501 167.945 28.6801 167.995 29.6201 167.995H43.0701C42.1401 162.515 40.9301 157.125 38.7101 152.005V152.015Z" fill="#E7F7F6"/>
<path d="M167.31 28.535C167.67 28.445 168.01 28.335 168.35 28.235C158.2 21.795 146.87 17.055 134.75 14.415C140.9 25.665 154.49 31.815 167.31 28.535Z" fill="#E7F7F6"/>
<path d="M99.7803 12.295C101.75 21.895 105.8 30.535 111.91 38.185C118.16 46.005 125.85 52.015 135.02 56.115C142.44 59.435 150.14 61.355 158.31 61.485C163.89 61.575 169.44 61.275 174.84 59.955C181.81 58.255 188.3 55.465 194.28 51.525C190.88 47.255 187.16 43.255 183.14 39.565C176.34 43.465 168.82 45.395 160.75 45.495C156.08 45.555 151.48 44.825 146.97 43.465C137.24 40.515 129.43 34.845 123.43 26.755C120.1 22.265 117.83 17.355 116.36 12.085C115.03 12.035 113.7 12.005 112.36 12.005H107.64C104.99 12.005 102.37 12.105 99.7803 12.295Z" fill="#E7F7F6"/>
<path d="M178.44 155.995C179.24 155.785 179.78 155.825 180.38 156.415C182.79 158.765 185.49 160.405 188.94 161.085C192.92 161.875 196.35 160.875 199.58 158.935C205.71 155.265 207.87 147.705 205.54 140.965C203.14 134.015 194.82 129.665 187.79 131.665C184.04 132.725 181.05 134.795 178.95 138.095C178.48 138.835 178.01 139.475 176.99 139.695C171.7 140.825 166.61 142.565 161.82 145.105C153.16 149.695 145.91 155.865 140.11 163.815C139.11 165.185 138.19 166.585 137.32 168.005H157.72C163.47 162.175 170.32 158.145 178.43 155.995H178.44Z" fill="#E7F7F6"/>
</g>
<defs>
<clipPath id="clip0_2372_340">
<rect width="214" height="156" fill="white" transform="translate(3 12.005)"/>
</clipPath>
</defs>
</svg>
