<svg width="220" height="180" viewBox="0 0 220 180" fill="none" xmlns="http://www.w3.org/2000/svg">
<path d="M107.64 12H112.36C170.11 12 217 58.89 217 116.64V141.38C217 156.08 205.07 168.01 190.37 168.01H29.63C14.93 168.01 3 156.08 3 141.38V116.64C3 58.89 49.89 12 107.64 12Z" fill="#E0F4F3"/>
<path d="M166.4 82.43C170.67 82.43 174.13 85.72 174.13 89.77V120.44C174.13 124.5 170.67 127.78 166.4 127.78H38.5601C34.2901 127.78 30.8301 124.49 30.8301 120.44V89.77C30.8301 85.71 34.2901 82.43 38.5601 82.43H154.65" fill="#C4EAE7"/>
<path d="M174.57 73.66C178.84 73.66 182.3 76.95 182.3 81V111.67C182.3 115.73 178.84 119.01 174.57 119.01H46.73C42.46 119.01 39 115.72 39 111.67V81C39 76.94 42.46 73.66 46.73 73.66H162.82" fill="white"/>
<path d="M174.57 120.02H46.7302C41.9102 120.02 37.9902 116.28 37.9902 111.68V81.01C37.9902 76.41 41.9102 72.67 46.7302 72.67H162.81C163.36 72.67 163.81 73.12 163.81 73.67C163.81 74.22 163.36 74.67 162.81 74.67H46.7302C43.0202 74.67 39.9902 77.52 39.9902 81.01V111.68C39.9902 115.18 43.0102 118.02 46.7302 118.02H174.57C178.28 118.02 181.31 115.17 181.31 111.68V81.01C181.31 77.51 178.29 74.67 174.57 74.67C174.02 74.67 173.57 74.22 173.57 73.67C173.57 73.12 174.02 72.67 174.57 72.67C179.39 72.67 183.31 76.41 183.31 81.01V111.68C183.31 116.28 179.39 120.02 174.57 120.02Z" fill="#13706D"/>
<path d="M84.09 79.21V73.67H47.91C42.99 73.67 39 76.96 39 81.01V111.68C39 115.74 42.99 119.02 47.91 119.02H84.09V85.34" fill="#C4EAE7"/>
<path d="M84.0902 120.02H47.9102C42.4402 120.02 37.9902 116.28 37.9902 111.68V81.01C37.9902 76.41 42.4402 72.67 47.9102 72.67H84.0902C84.6402 72.67 85.0902 73.12 85.0902 73.67V79.21C85.0902 79.76 84.6402 80.21 84.0902 80.21C83.5402 80.21 83.0902 79.76 83.0902 79.21V74.67H47.9102C43.5502 74.67 39.9902 77.52 39.9902 81.01V111.68C39.9902 115.18 43.5402 118.02 47.9102 118.02H83.0902V85.34C83.0902 84.79 83.5402 84.34 84.0902 84.34C84.6402 84.34 85.0902 84.79 85.0902 85.34V119.02C85.0902 119.57 84.6402 120.02 84.0902 120.02Z" fill="#13706D"/>
<path d="M51.04 97.13V91.03H51L49.86 91.82C49.65 91.97 49.51 92.02 49.29 92.02C48.84 92.02 48.5 91.68 48.5 91.21C48.5 90.87 48.63 90.61 48.96 90.38L50.69 89.2C51.18 88.87 51.57 88.82 52.03 88.82C52.87 88.82 53.36 89.32 53.36 90.12V97.12C53.36 97.82 52.9 98.27 52.2 98.27C51.5 98.27 51.04 97.82 51.04 97.12V97.13Z" fill="#13706D"/>
<path d="M55.79 97.14C55.79 96.7 55.97 96.39 56.43 96L59.05 93.63C60.12 92.65 60.41 92.23 60.41 91.64C60.41 90.98 59.9 90.51 59.17 90.51C58.57 90.51 58.15 90.8 57.82 91.41C57.53 91.86 57.26 92.04 56.79 92.04C56.19 92.04 55.83 91.69 55.83 91.12C55.83 90.94 55.86 90.78 55.92 90.61C56.32 89.56 57.54 88.75 59.21 88.75C61.3 88.75 62.67 89.86 62.67 91.48C62.67 92.65 62.07 93.33 60.62 94.64L58.8 96.3V96.34H61.97C62.56 96.34 62.9 96.69 62.9 97.23C62.9 97.77 62.56 98.13 61.97 98.13H56.89C56.14 98.13 55.8 97.71 55.8 97.13L55.79 97.14Z" fill="#13706D"/>
<path d="M136.72 97.17V96.57H133.6C132.76 96.57 132.19 96.04 132.19 95.27C132.19 94.82 132.33 94.39 132.65 93.82C133.26 92.72 133.99 91.57 134.83 90.29C135.54 89.2 136.07 88.83 137 88.83C138.17 88.83 138.92 89.47 138.92 90.47V94.77H139.28C139.9 94.77 140.21 95.15 140.21 95.68C140.21 96.21 139.89 96.58 139.28 96.58H138.92V97.18C138.92 97.92 138.46 98.29 137.82 98.29C137.18 98.29 136.72 97.92 136.72 97.18V97.17ZM136.78 90.58H136.74C135.64 92.18 134.88 93.35 134.14 94.78V94.84H136.79V90.57L136.78 90.58Z" fill="#13706D"/>
<path d="M142.01 96.36C141.63 95.65 141.41 94.7 141.41 93.59C141.41 90.58 142.93 88.74 145.38 88.74C147.08 88.74 148.21 89.43 148.6 90.27C148.68 90.44 148.71 90.6 148.71 90.77C148.71 91.27 148.37 91.67 147.76 91.67C147.3 91.67 147.04 91.48 146.72 91.16C146.31 90.72 145.93 90.54 145.37 90.54C144.17 90.54 143.61 91.74 143.62 93.46V93.56H143.66C144.01 92.7 144.88 92.1 146.12 92.1C147.9 92.1 149.08 93.34 149.08 95.06C149.08 97 147.53 98.37 145.4 98.37C143.9 98.37 142.71 97.73 141.99 96.36H142.01ZM146.86 95.15C146.86 94.31 146.24 93.72 145.41 93.72C144.58 93.72 143.92 94.3 143.92 95.12C143.92 95.94 144.56 96.57 145.39 96.57C146.22 96.57 146.85 95.95 146.86 95.15Z" fill="#13706D"/>
<path d="M49.1201 105.54V102.08C49.1201 101.79 49.3001 101.63 49.5501 101.63C49.8001 101.63 49.9801 101.78 49.9801 102.08V104.03H49.9901L51.1301 102.89C51.2401 102.77 51.3401 102.72 51.4701 102.72C51.6901 102.72 51.8501 102.88 51.8501 103.09C51.8501 103.22 51.8101 103.3 51.6901 103.41L50.8901 104.17L51.7701 105.29C51.8601 105.42 51.8901 105.49 51.8901 105.6C51.8901 105.83 51.7201 105.99 51.4801 105.99C51.3001 105.99 51.2001 105.93 51.0601 105.72L50.2501 104.65L49.9801 104.9V105.54C49.9801 105.83 49.8001 105.99 49.5501 105.99C49.3001 105.99 49.1201 105.84 49.1201 105.54Z" fill="#13706D"/>
<path d="M52.5001 106.53C52.4501 106.45 52.4401 106.37 52.4401 106.29C52.4401 106.11 52.5701 105.98 52.7901 105.98C52.9001 105.98 52.9901 106.02 53.0901 106.1C53.3201 106.32 53.5401 106.44 53.8301 106.44C54.3001 106.44 54.5701 106.18 54.5701 105.79V105.29H54.5501C54.4001 105.63 54.0401 105.85 53.5801 105.85C52.8001 105.85 52.3101 105.25 52.3101 104.29C52.3101 103.33 52.7901 102.72 53.6001 102.72C54.0501 102.72 54.3901 102.96 54.5601 103.31H54.5801V103.14C54.5801 102.85 54.7601 102.71 55.0101 102.71C55.2601 102.71 55.4301 102.85 55.4301 103.14V105.79C55.4301 106.61 54.8401 107.1 53.8301 107.09C53.1901 107.09 52.7101 106.84 52.5101 106.51L52.5001 106.53ZM54.5701 104.32C54.5701 103.76 54.2901 103.39 53.8701 103.39C53.4501 103.39 53.1801 103.75 53.1801 104.32C53.1801 104.89 53.4401 105.23 53.8701 105.23C54.3001 105.23 54.5701 104.89 54.5701 104.32Z" fill="#13706D"/>
<path d="M57.54 104.16C57.54 103.01 58.2 102.34 59.24 102.34C59.91 102.34 60.41 102.61 60.67 103.12C60.73 103.23 60.76 103.34 60.76 103.45C60.76 103.68 60.6 103.83 60.37 103.83C60.17 103.83 60.05 103.75 59.95 103.55C59.79 103.22 59.55 103.06 59.24 103.06C58.75 103.06 58.44 103.48 58.44 104.16C58.44 104.84 58.75 105.27 59.24 105.27C59.57 105.27 59.8 105.11 59.95 104.78C60.04 104.59 60.15 104.51 60.34 104.51C60.59 104.51 60.76 104.67 60.76 104.91C60.76 105 60.74 105.08 60.7 105.17C60.49 105.67 59.93 105.99 59.25 105.99C58.17 105.99 57.52 105.32 57.52 104.17L57.54 104.16Z" fill="#13706D"/>
<path d="M61.3701 104.17C61.3701 103.05 62.0401 102.35 63.1101 102.35C64.1801 102.35 64.8501 103.05 64.8501 104.17C64.8501 105.29 64.1801 105.99 63.1101 105.99C62.0401 105.99 61.3701 105.29 61.3701 104.17ZM63.9401 104.17C63.9401 103.5 63.6101 103.07 63.1101 103.07C62.6101 103.07 62.2801 103.49 62.2801 104.17C62.2801 104.85 62.6001 105.26 63.1101 105.26C63.6201 105.26 63.9401 104.84 63.9401 104.17Z" fill="#13706D"/>
<path d="M65.4502 105.54C65.4502 105.37 65.5202 105.25 65.7002 105.1L66.7102 104.19C67.1202 103.81 67.2402 103.65 67.2402 103.42C67.2402 103.17 67.0402 102.99 66.7602 102.99C66.5302 102.99 66.3702 103.1 66.2402 103.34C66.1302 103.51 66.0202 103.58 65.8402 103.58C65.6102 103.58 65.4702 103.45 65.4702 103.23C65.4702 103.16 65.4702 103.1 65.5102 103.03C65.6602 102.62 66.1302 102.32 66.7702 102.32C67.5702 102.32 68.1002 102.75 68.1002 103.37C68.1002 103.82 67.8702 104.08 67.3102 104.59L66.6102 105.23V105.25H67.8302C68.0602 105.25 68.1902 105.38 68.1902 105.59C68.1902 105.8 68.0602 105.93 67.8302 105.93H65.8802C65.5902 105.93 65.4602 105.77 65.4602 105.55L65.4502 105.54Z" fill="#13706D"/>
<path d="M68.6601 104.61C68.6601 103.75 69.1701 103.2 69.9801 103.2C70.7901 103.2 71.2901 103.72 71.2901 104.44C71.2901 104.66 71.1701 104.78 70.9401 104.78H69.4901V104.83C69.4901 105.15 69.7001 105.37 70.0101 105.37C70.2501 105.37 70.4101 105.29 70.6001 105.1C70.6901 105.02 70.7601 104.99 70.8701 104.99C71.0501 104.99 71.1901 105.1 71.1901 105.29C71.1901 105.35 71.1701 105.42 71.1301 105.49C70.9501 105.8 70.5201 105.99 70.0001 105.99C69.1501 105.99 68.6401 105.47 68.6401 104.61H68.6601ZM70.4801 104.29C70.4701 104 70.2701 103.82 70.0001 103.82C69.7301 103.82 69.5301 104.02 69.5101 104.29H70.4801Z" fill="#13706D"/>
<path d="M131.53 105.52V102.1C131.53 101.81 131.69 101.64 131.97 101.64C132.25 101.64 132.41 101.81 132.41 102.1V103.56H132.44L134.03 101.82C134.15 101.69 134.26 101.63 134.41 101.63C134.64 101.63 134.83 101.81 134.83 102.04C134.83 102.16 134.79 102.26 134.67 102.38L133.5 103.6L134.77 105.14C134.9 105.3 134.96 105.43 134.96 105.55C134.96 105.79 134.78 105.98 134.53 105.98C134.35 105.98 134.23 105.91 134.09 105.74L132.83 104.19L132.41 104.63V105.52C132.41 105.81 132.25 105.98 131.97 105.98C131.69 105.98 131.53 105.81 131.53 105.52Z" fill="#13706D"/>
<path d="M135.66 105.54V103.16C135.66 102.87 135.83 102.72 136.07 102.72C136.31 102.72 136.48 102.87 136.48 103.16V103.36H136.5C136.63 102.98 136.97 102.73 137.4 102.73C137.85 102.73 138.17 102.96 138.28 103.37H138.3C138.44 102.98 138.82 102.73 139.28 102.73C139.9 102.73 140.31 103.15 140.31 103.78V105.54C140.31 105.83 140.13 105.99 139.88 105.99C139.63 105.99 139.46 105.83 139.46 105.54V103.99C139.46 103.63 139.28 103.43 138.95 103.43C138.62 103.43 138.41 103.67 138.41 104.02V105.54C138.41 105.83 138.25 105.99 138 105.99C137.75 105.99 137.59 105.83 137.59 105.54V103.97C137.59 103.63 137.4 103.43 137.08 103.43C136.76 103.43 136.54 103.68 136.54 104.03V105.54C136.54 105.83 136.36 105.99 136.11 105.99C135.86 105.99 135.68 105.83 135.68 105.54H135.66Z" fill="#13706D"/>
<path d="M142.4 104.37C142.4 103.36 142.99 102.72 143.92 102.72C144.85 102.72 145.41 103.33 145.41 104.18C145.41 104.42 145.28 104.55 145.04 104.55H143.25V104.59C143.25 105.06 143.53 105.36 143.96 105.36C144.27 105.36 144.48 105.25 144.71 104.98C144.8 104.89 144.88 104.86 144.99 104.86C145.17 104.86 145.32 104.98 145.32 105.17C145.32 105.24 145.3 105.31 145.26 105.38C145.05 105.77 144.57 106 143.96 106C142.98 106 142.4 105.39 142.4 104.38V104.37ZM144.58 104.03C144.56 103.62 144.3 103.35 143.92 103.35C143.54 103.35 143.27 103.63 143.24 104.03H144.57H144.58Z" fill="#13706D"/>
<path d="M146.08 105.54V103.15C146.08 102.88 146.24 102.72 146.49 102.72C146.74 102.72 146.92 102.88 146.92 103.15V103.33H146.94C147.11 102.94 147.42 102.73 147.91 102.73C148.61 102.73 149 103.17 149 103.91V105.55C149 105.84 148.82 106 148.57 106C148.32 106 148.14 105.85 148.14 105.55V104.09C148.14 103.68 147.95 103.45 147.56 103.45C147.17 103.45 146.93 103.73 146.93 104.14V105.56C146.93 105.85 146.75 106.01 146.5 106.01C146.25 106.01 146.07 105.86 146.07 105.56L146.08 105.54Z" fill="#13706D"/>
<path d="M151.9 105.55L151.08 103.36C151.05 103.28 151.03 103.19 151.03 103.11C151.03 102.88 151.21 102.73 151.46 102.73C151.67 102.73 151.81 102.84 151.87 103.07L152.5 105.18H152.52L153.16 103.06C153.22 102.84 153.36 102.73 153.56 102.73C153.8 102.73 153.98 102.89 153.98 103.11C153.98 103.19 153.96 103.28 153.93 103.35L153.11 105.56C153 105.86 152.82 106 152.51 106C152.18 106 152.01 105.87 151.89 105.56L151.9 105.55Z" fill="#13706D"/>
<path d="M154.41 104.35C154.41 103.33 155.03 102.72 155.97 102.72C156.91 102.72 157.53 103.34 157.53 104.35C157.53 105.36 156.92 105.99 155.97 105.99C155.02 105.99 154.41 105.38 154.41 104.35ZM156.65 104.35C156.65 103.73 156.38 103.37 155.96 103.37C155.54 103.37 155.27 103.73 155.27 104.35C155.27 104.97 155.54 105.33 155.96 105.33C156.38 105.33 156.65 104.98 156.65 104.35Z" fill="#13706D"/>
<path d="M158.19 101.95C158.19 101.7 158.39 101.51 158.65 101.51C158.91 101.51 159.11 101.7 159.11 101.95C159.11 102.2 158.91 102.39 158.65 102.39C158.39 102.39 158.19 102.19 158.19 101.95ZM158.22 105.54V103.17C158.22 102.89 158.38 102.72 158.65 102.72C158.92 102.72 159.08 102.89 159.08 103.17V105.54C159.08 105.82 158.92 105.99 158.65 105.99C158.38 105.99 158.22 105.82 158.22 105.54Z" fill="#13706D"/>
<path d="M160.11 103.43H159.95C159.75 103.43 159.62 103.31 159.62 103.11C159.62 102.91 159.75 102.79 159.95 102.79H160.11V102.44C160.11 102.16 160.27 101.99 160.54 101.99C160.81 101.99 160.97 102.16 160.97 102.44V102.79H161.27C161.47 102.79 161.6 102.92 161.6 103.11C161.6 103.3 161.47 103.43 161.27 103.43H160.97V104.93C160.97 105.15 161.05 105.25 161.23 105.26H161.29C161.5 105.29 161.62 105.38 161.62 105.58C161.62 105.83 161.37 105.96 161.01 105.96H160.98C160.41 105.96 160.12 105.68 160.12 105.12V103.43H160.11Z" fill="#13706D"/>
<path d="M162.24 104.81V103.17C162.24 102.88 162.42 102.72 162.67 102.72C162.92 102.72 163.1 102.88 163.1 103.17V104.63C163.1 105.05 163.31 105.27 163.69 105.27C164.07 105.27 164.31 105 164.31 104.58V103.17C164.31 102.88 164.49 102.72 164.74 102.72C164.99 102.72 165.17 102.88 165.17 103.17V105.55C165.17 105.83 165 105.98 164.76 105.98C164.52 105.98 164.35 105.83 164.35 105.55V105.36H164.33C164.17 105.75 163.86 105.98 163.39 105.98C162.71 105.98 162.26 105.54 162.26 104.81H162.24Z" fill="#13706D"/>
<path d="M165.95 105.54V103.15C165.95 102.88 166.12 102.72 166.36 102.72C166.6 102.72 166.76 102.88 166.76 103.15V103.36H166.78C166.86 102.97 167.12 102.74 167.43 102.74C167.54 102.74 167.64 102.77 167.7 102.82C167.78 102.88 167.82 102.99 167.82 103.14C167.82 103.27 167.78 103.38 167.7 103.45C167.62 103.52 167.49 103.56 167.33 103.56C166.94 103.56 166.8 103.78 166.8 104.16V105.55C166.8 105.83 166.63 106 166.37 106C166.11 106 165.94 105.84 165.94 105.55L165.95 105.54Z" fill="#13706D"/>
<path d="M168.15 104.37C168.15 103.36 168.74 102.72 169.67 102.72C170.6 102.72 171.16 103.33 171.16 104.18C171.16 104.42 171.03 104.55 170.79 104.55H169V104.59C169 105.06 169.28 105.36 169.71 105.36C170.02 105.36 170.23 105.25 170.46 104.98C170.55 104.89 170.63 104.86 170.74 104.86C170.92 104.86 171.07 104.98 171.07 105.17C171.07 105.24 171.05 105.31 171.01 105.38C170.8 105.77 170.32 106 169.71 106C168.73 106 168.15 105.39 168.15 104.38V104.37ZM170.33 104.03C170.31 103.62 170.05 103.35 169.67 103.35C169.29 103.35 169.02 103.63 168.99 104.03H170.32H170.33Z" fill="#13706D"/>
<path d="M102.48 97.87V100.18C102.48 101.36 103.44 102.32 104.62 102.32H123.16C123.99 102.32 124.66 101.65 124.66 100.82V98.79C124.66 97.56 123.66 96.55 122.42 96.55H118.73L117.21 92.55C116.69 91.18 115.37 90.27 113.91 90.27H109.72C107.54 90.27 105.53 91.47 104.5 93.39L102.8 96.55C102.58 96.95 102.47 97.4 102.47 97.86L102.48 97.87Z" fill="#AFE0DD"/>
<path d="M123.16 103.31H104.62C102.89 103.31 101.48 101.9 101.48 100.17V97.86C101.48 97.24 101.64 96.62 101.93 96.07L103.63 92.91C104.84 90.66 107.18 89.26 109.73 89.26H113.92C115.79 89.26 117.5 90.44 118.16 92.19L119.43 95.54H122.43C124.21 95.54 125.67 96.99 125.67 98.78V100.81C125.67 102.19 124.55 103.31 123.17 103.31H123.16ZM109.72 91.27C107.9 91.27 106.24 92.26 105.38 93.86L103.68 97.02C103.54 97.28 103.47 97.57 103.47 97.86V100.17C103.47 100.8 103.98 101.31 104.61 101.31H123.15C123.43 101.31 123.65 101.09 123.65 100.81V98.78C123.65 98.1 123.1 97.54 122.41 97.54H118.72C118.3 97.54 117.93 97.28 117.79 96.89L116.27 92.89C115.9 91.91 114.94 91.25 113.9 91.25H109.71L109.72 91.27Z" fill="#13706D"/>
<path d="M107.36 106C108.812 106 109.99 104.823 109.99 103.37C109.99 101.918 108.812 100.74 107.36 100.74C105.907 100.74 104.73 101.918 104.73 103.37C104.73 104.823 105.907 106 107.36 106Z" fill="white"/>
<path d="M107.36 107C105.36 107 103.73 105.37 103.73 103.37C103.73 101.37 105.36 99.74 107.36 99.74C109.36 99.74 110.99 101.37 110.99 103.37C110.99 105.37 109.36 107 107.36 107ZM107.36 101.74C106.46 101.74 105.73 102.47 105.73 103.37C105.73 104.27 106.46 105 107.36 105C108.26 105 108.99 104.27 108.99 103.37C108.99 102.47 108.26 101.74 107.36 101.74Z" fill="#13706D"/>
<path d="M118.25 106C119.703 106 120.88 104.823 120.88 103.37C120.88 101.918 119.703 100.74 118.25 100.74C116.798 100.74 115.62 101.918 115.62 103.37C115.62 104.823 116.798 106 118.25 106Z" fill="white"/>
<path d="M118.25 107C116.25 107 114.62 105.37 114.62 103.37C114.62 101.37 116.25 99.74 118.25 99.74C120.25 99.74 121.88 101.37 121.88 103.37C121.88 105.37 120.25 107 118.25 107ZM118.25 101.74C117.35 101.74 116.62 102.47 116.62 103.37C116.62 104.27 117.35 105 118.25 105C119.15 105 119.88 104.27 119.88 103.37C119.88 102.47 119.15 101.74 118.25 101.74Z" fill="#13706D"/>
<path d="M118.74 96.55H102.81L104.55 93.31C105.56 91.44 107.51 90.27 109.64 90.27H114.18C115.5 90.27 116.67 91.08 117.14 92.31L118.75 96.55H118.74Z" fill="white"/>
<path d="M118.74 97.55H102.81C102.46 97.55 102.13 97.37 101.95 97.06C101.77 96.76 101.76 96.38 101.93 96.07L103.67 92.83C104.85 90.63 107.14 89.26 109.64 89.26H114.18C115.9 89.26 117.46 90.34 118.07 91.95L119.68 96.19C119.8 96.5 119.76 96.84 119.57 97.11C119.38 97.38 119.08 97.54 118.75 97.54L118.74 97.55ZM104.48 95.55H117.29L116.2 92.67C115.88 91.83 115.07 91.27 114.17 91.27H109.63C107.87 91.27 106.26 92.23 105.42 93.78L104.47 95.54L104.48 95.55Z" fill="#13706D"/>
<path d="M111.78 97.55C111.23 97.55 110.78 97.1 110.78 96.55V90.27C110.78 89.72 111.23 89.27 111.78 89.27C112.33 89.27 112.78 89.72 112.78 90.27V96.55C112.78 97.1 112.33 97.55 111.78 97.55Z" fill="#13706D"/>
<path d="M84.46 104.56C88.9722 104.56 92.63 100.902 92.63 96.39C92.63 91.8778 88.9722 88.22 84.46 88.22C79.9479 88.22 76.29 91.8778 76.29 96.39C76.29 100.902 79.9479 104.56 84.46 104.56Z" fill="white"/>
<path d="M84.46 105.56C79.4 105.56 75.29 101.45 75.29 96.39C75.29 91.33 79.4 87.22 84.46 87.22C89.52 87.22 93.63 91.33 93.63 96.39C93.63 101.45 89.52 105.56 84.46 105.56ZM84.46 89.22C80.51 89.22 77.29 92.44 77.29 96.39C77.29 100.34 80.51 103.56 84.46 103.56C88.41 103.56 91.63 100.34 91.63 96.39C91.63 92.44 88.41 89.22 84.46 89.22Z" fill="#13706D"/>
<path d="M86.5199 95.58H82.4199C81.8699 95.58 81.4199 95.13 81.4199 94.58C81.4199 94.03 81.8699 93.58 82.4199 93.58H86.5199C87.0699 93.58 87.5199 94.03 87.5199 94.58C87.5199 95.13 87.0699 95.58 86.5199 95.58Z" fill="#13706D"/>
<path d="M86.5199 99.13H82.4199C81.8699 99.13 81.4199 98.68 81.4199 98.13C81.4199 97.58 81.8699 97.13 82.4199 97.13H86.5199C87.0699 97.13 87.5199 97.58 87.5199 98.13C87.5199 98.68 87.0699 99.13 86.5199 99.13Z" fill="#13706D"/>
<path d="M84.68 43.27C86.13 43.27 87.3 42.1 87.3 40.65C87.3 39.2 86.13 38.03 84.68 38.03H38.59C36.68 39.71 34.83 41.46 33.04 43.28H84.68V43.27Z" fill="#C4EAE7"/>
<path d="M153.47 40.65C153.47 42.1 154.64 43.27 156.09 43.27H186.95C185.16 41.45 183.31 39.7 181.4 38.02H156.08C154.63 38.02 153.46 39.19 153.46 40.64L153.47 40.65Z" fill="#C4EAE7"/>
<path d="M197.53 55.84H117.93C116.48 55.84 115.31 57.01 115.31 58.46C115.31 59.91 116.48 61.08 117.93 61.08H201.04C199.92 59.29 198.75 57.54 197.53 55.83V55.84Z" fill="#C4EAE7"/>
<path d="M99.71 40.65C99.71 42.1 100.88 43.27 102.33 43.27H138.41C139.86 43.27 141.03 42.1 141.03 40.65C141.03 39.2 139.86 38.03 138.41 38.03H102.33C100.88 38.03 99.71 39.2 99.71 40.65Z" fill="#C4EAE7"/>
<path d="M99.86 61.09C101.31 61.09 102.48 59.92 102.48 58.47C102.48 57.02 101.31 55.85 99.86 55.85H22.47C21.25 57.56 20.08 59.31 18.96 61.1H99.86V61.09Z" fill="#C4EAE7"/>
<path d="M19.0198 154.15H6.25977C7.29977 156.05 8.56977 157.81 10.0298 159.4H19.0198C20.4698 159.4 21.6398 158.23 21.6398 156.78C21.6398 155.33 20.4698 154.16 19.0198 154.16V154.15Z" fill="#C4EAE7"/>
<path d="M71.29 141.95C71.29 140.5 70.12 139.33 68.67 139.33H3V141.38C3 142.46 3.07 143.53 3.2 144.58H68.67C70.12 144.58 71.29 143.41 71.29 141.96V141.95Z" fill="#C4EAE7"/>
<path d="M149.5 139.32H86.9901C85.5431 139.32 84.3701 140.493 84.3701 141.94V141.95C84.3701 143.397 85.5431 144.57 86.9901 144.57H149.5C150.947 144.57 152.12 143.397 152.12 141.95V141.94C152.12 140.493 150.947 139.32 149.5 139.32Z" fill="#C4EAE7"/>
<path d="M213.74 154.15H127.21C125.76 154.15 124.59 155.32 124.59 156.77C124.59 158.22 125.76 159.39 127.21 159.39H209.97C211.43 157.81 212.7 156.05 213.74 154.14V154.15Z" fill="#C4EAE7"/>
<path d="M167.92 139.32C166.47 139.32 165.3 140.49 165.3 141.94C165.3 143.39 166.47 144.56 167.92 144.56H216.8C216.93 143.51 217 142.44 217 141.36V139.31H167.92V139.32Z" fill="#C4EAE7"/>
<path d="M40.0399 159.39H102.55C104 159.39 105.17 158.22 105.17 156.77C105.17 155.32 104 154.15 102.55 154.15H40.0399C38.5899 154.15 37.4199 155.32 37.4199 156.77C37.4199 158.22 38.5899 159.39 40.0399 159.39Z" fill="#C4EAE7"/>
</svg>
