<svg width="219" height="180" viewBox="0 0 219 180" fill="none" xmlns="http://www.w3.org/2000/svg">
<path d="M107.321 12.8393H112.013C169.414 12.8393 216.02 59.4458 216.02 116.847V141.437C216.02 156.048 204.162 167.906 189.551 167.906H29.783C15.1718 167.906 3.31396 156.048 3.31396 141.437V116.847C3.31396 59.4458 49.9205 12.8393 107.321 12.8393Z" fill="#E0F4F3"/>
<path d="M112.013 12.8393H107.321C81.349 12.8393 57.6134 22.3613 39.3843 38.0956L43.8372 48.6017C67.7617 105.038 116.654 147.073 176.033 162.251H205.892C212.054 157.41 216.02 149.886 216.02 141.437V116.847C216.02 59.406 169.453 12.8393 112.013 12.8393Z" fill="#C4EAE7"/>
<path d="M185.625 60.1415H160.16C158.766 60.1415 157.635 61.2719 157.635 62.6662V88.022C157.635 89.4163 158.766 90.5466 160.16 90.5466H185.625C187.019 90.5466 188.15 89.4163 188.15 88.022V62.6662C188.15 61.2719 187.019 60.1415 185.625 60.1415Z" fill="#E0F4F3"/>
<path d="M185.635 91.5505H160.16C158.222 91.5505 156.641 89.9701 156.641 88.0419V62.6761C156.641 60.7379 158.222 59.1575 160.16 59.1575H185.635C187.573 59.1575 189.153 60.7379 189.153 62.6761V88.0419C189.153 89.9801 187.573 91.5505 185.635 91.5505ZM160.15 61.1355C159.305 61.1355 158.619 61.8213 158.619 62.6662V88.0319C158.619 88.8768 159.305 89.5527 160.15 89.5527H185.625C186.47 89.5527 187.156 88.8668 187.156 88.0319V62.6662C187.156 61.8213 186.47 61.1355 185.625 61.1355H160.15Z" fill="#13706D"/>
<path d="M173.32 84.7618C178.639 84.7618 182.951 80.4497 182.951 75.1304C182.951 69.8111 178.639 65.499 173.32 65.499C168.001 65.499 163.688 69.8111 163.688 75.1304C163.688 80.4497 168.001 84.7618 173.32 84.7618Z" fill="#AFE0DD"/>
<path d="M173.32 85.7558C167.455 85.7558 162.694 80.9848 162.694 75.1304C162.694 69.276 167.465 64.505 173.32 64.505C179.174 64.505 183.945 69.276 183.945 75.1304C183.945 80.9848 179.174 85.7558 173.32 85.7558ZM173.32 66.4929C168.559 66.4929 164.682 70.3693 164.682 75.1304C164.682 79.8914 168.559 83.7678 173.32 83.7678C178.081 83.7678 181.957 79.8914 181.957 75.1304C181.957 70.3693 178.081 66.4929 173.32 66.4929Z" fill="#13706D"/>
<path d="M169.344 74.9515C168.34 74.9515 167.525 74.1364 167.525 73.1325C167.525 72.1286 168.34 71.3136 169.344 71.3136C170.348 71.3136 171.163 72.1286 171.163 73.1325C171.163 74.1364 170.348 74.9515 169.344 74.9515ZM169.344 72.9636C169.244 72.9636 169.175 73.0431 169.175 73.1325C169.175 73.3214 169.523 73.3214 169.523 73.1325C169.523 73.0331 169.443 72.9636 169.354 72.9636H169.344Z" fill="#13706D"/>
<path d="M177.295 74.9515C176.292 74.9515 175.477 74.1364 175.477 73.1325C175.477 72.1286 176.292 71.3136 177.295 71.3136C178.299 71.3136 179.114 72.1286 179.114 73.1325C179.114 74.1364 178.299 74.9515 177.295 74.9515ZM177.295 72.9636C177.196 72.9636 177.127 73.0431 177.127 73.1325C177.127 73.3214 177.474 73.3214 177.474 73.1325C177.474 73.0331 177.395 72.9636 177.305 72.9636H177.295Z" fill="#13706D"/>
<path d="M173.32 81.0046C171.869 81.0046 170.676 79.8218 170.676 78.3607C170.676 76.8996 171.859 75.7168 173.32 75.7168C174.781 75.7168 175.964 76.8996 175.964 78.3607C175.964 79.8218 174.781 81.0046 173.32 81.0046ZM173.32 77.7146C172.962 77.7146 172.664 78.0029 172.664 78.3707C172.664 78.7384 172.952 79.0267 173.32 79.0267C173.687 79.0267 173.976 78.7384 173.976 78.3707C173.976 78.0029 173.687 77.7146 173.32 77.7146Z" fill="#13706D"/>
<path d="M138.303 109.511V107.046C138.303 105.486 137.041 104.214 135.47 104.214H131.127C129.566 104.214 128.294 105.476 128.294 107.046V109.521" fill="#E0F4F3"/>
<path d="M128.304 110.525C127.757 110.525 127.31 110.078 127.31 109.531V107.056C127.31 104.949 129.03 103.229 131.137 103.229H135.48C137.588 103.229 139.307 104.949 139.307 107.056V109.521C139.307 110.068 138.86 110.515 138.313 110.515C137.766 110.515 137.319 110.068 137.319 109.521V107.056C137.319 106.042 136.494 105.217 135.48 105.217H131.137C130.123 105.217 129.298 106.042 129.298 107.056V109.531C129.298 110.078 128.851 110.525 128.304 110.525Z" fill="#13706D"/>
<path d="M152.924 160.998H192.871V156.764C192.871 155.164 191.579 153.871 189.979 153.871H166.392" fill="#AFE0DD"/>
<path d="M192.871 161.992H152.924C152.377 161.992 151.93 161.545 151.93 160.998C151.93 160.451 152.377 160.004 152.924 160.004H191.877V156.764C191.877 155.72 191.022 154.865 189.979 154.865H166.392C165.846 154.865 165.398 154.418 165.398 153.871C165.398 153.325 165.846 152.878 166.392 152.878H189.979C192.126 152.878 193.865 154.617 193.865 156.764V160.998C193.865 161.545 193.418 161.992 192.871 161.992Z" fill="#13706D"/>
<path d="M124.815 140.175V116.479C124.815 112.761 127.827 109.75 131.544 109.75H136.991C142.219 109.75 147.05 112.533 149.684 117.055L164.782 143.008C165.845 144.836 166.402 146.914 166.402 149.021C166.402 155.631 161.045 160.988 154.435 160.988H134.218" fill="#E0F4F3"/>
<path d="M154.425 161.992H134.208C133.661 161.992 133.214 161.545 133.214 160.998C133.214 160.451 133.661 160.004 134.208 160.004H154.425C160.478 160.004 165.398 155.084 165.398 149.031C165.398 147.093 164.881 145.184 163.907 143.514L148.809 117.562C146.364 113.368 141.832 110.754 136.971 110.754H131.524C128.364 110.754 125.789 113.328 125.789 116.489V140.185C125.789 140.731 125.342 141.179 124.795 141.179C124.249 141.179 123.801 140.731 123.801 140.185V116.489C123.801 112.235 127.26 108.766 131.524 108.766H136.971C142.537 108.766 147.726 111.748 150.519 116.558L165.617 142.511C166.77 144.489 167.376 146.745 167.376 149.031C167.376 156.177 161.562 161.992 154.415 161.992H154.425Z" fill="#13706D"/>
<path d="M129.298 162.241C135.468 162.241 140.47 157.239 140.47 151.069C140.47 144.898 135.468 139.896 129.298 139.896C123.128 139.896 118.126 144.898 118.126 151.069C118.126 157.239 123.128 162.241 129.298 162.241Z" fill="#AFE0DD"/>
<path d="M129.298 163.235C122.589 163.235 117.132 157.778 117.132 151.069C117.132 144.359 122.589 138.903 129.298 138.903C136.007 138.903 141.464 144.359 141.464 151.069C141.464 157.778 136.007 163.235 129.298 163.235ZM129.298 140.89C123.682 140.89 119.12 145.453 119.12 151.069C119.12 156.684 123.682 161.247 129.298 161.247C134.914 161.247 139.476 156.684 139.476 151.069C139.476 145.453 134.914 140.89 129.298 140.89Z" fill="#13706D"/>
<path d="M125.292 151.069C125.292 148.862 127.082 147.063 129.298 147.063C131.515 147.063 133.304 148.852 133.304 151.069C133.304 153.285 131.515 155.074 129.298 155.074" fill="#AFE0DD"/>
<path d="M129.298 156.068C128.751 156.068 128.304 155.621 128.304 155.074C128.304 154.527 128.751 154.08 129.298 154.08C130.958 154.08 132.31 152.728 132.31 151.069C132.31 149.409 130.958 148.057 129.298 148.057C127.638 148.057 126.286 149.409 126.286 151.069C126.286 151.615 125.839 152.062 125.292 152.062C124.746 152.062 124.298 151.615 124.298 151.069C124.298 148.315 126.535 146.069 129.298 146.069C132.061 146.069 134.298 148.315 134.298 151.069C134.298 153.822 132.061 156.068 129.298 156.068Z" fill="#13706D"/>
<path d="M154.256 151.277H151.344C150.797 151.277 150.35 150.83 150.35 150.283C150.35 149.737 150.797 149.289 151.344 149.289H154.256C154.803 149.289 155.25 149.737 155.25 150.283C155.25 150.83 154.803 151.277 154.256 151.277Z" fill="#13706D"/>
<path d="M159.594 151.277C159.464 151.277 159.335 151.247 159.216 151.198C159.087 151.148 158.977 151.078 158.888 150.989C158.848 150.939 158.798 150.89 158.769 150.84C158.729 150.78 158.699 150.721 158.669 150.661C158.649 150.601 158.629 150.542 158.619 150.472C158.6 150.413 158.6 150.343 158.6 150.283C158.6 150.025 158.699 149.766 158.888 149.578C158.977 149.488 159.087 149.419 159.216 149.369C159.454 149.269 159.733 149.269 159.971 149.369C160.091 149.419 160.2 149.488 160.289 149.578C160.389 149.677 160.458 149.776 160.508 149.906C160.558 150.025 160.588 150.154 160.588 150.283C160.588 150.343 160.588 150.413 160.568 150.472C160.558 150.542 160.538 150.601 160.508 150.661C160.488 150.721 160.458 150.78 160.419 150.84C160.379 150.89 160.339 150.939 160.289 150.989C160.11 151.168 159.852 151.277 159.594 151.277Z" fill="#13706D"/>
<path d="M141.822 135.374C150.668 143.405 162.655 139.38 162.655 139.38L149.674 117.055C147.05 112.533 142.209 109.75 136.981 109.75C136.981 109.75 132.965 127.343 141.822 135.374Z" fill="#AFE0DD"/>
<path d="M155.508 141.397C151.234 141.397 145.807 140.334 141.155 136.109C131.981 127.78 135.848 110.277 136.017 109.531C136.116 109.074 136.524 108.756 136.981 108.756C142.547 108.756 147.735 111.748 150.528 116.548L163.51 138.873C163.659 139.131 163.688 139.439 163.579 139.718C163.47 139.996 163.251 140.215 162.963 140.314C162.714 140.403 159.643 141.397 155.498 141.397H155.508ZM142.487 134.638C149.226 140.751 157.993 139.479 161.144 138.753L148.819 117.552C146.513 113.586 142.348 111.042 137.796 110.774C137.17 114.233 135.222 128.039 142.487 134.638Z" fill="#13706D"/>
<path d="M141.881 117.771C142.975 118.348 144.476 119.411 145.599 121.26C147.567 124.51 149.366 127.76 149.366 127.76" fill="#E0F4F3"/>
<path d="M149.366 128.764C149.018 128.764 148.68 128.575 148.491 128.247C148.471 128.218 146.682 124.977 144.744 121.777C143.74 120.117 142.378 119.153 141.414 118.646C140.927 118.387 140.748 117.791 140.997 117.304C141.255 116.817 141.852 116.628 142.339 116.886C143.521 117.513 145.201 118.695 146.434 120.743C148.392 123.973 150.201 127.243 150.221 127.273C150.489 127.75 150.31 128.357 149.833 128.625C149.684 128.705 149.515 128.744 149.356 128.744L149.366 128.764Z" fill="#13706D"/>
<path d="M142.338 34.3186C146.513 37.3204 147.914 42.5585 146.523 49.8939C145.35 56.0465 142.179 63.2626 138.025 69.1965C130.282 80.2592 130.292 89.334 130.321 90.4174V104.223H136.285V90.3677C136.285 90.3677 136.285 90.2783 136.285 90.2484C136.285 90.1689 136.096 82.3763 142.915 72.6157C151.373 60.5193 159.136 39.0399 145.827 29.4781" fill="#E0F4F3"/>
<path d="M136.285 105.217H130.321C129.775 105.217 129.327 104.77 129.327 104.223V90.4174C129.297 89.4036 129.278 79.9809 137.209 68.6299C141.285 62.8053 144.396 55.7284 145.549 49.715C146.871 42.7871 145.588 37.8869 141.762 35.1337C141.314 34.8156 141.215 34.1894 141.533 33.7421C141.851 33.2948 142.477 33.1954 142.925 33.5135C147.437 36.7538 148.978 42.3299 147.507 50.0827C146.314 56.3645 143.074 63.7297 138.849 69.773C131.275 80.5971 131.295 89.4234 131.325 90.3975V103.239H135.301V90.3776C135.301 90.2087 135.082 82.1079 142.11 72.0591C150.349 60.2807 157.983 39.4474 145.25 30.2931C144.803 29.975 144.704 29.3488 145.022 28.9016C145.34 28.4543 145.966 28.3549 146.413 28.6729C160.309 38.6622 152.427 60.7677 143.74 73.1922C137.17 82.585 137.279 90.149 137.289 90.2186V90.3776V104.233C137.289 104.78 136.842 105.227 136.295 105.227L136.285 105.217Z" fill="#13706D"/>
<path d="M170.696 153.862H176.033L164.782 97.3552C163.52 91.0436 159.325 85.6564 153.441 83.0522C150.032 81.5414 147.139 80.8258 146.424 80.6568C122.588 72.9437 111.744 60.1416 115.899 44.5862C117.539 38.4535 121.555 33.8415 126.932 31.9132C132.051 30.0844 137.677 30.9591 142.348 34.3186L144.118 31.8536L145.827 29.4781C139.535 24.9556 131.922 23.8026 124.924 26.2974C117.678 28.8916 112.291 34.9945 110.134 43.0455C107.172 54.1182 107.739 74.4644 144.724 86.372L144.992 86.4416C146.592 86.7895 150.171 87.8828 153.57 89.7713C156.741 91.5306 158.977 94.592 159.683 98.1504L170.706 153.862" fill="#E0F4F3"/>
<path d="M176.034 154.855H170.696C170.219 154.855 169.811 154.518 169.722 154.05L158.699 98.3392C158.053 95.0691 156.005 92.2662 153.083 90.6361C149.763 88.7873 146.304 87.7437 144.784 87.4057L144.466 87.3262C106.646 75.1503 106.119 54.1878 109.17 42.7772C111.407 34.4081 117.022 28.0567 124.586 25.3532C131.902 22.7391 139.854 23.9517 146.404 28.663C146.613 28.8121 146.762 29.0507 146.801 29.3091C146.841 29.5675 146.781 29.8359 146.632 30.0546L143.154 34.8951C142.995 35.1138 142.766 35.2529 142.507 35.2927C142.249 35.3325 141.981 35.2728 141.762 35.1237C137.359 31.953 132.071 31.128 127.26 32.8476C122.201 34.6566 118.404 39.03 116.854 44.8347C112.858 59.7937 123.463 72.1784 146.722 79.7026C147.457 79.8716 150.38 80.6071 153.839 82.1378C159.971 84.8513 164.424 90.4671 165.756 97.1564L177.008 153.663C177.067 153.951 176.988 154.259 176.799 154.488C176.61 154.716 176.332 154.855 176.034 154.855ZM171.521 152.868H174.831L163.818 97.554C162.615 91.5008 158.58 86.4217 153.043 83.9667C149.743 82.5055 146.97 81.8098 146.205 81.6309C121.704 73.709 110.631 60.4696 114.945 44.3377C116.665 37.8869 120.919 33.0265 126.604 30.9889C131.743 29.1501 137.339 29.8757 142.11 32.9569L144.436 29.7266C138.581 25.87 131.653 24.9655 125.262 27.2417C118.325 29.7166 113.166 35.581 111.099 43.304C104.419 68.3019 129.497 80.4282 145.032 85.4278L145.251 85.4874C146.831 85.8253 150.529 86.9485 154.057 88.9066C157.496 90.815 159.902 94.1149 160.657 97.9615L171.521 152.868Z" fill="#13706D"/>
<path d="M144.992 87.4455C144.913 87.4455 144.833 87.4455 144.754 87.4157C144.217 87.2865 143.899 86.7497 144.028 86.213L145.45 80.4182C145.579 79.8815 146.125 79.5635 146.652 79.6927C147.189 79.8219 147.507 80.3586 147.378 80.8954L145.956 86.6901C145.847 87.1473 145.44 87.4455 144.992 87.4455Z" fill="#13706D"/>
<path d="M115.531 60.1415H40.9351C39.6396 60.1415 38.5894 61.1918 38.5894 62.4873V158.821C38.5894 160.117 39.6396 161.167 40.9351 161.167H115.531C116.827 161.167 117.877 160.117 117.877 158.821V62.4873C117.877 61.1918 116.827 60.1415 115.531 60.1415Z" fill="#E0F4F3"/>
<path d="M115.531 162.171H40.9349C39.0961 162.171 37.5952 160.67 37.5952 158.831V62.4873C37.5952 60.6485 39.0961 59.1476 40.9349 59.1476H115.531C117.37 59.1476 118.871 60.6485 118.871 62.4873V158.821C118.871 160.66 117.37 162.161 115.531 162.161V162.171ZM40.9349 61.1355C40.1894 61.1355 39.5831 61.7418 39.5831 62.4873V158.821C39.5831 159.567 40.1894 160.173 40.9349 160.173H115.531C116.277 160.173 116.883 159.567 116.883 158.821V62.4873C116.883 61.7418 116.277 61.1355 115.531 61.1355H40.9349Z" fill="#13706D"/>
<path d="M77.4135 141.715C94.0849 141.715 107.6 128.2 107.6 111.529C107.6 94.8575 94.0849 81.3426 77.4135 81.3426C60.742 81.3426 47.2271 94.8575 47.2271 111.529C47.2271 128.2 60.742 141.715 77.4135 141.715Z" fill="white"/>
<path d="M77.443 142.709C64.5316 142.709 52.4351 134.628 47.9623 121.767C42.3167 105.526 50.9343 87.7238 67.1755 82.0781C83.4167 76.4325 101.218 85.05 106.864 101.291C112.51 117.532 103.892 135.334 87.6509 140.98C84.2715 142.153 80.8324 142.709 77.443 142.709ZM77.3834 82.3366C74.2127 82.3366 70.9823 82.8534 67.8216 83.9567C52.6141 89.2445 44.5531 105.913 49.831 121.111C55.1188 136.318 71.7874 144.379 86.985 139.101C102.193 133.813 110.253 117.145 104.976 101.947C100.791 89.9105 89.4599 82.3366 77.3735 82.3366H77.3834Z" fill="#13706D"/>
<path d="M77.4131 134.996C90.3737 134.996 100.88 124.49 100.88 111.529C100.88 98.5684 90.3737 88.0618 77.4131 88.0618C64.4525 88.0618 53.9458 98.5684 53.9458 111.529C53.9458 124.49 64.4525 134.996 77.4131 134.996Z" fill="#35A099"/>
<path d="M107.6 112.543C107.192 112.543 106.804 112.284 106.665 111.877C106.486 111.36 106.755 110.794 107.282 110.615L109.359 109.889C110.661 109.442 111.347 108.01 110.89 106.718L107.729 97.6335C107.272 96.3315 105.86 95.6456 104.558 96.1029L104.071 96.2718C103.554 96.4507 102.988 96.1824 102.809 95.6556C102.63 95.1387 102.898 94.5722 103.425 94.3933L103.912 94.2243C106.248 93.4092 108.802 94.6517 109.617 96.9875L112.778 106.072C113.176 107.205 113.096 108.418 112.579 109.491C112.052 110.565 111.148 111.38 110.015 111.768L107.938 112.493C107.828 112.533 107.719 112.553 107.61 112.553L107.6 112.543Z" fill="#13706D"/>
<path d="M111.655 70.9061C111.655 68.584 109.773 66.7017 107.451 66.7017C105.128 66.7017 103.246 68.584 103.246 70.9061C103.246 73.2281 105.128 75.1105 107.451 75.1105C109.773 75.1105 111.655 73.2281 111.655 70.9061Z" fill="white"/>
<path d="M107.45 76.1045C104.588 76.1045 102.252 73.7687 102.252 70.9061C102.252 68.0435 104.588 65.7077 107.45 65.7077C110.313 65.7077 112.649 68.0435 112.649 70.9061C112.649 73.7687 110.313 76.1045 107.45 76.1045ZM107.45 67.6956C105.681 67.6956 104.24 69.1368 104.24 70.9061C104.24 72.6753 105.681 74.1166 107.45 74.1166C109.22 74.1166 110.661 72.6753 110.661 70.9061C110.661 69.1368 109.22 67.6956 107.45 67.6956Z" fill="#13706D"/>
<path d="M98.5646 70.9061C98.5646 68.584 96.6822 66.7017 94.3602 66.7017C92.0381 66.7017 90.1558 68.584 90.1558 70.9061C90.1558 73.2281 92.0381 75.1105 94.3602 75.1105C96.6822 75.1105 98.5646 73.2281 98.5646 70.9061Z" fill="white"/>
<path d="M94.36 76.1045C91.4974 76.1045 89.1616 73.7687 89.1616 70.9061C89.1616 68.0435 91.4974 65.7077 94.36 65.7077C97.2226 65.7077 99.5584 68.0435 99.5584 70.9061C99.5584 73.7687 97.2226 76.1045 94.36 76.1045ZM94.36 67.6956C92.5908 67.6956 91.1495 69.1368 91.1495 70.9061C91.1495 72.6753 92.5908 74.1166 94.36 74.1166C96.1292 74.1166 97.5705 72.6753 97.5705 70.9061C97.5705 69.1368 96.1292 67.6956 94.36 67.6956Z" fill="#13706D"/>
<path d="M78.2284 150.452C53.2403 150.452 38.5894 139.409 37.9732 138.942C37.5359 138.604 37.4563 137.988 37.7943 137.551C38.1322 137.113 38.7584 137.034 39.1858 137.362C39.3349 137.471 53.956 148.464 78.2284 148.464C102.501 148.464 117.122 137.481 117.271 137.372C117.708 137.034 118.334 137.123 118.662 137.551C119 137.988 118.911 138.614 118.484 138.942C117.867 139.409 103.226 150.452 78.2284 150.452Z" fill="#13706D"/>
<path d="M53.936 162.171C53.3893 162.171 52.942 161.724 52.942 161.177V155.77C52.942 154.07 51.5605 152.679 49.8508 152.679H38.5794C38.0327 152.679 37.5854 152.231 37.5854 151.685C37.5854 151.138 38.0327 150.691 38.5794 150.691H49.8508C52.6538 150.691 54.93 152.967 54.93 155.77V161.177C54.93 161.724 54.4827 162.171 53.936 162.171Z" fill="#13706D"/>
<path d="M54.075 76.1044H38.5892C38.0425 76.1044 37.5952 75.6572 37.5952 75.1105C37.5952 74.5638 38.0425 74.1165 38.5892 74.1165H54.075C56.3412 74.1165 58.18 72.2777 58.18 70.0115V60.1415C58.18 59.5949 58.6273 59.1476 59.174 59.1476C59.7206 59.1476 60.1679 59.5949 60.1679 60.1415V70.0115C60.1679 73.3711 57.4345 76.1044 54.075 76.1044Z" fill="#13706D"/>
<path d="M48.8766 102.693H46.2625C45.7158 102.693 45.2686 102.245 45.2686 101.699C45.2686 101.152 45.7158 100.705 46.2625 100.705H48.8766C49.4233 100.705 49.8706 101.152 49.8706 101.699C49.8706 102.245 49.4233 102.693 48.8766 102.693Z" fill="#13706D"/>
<path d="M48.9064 122.433H46.2625C45.7158 122.433 45.2686 121.985 45.2686 121.439C45.2686 120.892 45.7158 120.445 46.2625 120.445H48.9064C49.4531 120.445 49.9004 120.892 49.9004 121.439C49.9004 121.985 49.4531 122.433 48.9064 122.433Z" fill="#13706D"/>
<path d="M99.5785 103.826C95.3243 91.5804 81.9457 85.1097 69.7101 89.3638C65.3069 90.8945 61.6591 93.608 58.9754 97.0173C56.5104 102.345 56.0134 108.597 58.1007 114.58C62.3549 126.826 75.7335 133.297 87.9691 129.043C92.3723 127.512 96.0201 124.798 98.7038 121.389C101.169 116.061 101.666 109.809 99.5785 103.826Z" fill="#AFE0DD"/>
<path d="M77.3936 136C73.7557 136 70.1278 135.175 66.7583 133.545C60.874 130.702 56.4609 125.733 54.3139 119.56C49.8809 106.818 56.6497 92.8526 69.3922 88.4195C75.5647 86.2726 82.2043 86.6602 88.0786 89.5029C93.9628 92.3457 98.3759 97.3154 100.523 103.488C102.67 109.66 102.282 116.3 99.4395 122.174C96.5968 128.058 91.627 132.472 85.4545 134.619C82.8206 135.533 80.1071 135.99 77.4035 135.99L77.3936 136ZM77.4333 89.0457C74.9484 89.0457 72.4536 89.4632 70.0383 90.3081C58.3295 94.3733 52.1173 107.215 56.1925 118.914C58.1605 124.58 62.2258 129.152 67.623 131.766C73.0301 134.38 79.123 134.738 84.7985 132.77C90.474 130.802 95.0363 126.736 97.6504 121.329C100.264 115.922 100.622 109.829 98.6543 104.154C96.6862 98.4784 92.6209 93.9161 87.2238 91.302C84.1226 89.8011 80.7929 89.0457 77.4532 89.0457H77.4333Z" fill="#13706D"/>
<path d="M79.739 92.9321C74.5208 92.2264 69.6703 93.7273 65.933 96.5998C64.3824 99.9594 63.7861 103.836 64.5812 107.941C66.0821 115.574 72.4235 121.558 80.1267 122.602C85.3449 123.307 90.1954 121.807 93.9327 118.934C95.4833 115.574 96.0797 111.698 95.2845 107.593C93.7836 99.9594 87.4422 93.9758 79.739 92.9321Z" fill="#C4EAE7"/>
<path d="M83.8342 106.162C86.9248 106.162 89.4302 103.656 89.4302 100.566C89.4302 97.4751 86.9248 94.9697 83.8342 94.9697C80.7437 94.9697 78.2383 97.4751 78.2383 100.566C78.2383 103.656 80.7437 106.162 83.8342 106.162Z" fill="white"/>
<path d="M27.2681 146.099C29.689 146.099 31.6514 144.136 31.6514 141.715C31.6514 139.295 29.689 137.332 27.2681 137.332C24.8473 137.332 22.8848 139.295 22.8848 141.715C22.8848 144.136 24.8473 146.099 27.2681 146.099Z" fill="#C4EAE7"/>
<path d="M190.346 125.067C191.554 125.067 192.533 124.088 192.533 122.88C192.533 121.672 191.554 120.693 190.346 120.693C189.139 120.693 188.16 121.672 188.16 122.88C188.16 124.088 189.139 125.067 190.346 125.067Z" fill="#E0F4F3"/>
<path d="M147.795 102.752C149.003 102.752 149.982 101.773 149.982 100.566C149.982 99.358 149.003 98.379 147.795 98.379C146.587 98.379 145.608 99.358 145.608 100.566C145.608 101.773 146.587 102.752 147.795 102.752Z" fill="#E0F4F3"/>
<path d="M78.9839 47.5581C81.0644 47.5581 82.751 45.8715 82.751 43.791C82.751 41.7105 81.0644 40.0239 78.9839 40.0239C76.9034 40.0239 75.2168 41.7105 75.2168 43.791C75.2168 45.8715 76.9034 47.5581 78.9839 47.5581Z" fill="#E0F4F3"/>
<path d="M199.799 107.991C201.879 107.991 203.566 106.304 203.566 104.223C203.566 102.143 201.879 100.456 199.799 100.456C197.718 100.456 196.032 102.143 196.032 104.223C196.032 106.304 197.718 107.991 199.799 107.991Z" fill="#E0F4F3"/>
<path d="M167.356 53.164C168.904 53.164 170.159 51.9091 170.159 50.3611C170.159 48.813 168.904 47.5581 167.356 47.5581C165.808 47.5581 164.553 48.813 164.553 50.3611C164.553 51.9091 165.808 53.164 167.356 53.164Z" fill="#E0F4F3"/>
<path d="M17.9548 106.072C19.1624 106.072 20.1415 105.093 20.1415 103.885C20.1415 102.678 19.1624 101.699 17.9548 101.699C16.7471 101.699 15.7681 102.678 15.7681 103.885C15.7681 105.093 16.7471 106.072 17.9548 106.072Z" fill="#C4EAE7"/>
</svg>
