<svg xmlns="http://www.w3.org/2000/svg" width="220" height="180" fill="none"><path fill="#DCF0EF" d="M107.64 12h4.72C170.11 12 217 58.89 217 116.64v24.74c0 14.7-11.93 26.63-26.63 26.63H29.63C14.93 168.01 3 156.08 3 141.38v-24.74C3 58.89 49.89 12 107.64 12"/><path fill="#fff" d="M110.48 129.55c25.67 0 46.48-20.81 46.48-46.48s-20.81-46.48-46.48-46.48S64 57.4 64 83.07s20.81 46.48 46.48 46.48"/><path fill="#C0E6E3" d="m60.33 72.87 9.1 21.83h26.29L80.39 66.97z"/><path fill="#13706D" d="M95.72 95.7h-26.3c-.4 0-.77-.24-.92-.62l-9.1-21.82c-.11-.26-.1-.56.02-.82a1 1 0 0 1 .62-.53l20.06-5.9c.45-.14.93.06 1.16.47L96.6 94.2c.17.31.17.69-.01.99s-.51.49-.86.49zm-25.63-2h23.93L79.89 68.16l-18.22 5.36 8.41 20.18z"/><path fill="#C0E6E3" d="M63.68 98.34s-8.71-50.71-12.95-58.9l8.21-5.03s12.62 34.22 10.81 58.53-3.25 26.69-3.25 26.69z"/><path fill="#13706D" d="M66.5 120.63c-.07 0-.14 0-.2-.02a1.01 1.01 0 0 1-.79-.85L62.7 98.49c-.21-1.21-8.76-50.69-12.85-58.59a.994.994 0 0 1 .37-1.31l8.21-5.03a.98.98 0 0 1 .85-.09c.28.1.51.32.61.6.13.34 12.68 34.7 10.87 58.95-1.75 23.37-3.13 26.7-3.39 27.13-.18.3-.51.48-.86.48zM52.01 39.82c4.37 10.28 12.31 56.33 12.66 58.35v.04l2.04 15.39c.54-3.83 1.26-10.2 2.04-20.73 1.59-21.33-8.19-50.81-10.34-56.96l-6.4 3.92z"/><path fill="#ABDCD9" d="m53.61 85.79 3.69-5.19 17.55 17.83L57.3 94.7z"/><path fill="#13706D" d="M74.85 99.43c-.07 0-.14 0-.21-.02l-17.55-3.73c-.32-.07-.59-.29-.72-.6l-3.69-8.91a1 1 0 0 1 .11-.96l3.69-5.19c.17-.24.44-.39.74-.42s.58.08.79.3l17.55 17.83c.31.31.38.79.16 1.18-.18.33-.52.52-.88.52zm-16.83-5.6 13.78 2.93-14.38-14.61-2.68 3.77z"/><path fill="#C0E6E3" d="M66.3 103.6S51.06 70.29 45.89 65.69l7.17-5.81S69.8 80.5 71.37 98.12c1.57 17.63.52 19.7.52 19.7z"/><path fill="#13706D" d="M71.9 118.82h-.05c-.39-.02-.74-.27-.88-.63L65.39 104C60.15 92.54 49.2 69.97 45.24 66.44c-.22-.2-.34-.48-.34-.77s.14-.57.37-.75l7.17-5.81c.43-.35 1.06-.28 1.41.15.69.85 16.95 21.06 18.53 38.78 1.18 13.21.99 19.11.42 20.24a1 1 0 0 1-.89.55zM47.36 65.79c5.82 6.82 19.25 36.1 19.85 37.4 0 .02.01.03.02.05l4.01 10.2c0-2.8-.18-7.49-.87-15.22-1.36-15.21-14.46-33-17.47-36.92z"/><path fill="#fff" d="M59.2 86.07s-7.24-27.54-12.98-32.91l3.81-3.79 3.24.88-.13-2.61 3.08-1.5s8.55 21.92 10.85 39.96.85 21.95.85 21.95l-7.59-13.44-1.13-8.55z"/><path fill="#13706D" d="M67.92 109.06c-.36 0-.69-.19-.87-.51l-7.59-13.44q-.09-.165-.12-.36l-1.12-8.49c-.38-1.44-7.34-27.38-12.68-32.37-.2-.19-.31-.44-.32-.72 0-.27.1-.53.29-.72l3.81-3.79c.25-.25.62-.35.97-.25l1.91.52-.06-1.23c-.02-.4.2-.77.56-.95l3.08-1.5c.25-.12.54-.13.8-.03a1 1 0 0 1 .57.57c.09.22 8.62 22.24 10.91 40.2 2.26 17.77.95 22 .79 22.43-.14.37-.47.62-.86.65h-.08zM61.3 94.3l6.02 10.65c.15-2.92.07-8.55-1.23-18.72-1.98-15.53-8.71-34.2-10.4-38.71l-1.51.73.09 1.95c.02.32-.12.63-.37.83s-.58.27-.89.18l-2.68-.73-2.72 2.7c5.73 6.84 12.27 31.54 12.56 32.63.01.04.02.08.02.12l1.11 8.36z"/><path fill="#fff" d="M90.69 97.12c9.53-10.85-3.81-27.55-17.6-21.21s-8.61 19.91-8.61 19.91"/><path fill="#13706D" d="M90.69 98.12a1 1 0 0 1-.66-.25c-.42-.36-.46-1-.09-1.41 4.67-5.31 3.08-11.54.31-15.26-3.34-4.48-9.81-7.57-16.74-4.38-12.79 5.88-8.29 18.13-8.1 18.64.2.52-.06 1.09-.58 1.29a.994.994 0 0 1-1.29-.58c-1.9-5-2.44-15.85 9.13-21.17 7.95-3.66 15.36-.12 19.18 5.01 4.24 5.69 4.08 12.66-.41 17.77-.2.22-.47.34-.75.34"/><path fill="#E1F4F2" d="M131.57 30.95c-5.33-2.41-16.01 5.04-19.8 18.11s-11.5 29.14-19.1 42.32-5.81 24.42-.48 26.83 13.08-9.5 19.8-18.11 13.62-29.57 19.1-42.32 5.81-24.42.48-26.83"/><path fill="#13706D" d="M93.66 119.52c-.64 0-1.27-.13-1.88-.41-2.02-.91-3.55-2.83-4.43-5.54-1.94-6.01-.28-14.5 4.45-22.7 8.69-15.08 15.62-30.42 19-42.1 2.89-9.98 9.34-16.02 13.98-18.16 2.7-1.24 5.25-1.45 7.19-.58 5.88 2.65 5.89 14.48.03 28.13-1.51 3.52-3.13 7.66-4.84 12.04-4.43 11.33-9.44 24.16-14.38 30.5-.99 1.27-2 2.61-3.02 3.96-5.52 7.31-11.21 14.85-16.1 14.85zm35.67-88.02c-1.1 0-2.36.31-3.7.93-4.26 1.97-10.19 7.57-12.9 16.9-3.43 11.82-10.42 27.33-19.19 42.54-4.45 7.72-6.05 15.6-4.28 21.08.69 2.13 1.87 3.67 3.34 4.33 3.82 1.71 10.33-6.9 15.56-13.83 1.03-1.36 2.05-2.71 3.04-3.99 4.76-6.11 9.72-18.8 14.1-30 1.72-4.39 3.34-8.54 4.87-12.1 5.24-12.2 5.67-23.41.99-25.52-.53-.24-1.15-.36-1.83-.36z"/><path fill="#A5D3CF" d="M112.57 48.86s7.53 7.63 6.85 17.24c0 0-9.18-2.28-9.64-10.48"/><path fill="#13706D" d="M119.42 67.09c-.08 0-.16 0-.24-.03-.1-.02-9.9-2.56-10.4-11.4a.996.996 0 0 1 .94-1.05.99.99 0 0 1 1.05.94c.32 5.73 5.33 8.29 7.69 9.18-.07-8.43-6.54-15.11-6.61-15.18-.39-.39-.38-1.03 0-1.41.39-.39 1.03-.38 1.41 0 .32.33 7.84 8.06 7.14 18.01a1 1 0 0 1-1 .93z"/><path fill="#A5D3CF" d="M104.11 69.2s7.94 7.77 7.26 17.38c0 0-9.59-2.42-10.05-10.63"/><path fill="#13706D" d="M111.37 87.59c-.08 0-.16 0-.25-.03-.42-.11-10.31-2.71-10.8-11.54a.996.996 0 0 1 .94-1.05c.53-.02 1.02.39 1.05.94.32 5.69 5.65 8.37 8.09 9.31-.11-8.43-6.93-15.22-7-15.29a.996.996 0 0 1-.01-1.41c.39-.39 1.02-.4 1.41-.02.34.33 8.26 8.21 7.56 18.17-.02.3-.17.57-.41.74-.17.12-.38.19-.59.19z"/><path fill="#A5D3CF" d="M95.21 87.58s5.92 7.36 4.29 16.86c0 0-8.19-3.02-7.83-11.23"/><path fill="#13706D" d="M99.5 105.44c-.12 0-.23-.02-.35-.06-.09-.03-8.87-3.37-8.48-12.21.02-.55.46-.98 1.04-.96.55.02.98.49.96 1.04-.25 5.64 3.92 8.59 6.02 9.71.82-8.29-4.21-14.69-4.26-14.76a1.002 1.002 0 1 1 1.56-1.26c.25.31 6.19 7.83 4.5 17.65-.05.29-.23.55-.49.7-.15.09-.33.13-.5.13z"/><path fill="#ABDCD9" d="M92.2 118.2c-.39-.17-.75-.4-1.1-.67 1.82-1.4 3.73-3.46 5.67-5.8 1.27-1.53 3.51-1.92 4.78-3.59.89-1.17 2.9-6.36 3.49-7.12 1.28-1.64 2.57-3.74 3.86-6.14.5-.93 1-1.91 1.5-2.93.71-1.45 2.47-1.48 3.17-3.06.82-1.85.58-5.25 1.38-7.2 1.28-3.1 2.53-6.29 3.75-9.4.44-1.11 3.4-1.56 3.83-2.65.48-1.23-.09-6.24.38-7.42.94-2.37.36-1.48 1.24-3.51 5.48-12.75 5.81-24.42.48-26.83 0 0-.04-.02-.06-.02 2.64-1.38 5.16-1.74 7.02-.9 5.33 2.41 5 14.07-.48 26.83-5.48 12.75-12.38 33.71-19.1 42.32s-14.46 20.52-19.8 18.11z"/><path fill="#13706D" d="M93.66 119.52c-.64 0-1.27-.13-1.88-.41-2.02-.91-3.55-2.83-4.43-5.54-1.94-6.01-.28-14.5 4.45-22.7 8.69-15.08 15.62-30.42 19-42.1 2.89-9.98 9.34-16.02 13.98-18.16 2.7-1.24 5.25-1.45 7.19-.58 5.88 2.65 5.89 14.48.03 28.13-1.51 3.52-3.13 7.66-4.84 12.04-4.43 11.33-9.44 24.16-14.38 30.5-.99 1.27-2 2.61-3.02 3.96-5.52 7.31-11.21 14.85-16.1 14.85zm35.67-88.02c-1.1 0-2.36.31-3.7.93-4.26 1.97-10.19 7.57-12.9 16.9-3.43 11.82-10.42 27.33-19.19 42.54-4.45 7.72-6.05 15.6-4.28 21.08.69 2.13 1.87 3.67 3.34 4.33 3.82 1.71 10.33-6.9 15.56-13.83 1.03-1.36 2.05-2.71 3.04-3.99 4.76-6.11 9.72-18.8 14.1-30 1.72-4.39 3.34-8.54 4.87-12.1 5.24-12.2 5.67-23.41.99-25.52-.53-.24-1.15-.36-1.83-.36z"/><path fill="#8DC4BF" d="M103.039 89.256c.251-.75-.005-1.51-.571-1.699-.565-.19-1.227.265-1.477 1.014-.251.749.005 1.51.57 1.698.566.19 1.228-.264 1.478-1.013m22.078-41.177c.25-.75-.005-1.51-.571-1.699s-1.227.265-1.478 1.014.005 1.51.571 1.699 1.227-.265 1.478-1.014M110.914 66.41c.21-.63-.006-1.268-.482-1.427-.477-.16-1.034.22-1.244.849s.006 1.267.483 1.427c.476.16 1.033-.221 1.243-.85"/><path fill="#fff" d="M82.42 74.88s10.04 10.23-4.05 20.87z"/><path fill="#13706D" d="M78.36 96.75c-.3 0-.6-.14-.8-.4a.994.994 0 0 1 .2-1.4c4.42-3.34 6.81-6.94 7.09-10.7.38-4.98-3.12-8.64-3.15-8.67a.996.996 0 0 1 .02-1.41c.39-.38 1.03-.38 1.41.01.17.17 4.16 4.31 3.72 10.2-.32 4.37-2.98 8.47-7.88 12.17-.18.14-.39.2-.6.2z"/><path fill="#C0E6E3" d="M109.92 147.43H63.19c-7.56 0-13.52-6.41-12.99-13.95l3.41-47.7 8 4 6.79-4 7.17 4 6.69-4 6.69 4 6.22-4 6.46 4 6.69-4 5.74 4 6.44-4 3.34 46.69c.58 8.08-5.82 14.95-13.92 14.95z"/><path fill="#13706D" d="M109.92 148.43H63.19c-3.94 0-7.58-1.59-10.26-4.47s-4-6.63-3.72-10.55l3.41-47.7c.02-.33.21-.63.5-.8s.64-.17.94-.03l7.51 3.76 6.32-3.72c.31-.18.68-.19 1-.01l6.67 3.72 6.2-3.7c.32-.19.71-.19 1.03 0l6.16 3.68 5.7-3.66c.33-.21.74-.21 1.07 0l5.94 3.68 6.17-3.69c.34-.2.76-.19 1.08.04l5.2 3.62 5.88-3.65c.3-.18.67-.2.98-.04s.52.47.54.82l3.34 46.7c.3 4.19-1.11 8.18-3.97 11.26s-6.75 4.76-10.95 4.76zM54.5 87.35l-3.3 46.21c-.24 3.37.89 6.58 3.19 9.05s5.42 3.83 8.8 3.83h46.73c3.64 0 7-1.47 9.48-4.13s3.7-6.12 3.44-9.75l-3.22-45.04-5.03 3.13a1 1 0 0 1-1.1-.03l-5.21-3.63-6.14 3.67c-.32.19-.72.19-1.04 0l-5.92-3.67-5.69 3.66c-.32.21-.73.21-1.05.02l-6.18-3.69-6.18 3.69c-.31.18-.69.19-1 .01l-6.67-3.72-6.29 3.71c-.29.17-.65.18-.96.03l-6.66-3.33z"/><path fill="#13706D" d="M110.49 138.4c-.39 0-.76-.23-.92-.61a.995.995 0 0 1 .53-1.31c.52-.22 12.63-5.58 11.61-19.79-.04-.55.38-1.03.93-1.07.57-.05 1.03.38 1.07.93 1.12 15.66-12.68 21.72-12.82 21.78-.13.05-.26.08-.39.08zm-36.47-4.92c-.14 0-.29-.03-.43-.1-12.6-6.05-11.56-18.63-11.55-18.76.05-.55.51-.96 1.09-.9a1 1 0 0 1 .9 1.09c-.04.46-.9 11.34 10.42 16.77.5.24.71.84.47 1.33-.17.36-.53.57-.9.57"/><path fill="#fff" d="M69.22 137.51H29.39v20.69h39.83z"/><path fill="#13706D" d="M69.22 159.19H29.39c-.55 0-1-.45-1-1V137.5c0-.55.45-1 1-1h39.83c.55 0 1 .45 1 1v20.69c0 .55-.45 1-1 1m-38.83-2h37.83V138.5H30.39z"/><path fill="#C0E6E3" d="M29.39 137.3s2.04-10.7 17.64-12.67l22.19 12.67z"/><path fill="#13706D" d="M69.22 138.3H29.39a.992.992 0 0 1-.98-1.19c.09-.47 2.36-11.43 18.49-13.48.21-.03.43.02.62.12l22.19 12.67c.39.22.59.69.47 1.12s-.51.74-.97.74zm-38.47-2h34.7l-18.63-10.64c-11.37 1.55-15.03 7.96-16.07 10.64"/><path fill="#C0E6E3" d="M40.44 154.23c1.85 0 3.35-1.428 3.35-3.19s-1.5-3.19-3.35-3.19-3.35 1.428-3.35 3.19 1.5 3.19 3.35 3.19"/><path fill="#13706D" d="M40.44 155.23c-2.4 0-4.35-1.88-4.35-4.19s1.95-4.19 4.35-4.19 4.35 1.88 4.35 4.19-1.95 4.19-4.35 4.19m0-6.38c-1.3 0-2.35.98-2.35 2.19s1.05 2.19 2.35 2.19 2.35-.98 2.35-2.19-1.05-2.19-2.35-2.19"/><path fill="#C0E6E3" d="M69.22 146.02c-.71-.53-1.59-.85-2.56-.85-2.3 0-4.16 1.77-4.16 3.96s1.86 3.96 4.16 3.96c.97 0 1.86-.32 2.56-.85v-6.23z"/><path fill="#13706D" d="M66.66 154.09c-2.84 0-5.16-2.22-5.16-4.96s2.31-4.96 5.16-4.96c1.15 0 2.25.36 3.16 1.04.25.19.4.49.4.8v6.23a1 1 0 0 1-.4.8c-.91.68-2.01 1.04-3.16 1.04zm0-7.92c-1.74 0-3.16 1.33-3.16 2.96s1.42 2.96 3.16 2.96c.56 0 1.09-.13 1.56-.39v-5.14c-.47-.26-1.01-.39-1.56-.39"/><path fill="#C0E6E3" d="M49.01 139.78c0 1.76 1.5 3.19 3.35 3.19s3.35-1.43 3.35-3.19c0-.89-.39-1.7-1.01-2.28h-4.69c-.62.58-1.01 1.38-1.01 2.28z"/><path fill="#13706D" d="M52.36 143.97c-2.4 0-4.35-1.88-4.35-4.19 0-1.14.47-2.21 1.32-3.01.19-.17.43-.27.68-.27h4.69c.25 0 .5.1.68.27.85.8 1.32 1.86 1.32 3.01 0 2.31-1.95 4.19-4.35 4.19zm-1.91-5.46c-.29.37-.44.81-.44 1.28 0 1.21 1.05 2.19 2.35 2.19s2.35-.98 2.35-2.19c0-.46-.15-.91-.44-1.28z"/><path fill="#ABDCD9" d="M46.58 124.7c-15.17 2.13-17.18 12.61-17.18 12.61h12.34c-.67-1.31-1.15-2.69-1.3-4.13-.44-4.34 3.22-7.03 6.14-8.48"/><path fill="#13706D" d="M69.22 138.3H29.39a.992.992 0 0 1-.98-1.19c.09-.47 2.36-11.43 18.49-13.48.21-.03.43.02.62.12l22.19 12.67c.39.22.59.69.47 1.12s-.51.74-.97.74zm-38.47-2h34.7l-18.63-10.64c-11.37 1.55-15.03 7.96-16.07 10.64"/><path fill="#13706D" d="M69.22 159.19H29.39c-.55 0-1-.45-1-1V137.5c0-.55.45-1 1-1h39.83c.55 0 1 .45 1 1v20.69c0 .55-.45 1-1 1m-38.83-2h37.83V138.5H30.39z"/><path fill="#ABDCD9" d="M146.18 72.49c-2.15-.3-4.08.62-5.1 2.11-.55.81-1.59 1.24-2.64 1.18-.38-.02-.77.01-1.17.1-1.36.31-2.43 1.36-2.69 2.6-.43 2.12 1.37 3.97 3.64 3.97.36 0 .71-.05 1.04-.13 1.98-.53 4.01-.74 6.07-.73h.04c3.17 0 5.66-2.61 4.96-5.58-.43-1.82-2.12-3.24-4.16-3.53z"/><path fill="#13706D" d="M138.22 83.45c-1.49 0-2.86-.63-3.76-1.73a4.1 4.1 0 0 1-.87-3.44c.33-1.62 1.71-2.98 3.44-3.38.48-.11.97-.15 1.45-.13.73.05 1.43-.26 1.77-.75 1.3-1.9 3.63-2.87 6.06-2.53 2.47.34 4.47 2.06 5 4.29.38 1.61.01 3.21-1.02 4.51-1.14 1.44-2.98 2.3-4.92 2.3h-.11c-1.96-.01-3.96.22-5.74.7-.42.11-.86.17-1.3.17zm0-6.68c-.24 0-.49.03-.73.08-.98.23-1.75.96-1.93 1.83-.13.63.03 1.26.45 1.78.66.81 1.91 1.18 2.99.89 1.96-.52 4.09-.79 6.33-.76 1.37 0 2.62-.58 3.39-1.54.65-.81.87-1.81.64-2.81-.33-1.4-1.7-2.54-3.32-2.76-1.65-.22-3.28.43-4.14 1.68-.74 1.07-2.09 1.68-3.52 1.62h-.16z"/><path fill="#fff" d="M140.86 92.84c.83 1.06 1.36 2.29 1.52 3.58.42 3.49-.65 9.36-4.18 16.26-4.63 9.04 1.64 20.37 11.14 22.72s11.56 6.05 13.42 10.25c1.71 3.86 8.15 3.89 12.08-.31.68-.72 1.62-1.19 2.67-1.26 3.16-.19 11.14-2.02 15.61-5.8 5.96-5.04 5.62-11.45 4.32-14.48 0 0 7.27-1.34 4.29-9.24 0 0 5.78-1.51 2.98-8.23s1.68-9.24-2.05-14.62-8.95-10.25-13.05-7.9c-3.07 1.76-4.99 7.46-5.29 12.06s-4.51 8.45-9.71 8.94c-1.17.11-2.48.17-3.94.17-13.11 0-11.62-10.59-14.6-15.79s-12.67-9.41-18.08-7.56c-1.43.49-1.82 1.59-1.63 2.96.37 2.66 2.98 6.3 4.51 8.25z"/><path fill="#13706D" d="M167.84 149.51c-.47 0-.93-.04-1.39-.11-2.15-.36-3.83-1.58-4.61-3.35-1.6-3.61-3.26-7.33-12.75-9.68-5.14-1.27-9.58-5.06-11.89-10.12-2.12-4.66-2.09-9.77.1-14.03 3.03-5.91 4.55-11.77 4.07-15.68-.13-1.1-.59-2.16-1.31-3.08-1.94-2.47-4.33-5.98-4.72-8.73-.28-2.01.53-3.44 2.29-4.04 5.73-1.96 16 2.3 19.27 8.01.82 1.43 1.3 3.15 1.81 4.97 1.42 5.07 2.9 10.32 11.92 10.32 1.36 0 2.66-.06 3.85-.17 4.75-.45 8.54-3.9 8.81-8.01.32-4.78 2.27-10.83 5.79-12.86 3.94-2.27 9.18.72 14.37 8.19 2.17 3.13 1.83 5.51 1.5 7.81-.29 1.99-.58 4.04.65 7 1.04 2.49 1.12 4.65.24 6.42-.74 1.5-2.01 2.34-2.89 2.77.73 2.4.61 4.48-.35 6.18-1.02 1.82-2.76 2.72-3.9 3.15.98 3.38.93 9.61-4.96 14.58-4.83 4.08-13.14 5.85-16.2 6.04-.76.05-1.47.38-1.99.94-2.06 2.21-4.97 3.5-7.73 3.5zm-26.97-67.32c-.94 0-1.82.12-2.58.38-.61.21-1.14.58-.96 1.87.25 1.78 1.82 4.61 4.31 7.78a8.25 8.25 0 0 1 1.72 4.08c.52 4.29-1.08 10.58-4.28 16.83-1.9 3.71-1.92 8.19-.05 12.28 2.06 4.52 6 7.88 10.55 9.01 9.67 2.39 12.02 6.15 14.09 10.81.51 1.16 1.62 1.94 3.11 2.19 2.48.42 5.35-.67 7.32-2.77.88-.94 2.06-1.5 3.34-1.57 3.17-.19 10.82-2.02 15.02-5.57 5.67-4.79 5.13-10.81 4.04-13.32-.12-.28-.11-.6.04-.87.14-.27.4-.46.7-.51.02 0 2.52-.51 3.64-2.5.77-1.37.73-3.19-.1-5.41-.1-.27-.08-.56.05-.81s.36-.44.64-.51c.01 0 1.82-.51 2.62-2.13.6-1.23.5-2.82-.3-4.75-1.44-3.46-1.09-5.9-.78-8.05.31-2.18.56-3.9-1.17-6.38-3.43-4.95-8.32-9.55-11.73-7.6-2.73 1.57-4.51 6.97-4.79 11.25-.34 5.17-4.81 9.32-10.62 9.87-1.25.12-2.61.18-4.04.18-10.54 0-12.37-6.53-13.85-11.78-.48-1.7-.93-3.31-1.62-4.52-2.33-4.07-9.3-7.49-14.31-7.49z"/><path fill="#ABDCD9" d="M128.63 91.25s1.57-5.02 8.02-5.44l4.21 7.03z"/><path fill="#13706D" d="M140.86 93.84h-.13l-12.23-1.59a.993.993 0 0 1-.82-1.29c.07-.23 1.85-5.68 8.91-6.14.37-.01.73.16.92.48l4.21 7.03c.2.33.19.74-.02 1.06-.19.28-.5.45-.84.45m-10.73-3.4 8.81 1.14-2.83-4.72c-3.47.41-5.2 2.32-5.98 3.57z"/><path fill="#fff" d="M162.68 119.7c6.08 3.95 16.74 7.14 29.71-4.85z"/><path fill="#13706D" d="M174 124.26c-3.74 0-7.75-1.04-11.87-3.72a1 1 0 0 1-.29-1.38c.3-.46.92-.6 1.38-.29 6.25 4.06 16.27 6.54 28.49-4.75a.99.99 0 0 1 1.41.06c.38.41.35 1.04-.06 1.41-4.07 3.76-10.95 8.67-19.07 8.67z"/><path fill="#fff" d="M141.85 102.89s3.57 7.47 12.71 5.54z"/><path fill="#13706D" d="M151.65 109.75c-7.53 0-10.67-6.35-10.7-6.42a.99.99 0 0 1 .47-1.33.993.993 0 0 1 1.33.47c.13.28 3.38 6.73 11.6 4.99.54-.11 1.07.23 1.19.77s-.23 1.07-.77 1.19c-1.11.24-2.15.34-3.12.34zm15.83 50.17h-7.14c-.55 0-1-.45-1-1s.45-1 1-1h6.14v-9.42c0-.55.45-1 1-1s1 .45 1 1v10.42c0 .55-.45 1-1 1m6.65 0c-.27 0-.53-.11-.73-.31a.996.996 0 0 1 .04-1.41l3.71-3.49-3.89-6.71c-.28-.48-.11-1.09.36-1.37.48-.28 1.09-.11 1.37.36l4.28 7.39c.23.4.16.91-.18 1.23l-4.28 4.03c-.19.18-.44.27-.69.27z"/><path fill="#13706D" d="M178.41 155.89c-.45 0-.85-.3-.97-.75a.996.996 0 0 1 .72-1.21l4.66-1.18a.996.996 0 0 1 .49 1.93l-4.66 1.18c-.08.02-.17.03-.25.03zm-4.28 4.03h-6.65c-.55 0-1-.45-1-1s.45-1 1-1h6.65c.55 0 1 .45 1 1s-.45 1-1 1"/><path fill="#fff" d="M106.53 102.09H81.11a2.39 2.39 0 0 0 0 4.78h25.42a2.39 2.39 0 1 0 0-4.78"/><path fill="#13706D" d="M106.53 107.88H81.11c-1.87 0-3.39-1.52-3.39-3.39s1.52-3.39 3.39-3.39h25.42c1.87 0 3.39 1.52 3.39 3.39s-1.52 3.39-3.39 3.39m-25.42-4.79c-.77 0-1.39.62-1.39 1.39s.62 1.39 1.39 1.39h25.42c.77 0 1.39-.62 1.39-1.39s-.62-1.39-1.39-1.39z"/><path fill="#fff" d="M97.39 112.24H81.11a2.39 2.39 0 0 0 0 4.78h16.28a2.39 2.39 0 1 0 0-4.78"/><path fill="#13706D" d="M97.39 118.02H81.11c-1.87 0-3.39-1.52-3.39-3.39s1.52-3.39 3.39-3.39h16.28c1.87 0 3.39 1.52 3.39 3.39s-1.52 3.39-3.39 3.39m-16.28-4.78c-.77 0-1.39.62-1.39 1.39s.62 1.39 1.39 1.39h16.28c.77 0 1.39-.62 1.39-1.39s-.62-1.39-1.39-1.39z"/><path fill="#fff" d="M100.96 122.22H81.11a2.39 2.39 0 0 0 0 4.78h19.85a2.39 2.39 0 1 0 0-4.78"/><path fill="#13706D" d="M100.96 128H81.11c-1.87 0-3.39-1.52-3.39-3.39s1.52-3.39 3.39-3.39h19.85c1.87 0 3.39 1.52 3.39 3.39s-1.52 3.39-3.39 3.39m-19.85-4.78c-.77 0-1.39.62-1.39 1.39s.62 1.39 1.39 1.39h19.85c.77 0 1.39-.62 1.39-1.39s-.62-1.39-1.39-1.39z"/></svg>