<svg xmlns="http://www.w3.org/2000/svg" width="219" height="180" fill="none"><path fill="#E0F4F3" d="M107.321 12.663h4.692c57.401 0 104.007 46.606 104.007 104.007v24.591c0 14.611-11.858 26.469-26.469 26.469H29.783c-14.611 0-26.469-11.858-26.469-26.469V116.67c0-57.4 46.607-104.007 104.007-104.007"/><path fill="#E0F4F3" d="M64.979 122.694s3.15-3.231 5.874-3.559 3.002-2.037 7.017-2.037 5.01 2.127 5.01 2.127 1.004 1.322 7.733.666 5.874 3.538 5.874 3.538"/><path fill="#13706D" d="M96.467 124.423c-.07 0-.13 0-.199-.02a.996.996 0 0 1-.775-1.173c0-.02.14-.855-.447-1.501-.706-.765-2.207-1.053-4.354-.844-6.57.636-8.22-.527-8.617-1.054-.04-.06-.08-.119-.11-.179-.02-.04-.865-1.56-4.115-1.56-2.067 0-2.982.487-3.946 1.003-.755.408-1.62.875-2.952 1.024-1.948.229-4.463 2.435-5.278 3.26a.99.99 0 0 1-1.401.02.99.99 0 0 1-.02-1.401c.14-.139 3.43-3.489 6.46-3.847.955-.109 1.561-.437 2.247-.805 1.084-.586 2.316-1.242 4.88-1.242 3.817 0 5.338 1.789 5.775 2.455.298.169 1.859.825 6.878.348 2.853-.279 4.88.228 6.034 1.51 1.004 1.114 1.043 2.545.904 3.211a1 1 0 0 1-.974.795z"/><path fill="#fff" d="M108.335 123.429H59.919v19.263h48.416z"/><path fill="#13706D" d="M108.345 143.686H59.93a.997.997 0 0 1-.995-.994v-19.263c0-.547.448-.994.994-.994h48.416c.547 0 .994.447.994.994v19.263a.997.997 0 0 1-.994.994m-47.431-1.988h46.427v-17.275H60.914z"/><path fill="#fff" d="M162.674 103.759h-48.415v38.933h48.415z"/><path fill="#13706D" d="M162.684 143.686h-48.415a.997.997 0 0 1-.994-.994v-38.933c0-.547.447-.994.994-.994h48.415c.547 0 .994.447.994.994v38.933a.997.997 0 0 1-.994.994m-47.431-1.988h46.427v-36.945h-46.427z"/><path fill="#fff" d="M182.484 119.135h-33.138v23.557h33.138z"/><path fill="#13706D" d="M182.484 143.686h-33.138a.997.997 0 0 1-.994-.994v-23.557c0-.546.447-.994.994-.994h33.138c.547 0 .994.448.994.994v23.557a.997.997 0 0 1-.994.994m-32.145-1.988h31.151v-21.569h-31.151z"/><path fill="#fff" d="M149.346 119.135s6.291 7.117 16.33 7.117 16.808-7.117 16.808-7.117z"/><path fill="#13706D" d="M165.676 127.236c-10.367 0-16.807-7.147-17.076-7.445a.99.99 0 0 1-.159-1.063.99.99 0 0 1 .905-.587h33.138a.998.998 0 0 1 .726 1.68c-.288.298-7.177 7.425-17.534 7.425zm-13.786-7.107c2.475 2.008 7.346 5.129 13.786 5.129 6.441 0 11.54-3.111 14.154-5.129z"/><path fill="#AFE0DD" d="M86.777 123.429h-5.288v19.263h5.288z"/><path fill="#13706D" d="M86.776 143.686H81.49a.997.997 0 0 1-.994-.994v-19.263c0-.547.447-.994.994-.994h5.287c.547 0 .994.447.994.994v19.263a.997.997 0 0 1-.994.994m-4.293-1.988h3.3v-17.275h-3.3z"/><path fill="#AFE0DD" d="M142.14 103.759h-7.336v38.933h7.336z"/><path fill="#13706D" d="M142.139 143.686h-7.335a.997.997 0 0 1-.994-.994v-38.933c0-.547.447-.994.994-.994h7.335c.547 0 .994.447.994.994v38.933a.997.997 0 0 1-.994.994m-6.341-1.988h5.347v-36.945h-5.347z"/><path fill="#fff" d="M160.309 88.89h-30.623v14.869h30.623z"/><path fill="#13706D" d="M160.309 104.753h-30.624a1 1 0 0 1-.994-.994v-14.87c0-.546.448-.994.994-.994h30.624c.547 0 .994.448.994.994v14.87a.997.997 0 0 1-.994.994m-29.63-1.988h28.636V89.883h-28.636z"/><path fill="#AFE0DD" d="M147.636 88.89h-5.287v14.869h5.287z"/><path fill="#13706D" d="M147.636 104.753h-5.288a1 1 0 0 1-.994-.994v-14.87c0-.546.448-.994.994-.994h5.288c.547 0 .994.448.994.994v14.87a.997.997 0 0 1-.994.994m-4.294-1.988h3.3V89.883h-3.3zm-16.857 27.423h-6.501a.997.997 0 0 1-.994-.994c0-.547.448-.994.994-.994h6.501c.546 0 .994.447.994.994a.997.997 0 0 1-.994.994m0 3.866h-6.501a.997.997 0 0 1-.994-.994c0-.546.448-.993.994-.993h6.501c.546 0 .994.447.994.993a.997.997 0 0 1-.994.994m-3.251 3.867h-3.25a.997.997 0 0 1-.994-.994c0-.547.448-.994.994-.994h3.25c.547 0 .994.447.994.994a.997.997 0 0 1-.994.994"/><path fill="#AFE0DD" d="M97.7 55.631a5.894 5.894 0 1 0 0-11.788 5.894 5.894 0 0 0 0 11.788"/><path fill="#13706D" d="M97.7 56.615c-3.797 0-6.889-3.09-6.889-6.888s3.092-6.888 6.889-6.888 6.888 3.091 6.888 6.888-3.091 6.888-6.888 6.888m0-11.778a4.904 4.904 0 0 0-4.9 4.9c0 2.704 2.196 4.9 4.9 4.9 2.703 0 4.9-2.196 4.9-4.9 0-2.703-2.197-4.9-4.9-4.9"/><path fill="#AFE0DD" d="M182.494 76.147H171.72v-7.535l5.387-4.512 5.387 4.513z"/><path fill="#13706D" d="M182.484 77.14H171.71a.997.997 0 0 1-.994-.993v-7.525c0-.298.129-.576.358-.765l5.387-4.522a1.005 1.005 0 0 1 1.282 0l5.387 4.522a.99.99 0 0 1 .358.766v7.524a.997.997 0 0 1-.994.994zm-9.77-1.987h8.786V69.08l-4.393-3.688-4.393 3.688z"/><path fill="#13706D" d="M177.107 77.14a.997.997 0 0 1-.994-.993v-3.49c0-.546.447-.993.994-.993s.994.447.994.994v3.489a.997.997 0 0 1-.994.994M38.271 137.792a.997.997 0 0 1-.994-.915c0-.059-.12-1.53-.159-4.035 0-.547.428-1.004.974-1.014h.02a1 1 0 0 1 .994.974c.04 2.435.15 3.896.15 3.916a.99.99 0 0 1-.915 1.064h-.08zm-.06-10.934h-.04a1 1 0 0 1-.953-1.034c.06-1.351.139-2.693.238-4.005a1 1 0 0 1 1.064-.915c.546.04.954.517.914 1.064a120 120 0 0 0-.238 3.936.995.995 0 0 1-.994.954zm.995-10.884h-.14a.99.99 0 0 1-.845-1.123c.19-1.332.408-2.664.647-3.966a.993.993 0 0 1 1.152-.795c.537.1.895.616.796 1.153a79 79 0 0 0-.626 3.887.994.994 0 0 1-.984.854zm2.176-10.714a.7.7 0 0 1-.258-.04.997.997 0 0 1-.696-1.223 65 65 0 0 1 1.173-3.856 1.01 1.01 0 0 1 1.262-.627c.517.18.795.736.626 1.263a73 73 0 0 0-1.143 3.747 1 1 0 0 1-.954.736zm3.757-10.258a.9.9 0 0 1-.427-.1.99.99 0 0 1-.467-1.321c.288-.607.596-1.203.904-1.79a.99.99 0 0 1 1.342-.407.987.987 0 0 1 .408 1.342 46 46 0 0 0-.865 1.72.99.99 0 0 1-.895.566zM59.92 73.553a.96.96 0 0 1-.617-.22.984.984 0 0 1-.159-1.39c.04-.05.984-1.243 2.634-3.082a.992.992 0 1 1 1.481 1.322c-1.61 1.79-2.544 2.972-2.554 2.992a1 1 0 0 1-.785.377m7.434-8.052a.99.99 0 0 1-.696-1.7 93 93 0 0 1 2.943-2.742.992.992 0 1 1 1.322 1.48 102 102 0 0 0-2.883 2.684 1 1 0 0 1-.696.278zm8.3-7.126a.99.99 0 0 1-.586-1.79 63 63 0 0 1 3.33-2.305.996.996 0 0 1 1.37.298.987.987 0 0 1-.297 1.372 63 63 0 0 0-3.22 2.226c-.18.13-.388.199-.587.199zm9.383-5.596c-.378 0-.746-.219-.915-.597a.99.99 0 0 1 .507-1.312 30 30 0 0 1 3.857-1.411.99.99 0 0 1 1.232.676.996.996 0 0 1-.675 1.232 30 30 0 0 0-3.609 1.322.95.95 0 0 1-.397.08zm44.002 12.316a.99.99 0 0 1-.994-.954 1 1 0 0 1 .954-1.034c.984-.04 2.058-.428 3.191-1.163a.987.987 0 0 1 1.372.298.986.986 0 0 1-.299 1.372c-1.441.934-2.852 1.431-4.204 1.48h-.04zm-5.536-3.628a1.01 1.01 0 0 1-.845-.467c-.656-1.054-1.262-2.326-1.789-3.767a.99.99 0 0 1 .596-1.273.99.99 0 0 1 1.273.597c.477 1.322 1.023 2.465 1.61 3.4a.997.997 0 0 1-.318 1.37c-.159.1-.348.15-.527.15zm14.213-2.505a.993.993 0 0 1-.755-1.64 49 49 0 0 1 2.763-2.982.99.99 0 1 1 1.392 1.412 45 45 0 0 0-2.644 2.852 1 1 0 0 1-.756.348zm31.23-1.51a.98.98 0 0 1-.795-.398 22 22 0 0 0-2.514-2.843.99.99 0 0 1-.04-1.401.99.99 0 0 1 1.401-.04 24 24 0 0 1 2.754 3.101.997.997 0 0 1-.199 1.392 1.02 1.02 0 0 1-.597.198zm-50.979-5.219c-.199 0-.408-.06-.587-.189-.924-.676-2.018-1.203-3.26-1.55a1 1 0 0 1-.686-1.233 1 1 0 0 1 1.233-.686c1.461.418 2.763 1.044 3.876 1.859a.994.994 0 0 1-.586 1.8zm27.969-.378a.98.98 0 0 1-.874-.526.986.986 0 0 1 .407-1.342 17 17 0 0 1 3.916-1.521.99.99 0 0 1 .487 1.918 15 15 0 0 0-3.468 1.352 1 1 0 0 1-.468.12m14.492-.994c-.109 0-.208-.02-.318-.05a12 12 0 0 0-1.57-.407 31 31 0 0 0-2.117-.338.995.995 0 1 1 .228-1.978c.726.09 1.491.209 2.266.358q.925.18 1.819.477a1 1 0 0 1 .627 1.263.99.99 0 0 1-.945.675zm-56.844-.129a1 1 0 0 1-.954-.715.99.99 0 0 1 .676-1.233c.069-.02 1.739-.507 4.095-.736a1.004 1.004 0 0 1 1.083.895.993.993 0 0 1-.894 1.084c-2.157.208-3.718.655-3.728.665a.9.9 0 0 1-.278.04"/><path fill="#fff" d="M55.238 72.499 41.373 70.6c-.607-.08-1.143.1-1.432.497-.596.825.03 2.207 1.273 2.784l10.337 4.87"/><path fill="#13706D" d="M51.55 79.755a.9.9 0 0 1-.417-.1l-10.337-4.87c-.984-.467-1.75-1.342-1.988-2.306-.189-.726-.07-1.421.338-1.968.507-.696 1.392-1.024 2.366-.895l13.865 1.899c.547.08.925.576.855 1.123a.99.99 0 0 1-1.123.845l-13.866-1.899c-.258-.04-.437.03-.497.1-.06.08-.03.238-.01.308.08.318.398.755.915.994l10.337 4.87a1 1 0 0 1 .477 1.322.99.99 0 0 1-.905.567z"/><path fill="#fff" d="m47.694 84.049-3.916.715a1.57 1.57 0 0 0-1.282 1.72c.08.765.695 1.362 1.46 1.411l4.295.298"/><path fill="#13706D" d="M48.24 89.187h-.069l-4.294-.298a2.57 2.57 0 0 1-2.385-2.306 2.585 2.585 0 0 1 2.097-2.793l3.916-.715a.987.987 0 0 1 1.153.795.99.99 0 0 1-.795 1.153l-3.916.715a.586.586 0 0 0 .07 1.163l4.293.299a1 1 0 0 1 .925 1.063.997.997 0 0 1-.994.924"/><path fill="#fff" d="m52.366 87.458.506 3.946a1.59 1.59 0 0 1-1.242 1.75 1.57 1.57 0 0 1-1.79-.965l-1.59-3.996"/><path fill="#13706D" d="M51.292 94.187a2.56 2.56 0 0 1-2.386-1.62l-1.59-3.996a1.005 1.005 0 0 1 .557-1.292 1.005 1.005 0 0 1 1.292.557l1.59 3.995a.58.58 0 0 0 .666.358.58.58 0 0 0 .457-.646l-.497-3.946a.996.996 0 1 1 1.978-.248l.497 3.945a2.585 2.585 0 0 1-2.027 2.843c-.18.04-.358.05-.527.05z"/><path fill="#fff" d="M48.24 88.193a2.14 2.14 0 0 1-.586-2.802l7.385-12.674a12.53 12.53 0 0 1 6.172-5.327c1.462-.587 3.022.557 2.913 2.127a12.5 12.5 0 0 1-3.21 7.504l-9.83 10.874a2.13 2.13 0 0 1-2.844.288z"/><path fill="#13706D" d="M49.503 89.605a3.1 3.1 0 0 1-1.849-.606 3.116 3.116 0 0 1-.855-4.105l7.375-12.663a13.57 13.57 0 0 1 6.67-5.755 3.12 3.12 0 0 1 3.002.377 3.09 3.09 0 0 1 1.272 2.744 13.66 13.66 0 0 1-3.46 8.1l-9.83 10.874a3.1 3.1 0 0 1-2.325 1.034m12.504-21.37c-.14 0-.289.03-.428.08a11.58 11.58 0 0 0-5.685 4.91l-7.375 12.662a1.133 1.133 0 0 0 .308 1.491 1.135 1.135 0 0 0 1.52-.159l9.83-10.873a11.6 11.6 0 0 0 2.953-6.909c.03-.397-.14-.755-.457-.993a1.1 1.1 0 0 0-.656-.22z"/><path fill="#fff" d="m61.729 77.25 6.023 12.633c.268.557.248 1.113-.04 1.511-.596.825-2.107.636-3.041-.368l-7.773-8.379"/><path fill="#13706D" d="M66.57 92.905c-.935 0-1.929-.448-2.635-1.203l-7.772-8.379a.99.99 0 1 1 1.45-1.352l7.773 8.38c.388.417.875.586 1.223.566.07 0 .229-.02.288-.11.05-.07.06-.258-.06-.496l-6.013-12.634a.984.984 0 0 1 .468-1.322.984.984 0 0 1 1.321.468l6.024 12.633c.427.884.377 1.829-.13 2.524-.397.547-1.033.875-1.779.925h-.169z"/><path fill="#fff" d="M59.671 71.455h.01c.418.13.766.388 1.014.746"/><path fill="#13706D" d="M60.695 73.195a.98.98 0 0 1-.825-.438.86.86 0 0 0-.467-.348.992.992 0 0 1 .547-1.908h.01a2.87 2.87 0 0 1 1.56 1.143.993.993 0 0 1-.825 1.55M44.94 78.572a1 1 0 0 1-.586-.189 1 1 0 0 1-.218-1.391l1.053-1.442a1.01 1.01 0 0 1 1.392-.218 1 1 0 0 1 .218 1.391l-1.053 1.441a1 1 0 0 1-.805.408M59.73 89.386c-.198 0-.407-.06-.586-.189a1 1 0 0 1-.218-1.391l1.053-1.441a1 1 0 0 1 1.392-.22 1 1 0 0 1 .218 1.392l-1.053 1.442a1 1 0 0 1-.805.407"/><path fill="#AFE0DD" d="M93.148 90.191v18.677l4.94-6.143h8.567z"/><path fill="#AFE0DD" d="M93.148 110.359c-.17 0-.328-.03-.497-.09a1.49 1.49 0 0 1-.994-1.401V90.191c0-.596.348-1.133.894-1.371a1.48 1.48 0 0 1 1.61.278l13.508 12.534c.448.417.597 1.063.378 1.64a1.5 1.5 0 0 1-1.391.944h-7.853l-4.492 5.586a1.49 1.49 0 0 1-1.163.557m1.49-16.749v11.023l2.287-2.842a1.5 1.5 0 0 1 1.163-.557h4.771z"/><path fill="#fff" d="M96.16 83.84v18.676l4.939-6.142h8.568z"/><path fill="#13706D" d="M96.159 103.51a1 1 0 0 1-.328-.059 1 1 0 0 1-.666-.935V83.84c0-.398.239-.755.596-.915a.99.99 0 0 1 1.074.18l13.508 12.533a1 1 0 0 1 .248 1.093.99.99 0 0 1-.924.627h-8.091l-4.642 5.765a.99.99 0 0 1-.775.367zm.994-17.394v13.578l3.171-3.937a.99.99 0 0 1 .775-.367h6.033l-9.98-9.264z"/><path fill="#AFE0DD" d="M38.272 143.577a5.894 5.894 0 1 0-.001-11.789 5.894 5.894 0 0 0 0 11.789"/><path fill="#13706D" d="M38.271 144.571c-3.797 0-6.888-3.092-6.888-6.889 0-3.796 3.092-6.888 6.888-6.888 3.797 0 6.889 3.092 6.889 6.888 0 3.797-3.092 6.889-6.889 6.889m0-11.779a4.904 4.904 0 0 0-4.9 4.9 4.904 4.904 0 0 0 4.9 4.901c2.704 0 4.9-2.197 4.9-4.901s-2.196-4.9-4.9-4.9"/></svg>