<svg xmlns="http://www.w3.org/2000/svg" width="219" height="180" fill="none"><path fill="#E0F4F3" d="M107.321 12.487h4.692c57.401 0 104.007 46.606 104.007 104.007v24.59c0 14.612-11.858 26.469-26.469 26.469H29.783c-14.611 0-26.469-11.857-26.469-26.469v-24.59c0-57.4 46.607-104.007 104.007-104.007"/><path fill="#fff" d="M139.804 76.815a9.045 9.045 0 1 0 0-18.09 9.045 9.045 0 0 0 0 18.09m28.805 69.418a3.36 3.36 0 1 0 0-6.719 3.36 3.36 0 0 0 0 6.719"/><path fill="#E0F4F3" d="M67.474 120.957s1.49 6.898 4.75 9.562c3.261 2.663 12.843 8.617 6.998 13.955 0 0-10.227-.597-15.903-4.254-5.675-3.658-19.462-19.263-19.462-19.263l-5.665-4.801 9.194-3.489 20.098 8.29z"/><path fill="#13706D" d="M79.222 145.478h-.06c-.427-.03-10.555-.656-16.39-4.413-5.616-3.618-18.587-18.22-19.62-19.383l-5.606-4.761a.99.99 0 0 1-.338-.924c.06-.348.298-.636.626-.765l9.194-3.489a1 1 0 0 1 .736.01l20.097 8.289c.298.13.527.388.597.706.01.07 1.45 6.59 4.403 8.995.377.309.855.666 1.381 1.074 3.052 2.316 7.654 5.815 7.833 9.761.08 1.689-.656 3.24-2.167 4.631a1 1 0 0 1-.666.259zM40.12 116.494l4.383 3.717s.07.06.1.1c.139.159 13.766 15.545 19.262 19.084 4.752 3.061 13.031 3.906 15 4.065.864-.895 1.272-1.809 1.222-2.783-.14-3.022-4.463-6.312-7.047-8.27-.547-.417-1.034-.785-1.431-1.113-2.992-2.435-4.543-7.892-4.97-9.612l-19.263-7.951-7.256 2.753z"/><path fill="#E0F4F3" d="M26.264 102.529c3.847-9.492 12.782-12.077 12.782-12.077s1.233 6.282 7.465 9.741 15.754 1.064 15.754 1.064 5.05 12.712 6.242 18.477l-6.133 7.316s-3.011-4.622-8.428-8.31c-5.417-3.687-10.695-2.196-10.695-2.196"/><path fill="#13706D" d="M62.365 128.044h-.06a1.02 1.02 0 0 1-.775-.448c-.03-.039-2.982-4.502-8.16-8.031-4.97-3.389-9.82-2.077-9.87-2.067a.991.991 0 1 1-.537-1.908c.228-.07 5.794-1.571 11.53 2.335 3.985 2.714 6.689 5.894 7.931 7.515l5-5.964c-1.133-4.95-4.711-14.293-5.785-17.056-2.554.507-10.158 1.669-15.615-1.352-5.02-2.773-6.987-7.236-7.653-9.304-2.316.955-8.3 4.016-11.182 11.143a.991.991 0 1 1-1.839-.746c3.986-9.83 13.04-12.543 13.428-12.653a.97.97 0 0 1 .795.11 1 1 0 0 1 .458.656c.01.06 1.242 5.884 6.967 9.054 5.815 3.221 14.94.994 15.029.974a.995.995 0 0 1 1.163.597c.209.527 5.099 12.862 6.291 18.646.06.299-.02.607-.208.845l-6.133 7.316a.99.99 0 0 1-.765.358z"/><path fill="#C4EAE7" d="m25.33 103.185-4.095 4.89a.71.71 0 0 0 .09.994L34.821 120.4a.707.707 0 0 0 .994-.089l1.372-1.64a.71.71 0 0 1 .994-.09c2.087 1.74 9.651 8.2 12.921 13.359 3.608 5.676 18.856 15.734 25.585 15.983a2.1 2.1 0 0 0 1.68-.746l1.302-1.55a.697.697 0 0 0-.458-1.143c-3.28-.358-12.196-2.316-22.781-12.683a24 24 0 0 1-3.072-3.668c-1.868-2.733-6.212-8.518-12.603-13.726-7.017-5.716-12.176-10.149-13.925-11.669a.855.855 0 0 0-1.213.099l-.298.348z"/><path fill="#13706D" d="M76.777 148.917h-.12c-7.046-.259-22.661-10.566-26.389-16.44-3.081-4.851-10.088-10.924-12.504-12.941l-1.192 1.411a1.7 1.7 0 0 1-2.396.209l-13.498-11.331a1.71 1.71 0 0 1-.209-2.396l4.105-4.89.299-.348a1.84 1.84 0 0 1 1.262-.656 1.82 1.82 0 0 1 1.352.447c1.869 1.62 6.967 5.994 13.905 11.649 6.401 5.219 10.765 10.974 12.792 13.936a24.5 24.5 0 0 0 2.943 3.518c10.337 10.129 18.964 12.057 22.195 12.405a1.68 1.68 0 0 1 1.381 1.053 1.69 1.69 0 0 1-.278 1.72l-1.302 1.551a3.08 3.08 0 0 1-2.366 1.103zm-39.043-31.489c.388 0 .776.13 1.084.398 2.236 1.859 9.79 8.329 13.13 13.587 3.44 5.417 18.339 15.287 24.79 15.526.347 0 .665-.129.884-.398l.954-1.133c-3.787-.527-12.563-2.852-22.821-12.891a25.7 25.7 0 0 1-3.19-3.817c-1.969-2.883-6.203-8.459-12.415-13.518-6.829-5.556-11.878-9.9-13.846-11.589l-4.115 4.91 13.06 10.953 1.193-1.411a1.7 1.7 0 0 1 1.302-.607zm21.212-9.373a.986.986 0 0 1-.965-.755.99.99 0 0 1 .726-1.203l4.79-1.193a.99.99 0 0 1 1.204.726.99.99 0 0 1-.726 1.203l-4.791 1.192a1 1 0 0 1-.238.03m1.978 5.06a.99.99 0 0 1-.965-.756.99.99 0 0 1 .726-1.202l4.79-1.193a.99.99 0 0 1 1.204.725.99.99 0 0 1-.726 1.203l-4.79 1.193q-.12.03-.24.03m1.76 5.228a.986.986 0 0 1-.964-.756.99.99 0 0 1 .725-1.202l4.791-1.193a.99.99 0 0 1 1.203.726.99.99 0 0 1-.726 1.202l-4.79 1.193q-.12.03-.24.03"/><path fill="#AFE0DD" d="M174.135 83.256s-8.588 3.17-10.953 8.677-9.691 6.849-9.691 6.849l-.994 6.57 23.735-11.182z"/><path fill="#13706D" d="M152.487 106.346c-.209 0-.418-.07-.597-.199a.98.98 0 0 1-.387-.944l.994-6.57a.98.98 0 0 1 .805-.825c.069-.01 6.838-1.323 8.955-6.262 2.505-5.845 11.152-9.085 11.52-9.224.269-.1.577-.08.835.07a.97.97 0 0 1 .487.675l2.097 10.914a.975.975 0 0 1-.556 1.083l-23.736 11.182c-.139.06-.278.1-.427.1zm1.878-6.74-.616 4.056 21.35-10.059-1.719-8.955c-2.306 1.033-7.604 3.757-9.294 7.683-2.127 4.95-7.733 6.779-9.731 7.275z"/><path fill="#E0F4F3" d="M188.607 99.726s1.849 2.445 3.051 4.522c.607 1.054.348 2.346-.576 2.833-3.787 1.998-13.488 7.087-16.261 8.19l-2.356-.884s-3.598.954-8.866 4.294c-4.204 2.664-9.532 7.534-14.472 9.611-11.838 4.97-21.459 7.117-26.906 4.294 0 0-6.729-8.568 7.166-15.426 0 0 10.536-10.138 15.138-18.398 0 0 2.793-3.39 6.61-.994s6.928 3.757 15.565-.686c5.298-2.723 3.529-9.264 7.425-13.816 0 0 8.478 4.682 14.482 16.48z"/><path fill="#13706D" d="M128.274 134.822c-2.594 0-4.761-.457-6.511-1.361a1.1 1.1 0 0 1-.328-.269c-.109-.139-2.574-3.349-1.62-7.554.815-3.598 3.847-6.729 8.996-9.303 1.123-1.093 10.615-10.476 14.849-18.06.03-.05.06-.1.1-.15 1.163-1.41 4.294-3.468 7.902-1.202 3.18 1.998 5.933 3.727 14.581-.736 2.604-1.341 3.26-3.787 4.006-6.62.596-2.256 1.282-4.81 3.111-6.957a1.004 1.004 0 0 1 1.232-.229c.358.2 8.777 4.94 14.85 16.818.318.427 1.938 2.614 3.061 4.552.457.786.587 1.72.348 2.555a2.68 2.68 0 0 1-1.312 1.65c-3.986 2.107-13.567 7.127-16.36 8.24a1 1 0 0 1-.716 0l-2.038-.766c-.944.299-4.075 1.412-8.299 4.076-1.451.914-3.052 2.117-4.741 3.379-3.082 2.306-6.57 4.92-9.88 6.312-8.946 3.757-15.973 5.625-21.231 5.625m-5.387-3.021c4.731 2.276 13.418.785 25.852-4.433 3.082-1.292 6.322-3.718 9.463-6.063 1.719-1.292 3.349-2.505 4.87-3.469 5.338-3.38 8.995-4.374 9.145-4.413.198-.05.407-.04.606.029l1.988.746c3.101-1.312 12.017-5.994 15.814-8.001.198-.11.288-.299.338-.448.089-.308.029-.686-.159-1.004-1.163-1.997-2.972-4.393-2.982-4.423a.6.6 0 0 1-.09-.149c-4.781-9.393-11.222-14.203-13.359-15.605-1.162 1.67-1.679 3.618-2.186 5.507-.795 3.011-1.63 6.122-5.02 7.872-8.965 4.622-12.514 3.18-16.549.646-2.803-1.76-4.851.268-5.258.725-4.652 8.27-14.84 18.13-15.267 18.548-.07.069-.159.129-.249.178-4.661 2.297-7.375 4.99-8.071 8.002-.646 2.803.706 5.129 1.124 5.755z"/><path fill="#fff" d="M136.593 116.215c1.551 1.044 3.698 1.69 6.461.676 6.331-2.316 15.794-7.663 18.438-3.737"/><path fill="#13706D" d="M140.371 118.382c-1.531 0-3.002-.457-4.324-1.352a.993.993 0 0 1-.269-1.381.993.993 0 0 1 1.382-.268c1.66 1.123 3.529 1.312 5.566.566 1.312-.477 2.753-1.093 4.284-1.739 6.282-2.654 12.772-5.398 15.317-1.62a.993.993 0 0 1-.268 1.381.994.994 0 0 1-1.382-.268c-1.63-2.426-7.882.218-12.902 2.336-1.55.656-3.021 1.272-4.373 1.769q-1.553.566-3.031.566z"/><path fill="#fff" d="M122.221 132.576s-6.729-8.568 7.166-15.426l.119-.119c1.73 1.888 3.966 5.099 6.57 10.526a25.7 25.7 0 0 1 1.76 4.731c-6.64 1.839-12.037 2.127-15.615.278z"/><path fill="#13706D" d="M128.284 134.832c-2.585 0-4.742-.457-6.511-1.371a1.1 1.1 0 0 1-.328-.269c-.109-.139-2.574-3.349-1.62-7.554.815-3.598 3.847-6.729 8.995-9.303.189-.189.458-.288.726-.288s.527.119.706.328c2.186 2.385 4.443 6.013 6.729 10.764.795 1.67 1.411 3.32 1.829 4.92a.99.99 0 0 1-.696 1.203c-3.797 1.044-7.057 1.57-9.83 1.57m-5.388-3.031c3.002 1.441 7.614 1.371 13.717-.199a29 29 0 0 0-1.421-3.608c-2.008-4.195-3.986-7.445-5.875-9.691-4.333 2.236-6.878 4.84-7.544 7.743-.646 2.803.706 5.129 1.123 5.755"/><path fill="#fff" d="M176.729 85.045c2.982 2.306 7.961 6.978 11.878 14.69 0 0 1.848 2.446 3.051 4.523.606 1.054.348 2.346-.576 2.833a617 617 0 0 1-7.246 3.777c-1.66-.934-3.35-2.584-4.95-5.268-7.197-12.096-2.167-20.545-2.167-20.545z"/><path fill="#13706D" d="M183.846 111.852a.95.95 0 0 1-.487-.129c-1.968-1.113-3.758-3.002-5.318-5.626-7.365-12.385-2.386-21.191-2.167-21.559.149-.248.388-.417.666-.477.278-.05.577.02.795.189 2.773 2.147 8.031 6.948 12.117 14.949.318.427 1.938 2.614 3.061 4.552.457.796.586 1.72.348 2.555a2.68 2.68 0 0 1-1.312 1.65 951 951 0 0 1-7.246 3.787 1.04 1.04 0 0 1-.457.109m-6.759-25.246c-1.014 2.534-2.753 9.363 2.664 18.477 1.252 2.117 2.643 3.668 4.134 4.642 2.654-1.372 5.189-2.704 6.739-3.519.199-.109.289-.298.338-.447.09-.308.03-.686-.159-1.004-1.163-1.998-2.972-4.393-2.982-4.423a.6.6 0 0 1-.089-.149c-3.479-6.838-7.842-11.232-10.635-13.577z"/><path fill="#fff" d="M188.607 99.726s1.849 2.445 3.051 4.522c.607 1.054.348 2.346-.576 2.833-3.787 1.998-13.488 7.087-16.261 8.19 0 0-4.95 2.038-10.218 5.377-4.205 2.664-10.546 5.557-15.476 7.634-11.838 4.97-21.46 7.117-26.906 4.294 0 0-1.68-2.137-1.631-5.129l.468.07s9.432 3.121 22.105-2.664c12.126-5.547 15.814-10.417 26.042-14.741 8.637-3.657 13.438-5.735 19.402-10.376z"/><path fill="#13706D" d="M128.274 134.822c-2.594 0-4.761-.457-6.511-1.361a1.1 1.1 0 0 1-.328-.269c-.079-.099-1.898-2.455-1.838-5.765 0-.288.129-.556.348-.735a1 1 0 0 1 .785-.229l.467.07c.06 0 .109.02.169.039.089.03 9.254 2.913 21.38-2.624 6.023-2.753 9.9-5.307 13.647-7.782 3.727-2.455 7.246-4.781 12.424-6.968 8.906-3.767 13.439-5.775 19.174-10.248a.95.95 0 0 1 .745-.198c.269.04.507.169.666.387.08.1 1.899 2.515 3.121 4.622.457.795.587 1.72.348 2.555a2.68 2.68 0 0 1-1.312 1.65c-3.986 2.107-13.568 7.126-16.361 8.239-.039.01-4.92 2.048-10.048 5.298-4.672 2.962-11.799 6.103-15.625 7.713-8.946 3.757-15.973 5.626-21.231 5.626zm-5.387-3.021c4.731 2.276 13.418.785 25.852-4.433 3.767-1.581 10.785-4.672 15.327-7.554 5.278-3.35 10.158-5.378 10.367-5.457 2.724-1.074 12.226-6.053 16.182-8.151.198-.109.288-.298.338-.447.089-.308.029-.686-.159-1.004-.746-1.282-1.76-2.733-2.396-3.608-5.556 4.195-10.158 6.222-18.805 9.89-5.01 2.117-8.449 4.393-12.097 6.799-3.817 2.514-7.753 5.118-13.915 7.931-10.735 4.91-19.154 3.608-21.897 2.962a8.1 8.1 0 0 0 1.213 3.091z"/><path fill="#fff" d="M148.759 102.21c.724-.369 1.027-1.227.676-1.917s-1.222-.95-1.947-.582c-.724.369-1.026 1.226-.675 1.916s1.222.951 1.946.583"/><path fill="#13706D" d="M148.073 103.364c-.238 0-.477-.04-.715-.11a2.35 2.35 0 0 1-1.432-1.192c-.596-1.183-.099-2.644 1.104-3.26a2.44 2.44 0 0 1 1.848-.17 2.35 2.35 0 0 1 1.432 1.193 2.37 2.37 0 0 1 .119 1.859 2.5 2.5 0 0 1-1.223 1.401 2.54 2.54 0 0 1-1.133.279m.1-2.843q-.12 0-.239.06c-.229.119-.338.377-.238.586a.36.36 0 0 0 .238.189c.119.04.259.02.378-.04a.5.5 0 0 0 .248-.278.35.35 0 0 0-.02-.298.35.35 0 0 0-.238-.189.6.6 0 0 0-.139-.02z"/><path fill="#fff" d="M144.717 107.423c.724-.368 1.026-1.226.676-1.916-.351-.69-1.223-.951-1.947-.582-.724.368-1.027 1.226-.676 1.916s1.223.95 1.947.582"/><path fill="#13706D" d="M144.018 108.572c-.497 0-.994-.149-1.421-.457a2.35 2.35 0 0 1-.955-1.571 2.4 2.4 0 0 1 .497-1.828c.815-1.054 2.346-1.283 3.41-.517.526.377.854.934.954 1.57a2.4 2.4 0 0 1-.497 1.829 2.5 2.5 0 0 1-1.988.964zm.109-2.833a.51.51 0 0 0-.417.209.4.4 0 0 0-.09.328c0 .07.04.169.149.239.199.149.507.089.676-.12a.4.4 0 0 0 .09-.328.3.3 0 0 0-.149-.238.42.42 0 0 0-.259-.08z"/><path fill="#fff" d="M140.435 112.524c.725-.369 1.027-1.226.676-1.916s-1.222-.951-1.946-.583c-.724.369-1.027 1.227-.676 1.917.351.689 1.222.95 1.946.582"/><path fill="#13706D" d="M139.754 113.671c-.497 0-.994-.149-1.422-.457a2.35 2.35 0 0 1-.954-1.571 2.4 2.4 0 0 1 .497-1.829c.815-1.053 2.346-1.282 3.409-.516.527.377.865.934.955 1.57a2.4 2.4 0 0 1-.497 1.829 2.5 2.5 0 0 1-1.988.964zm-.308-2.634a.4.4 0 0 0-.09.328c0 .07.04.169.149.239.199.149.507.089.676-.12a.46.46 0 0 0 .1-.328c0-.069-.04-.169-.15-.238-.198-.149-.506-.09-.675.119z"/><path fill="#fff" d="M167.923 103.374s-5.576 3.319-10.377 3.399c-4.801.079-6.341 2.047-6.341 2.047"/><path fill="#13706D" d="M151.204 109.804c-.218 0-.437-.069-.626-.218a.98.98 0 0 1-.159-1.372c.189-.238 1.978-2.336 7.107-2.425 4.473-.08 9.83-3.23 9.89-3.26a.99.99 0 0 1 1.362.348.99.99 0 0 1-.348 1.361c-.239.139-5.855 3.449-10.864 3.539-4.175.069-5.576 1.66-5.586 1.68a1.03 1.03 0 0 1-.766.357z"/><path fill="#fff" d="M76.39 57.97c-.547 3.16-1.502 13.498 7.007 21.718 0 0 12.742-6.202 23.725-8.31 10.983-2.107 37.313-13.795 39.341-21.071 0 0-.924-6.362-11.102-4.125s-30.127-4.175-37.343-2.157c0 0-4.066.825-2.694 6.182s-5.407 9.185-8.439 9.85c-6.808 1.501-6.63-3.09-8.766-3.409-.835-.13-1.6.487-1.75 1.322z"/><path fill="#13706D" d="M83.397 80.682c-.249 0-.497-.1-.686-.279-8.896-8.587-7.832-19.471-7.296-22.602.239-1.382 1.531-2.326 2.873-2.137 1.083.159 1.7.934 2.296 1.68 1.034 1.292 2.117 2.624 6.103 1.75 1.898-.418 5.447-2.247 7.037-4.831.765-1.243.984-2.525.656-3.807-.547-2.127-.388-3.897.477-5.268 1.084-1.74 2.903-2.117 2.982-2.137 3.568-.994 10.029-.03 16.877.994 7.177 1.073 15.307 2.296 20.456 1.163 4.135-.905 7.375-.577 9.621.974 2.296 1.59 2.654 3.876 2.674 3.975a.9.9 0 0 1-.03.408c-2.316 8.29-29.977 19.84-40.116 21.778-10.724 2.057-23.348 8.17-23.477 8.23a1 1 0 0 1-.437.099zm-5.477-23.05c-.258 0-.497.219-.546.507-.487 2.833-1.442 12.524 6.232 20.356 2.743-1.292 13.617-6.222 23.338-8.09 11.639-2.227 36.239-13.787 38.505-20.138-.119-.447-.546-1.6-1.828-2.465-1.76-1.193-4.533-1.412-8.032-.646-5.506 1.212-13.468.02-21.171-1.143-6.63-.994-12.881-1.929-16.112-1.034-.11.03-1.153.268-1.779 1.282-.547.885-.616 2.127-.219 3.688.467 1.829.17 3.628-.884 5.347-2.018 3.28-6.163 5.258-8.3 5.725-5.188 1.143-6.928-1.013-8.08-2.435-.458-.566-.746-.914-1.044-.954z"/><path fill="#AFE0DD" d="M95.483 52.195c-.467 4.294-5.944 7.276-8.588 7.852-6.808 1.501-6.63-3.09-8.766-3.409-.835-.13-1.6.487-1.74 1.322-.328 1.889-.795 6.331.686 11.351l.16-.07s11.072-3.36 17.254 5.795c3.916-1.441 8.409-2.853 12.633-3.668 4.056-.775 10.218-2.862 16.46-5.556l.845-4.125s-5.228-6.67-14.482-4.83c-8.607 1.71-11.132-1.104-14.472-4.662z"/><path fill="#13706D" d="M94.49 76.03c-.319 0-.637-.159-.826-.437-5.516-8.15-15.337-5.626-16.102-5.417l-.11.05a1 1 0 0 1-.814-.01 1 1 0 0 1-.527-.617c-1.501-5.099-1.084-9.582-.706-11.798.239-1.382 1.53-2.326 2.873-2.137 1.083.159 1.7.934 2.306 1.68 1.033 1.292 2.117 2.624 6.103 1.75 2.594-.577 7.424-3.4 7.812-6.998a.99.99 0 0 1 .676-.835 1 1 0 0 1 1.044.258l.099.11c3.18 3.399 5.477 5.854 13.448 4.264 9.751-1.939 15.228 4.9 15.456 5.188a1 1 0 0 1 .189.815l-.845 4.135a1 1 0 0 1-.576.716c-6.362 2.733-12.584 4.83-16.669 5.615-3.618.696-7.812 1.909-12.484 3.618-.11.04-.229.06-.338.06zm-12.564-8.36c3.856 0 9.154 1.094 12.94 6.173 4.484-1.61 8.539-2.773 12.077-3.449 3.847-.735 9.721-2.703 15.784-5.288l.646-3.14c-1.172-1.283-5.764-5.606-13.219-4.135-8.031 1.6-11.212-.646-14.164-3.668-1.57 3.777-6.282 6.282-8.876 6.848-5.189 1.143-6.928-1.013-8.08-2.435-.458-.566-.746-.914-1.044-.954-.299-.05-.567.189-.617.507-.268 1.54-.715 5.457.398 9.96a21 21 0 0 1 4.154-.418"/><path fill="#C4EAE7" d="M135.371 46.172c-.448.1-.915.179-1.402.248 0 0-.596 5.199-6.908 7.892-6.311 2.694-17.503 16.5-17.503 16.5 12.007-3.111 35.007-13.726 36.905-20.515 0 0-.924-6.362-11.102-4.125z"/><path fill="#13706D" d="M109.567 71.806c-.328 0-.646-.169-.835-.457a1 1 0 0 1 .06-1.163c.467-.577 11.421-14.025 17.881-16.788 5.706-2.445 6.302-7.047 6.312-7.097.05-.447.407-.805.855-.875.457-.06.904-.139 1.322-.228 4.135-.915 7.375-.577 9.621.974 2.296 1.59 2.654 3.876 2.674 3.976a.9.9 0 0 1-.03.407c-2.107 7.544-25.882 18.17-37.611 21.211-.08.02-.169.03-.249.03zm25.237-24.511c-.428 1.67-1.988 5.646-7.345 7.932-4.414 1.888-11.51 9.661-15.019 13.726 12.524-3.926 31.041-13.16 33.009-18.696-.119-.447-.547-1.6-1.829-2.465-1.759-1.193-4.532-1.411-8.031-.646-.248.06-.517.11-.775.149z"/><path fill="#E0F4F3" d="M107.122 71.368c-2.624.507-7.395.16-10.029.984-8.369 2.644-14.71 6.292-14.71 6.292-1.362 2.684.725 4.682 1.52 6.053.716 1.223 2.257 1.69 3.549 1.104 5.437-2.485 19.372-9.612 26.032-11.063 3.548-.775 9.532-2.704 14.929-5.487s10.218-6.41 13.637-9.472c6.828-6.123 4.403-9.492 4.403-9.492-2.028 7.275-28.357 18.964-39.341 21.072z"/><path fill="#13706D" d="M86.289 87.063a3.74 3.74 0 0 1-3.23-1.849c-.13-.228-.299-.467-.478-.725-.914-1.322-2.455-3.549-1.073-6.282.09-.17.229-.318.388-.418.258-.149 6.53-3.727 14.899-6.37 1.64-.518 3.906-.607 6.103-.697 1.54-.06 2.992-.119 4.035-.318 11.779-2.256 36.816-14.054 38.576-20.366a.998.998 0 0 1 1.769-.318c.119.17 2.862 4.175-4.552 10.814-2.436 2.187-7.475 6.332-13.846 9.612-5.626 2.902-11.689 4.81-15.178 5.576-5.188 1.133-15.058 5.854-21.579 8.975-1.68.805-3.14 1.501-4.254 2.018a3.8 3.8 0 0 1-1.59.348zm-3.131-7.693c-.587 1.431.07 2.564 1.053 3.986.21.308.408.586.557.854.457.786 1.431 1.084 2.276.696 1.103-.507 2.555-1.203 4.225-1.998 6.61-3.17 16.599-7.951 22.016-9.134 3.359-.736 9.233-2.584 14.69-5.397 6.173-3.181 11.063-7.206 13.429-9.324 2.504-2.246 3.657-4.045 4.154-5.387-3.429 3.867-10.456 7.753-14.949 10-8.22 4.094-17.573 7.583-23.288 8.687-1.193.228-2.714.288-4.334.357-2.057.08-4.194.17-5.576.607-7.196 2.276-12.951 5.337-14.243 6.053zm19.591-28.616c-.07 0-.149 0-.219-.03a.987.987 0 0 1-.745-1.193l1.123-4.92a.986.986 0 0 1 1.193-.745.986.986 0 0 1 .745 1.192l-1.123 4.92a1.004 1.004 0 0 1-.964.776zm5.526.546c-.069 0-.149 0-.218-.03a.987.987 0 0 1-.746-1.192l1.123-4.92a.987.987 0 0 1 1.193-.746c.537.12.875.656.746 1.193l-1.124 4.92a1 1 0 0 1-.964.775zm5.586.806c-.069 0-.149 0-.218-.03a.987.987 0 0 1-.746-1.193l1.123-4.92a.987.987 0 0 1 1.193-.745.986.986 0 0 1 .746 1.192l-1.124 4.92a1 1 0 0 1-.964.776z"/><path fill="#fff" d="M95.98 68.546a3.777 3.777 0 1 0 0-7.554 3.777 3.777 0 0 0 0 7.554"/><path fill="#13706D" d="M95.98 69.54a4.7 4.7 0 0 1-2.147-.517 4.76 4.76 0 0 1-2.375-2.763 4.72 4.72 0 0 1 .278-3.638 4.75 4.75 0 0 1 2.773-2.376 4.72 4.72 0 0 1 3.638.279 4.75 4.75 0 0 1 2.375 2.773 4.72 4.72 0 0 1-.278 3.638 4.76 4.76 0 0 1-4.254 2.614zm0-7.545c-.288 0-.586.05-.865.14a2.74 2.74 0 0 0-1.61 1.381 2.77 2.77 0 0 0 1.223 3.728 2.786 2.786 0 0 0 3.737-1.223 2.75 2.75 0 0 0 .159-2.117 2.74 2.74 0 0 0-1.382-1.61 2.8 2.8 0 0 0-1.252-.298z"/><path fill="#fff" d="M113.156 103.274a8.15 8.15 0 0 0 .656-5.168c-.686-3.47-3.648-6.153-7.157-6.52a8.185 8.185 0 0 0-9.035 8.14c0 .318.02.636.06.944a12.95 12.95 0 0 0-5.994-.894c-6.48.566-11.649 6.073-11.828 12.573-.188 7.326 5.686 13.319 12.971 13.319 2.336 0 4.523-.616 6.412-1.7 1.888-1.083 4.085-1.063 6.043-.218s4.075 1.123 6.361.715c4.662-.835 8.31-4.721 8.886-9.422.666-5.417-2.624-10.168-7.365-11.779zM58.28 86.069a5.516 5.516 0 1 0 0-11.033 5.516 5.516 0 0 0 0 11.033"/></svg>