<svg xmlns="http://www.w3.org/2000/svg" width="219" height="179" fill="none"><path fill="#E0F4F3" d="M107.321 11.928h4.691c57.401 0 104.008 46.606 104.008 104.007v24.59c0 14.611-11.858 26.469-26.469 26.469H29.783c-14.612 0-26.47-11.858-26.47-26.469v-24.59c0-57.401 46.607-104.008 104.008-104.008"/><path fill="#AFE0DD" d="M112.996 97.666H92.004a5.129 5.129 0 1 0 0 10.258h20.992a5.13 5.13 0 0 0 0-10.258"/><path fill="#13706D" d="M112.996 108.918H92.004a6.126 6.126 0 0 1-6.123-6.123 6.125 6.125 0 0 1 6.123-6.123h20.992a6.125 6.125 0 0 1 6.123 6.123 6.126 6.126 0 0 1-6.123 6.123M92.004 98.66a4.145 4.145 0 0 0-4.135 4.135 4.145 4.145 0 0 0 4.135 4.135h20.992a4.144 4.144 0 0 0 4.135-4.135 4.144 4.144 0 0 0-4.135-4.135z"/><path fill="#AFE0DD" d="M144.236 78.81H92.004a5.129 5.129 0 1 0 0 10.258h52.232a5.129 5.129 0 1 0 0-10.257"/><path fill="#13706D" d="M144.236 90.062H92.004a6.125 6.125 0 0 1-6.123-6.123 6.125 6.125 0 0 1 6.123-6.122h52.232a6.125 6.125 0 0 1 6.123 6.123 6.125 6.125 0 0 1-6.123 6.122M92.004 79.805a4.144 4.144 0 0 0-4.135 4.134 4.144 4.144 0 0 0 4.135 4.135h52.232a4.144 4.144 0 0 0 4.135-4.135 4.144 4.144 0 0 0-4.135-4.134z"/><path fill="#AFE0DD" d="M104.538 117.525H92.004a5.129 5.129 0 1 0 0 10.258h12.534a5.13 5.13 0 0 0 0-10.258"/><path fill="#13706D" d="M104.538 128.767H92.004a6.126 6.126 0 0 1-6.123-6.123 6.126 6.126 0 0 1 6.123-6.123h12.534a6.126 6.126 0 0 1 6.123 6.123 6.126 6.126 0 0 1-6.123 6.123m-12.534-10.248a4.145 4.145 0 0 0-4.135 4.135 4.145 4.145 0 0 0 4.135 4.135h12.534a4.145 4.145 0 0 0 4.135-4.135 4.145 4.145 0 0 0-4.135-4.135zm40.693-1.739h-4.006a4.704 4.704 0 0 1-4.701-4.702 4.704 4.704 0 0 1 4.701-4.701h4.006c1.868 0 2.524 2.425 2.524 4.701s-.666 4.702-2.524 4.702m-.08-7.425-3.926.02a2.716 2.716 0 0 0-2.713 2.713 2.71 2.71 0 0 0 2.713 2.714h3.956c.219-.199.596-1.153.596-2.714s-.407-2.594-.616-2.733z"/><path fill="#AFE0DD" d="M153.53 119.255v-11.878h-7.862v-7.167l-1.998-2.365a4.99 4.99 0 0 0-2.992 4.572v48.982a5 5 0 0 0 1.958 3.956l3.032-1.332v-7.882h7.862v-8.558h-7.862v-18.338h7.862zm40.116 36.08 2.882-1.58v-53.316l-2.196-2.624a4.98 4.98 0 0 0-2.783 4.473v48.982c0 1.68.835 3.171 2.107 4.065zm-22.861-36.08v-11.878h-8.469v-7.554l-2.226-1.869a4.97 4.97 0 0 0-2.763 4.463v48.982a4.99 4.99 0 0 0 3.429 4.731l1.56-1.004v-8.985h8.469v-8.558h-8.469v-18.338h8.469zm15.893 0v-11.878h-7.385v-7.256l-2.475-2.028a4.98 4.98 0 0 0-2.504 4.324v48.982a4.98 4.98 0 0 0 3.001 4.572l1.988-1.391v-8.439h7.385v-8.558h-7.385v-18.338h7.385z"/><path fill="#13706D" d="M157.864 157.383h-.189c-3.3-.1-5.984-2.962-5.984-6.391v-2.257a2.33 2.33 0 0 0-2.326-2.325 2.33 2.33 0 0 0-2.326 2.325v2.475c0 1.68-.666 3.26-1.878 4.433-1.213 1.173-2.783 1.799-4.493 1.74-3.3-.1-5.983-2.962-5.983-6.391v-48.376c0-1.68.666-3.26 1.878-4.433a6.13 6.13 0 0 1 4.493-1.74c3.3.1 5.983 2.962 5.983 6.392v1.709c0 .656.279 1.282.766 1.72a2.32 2.32 0 0 0 1.799.596c1.173-.109 2.087-1.193 2.087-2.455v-1.779c0-1.68.666-3.26 1.879-4.433a6.1 6.1 0 0 1 4.492-1.74c3.3.1 5.984 2.962 5.984 6.391v1.71c0 .656.278 1.282.765 1.72a2.3 2.3 0 0 0 1.799.596c1.173-.109 2.088-1.193 2.088-2.455v-1.779c0-1.68.666-3.25 1.868-4.423a6.17 6.17 0 0 1 4.473-1.75c3.32.09 6.014 2.962 6.014 6.411v1.68c0 .656.278 1.282.765 1.72a2.32 2.32 0 0 0 1.799.596c1.173-.109 2.097-1.193 2.097-2.455v-1.541c0-.546.447-.994.994-.994s.994.448.994.994v1.541c0 2.276-1.709 4.224-3.896 4.433a4.36 4.36 0 0 1-3.32-1.103 4.33 4.33 0 0 1-1.411-3.191v-1.68c0-2.385-1.829-4.363-4.076-4.423a4.15 4.15 0 0 0-3.031 1.183 4.16 4.16 0 0 0-1.263 3.002v1.779c0 2.276-1.709 4.224-3.896 4.433a4.36 4.36 0 0 1-3.32-1.103 4.33 4.33 0 0 1-1.411-3.191v-1.71c0-2.355-1.819-4.333-4.055-4.403a4.23 4.23 0 0 0-3.042 1.183 4.13 4.13 0 0 0-1.272 3.002v1.779c0 2.276-1.71 4.224-3.896 4.433a4.36 4.36 0 0 1-3.32-1.103 4.33 4.33 0 0 1-1.412-3.191v-1.709c0-2.356-1.819-4.334-4.055-4.404a4.23 4.23 0 0 0-3.041 1.183 4.13 4.13 0 0 0-1.273 3.002v48.376c0 2.355 1.819 4.333 4.056 4.403a4.2 4.2 0 0 0 3.041-1.183 4.17 4.17 0 0 0 1.272-3.002v-2.475a4.323 4.323 0 0 1 4.314-4.313 4.32 4.32 0 0 1 4.314 4.313v2.257c0 2.355 1.819 4.333 4.055 4.403a4.1 4.1 0 0 0 3.042-1.183 4.13 4.13 0 0 0 1.272-3.002v-2.475a4.32 4.32 0 0 1 4.314-4.313 4.32 4.32 0 0 1 4.313 4.313v2.237c0 2.385 1.829 4.363 4.076 4.423a4.13 4.13 0 0 0 3.031-1.183 4.16 4.16 0 0 0 1.263-3.002v-2.475a4.32 4.32 0 0 1 4.313-4.313 4.32 4.32 0 0 1 4.314 4.313v2.237c0 2.385 1.829 4.363 4.075 4.423a4.22 4.22 0 0 0 3.032-1.183 4.16 4.16 0 0 0 1.262-3.002v-48.594c0-.577-.109-1.133-.338-1.65a4.18 4.18 0 0 0-3.956-2.535 4.03 4.03 0 0 0-2.683 1.143.99.99 0 0 1-1.402-.03.99.99 0 0 1 .03-1.4 6 6 0 0 1 4.006-1.69c2.594-.05 4.83 1.4 5.834 3.737.328.775.497 1.59.497 2.435v48.594c0 1.68-.666 3.25-1.869 4.423a6.2 6.2 0 0 1-4.472 1.75c-3.32-.08-6.014-2.962-6.014-6.411v-2.237a2.33 2.33 0 0 0-2.326-2.326 2.33 2.33 0 0 0-2.325 2.326v2.475c0 1.68-.666 3.25-1.869 4.423a6.2 6.2 0 0 1-4.473 1.75c-3.32-.09-6.013-2.962-6.013-6.411v-2.237a2.33 2.33 0 0 0-2.326-2.326 2.33 2.33 0 0 0-2.326 2.326v2.475c0 1.68-.666 3.26-1.879 4.433a6.1 6.1 0 0 1-4.303 1.74zm25.495-18.378a4.323 4.323 0 0 1-4.314-4.314v-11.192c0-2.276 1.709-4.224 3.896-4.433a4.33 4.33 0 0 1 3.32 1.103 4.33 4.33 0 0 1 1.411 3.191v11.331a4.323 4.323 0 0 1-4.313 4.314m.009-17.971c-.079 0-.159 0-.228.01-1.173.109-2.097 1.193-2.097 2.455v11.192a2.33 2.33 0 0 0 2.325 2.326 2.33 2.33 0 0 0 2.326-2.326V123.36c0-.656-.278-1.283-.765-1.72a2.3 2.3 0 0 0-1.561-.606m-17.006 17.971a4.323 4.323 0 0 1-4.314-4.314v-11.192c0-2.276 1.71-4.224 3.896-4.433a4.33 4.33 0 0 1 3.32 1.103 4.33 4.33 0 0 1 1.412 3.191v11.331a4.324 4.324 0 0 1-4.314 4.314m0-17.971c-.08 0-.159 0-.229.01-1.173.109-2.087 1.193-2.087 2.455v11.192a2.33 2.33 0 0 0 2.326 2.326 2.33 2.33 0 0 0 2.326-2.326V123.36c0-.656-.279-1.283-.766-1.72a2.3 2.3 0 0 0-1.56-.606zm-16.997 17.971a4.323 4.323 0 0 1-4.313-4.314v-11.192c0-2.276 1.709-4.224 3.896-4.433a4.32 4.32 0 0 1 3.32 1.103 4.33 4.33 0 0 1 1.411 3.191v11.331a4.323 4.323 0 0 1-4.314 4.314m0-17.971c-.079 0-.159 0-.228.01-1.173.109-2.088 1.193-2.088 2.455v11.192a2.33 2.33 0 0 0 2.326 2.326 2.33 2.33 0 0 0 2.326-2.326V123.36c0-.656-.278-1.283-.765-1.72a2.3 2.3 0 0 0-1.561-.606z"/><path fill="#13706D" d="M146.045 149.729a.996.996 0 0 1-.993-.994v-44.201c0-.546.447-.994.993-.994.547 0 .994.448.994.994v44.201a.997.997 0 0 1-.994.994m6.64 0a.997.997 0 0 1-.994-.994v-44.201c0-.546.447-.994.994-.994s.994.448.994.994v44.201a.997.997 0 0 1-.994.994m10.357 0a.997.997 0 0 1-.994-.994v-44.201c0-.546.447-.994.994-.994s.994.448.994.994v44.201a.997.997 0 0 1-.994.994m6.64 0a.997.997 0 0 1-.994-.994v-44.201c0-.546.447-.994.994-.994s.994.448.994.994v44.201a.997.997 0 0 1-.994.994m10.367 0a.997.997 0 0 1-.994-.994v-44.201c0-.546.447-.994.994-.994s.994.448.994.994v44.201a.997.997 0 0 1-.994.994m6.629 0a.997.997 0 0 1-.994-.994v-44.201c0-.546.448-.994.994-.994.547 0 .994.448.994.994v44.201a.997.997 0 0 1-.994.994m27.523-11.748h-17.156a.997.997 0 0 1-.994-.994c0-.547.448-.994.994-.994h17.156c.547 0 .994.447.994.994a.997.997 0 0 1-.994.994m1.819 3.886h-8.578a.997.997 0 0 1-.994-.994c0-.546.447-.994.994-.994h8.578c.547 0 .994.448.994.994a.997.997 0 0 1-.994.994m-13.906 0h-4.602a.997.997 0 0 1-.994-.994c0-.546.448-.994.994-.994h4.602c.547 0 .994.448.994.994a.997.997 0 0 1-.994.994m-71.793 4.533h-3.976a1 1 0 0 1-.994-.994c0-.547.448-.994.994-.994h3.976c.547 0 .994.447.994.994a.997.997 0 0 1-.994.994m-11.927 0h-3.976a.997.997 0 0 1-.994-.994c0-.547.447-.994.994-.994h3.976c.546 0 .994.447.994.994a1 1 0 0 1-.994.994m-11.928 0h-3.976a1 1 0 0 1-.994-.994c0-.547.448-.994.994-.994h3.976c.547 0 .994.447.994.994a.997.997 0 0 1-.994.994m-11.927 0h-3.976a.997.997 0 0 1-.994-.994c0-.547.447-.994.994-.994h3.976c.546 0 .994.447.994.994a.997.997 0 0 1-.994.994m-11.838-.696a1 1 0 0 1-.368-.07 11 11 0 0 1-3.648-2.346.98.98 0 0 1-.02-1.401.98.98 0 0 1 1.402-.02 9.1 9.1 0 0 0 2.992 1.928.99.99 0 0 1 .556 1.293.99.99 0 0 1-.924.626zm-6.411-9.323c-.537 0-.984-.358-.994-.895v-3.996c0-.546.447-.994.994-.994s.994.448.994.994v3.817c0 .547-.438 1.074-.984 1.074zm0-11.848a.997.997 0 0 1-.994-.994v-3.976c0-.547.447-.994.994-.994s.994.447.994.994v3.976a.997.997 0 0 1-.994.994m0-11.928a.997.997 0 0 1-.994-.994v-3.976c0-.546.447-.994.994-.994s.994.448.994.994v3.976a.997.997 0 0 1-.994.994m0-11.927a.997.997 0 0 1-.994-.994v-3.976c0-.547.447-.994.994-.994s.994.447.994.994v3.976a.997.997 0 0 1-.994.994m103.351-6.7a.997.997 0 0 1-.994-.993v-3.976c0-.547.447-.994.994-.994s.994.447.994.994v3.975a.997.997 0 0 1-.994.994M76.29 88.75a.997.997 0 0 1-.994-.994V83.78c0-.546.447-.993.994-.993s.994.447.994.993v3.976a.997.997 0 0 1-.994.994m103.351-6.699a.997.997 0 0 1-.994-.994v-3.976c0-.547.447-.994.994-.994s.994.447.994.994v3.976a.997.997 0 0 1-.994.994M76.29 76.823a.997.997 0 0 1-.994-.994v-3.976c0-.547.447-.994.994-.994s.994.447.994.994v3.976a.997.997 0 0 1-.994.994m103.351-6.7a.997.997 0 0 1-.994-.994v-.824c0-.955-.149-1.889-.437-2.794a.99.99 0 0 1 .646-1.252.99.99 0 0 1 1.252.646c.348 1.094.527 2.237.527 3.4v.824a.997.997 0 0 1-.994.995M77.234 65.035q-.21 0-.417-.089a.99.99 0 0 1-.478-1.322 11.1 11.1 0 0 1 2.565-3.499.99.99 0 0 1 1.401.06.99.99 0 0 1-.06 1.401 9 9 0 0 0-2.107 2.873 1 1 0 0 1-.904.576m96.901-4.73c-.149 0-.309-.04-.448-.11a9 9 0 0 0-3.429-.964.995.995 0 0 1-.914-1.074 1 1 0 0 1 1.073-.914c1.461.12 2.873.507 4.175 1.183a1 1 0 0 1 .437 1.342.99.99 0 0 1-.884.536zm-11.749-1.114h-3.976a.997.997 0 0 1-.994-.994c0-.547.448-.994.994-.994h3.976c.547 0 .994.447.994.994a.997.997 0 0 1-.994.994m-11.927 0h-3.976a.997.997 0 0 1-.994-.994c0-.547.447-.994.994-.994h3.976c.546 0 .994.447.994.994a.997.997 0 0 1-.994.994m-11.928 0h-3.976a.997.997 0 0 1-.994-.994c0-.547.448-.994.994-.994h3.976c.547 0 .994.447.994.994a.997.997 0 0 1-.994.994m-11.927 0h-3.976a.997.997 0 0 1-.994-.994c0-.547.447-.994.994-.994h3.976c.546 0 .994.447.994.994a.997.997 0 0 1-.994.994m-11.928 0H110.7a.997.997 0 0 1-.994-.994c0-.547.448-.994.994-.994h3.976c.547 0 .994.447.994.994a.997.997 0 0 1-.994.994m-11.927 0h-3.976a.997.997 0 0 1-.994-.994c0-.547.447-.994.994-.994h3.976c.546 0 .994.447.994.994a.997.997 0 0 1-.994.994m-11.928 0h-3.975a.997.997 0 0 1-.994-.994c0-.547.447-.994.993-.994h3.976c.547 0 .994.447.994.994a.997.997 0 0 1-.994.994"/><path fill="#fff" d="M111.834 68.802H91.537a5.837 5.837 0 0 1-5.835-5.835V50.274a5.837 5.837 0 0 1 5.835-5.834h31.469a5.837 5.837 0 0 1 5.834 5.834v12.693a5.837 5.837 0 0 1-5.834 5.835"/><path fill="#13706D" d="M122.996 69.796a.997.997 0 0 1-.994-.995c0-.546.447-.993.994-.993a4.846 4.846 0 0 0 4.84-4.841V50.274a4.846 4.846 0 0 0-4.84-4.84H91.527a4.846 4.846 0 0 0-4.84 4.84v12.693a4.846 4.846 0 0 0 4.84 4.84h20.297c.546 0 .994.448.994.995a.997.997 0 0 1-.994.993H91.527a6.834 6.834 0 0 1-6.828-6.828V50.274a6.834 6.834 0 0 1 6.828-6.828h31.469a6.833 6.833 0 0 1 6.828 6.828v12.693a6.833 6.833 0 0 1-6.828 6.829"/><path fill="#13706D" d="M93.167 61.158c0-.308.07-.557.229-.835l3.608-6.65v-.05h-4.215c-.616 0-1.063-.417-1.063-1.033s.447-1.024 1.063-1.024h5.318c.885 0 1.56.537 1.56 1.422 0 .477-.149.894-.487 1.54l-3.608 6.928c-.298.577-.616.775-1.182.775-.766 0-1.223-.477-1.223-1.083zm8.24-.228c0-.508.209-.865.735-1.313l3.002-2.723c1.233-1.123 1.571-1.6 1.571-2.286 0-.755-.587-1.292-1.422-1.292-.695 0-1.163.338-1.55 1.033-.338.517-.646.726-1.183.726-.696 0-1.103-.398-1.103-1.054 0-.208.029-.397.109-.586.457-1.213 1.859-2.137 3.767-2.137 2.395 0 3.966 1.272 3.966 3.131 0 1.342-.686 2.117-2.356 3.628l-2.087 1.908v.05h3.638c.676 0 1.073.398 1.073 1.024s-.397 1.023-1.073 1.023h-5.825c-.855 0-1.252-.477-1.252-1.142zm12.593.765v-2.366c0-.288.169-.437.408-.437s.407.149.407.437v.199h.02a.92.92 0 0 1 .895-.626c.447 0 .765.228.875.636h.019c.14-.398.517-.636.974-.636.617 0 1.024.417 1.024 1.043v1.75c0 .288-.179.447-.427.447-.249 0-.418-.159-.418-.447v-1.54c0-.359-.179-.558-.507-.558s-.536.24-.536.587v1.51c0 .289-.159.448-.408.448s-.407-.159-.407-.447v-1.56c0-.339-.189-.538-.507-.538s-.537.249-.537.597v1.5c0 .289-.179.448-.427.448-.249 0-.428-.159-.428-.447zm5.407.01c0-.17.06-.279.239-.438l1.252-1.192c.517-.497.656-.706.656-1.004 0-.348-.268-.597-.646-.597-.338 0-.566.17-.725.507-.1.18-.199.259-.388.259-.238 0-.378-.14-.378-.358 0-.07.01-.13.03-.189.139-.467.666-.904 1.461-.904.895 0 1.491.496 1.491 1.222 0 .517-.248.835-.934 1.481l-.905.875v.02h1.581c.228 0 .368.139.368.347 0 .21-.14.348-.368.348h-2.326c-.278 0-.417-.159-.417-.377z"/><path fill="#fff" d="M153.749 44.45a4.384 4.384 0 1 0-.001-8.767 4.384 4.384 0 0 0 .001 8.767M37.953 77.568a3.111 3.111 0 1 0 0-6.222 3.111 3.111 0 0 0 0 6.222m-21.917 33a4.384 4.384 0 1 0 0-8.767 4.384 4.384 0 0 0 0 8.767M165.08 84.814a6.003 6.003 0 1 0 0-12.007 6.003 6.003 0 0 0 0 12.007M60.019 55.463a5.129 5.129 0 1 0 0-10.258 5.129 5.129 0 0 0 0 10.258M44.771 97.437a4.373 4.373 0 1 0 0-8.746 4.373 4.373 0 0 0 0 8.746m17.057 6.551a2.187 2.187 0 1 0 0-4.373 2.187 2.187 0 0 0 0 4.373M89.062 26.29a2.187 2.187 0 1 0 0-4.373 2.187 2.187 0 0 0 0 4.373m35.922 11.013a2.187 2.187 0 1 0-.001-4.373 2.187 2.187 0 0 0 .001 4.373"/><path fill="#AFE0DD" d="M47.052 141.262a1.779 1.779 0 1 0-3.15-1.653l-2.518 4.796a1.779 1.779 0 1 0 3.151 1.654z"/><path fill="#13706D" d="M42.972 148.01a2.76 2.76 0 0 1-1.282-.318 2.77 2.77 0 0 1-1.361-1.63 2.8 2.8 0 0 1 .188-2.117l2.515-4.801a2.775 2.775 0 0 1 4.91 2.584l-2.515 4.801a2.76 2.76 0 0 1-1.63 1.361c-.268.09-.546.13-.825.13zm2.515-8.359a.78.78 0 0 0-.696.417l-2.514 4.801a.74.74 0 0 0-.05.596c.06.199.199.368.388.457.188.1.397.12.596.06a.74.74 0 0 0 .457-.388l2.515-4.8a.8.8 0 0 0-.328-1.064.8.8 0 0 0-.368-.089z"/><path fill="#AFE0DD" d="M43.008 155.31a1.779 1.779 0 1 0 .166-3.554l-5.51-.257a1.778 1.778 0 1 0-.166 3.554z"/><path fill="#13706D" d="M43.092 156.299h-.13l-5.506-.258a2.76 2.76 0 0 1-1.918-.905 2.74 2.74 0 0 1-.716-1.997 2.777 2.777 0 0 1 2.902-2.644l5.507.258a2.78 2.78 0 0 1 2.644 2.902 2.78 2.78 0 0 1-2.773 2.644zm-5.507-3.816a.786.786 0 0 0-.785.745c0 .209.06.408.209.567a.77.77 0 0 0 .546.258l5.507.258a.8.8 0 0 0 .566-.208.789.789 0 0 0-.487-1.372l-5.506-.258h-.04z"/><path fill="#AFE0DD" d="M51.617 147.754a1.78 1.78 0 0 0-2.935 2.012l2.984 4.354a1.78 1.78 0 0 0 2.935-2.012z"/><path fill="#13706D" d="M53.13 155.902c-.168 0-.347-.02-.516-.05a2.76 2.76 0 0 1-1.78-1.163l-2.981-4.353a2.75 2.75 0 0 1-.438-2.078 2.76 2.76 0 0 1 1.163-1.779 2.775 2.775 0 0 1 3.857.716l2.982 4.353a2.785 2.785 0 0 1-.716 3.857 2.76 2.76 0 0 1-1.56.487zm-2.981-7.912a.77.77 0 0 0-.448.139.8.8 0 0 0-.328.507c-.04.209 0 .417.12.586l2.982 4.354a.8.8 0 0 0 .506.328.76.76 0 0 0 .587-.119.796.796 0 0 0 .209-1.094l-2.982-4.353a.78.78 0 0 0-.646-.338z"/><path fill="#13706D" d="M32.268 147.811a2.85 2.85 0 0 1-2.008-.835c-2.058-2.018-3.598-4.383-4.453-6.848-1.938-5.616-1.272-10.824 2.057-15.923.358-.557 1.024-.776 1.65-.567.617.209 1.014.815.964 1.471-.07.855-.139 1.65-.07 2.395.15 1.611 1.263 2.734 2.774 2.803 1.6.08 2.664-.815 2.823-2.355.198-1.919 0-3.817-.557-5.358-4.145-11.4 3.081-17.225 6.391-19.203a1.41 1.41 0 0 1 1.61.1c.468.367.657.984.488 1.55-1.462 4.711.914 8.359 3.687 11.997a320 320 0 0 1 2.992 3.996c.308-4.344 1.57-6.292 3.727-8.19a1.41 1.41 0 0 1 1.54-.219c.518.248.846.775.826 1.352-.1 2.982 1.59 5.248 3.38 7.653.297.408.596.805.894 1.213 5.129 7.136 5.079 15.933-.13 22.404a2.85 2.85 0 0 1-3.27.894c-1.162-.437-1.878-1.521-1.818-2.753V143c0-5.427-4.652-9.84-10.377-9.84S35.01 137.573 35.01 143c0 .497.04 1.004.12 1.491a2.81 2.81 0 0 1-1.522 2.992 2.9 2.9 0 0 1-1.352.338zm-3.857-20.555c-1.968 3.936-2.197 7.952-.716 12.236.746 2.166 2.117 4.274 3.966 6.073.428.417.915.218 1.054.149.129-.07.566-.338.467-.915-.1-.596-.14-1.202-.14-1.809 0-6.52 5.547-11.828 12.366-11.828 6.818 0 12.364 5.308 12.364 11.828v.477c-.02.547.368.746.537.815.298.11.726.09 1.024-.278 4.632-5.755 4.652-13.607.06-19.998a52 52 0 0 0-.875-1.183c-1.69-2.256-3.42-4.592-3.727-7.624-1.402 1.491-2.316 3.519-2.237 8.757 0 .427-.268.815-.676.954a.98.98 0 0 1-1.113-.348l-1.53-2.067a292 292 0 0 0-3.161-4.234c-2.724-3.569-5.268-7.445-4.364-12.375-3.449 2.475-7.504 7.415-4.363 16.052.844 2.326.825 4.672.666 6.242-.269 2.585-2.247 4.254-4.88 4.135-2.506-.099-4.434-1.998-4.672-4.602l-.03-.437z"/><path fill="#AFE0DD" d="M36.392 122.256c.666 1.819.805 3.897.607 5.795-.229 2.217-1.899 3.33-3.857 3.25-1.958-.079-3.519-1.53-3.727-3.697-.08-.815-.01-1.63.06-2.565.04-.447-.547-.646-.796-.278-3.15 4.841-3.767 9.791-1.948 15.059.825 2.395 2.326 4.621 4.205 6.46 1.292 1.263 3.488.159 3.2-1.63a10 10 0 0 1-.13-1.65c0-5.983 5.09-10.824 11.372-10.824.09 0 .179.01.278.01.03-4.006-1.73-7.206-4.343-11.142-4.88-7.346 1.033-16.788 1.033-16.788-2.783 1.67-9.95 7.067-5.964 18.01z"/><path fill="#13706D" d="M32.268 147.811a2.85 2.85 0 0 1-2.008-.835c-2.058-2.018-3.598-4.383-4.453-6.848-1.938-5.616-1.272-10.824 2.057-15.923.358-.557 1.024-.776 1.65-.567.617.209 1.014.815.964 1.471-.07.855-.139 1.65-.07 2.395.15 1.611 1.263 2.734 2.774 2.803 1.6.08 2.664-.815 2.823-2.355.198-1.919 0-3.817-.557-5.358-4.145-11.4 3.081-17.225 6.391-19.203a.995.995 0 0 1 1.223.159c.318.328.378.835.139 1.223-.06.089-5.507 8.995-1.044 15.714 2.396 3.608 4.543 7.216 4.513 11.699 0 .268-.11.517-.298.706-.19.189-.418.268-.716.278h-.169c-5.795 0-10.446 4.413-10.446 9.83 0 .497.04 1.004.119 1.491a2.81 2.81 0 0 1-1.52 2.992 2.9 2.9 0 0 1-1.353.338zm-3.857-20.555c-1.968 3.926-2.197 7.952-.716 12.236.756 2.176 2.117 4.274 3.966 6.073.428.417.915.218 1.054.149.129-.07.566-.338.467-.915-.1-.596-.14-1.202-.14-1.809 0-6.281 5.14-11.43 11.61-11.798-.229-3.141-1.67-5.874-4.145-9.611-3.2-4.831-2.147-10.377-.815-13.995-2.733 2.803-4.89 7.365-2.355 14.332.844 2.326.825 4.672.666 6.243-.269 2.584-2.247 4.254-4.88 4.134-2.505-.099-4.434-1.997-4.672-4.602l-.03-.437z"/></svg>