<svg xmlns="http://www.w3.org/2000/svg" width="220" height="180" fill="none"><path fill="#E0F4F3" d="M107.654 12.398h4.692c57.401 0 104.007 46.607 104.007 104.008v24.59c0 14.611-11.858 26.469-26.469 26.469H30.116c-14.611 0-26.469-11.858-26.469-26.469v-24.59c0-57.401 46.607-104.008 104.007-104.008"/><path fill="#fff" d="M131.977 73.07H77.836c-2.197 0-3.966-1.69-3.966-3.768V53.558c0-2.077 1.78-3.767 3.966-3.767h65.621c2.197 0 3.966 1.69 3.966 3.767v15.744c0 2.078-1.779 3.767-3.966 3.767h-3.409"/><path fill="#13706D" d="M143.457 74.063h-3.41a.997.997 0 0 1-.994-.993c0-.547.448-.994.994-.994h3.41c1.64 0 2.972-1.243 2.972-2.774V53.558c0-1.53-1.332-2.773-2.972-2.773H77.836c-1.64 0-2.972 1.243-2.972 2.773v15.744c0 1.531 1.332 2.773 2.972 2.773h54.141c.546 0 .993.448.993.995a.996.996 0 0 1-.993.993H77.836c-2.734 0-4.96-2.137-4.96-4.76V53.557c0-2.624 2.226-4.76 4.96-4.76h65.621c2.733 0 4.96 2.136 4.96 4.76v15.744c0 2.624-2.227 4.761-4.96 4.761"/><path fill="#C4EAE7" d="M97.02 55.775V73.06H78.451c-2.525 0-4.572-1.69-4.572-3.767V53.548c0-2.077 2.047-3.767 4.572-3.767H97.02z"/><path fill="#13706D" d="M97.019 74.063H78.452c-3.071 0-5.566-2.137-5.566-4.76V53.557c0-2.624 2.495-4.76 5.566-4.76h18.567c.547 0 .994.446.994.993v23.28a.997.997 0 0 1-.994.993M78.452 50.785c-1.978 0-3.578 1.243-3.578 2.773v15.744c0 1.531 1.61 2.773 3.578 2.773h17.573v-21.29z"/><path fill="#fff" d="M97.208 67.722a6.272 6.272 0 1 0 0-12.544 6.272 6.272 0 0 0 0 12.544"/><path fill="#13706D" d="M97.208 68.726c-4.006 0-7.266-3.26-7.266-7.266s3.26-7.266 7.266-7.266c4.005 0 7.266 3.26 7.266 7.266s-3.261 7.266-7.266 7.266m0-12.554a5.28 5.28 0 0 0-5.278 5.278 5.28 5.28 0 0 0 5.278 5.278 5.28 5.28 0 0 0 5.278-5.278 5.28 5.28 0 0 0-5.278-5.278"/><path fill="#13706D" d="M98.788 61.052h-3.15a.997.997 0 0 1-.994-.994c0-.546.447-.993.993-.993h3.151c.547 0 .994.447.994.993a.997.997 0 0 1-.994.994m0 2.734h-3.15a.997.997 0 0 1-.994-.994c0-.547.447-.994.993-.994h3.151c.547 0 .994.447.994.994a.997.997 0 0 1-.994.994m-50.323 91.066h-3.976a.997.997 0 0 1-.994-.994c0-.547.447-.994.994-.994h3.976c.546 0 .993.447.993.994a.997.997 0 0 1-.993.994m-10.934 0h-3.976a.997.997 0 0 1-.994-.994c0-.547.447-.994.994-.994h3.976c.547 0 .994.447.994.994a.997.997 0 0 1-.994.994m-10.933 0h-3.976a.997.997 0 0 1-.994-.994c0-.547.447-.994.994-.994h3.976c.546 0 .993.447.993.994a.997.997 0 0 1-.994.994m-10.934 0h-3.976a.997.997 0 0 1-.994-.994c0-.547.447-.994.994-.994h3.976c.547 0 .994.447.994.994a.997.997 0 0 1-.994.994m39.669-.636a.99.99 0 0 1-.915-.607.986.986 0 0 1 .527-1.302 7 7 0 0 0 2.733-2.087.985.985 0 0 1 1.392-.159.985.985 0 0 1 .159 1.392 9 9 0 0 1-3.519 2.683c-.129.05-.258.08-.387.08zm4.84-8.956a.997.997 0 0 1-.994-.994v-3.976c0-.546.448-.993.994-.993.547 0 .994.447.994.993v3.976a.997.997 0 0 1-.994.994m-.02-10.933c-.517 0-.954-.408-.994-.935a7 7 0 0 0-1.053-3.28 1.004 1.004 0 0 1 .308-1.371 1.006 1.006 0 0 1 1.372.308 8.94 8.94 0 0 1 1.351 4.214 1 1 0 0 1-.934 1.054h-.06zm-6.858-7.395h-.13a8 8 0 0 0-.953-.06h-2.893a.997.997 0 0 1-.994-.994c0-.547.448-.994.994-.994h2.893c.407 0 .815.03 1.212.08a.993.993 0 0 1 .855 1.113c-.07.497-.497.865-.984.865zm-10.933-.07h-3.976a.997.997 0 0 1-.994-.994c0-.546.447-.994.994-.994h3.976c.546 0 .993.448.993.994a.997.997 0 0 1-.993.994m-10.934 0h-3.976a.997.997 0 0 1-.994-.994c0-.546.448-.994.994-.994h3.976c.547 0 .994.448.994.994a.997.997 0 0 1-.994.994m-10.933 0h-3.976a.997.997 0 0 1-.994-.994c0-.546.447-.994.994-.994h3.976c.546 0 .993.448.993.994a.997.997 0 0 1-.993.994m-10.934 0H5.585a.997.997 0 0 1-.994-.994c0-.546.448-.994.994-.994h3.976c.547 0 .994.448.994.994a.997.997 0 0 1-.994.994m11.499 16.47v-7.137c0-.715.408-1.093 1.124-1.093.447 0 .755.189 1.103.646l3.48 4.791h.049v-4.284c0-.735.407-1.143 1.093-1.143s1.094.408 1.094 1.143v7.147c0 .695-.388 1.083-1.094 1.083-.467 0-.775-.179-1.113-.646l-3.509-4.841h-.05v4.334c0 .736-.407 1.153-1.103 1.153-.695 0-1.093-.408-1.093-1.153zm9.851-.06v-6.828c0-.766.427-1.213 1.163-1.213h2.783c1.958 0 3.28 1.272 3.28 3.221 0 1.948-1.391 3.21-3.419 3.21h-1.491v1.6c0 .766-.417 1.203-1.153 1.203-.735 0-1.163-.437-1.163-1.203zm3.32-3.349c.984 0 1.56-.507 1.56-1.461S35.215 137 34.241 137h-1.014v2.923zm5.447 3.479v-6.809c0-.954.547-1.501 1.5-1.501.806 0 1.243.328 1.571 1.183l1.899 4.811h.05l1.888-4.811c.338-.855.765-1.183 1.58-1.183.955 0 1.491.537 1.491 1.501v6.809c0 .685-.377 1.073-1.024 1.073-.646 0-1.013-.388-1.013-1.073v-4.752h-.04l-2.028 5.01c-.169.427-.437.626-.884.626-.448 0-.736-.199-.895-.626l-2.018-5.01h-.05v4.752c0 .685-.377 1.073-1.013 1.073s-1.024-.388-1.024-1.073z"/><path fill="#AFE0DD" d="m111.968 142.835-29.739-7.951V97.193l29.739 7.952z"/><path fill="#13706D" d="M111.968 143.829c-.089 0-.169-.01-.258-.03l-29.75-7.951a.99.99 0 0 1-.735-.964V97.183a.98.98 0 0 1 .388-.785.97.97 0 0 1 .865-.17l29.749 7.952c.437.12.735.507.735.964v37.701a.98.98 0 0 1-.388.785.97.97 0 0 1-.606.209zm-28.755-9.711 27.761 7.415V105.89l-27.761-7.415z"/><path fill="#C4EAE7" d="m141.31 134.883-29.749 7.952v-37.691l29.749-7.951z"/><path fill="#13706D" d="M111.56 143.829a.98.98 0 0 1-.606-.209.98.98 0 0 1-.388-.785v-37.701a1 1 0 0 1 .736-.964l29.749-7.951a1 1 0 0 1 .865.169.98.98 0 0 1 .387.785v37.701a1 1 0 0 1-.735.964l-29.749 7.951q-.122.03-.259.03zm.994-37.929v35.643l27.761-7.415V98.485z"/><path fill="#fff" d="m82.229 97.193 29.331-9.194 29.749 9.194-29.749 7.951z"/><path fill="#13706D" d="M111.56 106.138a.8.8 0 0 1-.258-.039L81.96 98.147a1 1 0 0 1-.735-.944.984.984 0 0 1 .696-.964l29.341-9.195a1 1 0 0 1 .587 0l29.749 9.195a1 1 0 0 1 .705.964.99.99 0 0 1-.735.944l-29.749 7.952q-.122.029-.259.029zm-25.793-9.015 25.793 6.988 26.151-6.988-26.151-8.08z"/><path fill="#13706D" d="M97.785 102.202a.99.99 0 0 1-.945-.676 1 1 0 0 1 .626-1.262l26.638-8.966a1.006 1.006 0 0 1 1.263.627 1 1 0 0 1-.626 1.262l-26.638 8.965a.9.9 0 0 1-.318.05"/><path fill="#C4EAE7" d="M82.577 55.178h-.01a3.12 3.12 0 0 0-3.121 3.121v.01a3.12 3.12 0 0 0 3.12 3.121h.01a3.12 3.12 0 0 0 3.122-3.12v-.01a3.12 3.12 0 0 0-3.121-3.122"/><path fill="#13706D" d="M82.577 62.424a4.123 4.123 0 0 1-4.115-4.115 4.123 4.123 0 0 1 4.115-4.115 4.123 4.123 0 0 1 4.115 4.115 4.123 4.123 0 0 1-4.115 4.115m0-6.252A2.13 2.13 0 0 0 80.45 58.3a2.13 2.13 0 0 0 2.127 2.127 2.13 2.13 0 0 0 2.127-2.127 2.13 2.13 0 0 0-2.127-2.127"/><path fill="#C4EAE7" d="M113.777 55.178h-.01a3.12 3.12 0 0 0-3.121 3.121v.01a3.12 3.12 0 0 0 3.121 3.121h.01a3.12 3.12 0 0 0 3.121-3.12v-.01a3.12 3.12 0 0 0-3.121-3.122"/><path fill="#13706D" d="M87.616 65.555h-8.17a.997.997 0 0 1-.994-.994c0-.547.447-.994.994-.994h8.17c.547 0 .994.447.994.994a.997.997 0 0 1-.994.994"/><path fill="#C4EAE7" d="M123.637 65.555h-12.961a.997.997 0 0 1-.994-.994c0-.547.447-.994.994-.994h12.961c.547 0 .994.447.994.994a.997.997 0 0 1-.994.994m11.222 0h-7.882a.997.997 0 0 1-.994-.994c0-.547.447-.994.994-.994h7.882c.547 0 .994.447.994.994a.997.997 0 0 1-.994.994"/><path fill="#13706D" d="M85.629 68.716h-6.183a.997.997 0 0 1-.994-.994c0-.547.447-.994.994-.994h6.183c.546 0 .993.447.993.994a.997.997 0 0 1-.993.994"/><path fill="#C4EAE7" d="M116.858 68.716h-6.182a.997.997 0 0 1-.994-.994c0-.547.447-.994.994-.994h6.182c.547 0 .994.447.994.994a.997.997 0 0 1-.994.994"/><path fill="#AFE0DD" d="M214.733 98.028h-30.902a4.85 4.85 0 0 0-4.851 4.85 4.86 4.86 0 0 0 4.851 4.851h32.164a103 103 0 0 0-1.252-9.701z"/><path fill="#C4EAE7" d="M178.98 121.157a4.85 4.85 0 0 0 4.851 4.85h32.522v-9.701h-32.522a4.85 4.85 0 0 0-4.851 4.851M28.625 92.85a4.85 4.85 0 0 0 4.85-4.851 4.857 4.857 0 0 0-4.85-4.85H9.084a103 103 0 0 0-2.753 9.7z"/><path fill="#AFE0DD" d="M13.318 72.572h45.006a4.85 4.85 0 0 0 4.85-4.85 4.857 4.857 0 0 0-4.85-4.85H18.467a105 105 0 0 0-5.159 9.7z"/><path fill="#13706D" d="M194.327 81.3c-.874 0-1.749-.04-2.624-.11a.99.99 0 0 1-.904-1.073c.049-.547.526-.965 1.073-.905 1.282.11 2.584.13 3.837.07a1 1 0 0 1 1.043.944.997.997 0 0 1-.944 1.044c-.487.02-.984.04-1.471.04zm8.27-1.183a1 1 0 0 1-.954-.716.99.99 0 0 1 .676-1.233 29 29 0 0 0 3.598-1.322.99.99 0 0 1 1.312.497.99.99 0 0 1-.497 1.313 31 31 0 0 1-3.857 1.42.9.9 0 0 1-.278.04m-17.613-.338a1.2 1.2 0 0 1-.318-.05 31 31 0 0 1-3.797-1.57.984.984 0 0 1-.447-1.332.985.985 0 0 1 1.332-.448 27 27 0 0 0 3.548 1.461.996.996 0 0 1-.318 1.939m-9.482-5.308c-.229 0-.448-.08-.636-.229a30 30 0 0 1-2.962-2.842 1 1 0 0 1 .059-1.402 1 1 0 0 1 1.402.06 28 28 0 0 0 2.773 2.654c.417.347.477.984.129 1.401a.98.98 0 0 1-.765.358m-6.908-8.39c-.348 0-.686-.188-.875-.516a31 31 0 0 1-1.729-3.717.994.994 0 0 1 .566-1.282.994.994 0 0 1 1.282.566 29 29 0 0 0 1.62 3.479.996.996 0 0 1-.387 1.352c-.149.08-.318.119-.477.119m-3.39-10.326a.996.996 0 0 1-.984-.865 31 31 0 0 1-.258-3.956v-.13c0-.546.447-.993.994-.993s.994.447.994.994v.13c0 1.232.079 2.484.238 3.706a.99.99 0 0 1-.854 1.114zm.597-10.854a.7.7 0 0 1-.239-.03.99.99 0 0 1-.725-1.203 30 30 0 0 1 1.252-3.916 1 1 0 0 1 1.292-.556.997.997 0 0 1 .557 1.292 27.5 27.5 0 0 0-1.163 3.657.99.99 0 0 1-.964.756zm-12.594 121.173a1 1 0 0 1-.994-.994v-.597c0-1.242.199-2.465.577-3.628a1 1 0 0 1 1.252-.636 1 1 0 0 1 .636 1.253 9.6 9.6 0 0 0-.477 3.011v.597a.997.997 0 0 1-.994.994m4.642-9.373a.999.999 0 0 1-.566-1.819 11.6 11.6 0 0 1 3.965-1.73 1 1 0 0 1 1.193.746 1.007 1.007 0 0 1-.745 1.192 9.6 9.6 0 0 0-3.28 1.432.97.97 0 0 1-.557.169zm47.332-1.849h-3.976a.997.997 0 0 1-.994-.994c0-.547.448-.994.994-.994h3.976c.547 0 .994.447.994.994a.997.997 0 0 1-.994.994m-10.933 0h-3.976a.997.997 0 0 1-.994-.994c0-.547.447-.994.994-.994h3.976c.546 0 .994.447.994.994a.997.997 0 0 1-.994.994m-10.934 0h-3.976a.997.997 0 0 1-.994-.994c0-.547.448-.994.994-.994h3.976c.547 0 .994.447.994.994a.997.997 0 0 1-.994.994m-10.933 0h-3.976a.997.997 0 0 1-.994-.994c0-.547.447-.994.994-.994h3.976c.546 0 .994.447.994.994a.997.997 0 0 1-.994.994"/></svg>