<svg xmlns="http://www.w3.org/2000/svg" width="219" height="180" fill="none"><path fill="#E0F4F3" d="M106.988 12.84h4.691c57.401 0 104.008 46.606 104.008 104.007v24.59c0 14.611-11.858 26.469-26.469 26.469H29.45c-14.612 0-26.47-11.858-26.47-26.469v-24.59c0-57.401 46.607-104.008 104.008-104.008"/><path fill="#C4EAE7" d="M215.687 121.459v-4.612c0-25.714-9.343-49.25-24.809-67.4l-36.906 72.022h61.715zm-67.251 10.794-18.269 35.643h59.051c14.621 0 26.469-11.848 26.469-26.469v-9.174z"/><path fill="#AFE0DD" d="M103.042 39.11H59.03a3.46 3.46 0 0 0-3.46 3.459v36.766a3.46 3.46 0 0 0 3.46 3.459h44.012a3.46 3.46 0 0 0 3.459-3.46V42.57a3.46 3.46 0 0 0-3.459-3.46"/><path fill="#13706D" d="M103.042 83.788H59.03a4.46 4.46 0 0 1-4.453-4.453V42.559a4.46 4.46 0 0 1 4.453-4.453h44.012a4.46 4.46 0 0 1 4.453 4.453v36.776a4.46 4.46 0 0 1-4.453 4.453M59.03 40.103a2.465 2.465 0 0 0-2.465 2.465v36.777a2.465 2.465 0 0 0 2.465 2.465h44.012a2.464 2.464 0 0 0 2.465-2.465V42.568a2.464 2.464 0 0 0-2.465-2.465zm156.657 82.27H115.109c-3.171 0-6.342-.755-9.165-2.197l-7.504-3.816a2.13 2.13 0 0 1-1.123-2.436 2.13 2.13 0 0 1 2.107-1.659h116.273c.547 0 .994.447.994.993a.997.997 0 0 1-.994.994H99.424s-.14 0-.179.14c-.03.139.05.179.09.198l7.504 3.817a18.4 18.4 0 0 0 8.27 1.978h100.578c.547 0 .994.447.994.994a.997.997 0 0 1-.994.994"/><path fill="#13706D" d="M104.433 167.896c-.049 0-.099 0-.159-.01a.983.983 0 0 1-.825-1.133l7.117-45.523a.99.99 0 0 1 1.133-.825c.547.08.915.596.825 1.133l-7.116 45.523c-.08.487-.497.845-.984.845zm5.666 0a.986.986 0 0 1-.954-1.272l7.027-23.656c1.749-6.878 7.952-11.699 15.088-11.699h84.417c.547 0 .994.447.994.994a.997.997 0 0 1-.994.994H131.26a13.58 13.58 0 0 0-13.17 10.238l-7.037 23.695a1.01 1.01 0 0 1-.954.716z"/><path fill="#AFE0DD" d="M74.754 142.809s.934-36.17-29.47-45.364c-7.614-2.306-15.318 1.888-13.22 15.843l5.337 34.53H90.25s-6.868-7.792-37.134-4.661"/><path fill="#13706D" d="M90.25 148.802H37.4c-.487 0-.904-.358-.984-.845l-5.338-34.53c-1.331-8.836 1.233-13.15 3.618-15.207 2.734-2.366 6.7-3.002 10.874-1.74 28.04 8.479 30.048 39.659 30.177 45.424 11.659 1.352 15.058 5.01 15.257 5.238a.99.99 0 0 1 .16 1.064.99.99 0 0 1-.905.586zm-51.994-1.988H86.91c-4.085-1.968-13.697-4.741-33.685-2.683a.99.99 0 0 1-1.093-.885.993.993 0 0 1 .884-1.093c8.667-.895 15.456-.905 20.734-.448-.169-5.983-2.346-35.325-28.755-43.316-3.509-1.064-6.789-.577-8.995 1.332-2.873 2.485-3.897 7.126-2.952 13.408z"/><path fill="#AFE0DD" d="M90.32 147.808H37.4v6.62h52.92z"/><path fill="#13706D" d="M90.32 155.422H37.4a.997.997 0 0 1-.994-.994v-6.62c0-.546.448-.994.994-.994h52.92c.547 0 .994.448.994.994v6.62a.997.997 0 0 1-.994.994m-51.925-1.988h50.93v-4.632h-50.93z"/><path fill="#13706D" d="M35.99 167.658h-.12a.996.996 0 0 1-.874-1.104l1.411-12.245a.996.996 0 0 1 1.978.228l-1.411 12.246a1 1 0 0 1-.984.885zm24.351 0h-.119a.996.996 0 0 1-.875-1.104l1.412-12.245a.996.996 0 0 1 1.978.228l-1.412 12.246a1 1 0 0 1-.984.885zm-19.899-1.75c-.07 0-.139 0-.208-.02a1 1 0 0 1-.766-1.182l2.227-10.487a.99.99 0 0 1 1.182-.765 1 1 0 0 1 .766 1.183l-2.227 10.486a1 1 0 0 1-.974.785m24.541 0c-.07 0-.139 0-.208-.02a1 1 0 0 1-.766-1.182l2.227-10.487a.99.99 0 0 1 1.183-.765 1 1 0 0 1 .765 1.183l-2.227 10.486a1 1 0 0 1-.974.785m22.364 1.75a1 1 0 0 1-.974-.786l-2.654-12.245a.997.997 0 0 1 1.948-.418l2.654 12.246a.997.997 0 0 1-.765 1.183c-.07.02-.14.02-.209.02m4.453.238a.99.99 0 0 1-.984-.875l-1.48-12.474a.99.99 0 0 1 .874-1.103.99.99 0 0 1 1.103.875l1.481 12.474a.99.99 0 0 1-.875 1.103z"/><path fill="#E0F4F3" d="M101.81 43.423H60.262V78.49h41.548z"/><path fill="#13706D" d="M101.809 79.484H60.262a.997.997 0 0 1-.994-.994V43.423c0-.546.447-.994.994-.994h41.547c.547 0 .994.448.994.994V78.49a.997.997 0 0 1-.994.994m-40.553-1.988h39.559V44.417H61.256z"/><path fill="#AFE0DD" d="M143.377 112.94h8.428c2.356-2.236 3.946-6.271 3.946-10.893 0-7.037-3.647-12.743-8.16-12.743s-8.16 5.706-8.16 12.743c0 4.622 1.58 8.657 3.946 10.893"/><path fill="#13706D" d="M151.805 113.934h-8.429a1.02 1.02 0 0 1-.685-.268c-2.664-2.515-4.254-6.858-4.254-11.609 0-7.574 4.105-13.737 9.154-13.737s9.154 6.163 9.154 13.737c0 4.751-1.59 9.094-4.254 11.609a.98.98 0 0 1-.686.268m-8.021-1.988h7.614c2.077-2.166 3.359-5.914 3.359-9.899 0-6.48-3.21-11.749-7.166-11.749s-7.167 5.268-7.167 11.749c0 3.985 1.283 7.723 3.36 9.899"/><path fill="#E0F4F3" d="M153.843 113.249h15.655c1.699-2.933 2.743-6.799 2.743-11.063s-1.123-8.429-2.932-11.39c-.706-1.144-1.064-2.496-.855-3.818.07-.417.099-.854.099-1.292 0-4.165-3.081-7.534-6.888-7.534s-6.888 3.37-6.888 7.534c0 .438.04.875.1 1.292.218 1.332-.149 2.674-.845 3.817-1.819 2.962-2.932 6.968-2.932 11.391s1.043 8.13 2.743 11.063"/><path fill="#13706D" d="M169.488 114.243h-15.655a1 1 0 0 1-.865-.497c-1.858-3.201-2.872-7.306-2.872-11.56s1.093-8.677 3.081-11.908c.626-1.014.875-2.137.716-3.14a9 9 0 0 1-.12-1.452c0-4.701 3.539-8.528 7.882-8.528 4.344 0 7.882 3.827 7.882 8.528 0 .487-.039.974-.119 1.451-.159 1.004.09 2.127.716 3.141 1.988 3.24 3.081 7.465 3.081 11.908s-1.024 8.359-2.872 11.56a1 1 0 0 1-.865.497zm-15.069-1.988h14.482c1.511-2.823 2.336-6.372 2.336-10.069 0-4.085-.994-7.942-2.793-10.874-.875-1.421-1.222-3.022-.984-4.503q.09-.566.09-1.133c0-3.608-2.644-6.54-5.895-6.54s-5.894 2.932-5.894 6.54c0 .378.03.766.09 1.133.238 1.481-.11 3.072-.984 4.503-1.799 2.932-2.793 6.789-2.793 10.874 0 3.697.825 7.246 2.335 10.069z"/><path fill="#fff" d="M215.687 113.249H99.414c-1.233 0-1.63 1.659-.537 2.216l7.505 3.817a19.26 19.26 0 0 0 8.716 2.087h100.579"/><path fill="#13706D" d="M215.687 122.373H115.109c-3.171 0-6.342-.755-9.165-2.197l-7.504-3.816a2.13 2.13 0 0 1-1.123-2.436 2.13 2.13 0 0 1 2.107-1.659h116.273c.547 0 .994.447.994.993a.997.997 0 0 1-.994.994H99.424s-.14 0-.179.14c-.03.139.05.179.09.198l7.504 3.817a18.4 18.4 0 0 0 8.27 1.978h100.578c.547 0 .994.447.994.994a.997.997 0 0 1-.994.994m-70.084-32.065c-.438 0-.845-.298-.964-.736l-3.32-12.543a.996.996 0 0 1 .706-1.213.996.996 0 0 1 1.212.706l3.32 12.544a.996.996 0 0 1-.706 1.212c-.089.02-.169.03-.258.03zm3.548 0c-.069 0-.139 0-.218-.02a.99.99 0 0 1-.756-1.183l4.811-21.648a.995.995 0 0 1 1.183-.755.99.99 0 0 1 .755 1.183l-4.811 21.648a.99.99 0 0 1-.974.775z"/><path fill="#AFE0DD" d="M142.283 71.373s.08.02 1.66.547c1.581.527 1.66.378 0 2.614s-.507 5.387-8.478 8.508c-7.972 3.121-9.93 1.034-13.588 2.594 0 0-1.043-1.302 0-5.357 1.044-4.045.656-10.864 6.531-12.613 5.874-1.75 8.329-3.708 11.023-2.406s-2.754 3.529-1.988 5.229c.765 1.7 3.18.338 4.84.894z"/><path fill="#13706D" d="M121.877 86.63a.97.97 0 0 1-.775-.377c-.229-.279-1.302-1.909-.189-6.222.209-.806.358-1.75.517-2.754.646-4.015 1.451-9.005 6.689-10.565 1.779-.527 3.231-1.074 4.503-1.56 2.902-1.094 4.99-1.88 7.236-.796.755.368 1.193.875 1.292 1.51.179 1.114-.745 2.019-1.64 2.893-.388.388-1.123 1.094-1.153 1.382.129.248.447.298 1.69.169.795-.08 1.699-.17 2.534.109.06.02.348.11 1.66.547l.249.08c.725.238 1.361.437 1.58 1.142.249.776-.169 1.332-1.282 2.833l-.07.09c-.348.467-.556 1.013-.795 1.65-.795 2.097-1.789 4.71-8.12 7.186-4.831 1.888-7.535 1.938-9.701 1.968-1.462.02-2.515.04-3.857.616-.129.05-.258.08-.388.08zm15.715-20.803c-1.044 0-2.296.447-4.264 1.193-1.312.497-2.793 1.053-4.642 1.6-4.046 1.203-4.682 5.159-5.298 8.975-.169 1.044-.328 2.038-.557 2.933-.506 1.948-.477 3.16-.367 3.836 1.262-.377 2.365-.397 3.618-.417 2.008-.03 4.512-.08 9.005-1.83 5.506-2.156 6.292-4.223 6.987-6.042.269-.706.547-1.442 1.054-2.127l.07-.09c.248-.328.487-.646.666-.904l-.249-.08a87 87 0 0 1-1.65-.547c-.447-.149-1.093-.08-1.719-.02-1.253.12-2.952.289-3.708-1.4-.616-1.382.606-2.585 1.59-3.54.328-.318.845-.824 1.014-1.113-.039-.02-.079-.05-.139-.08a3.2 3.2 0 0 0-1.411-.327z"/><path fill="#AFE0DD" d="M162.5 68.7s4.702 4.85 8.23 5.585 5.149-.288 10.288 1.402c0 0-3.827-8.011-7.207-8.896S162.49 68.7 162.49 68.7z"/><path fill="#13706D" d="M181.017 76.681c-.099 0-.208-.02-.308-.05-2.972-.974-4.711-1.004-6.381-1.023-1.143-.02-2.316-.03-3.807-.348-3.787-.786-8.538-5.666-8.746-5.865a1.01 1.01 0 0 1-.259-.924.99.99 0 0 1 .636-.706c.845-.298 8.33-2.862 11.898-1.938 3.717.974 7.435 8.568 7.852 9.433.169.357.109.785-.149 1.083a1 1 0 0 1-.745.338zm-16.638-7.554c1.719 1.56 4.492 3.757 6.55 4.185 1.302.268 2.336.288 3.429.298 1.292.02 2.723.04 4.711.497-1.56-2.754-3.816-5.914-5.506-6.362-2.058-.536-6.461.557-9.184 1.382"/><path fill="#AFE0DD" d="M153.356 63.173s-2.048.388-2.256 2.733c-.209 2.346 7.872 3.38 11.4 2.793s7.495-1.033 12.355 1.173 6.173 5.805 6.173 5.805-1.034-7.952-5.735-10.854-6.908-5.397-11.322-4.662-8.349.259-10.605 3.002z"/><path fill="#13706D" d="M181.018 76.68a.99.99 0 0 1-.935-.655c-.049-.13-1.282-3.26-5.655-5.248-4.553-2.068-8.31-1.68-11.779-1.103-2.852.477-9.631-.04-11.778-2.038-.716-.666-.825-1.362-.775-1.829.199-2.167 1.69-3.19 2.703-3.529 1.939-2.126 4.781-2.405 7.783-2.703 1.034-.1 2.107-.209 3.21-.398 3.847-.646 6.262.984 9.314 3.042a76 76 0 0 0 2.693 1.76c5.05 3.11 6.153 11.22 6.203 11.569a1.004 1.004 0 0 1-.984 1.123zm-13.667-9.461c2.395 0 4.989.417 7.912 1.749a15 15 0 0 1 3.548 2.236c-.805-2.067-2.077-4.313-4.035-5.526a94 94 0 0 1-2.764-1.8c-2.991-2.017-4.79-3.24-7.872-2.723a49 49 0 0 1-3.339.408c-2.932.288-5.248.517-6.67 2.236a.96.96 0 0 1-.576.338c-.149.03-1.322.338-1.461 1.849.188.984 6.321 2.376 10.247 1.72 1.601-.269 3.251-.498 5.02-.498zM53.115 148.802a.99.99 0 0 1-.994-.984c0-.119-.199-11.679-7.872-20.624-8.12-9.473-11.162-19.989-7.385-25.575a.993.993 0 0 1 1.382-.268.993.993 0 0 1 .268 1.382c-3.22 4.77-.169 14.511 7.246 23.169 8.16 9.512 8.35 21.399 8.35 21.906 0 .547-.438.994-.985 1.004z"/><path fill="#AFE0DD" d="M89.415 51.176a6.8 6.8 0 0 0-3.4.298 7.45 7.45 0 0 0-5.794-2.425 7.485 7.485 0 0 0-7.117 6.371c-1.024-.318-2.157-.358-3.41.378-1.46.855-2.444 2.425-2.355 4.115a4.456 4.456 0 0 0 4.612 4.194A4.43 4.43 0 0 0 75.5 62.09a7.42 7.42 0 0 0 5.277 1.908 7.5 7.5 0 0 0 3.39-.964 6.7 6.7 0 0 0 4.363 1.411c4.105-.149 7.197-3.965 6.272-8.18-.576-2.614-2.753-4.662-5.387-5.099z"/><path fill="#13706D" d="M88.282 65.45a7.66 7.66 0 0 1-4.195-1.253 8.2 8.2 0 0 1-3.27.795 8.47 8.47 0 0 1-5.158-1.52 5.4 5.4 0 0 1-3.668 1.62c-2.952.119-5.467-2.187-5.636-5.13-.11-1.967 1.004-3.945 2.843-5.029 1.014-.596 2.047-.825 3.15-.696a8.475 8.475 0 0 1 7.843-6.192 8.5 8.5 0 0 1 6.113 2.296 7.6 7.6 0 0 1 3.28-.149c3.041.507 5.536 2.863 6.202 5.864a7.76 7.76 0 0 1-1.411 6.411 7.68 7.68 0 0 1-5.795 2.982h-.298m-4.115-3.41c.218 0 .437.07.616.209A5.7 5.7 0 0 0 88.5 63.45a5.66 5.66 0 0 0 4.294-2.206c1.054-1.362 1.422-3.052 1.044-4.761-.487-2.217-2.336-3.956-4.582-4.324a5.64 5.64 0 0 0-2.903.259.99.99 0 0 1-1.073-.269 6.46 6.46 0 0 0-5.03-2.107 6.49 6.49 0 0 0-6.172 5.526.99.99 0 0 1-.457.696c-.249.15-.547.189-.825.11-.964-.299-1.77-.21-2.604.278-1.203.706-1.938 1.968-1.869 3.2.11 1.869 1.73 3.34 3.578 3.25a3.44 3.44 0 0 0 2.754-1.57.98.98 0 0 1 .705-.437c.288-.04.577.05.795.248a6.43 6.43 0 0 0 4.573 1.66 6.4 6.4 0 0 0 2.942-.835.94.94 0 0 1 .487-.129z"/><path fill="#AFE0DD" d="M104.463 89.165h-39.55a2.157 2.157 0 0 0 0 4.314h39.55a2.157 2.157 0 0 0 0-4.314"/><path fill="#13706D" d="M104.463 94.463h-39.56a3.152 3.152 0 0 1 0-6.302h39.56a3.152 3.152 0 0 1 0 6.302m-39.56-4.304c-.635 0-1.162.517-1.162 1.163s.517 1.163 1.163 1.163h39.559c.636 0 1.163-.517 1.163-1.163s-.517-1.163-1.163-1.163z"/><path fill="#AFE0DD" d="M104.463 97.932h-19.67a2.157 2.157 0 0 0 0 4.313h19.67a2.157 2.157 0 1 0 0-4.313"/><path fill="#13706D" d="M104.463 103.229h-19.68a3.151 3.151 0 0 1 0-6.301h19.68a3.152 3.152 0 0 1 0 6.301m-19.68-4.303c-.636 0-1.163.516-1.163 1.163 0 .646.517 1.162 1.163 1.162h19.68a1.164 1.164 0 0 0 0-2.325zm-13.528-27.98c0-1.66.955-2.624 2.455-2.624.965 0 1.69.397 2.068 1.113.08.159.13.318.13.467 0 .328-.23.547-.567.547-.289 0-.458-.12-.607-.398-.228-.467-.566-.696-1.014-.696-.705 0-1.153.607-1.153 1.59 0 .985.448 1.601 1.153 1.601.468 0 .805-.229 1.024-.706.13-.278.288-.387.567-.387.367 0 .606.228.606.566 0 .12-.03.249-.08.378-.308.725-1.113 1.183-2.087 1.183-1.56 0-2.495-.965-2.495-2.624zm5.537 0c0-1.62.974-2.624 2.504-2.624s2.505 1.014 2.505 2.624-.964 2.624-2.505 2.624-2.505-1.004-2.505-2.624m3.697 0c0-.964-.467-1.58-1.193-1.58-.725 0-1.193.616-1.193 1.58s.468 1.58 1.193 1.58 1.193-.616 1.193-1.58m2.178 1.988c0-.239.1-.418.358-.636l1.451-1.312c.596-.537.755-.776.755-1.104 0-.368-.278-.626-.685-.626-.338 0-.567.16-.746.497-.159.249-.308.348-.576.348-.338 0-.537-.189-.537-.507 0-.1.01-.189.05-.278.218-.587.894-1.034 1.819-1.034 1.152 0 1.918.616 1.918 1.51 0 .647-.328 1.025-1.133 1.75l-1.014.925v.02h1.76c.327 0 .516.188.516.497 0 .308-.189.496-.517.496h-2.813c-.417 0-.606-.228-.606-.556zm4.642-1.352c0-1.242.735-2.028 1.908-2.028s1.889.756 1.889 1.79c0 .318-.18.496-.507.496H88.51v.07c0 .467.309.785.756.785.338 0 .576-.11.855-.387.129-.12.228-.17.387-.17.249 0 .468.16.468.438 0 .1-.03.189-.08.278-.249.448-.875.726-1.64.726-1.233 0-1.958-.746-1.958-1.988zm2.614-.457c-.02-.418-.298-.686-.686-.686s-.676.278-.706.686z"/></svg>