<svg width="219" height="180" viewBox="0 0 219 180" fill="none" xmlns="http://www.w3.org/2000/svg">
<path d="M107.321 12.6628H112.013C169.414 12.6628 216.02 59.2694 216.02 116.67V141.261C216.02 155.872 204.162 167.73 189.551 167.73H29.783C15.1718 167.73 3.31396 155.872 3.31396 141.261V116.67C3.31396 59.2694 49.9205 12.6628 107.321 12.6628Z" fill="#E0F4F3"/>
<path d="M64.9785 122.694C64.9785 122.694 68.1293 119.463 70.8528 119.135C73.5762 118.807 73.8545 117.098 77.8701 117.098C81.8857 117.098 82.8796 119.225 82.8796 119.225C82.8796 119.225 83.8835 120.547 90.6126 119.891C97.3417 119.235 96.4869 123.429 96.4869 123.429" fill="#E0F4F3"/>
<path d="M96.4671 124.423C96.3975 124.423 96.3379 124.423 96.2683 124.403C95.7315 124.294 95.3837 123.767 95.493 123.23C95.493 123.21 95.6322 122.375 95.0457 121.729C94.34 120.964 92.8391 120.676 90.6922 120.885C84.1222 121.521 82.4722 120.358 82.0746 119.831C82.0349 119.771 81.9951 119.712 81.9653 119.652C81.9454 119.612 81.1005 118.092 77.8503 118.092C75.7829 118.092 74.8684 118.579 73.9043 119.095C73.1489 119.503 72.2842 119.97 70.9523 120.119C69.0041 120.348 66.4894 122.554 65.6744 123.379C65.2867 123.777 64.6605 123.777 64.2729 123.399C63.8753 123.012 63.8753 122.385 64.253 121.998C64.3922 121.859 67.6821 118.509 70.7137 118.151C71.6679 118.042 72.2742 117.714 72.96 117.346C74.0435 116.76 75.276 116.104 77.8404 116.104C81.6572 116.104 83.1779 117.893 83.6152 118.559C83.9134 118.728 85.4739 119.384 90.4934 118.907C93.3461 118.628 95.3737 119.135 96.5267 120.417C97.5306 121.531 97.5704 122.962 97.4312 123.628C97.3318 124.095 96.9243 124.423 96.4571 124.423H96.4671Z" fill="#13706D"/>
<path d="M108.335 123.429H59.9194V142.692H108.335V123.429Z" fill="white"/>
<path d="M108.345 143.686H59.9295C59.3828 143.686 58.9355 143.239 58.9355 142.692V123.429C58.9355 122.882 59.3828 122.435 59.9295 122.435H108.345C108.892 122.435 109.339 122.882 109.339 123.429V142.692C109.339 143.239 108.892 143.686 108.345 143.686ZM60.9135 141.698H107.341V124.423H60.9135V141.698Z" fill="#13706D"/>
<path d="M162.674 103.759H114.259V142.692H162.674V103.759Z" fill="white"/>
<path d="M162.684 143.686H114.269C113.722 143.686 113.275 143.239 113.275 142.692V103.759C113.275 103.212 113.722 102.765 114.269 102.765H162.684C163.231 102.765 163.678 103.212 163.678 103.759V142.692C163.678 143.239 163.231 143.686 162.684 143.686ZM115.253 141.698H161.68V104.753H115.253V141.698Z" fill="#13706D"/>
<path d="M182.484 119.135H149.346V142.692H182.484V119.135Z" fill="white"/>
<path d="M182.484 143.686H149.346C148.799 143.686 148.352 143.239 148.352 142.692V119.135C148.352 118.589 148.799 118.141 149.346 118.141H182.484C183.031 118.141 183.478 118.589 183.478 119.135V142.692C183.478 143.239 183.031 143.686 182.484 143.686ZM150.339 141.698H181.49V120.129H150.339V141.698Z" fill="#13706D"/>
<path d="M149.346 119.135C149.346 119.135 155.637 126.252 165.676 126.252C175.715 126.252 182.484 119.135 182.484 119.135H149.346Z" fill="white"/>
<path d="M165.676 127.236C155.309 127.236 148.869 120.089 148.6 119.791C148.342 119.503 148.282 119.085 148.441 118.728C148.6 118.37 148.958 118.141 149.346 118.141H182.484C182.882 118.141 183.24 118.38 183.399 118.748C183.558 119.115 183.478 119.533 183.21 119.821C182.922 120.119 176.033 127.246 165.676 127.246V127.236ZM151.89 120.129C154.365 122.137 159.236 125.258 165.676 125.258C172.117 125.258 177.216 122.147 179.83 120.129H151.89Z" fill="#13706D"/>
<path d="M86.7766 123.429H81.4888V142.692H86.7766V123.429Z" fill="#AFE0DD"/>
<path d="M86.7764 143.686H81.4886C80.9419 143.686 80.4946 143.239 80.4946 142.692V123.429C80.4946 122.882 80.9419 122.435 81.4886 122.435H86.7764C87.3231 122.435 87.7704 122.882 87.7704 123.429V142.692C87.7704 143.239 87.3231 143.686 86.7764 143.686ZM82.4825 141.698H85.7825V124.423H82.4825V141.698Z" fill="#13706D"/>
<path d="M142.14 103.759H134.804V142.692H142.14V103.759Z" fill="#AFE0DD"/>
<path d="M142.139 143.686H134.804C134.257 143.686 133.81 143.239 133.81 142.692V103.759C133.81 103.212 134.257 102.765 134.804 102.765H142.139C142.686 102.765 143.133 103.212 143.133 103.759V142.692C143.133 143.239 142.686 143.686 142.139 143.686ZM135.798 141.698H141.145V104.753H135.798V141.698Z" fill="#13706D"/>
<path d="M160.309 88.8893H129.686V103.759H160.309V88.8893Z" fill="white"/>
<path d="M160.309 104.753H129.685C129.139 104.753 128.691 104.305 128.691 103.759V88.8892C128.691 88.3425 129.139 87.8953 129.685 87.8953H160.309C160.856 87.8953 161.303 88.3425 161.303 88.8892V103.759C161.303 104.305 160.856 104.753 160.309 104.753ZM130.679 102.765H159.315V89.8832H130.679V102.765Z" fill="#13706D"/>
<path d="M147.636 88.8893H142.349V103.759H147.636V88.8893Z" fill="#AFE0DD"/>
<path d="M147.636 104.753H142.348C141.802 104.753 141.354 104.305 141.354 103.759V88.8892C141.354 88.3425 141.802 87.8953 142.348 87.8953H147.636C148.183 87.8953 148.63 88.3425 148.63 88.8892V103.759C148.63 104.305 148.183 104.753 147.636 104.753ZM143.342 102.765H146.642V89.8832H143.342V102.765Z" fill="#13706D"/>
<path d="M126.485 130.188H119.984C119.438 130.188 118.99 129.741 118.99 129.194C118.99 128.647 119.438 128.2 119.984 128.2H126.485C127.031 128.2 127.479 128.647 127.479 129.194C127.479 129.741 127.031 130.188 126.485 130.188Z" fill="#13706D"/>
<path d="M126.485 134.054H119.984C119.438 134.054 118.99 133.607 118.99 133.06C118.99 132.514 119.438 132.067 119.984 132.067H126.485C127.031 132.067 127.479 132.514 127.479 133.06C127.479 133.607 127.031 134.054 126.485 134.054Z" fill="#13706D"/>
<path d="M123.234 137.921H119.984C119.438 137.921 118.99 137.474 118.99 136.927C118.99 136.38 119.438 135.933 119.984 135.933H123.234C123.781 135.933 124.228 136.38 124.228 136.927C124.228 137.474 123.781 137.921 123.234 137.921Z" fill="#13706D"/>
<path d="M97.6998 55.6314C100.955 55.6314 103.594 52.9925 103.594 49.7373C103.594 46.482 100.955 43.8431 97.6998 43.8431C94.4446 43.8431 91.8057 46.482 91.8057 49.7373C91.8057 52.9925 94.4446 55.6314 97.6998 55.6314Z" fill="#AFE0DD"/>
<path d="M97.6996 56.6154C93.9027 56.6154 90.8115 53.5242 90.8115 49.7273C90.8115 45.9304 93.9027 42.8392 97.6996 42.8392C101.497 42.8392 104.588 45.9304 104.588 49.7273C104.588 53.5242 101.497 56.6154 97.6996 56.6154ZM97.6996 44.8371C94.9961 44.8371 92.7994 47.0337 92.7994 49.7373C92.7994 52.4408 94.9961 54.6375 97.6996 54.6375C100.403 54.6375 102.6 52.4408 102.6 49.7373C102.6 47.0337 100.403 44.8371 97.6996 44.8371Z" fill="#13706D"/>
<path d="M182.494 76.1467H171.72V68.6125L177.107 64.1L182.494 68.6125V76.1467Z" fill="#AFE0DD"/>
<path d="M182.484 77.1406H171.71C171.163 77.1406 170.716 76.6934 170.716 76.1467V68.6225C170.716 68.3243 170.845 68.046 171.074 67.8571L176.461 63.3346C176.829 63.0265 177.365 63.0265 177.743 63.3346L183.13 67.8571C183.359 68.046 183.488 68.3243 183.488 68.6225V76.1467C183.488 76.6934 183.041 77.1406 182.494 77.1406H182.484ZM172.714 75.1527H181.5V69.0797L177.107 65.3921L172.714 69.0797V75.1527Z" fill="#13706D"/>
<path d="M177.107 77.1406C176.56 77.1406 176.113 76.6934 176.113 76.1467V72.6579C176.113 72.1112 176.56 71.6639 177.107 71.6639C177.653 71.6639 178.101 72.1112 178.101 72.6579V76.1467C178.101 76.6934 177.653 77.1406 177.107 77.1406Z" fill="#13706D"/>
<path d="M38.2712 137.792C37.7543 137.792 37.317 137.394 37.2772 136.877C37.2772 136.818 37.1579 135.347 37.1182 132.842C37.1182 132.295 37.5456 131.838 38.0922 131.828H38.1121C38.6489 131.828 39.0961 132.265 39.1061 132.802C39.1458 135.237 39.2552 136.698 39.2552 136.718C39.2949 137.265 38.8874 137.742 38.3407 137.782C38.3109 137.782 38.291 137.782 38.2612 137.782L38.2712 137.792ZM38.2115 126.858C38.2115 126.858 38.1817 126.858 38.1718 126.858C37.6251 126.838 37.1977 126.371 37.2176 125.824C37.2772 124.473 37.3567 123.131 37.4561 121.819C37.4959 121.272 37.9829 120.865 38.5196 120.904C39.0663 120.944 39.4738 121.421 39.4341 121.968C39.3347 123.25 39.2552 124.582 39.1955 125.904C39.1757 126.441 38.7284 126.858 38.2016 126.858H38.2115ZM39.2055 115.974C39.2055 115.974 39.116 115.974 39.0663 115.974C38.5196 115.895 38.1419 115.398 38.2215 114.851C38.4103 113.519 38.629 112.187 38.8675 110.885C38.9669 110.349 39.4838 109.991 40.0205 110.09C40.5572 110.19 40.9151 110.706 40.8157 111.243C40.5771 112.515 40.3684 113.818 40.1895 115.13C40.1199 115.627 39.6925 115.984 39.2055 115.984V115.974ZM41.3822 105.26C41.2928 105.26 41.2033 105.25 41.1238 105.22C40.597 105.071 40.2789 104.524 40.428 103.997C40.7859 102.675 41.1834 101.373 41.6009 100.141C41.7798 99.6239 42.3464 99.3455 42.8632 99.5145C43.3801 99.6934 43.6584 100.25 43.4894 100.777C43.0819 101.98 42.7042 103.242 42.3464 104.524C42.2271 104.961 41.8295 105.26 41.3922 105.26H41.3822ZM45.1394 95.002C44.9903 95.002 44.8511 94.9721 44.712 94.9026C44.215 94.664 44.0063 94.0677 44.2448 93.5806C44.5331 92.9743 44.8412 92.3779 45.1493 91.7915C45.4077 91.3045 46.0141 91.1255 46.4912 91.384C46.9782 91.6424 47.1571 92.2388 46.8987 92.7258C46.6005 93.2924 46.3122 93.8589 46.0339 94.4454C45.865 94.8032 45.5071 95.0119 45.1394 95.0119V95.002Z" fill="#13706D"/>
<path d="M59.9196 73.5525C59.7009 73.5525 59.4823 73.4829 59.3034 73.3338C58.876 72.9959 58.7964 72.3697 59.1443 71.9423C59.1841 71.8926 60.1283 70.6998 61.7783 68.861C62.1461 68.4535 62.7723 68.4237 63.1798 68.7815C63.5873 69.1493 63.6271 69.7755 63.2593 70.183C61.6491 71.9721 60.7148 73.1549 60.7048 73.1748C60.5061 73.4233 60.2178 73.5525 59.9196 73.5525ZM67.3544 65.5015C67.096 65.5015 66.8375 65.4021 66.6387 65.2033C66.261 64.8057 66.261 64.1795 66.6586 63.8018C67.6327 62.8476 68.6267 61.9332 69.6007 61.0585C70.0083 60.6907 70.6344 60.7305 71.0022 61.138C71.37 61.5455 71.3302 62.1717 70.9227 62.5395C69.9685 63.3943 68.9944 64.2988 68.0402 65.2232C67.8514 65.412 67.5929 65.5015 67.3445 65.5015H67.3544ZM75.6539 58.3748C75.3458 58.3748 75.0476 58.2357 74.8588 57.9772C74.5308 57.5399 74.6202 56.9137 75.0675 56.5857C76.1807 55.7607 77.3039 54.9854 78.3972 54.2797C78.8545 53.9815 79.4707 54.1207 79.7689 54.5779C80.0671 55.0351 79.9379 55.6514 79.4707 55.9496C78.4171 56.6254 77.3337 57.3809 76.2503 58.176C76.0714 58.3052 75.8626 58.3748 75.6639 58.3748H75.6539ZM85.0368 52.7788C84.6591 52.7788 84.2914 52.5602 84.1224 52.1825C83.9037 51.6756 84.1224 51.0891 84.6293 50.8704C85.9314 50.294 87.2335 49.8169 88.4859 49.459C89.0127 49.3 89.5693 49.6081 89.7184 50.1349C89.8675 50.6617 89.5693 51.2183 89.0425 51.3674C87.8796 51.7054 86.657 52.1527 85.4344 52.6894C85.3052 52.749 85.1661 52.7689 85.0368 52.7689V52.7788Z" fill="#13706D"/>
<path d="M129.039 65.0939C128.502 65.0939 128.065 64.6764 128.045 64.1397C128.025 63.593 128.453 63.1258 128.999 63.1059C129.983 63.0662 131.057 62.6785 132.19 61.943C132.647 61.6448 133.263 61.774 133.562 62.2412C133.86 62.6984 133.731 63.3147 133.263 63.6129C131.822 64.5472 130.411 65.0442 129.059 65.0939C129.049 65.0939 129.029 65.0939 129.019 65.0939H129.039ZM123.503 61.4659C123.175 61.4659 122.847 61.2969 122.658 60.9988C122.002 59.9452 121.396 58.6729 120.869 57.2317C120.68 56.7148 120.948 56.1483 121.465 55.9594C121.982 55.7706 122.549 56.0389 122.738 56.5558C123.215 57.8777 123.761 59.0208 124.348 59.9551C124.636 60.4223 124.497 61.0385 124.03 61.3268C123.871 61.4262 123.682 61.4759 123.503 61.4759V61.4659ZM137.716 58.9612C137.488 58.9612 137.259 58.8816 137.07 58.7226C136.653 58.3648 136.603 57.7386 136.961 57.3211C137.905 56.2178 138.83 55.2239 139.724 54.3393C140.112 53.9516 140.748 53.9616 141.126 54.3492C141.513 54.7368 141.503 55.373 141.116 55.7507C140.261 56.5856 139.376 57.5497 138.472 58.6033C138.273 58.8319 137.995 58.9512 137.716 58.9512V58.9612ZM168.946 57.4503C168.638 57.4503 168.34 57.3112 168.151 57.0528C167.366 55.9992 166.521 55.045 165.637 54.21C165.239 53.8323 165.219 53.2062 165.597 52.8086C165.975 52.411 166.601 52.3911 166.998 52.7688C167.972 53.6833 168.897 54.7269 169.752 55.87C170.08 56.3073 169.99 56.9335 169.553 57.2615C169.374 57.3907 169.165 57.4603 168.956 57.4603L168.946 57.4503ZM117.967 52.2321C117.768 52.2321 117.559 52.1724 117.38 52.0432C116.456 51.3673 115.362 50.8405 114.12 50.4927C113.593 50.3436 113.285 49.787 113.434 49.2602C113.583 48.7334 114.14 48.4252 114.667 48.5743C116.128 48.9918 117.43 49.618 118.543 50.433C118.99 50.761 119.08 51.3773 118.762 51.8246C118.563 52.0929 118.265 52.2321 117.957 52.2321H117.967ZM145.936 51.8544C145.579 51.8544 145.241 51.6655 145.062 51.3276C144.803 50.8405 144.982 50.2442 145.469 49.9857C146.751 49.2999 148.034 48.8029 149.385 48.465C149.922 48.3258 150.459 48.6538 150.588 49.1806C150.717 49.7174 150.399 50.2541 149.872 50.3833C148.68 50.6815 147.537 51.1288 146.404 51.7351C146.254 51.8146 146.095 51.8544 145.936 51.8544ZM160.428 50.8604C160.319 50.8604 160.22 50.8405 160.11 50.8107C159.603 50.6418 159.076 50.5026 158.54 50.4032C157.804 50.2641 157.099 50.1448 156.423 50.0653C155.876 50.0056 155.488 49.5086 155.548 48.962C155.608 48.4153 156.115 48.0177 156.651 48.0873C157.377 48.1767 158.142 48.296 158.917 48.4451C159.534 48.5644 160.14 48.7234 160.736 48.9222C161.253 49.1011 161.541 49.6577 161.363 50.1845C161.223 50.602 160.836 50.8604 160.418 50.8604H160.428ZM103.584 50.7312C103.157 50.7312 102.759 50.4529 102.63 50.0156C102.471 49.4888 102.779 48.9421 103.306 48.7831C103.375 48.7632 105.045 48.2761 107.401 48.0475C107.928 47.9978 108.435 48.3954 108.484 48.9421C108.534 49.4888 108.136 49.9758 107.59 50.0255C105.433 50.2342 103.872 50.6815 103.862 50.6914C103.773 50.7213 103.673 50.7312 103.584 50.7312Z" fill="#13706D"/>
<path d="M55.2382 72.4989L41.3726 70.6004C40.7663 70.5209 40.2295 70.6998 39.9413 71.0974C39.3449 71.9224 39.9711 73.304 41.2135 73.8805L51.5507 78.7508" fill="white"/>
<path d="M51.5506 79.7547C51.4114 79.7547 51.2623 79.7249 51.1331 79.6553L40.796 74.785C39.812 74.3178 39.0466 73.4431 38.8081 72.479C38.6192 71.7534 38.7385 71.0576 39.146 70.5109C39.653 69.8152 40.5376 69.4872 41.5117 69.6164L55.3773 71.5148C55.924 71.5944 56.3017 72.0913 56.2321 72.638C56.1526 73.1847 55.6556 73.5624 55.109 73.4829L41.2433 71.5844C40.9849 71.5447 40.8059 71.6142 40.7463 71.6838C40.6867 71.7633 40.7165 71.9224 40.7364 71.9919C40.8159 72.31 41.1339 72.7473 41.6508 72.9859L51.9879 77.8563C52.4849 78.0948 52.6936 78.6813 52.465 79.1782C52.2961 79.5361 51.9382 79.7448 51.5605 79.7448L51.5506 79.7547Z" fill="#13706D"/>
<path d="M47.6941 84.0486L43.778 84.7642C42.9629 84.9133 42.4063 85.6588 42.4958 86.4838C42.5753 87.2491 43.1915 87.8455 43.9569 87.8952L48.2507 88.1934" fill="white"/>
<path d="M48.2408 89.1874C48.2408 89.1874 48.1911 89.1874 48.1713 89.1874L43.8774 88.8892C42.625 88.7997 41.6211 87.8356 41.4919 86.5832C41.3527 85.2613 42.2771 84.0288 43.5891 83.7902L47.5053 83.0746C48.052 82.9752 48.5589 83.333 48.6583 83.8697C48.7577 84.4065 48.3999 84.9233 47.8631 85.0227L43.9469 85.7384C43.6488 85.798 43.44 86.0763 43.4698 86.3745C43.4997 86.6627 43.7283 86.8814 44.0165 86.9013L48.3104 87.1995C48.8571 87.2392 49.2745 87.7163 49.2348 88.263C49.195 88.7898 48.7577 89.1874 48.2408 89.1874Z" fill="#13706D"/>
<path d="M52.3655 87.4579L52.8724 91.4039C52.9718 92.2189 52.435 92.9843 51.6299 93.1532C50.8745 93.3123 50.1191 92.9048 49.8408 92.1891L48.2505 88.1934" fill="white"/>
<path d="M51.2919 94.1869C50.2582 94.1869 49.294 93.5607 48.9064 92.5668L47.3161 88.5711C47.1173 88.0642 47.3658 87.4877 47.8727 87.279C48.3796 87.0802 48.9561 87.3286 49.1648 87.8356L50.7551 91.8313C50.8645 92.0996 51.1328 92.2487 51.4211 92.1891C51.7193 92.1295 51.9181 91.8412 51.8783 91.543L51.3813 87.597C51.3118 87.0503 51.6994 86.5534 52.2461 86.4838C52.7927 86.4142 53.2897 86.8019 53.3593 87.3485L53.8563 91.2945C54.0252 92.6165 53.1307 93.8689 51.8286 94.1372C51.6497 94.177 51.4708 94.1869 51.3018 94.1869H51.2919Z" fill="#13706D"/>
<path d="M48.2404 88.1934C47.3557 87.5473 47.1073 86.3447 47.6539 85.3905L55.039 72.7175C56.4504 70.3022 58.6172 68.4237 61.2115 67.3899C62.6726 66.8035 64.2331 67.9466 64.1238 69.517C63.925 72.31 62.7919 74.944 60.9133 77.0214L51.0831 87.8952C50.3475 88.7103 49.125 88.8295 48.2404 88.1835V88.1934Z" fill="white"/>
<path d="M49.5027 89.6048C48.8567 89.6048 48.2106 89.406 47.654 88.9985C46.3519 88.0443 45.9841 86.285 46.7992 84.8935L54.1743 72.2305C55.6851 69.6363 58.0507 67.5887 60.8437 66.4755C61.8476 66.0779 62.9708 66.2171 63.8455 66.8532C64.7202 67.4893 65.1973 68.5131 65.1177 69.5965C64.8991 72.5883 63.6666 75.4708 61.6588 77.6973L51.8286 88.5711C51.2123 89.2569 50.3675 89.6048 49.5027 89.6048ZM62.0067 68.2348C61.8675 68.2348 61.7184 68.2646 61.5793 68.3143C59.2037 69.2685 57.1761 71.0079 55.8939 73.2245L48.5187 85.8874C48.2205 86.3944 48.3597 87.0404 48.8268 87.3784C49.3039 87.7263 49.95 87.6567 50.3476 87.2193L60.1778 76.3455C61.8973 74.447 62.941 71.992 63.1298 69.4375C63.1597 69.0399 62.9907 68.6821 62.6726 68.4435C62.4738 68.2944 62.2452 68.2249 62.0166 68.2249L62.0067 68.2348Z" fill="#13706D"/>
<path d="M61.7286 77.25L67.7519 89.8832C68.0203 90.4398 68.0004 90.9964 67.7122 91.394C67.1158 92.219 65.605 92.0301 64.6707 91.0262L56.8979 82.6472" fill="white"/>
<path d="M66.5693 92.9047C65.635 92.9047 64.6411 92.4574 63.9354 91.702L56.1626 83.323C55.7849 82.9254 55.8148 82.2893 56.2123 81.9215C56.6099 81.5438 57.2461 81.5736 57.6138 81.9712L65.3865 90.3503C65.7742 90.7677 66.2612 90.9367 66.6091 90.9168C66.6787 90.9168 66.8377 90.8969 66.8974 90.8075C66.9471 90.7379 66.957 90.5491 66.8377 90.3105L60.8243 77.6773C60.5857 77.1804 60.7945 76.584 61.2915 76.3554C61.7884 76.1168 62.3848 76.3256 62.6134 76.8225L68.6368 89.4557C69.0642 90.3403 69.0145 91.2846 68.5076 91.9804C68.11 92.527 67.4738 92.855 66.7284 92.9047C66.6687 92.9047 66.619 92.9047 66.5594 92.9047H66.5693Z" fill="#13706D"/>
<path d="M59.6714 71.4552H59.6813C60.0988 71.5844 60.4467 71.8428 60.6952 72.2007" fill="white"/>
<path d="M60.695 73.1946C60.3769 73.1946 60.0589 73.0455 59.87 72.7573C59.7607 72.5883 59.5917 72.469 59.4029 72.4094C58.8761 72.2504 58.5679 71.7037 58.727 71.1769C58.886 70.6501 59.4227 70.3519 59.9495 70.501H59.9595C60.5956 70.6899 61.1522 71.0974 61.52 71.644C61.8281 72.1013 61.7088 72.7175 61.2516 73.0256C61.0827 73.1449 60.8839 73.1946 60.695 73.1946Z" fill="#13706D"/>
<path d="M44.9406 78.572C44.7319 78.572 44.5331 78.5123 44.3542 78.3831C43.9069 78.0551 43.8175 77.4389 44.1355 76.9916L45.1891 75.5503C45.5171 75.113 46.1334 75.0136 46.5807 75.3317C47.0279 75.6597 47.1174 76.2759 46.7993 76.7232L45.7457 78.1644C45.547 78.4328 45.2488 78.572 44.9406 78.572Z" fill="#13706D"/>
<path d="M59.7307 89.3862C59.5319 89.3862 59.3232 89.3266 59.1442 89.1974C58.697 88.8693 58.6075 88.2531 58.9256 87.8058L59.9792 86.3646C60.3072 85.9173 60.9234 85.8278 61.3707 86.1459C61.818 86.4739 61.9074 87.0902 61.5894 87.5375L60.5358 88.9787C60.337 89.2471 60.0388 89.3862 59.7307 89.3862Z" fill="#13706D"/>
<path d="M93.1475 90.1913V108.868L98.0874 102.725H106.655L93.1475 90.1913Z" fill="#AFE0DD"/>
<path d="M93.1477 110.359C92.9787 110.359 92.8197 110.329 92.6507 110.269C92.0543 110.06 91.6567 109.494 91.6567 108.868V90.1912C91.6567 89.5949 92.0046 89.0581 92.5513 88.8196C93.088 88.581 93.7242 88.6904 94.1615 89.0979L107.669 101.632C108.117 102.049 108.266 102.695 108.047 103.272C107.818 103.838 107.272 104.216 106.656 104.216H98.8033L94.3106 109.802C94.0224 110.16 93.5949 110.359 93.1477 110.359ZM94.6386 93.6104V104.633L96.9247 101.791C97.2129 101.443 97.6304 101.234 98.0876 101.234H102.859L94.6386 93.6104Z" fill="#AFE0DD"/>
<path d="M96.1592 83.8398V102.516L101.099 96.3736H109.667L96.1592 83.8398Z" fill="white"/>
<path d="M96.159 103.51C96.0497 103.51 95.9403 103.49 95.831 103.451C95.4334 103.311 95.165 102.934 95.165 102.516V83.8399C95.165 83.4423 95.4036 83.0845 95.7614 82.9255C96.1192 82.7664 96.5466 82.836 96.8349 83.1044L110.343 95.6381C110.641 95.9164 110.74 96.3538 110.591 96.7315C110.442 97.1092 110.074 97.3577 109.667 97.3577H101.576L96.9343 103.123C96.7454 103.361 96.4572 103.49 96.159 103.49V103.51ZM97.1529 86.1161V99.6935L100.324 95.7574C100.513 95.5189 100.801 95.3897 101.099 95.3897H107.132L97.1529 86.126V86.1161Z" fill="#13706D"/>
<path d="M38.2716 143.577C41.5268 143.577 44.1657 140.938 44.1657 137.682C44.1657 134.427 41.5268 131.788 38.2716 131.788C35.0163 131.788 32.3774 134.427 32.3774 137.682C32.3774 140.938 35.0163 143.577 38.2716 143.577Z" fill="#AFE0DD"/>
<path d="M38.2714 144.571C34.4745 144.571 31.3833 141.479 31.3833 137.682C31.3833 133.886 34.4745 130.794 38.2714 130.794C42.0683 130.794 45.1595 133.886 45.1595 137.682C45.1595 141.479 42.0683 144.571 38.2714 144.571ZM38.2714 132.792C35.5678 132.792 33.3712 134.989 33.3712 137.692C33.3712 140.396 35.5678 142.593 38.2714 142.593C40.975 142.593 43.1716 140.396 43.1716 137.692C43.1716 134.989 40.975 132.792 38.2714 132.792Z" fill="#13706D"/>
</svg>
