<svg width="120" height="92" viewBox="0 0 120 92" fill="none" xmlns="http://www.w3.org/2000/svg">
<g clip-path="url(#clip0_2371_175)">
<path d="M54.8 15H17.41C14.4221 15 12 17.4221 12 20.41C12 23.3979 14.4221 25.82 17.41 25.82H54.8C57.7879 25.82 60.21 23.3979 60.21 20.41C60.21 17.4221 57.7879 15 54.8 15Z" fill="#C0E6E3"/>
<path d="M102.73 16H81.94C78.9521 16 76.53 18.4221 76.53 21.41C76.53 24.3979 78.9521 26.82 81.94 26.82H102.73C105.718 26.82 108.14 24.3979 108.14 21.41C108.14 18.4221 105.718 16 102.73 16Z" fill="#ABDCD9"/>
<path d="M102.73 49H81.94C78.9521 49 76.53 51.4221 76.53 54.41C76.53 57.3979 78.9521 59.82 81.94 59.82H102.73C105.718 59.82 108.14 57.3979 108.14 54.41C108.14 51.4221 105.718 49 102.73 49Z" fill="#ABDCD9"/>
<path d="M61.01 32H17.41C14.4221 32 12 34.4221 12 37.41C12 40.3979 14.4221 42.82 17.41 42.82H61.01C63.9979 42.82 66.42 40.3979 66.42 37.41C66.42 34.4221 63.9979 32 61.01 32Z" fill="#C0E6E3"/>
<path d="M61.01 66H17.41C14.4221 66 12 68.4221 12 71.41C12 74.3979 14.4221 76.82 17.41 76.82H61.01C63.9979 76.82 66.42 74.3979 66.42 71.41C66.42 68.4221 63.9979 66 61.01 66Z" fill="#C0E6E3"/>
<path d="M52.27 49H17.41C14.4221 49 12 51.4221 12 54.41C12 57.3979 14.4221 59.82 17.41 59.82H52.27C55.2579 59.82 57.68 57.3979 57.68 54.41C57.68 51.4221 55.2579 49 52.27 49Z" fill="#C0E6E3"/>
<path d="M96.52 33H81.94C78.9521 33 76.53 35.4221 76.53 38.41C76.53 41.3979 78.9521 43.82 81.94 43.82H96.52C99.5079 43.82 101.93 41.3979 101.93 38.41C101.93 35.4221 99.5079 33 96.52 33Z" fill="#ABDCD9"/>
<path d="M96.52 66H81.94C78.9521 66 76.53 68.4221 76.53 71.41C76.53 74.3979 78.9521 76.82 81.94 76.82H96.52C99.5079 76.82 101.93 74.3979 101.93 71.41C101.93 68.4221 99.5079 66 96.52 66Z" fill="#ABDCD9"/>
<path d="M71.01 24.19H46.97C41.7343 24.19 37.49 28.4343 37.49 33.67V57.71C37.49 62.9457 41.7343 67.19 46.97 67.19H71.01C76.2457 67.19 80.49 62.9457 80.49 57.71V33.67C80.49 28.4343 76.2457 24.19 71.01 24.19Z" fill="white"/>
<path d="M71.01 68.19H46.97C41.19 68.19 36.49 63.49 36.49 57.71V33.67C36.49 27.89 41.19 23.19 46.97 23.19H71.01C76.79 23.19 81.49 27.89 81.49 33.67V57.71C81.49 63.49 76.79 68.19 71.01 68.19ZM46.97 25.19C42.29 25.19 38.49 28.99 38.49 33.67V57.71C38.49 62.39 42.29 66.19 46.97 66.19H71.01C75.68 66.19 79.49 62.39 79.49 57.71V33.67C79.49 29 75.69 25.19 71.01 25.19H46.97Z" fill="#13706D"/>
<path d="M70.67 28.27H47.31C44.1399 28.27 41.57 30.8399 41.57 34.01V57.37C41.57 60.5401 44.1399 63.11 47.31 63.11H70.67C73.8401 63.11 76.41 60.5401 76.41 57.37V34.01C76.41 30.8399 73.8401 28.27 70.67 28.27Z" fill="#DCF0EF"/>
<path d="M59.09 49.99C58.54 49.99 58.09 49.54 58.09 48.99V35.13C58.09 34.58 58.54 34.13 59.09 34.13C59.64 34.13 60.09 34.58 60.09 35.13V48.99C60.09 49.54 59.64 49.99 59.09 49.99Z" fill="#13706D"/>
<path d="M59.13 51.33C58.87 51.33 58.62 51.23 58.42 51.04L51.7 44.32C51.31 43.93 51.31 43.3 51.7 42.91C52.09 42.52 52.72 42.52 53.11 42.91L59.12 48.92L65.04 43C65.43 42.61 66.06 42.61 66.45 43C66.84 43.39 66.84 44.02 66.45 44.41L59.82 51.04C59.62 51.24 59.37 51.33 59.11 51.33H59.13Z" fill="#13706D"/>
<path d="M70.49 57.24H47.49C46.94 57.24 46.49 56.79 46.49 56.24V49.24C46.49 48.69 46.94 48.24 47.49 48.24C48.04 48.24 48.49 48.69 48.49 49.24V55.24H69.49V49.24C69.49 48.69 69.94 48.24 70.49 48.24C71.04 48.24 71.49 48.69 71.49 49.24V56.24C71.49 56.79 71.04 57.24 70.49 57.24Z" fill="#13706D"/>
</g>
<defs>
<clipPath id="clip0_2371_175">
<rect width="96.14" height="61.82" fill="white" transform="translate(12 15)"/>
</clipPath>
</defs>
</svg>
