<svg xmlns="http://www.w3.org/2000/svg" width="219" height="180" fill="none"><path fill="#E0F4F3" d="M106.988 12.487h4.691c57.401 0 104.008 46.606 104.008 104.007v24.59c0 14.612-11.858 26.469-26.469 26.469H29.45c-14.612 0-26.47-11.857-26.47-26.469v-24.59c0-57.4 46.607-104.007 104.008-104.007"/><path fill="#C4EAE7" d="M165.393 82.49c4.244 0 7.683 3.27 7.683 7.296v30.485c0 4.035-3.439 7.296-7.683 7.296H38.325c-4.244 0-7.683-3.271-7.683-7.296V89.786c0-4.035 3.44-7.295 7.683-7.295h115.389"/><path fill="#fff" d="M173.513 73.774c4.244 0 7.683 3.27 7.683 7.296v30.484c0 4.036-3.439 7.296-7.683 7.296H46.446c-4.244 0-7.683-3.27-7.683-7.296V81.07c0-4.036 3.439-7.296 7.683-7.296h115.388"/><path fill="#13706D" d="M173.513 119.854H46.446c-4.79 0-8.687-3.718-8.687-8.29V81.079c0-4.572 3.896-8.29 8.687-8.29h115.378c.547 0 .994.448.994.995a.997.997 0 0 1-.994.994H46.446c-3.688 0-6.7 2.832-6.7 6.301v30.485c0 3.479 3.002 6.302 6.7 6.302h127.067c3.688 0 6.699-2.833 6.699-6.302V81.079c0-3.478-3.001-6.301-6.699-6.301a.997.997 0 0 1-.994-.994c0-.547.447-.994.994-.994 4.791 0 8.687 3.717 8.687 8.29v30.484c0 4.572-3.896 8.29-8.687 8.29"/><path fill="#C4EAE7" d="M83.58 79.29v-5.506H47.62c-4.89 0-8.856 3.27-8.856 7.295v30.485c0 4.035 3.966 7.296 8.856 7.296h35.96V85.383"/><path fill="#13706D" d="M83.58 119.854H47.62c-5.437 0-9.86-3.718-9.86-8.29V81.079c0-4.572 4.423-8.29 9.86-8.29h35.96c.547 0 .994.448.994.995v5.506a.997.997 0 0 1-.994.994.997.997 0 0 1-.994-.994v-4.512H47.62c-4.334 0-7.872 2.832-7.872 6.301v30.485c0 3.479 3.528 6.302 7.872 6.302h34.967V85.383c0-.546.447-.994.994-.994s.994.448.994.994v33.477a.997.997 0 0 1-.994.994"/><path fill="#13706D" d="M50.73 97.102v-6.063h-.04l-1.133.785c-.208.149-.348.199-.566.199-.447 0-.785-.338-.785-.805 0-.338.129-.597.457-.825l1.72-1.173c.486-.328.874-.378 1.331-.378.835 0 1.322.497 1.322 1.292v6.958c0 .696-.457 1.143-1.153 1.143s-1.153-.447-1.153-1.143zm4.722.01c0-.438.179-.746.636-1.133l2.604-2.356c1.063-.974 1.352-1.392 1.352-1.978 0-.656-.507-1.123-1.233-1.123-.596 0-1.014.288-1.342.894-.288.448-.556.627-1.023.627-.597 0-.955-.348-.955-.915 0-.179.03-.338.09-.507.397-1.043 1.61-1.849 3.27-1.849 2.077 0 3.44 1.104 3.44 2.714 0 1.163-.597 1.839-2.038 3.14l-1.81 1.65v.04h3.151c.587 0 .925.349.925.885 0 .537-.338.895-.925.895h-5.049c-.745 0-1.083-.418-1.083-.994zm80.44.03v-.597h-3.101c-.835 0-1.402-.526-1.402-1.292 0-.447.139-.875.457-1.441.607-1.093 1.332-2.236 2.167-3.509.706-1.083 1.233-1.45 2.157-1.45 1.163 0 1.908.635 1.908 1.63v4.273h.358c.617 0 .925.378.925.905 0 .526-.318.894-.925.894h-.358v.597c0 .735-.457 1.103-1.093 1.103s-1.093-.368-1.093-1.103zm.059-6.55h-.039c-1.094 1.59-1.849 2.753-2.585 4.174v.06h2.634v-4.244zm5.199 5.745c-.378-.706-.597-1.65-.597-2.754 0-2.991 1.511-4.82 3.946-4.82 1.69 0 2.813.685 3.201 1.52.079.17.109.328.109.497 0 .497-.338.895-.944.895-.457 0-.716-.189-1.034-.507-.407-.437-.785-.616-1.342-.616-1.192 0-1.749 1.193-1.739 2.902v.1h.04c.348-.855 1.212-1.452 2.445-1.452 1.769 0 2.942 1.233 2.942 2.942 0 1.929-1.541 3.29-3.658 3.29-1.491 0-2.674-.636-3.389-1.997zm4.82-1.203c0-.835-.616-1.421-1.441-1.421s-1.481.576-1.481 1.391.636 1.441 1.461 1.441 1.451-.616 1.461-1.411m3.728-1.6c0-2.992 1.511-4.771 3.906-4.771s3.896 1.769 3.896 4.76c0 2.993-1.491 4.802-3.896 4.802s-3.906-1.82-3.906-4.791m5.447 0c0-1.998-.587-2.962-1.541-2.962s-1.551.974-1.551 2.962.597 3.001 1.551 3.001 1.541-1.004 1.541-2.991zM48.822 105.461v-3.439c0-.288.179-.447.427-.447.249 0 .428.149.428.447v1.938h.01l1.133-1.133c.109-.119.208-.169.338-.169.218 0 .377.159.377.368 0 .129-.04.209-.159.318l-.795.755.875 1.114c.09.129.119.198.119.308 0 .228-.169.387-.408.387-.178 0-.278-.059-.417-.268l-.805-1.064-.268.249v.636c0 .288-.18.447-.428.447s-.427-.149-.427-.447m3.36.984a.43.43 0 0 1-.06-.238c0-.179.13-.309.348-.309.11 0 .199.04.298.12.229.218.447.338.736.338.467 0 .735-.259.735-.646v-.497h-.02c-.149.338-.507.556-.964.556-.775 0-1.262-.596-1.262-1.55s.477-1.561 1.282-1.561c.447 0 .785.239.954.587h.02v-.169c0-.289.179-.428.427-.428.249 0 .418.139.418.428v2.634c0 .815-.587 1.302-1.59 1.292-.637 0-1.114-.249-1.312-.577zm2.057-2.197c0-.556-.278-.924-.696-.924s-.686.358-.686.924.259.905.686.905.696-.338.696-.905m2.951-.158c0-1.144.657-1.809 1.69-1.809.666 0 1.163.268 1.422.775q.09.163.09.328c0 .228-.16.378-.388.378-.2 0-.318-.08-.418-.279-.159-.328-.397-.487-.706-.487-.486 0-.795.418-.795 1.094 0 .675.309 1.103.795 1.103.328 0 .557-.159.706-.487.09-.189.199-.269.388-.269.248 0 .417.159.417.398 0 .089-.02.169-.06.258-.208.497-.765.815-1.44.815-1.074 0-1.72-.665-1.72-1.809zm3.808.009c0-1.113.666-1.809 1.729-1.809s1.73.696 1.73 1.809c0 1.114-.666 1.809-1.73 1.809-1.063 0-1.73-.695-1.73-1.809m2.554 0c0-.666-.328-1.093-.825-1.093s-.825.417-.825 1.093.318 1.084.825 1.084.825-.418.825-1.084m1.502 1.362c0-.169.07-.288.249-.437l1.004-.905c.407-.378.526-.537.526-.765 0-.249-.198-.428-.477-.428-.228 0-.387.11-.517.348-.109.169-.218.239-.397.239-.229 0-.368-.129-.368-.348 0-.07 0-.129.04-.199.149-.407.616-.706 1.252-.706.795 0 1.322.428 1.322 1.044 0 .447-.228.706-.785 1.213l-.696.636v.02h1.213c.228 0 .358.129.358.338 0 .208-.13.338-.358.338H65.48c-.289 0-.418-.159-.418-.378zm3.191-.924c0-.855.506-1.402 1.311-1.402.806 0 1.303.517 1.303 1.233 0 .218-.12.338-.348.338h-1.442v.049c0 .318.21.537.517.537.239 0 .398-.079.587-.268a.36.36 0 0 1 .268-.11c.18 0 .318.11.318.299a.4.4 0 0 1-.06.198c-.178.309-.606.497-1.123.497-.844 0-1.351-.516-1.351-1.371zm1.808-.318c-.01-.289-.208-.467-.477-.467a.483.483 0 0 0-.487.467zm60.681 1.222v-3.399c0-.288.159-.457.438-.457.278 0 .437.169.437.457v1.451h.03l1.58-1.729c.12-.13.229-.189.378-.189a.41.41 0 0 1 .417.407c0 .12-.039.219-.159.338l-1.163 1.213 1.263 1.53c.129.16.189.289.189.408a.42.42 0 0 1-.428.427c-.179 0-.298-.069-.437-.238l-1.252-1.541-.418.438v.884c0 .288-.159.457-.437.457-.279 0-.438-.169-.438-.457m4.105.02v-2.366c0-.288.169-.437.408-.437s.407.149.407.437v.199h.02a.92.92 0 0 1 .895-.626c.447 0 .765.229.875.636h.019c.14-.388.517-.636.974-.636.617 0 1.024.417 1.024 1.044v1.749c0 .288-.179.447-.427.447-.249 0-.418-.159-.418-.447v-1.541c0-.358-.179-.556-.507-.556s-.536.238-.536.586v1.511c0 .288-.159.447-.408.447s-.407-.159-.407-.447V103.9c0-.338-.189-.536-.507-.536s-.537.248-.537.596v1.501c0 .288-.179.447-.427.447-.249 0-.428-.159-.428-.447zm6.7-1.163c0-1.004.586-1.64 1.51-1.64.925 0 1.481.606 1.481 1.451 0 .239-.129.368-.367.368h-1.78v.04c0 .467.279.765.706.765.308 0 .517-.109.746-.378a.36.36 0 0 1 .278-.119c.179 0 .328.119.328.308q0 .104-.06.209c-.208.388-.686.616-1.292.616-.974 0-1.55-.606-1.55-1.61zm2.166-.338c-.019-.407-.278-.676-.656-.676-.377 0-.646.278-.675.676zm1.491 1.501v-2.376c0-.268.16-.427.408-.427s.427.159.427.427v.179h.02c.169-.387.477-.596.964-.596.696 0 1.084.437 1.084 1.173v1.63c0 .288-.179.447-.428.447-.248 0-.427-.149-.427-.447v-1.451c0-.408-.189-.636-.576-.636-.388 0-.627.278-.627.685v1.412c0 .288-.179.447-.427.447-.249 0-.427-.149-.427-.447zm5.785.01-.815-2.177a.8.8 0 0 1-.049-.248c0-.229.179-.378.427-.378.209 0 .348.109.408.338l.626 2.097h.02l.636-2.107c.059-.219.199-.328.397-.328.239 0 .418.159.418.378 0 .079-.02.169-.05.238l-.815 2.197c-.109.298-.288.437-.596.437-.328 0-.497-.129-.616-.437zm2.495-1.193c0-1.014.616-1.62 1.551-1.62s1.55.616 1.55 1.62-.606 1.63-1.55 1.63-1.551-.606-1.551-1.63m2.227 0c0-.616-.269-.974-.686-.974s-.686.358-.686.974.268.974.686.974c.417 0 .686-.348.686-.974m1.53-2.385c0-.249.199-.438.458-.438.258 0 .457.189.457.438 0 .248-.199.437-.457.437a.446.446 0 0 1-.458-.437m.03 3.568v-2.356c0-.278.159-.447.428-.447.268 0 .427.169.427.447v2.356c0 .278-.159.447-.427.447-.269 0-.428-.169-.428-.447m1.879-2.097h-.159c-.199 0-.328-.12-.328-.318 0-.199.129-.318.328-.318h.159v-.348c0-.279.159-.448.427-.448.269 0 .428.169.428.448v.348h.298c.199 0 .328.129.328.318 0 .188-.129.318-.328.318h-.298v1.491c0 .218.079.318.258.328h.06c.208.029.328.119.328.318 0 .248-.249.377-.607.377h-.029c-.567 0-.855-.278-.855-.835v-1.679zm2.117 1.371v-1.63c0-.288.179-.447.427-.447.249 0 .428.159.428.447v1.451c0 .418.208.637.586.637s.616-.269.616-.686v-1.402c0-.288.179-.447.428-.447.248 0 .427.159.427.447v2.366c0 .278-.169.427-.407.427-.239 0-.408-.149-.408-.427v-.189h-.02c-.159.388-.467.616-.934.616-.676 0-1.123-.437-1.123-1.163zm3.687.726v-2.376c0-.268.169-.427.408-.427s.398.159.398.427v.209h.019c.08-.388.338-.616.647-.616.109 0 .208.03.268.079.079.06.119.169.119.318 0 .13-.04.239-.119.309-.08.069-.209.109-.368.109-.387 0-.527.219-.527.596v1.382c0 .278-.169.447-.427.447s-.427-.159-.427-.447zm2.187-1.163c0-1.004.586-1.64 1.511-1.64s1.481.606 1.481 1.451c0 .239-.13.368-.368.368h-1.779v.04c0 .467.278.765.705.765.309 0 .517-.109.746-.378a.36.36 0 0 1 .278-.119c.179 0 .328.119.328.308q0 .104-.059.209c-.209.388-.686.616-1.293.616-.974 0-1.55-.606-1.55-1.61zm2.167-.338c-.02-.407-.279-.676-.656-.676-.378 0-.646.278-.676.676z"/><path fill="#AFE0DD" d="M101.859 97.838v2.296a2.13 2.13 0 0 0 2.127 2.127h18.428c.825 0 1.491-.666 1.491-1.491v-2.018a2.23 2.23 0 0 0-2.226-2.227h-3.668L116.5 92.55a3.52 3.52 0 0 0-3.28-2.267h-4.165a5.89 5.89 0 0 0-5.188 3.102l-1.69 3.14a2.7 2.7 0 0 0-.328 1.303z"/><path fill="#13706D" d="M122.414 103.245h-18.428a3.127 3.127 0 0 1-3.121-3.121v-2.296c0-.617.159-1.233.448-1.78l1.689-3.14a6.88 6.88 0 0 1 6.063-3.629h4.165a4.53 4.53 0 0 1 4.214 2.913l1.263 3.33h2.982a3.226 3.226 0 0 1 3.22 3.22v2.018a2.486 2.486 0 0 1-2.485 2.485zm-13.359-11.968a4.88 4.88 0 0 0-4.313 2.575l-1.69 3.14a1.8 1.8 0 0 0-.209.835v2.297c0 .626.507 1.133 1.133 1.133h18.428a.49.49 0 0 0 .497-.497v-2.018c0-.676-.546-1.233-1.232-1.233h-3.668a.98.98 0 0 1-.924-.646l-1.511-3.975a2.54 2.54 0 0 0-2.356-1.63h-4.165z"/><path fill="#fff" d="M106.71 105.918a2.614 2.614 0 1 0 0-5.227 2.614 2.614 0 0 0 0 5.227"/><path fill="#13706D" d="M106.71 106.912a3.614 3.614 0 0 1-3.608-3.608 3.614 3.614 0 0 1 3.608-3.608 3.614 3.614 0 0 1 3.608 3.608 3.614 3.614 0 0 1-3.608 3.608m0-5.228a1.621 1.621 0 1 0 0 3.242 1.621 1.621 0 0 0 0-3.242"/><path fill="#fff" d="M117.534 105.918a2.614 2.614 0 1 0 0-5.227 2.614 2.614 0 0 0 0 5.227"/><path fill="#13706D" d="M117.534 106.912a3.614 3.614 0 0 1-3.608-3.608 3.614 3.614 0 0 1 3.608-3.608 3.614 3.614 0 0 1 3.608 3.608 3.614 3.614 0 0 1-3.608 3.608m0-5.228a1.62 1.62 0 1 0 0 3.24 1.62 1.62 0 0 0 0-3.24"/><path fill="#fff" d="M118.021 96.526h-15.833l1.729-3.22a5.75 5.75 0 0 1 5.059-3.023h4.513c1.312 0 2.475.806 2.942 2.028l1.6 4.214z"/><path fill="#13706D" d="M118.021 97.52h-15.834a.98.98 0 0 1-.854-.488.99.99 0 0 1-.02-.984l1.729-3.22a6.73 6.73 0 0 1 5.934-3.549h4.513a4.15 4.15 0 0 1 3.866 2.674l1.6 4.215a.99.99 0 0 1-.924 1.342zm-14.174-1.989h12.733l-1.084-2.862a2.16 2.16 0 0 0-2.017-1.392h-4.513a4.75 4.75 0 0 0-4.184 2.495l-.945 1.75z"/><path fill="#13706D" d="M111.103 97.52a.997.997 0 0 1-.994-.995v-6.242c0-.546.447-.993.994-.993s.994.447.994.993v6.242a.997.997 0 0 1-.994.994"/><path fill="#fff" d="M83.948 104.487a8.12 8.12 0 1 0 0-16.242 8.12 8.12 0 0 0 0 16.242"/><path fill="#13706D" d="M83.948 105.481c-5.03 0-9.114-4.085-9.114-9.115s4.085-9.114 9.114-9.114 9.115 4.085 9.115 9.114-4.085 9.115-9.115 9.115m0-16.241c-3.926 0-7.127 3.2-7.127 7.126s3.2 7.127 7.127 7.127 7.127-3.201 7.127-7.127-3.2-7.126-7.127-7.126"/><path fill="#13706D" d="M85.995 95.561H81.92a.997.997 0 0 1-.994-.994c0-.546.448-.994.994-.994h4.075c.547 0 .994.448.994.994a.997.997 0 0 1-.994.994m0 3.529H81.92a.997.997 0 0 1-.994-.994c0-.547.448-.994.994-.994h4.075c.547 0 .994.447.994.994a.997.997 0 0 1-.994.994"/><path fill="#C4EAE7" d="M84.167 43.568a2.6 2.6 0 0 0 2.604-2.605 2.6 2.6 0 0 0-2.604-2.604H38.355a105 105 0 0 0-5.516 5.218h51.328zm68.374-2.605a2.6 2.6 0 0 0 2.604 2.604h30.673a105 105 0 0 0-5.516-5.218h-25.167a2.6 2.6 0 0 0-2.604 2.604zm43.793 15.099h-79.119a2.6 2.6 0 0 0-2.604 2.604 2.6 2.6 0 0 0 2.604 2.604h82.608a103 103 0 0 0-3.489-5.219zM99.106 40.963a2.6 2.6 0 0 0 2.604 2.605h35.862a2.6 2.6 0 0 0 2.604-2.605 2.6 2.6 0 0 0-2.604-2.604H101.71a2.6 2.6 0 0 0-2.604 2.604m.149 20.317a2.6 2.6 0 0 0 2.604-2.605 2.6 2.6 0 0 0-2.604-2.604H22.333q-1.82 2.55-3.49 5.219h80.412zm-80.351 92.497H6.22a26.6 26.6 0 0 0 3.747 5.218h8.936a2.6 2.6 0 0 0 2.604-2.604 2.6 2.6 0 0 0-2.604-2.604zm51.954-12.126a2.6 2.6 0 0 0-2.605-2.604H2.98v2.037c0 1.074.07 2.137.2 3.181h65.074a2.6 2.6 0 0 0 2.604-2.604zm77.737-2.614H86.463a2.604 2.604 0 0 0-2.605 2.604v.01a2.604 2.604 0 0 0 2.605 2.604h62.132a2.604 2.604 0 0 0 2.604-2.604v-.01a2.604 2.604 0 0 0-2.604-2.604m63.852 14.74H126.44a2.6 2.6 0 0 0-2.605 2.604 2.6 2.6 0 0 0 2.605 2.604h82.259a26 26 0 0 0 3.748-5.218zm-45.544-14.74a2.6 2.6 0 0 0-2.604 2.604 2.6 2.6 0 0 0 2.604 2.604h48.585c.129-1.044.199-2.107.199-3.181v-2.037h-48.784zM39.797 158.985h62.132a2.6 2.6 0 0 0 2.604-2.604 2.6 2.6 0 0 0-2.604-2.604H39.797a2.6 2.6 0 0 0-2.605 2.604 2.6 2.6 0 0 0 2.605 2.604"/></svg>