<svg width="220" height="180" viewBox="0 0 220 180" fill="none" xmlns="http://www.w3.org/2000/svg">
<path d="M107.654 12.8393H112.346C169.747 12.8393 216.353 59.4458 216.353 116.847V141.437C216.353 156.048 204.495 167.906 189.884 167.906H30.116C15.5048 167.906 3.64697 156.048 3.64697 141.437V116.847C3.64697 59.4458 50.2535 12.8393 107.654 12.8393Z" fill="#E0F4F3"/>
<path d="M107.128 155.352C129.541 155.352 147.711 137.183 147.711 114.769C147.711 92.3559 129.541 74.1862 107.128 74.1862C84.7141 74.1862 66.5444 92.3559 66.5444 114.769C66.5444 137.183 84.7141 155.352 107.128 155.352Z" fill="#AFE0DD"/>
<path d="M110.11 150.383C132.523 150.383 150.693 132.213 150.693 109.8C150.693 87.3861 132.523 69.2164 110.11 69.2164C87.6961 69.2164 69.5264 87.3861 69.5264 109.8C69.5264 132.213 87.6961 150.383 110.11 150.383Z" fill="white"/>
<path d="M110.109 151.367C87.1888 151.367 68.5322 132.72 68.5322 109.79C68.5322 86.8591 87.1788 68.2125 110.109 68.2125C133.04 68.2125 151.686 86.8591 151.686 109.79C151.686 132.72 133.04 151.367 110.109 151.367ZM110.109 70.2103C88.2821 70.2103 70.5201 87.9723 70.5201 109.8C70.5201 131.627 88.2821 149.389 110.109 149.389C131.937 149.389 149.699 131.627 149.699 109.8C149.699 87.9723 131.937 70.2103 110.109 70.2103Z" fill="#13706D"/>
<path d="M107.714 84.5432C124.691 84.5432 138.447 98.2995 138.447 115.276C138.447 118.606 137.911 121.807 136.936 124.808C139.431 120.365 140.853 115.256 140.853 109.8C140.853 92.8228 127.096 79.0665 110.12 79.0665C96.4726 79.0665 84.9228 87.9624 80.9072 100.258C86.1652 90.8746 96.2042 84.5332 107.724 84.5332L107.714 84.5432Z" fill="#E0F4F3"/>
<path d="M51.3469 103.885L50.1244 94.8703C49.9952 93.9261 50.6611 93.0613 51.6054 92.9321C52.5496 92.8029 53.4144 93.4688 53.5436 94.4131L54.5972 102.186L55.0643 105.595C55.5812 109.372 54.6767 113.209 52.5397 116.37C51.4762 117.94 50.0548 119.978 50.3033 121.846L56.0782 157.002C56.2869 158.543 55.2035 159.964 53.6629 160.173C52.1222 160.382 50.7009 159.298 50.4921 157.758L46.6952 122.333C46.4368 120.455 44.5185 118.874 43.0772 117.642C40.1749 115.167 38.2864 111.708 37.7795 107.921L37.3123 104.512L36.2587 96.739C36.1295 95.7947 36.7954 94.93 37.7397 94.8007C38.684 94.6715 39.5487 95.3375 39.6779 96.2817L40.9005 105.297C41.0297 106.241 41.8944 106.897 42.8387 106.778H42.8586C43.8028 106.649 44.4588 105.774 44.3396 104.84L43.117 95.8245C42.9878 94.8803 43.6537 94.0155 44.598 93.8863C45.5422 93.7571 46.407 94.423 46.5362 95.3673L47.7588 104.382C47.888 105.327 48.7527 105.983 49.697 105.863L49.8858 105.834C50.8301 105.704 51.4861 104.84 51.3668 103.895L51.3469 103.885Z" fill="#AFE0DD"/>
<path d="M163.922 80.3089L156.646 148.007C156.517 149.21 157.392 150.293 158.595 150.422C159.698 150.542 160.712 149.826 160.96 148.743L162.491 142.242C163.952 136.03 164.747 129.679 164.866 123.307L165.075 112.125C165.095 111.241 165.642 110.446 166.467 110.128C169.588 108.905 171.516 105.754 171.188 102.414L170.582 85.0401C170.353 82.7341 169.309 80.5872 167.65 78.967C166.338 77.6948 164.141 78.4899 163.942 80.3089H163.922Z" fill="#AFE0DD"/>
<path d="M110.109 141.517C105 141.517 99.9212 140.274 95.4185 137.918C94.9315 137.66 94.7426 137.064 95.0011 136.577C95.2595 136.09 95.8559 135.901 96.3429 136.159C100.557 138.366 105.318 139.529 110.109 139.529C126.509 139.529 139.848 126.19 139.848 109.79C139.848 93.3893 126.509 80.0505 110.109 80.0505C93.7089 80.0505 80.3701 93.3893 80.3701 109.79C80.3701 117.731 83.4613 125.206 89.087 130.822C89.4747 131.209 89.4747 131.835 89.087 132.223C88.6994 132.611 88.0732 132.611 87.6856 132.223C81.692 126.23 78.3921 118.258 78.3921 109.78C78.3921 92.286 92.6255 78.0526 110.119 78.0526C127.613 78.0526 141.846 92.286 141.846 109.78C141.846 127.273 127.613 141.507 110.119 141.507L110.109 141.517Z" fill="#13706D"/>
<path d="M163.495 85.3483L156.219 153.047C156.09 154.249 156.965 155.333 158.167 155.462C159.271 155.581 160.284 154.865 160.533 153.782L162.064 147.282C163.525 141.069 164.32 134.718 164.439 128.347L164.648 117.165C164.668 116.28 165.214 115.485 166.039 115.167C169.16 113.944 171.089 110.794 170.761 107.454L170.154 90.0795C169.926 87.7735 168.882 85.6266 167.222 84.0065C165.91 82.7342 163.714 83.5294 163.515 85.3483H163.495Z" fill="white"/>
<path d="M158.396 156.466C158.286 156.466 158.167 156.466 158.058 156.446C156.308 156.257 155.046 154.687 155.235 152.937L162.511 85.2389C162.64 84.0164 163.435 83.0025 164.598 82.5851C165.751 82.1676 167.013 82.436 167.898 83.2908C169.727 85.07 170.88 87.4356 171.128 89.9801L171.745 107.414C172.122 111.112 169.926 114.71 166.397 116.081C165.94 116.26 165.642 116.688 165.632 117.175L165.423 128.357C165.304 134.798 164.499 141.238 163.028 147.5L161.497 154.001C161.159 155.452 159.857 156.456 158.396 156.456V156.466ZM164.479 85.4576L157.203 153.156C157.133 153.812 157.611 154.408 158.267 154.478C158.853 154.537 159.42 154.15 159.559 153.563L161.089 147.063C162.531 140.93 163.316 134.629 163.435 128.337L163.644 117.155C163.664 115.863 164.459 114.72 165.672 114.243C168.365 113.189 170.055 110.436 169.757 107.553L169.14 90.1193C168.932 88.1115 167.997 86.1733 166.506 84.7221C166.169 84.3941 165.701 84.2947 165.264 84.4537C164.827 84.6128 164.528 84.9905 164.479 85.4477V85.4576Z" fill="#13706D"/>
<path d="M53.8518 100.377L52.6293 91.3617C52.5 90.4174 53.166 89.5527 54.1103 89.4234C55.0545 89.2942 55.9193 89.9602 56.0485 90.9044L57.1021 98.6772L57.5692 102.086C58.0861 105.863 57.1816 109.7 55.0446 112.861C53.981 114.431 52.5597 116.469 52.8082 118.338L58.583 153.494C58.7918 155.034 57.7084 156.456 56.1677 156.664C54.6271 156.873 53.2058 155.79 52.997 154.249L49.2001 118.825C48.9417 116.946 47.0234 115.366 45.5821 114.133C42.6798 111.658 40.7913 108.199 40.2843 104.412L39.8172 101.003L38.7636 93.2303C38.6344 92.286 39.3003 91.4213 40.2446 91.2921C41.1888 91.1629 42.0536 91.8288 42.1828 92.7731L43.4054 101.788C43.5346 102.732 44.3993 103.389 45.3436 103.269H45.3635C46.3077 103.14 46.9637 102.265 46.8444 101.331L45.6219 92.3159C45.4927 91.3716 46.1586 90.5069 47.1029 90.3776C48.0471 90.2484 48.9119 90.9144 49.0411 91.8586L50.2636 100.874C50.3929 101.818 51.2576 102.474 52.2019 102.355L52.3907 102.325C53.335 102.196 53.991 101.331 53.8717 100.387L53.8518 100.377Z" fill="white"/>
<path d="M55.7799 157.688C53.9013 157.688 52.2613 156.297 52.0028 154.388L48.196 118.934C48.0071 117.523 46.377 116.131 45.065 115.018L44.9259 114.899C41.8347 112.255 39.8368 108.587 39.2902 104.561L37.7694 93.3794C37.5706 91.8984 38.6143 90.5168 40.0953 90.318C41.5862 90.1093 42.9479 91.1629 43.1566 92.6439L44.3792 101.659C44.4289 102.057 44.7967 102.335 45.2042 102.285C45.6216 102.226 45.8999 101.858 45.8502 101.46L44.6277 92.4451C44.5283 91.7294 44.7171 91.0138 45.1545 90.4373C45.5918 89.8608 46.228 89.4831 46.9535 89.3936C47.6692 89.2942 48.3848 89.4831 48.9613 89.9204C49.5378 90.3578 49.9155 90.9939 50.005 91.7195L51.2275 100.735C51.2574 100.924 51.3568 101.102 51.5059 101.222C51.6549 101.341 51.8537 101.391 52.0426 101.361L52.2314 101.331C52.4203 101.301 52.5992 101.202 52.7185 101.053C52.8377 100.894 52.8874 100.705 52.8576 100.516L51.6351 91.5008C51.4363 90.0198 52.4799 88.6382 53.9609 88.4394C55.4419 88.2407 56.8235 89.2843 57.0223 90.7653L58.543 101.947C59.0897 105.973 58.1355 110.048 55.8594 113.418L55.76 113.577C54.7958 114.998 53.5932 116.777 53.7919 118.208L59.5569 153.335C59.8451 155.442 58.3741 157.37 56.2967 157.658C56.1277 157.678 55.9488 157.698 55.7799 157.698V157.688ZM40.463 92.2861C40.463 92.2861 40.3934 92.2861 40.3636 92.2861C39.966 92.3357 39.6877 92.7135 39.7374 93.111L41.2582 104.293C41.7353 107.832 43.5045 111.062 46.218 113.388L46.3572 113.507C47.9276 114.839 49.8758 116.509 50.174 118.695L53.9808 154.14C54.11 155.114 55.0344 155.81 56.0283 155.68C57.0223 155.541 57.728 154.627 57.5889 153.623L51.8239 118.497C51.5257 116.28 52.957 114.153 54.11 112.453L54.2094 112.304C56.2073 109.342 57.0521 105.764 56.5651 102.216L55.0443 91.0337C55.0145 90.8448 54.9151 90.6659 54.766 90.5466C54.607 90.4274 54.4181 90.3777 54.2293 90.4075C54.0305 90.4373 53.8615 90.5367 53.7422 90.6858C53.623 90.8448 53.5733 91.0337 53.6031 91.2225L54.8257 100.238C54.9251 100.953 54.7362 101.669 54.2989 102.245C53.8615 102.822 53.2254 103.2 52.4998 103.289L52.311 103.309C51.5953 103.408 50.8797 103.22 50.3032 102.782C49.7267 102.345 49.349 101.709 49.2595 100.983L48.037 91.968C48.0071 91.7791 47.9077 91.6002 47.7586 91.481C47.5996 91.3617 47.4108 91.312 47.2219 91.3418C47.0231 91.3716 46.8541 91.471 46.7349 91.6201C46.6156 91.7692 46.5659 91.968 46.5957 92.1568L47.8183 101.172C48.0171 102.653 46.9734 104.035 45.4924 104.233C44.7569 104.333 44.0413 104.144 43.4648 103.707C42.8883 103.269 42.5106 102.633 42.4211 101.908L41.1985 92.8924C41.1488 92.5246 40.8308 92.2562 40.473 92.2562L40.463 92.2861Z" fill="#13706D"/>
<path d="M126.033 103.766C125.913 103.766 125.774 103.736 125.655 103.687C125.595 103.667 125.536 103.637 125.486 103.597C125.426 103.567 125.377 103.518 125.337 103.478C125.237 103.379 125.168 103.269 125.118 103.15C125.068 103.031 125.039 102.901 125.039 102.772C125.039 102.514 125.148 102.255 125.337 102.067C125.377 102.027 125.426 101.977 125.486 101.947C125.536 101.908 125.595 101.878 125.655 101.858C125.903 101.758 126.172 101.758 126.42 101.858C126.539 101.908 126.649 101.977 126.738 102.067C126.828 102.166 126.907 102.275 126.957 102.395C127.007 102.514 127.026 102.643 127.026 102.772C127.026 102.901 127.007 103.031 126.957 103.15C126.907 103.269 126.828 103.379 126.738 103.478C126.649 103.567 126.539 103.637 126.42 103.687C126.291 103.746 126.172 103.766 126.033 103.766Z" fill="#13706D"/>
<path d="M189.884 167.896C191.037 167.896 192.17 167.817 193.283 167.668L200.768 130.712C199.704 130.871 198.571 130.673 197.587 130.086C197.1 129.798 196.633 129.599 196.206 129.47L188.423 167.896H189.894H189.884Z" fill="#C4EAE7"/>
<path d="M208.888 121.578L199.903 165.928C201.841 165.133 203.66 164.119 205.33 162.916L213.818 121.011C212.288 120.773 210.359 120.753 208.888 121.588V121.578Z" fill="#C4EAE7"/>
<path d="M216.353 139.459L213.55 153.275C215.339 149.707 216.353 145.691 216.353 141.427V139.449V139.459Z" fill="#C4EAE7"/>
<path d="M215.627 147.6C215.985 146.089 216.224 144.528 216.313 142.918L187.707 137.123C186.942 138.634 186.346 140.195 186.157 141.626L215.627 147.6Z" fill="#AFE0DD"/>
<path d="M216.353 136.656V131.836L203.481 129.231C203.402 129.311 203.322 129.4 203.243 129.48C201.732 130.991 199.416 131.17 197.577 130.086C194.675 128.377 192.707 129.699 192.707 129.699C192.707 129.699 192.081 130.424 191.216 131.577L216.343 136.666L216.353 136.656Z" fill="#AFE0DD"/>
<path d="M210.757 157.698C211.791 156.376 212.705 154.945 213.47 153.434L185.322 147.729C185.014 149.16 184.646 150.721 184.238 152.321L210.757 157.698Z" fill="#AFE0DD"/>
<path d="M198.79 166.356C201.165 165.511 203.382 164.328 205.39 162.877L182.628 158.265C182.151 159.945 181.694 161.505 181.306 162.817L198.79 166.356Z" fill="#AFE0DD"/>
<path d="M127.931 115.614C128.975 114.73 129.541 113.348 129.173 111.807C128.855 110.446 127.762 109.332 126.4 108.984C125.297 108.706 124.253 108.895 123.418 109.402C122.395 110.018 121.152 110.078 119.969 109.879C119.254 109.76 118.488 109.77 117.703 109.959C115.666 110.436 114.035 112.106 113.608 114.163C112.853 117.761 115.596 121.23 119.035 120.922C123.697 120.504 122.086 116.896 125.386 116.648" fill="#E0F4F3"/>
<path d="M118.608 121.926C116.948 121.926 115.357 121.2 114.195 119.888C112.773 118.288 112.187 116.071 112.634 113.944C113.141 111.499 115.049 109.551 117.485 108.975C118.379 108.766 119.274 108.736 120.138 108.885C121.272 109.074 122.206 108.965 122.912 108.537C124.025 107.871 125.357 107.682 126.649 108.01C128.368 108.448 129.74 109.839 130.148 111.569C130.575 113.378 129.988 115.167 128.577 116.36C128.16 116.717 127.533 116.658 127.176 116.24C126.818 115.823 126.867 115.197 127.295 114.839C128.13 114.123 128.468 113.099 128.219 112.016C127.981 111.022 127.166 110.177 126.172 109.929C125.168 109.68 124.412 109.959 123.945 110.237C122.822 110.913 121.431 111.112 119.82 110.833C119.214 110.734 118.578 110.754 117.952 110.903C116.292 111.29 114.95 112.672 114.602 114.342C114.284 115.843 114.701 117.423 115.705 118.556C116.57 119.53 117.753 120.027 118.975 119.908C120.993 119.729 121.46 118.944 122.047 117.94C122.613 116.976 123.319 115.783 125.347 115.624C125.893 115.584 126.37 115.992 126.41 116.539C126.45 117.085 126.042 117.562 125.496 117.602C124.502 117.682 124.253 118.099 123.756 118.944C123.09 120.067 122.186 121.608 119.154 121.876C118.985 121.896 118.807 121.896 118.638 121.896L118.608 121.926Z" fill="#13706D"/>
<path d="M180.143 167.638C180.044 167.638 179.945 167.618 179.845 167.588C179.318 167.419 179.03 166.862 179.199 166.346C179.259 166.157 185.093 147.51 185.093 142.55C185.093 137.074 191.693 129.37 191.972 129.042C192.031 128.973 192.101 128.913 192.17 128.864C192.27 128.794 194.695 127.224 198.094 129.221C199.575 130.096 201.414 129.907 202.547 128.774C204.277 127.045 205.469 125.265 206.096 123.476C206.583 122.105 207.477 121.101 208.749 120.504C211.95 118.994 216.492 120.614 216.681 120.683C217.198 120.872 217.466 121.439 217.278 121.956C217.089 122.472 216.522 122.741 216.005 122.552C215.966 122.542 212.039 121.141 209.594 122.303C208.809 122.681 208.272 123.278 207.964 124.142C207.239 126.21 205.887 128.237 203.939 130.176C202.16 131.955 199.337 132.273 197.071 130.931C195.102 129.778 193.721 130.275 193.343 130.464C192.498 131.478 187.061 138.147 187.061 142.54C187.061 147.808 181.326 166.147 181.078 166.932C180.949 167.359 180.551 167.628 180.134 167.628L180.143 167.638Z" fill="#13706D"/>
<path d="M115.755 104.571C117.012 104.571 118.031 103.552 118.031 102.295C118.031 101.038 117.012 100.019 115.755 100.019C114.498 100.019 113.479 101.038 113.479 102.295C113.479 103.552 114.498 104.571 115.755 104.571Z" fill="#E0F4F3"/>
<path d="M115.755 105.565C113.956 105.565 112.485 104.104 112.485 102.295C112.485 100.486 113.946 99.025 115.755 99.025C117.564 99.025 119.025 100.486 119.025 102.295C119.025 104.104 117.564 105.565 115.755 105.565ZM115.755 101.023C115.049 101.023 114.473 101.599 114.473 102.305C114.473 103.011 115.049 103.587 115.755 103.587C116.461 103.587 117.037 103.011 117.037 102.305C117.037 101.599 116.461 101.023 115.755 101.023Z" fill="#13706D"/>
<path d="M184.835 166.922C184.726 166.922 184.616 166.902 184.507 166.862C183.99 166.684 183.712 166.117 183.901 165.6C186.147 159.169 190.371 155.253 194.834 151.108C196.265 149.776 197.746 148.405 199.198 146.904C203.144 142.849 203.959 141.308 204.128 140.841C200.579 135.294 196.862 130.752 196.822 130.712C196.474 130.285 196.534 129.659 196.961 129.311C197.389 128.963 198.015 129.023 198.363 129.45C198.402 129.5 202.219 134.151 205.837 139.817C205.986 139.976 206.086 140.185 206.135 140.413C206.245 140.96 206.503 142.232 200.629 148.285C199.138 149.816 197.647 151.208 196.196 152.559C191.733 156.704 187.876 160.292 185.789 166.256C185.65 166.664 185.262 166.922 184.855 166.922H184.835ZM204.585 141.338C204.585 141.338 204.635 141.368 204.664 141.378C204.635 141.368 204.615 141.358 204.585 141.338Z" fill="#13706D"/>
<path d="M149.44 36.9526C149.44 38.1453 148.506 39.1095 147.363 39.1095H111.203C110.06 39.1095 109.125 38.1453 109.125 36.9526C109.125 35.7598 110.06 34.7957 111.203 34.7957H147.363C148.506 34.7957 149.44 35.7598 149.44 36.9526Z" fill="#AFE0DD"/>
<path d="M147.363 40.1034H111.203C109.513 40.1034 108.131 38.692 108.131 36.9526C108.131 35.2132 109.513 33.8018 111.203 33.8018H147.363C149.052 33.8018 150.434 35.2132 150.434 36.9526C150.434 38.692 149.052 40.1034 147.363 40.1034ZM111.203 35.7897C110.606 35.7897 110.119 36.3065 110.119 36.9526C110.119 37.5987 110.606 38.1155 111.203 38.1155H147.363C147.959 38.1155 148.446 37.5987 148.446 36.9526C148.446 36.3065 147.959 35.7897 147.363 35.7897H111.203Z" fill="#13706D"/>
<path d="M134.243 56.4639C134.243 57.6567 133.308 58.6208 132.165 58.6208H111.203C110.06 58.6208 109.125 57.6567 109.125 56.4639C109.125 55.2712 110.06 54.3071 111.203 54.3071H132.165C133.308 54.3071 134.243 55.2712 134.243 56.4639Z" fill="#AFE0DD"/>
<path d="M132.165 59.6148H111.203C109.513 59.6148 108.131 58.2034 108.131 56.4639C108.131 54.7245 109.513 53.3131 111.203 53.3131H132.165C133.855 53.3131 135.236 54.7245 135.236 56.4639C135.236 58.2034 133.855 59.6148 132.165 59.6148ZM111.203 55.301C110.606 55.301 110.119 55.8179 110.119 56.4639C110.119 57.11 110.606 57.6269 111.203 57.6269H132.165C132.762 57.6269 133.249 57.11 133.249 56.4639C133.249 55.8179 132.762 55.301 132.165 55.301H111.203Z" fill="#13706D"/>
<path d="M140.206 46.5244C140.206 47.7171 139.272 48.6813 138.129 48.6813H111.203C110.06 48.6813 109.125 47.7171 109.125 46.5244C109.125 45.3316 110.06 44.3675 111.203 44.3675H138.129C139.272 44.3675 140.206 45.3316 140.206 46.5244Z" fill="#AFE0DD"/>
<path d="M138.129 49.6752H111.203C109.513 49.6752 108.131 48.2638 108.131 46.5244C108.131 44.7849 109.513 43.3735 111.203 43.3735H138.129C139.819 43.3735 141.2 44.7849 141.2 46.5244C141.2 48.2638 139.819 49.6752 138.129 49.6752ZM111.203 45.3614C110.606 45.3614 110.119 45.8783 110.119 46.5244C110.119 47.1704 110.606 47.6873 111.203 47.6873H138.129C138.725 47.6873 139.212 47.1704 139.212 46.5244C139.212 45.8783 138.725 45.3614 138.129 45.3614H111.203Z" fill="#13706D"/>
<path d="M92.9735 37.9962H68.8105C67.0099 37.9962 65.5503 39.4559 65.5503 41.2564V61.881C65.5503 63.6815 67.0099 65.1411 68.8105 65.1411H92.9735C94.774 65.1411 96.2337 63.6815 96.2337 61.881V41.2564C96.2337 39.4559 94.774 37.9962 92.9735 37.9962Z" fill="#AFE0DD"/>
<path d="M96.9496 33.1358H72.7865C70.986 33.1358 69.5264 34.5954 69.5264 36.396V57.0205C69.5264 58.8211 70.986 60.2807 72.7865 60.2807H96.9496C98.7501 60.2807 100.21 58.8211 100.21 57.0205V36.396C100.21 34.5954 98.7501 33.1358 96.9496 33.1358Z" fill="white"/>
<path d="M76.0862 47.24V41.1769H76.0464L74.9133 41.9621C74.7046 42.1112 74.5654 42.1609 74.3467 42.1609C73.8995 42.1609 73.5615 41.823 73.5615 41.3558C73.5615 41.0179 73.6907 40.7595 74.0187 40.5309L75.7383 39.358C76.2253 39.03 76.613 38.9803 77.0702 38.9803C77.9051 38.9803 78.3921 39.4773 78.3921 40.2724V47.2301C78.3921 47.9259 77.9349 48.3732 77.2392 48.3732C76.5434 48.3732 76.0862 47.9259 76.0862 47.2301V47.24Z" fill="#13706D"/>
<path d="M80.7974 47.24C80.7974 46.8027 80.9763 46.4946 81.4335 46.1069L84.0376 43.7513C85.1012 42.7772 85.3894 42.3597 85.3894 41.7733C85.3894 41.1173 84.8825 40.6501 84.1569 40.6501C83.5606 40.6501 83.1431 40.9384 82.8151 41.5447C82.5268 41.992 82.2585 42.1709 81.7913 42.1709C81.1949 42.1709 80.8371 41.823 80.8371 41.2564C80.8371 41.0775 80.8669 40.9185 80.9266 40.7495C81.3242 39.7059 82.5368 38.9008 84.1967 38.9008C86.2741 38.9008 87.6358 40.004 87.6358 41.6143C87.6358 42.7772 87.0394 43.4531 85.5982 44.7551L83.7892 46.4051V46.4449H86.94C87.5264 46.4449 87.8644 46.7928 87.8644 47.3295C87.8644 47.8662 87.5264 48.224 86.94 48.224H81.8907C81.1452 48.224 80.8073 47.8066 80.8073 47.2301L80.7974 47.24Z" fill="#13706D"/>
<path d="M74.4858 55.4501V52.011C74.4858 51.7228 74.6648 51.5637 74.9132 51.5637C75.1617 51.5637 75.3406 51.7228 75.3406 52.011V53.9492H75.3506L76.4837 52.8161C76.593 52.6968 76.6924 52.6471 76.8216 52.6471C77.0403 52.6471 77.1993 52.8062 77.1993 53.0149C77.1993 53.1441 77.1596 53.2236 77.0403 53.333L76.2451 54.0884L77.1198 55.2016C77.2093 55.3308 77.2391 55.4004 77.2391 55.5097C77.2391 55.7383 77.0701 55.8974 76.8316 55.8974C76.6527 55.8974 76.5533 55.8377 76.4141 55.629L75.609 54.5655L75.3406 54.814V55.4501C75.3406 55.7383 75.1617 55.8974 74.9132 55.8974C74.6648 55.8974 74.4858 55.7483 74.4858 55.4501Z" fill="#13706D"/>
<path d="M77.8453 56.4341C77.7956 56.3546 77.7856 56.2751 77.7856 56.1956C77.7856 56.0167 77.9149 55.8874 78.1335 55.8874C78.2429 55.8874 78.3323 55.9272 78.4317 56.0067C78.6603 56.2254 78.879 56.3447 79.1672 56.3447C79.6344 56.3447 79.9028 56.0962 79.9028 55.6986V55.2016H79.8829C79.7338 55.5396 79.376 55.7582 78.9188 55.7582C78.1435 55.7582 77.6465 55.1618 77.6465 54.2077C77.6465 53.2535 78.1236 52.6471 78.9287 52.6471C79.376 52.6471 79.7139 52.8857 79.8829 53.2336H79.9028V53.0646C79.9028 52.7764 80.0817 52.6372 80.3302 52.6372C80.5787 52.6372 80.7576 52.7764 80.7576 53.0646V55.6986C80.7576 56.5136 80.1711 57.0007 79.1672 56.9907C78.5311 56.9907 78.054 56.7422 77.8552 56.4142L77.8453 56.4341ZM79.9028 54.2375C79.9028 53.6709 79.6245 53.3131 79.207 53.3131C78.7895 53.3131 78.5212 53.6709 78.5212 54.2375C78.5212 54.804 78.7796 55.142 79.207 55.142C79.6344 55.142 79.9028 54.804 79.9028 54.2375Z" fill="#13706D"/>
<path d="M82.8451 54.0784C82.8451 52.9354 83.5011 52.2694 84.5348 52.2694C85.2007 52.2694 85.6977 52.5378 85.9561 53.0348C86.0158 53.1441 86.0456 53.2534 86.0456 53.3628C86.0456 53.5914 85.8866 53.7405 85.658 53.7405C85.4592 53.7405 85.3399 53.6609 85.2405 53.4622C85.0815 53.1342 84.8429 52.9751 84.5348 52.9751C84.0478 52.9751 83.7396 53.3926 83.7396 54.0685C83.7396 54.7444 84.0478 55.1718 84.5348 55.1718C84.8529 55.1718 85.0914 55.0127 85.2405 54.6847C85.33 54.4959 85.4393 54.4164 85.6281 54.4164C85.8766 54.4164 86.0456 54.5754 86.0456 54.8139C86.0456 54.9034 86.0257 54.9829 85.986 55.0724C85.7772 55.5693 85.2206 55.8874 84.5447 55.8874C83.4713 55.8874 82.8252 55.2215 82.8252 54.0784H82.8451Z" fill="#13706D"/>
<path d="M86.6616 54.0884C86.6616 52.9751 87.3276 52.2794 88.3911 52.2794C89.4546 52.2794 90.1206 52.9751 90.1206 54.0884C90.1206 55.2016 89.4546 55.8974 88.3911 55.8974C87.3276 55.8974 86.6616 55.2016 86.6616 54.0884ZM89.2061 54.0884C89.2061 53.4224 88.8781 52.995 88.3812 52.995C87.8842 52.995 87.5562 53.4125 87.5562 54.0884C87.5562 54.7642 87.8842 55.1718 88.3812 55.1718C88.8781 55.1718 89.2061 54.7543 89.2061 54.0884Z" fill="#13706D"/>
<path d="M90.707 55.4501C90.707 55.2811 90.7766 55.1619 90.9555 55.0128L91.9594 54.1083C92.3669 53.7306 92.4763 53.5715 92.4763 53.3429C92.4763 53.0944 92.2775 52.9155 91.9992 52.9155C91.7706 52.9155 91.6115 53.0249 91.4823 53.2634C91.373 53.4324 91.2637 53.502 91.0847 53.502C90.8561 53.502 90.717 53.3727 90.717 53.1541C90.717 53.0845 90.717 53.0249 90.7567 52.9553C90.9058 52.5478 91.373 52.2496 92.0091 52.2496C92.8043 52.2496 93.3311 52.677 93.3311 53.2932C93.3311 53.7405 93.1025 53.9989 92.5459 54.5058L91.8501 55.142V55.1619H93.0627C93.2913 55.1619 93.4205 55.2911 93.4205 55.4998C93.4205 55.7085 93.2913 55.8377 93.0627 55.8377H91.1245C90.8363 55.8377 90.707 55.6787 90.707 55.46V55.4501Z" fill="#13706D"/>
<path d="M93.9079 54.5257C93.9079 53.6709 94.4148 53.1242 95.2199 53.1242C96.025 53.1242 96.522 53.6411 96.522 54.3567C96.522 54.5754 96.4027 54.6947 96.1741 54.6947H94.7329V54.7444C94.7329 55.0624 94.9416 55.2811 95.2597 55.2811C95.4982 55.2811 95.6572 55.2016 95.8461 55.0127C95.9356 54.9332 96.0051 54.9034 96.1145 54.9034C96.2934 54.9034 96.4325 55.0127 96.4325 55.2016C96.4325 55.2711 96.4127 55.3308 96.3729 55.4004C96.194 55.7085 95.7666 55.8973 95.2497 55.8973C94.4049 55.8973 93.8979 55.3805 93.8979 54.5257H93.9079ZM95.7069 54.2076C95.697 53.9194 95.4982 53.7405 95.2298 53.7405C94.9615 53.7405 94.7627 53.9392 94.7428 54.2076H95.7069Z" fill="#13706D"/>
</svg>
