<svg xmlns="http://www.w3.org/2000/svg" width="220" height="180" fill="none"><path fill="#DCF0EF" d="M112.36 12h-4.72c-25.01 0-47.98 8.78-65.98 23.43.08.18.16.37.22.58.6 2.24 3.24 3.22 5.15 1.9 2.58-1.77 5.96.62 5.16 3.64-.6 2.24 1.2 4.4 3.51 4.22 3.12-.24 4.85 3.52 2.64 5.73-1.64 1.64-1.16 4.41.93 5.41 2.82 1.35 2.44 5.48-.58 6.29-2.24.6-3.22 3.24-1.9 5.15 1.77 2.58-.62 5.96-3.64 5.16-2.24-.6-4.4 1.2-4.22 3.51.24 3.12-3.52 4.85-5.73 2.64-1.64-1.64-4.41-1.16-5.41.93-1.35 2.82-5.48 2.44-6.29-.58-.6-2.24-3.24-3.22-5.15-1.9-2.58 1.77-5.96-.62-5.16-3.64.6-2.24-1.2-4.4-3.51-4.22-1.36.11-2.46-.55-3.08-1.52-7.4 14.35-11.58 30.63-11.58 47.9v24.74c0 14.71 11.92 26.63 26.63 26.63H190.4c14.71 0 26.63-11.92 26.63-26.63v-24.74c0-57.79-46.85-104.64-104.64-104.64zM37.41 134.4l-1.47.8a4 4 0 0 0-1.84 2.13l-.99 2.64c-.19.5-.65.82-1.18.82s-.99-.32-1.18-.82l-.99-2.65c-.34-.91-.99-1.66-1.84-2.13l-1.47-.8c-.4-.22-.66-.64-.66-1.1s.25-.88.65-1.1l1.47-.8a4 4 0 0 0 1.84-2.13l.99-2.64c.19-.5.65-.82 1.18-.82s.99.32 1.18.82l.99 2.64c.34.91.99 1.66 1.84 2.13l1.47.8a1.254 1.254 0 0 1 0 2.2zm30.24-31.41-1.8 1.8c-.69.69-1.82.69-2.51 0l-1.8-1.8a1.78 1.78 0 0 1 0-2.51l1.8-1.8a1.78 1.78 0 0 1 2.51 0l1.8 1.8c.69.69.69 1.82 0 2.51m15.61-56.82-1.87 1.02a4.85 4.85 0 0 0-2.23 2.57l-1.25 3.36c-.27.73-.96 1.21-1.74 1.21s-1.46-.47-1.74-1.21l-1.25-3.36c-.41-1.1-1.2-2.01-2.23-2.57l-1.87-1.02c-.6-.33-.96-.95-.96-1.63s.37-1.3.96-1.62l1.87-1.02a4.85 4.85 0 0 0 2.23-2.57l1.25-3.36c.27-.73.96-1.21 1.74-1.21s1.46.47 1.74 1.21l1.25 3.36c.41 1.1 1.2 2.01 2.23 2.57l1.87 1.02c.59.32.96.95.96 1.62 0 .68-.37 1.3-.96 1.63m117.01 52.66.54-.54a1.78 1.78 0 0 1 2.51 0l.54.54c.69.69.69 1.82 0 2.51l-.54.54c-.69.69-1.82.69-2.51 0l-.54-.54a1.78 1.78 0 0 1 0-2.51m-48.8-56.23-1.8 1.8c-.69.69-1.82.69-2.51 0l-1.8-1.8a1.78 1.78 0 0 1 0-2.51l1.8-1.8a1.78 1.78 0 0 1 2.51 0l1.8 1.8c.69.69.69 1.82 0 2.51m10.43 107.74-1.8 1.8c-.69.69-1.82.69-2.51 0l-1.8-1.8a1.78 1.78 0 0 1 0-2.51l1.8-1.8a1.78 1.78 0 0 1 2.51 0l1.8 1.8c.69.69.69 1.82 0 2.51m42.18-19.15-5.64 1.14a3.5 3.5 0 0 0-2.75 2.88l-1.27 8.22c-.1.65-.63 1.1-1.29 1.1-.65 0-1.18-.55-1.27-1.2l-1.25-8.12a3.5 3.5 0 0 0-2.75-2.88l-5.55-1.12c-.61-.12-1.12-.64-1.13-1.27 0-.64.41-1.16 1.04-1.28l5.64-1.14a3.5 3.5 0 0 0 2.75-2.88l1.25-8.12c.1-.64.62-1.19 1.27-1.2.66 0 1.19.44 1.29 1.09l1.27 8.22a3.5 3.5 0 0 0 2.75 2.88l5.55 1.12c.62.12 1.12.64 1.13 1.27 0 .64-.41 1.16-1.04 1.28z"/><path fill="#13706D" d="m43.67 53.33-3.9-.36-.03-3.9a2.59 2.59 0 0 0-2.35-2.56c-1.33-.13-2.51.86-2.64 2.19l-.03.31c-.1 1.08-.45 2.14-1.03 3.06l-1.13 1.82c-.32-.25-.71-.41-1.12-.45l-2.47-.23c-1.16-.11-2.19.75-2.3 1.91l-.8 8.66c-.11 1.16.75 2.19 1.91 2.3l2.47.23c.63.06 1.23-.16 1.68-.6.55.54 1.26.87 2.03.94l7.65.7c1.72.16 3.27-1 3.6-2.7l1.42-7.35c.02-.11.04-.22.05-.33a3.36 3.36 0 0 0-3.03-3.65zm-7.21-4.15.03-.31a.69.69 0 0 1 .74-.62c.43.04.76.4.77.83l.04 4.69c0 .45.34.82.79.86l4.69.43c.89.08 1.54.87 1.46 1.75 0 .05-.01.11-.02.16l-1.42 7.35c-.16.82-.9 1.37-1.73 1.3l-7.65-.7c-.89-.08-1.54-.87-1.46-1.75l.66-7.22 1.84-2.96a8.8 8.8 0 0 0 1.28-3.82zm-8.05 6.12c.02-.2.2-.35.4-.34l2.47.23c.2.02.35.2.34.4l-.8 8.66c-.02.2-.2.35-.4.34l-2.47-.23c-.2-.02-.35-.2-.34-.4z"/><path fill="#ABDCD9" d="m28.415 55.294-.795 8.654a.37.37 0 0 0 .334.402l2.48.228a.37.37 0 0 0 .402-.335l.795-8.653a.37.37 0 0 0-.334-.403l-2.48-.227a.37.37 0 0 0-.402.334"/><path fill="#fff" d="M64.82 149.45 90.4 95.86c.66-1.38 2.53-1.6 3.49-.41l28.641 35.27c.91 1.12.43 2.81-.94 3.27l-54.02 18.55c-1.88.64-3.6-1.29-2.75-3.08z"/><path fill="#13706D" d="M66.82 153.66c-.9 0-1.76-.38-2.4-1.09-.88-.99-1.08-2.35-.5-3.55L89.5 95.43c.46-.96 1.36-1.6 2.41-1.73 1.05-.12 2.08.29 2.75 1.12l28.631 35.27c.63.78.85 1.82.57 2.79s-1.01 1.74-1.96 2.06l-54.02 18.55q-.54.18-1.08.18zm25.46-57.99h-.13c-.37.04-.68.27-.84.61l-25.58 53.59c-.33.69.06 1.21.19 1.36.13.14.61.6 1.33.35l54.021-18.55c.34-.12.59-.38.69-.72s.03-.7-.2-.98l-28.63-35.27c-.21-.26-.51-.4-.83-.4z"/><path fill="#fff" d="m160.419 114.19-2.09 1.87c-.3.27-.45.66-.39 1.06l.36 2.78c.13 1-.94 1.71-1.82 1.21l-2.43-1.41c-.35-.2-.77-.22-1.13-.05l-2.54 1.2c-.91.43-1.92-.37-1.71-1.35l.59-2.74c.08-.39-.03-.8-.3-1.09l-1.93-2.04c-.69-.73-.24-1.94.76-2.05l2.79-.29c.4-.04.75-.28.94-.63l1.35-2.46c.48-.88 1.77-.83 2.18.09l1.14 2.57c.16.37.49.63.89.7l2.76.52c.99.19 1.34 1.43.59 2.1z"/><path fill="#13706D" d="M157.09 122.29c-.38 0-.77-.1-1.11-.3l-2.43-1.41a.18.18 0 0 0-.2 0l-2.54 1.2c-.77.36-1.66.26-2.33-.27a2.19 2.19 0 0 1-.79-2.2l.59-2.75c.01-.07 0-.14-.05-.19l-1.93-2.04c-.58-.62-.76-1.5-.47-2.29.3-.8 1-1.35 1.85-1.43l2.79-.29c.07 0 .13-.05.17-.11l1.34-2.46c.41-.75 1.17-1.2 2.04-1.15.85.04 1.59.54 1.93 1.32l1.14 2.57c.03.07.09.11.16.13l2.76.52c.84.16 1.5.76 1.73 1.58s-.02 1.68-.66 2.25l-2.09 1.87c-.05.05-.08.12-.07.19l.36 2.78c.11.84-.26 1.66-.97 2.13-.37.25-.8.37-1.23.37zm-3.65-3.74c.38 0 .77.1 1.11.3l2.43 1.41c.08.05.15.04.23 0s.11-.12.09-.21l-.36-2.78c-.09-.72.18-1.45.72-1.93l2.09-1.87c.07-.06.09-.13.06-.22-.02-.09-.08-.14-.17-.16l-2.76-.52c-.72-.13-1.32-.61-1.62-1.28l-1.14-2.57a.22.22 0 0 0-.19-.13.195.195 0 0 0-.2.11l-1.35 2.46a2.2 2.2 0 0 1-1.72 1.14l-2.79.29c-.09 0-.15.06-.18.14s-.02.16.05.22l1.93 2.04c.5.53.71 1.27.55 1.99l-.59 2.75c-.02.09 0 .16.08.21.07.06.15.06.23.03l2.54-1.2c.3-.14.62-.21.95-.21z"/><path fill="#fff" d="m129.55 61.44 3.3 1.61c.3.15.65.14.94-.03l3.2-1.81c.73-.41 1.62.19 1.51 1.03l-.51 3.64c-.05.33.07.66.32.89l2.71 2.48c.62.57.32 1.6-.51 1.75l-3.62.64c-.33.06-.61.27-.75.58l-1.52 3.34c-.35.77-1.43.8-1.82.06l-1.73-3.24c-.16-.3-.45-.49-.78-.53l-3.65-.42c-.84-.1-1.2-1.11-.62-1.71l2.55-2.64c.23-.24.33-.58.26-.91l-.73-3.6c-.17-.83.68-1.48 1.44-1.12z"/><path fill="#13706D" d="M133.69 77.14c-.75 0-1.42-.41-1.78-1.07l-1.73-3.24-3.66-.42a2 2 0 0 1-1.67-1.32 2 2 0 0 1 .45-2.08l2.55-2.64-.73-3.61c-.15-.76.13-1.52.74-2a2.01 2.01 0 0 1 2.12-.22l3.3 1.61 3.21-1.81a2 2 0 0 1 2.13.09c.64.43.97 1.18.86 1.95l-.51 3.64 2.71 2.5c.57.52.79 1.31.57 2.05a2 2 0 0 1-1.58 1.42l-3.62.64-1.53 3.35c-.32.7-1 1.15-1.77 1.18h-.06zm-4.59-14.81.72 3.62c.13.65-.06 1.33-.53 1.8l-2.55 2.64 3.66.44c.66.08 1.24.47 1.55 1.05l1.73 3.24 1.55-3.34c.28-.6.83-1.03 1.49-1.15l3.61-.64-2.7-2.51c-.49-.45-.73-1.11-.63-1.77l.51-3.63-3.22 1.79c-.58.33-1.28.35-1.87.06l-3.3-1.61zm-6.109 20.12a1.007 1.007 0 0 1-.77-1.65l4.23-4.98c.36-.42.99-.47 1.41-.12.42.36.47.99.12 1.41l-4.23 4.98c-.2.23-.48.35-.76.35zm-15.821 18.64a1.007 1.007 0 0 1-.77-1.65l11.89-14.01c.36-.42.99-.47 1.41-.12.42.36.47.99.12 1.41l-11.89 14.01c-.2.23-.48.35-.76.35zm31.97 18.58a.997.997 0 0 1-.32-1.94l4.08-1.42a.993.993 0 0 1 1.27.62.993.993 0 0 1-.62 1.27l-4.08 1.42a1 1 0 0 1-.33.06zm-13.4 4.66a.997.997 0 0 1-.32-1.94l8.74-3.04a.993.993 0 0 1 1.27.62.993.993 0 0 1-.62 1.27l-8.74 3.04a1 1 0 0 1-.33.06zm-1.36-18.7a1 1 0 0 1-.91-1.41c.08-.18 8.17-17.55 30.68-7.93 20.69 8.84 27.8-4.48 28.09-5.05a.998.998 0 0 1 1.78.9c-.08.16-8.19 15.59-30.66 5.99-20.66-8.83-27.78 6.27-28.07 6.91-.17.37-.53.59-.91.59M100.329 91a1 1 0 0 1-.66-.25 1 1 0 0 1-.1-1.41c.27-.31 6.53-7.65 1.29-12.65-3.89-3.71-5.63-6.71-5.65-9.72-.02-2.57 1.26-5.08 3.91-7.69a.996.996 0 0 1 1.41.01c.39.39.38 1.03-.01 1.41-2.25 2.21-3.33 4.25-3.31 6.25.02 2.4 1.62 5.03 5.03 8.29 5.3 5.06 1.56 12.29-1.16 15.41-.2.23-.47.34-.75.34z"/><path fill="#C0E6E3" d="M106.309 58.02a3.69 3.69 0 1 0 0-7.38 3.69 3.69 0 0 0 0 7.38"/><path fill="#13706D" d="M106.309 59.02c-2.58 0-4.69-2.1-4.69-4.69a4.69 4.69 0 1 1 4.69 4.69m0-7.38c-1.48 0-2.69 1.21-2.69 2.69s1.21 2.69 2.69 2.69 2.69-1.21 2.69-2.69-1.21-2.69-2.69-2.69"/><path fill="#C0E6E3" d="M188.651 85.14a3.69 3.69 0 1 0 0-7.38 3.69 3.69 0 0 0 0 7.38"/><path fill="#13706D" d="M188.651 86.14a4.69 4.69 0 1 1 0-9.38 4.69 4.69 0 0 1 0 9.38m0-7.38c-1.48 0-2.69 1.21-2.69 2.69s1.21 2.69 2.69 2.69 2.69-1.21 2.69-2.69-1.21-2.69-2.69-2.69"/><path fill="#C0E6E3" d="m92.94 143.82 15.81-5.43-8.82-35.52-6.04-7.43c-.96-1.18-2.83-.96-3.49.41l-5.66 11.86 8.19 36.11z"/><path fill="#13706D" d="M92.94 144.82c-.17 0-.34-.04-.49-.13-.25-.14-.42-.38-.49-.65l-8.19-36.11c-.05-.22-.02-.45.07-.65l5.66-11.86c.46-.96 1.36-1.6 2.41-1.73 1.05-.12 2.08.29 2.75 1.12l6.04 7.43c.09.11.16.25.19.39l8.82 35.52c.12.5-.16 1.02-.65 1.19l-15.81 5.43c-.11.04-.21.05-.32.05zm-7.14-36.99 7.87 34.68 13.89-4.77-8.55-34.42-5.89-7.26c-.24-.29-.6-.43-.96-.39-.37.04-.68.27-.84.61l-5.51 11.55z"/><path fill="#C0E6E3" d="m73.259 131.76-8.44 17.68c-.86 1.79.87 3.73 2.75 3.08l9.56-3.28-3.87-17.49z"/><path fill="#13706D" d="M66.82 153.66c-.9 0-1.76-.38-2.4-1.09a3.2 3.2 0 0 1-.51-3.55l8.44-17.68a1 1 0 0 1 1.88.22l3.87 17.49c.11.5-.17 1-.65 1.16l-9.56 3.28q-.54.18-1.08.18zm6.09-18.84-7.19 15.06c-.33.69.07 1.21.19 1.36.13.14.6.6 1.33.35l8.72-2.99z"/></svg>