<svg xmlns="http://www.w3.org/2000/svg" width="219" height="179" fill="none"><path fill="#E0F4F3" d="M106.988 11.928h4.691c57.401 0 104.007 46.606 104.007 104.007v24.59c0 14.611-11.857 26.469-26.469 26.469H29.449c-14.61 0-26.469-11.858-26.469-26.469v-24.59c0-57.401 46.607-104.008 104.008-104.008"/><path fill="#13706D" d="M45.253 56.536a1.3 1.3 0 0 1-.11-.527c0-.576.388-.944 1.015-.944.437 0 .725.16.954.527.338.566.745.904 1.61.904.795 0 1.352-.467 1.352-1.123 0-.765-.567-1.173-1.58-1.173h-.22c-.546 0-.834-.318-.834-.785s.288-.785.835-.785h.208c.885 0 1.432-.437 1.432-1.094 0-.656-.457-1.053-1.243-1.053-.646 0-1.073.268-1.351.805-.259.487-.537.666-1.044.666-.626 0-.954-.378-.954-.904 0-.2.03-.358.109-.547.358-.885 1.431-1.74 3.22-1.74 1.978 0 3.41.905 3.41 2.446 0 1.162-.845 1.908-1.889 2.117v.04c1.372.139 2.246.914 2.246 2.146 0 1.7-1.47 2.803-3.757 2.803-1.938 0-3.051-.884-3.409-1.769z"/><path fill="#AFE0DD" d="M115.685 107.278h-18.15a7.893 7.893 0 0 1-7.892-7.893v-42.47a7.89 7.89 0 0 1 7.892-7.892h30.186a7.89 7.89 0 0 1 7.892 7.892v42.471a7.89 7.89 0 0 1-7.892 7.893m46.587 39.926h-18.149a7.89 7.89 0 0 1-7.892-7.892V96.841a7.89 7.89 0 0 1 7.892-7.892h30.186a7.89 7.89 0 0 1 7.892 7.892v42.472a7.893 7.893 0 0 1-7.892 7.892m-129.791 0h-18.15a7.893 7.893 0 0 1-7.891-7.892V96.841a7.89 7.89 0 0 1 7.892-7.892H68.59a7.89 7.89 0 0 1 7.892 7.892v42.472a7.89 7.89 0 0 1-7.892 7.892"/><path fill="#fff" d="M32.332 140.028a7.89 7.89 0 0 1-7.892-7.892V89.665a7.89 7.89 0 0 1 7.892-7.892h30.186a7.89 7.89 0 0 1 7.892 7.892v42.471a7.89 7.89 0 0 1-7.892 7.892h-19.85"/><path fill="#13706D" d="M62.518 141.022h-19.85a.997.997 0 0 1-.993-.994c0-.546.447-.994.994-.994h19.85a6.9 6.9 0 0 0 6.897-6.898V89.665c0-3.807-3.101-6.898-6.898-6.898H32.332a6.9 6.9 0 0 0-6.898 6.898v42.471c0 3.807 3.1 6.898 6.898 6.898.546 0 .994.448.994.994a.997.997 0 0 1-.994.994c-4.9 0-8.886-3.985-8.886-8.886V89.665c0-4.9 3.985-8.886 8.886-8.886h30.186c4.9 0 8.886 3.985 8.886 8.886v42.471c0 4.901-3.986 8.886-8.886 8.886"/><path fill="#AFE0DD" d="M136.379 167.471v-38.416a7.893 7.893 0 0 0-7.892-7.892H98.3a7.893 7.893 0 0 0-7.892 7.892v38.416h45.981z"/><path fill="#fff" d="M109.333 100.648h-18.15a7.89 7.89 0 0 1-7.891-7.892V50.284a7.89 7.89 0 0 1 7.892-7.892h30.186a7.89 7.89 0 0 1 7.892 7.892v42.472a7.89 7.89 0 0 1-7.892 7.892"/><path fill="#13706D" d="M121.37 101.642a.997.997 0 0 1-.994-.994c0-.547.447-.994.994-.994a6.9 6.9 0 0 0 6.898-6.898V50.284a6.9 6.9 0 0 0-6.898-6.898H91.184a6.9 6.9 0 0 0-6.898 6.898v42.472c0 3.807 3.1 6.898 6.898 6.898h18.149c.547 0 .994.447.994.994a.997.997 0 0 1-.994.994h-18.15c-4.9 0-8.885-3.986-8.885-8.886V50.284c0-4.9 3.986-8.886 8.886-8.886h30.186c4.9 0 8.886 3.986 8.886 8.886v42.472c0 4.9-3.986 8.886-8.886 8.886m-82.538 21.787v-.596h-3.101c-.835 0-1.401-.527-1.401-1.292 0-.448.139-.875.457-1.441.606-1.094 1.332-2.237 2.167-3.509.705-1.084 1.232-1.451 2.146-1.451 1.163 0 1.909.636 1.909 1.63v4.274h.358c.616 0 .924.377.924.904s-.318.895-.924.895h-.358v.596c0 .736-.457 1.104-1.093 1.104-.637 0-1.104-.368-1.104-1.104zm.06-6.55h-.04c-1.093 1.59-1.849 2.753-2.584 4.175v.059h2.634v-4.244zm5.198 5.745c-.378-.706-.596-1.65-.596-2.753 0-2.992 1.51-4.821 3.946-4.821 1.69 0 2.813.686 3.2 1.521.08.169.12.328.12.497 0 .497-.338.895-.945.895-.457 0-.715-.189-1.033-.507-.408-.438-.786-.617-1.342-.617-1.193 0-1.75 1.193-1.74 2.903v.099h.04c.348-.855 1.223-1.451 2.445-1.451 1.77 0 2.942 1.232 2.942 2.942 0 1.928-1.54 3.29-3.657 3.29-1.491 0-2.674-.636-3.4-1.998zm4.82-1.203c0-.834-.615-1.421-1.44-1.421s-1.481.577-1.481 1.392.636 1.441 1.46 1.441c.826 0 1.452-.616 1.462-1.412m3.727-1.6c0-2.992 1.511-4.771 3.906-4.771s3.897 1.769 3.897 4.761-1.491 4.801-3.897 4.801-3.906-1.819-3.906-4.791m5.457 0c0-1.998-.587-2.962-1.54-2.962-.955 0-1.551.974-1.551 2.962s.596 3.002 1.55 3.002 1.541-1.004 1.541-2.992z"/><path fill="#13706D" d="M96.561 84.079v-6.063h-.04l-1.133.785c-.209.149-.348.198-.566.198-.448 0-.786-.337-.786-.805 0-.338.13-.596.458-.825l1.72-1.172c.486-.328.874-.378 1.331-.378.835 0 1.322.497 1.322 1.292v6.958c0 .695-.457 1.143-1.153 1.143s-1.153-.448-1.153-1.143zm4.632-3.569c0-2.992 1.511-4.77 3.906-4.77s3.896 1.769 3.896 4.76c0 2.992-1.491 4.801-3.896 4.801s-3.906-1.819-3.906-4.79m5.457 0c0-1.998-.587-2.962-1.551-2.962s-1.55.974-1.55 2.962.596 3.002 1.55 3.002 1.551-1.004 1.551-2.992zm3.866-.001c0-2.992 1.511-4.77 3.906-4.77s3.897 1.769 3.897 4.76c0 2.992-1.491 4.801-3.897 4.801s-3.906-1.819-3.906-4.79m5.457 0c0-1.998-.586-2.962-1.541-2.962-.954 0-1.55.974-1.55 2.962s.596 3.002 1.55 3.002 1.541-1.004 1.541-2.992z"/><path fill="#fff" d="M83.292 167.68v-45.453a7.89 7.89 0 0 1 7.892-7.892h30.186a7.89 7.89 0 0 1 7.892 7.892v42.471a7.89 7.89 0 0 1-7.892 7.892"/><path fill="#13706D" d="M121.37 173.584a.997.997 0 0 1-.994-.994c0-.546.447-.994.994-.994a6.9 6.9 0 0 0 6.898-6.898v-42.471a6.9 6.9 0 0 0-6.898-6.898H91.184a6.9 6.9 0 0 0-6.898 6.898v45.453a.997.997 0 0 1-.994.994.997.997 0 0 1-.994-.994v-45.453c0-4.901 3.986-8.886 8.886-8.886h30.186c4.9 0 8.886 3.985 8.886 8.886v42.471c0 4.9-3.986 8.886-8.886 8.886"/><path fill="#fff" d="M142.144 103.719V89.665a7.89 7.89 0 0 1 7.892-7.892h30.186a7.89 7.89 0 0 1 7.892 7.892v42.471a7.89 7.89 0 0 1-7.892 7.892h-30.186a7.89 7.89 0 0 1-7.892-7.892v-14.482"/><path fill="#13706D" d="M180.232 141.022h-30.186c-4.9 0-8.886-3.985-8.886-8.886v-14.482c0-.546.447-.994.994-.994s.994.448.994.994v14.482a6.9 6.9 0 0 0 6.898 6.898h30.186a6.9 6.9 0 0 0 6.898-6.898V89.665c0-3.807-3.101-6.898-6.898-6.898h-30.186a6.9 6.9 0 0 0-6.898 6.898v14.054a.997.997 0 0 1-.994.994.997.997 0 0 1-.994-.994V89.665c0-4.9 3.986-8.886 8.886-8.886h30.186c4.9 0 8.886 3.985 8.886 8.886v42.471c0 4.901-3.986 8.886-8.886 8.886m-77.419 17.991a1.3 1.3 0 0 1-.119-.527c0-.576.387-.944 1.014-.944.437 0 .725.159.954.527.338.566.745.904 1.61.904.795 0 1.352-.467 1.352-1.123 0-.765-.567-1.173-1.581-1.173h-.218c-.547 0-.835-.318-.835-.785s.288-.785.835-.785h.208c.895 0 1.432-.438 1.432-1.094s-.458-1.053-1.243-1.053c-.646 0-1.073.268-1.352.805-.258.487-.536.666-1.043.666-.626 0-.954-.378-.954-.905 0-.199.029-.358.119-.546.358-.885 1.431-1.74 3.22-1.74 1.978 0 3.41.905 3.41 2.445 0 1.163-.845 1.909-1.889 2.117v.04c1.372.139 2.246.915 2.246 2.147 0 1.7-1.471 2.803-3.757 2.803-1.938 0-3.051-.885-3.409-1.769zm-7.087-66.575v-3.44c0-.288.179-.447.427-.447.249 0 .428.16.428.448v1.938h.01l1.133-1.133c.11-.12.209-.17.338-.17.219 0 .378.16.378.369 0 .129-.04.208-.16.318l-.795.755.875 1.113c.09.13.12.2.12.308 0 .229-.17.388-.408.388-.18 0-.279-.06-.418-.268l-.805-1.064-.268.249v.636c0 .288-.179.447-.428.447-.248 0-.427-.149-.427-.447m3.36.984a.43.43 0 0 1-.06-.239c0-.179.13-.308.348-.308.11 0 .199.04.298.12.229.218.447.337.736.337.467 0 .735-.248.735-.646v-.497h-.02c-.149.338-.507.557-.964.557-.775 0-1.262-.596-1.262-1.55s.477-1.561 1.282-1.561c.447 0 .785.238.954.586h.02v-.169c0-.288.179-.427.427-.427.249 0 .418.139.418.427v2.634c0 .815-.587 1.302-1.59 1.292-.636 0-1.114-.248-1.312-.576zm2.057-2.197c0-.566-.278-.924-.696-.924s-.686.358-.686.924.259.905.686.905.696-.338.696-.905m2.952-.159c0-1.143.656-1.809 1.69-1.809.666 0 1.163.268 1.421.765q.09.165.09.328c0 .23-.159.378-.388.378-.199 0-.318-.08-.417-.278-.159-.328-.398-.487-.706-.487-.487 0-.795.417-.795 1.093s.308 1.103.795 1.103c.328 0 .557-.159.706-.487.089-.188.198-.268.387-.268.249 0 .418.16.418.398a.6.6 0 0 1-.06.258c-.209.497-.765.815-1.441.815-1.074 0-1.72-.666-1.72-1.809zm3.807.01c0-1.113.666-1.809 1.729-1.809s1.73.696 1.73 1.81c0 1.112-.666 1.808-1.73 1.808-1.063 0-1.729-.696-1.729-1.809m2.554 0c0-.666-.328-1.093-.825-1.093s-.824.417-.824 1.093.318 1.084.824 1.084c.507 0 .825-.418.825-1.084m1.501 1.362c0-.17.07-.288.249-.438l1.004-.904c.407-.378.527-.537.527-.765 0-.249-.199-.428-.478-.428-.228 0-.387.11-.516.348-.11.169-.219.239-.398.239-.229 0-.368-.13-.368-.348 0-.07 0-.13.04-.2.149-.407.616-.705 1.252-.705.796 0 1.322.428 1.322 1.044 0 .447-.228.706-.785 1.212l-.696.637v.02h1.213c.229 0 .358.129.358.337 0 .21-.129.338-.358.338h-1.938c-.288 0-.418-.159-.418-.377zm3.191-.925c0-.854.507-1.401 1.312-1.401s1.302.517 1.302 1.232c0 .22-.119.338-.348.338h-1.441v.05c0 .318.209.537.517.537.238 0 .397-.08.586-.269a.36.36 0 0 1 .269-.109c.178 0 .318.11.318.298 0 .07-.02.13-.06.2-.179.307-.606.496-1.123.496-.845 0-1.352-.517-1.352-1.372zm1.809-.318c-.01-.288-.209-.467-.477-.467a.483.483 0 0 0-.487.467zM101.61 16.33v-6.062h-.039l-1.134.785c-.208.149-.347.199-.566.199-.447 0-.785-.338-.785-.806 0-.338.129-.596.457-.825l1.719-1.172c.487-.328.875-.378 1.332-.378.835 0 1.322.497 1.322 1.292v6.958c0 .695-.457 1.143-1.153 1.143-.695 0-1.153-.447-1.153-1.143zm4.722.01c0-.437.178-.745.636-1.133l2.604-2.355c1.063-.974 1.352-1.392 1.352-1.978 0-.656-.507-1.123-1.233-1.123-.596 0-1.014.288-1.342.894-.288.447-.556.626-1.023.626-.597 0-.955-.347-.955-.914 0-.179.03-.338.09-.507.397-1.044 1.61-1.849 3.27-1.849 2.077 0 3.439 1.104 3.439 2.714 0 1.163-.596 1.839-2.038 3.14l-1.809 1.65v.04h3.151c.587 0 .925.348.925.885s-.338.895-.925.895h-5.049c-.746 0-1.083-.418-1.083-.994zm54.13 41.011v-6.063h-.039l-1.134.785c-.208.15-.347.2-.566.2-.447 0-.785-.339-.785-.806 0-.338.129-.596.457-.825l1.719-1.173c.487-.328.875-.378 1.332-.378.835 0 1.322.497 1.322 1.293v6.957c0 .696-.457 1.143-1.153 1.143-.695 0-1.153-.447-1.153-1.143zm4.722.01c0-.437.179-.745.636-1.133l2.604-2.356c1.063-.974 1.362-1.391 1.362-1.978 0-.656-.507-1.123-1.233-1.123-.596 0-1.014.288-1.342.895-.288.447-.566.626-1.033.626-.597 0-.955-.348-.955-.915 0-.178.03-.337.1-.506.397-1.044 1.61-1.85 3.27-1.85 2.077 0 3.439 1.104 3.439 2.714 0 1.163-.596 1.84-2.038 3.141l-1.809 1.65v.04h3.151c.587 0 .925.348.925.885 0 .536-.338.894-.925.894h-5.049c-.746 0-1.083-.417-1.083-.994z"/><path fill="#13706D" d="M160.462 123.39v-6.064h-.039l-1.134.786c-.208.149-.347.198-.566.198-.447 0-.785-.338-.785-.805 0-.338.129-.596.457-.825l1.719-1.173c.487-.328.875-.377 1.332-.377.835 0 1.322.497 1.322 1.292v6.958c0 .695-.457 1.143-1.153 1.143-.695 0-1.153-.448-1.153-1.143zm4.722.009c0-.437.179-.745.636-1.133l2.604-2.355c1.063-.974 1.362-1.392 1.362-1.978 0-.656-.507-1.123-1.233-1.123-.596 0-1.014.288-1.342.894-.288.447-.566.626-1.033.626-.597 0-.955-.348-.955-.914 0-.179.03-.338.1-.507.397-1.044 1.61-1.849 3.27-1.849 2.077 0 3.439 1.103 3.439 2.714 0 1.163-.596 1.838-2.038 3.141l-1.809 1.65v.039h3.151c.587 0 .925.348.925.885s-.338.894-.925.894h-5.049c-.746 0-1.083-.417-1.083-.993zM70.41 173.584a.997.997 0 0 1-.994-.994v-14.412c0-3.807-3.101-6.898-6.898-6.898H32.332a6.9 6.9 0 0 0-6.898 6.898v14.412a.997.997 0 0 1-.994.994.997.997 0 0 1-.994-.994v-14.412c0-4.9 3.985-8.886 8.886-8.886h30.186c4.9 0 8.886 3.986 8.886 8.886v14.412a.997.997 0 0 1-.994.994M62.518 72.509H32.332c-4.9 0-8.886-3.986-8.886-8.886V48.366c0-.547.447-.994.994-.994s.994.447.994.994v15.257c0 3.807 3.1 6.898 6.898 6.898h30.186a6.9 6.9 0 0 0 6.898-6.898V18.17c0-.547.447-.995.994-.995s.994.448.994.994v45.454c0 4.9-3.986 8.886-8.886 8.886M121.37 31.11H91.184c-4.9 0-8.886-3.985-8.886-8.885v-9.81c0-.547.447-.994.994-.994s.994.447.994.994v9.81c0 3.807 3.1 6.898 6.898 6.898h30.186a6.9 6.9 0 0 0 6.898-6.898V9.572c0-.547.447-.994.994-.994s.994.447.994.994v12.653c0 4.9-3.986 8.886-8.886 8.886m58.862 41.398h-30.186c-4.9 0-8.886-3.986-8.886-8.886V21.151c0-.546.447-.994.994-.994s.994.448.994.994v42.472a6.9 6.9 0 0 0 6.898 6.898h30.186a6.9 6.9 0 0 0 6.898-6.898v-21.23c0-.547.447-.995.994-.995s.994.447.994.994v21.231c0 4.9-3.986 8.886-8.886 8.886m7.892 101.075a.997.997 0 0 1-.994-.994v-14.412c0-3.807-3.101-6.898-6.898-6.898h-30.186a6.9 6.9 0 0 0-6.898 6.898v14.412a.997.997 0 0 1-.994.994.997.997 0 0 1-.994-.994v-14.412c0-4.9 3.986-8.886 8.886-8.886h30.186c4.9 0 8.886 3.986 8.886 8.886v14.412a.997.997 0 0 1-.994.994"/><path fill="#AFE0DD" d="M115.307 54.439a6.8 6.8 0 0 0-3.399.298 7.45 7.45 0 0 0-5.795-2.425 7.485 7.485 0 0 0-7.117 6.371c-1.024-.318-2.157-.358-3.41.378-1.46.855-2.444 2.425-2.355 4.115a4.456 4.456 0 0 0 4.612 4.194 4.43 4.43 0 0 0 3.549-2.017 7.42 7.42 0 0 0 5.278 1.908 7.5 7.5 0 0 0 3.389-.964 6.7 6.7 0 0 0 4.363 1.411c4.105-.149 7.197-3.966 6.272-8.18-.576-2.614-2.753-4.662-5.387-5.1z"/><path fill="#13706D" d="M114.184 68.712a7.66 7.66 0 0 1-4.195-1.252 8.3 8.3 0 0 1-3.27.795 8.5 8.5 0 0 1-5.158-1.52 5.4 5.4 0 0 1-3.668 1.62c-2.952.099-5.467-2.187-5.636-5.13-.11-1.968 1.004-3.946 2.843-5.029 1.014-.596 2.047-.825 3.15-.696a8.48 8.48 0 0 1 7.843-6.192 8.48 8.48 0 0 1 6.113 2.296 7.6 7.6 0 0 1 3.28-.15c3.041.508 5.536 2.864 6.202 5.865a7.76 7.76 0 0 1-1.411 6.411 7.69 7.69 0 0 1-5.795 2.982zm-4.115-3.4c.219 0 .437.07.616.21a5.68 5.68 0 0 0 3.717 1.202 5.66 5.66 0 0 0 4.294-2.206c1.054-1.362 1.422-3.052 1.044-4.761-.487-2.217-2.336-3.956-4.582-4.324a5.64 5.64 0 0 0-2.902.258.995.995 0 0 1-1.074-.268c-1.292-1.412-3.161-2.187-5.029-2.107a6.49 6.49 0 0 0-6.173 5.526.99.99 0 0 1-.457.696 1.05 1.05 0 0 1-.825.11c-.964-.299-1.77-.21-2.604.277-1.203.706-1.938 1.969-1.869 3.201.11 1.869 1.72 3.35 3.578 3.25a3.44 3.44 0 0 0 2.754-1.57.98.98 0 0 1 .705-.437.98.98 0 0 1 .796.248 6.45 6.45 0 0 0 4.572 1.66 6.4 6.4 0 0 0 2.942-.835.94.94 0 0 1 .487-.13z"/><path fill="#AFE0DD" d="M37.202 98.282v2.296a2.13 2.13 0 0 0 2.127 2.127h18.428c.825 0 1.49-.666 1.49-1.491v-2.017a2.23 2.23 0 0 0-2.225-2.227h-3.668l-1.511-3.976a3.52 3.52 0 0 0-3.28-2.266h-4.165a5.89 5.89 0 0 0-5.188 3.101l-1.69 3.141a2.7 2.7 0 0 0-.328 1.302z"/><path fill="#13706D" d="M57.767 103.699H39.339a3.126 3.126 0 0 1-3.121-3.121v-2.296c0-.616.16-1.232.447-1.779l1.69-3.14a6.88 6.88 0 0 1 6.063-3.629h4.165a4.53 4.53 0 0 1 4.214 2.913l1.263 3.33h2.981c1.77 0 3.22 1.44 3.22 3.22v2.017a2.486 2.486 0 0 1-2.484 2.485zM44.408 91.732a4.88 4.88 0 0 0-4.314 2.574l-1.69 3.141a1.8 1.8 0 0 0-.208.835v2.296c0 .626.507 1.133 1.133 1.133h18.428a.49.49 0 0 0 .497-.497v-2.017c0-.676-.547-1.233-1.232-1.233h-3.668a.98.98 0 0 1-.925-.646l-1.51-3.976a2.53 2.53 0 0 0-2.356-1.63h-4.165z"/><path fill="#fff" d="M42.053 106.363a2.614 2.614 0 1 0 0-5.228 2.614 2.614 0 0 0 0 5.228"/><path fill="#13706D" d="M42.053 107.357a3.614 3.614 0 0 1-3.608-3.608 3.614 3.614 0 0 1 3.608-3.608 3.614 3.614 0 0 1 3.608 3.608 3.614 3.614 0 0 1-3.608 3.608m0-5.218a1.62 1.62 0 1 0 0 3.24 1.62 1.62 0 0 0 0-3.24"/><path fill="#fff" d="M52.877 106.363a2.614 2.614 0 1 0 0-5.228 2.614 2.614 0 0 0 0 5.228"/><path fill="#13706D" d="M52.877 107.357a3.614 3.614 0 0 1-3.608-3.608 3.614 3.614 0 0 1 3.608-3.608 3.614 3.614 0 0 1 3.608 3.608 3.614 3.614 0 0 1-3.608 3.608m0-5.218a1.62 1.62 0 1 0 0 3.24 1.62 1.62 0 0 0 0-3.24"/><path fill="#fff" d="M53.364 96.98H37.53l1.73-3.22a5.75 5.75 0 0 1 5.059-3.022h4.512c1.312 0 2.475.805 2.942 2.028l1.6 4.214z"/><path fill="#13706D" d="M53.364 97.974H37.53c-.348 0-.676-.189-.855-.487a.99.99 0 0 1-.02-.984l1.73-3.22a6.73 6.73 0 0 1 5.934-3.549h4.512c1.71 0 3.26 1.074 3.867 2.674l1.6 4.214c.12.308.08.646-.11.915a.99.99 0 0 1-.814.427zM39.2 95.986h12.732l-1.083-2.862a2.16 2.16 0 0 0-2.018-1.392H44.32c-1.75 0-3.35.954-4.185 2.495l-.944 1.75z"/><path fill="#13706D" d="M46.446 97.974a.997.997 0 0 1-.994-.994v-6.242c0-.547.447-.994.994-.994s.994.447.994.994v6.242a.997.997 0 0 1-.994.994"/><path fill="#AFE0DD" d="M172.897 101.691c-.398 3.708-3.757 7.107-7.763 6.233-4.175.994-7.137-2.555-7.763-6.233-.666-3.965.567-9.512 7.763-6.232 8.001-2.634 8.22 2.018 7.763 6.232"/><path fill="#13706D" d="M163.732 109.087a6.4 6.4 0 0 1-3.578-1.094c-1.918-1.272-3.33-3.568-3.757-6.142-.427-2.545-.139-5.835 1.958-7.455 1.63-1.252 3.936-1.252 6.839 0 3.28-1.014 5.605-.924 7.096.288 1.919 1.55 1.879 4.473 1.591 7.117-.259 2.346-1.531 4.562-3.419 5.914-1.581 1.133-3.459 1.57-5.318 1.222-.477.1-.944.15-1.412.15m-2.415-13.628c-.656 0-1.262.15-1.749.527-1.402 1.074-1.531 3.658-1.213 5.546.338 2.018 1.451 3.857 2.893 4.811 1.093.726 2.325.935 3.647.616a1 1 0 0 1 .448 0c1.759.388 3.121-.248 3.956-.844 1.411-1.014 2.415-2.754 2.604-4.523.218-1.988.318-4.403-.875-5.357-.954-.776-2.892-.716-5.596.179-.238.08-.497.06-.725-.04-1.024-.467-2.287-.905-3.41-.905z"/><path fill="#fff" d="M165.134 94.465s.855-3.18-2.157-4.592z"/><path fill="#13706D" d="M165.134 95.46a.8.8 0 0 1-.259-.04.996.996 0 0 1-.705-1.213c.059-.248.546-2.425-1.62-3.44a.996.996 0 0 1-.477-1.321.99.99 0 0 1 1.322-.477c2.981 1.401 3.061 4.373 2.693 5.755a.985.985 0 0 1-.954.735"/><path fill="#fff" d="M165.134 92.17s.129-5.408 7.276-4.503c0 0-.776 4.681-7.276 4.502"/><path fill="#13706D" d="M165.492 93.163h-.378a.98.98 0 0 1-.964-1.013c0-.1.079-2.406 1.978-4.036 1.501-1.292 3.658-1.77 6.421-1.431.268.03.507.179.676.397a.98.98 0 0 1 .179.756c0 .05-.974 5.337-7.902 5.337zm5.377-4.612c-1.471 0-2.624.348-3.439 1.034a3.7 3.7 0 0 0-1.064 1.55c2.803-.238 4.076-1.59 4.642-2.584z"/><path fill="#fff" d="M161.576 100.28a1.6 1.6 0 1 0-.001-3.201 1.6 1.6 0 0 0 .001 3.201"/><path fill="#AFE0DD" d="M112.405 121.153h-12.256a1.84 1.84 0 0 0-1.839 1.839v20.098a1.84 1.84 0 0 0 1.839 1.839h12.256a1.84 1.84 0 0 0 1.838-1.839v-20.098a1.84 1.84 0 0 0-1.838-1.839"/><path fill="#13706D" d="M112.405 145.922h-12.256a2.84 2.84 0 0 1-2.833-2.832v-20.098a2.84 2.84 0 0 1 2.833-2.833h12.256a2.837 2.837 0 0 1 2.832 2.833v20.098a2.837 2.837 0 0 1-2.832 2.832m-12.256-23.775a.844.844 0 0 0-.845.845v20.098c0 .467.378.845.845.845h12.256a.844.844 0 0 0 .844-.845v-20.098a.844.844 0 0 0-.844-.845z"/><path fill="#fff" d="m107.047 122.167-3.489 6.471c-.397.735.189 1.61 1.094 1.61.874 0 1.461.815 1.123 1.55l-5.626 12.176h6.332l4.204-15.038c.199-.706-.388-1.392-1.173-1.392h-.02c-.854 0-1.441-.785-1.133-1.511l1.62-3.856h-2.922z"/><path fill="#fff" d="M106.481 142.324a1.81 1.81 0 1 0 0-3.618 1.81 1.81 0 0 0 0 3.618"/><path fill="#13706D" d="M106.481 143.318a2.806 2.806 0 0 1-2.803-2.803 2.813 2.813 0 0 1 2.803-2.803 2.813 2.813 0 0 1 2.803 2.803 2.813 2.813 0 0 1-2.803 2.803m0-3.618a.82.82 0 0 0-.815.815c0 .448.367.815.815.815a.82.82 0 0 0 .815-.815.82.82 0 0 0-.815-.815m60.869-9.581h-9.412a.997.997 0 0 1-.994-.994c0-.547.447-.994.994-.994h9.412c.547 0 .994.447.994.994a.997.997 0 0 1-.994.994m2.485 3.946h-9.412a.997.997 0 0 1-.994-.994c0-.547.447-.994.994-.994h9.412c.547 0 .994.447.994.994a.997.997 0 0 1-.994.994m-118.141-3.946H42.28a.997.997 0 0 1-.994-.994c0-.547.447-.994.994-.994h9.413c.547 0 .994.447.994.994a.997.997 0 0 1-.994.994m-4.85 3.946h-9.412a.997.997 0 0 1-.994-.994c0-.547.447-.994.994-.994h9.412c.547 0 .994.447.994.994a.997.997 0 0 1-.994.994m9.373 0H50.78a.997.997 0 0 1-.994-.994c0-.547.448-.994.995-.994h5.436c.547 0 .994.447.994.994a.997.997 0 0 1-.994.994m116.193-3.946h-2.227a1 1 0 0 1-.994-.994c0-.547.448-.994.994-.994h2.227c.546 0 .994.447.994.994a1 1 0 0 1-.994.994"/><path fill="#AFE0DD" d="M48.155 42.382c5.865 0 10.616-4.75 10.616-10.615a10.6 10.6 0 0 0-2.137-6.372A104.4 104.4 0 0 0 39.23 37.513a10.6 10.6 0 0 0 8.925 4.87m116.969-.001c5.01 0 9.194-3.469 10.317-8.14a103.7 103.7 0 0 0-16.977-10.735c-2.405 1.948-3.955 4.92-3.955 8.26 0 5.864 4.751 10.615 10.615 10.615M58.353 167.471c-1.272-4.443-5.347-7.703-10.198-7.703-4.85 0-8.935 3.26-10.198 7.703h20.406zm117.098 0c-1.272-4.443-5.347-7.703-10.198-7.703-4.85 0-8.935 3.26-10.198 7.703h20.406z"/></svg>