<svg xmlns="http://www.w3.org/2000/svg" width="219" height="180" fill="none"><path fill="#E0F4F3" d="M106.988 12.575h4.691c57.401 0 104.008 46.606 104.008 104.007v24.591c0 14.611-11.858 26.469-26.469 26.469H29.45c-14.612 0-26.47-11.858-26.47-26.469v-24.591c0-57.4 46.607-104.007 104.008-104.007"/><path fill="#fff" d="M82.278 67.908H57.181a1.73 1.73 0 0 0-1.73 1.73v17.235c0 .955.774 1.73 1.73 1.73h25.097a1.73 1.73 0 0 0 1.73-1.73V69.638a1.73 1.73 0 0 0-1.73-1.73m33.288 0H90.468a1.73 1.73 0 0 0-1.73 1.73v17.235c0 .955.775 1.73 1.73 1.73h25.098a1.73 1.73 0 0 0 1.729-1.73V69.638a1.73 1.73 0 0 0-1.729-1.73M82.278 42.781H57.181a1.73 1.73 0 0 0-1.73 1.73v17.235c0 .955.774 1.73 1.73 1.73h25.097a1.73 1.73 0 0 0 1.73-1.73V44.51a1.73 1.73 0 0 0-1.73-1.73m33.288.001H90.468a1.73 1.73 0 0 0-1.73 1.73v17.235c0 .955.775 1.73 1.73 1.73h25.098a1.73 1.73 0 0 0 1.729-1.73V44.51a1.73 1.73 0 0 0-1.729-1.73M82.278 93.045H57.181a1.73 1.73 0 0 0-1.73 1.73v14.74c0 .955.774 1.73 1.73 1.73h25.097a1.73 1.73 0 0 0 1.73-1.73v-14.74a1.73 1.73 0 0 0-1.73-1.73m33.288 0H90.468a1.73 1.73 0 0 0-1.73 1.73v14.74c0 .955.775 1.73 1.73 1.73h25.098a1.73 1.73 0 0 0 1.729-1.73v-14.74a1.73 1.73 0 0 0-1.729-1.73"/><path fill="#13706D" d="M195.778 149.273H23.923a.997.997 0 0 1-.994-.994c0-.546.448-.994.994-.994h171.855c.547 0 .994.448.994.994a.997.997 0 0 1-.994.994"/><path fill="#fff" d="M100.895 140.368h87.677a7.924 7.924 0 0 1-7.922 7.921h-71.833a7.923 7.923 0 0 1-7.922-7.921"/><path fill="#13706D" d="M180.65 149.273h-71.833c-4.91 0-8.916-3.995-8.916-8.916 0-.546.447-.993.994-.993h87.677c.546 0 .994.447.994.993 0 4.921-3.996 8.916-8.916 8.916m-78.692-7.922c.487 3.35 3.37 5.934 6.859 5.934h71.833c3.479 0 6.371-2.584 6.858-5.934z"/><path fill="#fff" d="M43.405 138.181h-3.032a2.707 2.707 0 0 1-2.703-2.704v-5.844a2.707 2.707 0 0 1 2.703-2.704h3.032v-3.995h-3.151a6.33 6.33 0 0 0-6.332 6.331v6.401a6.33 6.33 0 0 0 6.332 6.332h3.916"/><path fill="#13706D" d="M44.16 143.001h-3.916c-4.046 0-7.336-3.29-7.336-7.325v-6.401a7.343 7.343 0 0 1 7.336-7.336h3.15c.547 0 .994.448.994.994v3.996a.997.997 0 0 1-.994.994h-3.031a1.71 1.71 0 0 0-1.71 1.71v5.844c0 .944.766 1.71 1.71 1.71h3.031c.547 0 .994.447.994.994a.997.997 0 0 1-.994.994h-3.031a3.703 3.703 0 0 1-3.698-3.698v-5.844a3.703 3.703 0 0 1 3.698-3.698H42.4v-2.008h-2.157a5.356 5.356 0 0 0-5.348 5.348v6.401c0 2.942 2.395 5.337 5.348 5.337h3.916c.546 0 .994.448.994.994a.997.997 0 0 1-.994.994"/><path fill="#fff" d="M183.801 97.518h-64.965a4.14 4.14 0 0 0-4.145 4.145l-1.988 38.695h73.265l1.987-38.695a4.14 4.14 0 0 0-4.144-4.145z"/><path fill="#13706D" d="M185.957 141.361h-73.264a.97.97 0 0 1-.716-.308.97.97 0 0 1-.268-.735l1.988-38.695c0-2.783 2.306-5.089 5.139-5.089h64.965a5.145 5.145 0 0 1 5.138 5.139l-1.988 38.744a1 1 0 0 1-.994.944m-72.22-1.987h71.276l1.938-37.751c0-1.69-1.411-3.101-3.15-3.101h-64.965a3.15 3.15 0 0 0-3.151 3.151l-1.938 37.701z"/><path fill="#C4EAE7" d="m181.355 140.368 1.988-38.307h-64.06l-1.988 38.307z"/><path fill="#13706D" d="M181.355 141.361h-64.07c-.268 0-.537-.109-.726-.308a.97.97 0 0 1-.268-.735l1.988-38.307a1 1 0 0 1 .994-.944h64.07c.269 0 .537.109.726.308a.97.97 0 0 1 .268.735l-1.988 38.307a1 1 0 0 1-.994.944m-63.016-1.987h62.072l1.889-36.32h-62.073z"/><path fill="#C4EAE7" d="M142.303 140.368h-10.884a3.955 3.955 0 0 0 3.956 3.956h2.962a3.954 3.954 0 0 0 3.956-3.956z"/><path fill="#13706D" d="M138.337 145.317h-2.962a4.957 4.957 0 0 1-4.95-4.95c0-.546.448-.993.994-.993h10.884c.547 0 .994.447.994.993a4.956 4.956 0 0 1-4.95 4.95zm-5.755-3.956a2.96 2.96 0 0 0 2.793 1.968h2.962a2.975 2.975 0 0 0 2.793-1.968z"/><path fill="#fff" d="M43.405 121.691h26.33v20.217a6.38 6.38 0 0 1-6.382 6.381H49.776a6.38 6.38 0 0 1-6.382-6.381v-20.217z"/><path fill="#13706D" d="M63.353 149.273H49.776c-4.066 0-7.376-3.31-7.376-7.375v-20.217c0-.547.448-.994.994-.994h26.33c.547 0 .994.447.994.994v20.217c0 4.065-3.31 7.375-7.375 7.375zm-18.955-26.598v19.223a5.39 5.39 0 0 0 5.387 5.387h13.578a5.39 5.39 0 0 0 5.387-5.387v-19.223z"/><path fill="#13706D" d="M65.739 133.827a.84.84 0 0 1-.378-.079c-2.912-1.203-4.681-2.962-5.248-5.238-1.014-4.056 2.286-8.121 2.425-8.29a.985.985 0 0 1 1.402-.129.994.994 0 0 1 .139 1.401c-.03.03-2.813 3.469-2.038 6.55.408 1.621 1.78 2.933 4.076 3.877a.998.998 0 0 1-.378 1.918z"/><path fill="#C4EAE7" d="m67.836 130.478-2.654 4.393 6.48 3.22 2.446-3.757z"/><path fill="#13706D" d="M71.663 139.085a1 1 0 0 1-.438-.099l-6.48-3.231a.95.95 0 0 1-.507-.616c-.08-.268-.04-.556.1-.795l2.653-4.383a.98.98 0 0 1 .616-.448c.259-.059.527-.019.756.12l6.272 3.856a1 1 0 0 1 .447.626c.06.259 0 .537-.14.756l-2.444 3.757a1 1 0 0 1-.835.457m-5.07-4.632 4.722 2.356 1.411-2.167-4.552-2.793z"/><path fill="#fff" d="M157.054 73.862a5.665 5.665 0 1 0 0-11.33 5.665 5.665 0 0 0 0 11.33"/><path fill="#13706D" d="M157.053 74.856a6.6 6.6 0 0 1-2.634-.547c-3.369-1.45-4.93-5.377-3.478-8.746s5.377-4.93 8.746-3.48c3.37 1.452 4.93 5.378 3.479 8.747a6.6 6.6 0 0 1-3.658 3.549 6.6 6.6 0 0 1-2.465.477zm0-11.331a4.675 4.675 0 0 0-1.858 8.965 4.6 4.6 0 0 0 3.578.05 4.62 4.62 0 0 0 2.564-2.485 4.675 4.675 0 0 0-2.435-6.143 4.6 4.6 0 0 0-1.839-.377z"/><path fill="#C4EAE7" d="m167.868 74.558-22.851-9.86 10.058-8.548 12.107 5.228z"/><path fill="#13706D" d="M167.867 75.552a1.1 1.1 0 0 1-.397-.08l-22.851-9.86a.99.99 0 0 1-.587-.765c-.049-.338.08-.686.338-.905l10.059-8.548a.98.98 0 0 1 1.034-.159l12.106 5.218c.348.15.577.487.597.865l.686 13.18a.98.98 0 0 1-.428.865 1 1 0 0 1-.566.179zm-20.992-11.133 19.909 8.588-.576-10.963-10.974-4.731-8.369 7.106z"/><path fill="#C4EAE7" d="m155.076 56.15 4.93-7.723c.934-1.451 2.524-2.107 3.807-1.55l4.095 1.768c1.282.557 1.908 2.157 1.481 3.837l-2.227 8.886z"/><path fill="#13706D" d="M167.162 62.362a1.1 1.1 0 0 1-.398-.08l-12.086-5.218a1 1 0 0 1-.557-.616 1 1 0 0 1 .11-.825l4.93-7.723c1.192-1.859 3.309-2.674 5.039-1.928l4.095 1.769c1.729.745 2.594 2.843 2.057 4.99l-2.226 8.886a.96.96 0 0 1-.527.646 1 1 0 0 1-.437.099m-10.625-6.66 9.939 4.294 1.948-7.753c.298-1.192-.089-2.315-.914-2.683l-4.095-1.77c-.825-.357-1.909.14-2.575 1.173z"/><path fill="#13706D" d="M194.804 88.582a1 1 0 0 1-.746-.328l-26.111-29.282a.99.99 0 0 1 .08-1.4.99.99 0 0 1 1.401.079l26.111 29.282a.99.99 0 0 1-.079 1.4 1 1 0 0 1-.666.25zm-6.859 16.669a1 1 0 0 1-.566-.179 1 1 0 0 1-.249-1.381l7.823-11.212a1 1 0 0 1 1.381-.249 1 1 0 0 1 .249 1.382l-7.823 11.212a.98.98 0 0 1-.815.427"/><path fill="#C4EAE7" d="M196.285 94.329a3.37 3.37 0 1 0 .001-6.74 3.37 3.37 0 0 0-.001 6.74"/><path fill="#13706D" d="M196.285 95.321a4.37 4.37 0 0 1-4.364-4.363 4.37 4.37 0 0 1 4.364-4.364 4.37 4.37 0 0 1 4.363 4.364 4.37 4.37 0 0 1-4.363 4.363m0-6.739a2.376 2.376 0 1 0 0 4.752 2.376 2.376 0 0 0 0-4.752M58.82 116.731a1.04 1.04 0 0 1-.635-.228 1.003 1.003 0 0 1-.13-1.402c.22-.268 5.249-6.52-.954-12.544-2.147-2.077-3.15-4.363-2.991-6.788.288-4.543 4.602-7.823 4.78-7.962a.997.997 0 0 1 1.392.199.997.997 0 0 1-.199 1.391c-.04.03-3.767 2.883-3.995 6.5-.11 1.82.695 3.58 2.395 5.229 7.534 7.316 1.163 15.158 1.093 15.237a.98.98 0 0 1-.765.358zm-9.044 0a1.04 1.04 0 0 1-.636-.228 1.003 1.003 0 0 1-.13-1.402c.22-.268 5.249-6.52-.954-12.544-2.306-2.236-3.3-4.71-2.942-7.335.08-.547.577-.924 1.123-.855.547.07.925.577.855 1.123-.268 1.969.527 3.867 2.356 5.636 7.534 7.316 1.163 15.158 1.093 15.237a.98.98 0 0 1-.765.358z"/><path fill="#E0F4F3" d="m123.348 107.358-1.213 26.897a.95.95 0 0 0 1.104.984l3.826-.637a80.9 80.9 0 0 0 48.893-27.989c.348-.477-.368-.477-.368-.477h-50.96c-.686 0-1.252.536-1.282 1.232z"/><path fill="#C4EAE7" d="m52.38 136.173-3.052-3.051a2.346 2.346 0 0 1 0-3.33 2.345 2.345 0 0 1 3.33 0l.935.934.874-.875a2.346 2.346 0 0 1 3.33 0l.219.219a2.346 2.346 0 0 1 0 3.33l-3.111 3.111a1.55 1.55 0 0 1-2.217-.02z"/></svg>