<svg width="220" height="180" viewBox="0 0 220 180" fill="none" xmlns="http://www.w3.org/2000/svg">
<g id="tools-detecteur">
<path id="Vector" d="M107.654 12.4866H112.346C169.747 12.4866 216.353 59.0931 216.353 116.494V141.084C216.353 155.696 204.495 167.553 189.884 167.553H30.116C15.5048 167.553 3.64697 155.696 3.64697 141.084V116.494C3.64697 59.0931 50.2535 12.4866 107.654 12.4866Z" fill="#E0F4F3"/>
<path id="Vector_2" d="M158.515 64.8381C161.954 64.8381 164.747 67.3528 164.747 70.4639V93.9312C164.747 97.0323 161.954 99.557 158.515 99.557H55.4718C52.0328 99.557 49.2397 97.0423 49.2397 93.9312V70.4639C49.2397 67.3628 52.0328 64.8381 55.4718 64.8381H149.043" fill="#C4EAE7"/>
<g id="Group">
<path id="Vector_3" d="M91.4726 56.7573H63.8804C59.4375 56.7573 55.8394 60.3554 55.8394 64.7984V85.413C55.8394 89.856 59.4375 93.4541 63.8804 93.4541H108.28L112.326 100.958L116.5 93.4541H160.781C165.224 93.4541 168.822 89.856 168.822 85.413V64.7984C168.822 60.3554 165.224 56.7573 160.781 56.7573H99.9908" fill="white"/>
<path id="Vector_4" d="M112.336 101.952C111.968 101.952 111.64 101.754 111.471 101.426L107.704 94.4481H63.8905C58.9108 94.4481 54.8555 90.3927 54.8555 85.413V64.7885C54.8555 59.8088 58.9108 55.7534 63.8905 55.7534H91.4827C92.0294 55.7534 92.4767 56.2007 92.4767 56.7474C92.4767 57.294 92.0294 57.7413 91.4827 57.7413H63.8905C60.0042 57.7413 56.8434 60.9021 56.8434 64.7885V85.413C56.8434 89.2994 60.0042 92.4602 63.8905 92.4602H108.29C108.658 92.4602 108.996 92.659 109.165 92.987L112.346 98.891L115.636 92.977C115.815 92.659 116.143 92.4701 116.501 92.4701H160.781C164.668 92.4701 167.828 89.3093 167.828 85.423V64.7984C167.828 60.912 164.668 57.7513 160.781 57.7513H99.9909C99.4443 57.7513 98.997 57.304 98.997 56.7573C98.997 56.2106 99.4443 55.7634 99.9909 55.7634H160.781C165.761 55.7634 169.816 59.8187 169.816 64.7984V85.423C169.816 90.4027 165.761 94.458 160.781 94.458H117.087L113.201 101.446C113.022 101.764 112.694 101.952 112.336 101.952Z" fill="#13706D"/>
</g>
<g id="Group_2">
<path id="Vector_5" d="M87.1987 132.735H68.0353C64.4372 132.735 61.5249 129.823 61.5249 126.225V113.641C61.5249 110.043 64.4372 107.131 68.0353 107.131H156.915C160.513 107.131 163.425 110.043 163.425 113.641V126.225C163.425 129.823 160.513 132.735 156.915 132.735H94.2558" fill="#C4EAE7"/>
<path id="Vector_6" d="M156.915 133.729H94.2556C93.709 133.729 93.2617 133.282 93.2617 132.735C93.2617 132.189 93.709 131.741 94.2556 131.741H156.915C159.956 131.741 162.431 129.266 162.431 126.225V113.641C162.431 110.6 159.956 108.125 156.915 108.125H68.0351C64.9936 108.125 62.5187 110.6 62.5187 113.641V126.225C62.5187 129.266 64.9936 131.741 68.0351 131.741H87.1986C87.7452 131.741 88.1925 132.189 88.1925 132.735C88.1925 133.282 87.7452 133.729 87.1986 133.729H68.0351C63.9003 133.729 60.5308 130.36 60.5308 126.225V113.641C60.5308 109.506 63.9003 106.137 68.0351 106.137H156.915C161.049 106.137 164.419 109.506 164.419 113.641V126.225C164.419 130.36 161.049 133.729 156.915 133.729Z" fill="#13706D"/>
</g>
<g id="Group_3">
<path id="Vector_7" d="M75.4499 123.382V117.319H75.4102L74.2771 118.104C74.0683 118.253 73.9292 118.303 73.7105 118.303C73.2632 118.303 72.9253 117.965 72.9253 117.498C72.9253 117.16 73.0545 116.901 73.3825 116.673L75.1021 115.5C75.5891 115.172 75.9767 115.122 76.434 115.122C77.2689 115.122 77.7559 115.619 77.7559 116.414V123.372C77.7559 124.068 77.2987 124.515 76.6029 124.515C75.9072 124.515 75.4499 124.068 75.4499 123.372V123.382Z" fill="#13706D"/>
<path id="Vector_8" d="M80.1714 123.382C80.1714 122.945 80.3503 122.637 80.8075 122.249L83.4117 119.893C84.4752 118.919 84.7734 118.502 84.7734 117.915C84.7734 117.259 84.2665 116.792 83.5409 116.792C82.9445 116.792 82.5271 117.08 82.1991 117.687C81.9108 118.134 81.6325 118.313 81.1653 118.313C80.569 118.313 80.2111 117.965 80.2111 117.398C80.2111 117.219 80.241 117.06 80.3105 116.891C80.7081 115.848 81.9207 115.043 83.5807 115.043C85.658 115.043 87.0197 116.146 87.0197 117.756C87.0197 118.919 86.4234 119.595 84.9821 120.897L83.1731 122.547V122.587H86.324C86.9104 122.587 87.2483 122.935 87.2483 123.471C87.2483 124.008 86.9104 124.366 86.324 124.366H81.2747C80.5292 124.366 80.1913 123.949 80.1913 123.372L80.1714 123.382Z" fill="#13706D"/>
<path id="Vector_9" d="M88.6396 121.911C88.6396 120.678 89.574 119.824 90.8562 119.605V119.565C89.7429 119.317 88.9676 118.541 88.9676 117.537C88.9676 116.096 90.4288 115.062 92.5359 115.062C94.6431 115.062 96.1042 116.106 96.1042 117.547C96.1042 118.541 95.3389 119.327 94.2257 119.575V119.615C95.5079 119.833 96.4322 120.698 96.4322 121.931C96.4322 123.531 94.832 124.614 92.5359 124.614C90.2399 124.614 88.6396 123.531 88.6396 121.921V121.911ZM94.007 121.742C94.007 121.016 93.4106 120.489 92.5359 120.489C91.6613 120.489 91.0748 121.016 91.0748 121.742C91.0748 122.467 91.6712 123.014 92.5359 123.014C93.4007 123.014 94.007 122.477 94.007 121.742ZM93.8281 117.766C93.8281 117.09 93.2814 116.633 92.5459 116.633C91.8104 116.633 91.2736 117.09 91.2736 117.766C91.2736 118.442 91.8004 118.899 92.5459 118.899C93.2914 118.899 93.8281 118.432 93.8281 117.766Z" fill="#13706D"/>
<path id="Vector_10" d="M101.054 123.362V116.285C101.054 115.5 101.521 115.122 102.177 115.122C102.833 115.122 103.291 115.5 103.291 116.285V120.062H103.33L105.517 117.816C105.835 117.498 106.084 117.359 106.431 117.359C107.008 117.359 107.445 117.776 107.445 118.333C107.445 118.681 107.336 118.899 107.008 119.207L105.557 120.569L107.137 122.656C107.386 123.004 107.465 123.203 107.465 123.491C107.465 124.108 107.028 124.515 106.392 124.515C105.885 124.515 105.607 124.336 105.229 123.75L103.877 121.802L103.31 122.328V123.362C103.31 124.147 102.843 124.525 102.197 124.525C101.551 124.525 101.074 124.147 101.074 123.362H101.054Z" fill="#13706D"/>
<path id="Vector_11" d="M108.698 125.678C108.588 125.489 108.548 125.3 108.548 125.121C108.548 124.674 108.886 124.336 109.433 124.336C109.701 124.336 109.94 124.416 110.169 124.605C110.646 125.002 111.123 125.27 111.709 125.27C112.634 125.27 113.17 124.773 113.17 123.998V122.895H113.131C112.862 123.62 112.067 124.117 111.053 124.117C109.363 124.117 108.32 122.845 108.32 120.768C108.32 118.69 109.334 117.388 111.083 117.388C112.077 117.388 112.832 117.935 113.141 118.7H113.18V118.472C113.18 117.706 113.667 117.349 114.313 117.349C114.959 117.349 115.417 117.706 115.417 118.472V124.028C115.417 125.887 114.095 126.95 111.749 126.95C110.218 126.95 109.135 126.374 108.707 125.668L108.698 125.678ZM113.18 120.818C113.18 119.724 112.683 119.028 111.888 119.028C111.093 119.028 110.606 119.714 110.606 120.818C110.606 121.921 111.083 122.547 111.888 122.547C112.693 122.547 113.18 121.931 113.18 120.818Z" fill="#13706D"/>
<path id="Vector_12" d="M119.93 119.824C119.93 116.852 121.639 115.112 124.323 115.112C126.042 115.112 127.344 115.818 128.03 117.11C128.179 117.388 128.259 117.677 128.259 117.955C128.259 118.551 127.851 118.929 127.245 118.929C126.738 118.929 126.42 118.72 126.162 118.213C125.754 117.369 125.138 116.961 124.343 116.961C123.08 116.961 122.275 118.044 122.275 119.804C122.275 121.563 123.07 122.666 124.343 122.666C125.178 122.666 125.794 122.259 126.182 121.404C126.42 120.907 126.708 120.708 127.195 120.708C127.851 120.708 128.279 121.116 128.279 121.732C128.279 121.951 128.229 122.179 128.13 122.398C127.583 123.69 126.132 124.525 124.382 124.525C121.58 124.525 119.91 122.786 119.91 119.814L119.93 119.824Z" fill="#13706D"/>
<path id="Vector_13" d="M129.829 119.824C129.829 116.921 131.569 115.112 134.332 115.112C137.095 115.112 138.824 116.921 138.824 119.824C138.824 122.726 137.085 124.535 134.332 124.535C131.578 124.535 129.829 122.726 129.829 119.824ZM136.469 119.824C136.469 118.084 135.624 116.991 134.332 116.991C133.04 116.991 132.195 118.084 132.195 119.824C132.195 121.563 133.03 122.646 134.332 122.646C135.634 122.646 136.469 121.553 136.469 119.824Z" fill="#13706D"/>
<path id="Vector_14" d="M140.126 126.115C140.126 125.857 140.236 125.678 140.494 125.449L142.015 124.068C142.641 123.501 142.81 123.253 142.81 122.915C142.81 122.527 142.512 122.259 142.094 122.259C141.747 122.259 141.508 122.428 141.309 122.786C141.14 123.044 140.981 123.153 140.713 123.153C140.365 123.153 140.156 122.955 140.156 122.617C140.156 122.517 140.166 122.418 140.216 122.319C140.445 121.702 141.16 121.235 142.124 121.235C143.337 121.235 144.132 121.881 144.132 122.815C144.132 123.501 143.784 123.889 142.939 124.654L141.886 125.618V125.648H143.725C144.063 125.648 144.261 125.847 144.261 126.165C144.261 126.483 144.063 126.682 143.725 126.682H140.773C140.335 126.682 140.136 126.433 140.136 126.105L140.126 126.115Z" fill="#13706D"/>
<path id="Vector_15" d="M145.106 120.977C145.106 118.75 146.428 117.339 148.526 117.339C150.623 117.339 151.915 118.691 151.915 120.539C151.915 121.106 151.597 121.424 151.011 121.424H147.273V121.553C147.273 122.388 147.82 122.955 148.635 122.955C149.251 122.955 149.669 122.756 150.166 122.259C150.404 122.04 150.583 121.961 150.861 121.961C151.319 121.961 151.696 122.249 151.696 122.746C151.696 122.915 151.647 123.084 151.547 123.253C151.09 124.058 149.987 124.545 148.615 124.545C146.418 124.545 145.106 123.213 145.106 120.977ZM149.808 120.152C149.768 119.406 149.271 118.929 148.575 118.929C147.88 118.929 147.373 119.436 147.313 120.152H149.808Z" fill="#13706D"/>
</g>
<g id="Group_4">
<path id="Vector_16" d="M100.736 73.9527C100.647 73.744 100.597 73.5153 100.597 73.3166C100.597 72.6208 101.054 72.1834 101.81 72.1834C102.337 72.1834 102.675 72.3723 102.943 72.8096C103.34 73.4855 103.828 73.8831 104.861 73.8831C105.815 73.8831 106.471 73.3265 106.471 72.5413C106.471 71.6268 105.796 71.1398 104.583 71.1398H104.315C103.659 71.1398 103.311 70.7621 103.311 70.1955C103.311 69.629 103.659 69.2612 104.315 69.2612H104.563C105.627 69.2612 106.273 68.7444 106.273 67.9492C106.273 67.154 105.726 66.6869 104.792 66.6869C104.016 66.6869 103.509 67.0049 103.181 67.651C102.873 68.2275 102.545 68.4462 101.929 68.4462C101.174 68.4462 100.796 67.989 100.796 67.3628C100.796 67.1242 100.836 66.9453 100.935 66.7068C101.363 65.6532 102.645 64.6294 104.792 64.6294C107.157 64.6294 108.857 65.7029 108.857 67.5516C108.857 68.9432 107.843 69.8377 106.601 70.0862V70.1359C108.241 70.3049 109.284 71.2293 109.284 72.7003C109.284 74.7379 107.525 76.0499 104.802 76.0499C102.486 76.0499 101.164 74.9963 100.726 73.9428L100.736 73.9527Z" fill="#13706D"/>
<path id="Vector_17" d="M111.202 74.6088C111.202 74.0919 111.421 73.7142 111.968 73.247L115.069 70.4242C116.341 69.2613 116.689 68.7643 116.689 68.0586C116.689 67.2734 116.083 66.7168 115.218 66.7168C114.502 66.7168 114.015 67.0647 113.608 67.7902C113.26 68.327 112.942 68.5456 112.375 68.5456C111.66 68.5456 111.232 68.1282 111.232 67.4523C111.232 67.2436 111.262 67.0448 111.342 66.846C111.819 65.5936 113.26 64.6394 115.248 64.6394C117.733 64.6394 119.353 65.9614 119.353 67.8797C119.353 69.2712 118.647 70.0763 116.918 71.6368L114.751 73.6148V73.6645H118.508C119.214 73.6645 119.621 74.082 119.621 74.728C119.621 75.3741 119.214 75.7916 118.508 75.7916H112.475C111.59 75.7916 111.183 75.2946 111.183 74.6088H111.202Z" fill="#13706D"/>
<path id="Vector_18" d="M121.589 73.9527C121.5 73.744 121.45 73.5153 121.45 73.3166C121.45 72.6208 121.907 72.1834 122.663 72.1834C123.19 72.1834 123.528 72.3723 123.796 72.8096C124.194 73.4855 124.681 73.8831 125.714 73.8831C126.668 73.8831 127.324 73.3265 127.324 72.5413C127.324 71.6268 126.649 71.1398 125.436 71.1398H125.168C124.512 71.1398 124.164 70.7621 124.164 70.1955C124.164 69.629 124.512 69.2612 125.168 69.2612H125.416C126.48 69.2612 127.126 68.7444 127.126 67.9492C127.126 67.154 126.579 66.6869 125.645 66.6869C124.869 66.6869 124.362 67.0049 124.034 67.651C123.726 68.2275 123.398 68.4462 122.782 68.4462C122.027 68.4462 121.649 67.989 121.649 67.3628C121.649 67.1242 121.689 66.9453 121.788 66.7068C122.216 65.6532 123.498 64.6294 125.645 64.6294C128.01 64.6294 129.71 65.7029 129.71 67.5516C129.71 68.9432 128.696 69.8377 127.454 70.0862V70.1359C129.094 70.3049 130.137 71.2293 130.137 72.7003C130.137 74.7379 128.378 76.0499 125.655 76.0499C123.339 76.0499 122.017 74.9963 121.579 73.9428L121.589 73.9527Z" fill="#13706D"/>
</g>
<g id="Group_5">
<path id="Vector_19" d="M98.8579 84.5581V80.5027C98.8579 80.1548 99.0567 79.9561 99.3847 79.9561C99.7127 79.9561 99.9115 80.1548 99.9115 80.5027V82.2422H99.9413L101.83 80.1847C101.979 80.0256 102.108 79.9561 102.277 79.9561C102.555 79.9561 102.774 80.1648 102.774 80.4431C102.774 80.5922 102.724 80.7015 102.595 80.8407L101.214 82.2919L102.714 84.1207C102.873 84.3195 102.943 84.4686 102.943 84.6078C102.943 84.896 102.724 85.1147 102.436 85.1147C102.217 85.1147 102.078 85.0352 101.909 84.8264L100.418 82.9876L99.9214 83.5144V84.568C99.9214 84.9159 99.7227 85.1147 99.3946 85.1147C99.0666 85.1147 98.8679 84.9159 98.8679 84.568L98.8579 84.5581Z" fill="#13706D"/>
<path id="Vector_20" d="M103.609 85.7508C103.549 85.6614 103.529 85.562 103.529 85.4725C103.529 85.2638 103.689 85.1048 103.947 85.1048C104.076 85.1048 104.185 85.1445 104.295 85.2539C104.573 85.5123 104.832 85.6614 105.169 85.6614C105.726 85.6614 106.054 85.3632 106.054 84.896V84.2997H106.034C105.865 84.6972 105.428 84.9656 104.891 84.9656C103.967 84.9656 103.38 84.2599 103.38 83.1169C103.38 81.9738 103.947 81.2582 104.911 81.2582C105.448 81.2582 105.855 81.5365 106.044 81.9639H106.064V81.7551C106.064 81.4073 106.283 81.2383 106.571 81.2383C106.859 81.2383 107.078 81.4073 107.078 81.7551V84.896C107.078 85.8602 106.372 86.4466 105.179 86.4367C104.414 86.4367 103.857 86.1484 103.609 85.7508ZM106.064 83.1268C106.064 82.4608 105.736 82.0235 105.229 82.0235C104.722 82.0235 104.414 82.4509 104.414 83.1169C104.414 83.7828 104.722 84.2003 105.229 84.2003C105.736 84.2003 106.064 83.7927 106.064 83.1268Z" fill="#13706D"/>
<path id="Vector_21" d="M109.583 83.1765C109.583 81.9937 110.169 81.2581 111.103 81.2581C111.64 81.2581 112.058 81.5464 112.237 81.9539H112.256V80.4829C112.256 80.135 112.465 79.9561 112.763 79.9561C113.062 79.9561 113.27 80.1449 113.27 80.4829V84.5978C113.27 84.9358 113.062 85.1147 112.763 85.1147C112.465 85.1147 112.256 84.9457 112.256 84.5978V84.3792H112.237C112.078 84.7966 111.66 85.0948 111.094 85.0948C110.159 85.0948 109.573 84.3593 109.573 83.1665L109.583 83.1765ZM112.276 83.1765C112.276 82.5006 111.948 82.0732 111.451 82.0732C110.954 82.0732 110.626 82.5006 110.626 83.1765C110.626 83.8524 110.934 84.2798 111.451 84.2798C111.968 84.2798 112.276 83.8524 112.276 83.1765Z" fill="#13706D"/>
<path id="Vector_22" d="M114.105 83.1964C114.105 81.9937 114.801 81.2383 115.904 81.2383C117.007 81.2383 117.673 81.9639 117.673 82.9678C117.673 83.2461 117.514 83.4051 117.236 83.4051H115.109V83.4449C115.109 84.0015 115.447 84.3593 115.954 84.3593C116.321 84.3593 116.57 84.24 116.838 83.912C116.948 83.8027 117.037 83.7629 117.166 83.7629C117.385 83.7629 117.564 83.9021 117.564 84.1307C117.564 84.2102 117.544 84.2897 117.494 84.3792C117.246 84.8364 116.669 85.1048 115.954 85.1048C114.791 85.1048 114.105 84.3891 114.105 83.1765V83.1964ZM116.689 82.7889C116.669 82.3018 116.361 81.9837 115.914 81.9837C115.467 81.9837 115.149 82.3118 115.109 82.7889H116.689Z" fill="#13706D"/>
<path id="Vector_23" d="M120.168 85.8404V81.7651C120.168 81.4272 120.377 81.2483 120.665 81.2483C120.953 81.2483 121.162 81.4272 121.162 81.7751V81.9739H121.182C121.381 81.5365 121.798 81.2682 122.335 81.2682C123.279 81.2682 123.856 81.9838 123.856 83.1865C123.856 84.3892 123.279 85.1048 122.345 85.1048C121.808 85.1048 121.391 84.8365 121.192 84.419H121.172V85.8404C121.172 86.1882 120.963 86.3672 120.665 86.3672C120.367 86.3672 120.158 86.1882 120.158 85.8404H120.168ZM122.832 83.1766C122.832 82.5007 122.514 82.0733 122.007 82.0733C121.5 82.0733 121.182 82.5106 121.182 83.1766C121.182 83.8425 121.51 84.2799 122.007 84.2799C122.504 84.2799 122.832 83.8525 122.832 83.1766Z" fill="#13706D"/>
<path id="Vector_24" d="M124.542 83.1765C124.542 81.9738 125.267 81.2383 126.39 81.2383C127.513 81.2383 128.239 81.9639 128.239 83.1765C128.239 84.3891 127.523 85.1246 126.39 85.1246C125.257 85.1246 124.542 84.3991 124.542 83.1765ZM127.195 83.1765C127.195 82.441 126.877 82.0136 126.38 82.0136C125.883 82.0136 125.565 82.441 125.565 83.1765C125.565 83.912 125.883 84.3394 126.38 84.3394C126.877 84.3394 127.195 83.922 127.195 83.1765Z" fill="#13706D"/>
<path id="Vector_25" d="M129.034 84.588V81.7651C129.034 81.4272 129.233 81.2483 129.521 81.2483C129.809 81.2483 130.008 81.4272 130.008 81.7651V81.9938H130.028C130.187 81.5465 130.585 81.2483 131.092 81.2483C131.628 81.2483 132.006 81.5266 132.125 82.0136H132.145C132.314 81.5465 132.752 81.2483 133.298 81.2483C134.024 81.2483 134.521 81.7453 134.521 82.5007V84.588C134.521 84.9359 134.312 85.1148 134.014 85.1148C133.716 85.1148 133.507 84.9259 133.507 84.588V82.7591C133.507 82.3317 133.288 82.0932 132.901 82.0932C132.513 82.0932 132.265 82.3715 132.265 82.7889V84.5979C132.265 84.9458 132.076 85.1247 131.778 85.1247C131.479 85.1247 131.29 84.9359 131.29 84.5979V82.7293C131.29 82.3317 131.062 82.0932 130.694 82.0932C130.326 82.0932 130.048 82.3814 130.048 82.7989V84.588C130.048 84.9359 129.839 85.1148 129.541 85.1148C129.243 85.1148 129.034 84.9259 129.034 84.588Z" fill="#13706D"/>
<path id="Vector_26" d="M135.465 84.588V81.7651C135.465 81.4272 135.664 81.2483 135.952 81.2483C136.241 81.2483 136.439 81.4272 136.439 81.7651V81.9938H136.459C136.618 81.5465 137.016 81.2483 137.523 81.2483C138.06 81.2483 138.437 81.5266 138.557 82.0136H138.576C138.745 81.5465 139.183 81.2483 139.729 81.2483C140.455 81.2483 140.952 81.7453 140.952 82.5007V84.588C140.952 84.9359 140.743 85.1148 140.445 85.1148C140.147 85.1148 139.938 84.9259 139.938 84.588V82.7591C139.938 82.3317 139.719 82.0932 139.332 82.0932C138.944 82.0932 138.696 82.3715 138.696 82.7889V84.5979C138.696 84.9458 138.507 85.1247 138.209 85.1247C137.91 85.1247 137.722 84.9359 137.722 84.5979V82.7293C137.722 82.3317 137.493 82.0932 137.125 82.0932C136.757 82.0932 136.479 82.3814 136.479 82.7989V84.588C136.479 84.9359 136.27 85.1148 135.972 85.1148C135.674 85.1148 135.465 84.9259 135.465 84.588Z" fill="#13706D"/>
<path id="Vector_27" d="M141.767 83.1964C141.767 81.9937 142.463 81.2383 143.566 81.2383C144.669 81.2383 145.335 81.9639 145.335 82.9678C145.335 83.2461 145.176 83.4051 144.898 83.4051H142.771V83.4449C142.771 84.0015 143.109 84.3593 143.616 84.3593C143.984 84.3593 144.232 84.24 144.5 83.912C144.61 83.8027 144.699 83.7629 144.828 83.7629C145.047 83.7629 145.226 83.9021 145.226 84.1307C145.226 84.2102 145.206 84.2897 145.156 84.3792C144.908 84.8364 144.331 85.1048 143.616 85.1048C142.453 85.1048 141.767 84.3891 141.767 83.1765V83.1964ZM144.351 82.7889C144.331 82.3018 144.023 81.9837 143.576 81.9837C143.129 81.9837 142.811 82.3118 142.771 82.7889H144.351Z" fill="#13706D"/>
<path id="Vector_28" d="M146.051 84.3792C146.031 84.3096 146.011 84.25 146.011 84.1903C146.011 83.9617 146.18 83.8027 146.419 83.8027C146.578 83.8027 146.717 83.8723 146.856 84.0313C147.055 84.2897 147.283 84.409 147.671 84.409C148.059 84.409 148.277 84.2599 148.277 84.0114C148.277 83.8126 148.148 83.7033 147.78 83.6238L147.154 83.4946C146.429 83.3355 146.061 82.9678 146.061 82.4111C146.061 81.6955 146.677 81.2383 147.641 81.2383C148.417 81.2383 148.983 81.5862 149.102 82.0136C149.112 82.0633 149.122 82.113 149.122 82.1627C149.122 82.3714 148.993 82.5105 148.735 82.5105C148.605 82.5105 148.456 82.4608 148.367 82.3515C148.188 82.1229 147.989 81.9539 147.621 81.9539C147.274 81.9539 147.035 82.1229 147.035 82.3615C147.035 82.5602 147.184 82.6795 147.552 82.769L148.168 82.8982C148.963 83.0672 149.291 83.3554 149.291 83.912C149.291 84.6575 148.625 85.1346 147.641 85.1346C146.787 85.1346 146.22 84.8265 146.041 84.3891L146.051 84.3792Z" fill="#13706D"/>
</g>
<g id="Group_6">
<path id="Vector_29" d="M168.832 85.3732C174.503 85.3732 179.1 80.7763 179.1 75.1057C179.1 69.4351 174.503 64.8381 168.832 64.8381C163.162 64.8381 158.565 69.4351 158.565 75.1057C158.565 80.7763 163.162 85.3732 168.832 85.3732Z" fill="#C4EAE7"/>
<path id="Vector_30" d="M168.832 86.3673C162.62 86.3673 157.571 81.318 157.571 75.1057C157.571 68.8935 162.62 63.8442 168.832 63.8442C175.045 63.8442 180.094 68.8935 180.094 75.1057C180.094 81.318 175.045 86.3673 168.832 86.3673ZM168.832 65.8421C163.723 65.8421 159.559 69.9968 159.559 75.1157C159.559 80.2346 163.713 84.3893 168.832 84.3893C173.951 84.3893 178.106 80.2346 178.106 75.1157C178.106 69.9968 173.951 65.8421 168.832 65.8421Z" fill="#13706D"/>
</g>
<g id="Group_7">
<path id="Vector_31" d="M87.0594 78.9622C86.6618 82.6696 83.3022 86.0689 79.2966 85.1943C75.122 86.1882 72.16 82.6398 71.5338 78.9622C70.8678 74.9963 72.1003 69.45 79.2966 72.7301C87.2979 70.0961 87.5166 74.7478 87.0594 78.9622Z" fill="#AFE0DD"/>
<path id="Vector_32" d="M77.9051 86.3672C76.6328 86.3672 75.4202 85.9995 74.3268 85.2739C72.4085 84.0016 71.007 81.7056 70.5697 79.1313C70.1423 76.5867 70.4305 73.2967 72.5278 71.6766C74.1579 70.4242 76.4638 70.4242 79.3662 71.6766C82.6462 70.6528 84.9621 70.7522 86.463 71.9648C88.3813 73.5154 88.3515 76.4376 88.0633 79.0815C87.8048 81.4273 86.5326 83.6438 84.6441 85.0055C83.0637 86.1386 81.1851 86.566 79.3264 86.2281C78.8493 86.3275 78.3822 86.3772 77.915 86.3772L77.9051 86.3672ZM75.4897 72.7401C74.8337 72.7401 74.2274 72.8892 73.7404 73.2669C72.3389 74.3404 72.2097 76.9247 72.5278 78.8132C72.8657 80.821 73.9789 82.6697 75.4202 83.6239C76.5235 84.3495 77.746 84.5582 79.0779 84.2402C79.227 84.2004 79.3761 84.2004 79.5252 84.2402C81.2845 84.6278 82.6462 83.9917 83.4811 83.3854C84.8926 82.3715 85.8965 80.6321 86.0853 78.8629C86.304 76.875 86.3934 74.4597 85.2106 73.5055C84.2564 72.7302 82.3182 72.7898 79.6246 73.6844C79.3861 73.7639 79.1276 73.744 78.899 73.6446C77.8752 73.1775 76.6129 72.7401 75.4897 72.7401Z" fill="#13706D"/>
</g>
<g id="Group_8">
<path id="Vector_33" d="M79.3068 71.7361C79.3068 71.7361 80.1616 68.5555 77.1499 67.144L79.3068 71.7361Z" fill="white"/>
<path id="Vector_34" d="M79.3067 72.7301C79.2172 72.7301 79.1377 72.7201 79.0483 72.7002C78.5215 72.5611 78.2034 72.0144 78.3426 71.4876C78.4022 71.2391 78.8892 69.0624 76.7224 68.0485C76.2254 67.81 76.0167 67.2235 76.2453 66.7266C76.4839 66.2296 77.0703 66.0209 77.5673 66.2495C80.5491 67.6509 80.6287 70.6229 80.2609 72.0045C80.1416 72.4517 79.744 72.74 79.3067 72.74V72.7301Z" fill="#13706D"/>
</g>
<g id="Group_9">
<path id="Vector_35" d="M79.3066 69.4501C79.3066 69.4501 79.4359 64.043 86.5824 64.9475C86.5824 64.9475 85.8071 69.629 79.3066 69.4501Z" fill="white"/>
<path id="Vector_36" d="M79.6545 70.444C79.5253 70.444 79.406 70.444 79.2768 70.444C78.7301 70.4242 78.2928 69.9769 78.3127 69.4302C78.3127 69.3308 78.3922 67.0248 80.2906 65.3948C81.7915 64.1026 83.9583 63.6255 86.7116 63.9734C86.9799 64.0032 87.2185 64.1523 87.3875 64.361C87.5465 64.5797 87.6161 64.8481 87.5664 65.1164C87.5664 65.1661 86.5923 70.454 79.6644 70.454L79.6545 70.444ZM85.0417 65.8321C83.5707 65.8321 82.4177 66.18 81.6027 66.8658C81.046 67.3429 80.718 67.9194 80.5391 68.4164C83.3421 68.1778 84.6143 66.826 85.1809 65.8321C85.1312 65.8321 85.0914 65.8321 85.0417 65.8321Z" fill="#13706D"/>
</g>
<path id="Vector_37" d="M75.7385 77.5606C76.6223 77.5606 77.3387 76.8442 77.3387 75.9604C77.3387 75.0766 76.6223 74.3601 75.7385 74.3601C74.8546 74.3601 74.1382 75.0766 74.1382 75.9604C74.1382 76.8442 74.8546 77.5606 75.7385 77.5606Z" fill="white"/>
<g id="Group_10">
<path id="Vector_38" d="M164.757 75.1057C164.757 72.8594 166.586 71.0305 168.833 71.0305C171.079 71.0305 172.908 72.8594 172.908 75.1057C172.908 77.3521 171.079 79.1809 168.833 79.1809" fill="#C4EAE7"/>
<path id="Vector_39" d="M168.832 80.175C168.286 80.175 167.838 79.7277 167.838 79.181C167.838 78.6343 168.286 78.187 168.832 78.187C170.532 78.187 171.914 76.8054 171.914 75.1058C171.914 73.4061 170.532 72.0245 168.832 72.0245C167.133 72.0245 165.751 73.4061 165.751 75.1058C165.751 75.6525 165.304 76.0997 164.757 76.0997C164.21 76.0997 163.763 75.6525 163.763 75.1058C163.763 72.3128 166.039 70.0366 168.832 70.0366C171.625 70.0366 173.902 72.3128 173.902 75.1058C173.902 77.8988 171.625 80.175 168.832 80.175Z" fill="#13706D"/>
</g>
<path id="Vector_40" d="M164.519 78.0179L162.739 75.861C162.57 75.6622 162.719 75.364 162.978 75.364H166.536C166.795 75.364 166.934 75.6622 166.775 75.861L164.996 78.0179C164.876 78.167 164.648 78.167 164.519 78.0179Z" fill="#13706D"/>
<g id="Group_11">
<path id="Vector_41" d="M87.4074 15.9753C88.9679 15.9753 90.2402 15.2497 90.916 13.8284C88.8586 14.1564 86.821 14.554 84.8032 15.0012C85.4095 15.6175 86.3041 15.9753 87.4074 15.9753Z" fill="#C4EAE7"/>
<path id="Vector_42" d="M98.2611 14.3849C98.2611 16.343 97.4659 17.327 94.3648 19.146C91.8799 20.5574 90.5381 22.2272 90.5381 24.7121V24.8513C90.5381 27.0181 91.9495 28.4991 94.1362 28.4991C95.8955 28.4991 96.959 27.6542 97.4858 26.0639C97.9431 24.4239 98.5295 23.5989 101.66 21.7998C105.01 19.8616 106.581 17.5358 106.581 14.1861C106.581 13.5997 106.521 13.0431 106.421 12.5063C103.549 12.5362 100.706 12.6853 97.8934 12.9536C98.122 13.381 98.2512 13.8581 98.2512 14.3949L98.2611 14.3849Z" fill="#C4EAE7"/>
<path id="Vector_43" d="M94.2457 30.7952C91.8503 30.7952 89.9419 32.5942 89.9419 34.8803C89.9419 37.1664 91.8602 38.9854 94.2457 38.9854C96.6312 38.9854 98.5495 37.1863 98.5495 34.8803C98.5495 32.5743 96.6113 30.7952 94.2457 30.7952Z" fill="#C4EAE7"/>
<path id="Vector_44" d="M32.2031 134.385C32.9088 132.725 34.1413 131.88 35.9603 131.88C38.0078 131.88 39.4888 133.182 39.4888 135.031C39.4888 136.989 38.6936 137.973 35.5925 139.792C33.1076 141.204 31.7658 142.873 31.7658 145.358V145.498C31.7658 147.664 33.1772 149.145 35.3639 149.145C37.1232 149.145 38.1867 148.3 38.7135 146.71C39.1707 145.07 39.7572 144.245 42.8881 142.446C46.2378 140.508 47.8082 138.182 47.8082 134.832C47.8082 129.296 43.2758 125.688 36.3678 125.688C31.1893 125.688 27.3824 127.646 25.8617 130.519C25.3846 131.383 25.156 132.278 25.156 133.252C25.1361 135.3 26.4978 136.621 28.6448 136.621C30.245 136.621 31.5372 135.866 32.2031 134.385Z" fill="#C4EAE7"/>
<path id="Vector_45" d="M22.4921 64.7982C22.4921 66.7563 21.6969 67.7403 18.5958 69.5592C16.1109 70.9707 14.769 72.6405 14.769 75.1254V75.2645C14.769 77.4314 16.1805 78.9124 18.3672 78.9124C20.1265 78.9124 21.19 78.0675 21.7168 76.4772C22.174 74.8371 22.7604 74.0122 25.8914 72.2131C29.241 70.2749 30.8115 67.949 30.8115 64.5994C30.8115 60.1465 27.8793 56.9559 23.1381 55.8625C21.7764 57.7511 20.4843 59.6893 19.2518 61.6772C21.1403 61.7965 22.4921 63.0488 22.4921 64.7982Z" fill="#C4EAE7"/>
<path id="Vector_46" d="M18.4864 89.3887C20.8521 89.3887 22.7903 87.5896 22.7903 85.2836C22.7903 82.9777 20.8521 81.1985 18.4864 81.1985C16.1208 81.1985 14.1826 82.9975 14.1826 85.2836C14.1826 87.5697 16.1009 89.3887 18.4864 89.3887Z" fill="#C4EAE7"/>
<path id="Vector_47" d="M35.483 159.622C37.8486 159.622 39.7868 157.823 39.7868 155.517C39.7868 153.211 37.8486 151.431 35.483 151.431C33.1174 151.431 31.1792 153.23 31.1792 155.517C31.1792 157.803 33.0975 159.622 35.483 159.622Z" fill="#C4EAE7"/>
<path id="Vector_48" d="M200.758 74.9365C198.362 74.9365 196.454 76.7356 196.454 79.0217C196.454 81.3078 198.372 83.1267 200.758 83.1267C203.143 83.1267 205.062 81.3277 205.062 79.0217C205.062 76.7157 203.124 74.9365 200.758 74.9365Z" fill="#C4EAE7"/>
<path id="Vector_49" d="M127.951 161.51C127.951 155.974 123.418 152.366 116.51 152.366C111.332 152.366 107.525 154.324 106.004 157.196C105.527 158.061 105.299 158.956 105.299 159.93C105.279 161.977 106.64 163.299 108.787 163.299C110.388 163.299 111.68 162.544 112.346 161.063C113.051 159.403 114.284 158.558 116.103 158.558C118.15 158.558 119.631 159.86 119.631 161.709C119.631 163.667 118.836 164.651 115.735 166.47C115.139 166.808 114.622 167.156 114.165 167.533H125.267C127.086 165.913 127.961 163.995 127.961 161.5L127.951 161.51Z" fill="#C4EAE7"/>
<path id="Vector_50" d="M193.75 156.272C193.75 153.996 191.812 152.187 189.446 152.187C187.081 152.187 185.143 153.986 185.143 156.272C185.143 158.558 187.061 160.377 189.446 160.377C191.832 160.377 193.75 158.578 193.75 156.272Z" fill="#C4EAE7"/>
<path id="Vector_51" d="M200.867 63.2874C198.382 64.6989 197.041 66.3687 197.041 68.8536V68.9927C197.041 71.1596 198.452 72.6405 200.639 72.6405C202.398 72.6405 203.461 71.7957 203.988 70.2054C204.157 69.5891 204.346 69.0921 204.684 68.615C203.68 66.6768 202.617 64.7784 201.493 62.9197C201.285 63.0489 201.096 63.1682 200.867 63.3073V63.2874Z" fill="#C4EAE7"/>
<path id="Vector_52" d="M191.137 54.014C190.659 54.8787 190.431 55.7733 190.431 56.7473C190.411 58.7949 191.773 60.1168 193.92 60.1168C195.52 60.1168 196.812 59.3614 197.478 57.8805C197.577 57.6419 197.697 57.4232 197.816 57.2145C196.444 55.2365 194.993 53.2983 193.492 51.4297C192.468 52.1553 191.663 53.02 191.137 54.004V54.014Z" fill="#C4EAE7"/>
<path id="Vector_53" d="M179.815 131.264C179.338 132.129 179.11 133.023 179.11 133.997C179.09 136.045 180.451 137.367 182.598 137.367C184.199 137.367 185.491 136.612 186.157 135.131C186.862 133.461 188.095 132.626 189.914 132.626C191.961 132.626 193.442 133.928 193.442 135.767C193.442 137.725 192.647 138.709 189.546 140.528C187.061 141.939 185.719 143.609 185.719 146.094V146.233C185.719 148.4 187.131 149.881 189.318 149.881C191.077 149.881 192.14 149.036 192.667 147.436C193.124 145.796 193.711 144.971 196.842 143.172C200.191 141.233 201.762 138.908 201.762 135.558C201.762 130.022 197.229 126.414 190.321 126.414C185.143 126.414 181.336 128.372 179.815 131.244V131.264Z" fill="#C4EAE7"/>
</g>
</g>
</svg>
