<svg xmlns="http://www.w3.org/2000/svg" width="219" height="180" fill="none"><path fill="#DCF0EF" d="M106.988 12.487h4.691c57.4 0 104.006 46.606 104.006 104.007v24.59c0 14.612-11.858 26.469-26.469 26.469H29.451c-14.611 0-26.47-11.857-26.47-26.469v-24.59c0-57.4 46.607-104.007 104.007-104.007"/><path fill="#C0E6E3" d="M178.701 75.185c.705-1.66 1.938-2.505 3.757-2.505 2.047 0 3.528 1.302 3.528 3.151 0 1.958-.795 2.942-3.896 4.761-2.485 1.412-3.827 3.082-3.827 5.566v.14c0 2.166 1.412 3.647 3.598 3.647 1.76 0 2.823-.844 3.35-2.435.457-1.64 1.044-2.465 4.175-4.264 3.349-1.938 4.92-4.264 4.92-7.614 0-5.536-4.533-9.144-11.441-9.144-5.178 0-8.985 1.958-10.506 4.83a5.5 5.5 0 0 0-.705 2.734c-.02 2.048 1.341 3.37 3.488 3.37 1.601 0 2.893-.756 3.559-2.237m3.28 25.227c2.365 0 4.303-1.8 4.303-4.105s-1.938-4.086-4.303-4.086-4.304 1.8-4.304 4.086 1.918 4.105 4.304 4.105"/><path fill="#ABDCD9" d="M96.959 132.795c.706-1.66 1.938-2.505 3.757-2.505 2.048 0 3.529 1.302 3.529 3.151 0 1.958-.796 2.942-3.897 4.761-2.484 1.411-3.826 3.081-3.826 5.566v.139c0 2.167 1.411 3.648 3.598 3.648 1.759 0 2.823-.845 3.349-2.435.458-1.64 1.044-2.465 4.175-4.264 3.35-1.938 4.92-4.264 4.92-7.614 0-5.536-4.532-9.144-11.44-9.144-5.179 0-8.986 1.958-10.506 4.83a5.5 5.5 0 0 0-.706 2.734c-.02 2.047 1.342 3.369 3.489 3.369 1.6 0 2.892-.755 3.558-2.236m3.29 25.226c2.366 0 4.304-1.799 4.304-4.105s-1.938-4.085-4.304-4.085c-2.365 0-4.304 1.799-4.304 4.085s1.919 4.105 4.304 4.105"/><path fill="#C0E6E3" d="M19.442 119.993c.706-1.66 1.938-2.505 3.757-2.505 2.048 0 3.529 1.302 3.529 3.151 0 1.958-.796 2.942-3.897 4.761-2.485 1.411-3.826 3.081-3.826 5.566v.139c0 2.167 1.411 3.648 3.598 3.648 1.759 0 2.822-.845 3.35-2.435.457-1.64 1.043-2.465 4.174-4.264 3.35-1.938 4.92-4.264 4.92-7.614 0-5.536-4.532-9.144-11.44-9.144-5.179 0-8.986 1.958-10.506 4.83a5.5 5.5 0 0 0-.706 2.734c-.02 2.047 1.342 3.369 3.489 3.369 1.6 0 2.892-.755 3.558-2.236m3.29 25.236c2.365 0 4.303-1.799 4.303-4.105s-1.938-4.085-4.303-4.085-4.304 1.799-4.304 4.085 1.918 4.105 4.304 4.105m192.953-21.797c-2.197.855-3.837 2.177-4.712 3.817a5.5 5.5 0 0 0-.705 2.733c-.02 2.048 1.342 3.369 3.489 3.369.715 0 1.361-.159 1.928-.457v-9.472zM72.21 38.25c-2.395 0-4.304 1.799-4.304 4.085s1.919 4.105 4.304 4.105 4.304-1.8 4.304-4.105-1.938-4.085-4.304-4.085m-6.838-14.82c1.6 0 2.892-.755 3.558-2.236.706-1.66 1.938-2.505 3.757-2.505 2.048 0 3.529 1.302 3.529 3.15 0 1.959-.795 2.943-3.897 4.762-2.484 1.411-3.826 3.081-3.826 5.566v.139c0 2.167 1.411 3.648 3.598 3.648 1.76 0 2.823-.845 3.35-2.435.457-1.64 1.043-2.465 4.174-4.264 3.35-1.939 4.92-4.264 4.92-7.614 0-2.475-.914-4.562-2.534-6.113a103.4 103.4 0 0 0-19.313 6.858c.606.666 1.52 1.064 2.674 1.064zm4.045 139.213c0-5.536-4.532-9.144-11.44-9.144-5.179 0-8.986 1.958-10.506 4.83a5.5 5.5 0 0 0-.706 2.734c-.02 2.047 1.342 3.369 3.489 3.369 1.6 0 2.892-.755 3.558-2.236.706-1.66 1.938-2.505 3.757-2.505 2.048 0 3.529 1.302 3.529 3.151s-.785 2.922-3.787 4.691h10.466c1.093-1.371 1.64-2.962 1.64-4.9zm85.439-2.534c20.805 0 37.67-16.866 37.67-37.671s-16.865-37.671-37.67-37.671-37.67 16.866-37.67 37.671 16.865 37.671 37.67 37.671"/><path fill="#fff" d="M157.4 155.517c21.365 0 38.685-17.32 38.685-38.685s-17.32-38.685-38.685-38.685c-21.364 0-38.684 17.32-38.684 38.685s17.32 38.685 38.684 38.685"/><path fill="#8DC4BF" d="M170.054 116.017a3.113 3.113 0 0 0 .159-4.403l-3.797-4.086a3.114 3.114 0 0 0-4.403-.159l-.249.229c-2.862 2.664-6.63 4.065-10.546 4.155a13.16 13.16 0 0 0-8.985 3.826c-4.771 4.732-5.208 12.435-.984 17.663 4.87 6.013 13.717 6.57 19.283 1.382a13.14 13.14 0 0 0 4.125-8.141c.467-4.015 2.445-7.713 5.407-10.466z"/><path fill="#ABDCD9" d="M160.532 134.624a13.13 13.13 0 0 0 4.124-8.141c.468-4.015 2.446-7.713 5.408-10.466a3.114 3.114 0 0 0 .159-4.403l-3.797-4.086a3.115 3.115 0 0 0-4.404-.159l-.248.229s-2.048 2.942-.288 7.057c1.759 4.115.218 8.488-1.471 7.932a3 3 0 0 1-.458-.199c-2.067-1.044-4.492.487-4.333 2.803l.02.298a2.95 2.95 0 0 1-3.231 3.151 2.95 2.95 0 0 0-2.852 1.481l-.666 1.163a2.98 2.98 0 0 1-2.286 1.481l-4.95.477c4.87 6.013 13.716 6.57 19.283 1.382z"/><path fill="#fff" d="M141.905 122.786c0-.05.02-.11.03-.159a9.7 9.7 0 0 1 2.227-3.956 9.76 9.76 0 0 1 4.602-2.813.89.89 0 0 1 1.093.626.89.89 0 0 1-.616 1.093 8 8 0 0 0-3.767 2.306 7.94 7.94 0 0 0-1.819 3.241.9.9 0 0 1-1.104.616.896.896 0 0 1-.646-.944z"/><path fill="#13706D" d="M137.532 123.601c.308-3.191 1.669-6.282 4.065-8.658a14 14 0 0 1 9.592-4.085c3.806-.089 7.335-1.481 9.959-3.916l.248-.229a4.01 4.01 0 0 1 5.666.209l3.797 4.085a4 4 0 0 1 1.073 2.873 4.03 4.03 0 0 1-1.272 2.793c-2.872 2.674-4.691 6.192-5.129 9.92a14.1 14.1 0 0 1-4.403 8.687 14.14 14.14 0 0 1-10.605 3.737c-3.936-.278-7.485-2.137-9.98-5.218-2.375-2.932-3.359-6.63-3.021-10.198zm32.611-9.652v-.139a2.22 2.22 0 0 0-.596-1.6l-3.797-4.085a2.23 2.23 0 0 0-3.151-.109l-.248.228c-2.942 2.734-6.898 4.294-11.133 4.393a12.24 12.24 0 0 0-8.379 3.569c-4.433 4.393-4.83 11.629-.914 16.47 2.187 2.693 5.278 4.313 8.717 4.562a12.38 12.38 0 0 0 9.264-3.27 12.32 12.32 0 0 0 3.846-7.584c.477-4.145 2.505-8.061 5.686-11.023a2.23 2.23 0 0 0 .695-1.412z"/><path fill="#C6E5E2" d="M180.997 100.958a3.15 3.15 0 0 0-1.292-.815 1.63 1.63 0 0 1-1.074-1.153 3.05 3.05 0 0 0-.715-1.341c-1.124-1.233-3.092-1.342-4.344-.249a3.114 3.114 0 0 0-.229 4.453l-6.918 6.431c-.924.855-1.063 2.316-.238 3.26s2.346 1.054 3.29.169l6.987-6.5a3.1 3.1 0 0 0 4.453.099c1.183-1.173 1.223-3.141.07-4.354z"/><path fill="#13706D" d="M164.775 109.755a3.32 3.32 0 0 1 1.044-2.117l6.341-5.894a3.96 3.96 0 0 1-.526-2.207 3.9 3.9 0 0 1 1.361-2.803c1.63-1.431 4.135-1.282 5.596.318.448.487.766 1.093.925 1.73a.73.73 0 0 0 .487.517 4 4 0 0 1 1.66 1.043c1.491 1.571 1.451 4.085-.09 5.606a4 4 0 0 1-2.892 1.153 4 4 0 0 1-2.157-.686l-6.411 5.964a3.13 3.13 0 0 1-2.336.845 3.15 3.15 0 0 1-2.236-1.084c-.587-.666-.825-1.53-.746-2.375zm9.463-7.823a.88.88 0 0 1-.278.567l-6.918 6.431c-.587.547-.666 1.451-.169 2.018.248.288.606.457.984.477.387.02.745-.11 1.033-.378l6.988-6.5a.885.885 0 0 1 1.262.049c.408.438.974.696 1.571.706a2.18 2.18 0 0 0 1.6-.636c.835-.825.865-2.247.05-3.101a2.2 2.2 0 0 0-.915-.577 2.54 2.54 0 0 1-1.67-1.799 2.16 2.16 0 0 0-.507-.954c-.795-.875-2.216-.954-3.101-.179a2.23 2.23 0 0 0-.755 1.55c-.03.607.179 1.183.586 1.621a.9.9 0 0 1 .239.636z"/><path fill="#C0E6E3" d="M60.491 130.509c20.805 0 37.67-16.866 37.67-37.671s-16.865-37.671-37.67-37.671-37.67 16.866-37.67 37.67c0 20.806 16.865 37.672 37.67 37.672"/><path fill="#fff" d="M62.996 126.473c20.805 0 37.67-16.865 37.67-37.67s-16.865-37.671-37.67-37.671-37.67 16.865-37.67 37.67 16.865 37.671 37.67 37.671"/><path fill="#8DC4BF" d="M50.562 72.174s-4.77 3.09-3.23 9.79c1.252 5.487 1.45 5.467 1.45 9.602s-.486 9.224 5.657 13.1 16.042-.08 18.567-2.097"/><path fill="#13706D" d="M60.83 107.111c-2.406 0-4.791-.487-6.809-1.759-6.103-3.847-6.063-8.886-6.023-12.931v-.845c0-3.34-.12-3.827-.875-7.047-.159-.666-.338-1.442-.557-2.386-.854-3.727.15-6.411 1.143-8.001 1.084-1.74 2.376-2.594 2.436-2.624a.782.782 0 1 1 .854 1.312c-.178.119-4.284 2.902-2.892 8.965.219.934.398 1.71.557 2.376.765 3.22.914 3.886.924 7.405v.854c-.03 3.847-.06 8.201 5.298 11.59 3.13 1.978 7.196 1.67 10.059 1.054 3.29-.696 6.37-2.118 7.603-3.102a.78.78 0 0 1 1.104.13.78.78 0 0 1-.13 1.103c-1.918 1.531-7.355 3.916-12.673 3.916z"/><path fill="#ABDCD9" d="M64.924 73.983a9 9 0 0 0-.835-1.491c-2.455-3.49-7.255-4.593-10.983-2.505a8.415 8.415 0 0 0-2.196 12.931c2.196 2.485 3.578 5.626 3.528 8.946a12.22 12.22 0 0 0 2.475 7.584c3.747 4.989 10.775 6.341 16.112 3.131 5.954-3.589 7.733-11.361 3.986-17.166a12.17 12.17 0 0 0-5.358-4.572c-3.041-1.342-5.397-3.807-6.729-6.858"/><path fill="#13706D" d="M66.754 105.093c-4.006 0-7.962-1.809-10.487-5.168a12.95 12.95 0 0 1-2.624-8.061c.05-2.942-1.133-5.924-3.33-8.409a9.2 9.2 0 0 1-2.038-8.32c.617-2.494 2.197-4.552 4.444-5.814 4.055-2.276 9.333-1.073 12.007 2.733.358.517.666 1.064.914 1.62 1.282 2.933 3.529 5.219 6.322 6.451a13.06 13.06 0 0 1 5.705 4.87 12.96 12.96 0 0 1 1.75 10.03c-.806 3.469-2.933 6.391-5.994 8.24a12.9 12.9 0 0 1-6.67 1.838zm-9.592-35.354a7.5 7.5 0 0 0-3.678.954 7.56 7.56 0 0 0-3.687 4.82 7.54 7.54 0 0 0 .994 5.974c.208.328.447.636.705.924 2.455 2.784 3.777 6.143 3.718 9.473a11.42 11.42 0 0 0 2.316 7.097c3.478 4.641 10.108 5.924 15.078 2.922a11.38 11.38 0 0 0 5.268-7.246 11.43 11.43 0 0 0-1.53-8.816 11.4 11.4 0 0 0-5.01-4.284c-3.161-1.392-5.686-3.966-7.127-7.266a7.6 7.6 0 0 0-.765-1.352c-1.462-2.077-3.857-3.22-6.282-3.22z"/><path fill="#C6E5E2" d="M71.704 100.412a9.7 9.7 0 0 0 4.472-6.143 9.66 9.66 0 0 0-1.302-7.474 9.65 9.65 0 0 0-4.244-3.628c-3.558-1.57-6.41-4.463-8.031-8.16a6 6 0 0 0-.586-1.044c-1.124-1.6-2.972-2.485-4.841-2.485-.974 0-1.948.238-2.833.735a5.8 5.8 0 0 0-2.843 3.718 5.8 5.8 0 0 0 .766 4.612c.159.248.348.497.547.715 2.743 3.101 4.224 6.888 4.154 10.665-.04 2.177.646 4.255 1.968 6.014 2.952 3.926 8.568 5.019 12.782 2.475z"/><path fill="#DCF0EF" d="M70.869 99.01a8.04 8.04 0 0 0 3.717-5.119 8.03 8.03 0 0 0-1.083-6.222 8.04 8.04 0 0 0-3.539-3.021c-3.936-1.73-7.087-4.93-8.866-8.996a4.7 4.7 0 0 0-.427-.755c-.785-1.123-2.097-1.79-3.509-1.79a4.15 4.15 0 0 0-2.038.528 4.2 4.2 0 0 0-2.057 2.693 4.2 4.2 0 0 0 .557 3.33c.119.189.248.358.397.517 3.012 3.41 4.642 7.594 4.572 11.768a8.04 8.04 0 0 0 1.64 5.01c2.456 3.27 7.127 4.174 10.636 2.057"/><path fill="#C6E5E2" d="M66.863 97.162a5.586 5.586 0 1 0 0-11.172 5.586 5.586 0 0 0 0 11.172"/><path fill="#8DC4BF" d="M71.534 88.514q.03.272.03.557a5.59 5.59 0 0 1-5.586 5.586 5.58 5.58 0 0 1-4.671-2.525 5.59 5.59 0 0 0 5.556 5.03 5.59 5.59 0 0 0 5.586-5.587 5.55 5.55 0 0 0-.915-3.06"/><path fill="#13706D" d="M66.863 97.947a6.38 6.38 0 0 1-6.372-6.371c0-3.51 2.863-6.372 6.371-6.372 3.51 0 6.372 2.863 6.372 6.372s-2.863 6.37-6.371 6.37m0-11.172a4.81 4.81 0 0 0-4.801 4.8 4.81 4.81 0 0 0 4.8 4.801 4.81 4.81 0 0 0 4.801-4.8 4.81 4.81 0 0 0-4.8-4.801"/><g fill="#13706D"><path d="m52.073 70.524-.388-.567a9.3 9.3 0 0 0-3.28-2.932"/><path d="M52.073 71.309a.78.78 0 0 1-.646-.338l-.388-.567a8.56 8.56 0 0 0-3.002-2.683.786.786 0 0 1-.328-1.064.797.797 0 0 1 1.064-.328 10.1 10.1 0 0 1 3.558 3.18l.388.567a.784.784 0 0 1-.646 1.233"/></g><path fill="#fff" d="M117.364 29.175c1.998 1.163 4.533 0 4.97-2.266.577-3.052 4.642-3.728 6.192-1.034 1.144 1.998 3.927 2.266 5.437.527 2.028-2.356 5.885-.915 5.875 2.197 0 2.305 2.266 3.926 4.443 3.17 2.932-1.024 5.556 2.157 3.995 4.84-1.163 1.999 0 4.533 2.267 4.97 3.051.577 3.727 4.642 1.033 6.193-1.998 1.143-2.266 3.926-.527 5.437 2.356 2.027.915 5.884-2.196 5.874-2.306 0-3.926 2.266-3.171 4.443 1.024 2.932-2.157 5.556-4.84 3.996-1.998-1.163-4.533 0-4.97 2.266-.577 3.051-4.642 3.727-6.193 1.034-1.143-1.998-3.926-2.267-5.436-.527-2.028 2.355-5.885.914-5.875-2.197 0-2.306-2.266-3.926-4.443-3.17-2.932 1.023-5.556-2.157-3.995-4.841 1.163-1.998 0-4.533-2.267-4.97-3.051-.576-3.727-4.642-1.033-6.192 1.998-1.143 2.266-3.926.526-5.437-2.355-2.028-.914-5.884 2.197-5.874 2.306 0 3.926-2.267 3.171-4.443-1.024-2.933 2.157-5.557 4.84-3.996"/><path fill="#8DC4BF" d="M145.285 67.97a4.3 4.3 0 0 1-4.94.397 2.33 2.33 0 0 0-2.157-.11 2.3 2.3 0 0 0-1.332 1.7 4.32 4.32 0 0 1-3.548 3.469 4.3 4.3 0 0 1-4.483-2.127 2.3 2.3 0 0 0-1.819-1.173 2.33 2.33 0 0 0-2.008.805 4.29 4.29 0 0 1-4.801 1.233 4.32 4.32 0 0 1-2.822-4.076c0-.775-.358-1.47-.984-1.928a2.32 2.32 0 0 0-2.137-.308 4.3 4.3 0 0 1-4.781-1.342 4.29 4.29 0 0 1-.398-4.94 2.33 2.33 0 0 0 .109-2.157 2.3 2.3 0 0 0-1.699-1.332c-1.799-.338-3.161-1.739-3.469-3.548-.298-1.809.527-3.578 2.127-4.483a2.354 2.354 0 0 0 .368-3.826 4.305 4.305 0 0 1-1.233-4.801 4.32 4.32 0 0 1 4.075-2.823c.776 0 1.471-.358 1.919-.984a2.35 2.35 0 0 0 .308-2.137 4.31 4.31 0 0 1 1.332-4.781 4.3 4.3 0 0 1 4.94-.398 2.33 2.33 0 0 0 2.157.11 2.3 2.3 0 0 0 1.331-1.7 4.31 4.31 0 0 1 3.549-3.469 4.305 4.305 0 0 1 4.483 2.127 2.3 2.3 0 0 0 1.819 1.173 2.36 2.36 0 0 0 2.007-.805c1.193-1.392 3.082-1.869 4.801-1.233a4.31 4.31 0 0 1 2.823 4.076c0 .775.358 1.47.984 1.928a2.31 2.31 0 0 0 2.137.308 4.315 4.315 0 0 1 4.781 1.332 4.3 4.3 0 0 1 .407 4.94 2.33 2.33 0 0 0-.109 2.157 2.3 2.3 0 0 0 1.7 1.332 4.325 4.325 0 0 1 3.469 3.548 4.3 4.3 0 0 1-2.127 4.483 2.34 2.34 0 0 0-1.173 1.819c-.07.765.218 1.5.805 2.008a4.31 4.31 0 0 1 1.232 4.8 4.32 4.32 0 0 1-4.075 2.823c-.775 0-1.471.358-1.918.984a2.34 2.34 0 0 0-.308 2.137 4.3 4.3 0 0 1-1.332 4.771zm-8.906-.905c.288-.239.616-.448.984-.607a4.32 4.32 0 0 1 3.986.2c1.043.605 2.067.287 2.683-.22.607-.507 1.124-1.45.726-2.584a4.3 4.3 0 0 1 .567-3.946 4.26 4.26 0 0 1 3.548-1.819c1.203 0 1.938-.785 2.207-1.53.268-.746.248-1.82-.666-2.605a4.26 4.26 0 0 1-1.481-3.697 4.28 4.28 0 0 1 2.166-3.35c1.034-.596 1.283-1.65 1.153-2.425-.129-.785-.695-1.7-1.878-1.918a4.3 4.3 0 0 1-3.141-2.465 4.29 4.29 0 0 1 .199-3.986c.606-1.044.288-2.068-.219-2.674s-1.451-1.123-2.584-.725a4.28 4.28 0 0 1-3.946-.567 4.26 4.26 0 0 1-1.819-3.548c0-1.203-.785-1.929-1.531-2.207s-1.819-.239-2.604.666a4.26 4.26 0 0 1-3.698 1.48 4.28 4.28 0 0 1-3.349-2.166c-.597-1.044-1.65-1.282-2.425-1.153-.776.13-1.7.696-1.919 1.879a4.27 4.27 0 0 1-2.465 3.13 4.35 4.35 0 0 1-3.986-.198c-1.043-.607-2.067-.288-2.673.218-.607.507-1.123 1.452-.726 2.585a4.28 4.28 0 0 1-.566 3.946 4.29 4.29 0 0 1-3.549 1.819c-1.202 0-1.938.785-2.206 1.53-.269.746-.249 1.82.666 2.605a4.27 4.27 0 0 1 1.481 3.697 4.28 4.28 0 0 1-2.167 3.35c-1.044.596-1.282 1.65-1.153 2.425.129.785.696 1.7 1.878 1.918a4.3 4.3 0 0 1 3.141 2.465 4.28 4.28 0 0 1-.199 3.986c-.606 1.044-.288 2.068.219 2.674s1.451 1.123 2.584.725a4.28 4.28 0 0 1 3.946.567 4.26 4.26 0 0 1 1.819 3.548c0 1.203.786 1.939 1.531 2.207s1.819.239 2.604-.666a4.26 4.26 0 0 1 3.698-1.481 4.28 4.28 0 0 1 3.349 2.167c.597 1.044 1.65 1.282 2.426 1.153.775-.13 1.699-.696 1.918-1.879a4.33 4.33 0 0 1 1.481-2.524z"/><path fill="#8DC4BF" d="m130.882 40.148-3.001 2.475-2.754-2.733a2.565 2.565 0 0 0-3.449-.16 2.41 2.41 0 0 0-.328 3.39l.199.239a7.15 7.15 0 0 1 1.421 2.872l.477 2.078c-.397.05-.785.208-1.103.467l-1.908 1.57a2.1 2.1 0 0 0-.288 2.952l5.496 6.67a2.1 2.1 0 0 0 2.952.288l1.909-1.57c.487-.398.755-.984.765-1.59a3.27 3.27 0 0 0 2.097-.766l5.894-4.86a3.306 3.306 0 0 0 .646-4.424l-4.144-6.182c-.06-.09-.13-.179-.199-.268a3.33 3.33 0 0 0-4.692-.448zm-8.001 2.117-.199-.238a.68.68 0 0 1 .09-.954.84.84 0 0 1 1.123.05l3.31 3.28a.86.86 0 0 0 1.163.05l3.608-2.973a1.597 1.597 0 0 1 2.256.219c.03.04.069.08.099.13l4.145 6.182c.457.685.328 1.6-.308 2.127l-5.894 4.86a1.597 1.597 0 0 1-2.256-.219l-4.583-5.556-.775-3.38a8.7 8.7 0 0 0-1.769-3.588zm-1.392 9.95a.365.365 0 0 1 .05-.517l1.908-1.57c.16-.13.388-.11.517.05l5.497 6.669a.365.365 0 0 1-.05.517l-1.908 1.57a.365.365 0 0 1-.517-.05z"/><path fill="#DCF0EF" d="m123.451 50.118-1.909 1.575a.37.37 0 0 0-.05.518l5.495 6.664a.37.37 0 0 0 .518.05l1.909-1.575a.37.37 0 0 0 .05-.518l-5.495-6.664a.37.37 0 0 0-.518-.05"/></svg>