<svg width="220" height="180" viewBox="0 0 220 180" fill="none" xmlns="http://www.w3.org/2000/svg">
<path d="M107.64 12H112.36C170.11 12 217 58.89 217 116.64V141.38C217 156.08 205.07 168.01 190.37 168.01H29.63C14.93 168.01 3 156.08 3 141.38V116.64C3 58.89 49.89 12 107.64 12Z" fill="#DCF0EF"/>
<path d="M110.48 129.55C136.15 129.55 156.96 108.74 156.96 83.07C156.96 57.3998 136.15 36.59 110.48 36.59C84.8098 36.59 64 57.3998 64 83.07C64 108.74 84.8098 129.55 110.48 129.55Z" fill="white"/>
<path d="M60.3301 72.87L69.4301 94.7H95.7201L80.3901 66.97L60.3301 72.87Z" fill="#C0E6E3"/>
<path d="M95.7199 95.7H69.4199C69.0199 95.7 68.6499 95.46 68.4999 95.08L59.3999 73.26C59.2899 73 59.2999 72.7 59.4199 72.44C59.5399 72.18 59.7699 71.99 60.0399 71.91L80.0999 66.01C80.5499 65.87 81.0299 66.07 81.2599 66.48L96.5999 94.2C96.7699 94.51 96.7699 94.89 96.5899 95.19C96.4099 95.49 96.0799 95.68 95.7299 95.68L95.7199 95.7ZM70.0899 93.7H94.0199L79.8899 68.16L61.6699 73.52L70.0799 93.7H70.0899Z" fill="#13706D"/>
<path d="M63.68 98.34C63.68 98.34 54.97 47.63 50.73 39.44L58.94 34.41C58.94 34.41 71.56 68.63 69.75 92.94C67.94 117.25 66.5 119.63 66.5 119.63L63.68 98.34Z" fill="#C0E6E3"/>
<path d="M66.4999 120.63C66.4299 120.63 66.3599 120.63 66.2999 120.61C65.8799 120.52 65.5699 120.18 65.5099 119.76L62.6999 98.49C62.4899 97.28 53.9399 47.8 49.8499 39.9C49.6099 39.43 49.7699 38.86 50.2199 38.59L58.4299 33.56C58.6799 33.4 58.9999 33.37 59.2799 33.47C59.5599 33.57 59.7899 33.79 59.8899 34.07C60.0199 34.41 72.5699 68.77 70.7599 93.02C69.0099 116.39 67.6299 119.72 67.3699 120.15C67.1899 120.45 66.8599 120.63 66.5099 120.63H66.4999ZM52.0099 39.82C56.3799 50.1 64.3199 96.15 64.6699 98.17V98.21L66.7099 113.6C67.2499 109.77 67.9699 103.4 68.7499 92.87C70.3399 71.54 60.5599 42.06 58.4099 35.91L52.0099 39.83V39.82Z" fill="#13706D"/>
<path d="M53.6104 85.79L57.3004 80.6L74.8503 98.43L57.3004 94.7L53.6104 85.79Z" fill="#ABDCD9"/>
<path d="M74.8501 99.43C74.7801 99.43 74.7101 99.43 74.6401 99.41L57.0901 95.68C56.7701 95.61 56.5001 95.39 56.3701 95.08L52.6801 86.17C52.5501 85.85 52.5901 85.49 52.7901 85.21L56.4801 80.02C56.6501 79.78 56.9201 79.63 57.2201 79.6C57.5201 79.57 57.8001 79.68 58.0101 79.9L75.5601 97.73C75.8701 98.04 75.9401 98.52 75.7201 98.91C75.5401 99.24 75.2001 99.43 74.8401 99.43H74.8501ZM58.0201 93.83L71.8001 96.76L57.4201 82.15L54.7401 85.92L58.0201 93.83Z" fill="#13706D"/>
<path d="M66.3001 103.6C66.3001 103.6 51.0601 70.29 45.8901 65.69L53.0601 59.88C53.0601 59.88 69.8001 80.5 71.3701 98.12C72.9401 115.75 71.8901 117.82 71.8901 117.82L66.3001 103.6Z" fill="#C0E6E3"/>
<path d="M71.8999 118.82C71.8999 118.82 71.8699 118.82 71.8499 118.82C71.4599 118.8 71.1099 118.55 70.9699 118.19L65.3899 104C60.1499 92.54 49.1999 69.97 45.2399 66.44C45.0199 66.24 44.8999 65.96 44.8999 65.67C44.8999 65.38 45.0399 65.1 45.2699 64.92L52.4399 59.11C52.8699 58.76 53.4999 58.83 53.8499 59.26C54.5399 60.11 70.7999 80.32 72.3799 98.04C73.5599 111.25 73.3699 117.15 72.7999 118.28C72.6299 118.62 72.2799 118.83 71.9099 118.83L71.8999 118.82ZM47.3599 65.79C53.1799 72.61 66.6099 101.89 67.2099 103.19C67.2099 103.21 67.2199 103.22 67.2299 103.24L71.2399 113.44C71.2399 110.64 71.0599 105.95 70.3699 98.22C69.0099 83.01 55.9099 65.22 52.8999 61.3L47.3599 65.79Z" fill="#13706D"/>
<path d="M59.2002 86.07C59.2002 86.07 51.9602 58.53 46.2202 53.16L50.0302 49.37L53.2702 50.25L53.1402 47.64L56.2202 46.14C56.2202 46.14 64.7702 68.06 67.0702 86.1C69.3702 104.14 67.9202 108.05 67.9202 108.05L60.3302 94.61L59.2002 86.06V86.07Z" fill="white"/>
<path d="M67.9202 109.06C67.5602 109.06 67.2302 108.87 67.0502 108.55L59.4602 95.11C59.4002 95 59.3602 94.88 59.3402 94.75L58.2202 86.26C57.8402 84.82 50.8802 58.88 45.5402 53.89C45.3402 53.7 45.2302 53.45 45.2202 53.17C45.2202 52.9 45.3202 52.64 45.5102 52.45L49.3202 48.66C49.5702 48.41 49.9402 48.31 50.2902 48.41L52.2002 48.93L52.1402 47.7C52.1202 47.3 52.3402 46.93 52.7002 46.75L55.7802 45.25C56.0302 45.13 56.3202 45.12 56.5802 45.22C56.8402 45.32 57.0502 45.53 57.1502 45.79C57.2402 46.01 65.7702 68.03 68.0602 85.99C70.3202 103.76 69.0102 107.99 68.8502 108.42C68.7102 108.79 68.3802 109.04 67.9902 109.07C67.9602 109.07 67.9402 109.07 67.9102 109.07L67.9202 109.06ZM61.3002 94.3L67.3202 104.95C67.4702 102.03 67.3902 96.4 66.0902 86.23C64.1102 70.7 57.3802 52.03 55.6902 47.52L54.1802 48.25L54.2702 50.2C54.2902 50.52 54.1502 50.83 53.9002 51.03C53.6502 51.23 53.3202 51.3 53.0102 51.21L50.3302 50.48L47.6102 53.18C53.3402 60.02 59.8802 84.72 60.1702 85.81C60.1802 85.85 60.1902 85.89 60.1902 85.93L61.3002 94.29V94.3Z" fill="#13706D"/>
<path d="M90.6901 97.12C100.22 86.27 86.8801 69.57 73.0901 75.91C59.3001 82.25 64.4801 95.82 64.4801 95.82" fill="white"/>
<path d="M90.6901 98.12C90.4601 98.12 90.2201 98.04 90.0301 97.87C89.6101 97.51 89.5701 96.87 89.9401 96.46C94.6101 91.15 93.0201 84.92 90.2501 81.2C86.9101 76.72 80.4401 73.63 73.5101 76.82C60.7201 82.7 65.2201 94.95 65.4101 95.46C65.6101 95.98 65.3501 96.55 64.8301 96.75C64.3101 96.95 63.7401 96.69 63.5401 96.17C61.6401 91.17 61.1001 80.32 72.6701 75C80.6201 71.34 88.0301 74.88 91.8501 80.01C96.0901 85.7 95.9301 92.67 91.4401 97.78C91.2401 98 90.9701 98.12 90.6901 98.12Z" fill="#13706D"/>
<path d="M131.57 30.95C126.24 28.54 115.56 35.99 111.77 49.06C107.98 62.13 100.27 78.2 92.6699 91.38C85.0699 104.56 86.8599 115.8 92.1899 118.21C97.5199 120.62 105.27 108.71 111.99 100.1C118.71 91.49 125.61 70.53 131.09 57.78C136.57 45.03 136.9 33.36 131.57 30.95Z" fill="#E1F4F2"/>
<path d="M93.66 119.52C93.02 119.52 92.3899 119.39 91.7799 119.11C89.7599 118.2 88.2299 116.28 87.3499 113.57C85.4099 107.56 87.07 99.07 91.8 90.87C100.49 75.79 107.42 60.45 110.8 48.77C113.69 38.79 120.14 32.75 124.78 30.61C127.48 29.37 130.03 29.16 131.97 30.03C137.85 32.68 137.86 44.51 132 58.16C130.49 61.68 128.87 65.82 127.16 70.2C122.73 81.53 117.72 94.36 112.78 100.7C111.79 101.97 110.78 103.31 109.76 104.66C104.24 111.97 98.55 119.51 93.66 119.51V119.52ZM129.33 31.5C128.23 31.5 126.97 31.81 125.63 32.43C121.37 34.4 115.44 40 112.73 49.33C109.3 61.15 102.31 76.66 93.5399 91.87C89.09 99.59 87.49 107.47 89.26 112.95C89.95 115.08 91.1299 116.62 92.5999 117.28C96.4199 118.99 102.93 110.38 108.16 103.45C109.19 102.09 110.21 100.74 111.2 99.46C115.96 93.35 120.92 80.66 125.3 69.46C127.02 65.07 128.64 60.92 130.17 57.36C135.41 45.16 135.84 33.95 131.16 31.84C130.63 31.6 130.01 31.48 129.33 31.48V31.5Z" fill="#13706D"/>
<path d="M112.57 48.86C112.57 48.86 120.1 56.49 119.42 66.1C119.42 66.1 110.24 63.82 109.78 55.62" fill="#A5D3CF"/>
<path d="M119.42 67.09C119.34 67.09 119.26 67.09 119.18 67.06C119.08 67.04 109.28 64.5 108.78 55.66C108.75 55.11 109.17 54.64 109.72 54.61C110.27 54.57 110.74 55 110.77 55.55C111.09 61.28 116.1 63.84 118.46 64.73C118.39 56.3 111.92 49.62 111.85 49.55C111.46 49.16 111.47 48.52 111.85 48.14C112.24 47.75 112.88 47.76 113.26 48.14C113.58 48.47 121.1 56.2 120.4 66.15C120.38 66.44 120.23 66.72 119.99 66.89C119.82 67.02 119.61 67.08 119.4 67.08L119.42 67.09Z" fill="#13706D"/>
<path d="M104.11 69.2C104.11 69.2 112.05 76.97 111.37 86.58C111.37 86.58 101.78 84.16 101.32 75.95" fill="#A5D3CF"/>
<path d="M111.37 87.59C111.29 87.59 111.21 87.59 111.12 87.56C110.7 87.45 100.81 84.85 100.32 76.02C100.29 75.47 100.71 75 101.26 74.97C101.79 74.95 102.28 75.36 102.31 75.91C102.63 81.6 107.96 84.28 110.4 85.22C110.29 76.79 103.47 70 103.4 69.93C103.01 69.54 103 68.91 103.39 68.52C103.78 68.13 104.41 68.12 104.8 68.5C105.14 68.83 113.06 76.71 112.36 86.67C112.34 86.97 112.19 87.24 111.95 87.41C111.78 87.53 111.57 87.6 111.36 87.6L111.37 87.59Z" fill="#13706D"/>
<path d="M95.2097 87.58C95.2097 87.58 101.13 94.94 99.4997 104.44C99.4997 104.44 91.3097 101.42 91.6697 93.21" fill="#A5D3CF"/>
<path d="M99.4998 105.44C99.3798 105.44 99.2698 105.42 99.1498 105.38C99.0598 105.35 90.2798 102.01 90.6698 93.17C90.6898 92.62 91.1298 92.19 91.7098 92.21C92.2598 92.23 92.6898 92.7 92.6698 93.25C92.4198 98.89 96.5898 101.84 98.6898 102.96C99.5098 94.67 94.4798 88.27 94.4298 88.2C94.0898 87.77 94.1498 87.14 94.5798 86.79C95.0098 86.44 95.6398 86.51 95.9898 86.94C96.2398 87.25 102.18 94.77 100.49 104.59C100.44 104.88 100.26 105.14 99.9998 105.29C99.8498 105.38 99.6698 105.42 99.4998 105.42V105.44Z" fill="#13706D"/>
<path d="M92.2001 118.2C91.8101 118.03 91.4501 117.8 91.1001 117.53C92.9201 116.13 94.8301 114.07 96.7701 111.73C98.0401 110.2 100.28 109.81 101.55 108.14C102.44 106.97 104.45 101.78 105.04 101.02C106.32 99.38 107.61 97.28 108.9 94.88C109.4 93.95 109.9 92.97 110.4 91.95C111.11 90.5 112.87 90.47 113.57 88.89C114.39 87.04 114.15 83.64 114.95 81.69C116.23 78.59 117.48 75.4 118.7 72.29C119.14 71.18 122.1 70.73 122.53 69.64C123.01 68.41 122.44 63.4 122.91 62.22C123.85 59.85 123.27 60.74 124.15 58.71C129.63 45.96 129.96 34.29 124.63 31.88C124.63 31.88 124.59 31.86 124.57 31.86C127.21 30.48 129.73 30.12 131.59 30.96C136.92 33.37 136.59 45.03 131.11 57.79C125.63 70.54 118.73 91.5 112.01 100.11C105.29 108.72 97.5501 120.63 92.2101 118.22L92.2001 118.2Z" fill="#ABDCD9"/>
<path d="M93.66 119.52C93.02 119.52 92.3899 119.39 91.7799 119.11C89.7599 118.2 88.2299 116.28 87.3499 113.57C85.4099 107.56 87.07 99.07 91.8 90.87C100.49 75.79 107.42 60.45 110.8 48.77C113.69 38.79 120.14 32.75 124.78 30.61C127.48 29.37 130.03 29.16 131.97 30.03C137.85 32.68 137.86 44.51 132 58.16C130.49 61.68 128.87 65.82 127.16 70.2C122.73 81.53 117.72 94.36 112.78 100.7C111.79 101.97 110.78 103.31 109.76 104.66C104.24 111.97 98.55 119.51 93.66 119.51V119.52ZM129.33 31.5C128.23 31.5 126.97 31.81 125.63 32.43C121.37 34.4 115.44 40 112.73 49.33C109.3 61.15 102.31 76.66 93.5399 91.87C89.09 99.59 87.49 107.47 89.26 112.95C89.95 115.08 91.1299 116.62 92.5999 117.28C96.4199 118.99 102.93 110.38 108.16 103.45C109.19 102.09 110.21 100.74 111.2 99.46C115.96 93.35 120.92 80.66 125.3 69.46C127.02 65.07 128.64 60.92 130.17 57.36C135.41 45.16 135.84 33.95 131.16 31.84C130.63 31.6 130.01 31.48 129.33 31.48V31.5Z" fill="#13706D"/>
<path d="M103.039 89.2557C103.29 88.5067 103.034 87.7462 102.468 87.557C101.903 87.3679 101.241 87.8217 100.991 88.5707C100.74 89.3197 100.996 90.0802 101.561 90.2694C102.127 90.4586 102.789 90.0047 103.039 89.2557Z" fill="#8DC4BF"/>
<path d="M125.117 48.0789C125.367 47.3299 125.112 46.5694 124.546 46.3802C123.98 46.191 123.319 46.6449 123.068 47.3939C122.818 48.1429 123.073 48.9034 123.639 49.0926C124.205 49.2817 124.866 48.8279 125.117 48.0789Z" fill="#8DC4BF"/>
<path d="M110.914 66.4092C111.124 65.7807 110.908 65.142 110.432 64.9826C109.955 64.8232 109.398 65.2035 109.188 65.832C108.978 66.4606 109.194 67.0993 109.671 67.2587C110.147 67.4181 110.704 67.0378 110.914 66.4092Z" fill="#8DC4BF"/>
<path d="M82.4196 74.88C82.4196 74.88 92.4596 85.11 78.3696 95.75L82.4196 74.88Z" fill="white"/>
<path d="M78.3598 96.75C78.0598 96.75 77.7598 96.61 77.5598 96.35C77.2298 95.91 77.3098 95.28 77.7598 94.95C82.1798 91.61 84.5698 88.01 84.8498 84.25C85.2298 79.27 81.7298 75.61 81.6998 75.58C81.3198 75.18 81.3198 74.55 81.7198 74.17C82.1098 73.79 82.7498 73.79 83.1298 74.18C83.2998 74.35 87.2898 78.49 86.8498 84.38C86.5298 88.75 83.8698 92.85 78.9698 96.55C78.7898 96.69 78.5798 96.75 78.3698 96.75H78.3598Z" fill="#13706D"/>
<path d="M109.92 147.43H63.1898C55.6298 147.43 49.6698 141.02 50.1998 133.48L53.6098 85.78L61.6098 89.78L68.3998 85.78L75.5698 89.78L82.2598 85.78L88.9498 89.78L95.1698 85.78L101.63 89.78L108.32 85.78L114.06 89.78L120.5 85.78L123.84 132.47C124.42 140.55 118.02 147.42 109.92 147.42V147.43Z" fill="#C0E6E3"/>
<path d="M109.92 148.43H63.1898C59.2498 148.43 55.6098 146.84 52.9298 143.96C50.2498 141.08 48.9298 137.33 49.2098 133.41L52.6198 85.71C52.6398 85.38 52.8298 85.08 53.1198 84.91C53.4098 84.74 53.7598 84.74 54.0598 84.88L61.5698 88.64L67.8898 84.92C68.1998 84.74 68.5698 84.73 68.8898 84.91L75.5598 88.63L81.7598 84.93C82.0798 84.74 82.4698 84.74 82.7898 84.93L88.9498 88.61L94.6498 84.95C94.9798 84.74 95.3898 84.74 95.7198 84.95L101.66 88.63L107.83 84.94C108.17 84.74 108.59 84.75 108.91 84.98L114.11 88.6L119.99 84.95C120.29 84.77 120.66 84.75 120.97 84.91C121.28 85.07 121.49 85.38 121.51 85.73L124.85 132.43C125.15 136.62 123.74 140.61 120.88 143.69C118.02 146.77 114.13 148.45 109.93 148.45L109.92 148.43ZM54.4998 87.35L51.1998 133.56C50.9598 136.93 52.0898 140.14 54.3898 142.61C56.6898 145.08 59.8098 146.44 63.1898 146.44H109.92C113.56 146.44 116.92 144.97 119.4 142.31C121.88 139.65 123.1 136.19 122.84 132.56L119.62 87.52L114.59 90.65C114.25 90.86 113.82 90.85 113.49 90.62L108.28 86.99L102.14 90.66C101.82 90.85 101.42 90.85 101.1 90.66L95.1798 86.99L89.4898 90.65C89.1698 90.86 88.7598 90.86 88.4398 90.67L82.2598 86.98L76.0798 90.67C75.7698 90.85 75.3898 90.86 75.0798 90.68L68.4098 86.96L62.1198 90.67C61.8298 90.84 61.4698 90.85 61.1598 90.7L54.4998 87.37V87.35Z" fill="#13706D"/>
<path d="M110.49 138.4C110.1 138.4 109.73 138.17 109.57 137.79C109.35 137.28 109.59 136.7 110.1 136.48C110.62 136.26 122.73 130.9 121.71 116.69C121.67 116.14 122.09 115.66 122.64 115.62C123.21 115.57 123.67 116 123.71 116.55C124.83 132.21 111.03 138.27 110.89 138.33C110.76 138.38 110.63 138.41 110.5 138.41L110.49 138.4Z" fill="#13706D"/>
<path d="M74.0202 133.48C73.8802 133.48 73.7302 133.45 73.5902 133.38C60.9902 127.33 62.0302 114.75 62.0402 114.62C62.0902 114.07 62.5502 113.66 63.1302 113.72C63.6802 113.77 64.0802 114.26 64.0302 114.81C63.9902 115.27 63.1302 126.15 74.4502 131.58C74.9502 131.82 75.1602 132.42 74.9202 132.91C74.7502 133.27 74.3902 133.48 74.0202 133.48Z" fill="#13706D"/>
<path d="M69.2201 137.51H29.3901V158.2H69.2201V137.51Z" fill="white"/>
<path d="M69.2201 159.19H29.3901C28.8401 159.19 28.3901 158.74 28.3901 158.19V137.5C28.3901 136.95 28.8401 136.5 29.3901 136.5H69.2201C69.7701 136.5 70.2201 136.95 70.2201 137.5V158.19C70.2201 158.74 69.7701 159.19 69.2201 159.19ZM30.3901 157.19H68.2201V138.5H30.3901V157.19Z" fill="#13706D"/>
<path d="M29.3901 137.3C29.3901 137.3 31.4301 126.6 47.0301 124.63L69.2201 137.3H29.3901Z" fill="#C0E6E3"/>
<path d="M69.2202 138.3H29.3902C29.0902 138.3 28.8102 138.17 28.6202 137.94C28.4302 137.71 28.3502 137.41 28.4102 137.11C28.5002 136.64 30.7702 125.68 46.9002 123.63C47.1102 123.6 47.3302 123.65 47.5202 123.75L69.7102 136.42C70.1002 136.64 70.3002 137.11 70.1802 137.54C70.0602 137.97 69.6702 138.28 69.2102 138.28L69.2202 138.3ZM30.7502 136.3H65.4502L46.8202 125.66C35.4502 127.21 31.7902 133.62 30.7502 136.3Z" fill="#13706D"/>
<path d="M40.4398 154.23C42.29 154.23 43.7898 152.802 43.7898 151.04C43.7898 149.278 42.29 147.85 40.4398 147.85C38.5897 147.85 37.0898 149.278 37.0898 151.04C37.0898 152.802 38.5897 154.23 40.4398 154.23Z" fill="#C0E6E3"/>
<path d="M40.4398 155.23C38.0398 155.23 36.0898 153.35 36.0898 151.04C36.0898 148.73 38.0398 146.85 40.4398 146.85C42.8398 146.85 44.7898 148.73 44.7898 151.04C44.7898 153.35 42.8398 155.23 40.4398 155.23ZM40.4398 148.85C39.1398 148.85 38.0898 149.83 38.0898 151.04C38.0898 152.25 39.1398 153.23 40.4398 153.23C41.7398 153.23 42.7898 152.25 42.7898 151.04C42.7898 149.83 41.7398 148.85 40.4398 148.85Z" fill="#13706D"/>
<path d="M69.22 146.02C68.51 145.49 67.63 145.17 66.66 145.17C64.36 145.17 62.5 146.94 62.5 149.13C62.5 151.32 64.36 153.09 66.66 153.09C67.63 153.09 68.52 152.77 69.22 152.24V146.01V146.02Z" fill="#C0E6E3"/>
<path d="M66.66 154.09C63.82 154.09 61.5 151.87 61.5 149.13C61.5 146.39 63.81 144.17 66.66 144.17C67.81 144.17 68.91 144.53 69.82 145.21C70.07 145.4 70.22 145.7 70.22 146.01V152.24C70.22 152.56 70.07 152.85 69.82 153.04C68.91 153.72 67.81 154.08 66.66 154.08V154.09ZM66.66 146.17C64.92 146.17 63.5 147.5 63.5 149.13C63.5 150.76 64.92 152.09 66.66 152.09C67.22 152.09 67.75 151.96 68.22 151.7V146.56C67.75 146.3 67.21 146.17 66.66 146.17Z" fill="#13706D"/>
<path d="M49.01 139.78C49.01 141.54 50.51 142.97 52.36 142.97C54.21 142.97 55.71 141.54 55.71 139.78C55.71 138.89 55.32 138.08 54.7 137.5H50.01C49.39 138.08 49 138.88 49 139.78H49.01Z" fill="#C0E6E3"/>
<path d="M52.3598 143.97C49.9598 143.97 48.0098 142.09 48.0098 139.78C48.0098 138.64 48.4798 137.57 49.3298 136.77C49.5198 136.6 49.7598 136.5 50.0098 136.5H54.6998C54.9498 136.5 55.1998 136.6 55.3798 136.77C56.2298 137.57 56.6998 138.63 56.6998 139.78C56.6998 142.09 54.7498 143.97 52.3498 143.97H52.3598ZM50.4498 138.51C50.1598 138.88 50.0098 139.32 50.0098 139.79C50.0098 141 51.0598 141.98 52.3598 141.98C53.6598 141.98 54.7098 141 54.7098 139.79C54.7098 139.33 54.5598 138.88 54.2698 138.51H50.4498Z" fill="#13706D"/>
<path d="M46.5799 124.7C31.4099 126.83 29.3999 137.31 29.3999 137.31H41.7399C41.0699 136 40.5899 134.62 40.4399 133.18C39.9999 128.84 43.6599 126.15 46.5799 124.7Z" fill="#ABDCD9"/>
<path d="M69.2202 138.3H29.3902C29.0902 138.3 28.8102 138.17 28.6202 137.94C28.4302 137.71 28.3502 137.41 28.4102 137.11C28.5002 136.64 30.7702 125.68 46.9002 123.63C47.1102 123.6 47.3302 123.65 47.5202 123.75L69.7102 136.42C70.1002 136.64 70.3002 137.11 70.1802 137.54C70.0602 137.97 69.6702 138.28 69.2102 138.28L69.2202 138.3ZM30.7502 136.3H65.4502L46.8202 125.66C35.4502 127.21 31.7902 133.62 30.7502 136.3Z" fill="#13706D"/>
<path d="M69.2201 159.19H29.3901C28.8401 159.19 28.3901 158.74 28.3901 158.19V137.5C28.3901 136.95 28.8401 136.5 29.3901 136.5H69.2201C69.7701 136.5 70.2201 136.95 70.2201 137.5V158.19C70.2201 158.74 69.7701 159.19 69.2201 159.19ZM30.3901 157.19H68.2201V138.5H30.3901V157.19Z" fill="#13706D"/>
<path d="M146.18 72.49C144.03 72.19 142.1 73.11 141.08 74.6C140.53 75.41 139.49 75.84 138.44 75.78C138.06 75.76 137.67 75.79 137.27 75.88C135.91 76.19 134.84 77.24 134.58 78.48C134.15 80.6 135.95 82.45 138.22 82.45C138.58 82.45 138.93 82.4 139.26 82.32C141.24 81.79 143.27 81.58 145.33 81.59C145.34 81.59 145.36 81.59 145.37 81.59C148.54 81.59 151.03 78.98 150.33 76.01C149.9 74.19 148.21 72.77 146.17 72.48L146.18 72.49Z" fill="#ABDCD9"/>
<path d="M138.22 83.45C136.73 83.45 135.36 82.82 134.46 81.72C133.65 80.74 133.35 79.51 133.59 78.28C133.92 76.66 135.3 75.3 137.03 74.9C137.51 74.79 138 74.75 138.48 74.77C139.21 74.82 139.91 74.51 140.25 74.02C141.55 72.12 143.88 71.15 146.31 71.49C148.78 71.83 150.78 73.55 151.31 75.78C151.69 77.39 151.32 78.99 150.29 80.29C149.15 81.73 147.31 82.59 145.37 82.59C145.35 82.59 145.28 82.59 145.26 82.59C143.3 82.58 141.3 82.81 139.52 83.29C139.1 83.4 138.66 83.46 138.22 83.46V83.45ZM138.22 76.77C137.98 76.77 137.73 76.8 137.49 76.85C136.51 77.08 135.74 77.81 135.56 78.68C135.43 79.31 135.59 79.94 136.01 80.46C136.67 81.27 137.92 81.64 139 81.35C140.96 80.83 143.09 80.56 145.33 80.59C146.7 80.59 147.95 80.01 148.72 79.05C149.37 78.24 149.59 77.24 149.36 76.24C149.03 74.84 147.66 73.7 146.04 73.48C144.39 73.26 142.76 73.91 141.9 75.16C141.16 76.23 139.81 76.84 138.38 76.78C138.33 76.78 138.27 76.78 138.22 76.78V76.77Z" fill="#13706D"/>
<path d="M140.86 92.84C141.69 93.9 142.22 95.13 142.38 96.42C142.8 99.91 141.73 105.78 138.2 112.68C133.57 121.72 139.84 133.05 149.34 135.4C158.84 137.75 160.9 141.45 162.76 145.65C164.47 149.51 170.91 149.54 174.84 145.34C175.52 144.62 176.46 144.15 177.51 144.08C180.67 143.89 188.65 142.06 193.12 138.28C199.08 133.24 198.74 126.83 197.44 123.8C197.44 123.8 204.71 122.46 201.73 114.56C201.73 114.56 207.51 113.05 204.71 106.33C201.91 99.61 206.39 97.09 202.66 91.71C198.93 86.33 193.71 81.46 189.61 83.81C186.54 85.57 184.62 91.27 184.32 95.87C184.02 100.47 179.81 104.32 174.61 104.81C173.44 104.92 172.13 104.98 170.67 104.98C157.56 104.98 159.05 94.39 156.07 89.19C153.09 83.99 143.4 79.78 137.99 81.63C136.56 82.12 136.17 83.22 136.36 84.59C136.73 87.25 139.34 90.89 140.87 92.84H140.86Z" fill="white"/>
<path d="M167.84 149.51C167.37 149.51 166.91 149.47 166.45 149.4C164.3 149.04 162.62 147.82 161.84 146.05C160.24 142.44 158.58 138.72 149.09 136.37C143.95 135.1 139.51 131.31 137.2 126.25C135.08 121.59 135.11 116.48 137.3 112.22C140.33 106.31 141.85 100.45 141.37 96.54C141.24 95.44 140.78 94.38 140.06 93.46C138.12 90.99 135.73 87.48 135.34 84.73C135.06 82.72 135.87 81.29 137.63 80.69C143.36 78.73 153.63 82.99 156.9 88.7C157.72 90.13 158.2 91.85 158.71 93.67C160.13 98.74 161.61 103.99 170.63 103.99C171.99 103.99 173.29 103.93 174.48 103.82C179.23 103.37 183.02 99.92 183.29 95.81C183.61 91.03 185.56 84.98 189.08 82.95C193.02 80.68 198.26 83.67 203.45 91.14C205.62 94.27 205.28 96.65 204.95 98.95C204.66 100.94 204.37 102.99 205.6 105.95C206.64 108.44 206.72 110.6 205.84 112.37C205.1 113.87 203.83 114.71 202.95 115.14C203.68 117.54 203.56 119.62 202.6 121.32C201.58 123.14 199.84 124.04 198.7 124.47C199.68 127.85 199.63 134.08 193.74 139.05C188.91 143.13 180.6 144.9 177.54 145.09C176.78 145.14 176.07 145.47 175.55 146.03C173.49 148.24 170.58 149.53 167.82 149.53L167.84 149.51ZM140.87 82.19C139.93 82.19 139.05 82.31 138.29 82.57C137.68 82.78 137.15 83.15 137.33 84.44C137.58 86.22 139.15 89.05 141.64 92.22C142.59 93.43 143.18 94.84 143.36 96.3C143.88 100.59 142.28 106.88 139.08 113.13C137.18 116.84 137.16 121.32 139.03 125.41C141.09 129.93 145.03 133.29 149.58 134.42C159.25 136.81 161.6 140.57 163.67 145.23C164.18 146.39 165.29 147.17 166.78 147.42C169.26 147.84 172.13 146.75 174.1 144.65C174.98 143.71 176.16 143.15 177.44 143.08C180.61 142.89 188.26 141.06 192.46 137.51C198.13 132.72 197.59 126.7 196.5 124.19C196.38 123.91 196.39 123.59 196.54 123.32C196.68 123.05 196.94 122.86 197.24 122.81C197.26 122.81 199.76 122.3 200.88 120.31C201.65 118.94 201.61 117.12 200.78 114.9C200.68 114.63 200.7 114.34 200.83 114.09C200.96 113.84 201.19 113.65 201.47 113.58C201.48 113.58 203.29 113.07 204.09 111.45C204.69 110.22 204.59 108.63 203.79 106.7C202.35 103.24 202.7 100.8 203.01 98.65C203.32 96.47 203.57 94.75 201.84 92.27C198.41 87.32 193.52 82.72 190.11 84.67C187.38 86.24 185.6 91.64 185.32 95.92C184.98 101.09 180.51 105.24 174.7 105.79C173.45 105.91 172.09 105.97 170.66 105.97C160.12 105.97 158.29 99.44 156.81 94.19C156.33 92.49 155.88 90.88 155.19 89.67C152.86 85.6 145.89 82.18 140.88 82.18L140.87 82.19Z" fill="#13706D"/>
<path d="M128.63 91.25C128.63 91.25 130.2 86.23 136.65 85.81L140.86 92.84L128.63 91.25Z" fill="#ABDCD9"/>
<path d="M140.86 93.84C140.86 93.84 140.77 93.84 140.73 93.84L128.5 92.25C128.21 92.21 127.95 92.05 127.79 91.8C127.63 91.55 127.59 91.25 127.68 90.96C127.75 90.73 129.53 85.28 136.59 84.82C136.96 84.81 137.32 84.98 137.51 85.3L141.72 92.33C141.92 92.66 141.91 93.07 141.7 93.39C141.51 93.67 141.2 93.84 140.86 93.84ZM130.13 90.44L138.94 91.58L136.11 86.86C132.64 87.27 130.91 89.18 130.13 90.43V90.44Z" fill="#13706D"/>
<path d="M162.68 119.7C168.76 123.65 179.42 126.84 192.39 114.85L162.68 119.7Z" fill="white"/>
<path d="M174 124.26C170.26 124.26 166.25 123.22 162.13 120.54C161.67 120.24 161.54 119.62 161.84 119.16C162.14 118.7 162.76 118.56 163.22 118.87C169.47 122.93 179.49 125.41 191.71 114.12C192.11 113.74 192.75 113.77 193.12 114.18C193.5 114.59 193.47 115.22 193.06 115.59C188.99 119.35 182.11 124.26 173.99 124.26H174Z" fill="#13706D"/>
<path d="M141.85 102.89C141.85 102.89 145.42 110.36 154.56 108.43L141.85 102.89Z" fill="white"/>
<path d="M151.65 109.75C144.12 109.75 140.98 103.4 140.95 103.33C140.71 102.83 140.92 102.23 141.42 102C141.92 101.76 142.51 101.97 142.75 102.47C142.88 102.75 146.13 109.2 154.35 107.46C154.89 107.35 155.42 107.69 155.54 108.23C155.66 108.77 155.31 109.3 154.77 109.42C153.66 109.66 152.62 109.76 151.65 109.76V109.75Z" fill="#13706D"/>
<path d="M167.48 159.92H160.34C159.79 159.92 159.34 159.47 159.34 158.92C159.34 158.37 159.79 157.92 160.34 157.92H166.48V148.5C166.48 147.95 166.93 147.5 167.48 147.5C168.03 147.5 168.48 147.95 168.48 148.5V158.92C168.48 159.47 168.03 159.92 167.48 159.92Z" fill="#13706D"/>
<path d="M174.13 159.92C173.86 159.92 173.6 159.81 173.4 159.61C173.02 159.21 173.04 158.57 173.44 158.2L177.15 154.71L173.26 148C172.98 147.52 173.15 146.91 173.62 146.63C174.1 146.35 174.71 146.52 174.99 146.99L179.27 154.38C179.5 154.78 179.43 155.29 179.09 155.61L174.81 159.64C174.62 159.82 174.37 159.91 174.12 159.91L174.13 159.92Z" fill="#13706D"/>
<path d="M178.41 155.89C177.96 155.89 177.56 155.59 177.44 155.14C177.31 154.6 177.63 154.06 178.16 153.93L182.82 152.75C183.36 152.62 183.9 152.94 184.03 153.47C184.16 154.01 183.84 154.55 183.31 154.68L178.65 155.86C178.57 155.88 178.48 155.89 178.4 155.89H178.41Z" fill="#13706D"/>
<path d="M174.13 159.92H167.48C166.93 159.92 166.48 159.47 166.48 158.92C166.48 158.37 166.93 157.92 167.48 157.92H174.13C174.68 157.92 175.13 158.37 175.13 158.92C175.13 159.47 174.68 159.92 174.13 159.92Z" fill="#13706D"/>
<path d="M106.53 102.09H81.1102C79.7903 102.09 78.7202 103.16 78.7202 104.48C78.7202 105.8 79.7903 106.87 81.1102 106.87H106.53C107.85 106.87 108.92 105.8 108.92 104.48C108.92 103.16 107.85 102.09 106.53 102.09Z" fill="white"/>
<path d="M106.53 107.88H81.1102C79.2402 107.88 77.7202 106.36 77.7202 104.49C77.7202 102.62 79.2402 101.1 81.1102 101.1H106.53C108.4 101.1 109.92 102.62 109.92 104.49C109.92 106.36 108.4 107.88 106.53 107.88ZM81.1102 103.09C80.3402 103.09 79.7202 103.71 79.7202 104.48C79.7202 105.25 80.3402 105.87 81.1102 105.87H106.53C107.3 105.87 107.92 105.25 107.92 104.48C107.92 103.71 107.3 103.09 106.53 103.09H81.1102Z" fill="#13706D"/>
<path d="M97.3902 112.24H81.1102C79.7903 112.24 78.7202 113.31 78.7202 114.63C78.7202 115.95 79.7903 117.02 81.1102 117.02H97.3902C98.7102 117.02 99.7802 115.95 99.7802 114.63C99.7802 113.31 98.7102 112.24 97.3902 112.24Z" fill="white"/>
<path d="M97.3902 118.02H81.1102C79.2402 118.02 77.7202 116.5 77.7202 114.63C77.7202 112.76 79.2402 111.24 81.1102 111.24H97.3902C99.2602 111.24 100.78 112.76 100.78 114.63C100.78 116.5 99.2602 118.02 97.3902 118.02ZM81.1102 113.24C80.3402 113.24 79.7202 113.86 79.7202 114.63C79.7202 115.4 80.3402 116.02 81.1102 116.02H97.3902C98.1602 116.02 98.7802 115.4 98.7802 114.63C98.7802 113.86 98.1602 113.24 97.3902 113.24H81.1102Z" fill="#13706D"/>
<path d="M100.96 122.22H81.1102C79.7903 122.22 78.7202 123.29 78.7202 124.61C78.7202 125.93 79.7903 127 81.1102 127H100.96C102.28 127 103.35 125.93 103.35 124.61C103.35 123.29 102.28 122.22 100.96 122.22Z" fill="white"/>
<path d="M100.96 128H81.1102C79.2402 128 77.7202 126.48 77.7202 124.61C77.7202 122.74 79.2402 121.22 81.1102 121.22H100.96C102.83 121.22 104.35 122.74 104.35 124.61C104.35 126.48 102.83 128 100.96 128ZM81.1102 123.22C80.3402 123.22 79.7202 123.84 79.7202 124.61C79.7202 125.38 80.3402 126 81.1102 126H100.96C101.73 126 102.35 125.38 102.35 124.61C102.35 123.84 101.73 123.22 100.96 123.22H81.1102Z" fill="#13706D"/>
</svg>
