<svg width="219" height="179" viewBox="0 0 219 179" fill="none" xmlns="http://www.w3.org/2000/svg">
<g id="tools-comparateur">
<path id="Vector" d="M106.988 11.9275H111.679C169.08 11.9275 215.686 58.534 215.686 115.935V140.525C215.686 155.136 203.829 166.994 189.217 166.994H29.4492C14.8381 166.994 2.98018 155.136 2.98018 140.525V115.935C2.98018 58.534 49.5867 11.9275 106.988 11.9275Z" fill="#E0F4F3"/>
<path id="Vector_2" d="M45.2531 56.5361C45.1736 56.3572 45.1437 56.1684 45.1437 56.0093C45.1437 55.4328 45.5314 55.0651 46.1576 55.0651C46.5949 55.0651 46.8832 55.2241 47.1118 55.5919C47.4497 56.1584 47.8572 56.4964 48.722 56.4964C49.5171 56.4964 50.0738 56.0292 50.0738 55.3732C50.0738 54.6079 49.5072 54.2003 48.4934 54.2003H48.2747C47.728 54.2003 47.4398 53.8823 47.4398 53.4151C47.4398 52.948 47.728 52.6299 48.2747 52.6299H48.4834C49.368 52.6299 49.9147 52.1926 49.9147 51.5365C49.9147 50.8805 49.4575 50.483 48.6723 50.483C48.0262 50.483 47.5988 50.7513 47.3205 51.2881C47.0621 51.7751 46.7838 51.954 46.2768 51.954C45.6507 51.954 45.3226 51.5763 45.3226 51.0495C45.3226 50.8507 45.3525 50.6917 45.432 50.5028C45.7898 49.6182 46.8633 48.7634 48.6524 48.7634C50.6304 48.7634 52.0617 49.6679 52.0617 51.2085C52.0617 52.3715 51.2168 53.1169 50.1731 53.3257V53.3654C51.5448 53.5046 52.4195 54.2799 52.4195 55.5124C52.4195 57.212 50.9484 58.3153 48.6623 58.3153C46.7241 58.3153 45.6109 57.4307 45.2531 56.5461V56.5361Z" fill="#13706D"/>
<path id="Vector_3" d="M115.685 107.278H97.5351C93.1716 107.278 89.6431 103.739 89.6431 99.3855V56.9138C89.6431 52.5504 93.1816 49.0218 97.5351 49.0218H127.721C132.085 49.0218 135.613 52.5603 135.613 56.9138V99.3855C135.613 103.749 132.075 107.278 127.721 107.278" fill="#AFE0DD"/>
<path id="Vector_4" d="M174.308 147.205H156.159C151.795 147.205 148.267 143.666 148.267 139.313V96.841C148.267 92.4775 151.805 88.949 156.159 88.949H186.345C190.708 88.949 194.237 92.4875 194.237 96.841V139.313C194.237 143.676 190.698 147.205 186.345 147.205" fill="#AFE0DD"/>
<path id="Vector_5" d="M56.5543 147.205H38.4047C34.0413 147.205 30.5127 143.666 30.5127 139.313V96.841C30.5127 92.4775 34.0512 88.949 38.4047 88.949H68.5911C72.9546 88.949 76.4831 92.4875 76.4831 96.841V139.313C76.4831 143.676 72.9446 147.205 68.5911 147.205" fill="#AFE0DD"/>
<g id="Group">
<path id="Vector_6" d="M32.3317 140.028C27.9682 140.028 24.4397 136.49 24.4397 132.136V89.6646C24.4397 85.3012 27.9781 81.7726 32.3317 81.7726H62.5181C66.8815 81.7726 70.4101 85.3111 70.4101 89.6646V132.136C70.4101 136.5 66.8716 140.028 62.5181 140.028H42.6688" fill="white"/>
<path id="Vector_7" d="M62.5181 141.022H42.6688C42.1221 141.022 41.6748 140.575 41.6748 140.028C41.6748 139.482 42.1221 139.034 42.6688 139.034H62.5181C66.3249 139.034 69.4161 135.943 69.4161 132.136V89.6646C69.4161 85.8578 66.315 82.7666 62.5181 82.7666H32.3317C28.5248 82.7666 25.4336 85.8578 25.4336 89.6646V132.136C25.4336 135.943 28.5348 139.034 32.3317 139.034C32.8783 139.034 33.3256 139.482 33.3256 140.028C33.3256 140.575 32.8783 141.022 32.3317 141.022C27.4315 141.022 23.4457 137.037 23.4457 132.136V89.6646C23.4457 84.7644 27.4315 80.7787 32.3317 80.7787H62.5181C67.4183 80.7787 71.404 84.7644 71.404 89.6646V132.136C71.404 137.037 67.4183 141.022 62.5181 141.022Z" fill="#13706D"/>
</g>
<path id="Vector_8" d="M136.379 167.471V129.055C136.379 124.692 132.84 121.163 128.487 121.163H98.3004C93.937 121.163 90.4084 124.702 90.4084 129.055V167.471H136.389H136.379Z" fill="#AFE0DD"/>
<g id="Group_2">
<path id="Vector_9" d="M109.333 100.648H91.1837C86.8203 100.648 83.2917 97.1094 83.2917 92.7558V50.2842C83.2917 45.9207 86.8302 42.3922 91.1837 42.3922H121.37C125.734 42.3922 129.262 45.9306 129.262 50.2842V92.7558C129.262 97.1193 125.724 100.648 121.37 100.648" fill="white"/>
<path id="Vector_10" d="M121.37 101.642C120.823 101.642 120.376 101.195 120.376 100.648C120.376 100.101 120.823 99.6539 121.37 99.6539C125.177 99.6539 128.268 96.5627 128.268 92.7558V50.2842C128.268 46.4773 125.177 43.3861 121.37 43.3861H91.1837C87.3769 43.3861 84.2857 46.4773 84.2857 50.2842V92.7558C84.2857 96.5627 87.3868 99.6539 91.1837 99.6539H109.333C109.88 99.6539 110.327 100.101 110.327 100.648C110.327 101.195 109.88 101.642 109.333 101.642H91.1837C86.2835 101.642 82.2978 97.656 82.2978 92.7558V50.2842C82.2978 45.384 86.2835 41.3982 91.1837 41.3982H121.37C126.27 41.3982 130.256 45.384 130.256 50.2842V92.7558C130.256 97.656 126.27 101.642 121.37 101.642Z" fill="#13706D"/>
</g>
<g id="Group_3">
<path id="Vector_11" d="M38.8321 123.429V122.833H35.731C34.8961 122.833 34.3295 122.306 34.3295 121.541C34.3295 121.093 34.4687 120.666 34.7867 120.1C35.393 119.006 36.1186 117.863 36.9536 116.591C37.6593 115.507 38.1861 115.14 39.1005 115.14C40.2634 115.14 41.0089 115.776 41.0089 116.77V121.044H41.3667C41.983 121.044 42.2911 121.421 42.2911 121.948C42.2911 122.475 41.973 122.843 41.3667 122.843H41.0089V123.439C41.0089 124.175 40.5517 124.543 39.9155 124.543C39.2794 124.543 38.8122 124.175 38.8122 123.439L38.8321 123.429ZM38.8918 116.879H38.852C37.7587 118.469 37.0033 119.632 36.2677 121.054V121.113H38.9017V116.869L38.8918 116.879Z" fill="#13706D"/>
<path id="Vector_12" d="M44.0901 122.624C43.7124 121.918 43.4938 120.974 43.4938 119.871C43.4938 116.879 45.0046 115.05 47.4398 115.05C49.1295 115.05 50.2527 115.736 50.6403 116.571C50.7198 116.74 50.7596 116.899 50.7596 117.068C50.7596 117.565 50.4216 117.963 49.8153 117.963C49.3581 117.963 49.0997 117.774 48.7816 117.456C48.3741 117.018 47.9964 116.839 47.4398 116.839C46.247 116.839 45.6904 118.032 45.7004 119.742V119.841H45.7401C46.088 118.986 46.9627 118.39 48.1852 118.39C49.9545 118.39 51.1273 119.622 51.1273 121.332C51.1273 123.26 49.5867 124.622 47.4696 124.622C45.9787 124.622 44.7959 123.986 44.0703 122.624H44.0901ZM48.9108 121.421C48.9108 120.587 48.2946 120 47.4696 120C46.6446 120 45.9886 120.577 45.9886 121.392C45.9886 122.207 46.6247 122.833 47.4497 122.833C48.2747 122.833 48.9009 122.217 48.9108 121.421Z" fill="#13706D"/>
<path id="Vector_13" d="M52.6382 119.821C52.6382 116.829 54.149 115.05 56.5444 115.05C58.9398 115.05 60.4407 116.819 60.4407 119.811C60.4407 122.803 58.9498 124.612 56.5444 124.612C54.139 124.612 52.6382 122.793 52.6382 119.821ZM58.095 119.821C58.095 117.823 57.5085 116.859 56.5543 116.859C55.6001 116.859 55.0038 117.833 55.0038 119.821C55.0038 121.809 55.6001 122.823 56.5543 122.823C57.5085 122.823 58.095 121.819 58.095 119.831V119.821Z" fill="#13706D"/>
</g>
<g id="Group_4">
<path id="Vector_14" d="M96.561 84.0786V78.0155H96.5212L95.3881 78.8007C95.1794 78.9498 95.0403 78.9995 94.8216 78.9995C94.3743 78.9995 94.0364 78.6616 94.0364 78.1944C94.0364 77.8565 94.1656 77.598 94.4936 77.3694L96.2131 76.1966C96.7002 75.8686 97.0878 75.8189 97.545 75.8189C98.3799 75.8189 98.867 76.3158 98.867 77.111V84.0687C98.867 84.7644 98.4098 85.2117 97.714 85.2117C97.0182 85.2117 96.561 84.7644 96.561 84.0687V84.0786Z" fill="#13706D"/>
<path id="Vector_15" d="M101.193 80.5103C101.193 77.5185 102.704 75.7393 105.099 75.7393C107.494 75.7393 108.995 77.5086 108.995 80.5004C108.995 83.4922 107.504 85.3012 105.099 85.3012C102.694 85.3012 101.193 83.4822 101.193 80.5103ZM106.65 80.5103C106.65 78.5125 106.063 77.5483 105.099 77.5483C104.135 77.5483 103.549 78.5224 103.549 80.5103C103.549 82.4982 104.145 83.5121 105.099 83.5121C106.053 83.5121 106.65 82.5082 106.65 80.5203V80.5103Z" fill="#13706D"/>
<path id="Vector_16" d="M110.516 80.5103C110.516 77.5185 112.027 75.7393 114.422 75.7393C116.818 75.7393 118.319 77.5086 118.319 80.5004C118.319 83.4922 116.828 85.3012 114.422 85.3012C112.017 85.3012 110.516 83.4822 110.516 80.5103ZM115.973 80.5103C115.973 78.5125 115.387 77.5483 114.432 77.5483C113.478 77.5483 112.882 78.5224 112.882 80.5103C112.882 82.4982 113.478 83.5121 114.432 83.5121C115.387 83.5121 115.973 82.5082 115.973 80.5203V80.5103Z" fill="#13706D"/>
</g>
<g id="Group_5">
<path id="Vector_17" d="M83.2917 167.68V122.227C83.2917 117.863 86.8302 114.335 91.1837 114.335H121.37C125.734 114.335 129.262 117.873 129.262 122.227V164.698C129.262 169.062 125.724 172.59 121.37 172.59" fill="white"/>
<path id="Vector_18" d="M121.37 173.584C120.823 173.584 120.376 173.137 120.376 172.59C120.376 172.044 120.823 171.596 121.37 171.596C125.177 171.596 128.268 168.505 128.268 164.698V122.227C128.268 118.42 125.177 115.329 121.37 115.329H91.1837C87.3769 115.329 84.2857 118.42 84.2857 122.227V167.68C84.2857 168.227 83.8384 168.674 83.2917 168.674C82.745 168.674 82.2978 168.227 82.2978 167.68V122.227C82.2978 117.326 86.2835 113.341 91.1837 113.341H121.37C126.27 113.341 130.256 117.326 130.256 122.227V164.698C130.256 169.598 126.27 173.584 121.37 173.584Z" fill="#13706D"/>
</g>
<g id="Group_6">
<path id="Vector_19" d="M142.144 103.719V89.6646C142.144 85.3012 145.682 81.7726 150.036 81.7726H180.222C184.586 81.7726 188.114 85.3111 188.114 89.6646V132.136C188.114 136.5 184.576 140.028 180.222 140.028H150.036C145.672 140.028 142.144 136.49 142.144 132.136V117.654" fill="white"/>
<path id="Vector_20" d="M180.232 141.022H150.046C145.146 141.022 141.16 137.037 141.16 132.136V117.654C141.16 117.108 141.607 116.66 142.154 116.66C142.7 116.66 143.148 117.108 143.148 117.654V132.136C143.148 135.943 146.239 139.034 150.046 139.034H180.232C184.039 139.034 187.13 135.943 187.13 132.136V89.6646C187.13 85.8578 184.029 82.7666 180.232 82.7666H150.046C146.239 82.7666 143.148 85.8578 143.148 89.6646V103.719C143.148 104.266 142.7 104.713 142.154 104.713C141.607 104.713 141.16 104.266 141.16 103.719V89.6646C141.16 84.7644 145.146 80.7787 150.046 80.7787H180.232C185.132 80.7787 189.118 84.7644 189.118 89.6646V132.136C189.118 137.037 185.132 141.022 180.232 141.022Z" fill="#13706D"/>
</g>
<path id="Vector_21" d="M102.813 159.013C102.733 158.834 102.694 158.645 102.694 158.486C102.694 157.91 103.081 157.542 103.708 157.542C104.145 157.542 104.433 157.701 104.662 158.069C105 158.635 105.407 158.973 106.272 158.973C107.067 158.973 107.624 158.506 107.624 157.85C107.624 157.085 107.057 156.677 106.043 156.677H105.825C105.278 156.677 104.99 156.359 104.99 155.892C104.99 155.425 105.278 155.107 105.825 155.107H106.033C106.928 155.107 107.465 154.669 107.465 154.013C107.465 153.357 107.007 152.96 106.222 152.96C105.576 152.96 105.149 153.228 104.87 153.765C104.612 154.252 104.334 154.431 103.827 154.431C103.201 154.431 102.873 154.053 102.873 153.526C102.873 153.327 102.902 153.168 102.992 152.98C103.35 152.095 104.423 151.24 106.212 151.24C108.19 151.24 109.622 152.145 109.622 153.685C109.622 154.848 108.777 155.594 107.733 155.802V155.842C109.105 155.981 109.979 156.757 109.979 157.989C109.979 159.689 108.508 160.792 106.222 160.792C104.284 160.792 103.171 159.907 102.813 159.023V159.013Z" fill="#13706D"/>
<g id="Group_7">
<path id="Vector_22" d="M95.7261 92.4378V88.9987C95.7261 88.7104 95.905 88.5514 96.1535 88.5514C96.402 88.5514 96.5809 88.7104 96.5809 88.9987V90.9369H96.5908L97.7239 89.8038C97.8333 89.6845 97.9327 89.6348 98.0619 89.6348C98.2805 89.6348 98.4396 89.7939 98.4396 90.0026C98.4396 90.1318 98.3998 90.2113 98.2805 90.3207L97.4854 91.0761L98.3601 92.1893C98.4495 92.3185 98.4793 92.3881 98.4793 92.4974C98.4793 92.726 98.3104 92.885 98.0718 92.885C97.8929 92.885 97.7935 92.8254 97.6543 92.6167L96.8492 91.5532L96.5809 91.8016V92.4378C96.5809 92.726 96.402 92.885 96.1535 92.885C95.905 92.885 95.7261 92.736 95.7261 92.4378Z" fill="#13706D"/>
<path id="Vector_23" d="M99.0856 93.4218C99.0359 93.3423 99.026 93.2628 99.026 93.1832C99.026 93.0043 99.1552 92.8751 99.3739 92.8751C99.4832 92.8751 99.5727 92.9149 99.6721 92.9944C99.9007 93.2131 100.119 93.3323 100.408 93.3323C100.875 93.3323 101.143 93.0838 101.143 92.6863V92.1893H101.123C100.974 92.5272 100.616 92.7459 100.159 92.7459C99.3838 92.7459 98.8968 92.1495 98.8968 91.1953C98.8968 90.2411 99.3739 89.6348 100.179 89.6348C100.626 89.6348 100.964 89.8734 101.133 90.2212H101.153V90.0523C101.153 89.764 101.332 89.6249 101.58 89.6249C101.829 89.6249 101.998 89.764 101.998 90.0523V92.6863C101.998 93.5013 101.411 93.9883 100.408 93.9784C99.7715 93.9784 99.2944 93.7299 99.0956 93.4019L99.0856 93.4218ZM101.143 91.2251C101.143 90.6586 100.865 90.3008 100.447 90.3008C100.03 90.3008 99.7615 90.6586 99.7615 91.2251C99.7615 91.7917 100.02 92.1296 100.447 92.1296C100.875 92.1296 101.143 91.7917 101.143 91.2251Z" fill="#13706D"/>
<path id="Vector_24" d="M104.095 91.0661C104.095 89.9231 104.751 89.2571 105.785 89.2571C106.451 89.2571 106.948 89.5255 107.206 90.0225C107.266 90.1318 107.296 90.2411 107.296 90.3505C107.296 90.5791 107.137 90.7282 106.908 90.7282C106.709 90.7282 106.59 90.6487 106.491 90.4499C106.332 90.1219 106.093 89.9628 105.785 89.9628C105.298 89.9628 104.99 90.3803 104.99 91.0562C104.99 91.7321 105.298 92.1595 105.785 92.1595C106.113 92.1595 106.342 92.0004 106.491 91.6724C106.58 91.4836 106.689 91.4041 106.878 91.4041C107.127 91.4041 107.296 91.5631 107.296 91.8016C107.296 91.8911 107.276 91.9706 107.236 92.0601C107.027 92.557 106.471 92.8751 105.795 92.8751C104.721 92.8751 104.075 92.2092 104.075 91.0661H104.095Z" fill="#13706D"/>
<path id="Vector_25" d="M107.902 91.0761C107.902 89.9628 108.568 89.2671 109.631 89.2671C110.695 89.2671 111.361 89.9628 111.361 91.0761C111.361 92.1893 110.695 92.8851 109.631 92.8851C108.568 92.8851 107.902 92.1893 107.902 91.0761ZM110.456 91.0761C110.456 90.4101 110.128 89.9827 109.631 89.9827C109.135 89.9827 108.807 90.4002 108.807 91.0761C108.807 91.7519 109.125 92.1595 109.631 92.1595C110.138 92.1595 110.456 91.742 110.456 91.0761Z" fill="#13706D"/>
<path id="Vector_26" d="M111.957 92.4378C111.957 92.2688 112.027 92.1495 112.206 92.0004L113.21 91.0959C113.617 90.7182 113.737 90.5592 113.737 90.3306C113.737 90.0821 113.538 89.9032 113.259 89.9032C113.031 89.9032 112.872 90.0125 112.743 90.2511C112.633 90.42 112.524 90.4896 112.345 90.4896C112.116 90.4896 111.977 90.3604 111.977 90.1417C111.977 90.0722 111.977 90.0125 112.017 89.9429C112.166 89.5354 112.633 89.2372 113.269 89.2372C114.065 89.2372 114.591 89.6646 114.591 90.2809C114.591 90.7282 114.363 90.9866 113.806 91.4935L113.11 92.1296V92.1495H114.323C114.552 92.1495 114.681 92.2787 114.681 92.4875C114.681 92.6962 114.552 92.8254 114.323 92.8254H112.385C112.097 92.8254 111.967 92.6664 111.967 92.4477L111.957 92.4378Z" fill="#13706D"/>
<path id="Vector_27" d="M115.148 91.5134C115.148 90.6586 115.655 90.1119 116.46 90.1119C117.265 90.1119 117.762 90.6288 117.762 91.3444C117.762 91.5631 117.643 91.6824 117.414 91.6824H115.973V91.7321C115.973 92.0501 116.182 92.2688 116.49 92.2688C116.728 92.2688 116.887 92.1893 117.076 92.0004C117.166 91.9209 117.235 91.8911 117.345 91.8911C117.523 91.8911 117.663 92.0004 117.663 92.1893C117.663 92.2589 117.643 92.3185 117.603 92.3881C117.424 92.6962 116.997 92.885 116.48 92.885C115.635 92.885 115.128 92.3682 115.128 91.5134H115.148ZM116.957 91.1953C116.947 90.9071 116.748 90.7282 116.48 90.7282C116.211 90.7282 116.013 90.927 115.993 91.1953H116.957Z" fill="#13706D"/>
</g>
<g id="Group_8">
<path id="Vector_28" d="M101.61 16.3307V10.2675H101.571L100.437 11.0528C100.229 11.2019 100.09 11.2516 99.8709 11.2516C99.4236 11.2516 99.0857 10.9136 99.0857 10.4465C99.0857 10.1085 99.2149 9.85009 99.5429 9.62148L101.262 8.44861C101.749 8.12061 102.137 8.07091 102.594 8.07091C103.429 8.07091 103.916 8.56789 103.916 9.36305V16.3207C103.916 17.0165 103.459 17.4638 102.763 17.4638C102.068 17.4638 101.61 17.0165 101.61 16.3207V16.3307Z" fill="#13706D"/>
<path id="Vector_29" d="M106.332 16.3406C106.332 15.9033 106.51 15.5951 106.968 15.2075L109.572 12.8518C110.635 11.8778 110.924 11.4603 110.924 10.8739C110.924 10.2179 110.417 9.75069 109.691 9.75069C109.095 9.75069 108.677 10.0389 108.349 10.6453C108.061 11.0925 107.793 11.2714 107.326 11.2714C106.729 11.2714 106.371 10.9236 106.371 10.357C106.371 10.1781 106.401 10.0191 106.461 9.85009C106.858 8.80644 108.071 8.00133 109.731 8.00133C111.808 8.00133 113.17 9.10462 113.17 10.7148C113.17 11.8778 112.574 12.5536 111.132 13.8557L109.323 15.5057V15.5454H112.474C113.061 15.5454 113.399 15.8933 113.399 16.4301C113.399 16.9668 113.061 17.3246 112.474 17.3246H107.425C106.679 17.3246 106.342 16.9072 106.342 16.3307L106.332 16.3406Z" fill="#13706D"/>
</g>
<g id="Group_9">
<path id="Vector_30" d="M160.462 57.3512V51.2881H160.423L159.289 52.0733C159.081 52.2224 158.942 52.2721 158.723 52.2721C158.276 52.2721 157.938 51.9341 157.938 51.467C157.938 51.129 158.067 50.8706 158.395 50.642L160.114 49.4691C160.601 49.1411 160.989 49.0914 161.446 49.0914C162.281 49.0914 162.768 49.5884 162.768 50.3836V57.3412C162.768 58.037 162.311 58.4843 161.615 58.4843C160.92 58.4843 160.462 58.037 160.462 57.3412V57.3512Z" fill="#13706D"/>
<path id="Vector_31" d="M165.184 57.3611C165.184 56.9238 165.363 56.6157 165.82 56.228L168.424 53.8723C169.487 52.8983 169.786 52.4808 169.786 51.8944C169.786 51.2384 169.279 50.7712 168.553 50.7712C167.957 50.7712 167.539 51.0594 167.211 51.6658C166.923 52.113 166.645 52.292 166.178 52.292C165.581 52.292 165.223 51.9441 165.223 51.3775C165.223 51.1986 165.253 51.0396 165.323 50.8706C165.72 49.8269 166.933 49.0218 168.593 49.0218C170.67 49.0218 172.032 50.1251 172.032 51.7353C172.032 52.8983 171.436 53.5742 169.994 54.8762L168.185 56.5262V56.566H171.336C171.923 56.566 172.261 56.9138 172.261 57.4506C172.261 57.9873 171.923 58.3451 171.336 58.3451H166.287C165.541 58.3451 165.204 57.9277 165.204 57.3512L165.184 57.3611Z" fill="#13706D"/>
</g>
<g id="Group_10">
<path id="Vector_32" d="M160.462 123.39V117.326H160.423L159.289 118.112C159.081 118.261 158.942 118.31 158.723 118.31C158.276 118.31 157.938 117.972 157.938 117.505C157.938 117.167 158.067 116.909 158.395 116.68L160.114 115.507C160.601 115.179 160.989 115.13 161.446 115.13C162.281 115.13 162.768 115.627 162.768 116.422V123.38C162.768 124.075 162.311 124.523 161.615 124.523C160.92 124.523 160.462 124.075 160.462 123.38V123.39Z" fill="#13706D"/>
<path id="Vector_33" d="M165.184 123.399C165.184 122.962 165.363 122.654 165.82 122.266L168.424 119.911C169.487 118.937 169.786 118.519 169.786 117.933C169.786 117.277 169.279 116.81 168.553 116.81C167.957 116.81 167.539 117.098 167.211 117.704C166.923 118.151 166.645 118.33 166.178 118.33C165.581 118.33 165.223 117.982 165.223 117.416C165.223 117.237 165.253 117.078 165.323 116.909C165.72 115.865 166.933 115.06 168.593 115.06C170.67 115.06 172.032 116.163 172.032 117.774C172.032 118.937 171.436 119.612 169.994 120.915L168.185 122.565V122.604H171.336C171.923 122.604 172.261 122.952 172.261 123.489C172.261 124.026 171.923 124.383 171.336 124.383H166.287C165.541 124.383 165.204 123.966 165.204 123.39L165.184 123.399Z" fill="#13706D"/>
</g>
<path id="Vector_34" d="M70.4101 173.584C69.8634 173.584 69.4161 173.137 69.4161 172.59V158.178C69.4161 154.371 66.315 151.28 62.5181 151.28H32.3317C28.5248 151.28 25.4336 154.371 25.4336 158.178V172.59C25.4336 173.137 24.9863 173.584 24.4397 173.584C23.893 173.584 23.4457 173.137 23.4457 172.59V158.178C23.4457 153.278 27.4315 149.292 32.3317 149.292H62.5181C67.4183 149.292 71.404 153.278 71.404 158.178V172.59C71.404 173.137 70.9567 173.584 70.4101 173.584Z" fill="#13706D"/>
<path id="Vector_35" d="M62.5181 72.509H32.3317C27.4315 72.509 23.4457 68.5232 23.4457 63.623V48.3658C23.4457 47.8192 23.893 47.3719 24.4397 47.3719C24.9863 47.3719 25.4336 47.8192 25.4336 48.3658V63.623C25.4336 67.4299 28.5348 70.5211 32.3317 70.5211H62.5181C66.3249 70.5211 69.4161 67.4299 69.4161 63.623V18.1695C69.4161 17.6228 69.8634 17.1755 70.4101 17.1755C70.9567 17.1755 71.404 17.6228 71.404 18.1695V63.623C71.404 68.5232 67.4183 72.509 62.5181 72.509Z" fill="#13706D"/>
<path id="Vector_36" d="M121.37 31.1108H91.1837C86.2835 31.1108 82.2978 27.125 82.2978 22.2248V12.4145C82.2978 11.8678 82.745 11.4205 83.2917 11.4205C83.8384 11.4205 84.2857 11.8678 84.2857 12.4145V22.2248C84.2857 26.0317 87.3868 29.1229 91.1837 29.1229H121.37C125.177 29.1229 128.268 26.0317 128.268 22.2248V9.57178C128.268 9.02511 128.715 8.57783 129.262 8.57783C129.809 8.57783 130.256 9.02511 130.256 9.57178V22.2248C130.256 27.125 126.27 31.1108 121.37 31.1108Z" fill="#13706D"/>
<path id="Vector_37" d="M180.232 72.509H150.046C145.146 72.509 141.16 68.5232 141.16 63.623V21.1514C141.16 20.6047 141.607 20.1574 142.154 20.1574C142.7 20.1574 143.148 20.6047 143.148 21.1514V63.623C143.148 67.4299 146.239 70.5211 150.046 70.5211H180.232C184.039 70.5211 187.13 67.4299 187.13 63.623V42.3922C187.13 41.8455 187.577 41.3982 188.124 41.3982C188.671 41.3982 189.118 41.8455 189.118 42.3922V63.623C189.118 68.5232 185.132 72.509 180.232 72.509Z" fill="#13706D"/>
<path id="Vector_38" d="M188.124 173.584C187.577 173.584 187.13 173.137 187.13 172.59V158.178C187.13 154.371 184.029 151.28 180.232 151.28H150.046C146.239 151.28 143.148 154.371 143.148 158.178V172.59C143.148 173.137 142.7 173.584 142.154 173.584C141.607 173.584 141.16 173.137 141.16 172.59V158.178C141.16 153.278 145.146 149.292 150.046 149.292H180.232C185.132 149.292 189.118 153.278 189.118 158.178V172.59C189.118 173.137 188.671 173.584 188.124 173.584Z" fill="#13706D"/>
<g id="Group_11">
<path id="Vector_39" d="M115.307 54.4389C114.094 54.2401 112.941 54.3693 111.908 54.7371C110.476 53.1766 108.399 52.2224 106.113 52.3118C102.455 52.451 99.5131 55.1943 98.9962 58.6831C97.9724 58.365 96.8393 58.3252 95.5869 59.0608C94.1258 59.9156 93.1418 61.486 93.2313 63.1758C93.3704 65.5911 95.418 67.4597 97.8432 67.3702C99.3441 67.3106 100.636 66.5154 101.392 65.3525C102.783 66.6049 104.642 67.3404 106.67 67.2609C107.902 67.2112 109.055 66.8633 110.059 66.2968C111.262 67.2311 112.782 67.7678 114.422 67.7082C118.527 67.5591 121.619 63.7423 120.694 59.5279C120.118 56.9138 117.941 54.8663 115.307 54.4289V54.4389Z" fill="#AFE0DD"/>
<path id="Vector_40" d="M114.184 68.7121C112.693 68.7121 111.232 68.2747 109.989 67.4597C108.956 67.9467 107.862 68.2151 106.719 68.2549C104.87 68.3145 103.061 67.7877 101.561 66.7341C100.596 67.7181 99.2844 68.3046 97.8929 68.3542C94.9409 68.4536 92.4262 66.1676 92.2572 63.2254C92.1478 61.2574 93.2611 59.2794 95.0999 58.196C96.1137 57.5997 97.1474 57.3711 98.2507 57.5003C99.2248 53.9916 102.376 51.4471 106.093 51.3079C108.359 51.2284 110.556 52.0534 112.206 53.604C113.269 53.3157 114.373 53.266 115.486 53.4549C118.527 53.9618 121.022 56.3175 121.688 59.3192C122.185 61.5854 121.668 63.9212 120.277 65.7302C118.875 67.5392 116.768 68.6226 114.482 68.7121C114.383 68.7121 114.293 68.7121 114.194 68.7121H114.184ZM110.069 65.3128C110.288 65.3128 110.506 65.3823 110.685 65.5215C111.739 66.3465 113.051 66.7739 114.402 66.7242C116.092 66.6645 117.663 65.8594 118.696 64.5176C119.75 63.1559 120.118 61.4661 119.74 59.7565C119.253 57.54 117.404 55.8006 115.158 55.4328C114.164 55.2639 113.19 55.3533 112.256 55.6913C111.878 55.8304 111.46 55.7211 111.182 55.4229C109.89 54.0115 108.021 53.2362 106.153 53.3157C103.032 53.435 100.437 55.7608 99.9802 58.8421C99.9404 59.1304 99.7715 59.3788 99.523 59.5379C99.2745 59.687 98.9763 59.7267 98.698 59.6472C97.7339 59.349 96.9288 59.4385 96.0938 59.9255C94.8912 60.6312 94.1556 61.8935 94.2252 63.126C94.3345 64.9947 95.9448 66.4757 97.8034 66.3763C98.9167 66.3365 99.9404 65.7501 100.557 64.8058C100.716 64.5673 100.974 64.3983 101.262 64.3685C101.551 64.3287 101.839 64.4182 102.058 64.617C103.32 65.7501 104.93 66.3365 106.63 66.2769C107.673 66.2371 108.657 65.9588 109.572 65.442C109.721 65.3525 109.89 65.3128 110.059 65.3128H110.069Z" fill="#13706D"/>
</g>
<g id="Group_12">
<path id="Vector_41" d="M37.202 98.2822V100.578C37.202 101.751 38.1562 102.705 39.3291 102.705H57.757C58.582 102.705 59.2479 102.039 59.2479 101.214V99.1967C59.2479 97.9741 58.254 96.9702 57.0215 96.9702H53.3538L51.843 92.9944C51.3261 91.6327 50.0141 90.7282 48.5629 90.7282H44.3983C42.2314 90.7282 40.2336 91.9209 39.2098 93.8293L37.5201 96.9702C37.3014 97.3678 37.1921 97.8151 37.1921 98.2723L37.202 98.2822Z" fill="#AFE0DD"/>
<path id="Vector_42" d="M57.767 103.699H39.339C37.6195 103.699 36.218 102.298 36.218 100.578V98.2822C36.218 97.666 36.3771 97.0497 36.6653 96.503L38.355 93.3622C39.5577 91.1258 41.8836 89.7342 44.4181 89.7342H48.5828C50.4415 89.7342 52.1412 90.9071 52.7972 92.6465L54.0595 95.9762H57.0414C58.8106 95.9762 60.2618 97.4175 60.2618 99.1967V101.214C60.2618 102.586 59.1486 103.699 57.7769 103.699H57.767ZM44.4082 91.7321C42.5992 91.7321 40.9492 92.7161 40.0944 94.3064L38.4047 97.4473C38.2656 97.7057 38.196 97.994 38.196 98.2822V100.578C38.196 101.204 38.7029 101.711 39.3291 101.711H57.757C58.0353 101.711 58.254 101.493 58.254 101.214V99.1967C58.254 98.5208 57.7073 97.9642 57.0215 97.9642H53.3538C52.9363 97.9642 52.5686 97.7057 52.4294 97.3181L50.9186 93.3423C50.5508 92.3682 49.6066 91.7122 48.5629 91.7122H44.3983L44.4082 91.7321Z" fill="#13706D"/>
</g>
<g id="Group_13">
<path id="Vector_43" d="M42.0525 106.363C43.4963 106.363 44.6666 105.193 44.6666 103.749C44.6666 102.305 43.4963 101.135 42.0525 101.135C40.6088 101.135 39.4384 102.305 39.4384 103.749C39.4384 105.193 40.6088 106.363 42.0525 106.363Z" fill="white"/>
<path id="Vector_44" d="M42.0525 107.357C40.0646 107.357 38.4445 105.737 38.4445 103.749C38.4445 101.761 40.0646 100.141 42.0525 100.141C44.0405 100.141 45.6606 101.761 45.6606 103.749C45.6606 105.737 44.0405 107.357 42.0525 107.357ZM42.0525 102.139C41.158 102.139 40.4324 102.864 40.4324 103.759C40.4324 104.653 41.158 105.379 42.0525 105.379C42.9471 105.379 43.6727 104.653 43.6727 103.759C43.6727 102.864 42.9471 102.139 42.0525 102.139Z" fill="#13706D"/>
</g>
<g id="Group_14">
<path id="Vector_45" d="M52.8767 106.363C54.3204 106.363 55.4908 105.193 55.4908 103.749C55.4908 102.305 54.3204 101.135 52.8767 101.135C51.433 101.135 50.2626 102.305 50.2626 103.749C50.2626 105.193 51.433 106.363 52.8767 106.363Z" fill="white"/>
<path id="Vector_46" d="M52.8767 107.357C50.8888 107.357 49.2686 105.737 49.2686 103.749C49.2686 101.761 50.8888 100.141 52.8767 100.141C54.8646 100.141 56.4848 101.761 56.4848 103.749C56.4848 105.737 54.8646 107.357 52.8767 107.357ZM52.8767 102.139C51.9821 102.139 51.2566 102.864 51.2566 103.759C51.2566 104.653 51.9821 105.379 52.8767 105.379C53.7713 105.379 54.4968 104.653 54.4968 103.759C54.4968 102.864 53.7713 102.139 52.8767 102.139Z" fill="#13706D"/>
</g>
<g id="Group_15">
<path id="Vector_47" d="M53.3637 96.9801H37.53L39.2595 93.7597C40.2634 91.901 42.2016 90.7381 44.3188 90.7381H48.8313C50.1433 90.7381 51.3063 91.5432 51.7734 92.7658L53.3737 96.9801H53.3637Z" fill="white"/>
<path id="Vector_48" d="M53.3637 97.9741H37.53C37.1822 97.9741 36.8542 97.7852 36.6752 97.4871C36.4963 97.1889 36.4864 96.8112 36.6554 96.503L38.3848 93.2826C39.5577 91.0959 41.8339 89.7342 44.3188 89.7342H48.8313C50.5409 89.7342 52.0915 90.8077 52.6978 92.408L54.2981 96.6223C54.4173 96.9304 54.3776 97.2684 54.1887 97.5368C53.9999 97.8051 53.7017 97.9642 53.3737 97.9642L53.3637 97.9741ZM39.1999 95.9862H51.9324L50.849 93.1236C50.531 92.2887 49.7259 91.7321 48.8313 91.7321H44.3188C42.5694 91.7321 40.9691 92.6863 40.1342 94.2269L39.1899 95.9762L39.1999 95.9862Z" fill="#13706D"/>
</g>
<path id="Vector_49" d="M46.4458 97.9741C45.8991 97.9741 45.4519 97.5268 45.4519 96.9801V90.7381C45.4519 90.1914 45.8991 89.7442 46.4458 89.7442C46.9925 89.7442 47.4398 90.1914 47.4398 90.7381V96.9801C47.4398 97.5268 46.9925 97.9741 46.4458 97.9741Z" fill="#13706D"/>
<g id="Group_16">
<path id="Vector_50" d="M172.897 101.691C172.499 105.399 169.14 108.798 165.134 107.924C160.959 108.918 157.997 105.369 157.371 101.691C156.705 97.7256 157.938 92.1793 165.134 95.4594C173.135 92.8254 173.354 97.4771 172.897 101.691Z" fill="#AFE0DD"/>
<path id="Vector_51" d="M163.732 109.087C162.46 109.087 161.248 108.719 160.154 107.993C158.236 106.721 156.824 104.425 156.397 101.851C155.97 99.306 156.258 96.016 158.355 94.3959C159.985 93.1435 162.291 93.1435 165.194 94.3959C168.474 93.382 170.799 93.4715 172.29 94.6841C174.209 96.2347 174.169 99.1569 173.881 101.801C173.622 104.147 172.35 106.363 170.462 107.715C168.881 108.848 167.003 109.285 165.144 108.937C164.667 109.037 164.2 109.087 163.732 109.087ZM161.317 95.4594C160.661 95.4594 160.055 95.6085 159.568 95.9862C158.166 97.0597 158.037 99.6439 158.355 101.532C158.693 103.55 159.806 105.389 161.248 106.343C162.341 107.069 163.573 107.278 164.895 106.959C165.044 106.93 165.194 106.92 165.343 106.959C167.102 107.347 168.464 106.711 169.299 106.115C170.71 105.101 171.714 103.361 171.903 101.592C172.121 99.6042 172.221 97.1889 171.028 96.2347C170.074 95.4594 168.136 95.519 165.432 96.4136C165.194 96.4931 164.935 96.4732 164.707 96.3738C163.683 95.9067 162.42 95.4693 161.297 95.4693L161.317 95.4594Z" fill="#13706D"/>
</g>
<g id="Group_17">
<path id="Vector_52" d="M165.134 94.4654C165.134 94.4654 165.989 91.2848 162.977 89.8734L165.134 94.4654Z" fill="white"/>
<path id="Vector_53" d="M165.134 95.4594C165.044 95.4594 164.965 95.4495 164.875 95.4196C164.349 95.2805 164.031 94.7338 164.17 94.207C164.229 93.9585 164.716 91.7818 162.55 90.7679C162.053 90.5393 161.844 89.9429 162.073 89.446C162.311 88.949 162.898 88.7303 163.395 88.9689C166.376 90.3703 166.456 93.3423 166.088 94.7239C165.969 95.1711 165.571 95.4594 165.134 95.4594Z" fill="#13706D"/>
</g>
<g id="Group_18">
<path id="Vector_54" d="M165.134 92.1694C165.134 92.1694 165.263 86.7623 172.41 87.6668C172.41 87.6668 171.634 92.3483 165.134 92.1694Z" fill="white"/>
<path id="Vector_55" d="M165.492 93.1634C165.372 93.1634 165.243 93.1634 165.114 93.1634C164.567 93.1534 164.13 92.6962 164.15 92.1495C164.15 92.0501 164.229 89.7442 166.128 88.1141C167.629 86.8219 169.786 86.3448 172.549 86.6828C172.817 86.7126 173.056 86.8617 173.225 87.0804C173.384 87.299 173.453 87.5674 173.404 87.8358C173.404 87.8855 172.43 93.1733 165.502 93.1733L165.492 93.1634ZM170.869 88.5514C169.398 88.5514 168.245 88.8993 167.43 89.5851C166.873 90.0622 166.545 90.6387 166.366 91.1357C169.169 90.8972 170.442 89.5454 171.008 88.5514C170.959 88.5514 170.919 88.5514 170.869 88.5514Z" fill="#13706D"/>
</g>
<path id="Vector_56" d="M161.576 100.28C162.459 100.28 163.176 99.5636 163.176 98.6798C163.176 97.796 162.459 97.0795 161.576 97.0795C160.692 97.0795 159.975 97.796 159.975 98.6798C159.975 99.5636 160.692 100.28 161.576 100.28Z" fill="white"/>
<g id="Group_19">
<path id="Vector_57" d="M112.405 121.153H100.149C99.1336 121.153 98.3104 121.976 98.3104 122.992V143.09C98.3104 144.105 99.1336 144.929 100.149 144.929H112.405C113.42 144.929 114.243 144.105 114.243 143.09V122.992C114.243 121.976 113.42 121.153 112.405 121.153Z" fill="#AFE0DD"/>
<path id="Vector_58" d="M112.405 145.922H100.149C98.5887 145.922 97.3164 144.65 97.3164 143.09V122.992C97.3164 121.431 98.5887 120.159 100.149 120.159H112.405C113.965 120.159 115.237 121.431 115.237 122.992V143.09C115.237 144.65 113.965 145.922 112.405 145.922ZM100.149 122.147C99.682 122.147 99.3043 122.525 99.3043 122.992V143.09C99.3043 143.557 99.682 143.935 100.149 143.935H112.405C112.872 143.935 113.249 143.557 113.249 143.09V122.992C113.249 122.525 112.872 122.147 112.405 122.147H100.149Z" fill="#13706D"/>
</g>
<path id="Vector_59" d="M107.047 122.167L103.558 128.638C103.161 129.373 103.747 130.248 104.652 130.248C105.526 130.248 106.113 131.063 105.775 131.798L100.149 143.974H106.481L110.685 128.936C110.884 128.23 110.297 127.544 109.512 127.544H109.492C108.638 127.544 108.051 126.759 108.359 126.033L109.979 122.177H107.057L107.047 122.167Z" fill="white"/>
<g id="Group_20">
<path id="Vector_60" d="M106.481 142.324C107.48 142.324 108.29 141.514 108.29 140.515C108.29 139.516 107.48 138.706 106.481 138.706C105.482 138.706 104.672 139.516 104.672 140.515C104.672 141.514 105.482 142.324 106.481 142.324Z" fill="white"/>
<path id="Vector_61" d="M106.481 143.318C104.93 143.318 103.678 142.056 103.678 140.515C103.678 138.975 104.94 137.712 106.481 137.712C108.021 137.712 109.284 138.975 109.284 140.515C109.284 142.056 108.021 143.318 106.481 143.318ZM106.481 139.7C106.033 139.7 105.666 140.068 105.666 140.515C105.666 140.963 106.033 141.33 106.481 141.33C106.928 141.33 107.296 140.963 107.296 140.515C107.296 140.068 106.928 139.7 106.481 139.7Z" fill="#13706D"/>
</g>
<path id="Vector_62" d="M167.35 130.119H157.938C157.391 130.119 156.944 129.671 156.944 129.125C156.944 128.578 157.391 128.131 157.938 128.131H167.35C167.897 128.131 168.344 128.578 168.344 129.125C168.344 129.671 167.897 130.119 167.35 130.119Z" fill="#13706D"/>
<path id="Vector_63" d="M169.835 134.065H160.423C159.876 134.065 159.429 133.617 159.429 133.071C159.429 132.524 159.876 132.077 160.423 132.077H169.835C170.382 132.077 170.829 132.524 170.829 133.071C170.829 133.617 170.382 134.065 169.835 134.065Z" fill="#13706D"/>
<path id="Vector_64" d="M51.6939 130.119H42.2812C41.7345 130.119 41.2872 129.671 41.2872 129.125C41.2872 128.578 41.7345 128.131 42.2812 128.131H51.6939C52.2406 128.131 52.6879 128.578 52.6879 129.125C52.6879 129.671 52.2406 130.119 51.6939 130.119Z" fill="#13706D"/>
<path id="Vector_65" d="M46.8434 134.065H37.4306C36.884 134.065 36.4367 133.617 36.4367 133.071C36.4367 132.524 36.884 132.077 37.4306 132.077H46.8434C47.3901 132.077 47.8374 132.524 47.8374 133.071C47.8374 133.617 47.3901 134.065 46.8434 134.065Z" fill="#13706D"/>
<path id="Vector_66" d="M56.2164 134.065H50.7795C50.2328 134.065 49.7855 133.617 49.7855 133.071C49.7855 132.524 50.2328 132.077 50.7795 132.077H56.2164C56.7631 132.077 57.2103 132.524 57.2103 133.071C57.2103 133.617 56.7631 134.065 56.2164 134.065Z" fill="#13706D"/>
<path id="Vector_67" d="M172.41 130.119H170.183C169.637 130.119 169.189 129.671 169.189 129.125C169.189 128.578 169.637 128.131 170.183 128.131H172.41C172.956 128.131 173.404 128.578 173.404 129.125C173.404 129.671 172.956 130.119 172.41 130.119Z" fill="#13706D"/>
<path id="Vector_68" d="M48.1554 42.3822C54.0197 42.3822 58.7709 37.6311 58.7709 31.7668C58.7709 29.3714 57.9657 27.1747 56.6338 25.3955C50.4117 28.8446 44.5871 32.9098 39.2297 37.5118C41.1182 40.444 44.4082 42.3822 48.1554 42.3822Z" fill="#AFE0DD"/>
<path id="Vector_69" d="M165.124 42.3822C170.134 42.3822 174.318 38.9133 175.441 34.2417C170.163 30.1367 164.478 26.5386 158.464 23.507C156.059 25.4552 154.509 28.4271 154.509 31.7668C154.509 37.6311 159.26 42.3822 165.124 42.3822Z" fill="#AFE0DD"/>
<path id="Vector_70" d="M58.3534 167.471C57.0811 163.028 53.0059 159.768 48.1554 159.768C43.3049 159.768 39.2198 163.028 37.9574 167.471H58.3633H58.3534Z" fill="#AFE0DD"/>
<path id="Vector_71" d="M175.451 167.471C174.179 163.028 170.104 159.768 165.253 159.768C160.403 159.768 156.318 163.028 155.055 167.471H175.461H175.451Z" fill="#AFE0DD"/>
</g>
</svg>
