<svg xmlns="http://www.w3.org/2000/svg" width="219" height="180" fill="none"><path fill="#E0F4F3" d="M106.988 12.663h4.691c57.401 0 104.008 46.606 104.008 104.007v24.591c0 14.611-11.858 26.469-26.469 26.469H29.45c-14.612 0-26.47-11.858-26.47-26.469V116.67c0-57.4 46.607-104.007 104.008-104.007"/><path fill="#C4EAE7" d="M99.732 112.327c7.017 0 12.713-5.686 12.713-12.713l-1.114-9.125H88.142l-1.113 9.125c0 7.017 5.686 12.713 12.713 12.713z"/><path fill="#13706D" d="M99.732 113.321c-7.554 0-13.707-6.143-13.707-13.707v-.12l1.114-9.124a1 1 0 0 1 .984-.874h23.189a.99.99 0 0 1 .984.874l1.113 9.125v.119c0 7.554-6.143 13.707-13.707 13.707zM88.013 99.674c.03 6.43 5.278 11.659 11.719 11.659s11.679-5.219 11.719-11.66l-.994-8.19h-21.43l-.994 8.19z"/><path fill="#AFE0DD" d="M99.732 112.327c7.017 0 12.713-5.686 12.713-12.713H87.029c0 7.017 5.686 12.713 12.713 12.713z"/><path fill="#13706D" d="M99.732 113.321c-7.554 0-13.707-6.143-13.707-13.707 0-.547.448-.994.994-.994h25.416c.546 0 .994.447.994.994 0 7.554-6.143 13.707-13.707 13.707zm-11.669-12.713c.507 5.993 5.546 10.725 11.669 10.725s11.162-4.722 11.669-10.725H88.053z"/><path fill="#AFE0DD" d="M99.732 128.757c6.073 0 10.993 1.888 10.993 4.214H88.729c0-2.326 4.92-4.214 10.993-4.214z"/><path fill="#13706D" d="M110.725 133.965H88.729a.997.997 0 0 1-.994-.994c0-3.379 6.182-5.208 11.987-5.208s11.987 1.829 11.987 5.208a.997.997 0 0 1-.994.994zm-20.366-1.988h18.756c-1.332-1.113-4.712-2.226-9.373-2.226-4.662 0-8.041 1.113-9.373 2.226z"/><path fill="#13706D" d="M99.732 129.751a.997.997 0 0 1-.994-.994v-16.43c0-.547.447-.994.994-.994s.994.447.994.994v16.43a1 1 0 0 1-.994.994"/><path fill="#fff" d="M55.75 130.178h3.468c1.859 0 3.598-.984 4.483-2.614 3.936-7.177 3.737-16.778 3.737-16.778h-26.18s-.2 9.601 3.737 16.778c.894 1.63 2.634 2.614 4.483 2.614z"/><path fill="#13706D" d="M59.218 131.172h-9.73c-2.247 0-4.304-1.203-5.358-3.131-4.016-7.325-3.867-16.867-3.857-17.275a1 1 0 0 1 .994-.974h26.181a1 1 0 0 1 .994.974c0 .408.16 9.95-3.866 17.275-1.064 1.928-3.111 3.131-5.358 3.131M42.261 111.78c.08 2.574.567 9.751 3.608 15.297.706 1.292 2.098 2.097 3.618 2.097h9.731c1.521 0 2.903-.805 3.618-2.097 3.042-5.546 3.529-12.723 3.608-15.297z"/><path fill="#13706D" d="M68.402 124.612h-3.13a.997.997 0 0 1-.995-.994c0-.547.448-.994.994-.994h3.131a3.344 3.344 0 0 0 3.31-2.912 3.35 3.35 0 0 0-.805-2.634 3.36 3.36 0 0 0-2.505-1.133H67.23a.997.997 0 0 1-.994-.994c0-.547.448-.994.994-.994h1.173c1.53 0 2.982.656 3.996 1.809a5.3 5.3 0 0 1 1.282 4.194 5.34 5.34 0 0 1-5.288 4.652z"/><path fill="#fff" d="M68.999 130.178h-29.78s-1.4 4.095 15.129 4.095c16.53 0 14.65-4.095 14.65-4.095"/><path fill="#13706D" d="M54.348 135.257c-8.777 0-14.045-1.143-15.655-3.389-.716-1.004-.477-1.859-.417-2.018a1 1 0 0 1 .944-.666h29.779a1 1 0 0 1 .904.577c.209.467.278 1.292-.258 2.117-1.441 2.246-6.59 3.379-15.307 3.379zm-13.558-4.085c1.114.805 4.334 2.107 13.558 2.107s12.345-1.312 13.289-2.107z"/><path fill="#fff" d="M138.039 132.971V76.405c0-9.602 7.783-17.374 17.374-17.374 9.602 0 17.375 7.782 17.375 17.374V83.9h-7.972v-7.018a8.925 8.925 0 0 0-8.926-8.925 8.924 8.924 0 0 0-8.925 8.925v56.089z"/><path fill="#13706D" d="M146.965 133.965h-8.926a.997.997 0 0 1-.994-.994V76.405c0-10.128 8.24-18.368 18.368-18.368 10.129 0 18.368 8.24 18.368 18.368V83.9a.996.996 0 0 1-.993.993h-7.972a.997.997 0 0 1-.994-.993v-7.018c0-4.373-3.558-7.931-7.932-7.931-4.373 0-7.931 3.558-7.931 7.931v56.089a.997.997 0 0 1-.994.994m-7.932-1.988h6.938V76.882c0-5.467 4.453-9.92 9.919-9.92s9.92 4.453 9.92 9.92v6.024h5.984v-6.5c0-9.036-7.346-16.381-16.381-16.381s-16.38 7.345-16.38 16.38z"/><path fill="#C4EAE7" d="M178.523 110.428h-19.462v22.533h19.462z"/><path fill="#13706D" d="M178.533 133.965h-19.462a.997.997 0 0 1-.994-.994v-22.533c0-.547.447-.994.994-.994h19.462c.546 0 .994.447.994.994v22.533a.997.997 0 0 1-.994.994m-18.478-1.988h17.474v-20.545h-17.474z"/><path fill="#fff" d="M178.523 128.757h-19.462v4.214h19.462z"/><path fill="#13706D" d="M178.533 133.965h-19.462a.997.997 0 0 1-.994-.994v-4.214c0-.547.447-.994.994-.994h19.462c.546 0 .994.447.994.994v4.214a.997.997 0 0 1-.994.994m-18.478-1.988h17.474v-2.226h-17.474z"/><path fill="#fff" d="M142.492 132.971v-8.13c0-.975-.507-1.889-1.332-2.406l-14.014-8.707a2.22 2.22 0 0 0-3.231 1.064 2.214 2.214 0 0 0 .845 2.663l5.477 3.589a2.2 2.2 0 0 1 1.004 1.848v10.069h11.261z"/><path fill="#13706D" d="M142.492 133.965H131.23a.996.996 0 0 1-.993-.994v-10.069c0-.417-.209-.795-.557-1.023l-5.467-3.589a3.226 3.226 0 0 1-1.222-3.866 3.2 3.2 0 0 1 1.978-1.869 3.24 3.24 0 0 1 2.703.318l14.015 8.707a3.81 3.81 0 0 1 1.809 3.251v8.13a.997.997 0 0 1-.994.994zm-10.268-1.988h9.274v-7.136c0-.637-.328-1.223-.865-1.561l-14.014-8.707a1.22 1.22 0 0 0-1.034-.119 1.25 1.25 0 0 0-.756.715 1.24 1.24 0 0 0 .468 1.471l5.476 3.589a3.21 3.21 0 0 1 1.451 2.683v9.075z"/><path fill="#fff" d="M131.23 124.831s5.676 4.8 11.262.477z"/><path fill="#13706D" d="M137.413 128.101c-2.922 0-5.487-1.372-6.819-2.505a1.004 1.004 0 0 1-.119-1.402 1.003 1.003 0 0 1 1.401-.119c.219.179 5.149 4.215 10.01.448a.984.984 0 0 1 1.391.178.986.986 0 0 1-.179 1.392c-1.898 1.471-3.856 2.008-5.685 2.008"/><path fill="#C4EAE7" d="m167.708 88.442-3.638 8.727a5.1 5.1 0 0 0 1.094 5.566 5.1 5.1 0 0 0 7.206.04l.02-.02a5.1 5.1 0 0 0 1.113-5.646l-3.707-8.677c-.398-.924-1.71-.924-2.098 0z"/><path fill="#13706D" d="M168.782 105.23a6.04 6.04 0 0 1-4.324-1.799 6.11 6.11 0 0 1-1.302-6.65l3.638-8.727a2.12 2.12 0 0 1 1.958-1.312c.855 0 1.62.507 1.958 1.292l3.708 8.678a6.08 6.08 0 0 1-1.332 6.749 6.13 6.13 0 0 1-4.304 1.759zm-.159-16.4-3.638 8.726a4.12 4.12 0 0 0 .875 4.483 4.12 4.12 0 0 0 5.804.04c1.233-1.213 1.591-3.002.915-4.572l-3.708-8.678s-.039-.089-.129-.089c-.099 0-.119.06-.129.09zM50.382 105.409a1 1 0 0 1-.895-.547l-1.352-2.714a7.65 7.65 0 0 1 .666-7.961 5.67 5.67 0 0 0 .289-6.272l-1.73-2.892a.99.99 0 0 1 .348-1.362.99.99 0 0 1 1.362.348L50.8 86.9a7.64 7.64 0 0 1-.398 8.459 5.66 5.66 0 0 0-.497 5.894l1.352 2.713a.987.987 0 0 1-.448 1.332c-.139.07-.298.11-.447.11zm9.771.705a1 1 0 0 1-.895-.546l-.875-1.75a5.27 5.27 0 0 1 .467-5.506 3.31 3.31 0 0 0 .17-3.658l-1.114-1.868a.99.99 0 0 1 .348-1.362.99.99 0 0 1 1.362.348l1.113 1.868a5.32 5.32 0 0 1-.268 5.855 3.32 3.32 0 0 0-.289 3.449l.875 1.749a.99.99 0 0 1-.447 1.332c-.14.07-.298.109-.447.109z"/><path fill="#fff" d="M168.444 101.045a1.52 1.52 0 1 0 0-3.042 1.52 1.52 0 0 0 0 3.042"/><path fill="#13706D" d="M172.798 81.445h-3.996a.997.997 0 0 1-.994-.994c0-.547.447-.994.994-.994h3.996c.546 0 .994.447.994.994a.997.997 0 0 1-.994.994M67.309 144.72H41.377a.997.997 0 0 1-.994-.994c0-.547.447-.994.994-.994h25.932c.547 0 .994.447.994.994a.997.997 0 0 1-.994.994m-14.869 4.87H41.387a.997.997 0 0 1-.994-.994c0-.547.447-.994.994-.994H52.44c.547 0 .994.447.994.994a.997.997 0 0 1-.994.994m60.253-4.87H86.761a.997.997 0 0 1-.994-.994c0-.547.447-.994.994-.994h25.932c.547 0 .994.447.994.994a.997.997 0 0 1-.994.994m-14.869 4.87H86.77a.997.997 0 0 1-.994-.994c0-.547.447-.994.994-.994h11.053c.546 0 .993.447.993.994a.997.997 0 0 1-.993.994m72.977-4.87h-33.934a.997.997 0 0 1-.994-.994c0-.547.447-.994.994-.994H170.8c.546 0 .994.447.994.994a1 1 0 0 1-.994.994m-19.472 4.87h-14.472a.997.997 0 0 1-.994-.994c0-.547.448-.994.994-.994h14.472c.547 0 .994.447.994.994a.997.997 0 0 1-.994.994"/><path fill="#fff" d="M82.477 60.79c5.38 0 9.74-4.361 9.74-9.74s-4.36-9.741-9.74-9.741-9.74 4.36-9.74 9.74 4.36 9.741 9.74 9.741"/><path fill="#13706D" d="M82.477 61.784c-5.914 0-10.735-4.81-10.735-10.735s4.81-10.734 10.735-10.734 10.735 4.81 10.735 10.734S88.4 61.784 82.477 61.784m0-19.481c-4.82 0-8.747 3.926-8.747 8.746s3.926 8.747 8.747 8.747 8.747-3.926 8.747-8.747-3.926-8.746-8.747-8.746"/><path fill="#AFE0DD" d="M114.91 49.449a11.1 11.1 0 0 0-3.857.04 3.46 3.46 0 0 1-2.862-.726 12.04 12.04 0 0 0-8.111-2.743c-4.93.189-9.055 3.31-10.764 7.624-.537 1.361-1.79 2.226-3.26 2.325-.895.06-1.84.319-2.823.865-2.426 1.372-4.086 3.926-3.927 6.71a7.17 7.17 0 0 0 7.435 6.758 7.13 7.13 0 0 0 4.016-1.431c1.123-.845 2.664-.944 3.916-.249a11.95 11.95 0 0 0 6.292 1.501 11.6 11.6 0 0 0 4.005-.855c.925-.367 1.948-.278 2.823.21a10.66 10.66 0 0 0 5.676 1.37c6.58-.248 11.569-6.34 10.138-13.1-.905-4.254-4.423-7.593-8.717-8.309z"/><path fill="#13706D" d="M113.091 71.863c-2.018 0-3.996-.517-5.755-1.501-.616-.348-1.342-.408-1.968-.15a13.1 13.1 0 0 1-4.344.925c-2.375.1-4.731-.467-6.808-1.63-.925-.517-2.018-.457-2.843.17a8.05 8.05 0 0 1-4.582 1.63c-4.443.158-8.21-3.29-8.469-7.694-.169-3.022 1.57-6.014 4.433-7.634 1.044-.586 2.137-.924 3.25-.994 1.104-.07 1.998-.705 2.396-1.7a13.07 13.07 0 0 1 11.649-8.25 13.03 13.03 0 0 1 8.777 2.963 2.4 2.4 0 0 0 2.037.517 12 12 0 0 1 4.205-.05c4.711.785 8.538 4.433 9.522 9.085.735 3.459-.08 7.017-2.217 9.77a11.75 11.75 0 0 1-8.856 4.533h-.437zm-6.908-3.797c.725 0 1.461.189 2.127.566 1.56.885 3.34 1.302 5.149 1.243a9.77 9.77 0 0 0 7.355-3.767c1.779-2.286 2.455-5.248 1.839-8.13-.815-3.857-3.996-6.889-7.902-7.535a9.9 9.9 0 0 0-3.509.04 4.47 4.47 0 0 1-3.678-.934 11.08 11.08 0 0 0-7.434-2.515 11.07 11.07 0 0 0-9.87 6.997c-.676 1.7-2.247 2.833-4.115 2.952-.815.05-1.6.289-2.396.746-2.206 1.242-3.548 3.518-3.419 5.794.189 3.34 3.042 5.954 6.401 5.825a6.05 6.05 0 0 0 3.46-1.232c1.46-1.104 3.379-1.223 4.999-.319a11.13 11.13 0 0 0 5.775 1.382 10.9 10.9 0 0 0 3.677-.785 4.2 4.2 0 0 1 1.551-.298z"/></svg>