<svg width="219" height="180" viewBox="0 0 219 180" fill="none" xmlns="http://www.w3.org/2000/svg">
<path d="M107.321 12.751H112.013C169.414 12.751 216.02 59.3576 216.02 116.758V141.349C216.02 155.96 204.162 167.818 189.551 167.818H29.783C15.1718 167.818 3.31396 155.96 3.31396 141.349V116.758C3.31396 59.3576 49.9205 12.751 107.321 12.751Z" fill="#E0F4F3"/>
<path d="M80.6433 73.2928H42.4457C40.3542 73.2928 38.6587 74.9883 38.6587 77.0798V103.589C38.6587 105.68 40.3542 107.376 42.4457 107.376H80.6433C82.7348 107.376 84.4303 105.68 84.4303 103.589V77.0798C84.4303 74.9883 82.7348 73.2928 80.6433 73.2928Z" fill="white"/>
<path d="M132.349 73.2928H94.7377C92.6462 73.2928 90.9507 74.9883 90.9507 77.0798V103.589C90.9507 105.68 92.6462 107.376 94.7377 107.376H132.349C134.44 107.376 136.136 105.68 136.136 103.589V77.0798C136.136 74.9883 134.44 73.2928 132.349 73.2928Z" fill="white"/>
<path d="M81.9062 71.4739C81.9062 71.4739 84.6197 67.5677 93.7741 67.5677C102.928 67.5677 106.02 71.4739 106.02 71.4739" fill="#E0F4F3"/>
<path d="M106.019 72.4679C105.721 72.4679 105.433 72.3387 105.234 72.0902C105.214 72.0604 102.252 68.5616 93.7738 68.5616C85.2954 68.5616 82.7409 72.0206 82.7111 72.0504C82.3931 72.4878 81.7768 72.5971 81.3295 72.279C80.8823 71.961 80.7729 71.3547 81.081 70.9074C81.2003 70.7285 84.2021 66.5737 93.7738 66.5737C103.346 66.5737 106.655 70.6887 106.795 70.8676C107.133 71.295 107.063 71.9212 106.626 72.2592C106.447 72.3983 106.228 72.4679 106.009 72.4679H106.019Z" fill="#13706D"/>
<path d="M75.0679 136.479V76.563C75.0679 73.4519 77.5925 70.9272 80.7036 70.9272H106.705C109.817 70.9272 112.341 73.4519 112.341 76.563V137.284L75.0679 136.479Z" fill="#C4EAE7"/>
<path d="M112.341 138.288H112.321L75.0478 137.472C74.5111 137.463 74.0737 137.015 74.0737 136.479V76.563C74.0737 72.9052 77.0457 69.9333 80.7034 69.9333H106.705C110.363 69.9333 113.335 72.9052 113.335 76.563V137.284C113.335 137.552 113.226 137.81 113.037 137.989C112.848 138.168 112.599 138.278 112.341 138.278V138.288ZM76.0616 135.514L111.347 136.28V76.5729C111.347 74.0184 109.27 71.9311 106.705 71.9311H80.7034C78.1489 71.9311 76.0616 74.0085 76.0616 76.5729V135.514Z" fill="#13706D"/>
<path d="M89.3408 134.928L98.4156 89.5738C98.9623 86.8405 101.368 84.8625 104.161 84.8625H158.798C162.466 84.8625 165.239 88.2022 164.553 91.8102L156.403 134.928" fill="#C4EAE7"/>
<path d="M89.3409 135.922C89.2713 135.922 89.2116 135.922 89.1421 135.902C88.6053 135.793 88.2574 135.276 88.3668 134.729L97.4416 89.375C98.0777 86.1844 100.901 83.8685 104.161 83.8685H158.798C160.846 83.8685 162.764 84.773 164.076 86.3534C165.378 87.9239 165.915 89.9814 165.537 91.9991L157.387 135.117C157.288 135.654 156.761 136.011 156.224 135.912C155.687 135.813 155.329 135.296 155.429 134.749L163.579 91.6313C163.848 90.2 163.47 88.7389 162.546 87.6257C161.621 86.5124 160.25 85.8664 158.798 85.8664H104.161C101.855 85.8664 99.847 87.5064 99.3897 89.7726L90.3149 135.127C90.2255 135.604 89.808 135.922 89.3409 135.922Z" fill="#13706D"/>
<path d="M56.9379 104.563H39.6133C37.9335 104.563 36.5718 105.924 36.5718 107.604V140.544C36.5718 142.224 37.9335 143.585 39.6133 143.585H56.9379C58.6177 143.585 59.9794 142.224 59.9794 140.544V107.604C59.9794 105.924 58.6177 104.563 56.9379 104.563Z" fill="#C4EAE7"/>
<path d="M56.9278 144.579H39.6131C37.3866 144.579 35.5776 142.77 35.5776 140.544V107.614C35.5776 105.388 37.3866 103.579 39.6131 103.579H56.9278C59.1542 103.579 60.9632 105.388 60.9632 107.614V140.544C60.9632 142.77 59.1542 144.579 56.9278 144.579ZM39.6131 105.557C38.48 105.557 37.5655 106.481 37.5655 107.604V140.534C37.5655 141.667 38.4899 142.581 39.6131 142.581H56.9278C58.0609 142.581 58.9753 141.657 58.9753 140.534V107.604C58.9753 106.471 58.0509 105.557 56.9278 105.557H39.6131Z" fill="#13706D"/>
<path d="M50.5068 138.133C50.5068 136.901 49.5078 135.902 48.2754 135.902C47.043 135.902 46.0439 136.901 46.0439 138.133C46.0439 139.366 47.043 140.365 48.2754 140.365C49.5078 140.365 50.5068 139.366 50.5068 138.133Z" fill="#C4EAE7"/>
<path d="M48.2704 141.359C46.4912 141.359 45.04 139.908 45.04 138.128C45.04 136.349 46.4912 134.898 48.2704 134.898C50.0496 134.898 51.5007 136.349 51.5007 138.128C51.5007 139.908 50.0496 141.359 48.2704 141.359ZM48.2704 136.896C47.5846 136.896 47.0279 137.453 47.0279 138.138C47.0279 138.824 47.5846 139.381 48.2704 139.381C48.9562 139.381 49.5128 138.824 49.5128 138.138C49.5128 137.453 48.9562 136.896 48.2704 136.896Z" fill="#13706D"/>
<path d="M40.4281 134.739C39.9113 134.739 39.4839 134.322 39.4839 133.795V109.006C39.4839 108.22 40.12 107.584 40.9052 107.584H56.3811C56.8682 107.584 57.1862 108.091 56.9775 108.528C55.7649 117.782 53.8664 124.193 40.5574 134.669L40.4281 134.729V134.739Z" fill="#E0F4F3"/>
<path d="M53.6975 113.707H43.907C43.3604 113.707 42.9131 113.26 42.9131 112.713C42.9131 112.166 43.3604 111.719 43.907 111.719H53.6975C54.2442 111.719 54.6914 112.166 54.6914 112.713C54.6914 113.26 54.2442 113.707 53.6975 113.707Z" fill="#13706D"/>
<path d="M48.7975 117.484H43.8973C43.3506 117.484 42.9033 117.037 42.9033 116.49C42.9033 115.943 43.3506 115.496 43.8973 115.496H48.7975C49.3441 115.496 49.7914 115.943 49.7914 116.49C49.7914 117.037 49.3441 117.484 48.7975 117.484Z" fill="#13706D"/>
<path d="M152.119 142.959H64.8496C62.0069 142.959 59.2736 141.886 57.1862 139.947C55.258 138.158 56.5302 134.938 59.1543 134.938H156.403V138.675C156.403 141.041 154.484 142.959 152.119 142.959Z" fill="#C4EAE7"/>
<path d="M152.119 143.953H64.8498C61.7487 143.953 58.7867 142.79 56.5105 140.673C55.3377 139.58 54.95 137.9 55.5464 136.409C56.1428 134.918 57.5542 133.944 59.1644 133.944H156.413C156.96 133.944 157.407 134.391 157.407 134.938V138.675C157.407 141.587 155.041 143.953 152.129 143.953H152.119ZM59.1545 135.922C58.2003 135.922 57.6138 136.548 57.3852 137.125C57.1566 137.711 57.1566 138.566 57.8623 139.212C59.7608 140.981 62.2457 141.965 64.8498 141.965H152.119C153.938 141.965 155.409 140.484 155.409 138.675V135.932H59.1545V135.922Z" fill="#13706D"/>
<path d="M89.8178 139.938H82.9993C80.2361 139.938 77.9897 137.691 77.9897 134.928C77.9897 134.381 78.437 133.934 78.9837 133.934C79.5304 133.934 79.9777 134.381 79.9777 134.928C79.9777 136.598 81.3294 137.95 82.9993 137.95H89.8178C91.4877 137.95 92.8394 136.598 92.8394 134.928C92.8394 134.381 93.2867 133.934 93.8334 133.934C94.3801 133.934 94.8273 134.381 94.8273 134.928C94.8273 137.691 92.581 139.938 89.8178 139.938Z" fill="#13706D"/>
<path d="M115.372 130.803C137.319 130.803 156.164 115.188 160.239 93.6192C160.488 92.2475 159.424 90.9753 158.033 90.9753H103.842C102.839 90.9753 101.984 91.681 101.785 92.665L94.6583 128.288C94.3998 129.59 95.3938 130.803 96.7157 130.803H115.372Z" fill="#E0F4F3"/>
<path d="M128.472 88.4805H128.025C127.479 88.4805 127.031 88.0332 127.031 87.4865C127.031 86.9398 127.479 86.4926 128.025 86.4926H128.472C129.019 86.4926 129.466 86.9398 129.466 87.4865C129.466 88.0332 129.019 88.4805 128.472 88.4805Z" fill="#13706D"/>
<path d="M191.867 114.065H181.301C180.427 114.065 179.631 113.558 179.244 112.773L178.031 110.248C177.654 109.463 176.858 108.956 175.974 108.956H170.746C169.871 108.956 169.076 109.453 168.698 110.238L167.456 112.783C167.078 113.568 166.283 114.065 165.408 114.065H155.101C152.974 114.065 151.244 116.222 151.244 118.895V143.516C151.244 145.196 152.606 146.557 154.286 146.557H191.44C193.119 146.557 194.481 145.196 194.481 143.516V117.345C194.481 115.536 193.308 114.065 191.857 114.065H191.867Z" fill="#AFE0DD"/>
<path d="M191.45 147.551H154.296C152.069 147.551 150.26 145.742 150.26 143.516V118.895C150.26 115.685 152.437 113.071 155.111 113.071H165.418C165.905 113.071 166.362 112.783 166.571 112.345L167.813 109.801C168.36 108.688 169.513 107.962 170.756 107.962H175.984C177.236 107.962 178.389 108.688 178.936 109.821L180.148 112.345C180.357 112.783 180.814 113.071 181.311 113.071H191.877C193.875 113.071 195.495 114.989 195.495 117.345V143.516C195.495 145.742 193.686 147.551 191.46 147.551H191.45ZM155.111 115.059C153.53 115.059 152.248 116.778 152.248 118.895V143.516C152.248 144.639 153.163 145.563 154.296 145.563H191.45C192.573 145.563 193.497 144.649 193.497 143.516V117.345C193.497 116.102 192.752 115.059 191.867 115.059H181.301C180.049 115.059 178.896 114.333 178.349 113.2L177.137 110.675C176.928 110.228 176.471 109.95 175.984 109.95H170.756C170.269 109.95 169.811 110.238 169.603 110.675L168.36 113.22C167.813 114.333 166.661 115.059 165.418 115.059H155.111Z" fill="#13706D"/>
<path d="M172.872 143.277C179.806 143.277 185.426 137.657 185.426 130.724C185.426 123.79 179.806 118.17 172.872 118.17C165.939 118.17 160.319 123.79 160.319 130.724C160.319 137.657 165.939 143.277 172.872 143.277Z" fill="white"/>
<path d="M172.882 144.271C167.277 144.271 162.019 140.762 160.07 135.166C157.615 128.109 161.363 120.376 168.42 117.921C171.839 116.729 175.516 116.947 178.767 118.528C182.027 120.108 184.472 122.851 185.665 126.271C186.857 129.69 186.639 133.367 185.058 136.618C183.478 139.878 180.735 142.323 177.315 143.516C175.844 144.023 174.353 144.271 172.882 144.271ZM172.882 119.164C171.6 119.164 170.318 119.382 169.076 119.81C166.163 120.824 163.808 122.911 162.466 125.694C161.124 128.477 160.935 131.608 161.949 134.53C162.963 137.453 165.05 139.798 167.833 141.14C170.616 142.482 173.747 142.671 176.669 141.657C179.582 140.643 181.937 138.556 183.279 135.773C184.621 132.99 184.81 129.859 183.796 126.937C182.782 124.024 180.695 121.669 177.912 120.327C176.322 119.551 174.602 119.164 172.882 119.164Z" fill="#13706D"/>
<path d="M172.873 139.6C177.775 139.6 181.749 135.626 181.749 130.724C181.749 125.821 177.775 121.848 172.873 121.848C167.971 121.848 163.997 125.821 163.997 130.724C163.997 135.626 167.971 139.6 172.873 139.6Z" fill="#AFE0DD"/>
<path d="M181.252 127.811C179.642 123.179 174.582 120.734 169.951 122.344C168.281 122.921 166.909 123.945 165.895 125.237C164.961 127.255 164.772 129.62 165.567 131.877C167.178 136.508 172.237 138.953 176.869 137.343C178.538 136.767 179.91 135.743 180.924 134.451C181.858 132.433 182.047 130.068 181.252 127.811Z" fill="#AFE0DD"/>
<path d="M172.883 140.593C168.798 140.593 164.971 138.039 163.549 133.964C161.76 128.825 164.494 123.189 169.632 121.4C174.771 119.611 180.407 122.344 182.196 127.483C183.061 129.968 182.902 132.652 181.759 135.027C180.606 137.403 178.608 139.182 176.113 140.047C175.04 140.415 173.956 140.593 172.883 140.593ZM172.863 122.841C172.008 122.841 171.133 122.981 170.279 123.279C166.173 124.71 163.997 129.203 165.418 133.318C166.849 137.423 171.342 139.6 175.457 138.178C177.445 137.482 179.045 136.061 179.96 134.163C180.874 132.264 181.003 130.127 180.308 128.139C179.174 124.889 176.113 122.841 172.853 122.841H172.863Z" fill="#13706D"/>
<path d="M173.747 123.696C171.769 123.428 169.94 123.994 168.529 125.088C167.942 126.36 167.714 127.831 168.022 129.372C168.589 132.254 170.984 134.52 173.906 134.918C175.884 135.186 177.713 134.62 179.124 133.526C179.711 132.254 179.94 130.783 179.631 129.243C179.065 126.36 176.669 124.094 173.747 123.696Z" fill="#C4EAE7"/>
<path d="M175.298 128.696C176.467 128.696 177.415 127.748 177.415 126.579C177.415 125.409 176.467 124.462 175.298 124.462C174.129 124.462 173.181 125.409 173.181 126.579C173.181 127.748 174.129 128.696 175.298 128.696Z" fill="white"/>
<path d="M190.307 119.164H188.06C187.514 119.164 187.066 118.717 187.066 118.17C187.066 117.623 187.514 117.176 188.06 117.176H190.307C190.853 117.176 191.301 117.623 191.301 118.17C191.301 118.717 190.853 119.164 190.307 119.164Z" fill="#13706D"/>
<path d="M173.996 113.856H171.749C171.203 113.856 170.755 113.409 170.755 112.862C170.755 112.316 171.203 111.868 171.749 111.868H173.996C174.542 111.868 174.99 112.316 174.99 112.862C174.99 113.409 174.542 113.856 173.996 113.856Z" fill="#13706D"/>
<path d="M157.427 122.344C158.579 122.344 159.514 121.41 159.514 120.257C159.514 119.104 158.579 118.17 157.427 118.17C156.274 118.17 155.339 119.104 155.339 120.257C155.339 121.41 156.274 122.344 157.427 122.344Z" fill="#C4EAE7"/>
<path d="M157.426 123.338C155.727 123.338 154.345 121.957 154.345 120.257C154.345 118.558 155.727 117.176 157.426 117.176C159.126 117.176 160.508 118.558 160.508 120.257C160.508 121.957 159.126 123.338 157.426 123.338ZM157.426 119.164C156.82 119.164 156.333 119.651 156.333 120.257C156.333 120.863 156.83 121.351 157.426 121.351C158.023 121.351 158.52 120.863 158.52 120.257C158.52 119.651 158.033 119.164 157.426 119.164Z" fill="#13706D"/>
<path d="M155.111 114.065V112.286C155.111 111.331 155.886 110.556 156.84 110.556H159.693C160.647 110.556 161.422 111.331 161.422 112.286V114.065H155.101H155.111Z" fill="#C4EAE7"/>
<path d="M161.432 115.059H155.111C154.564 115.059 154.117 114.612 154.117 114.065V112.286C154.117 110.785 155.339 109.562 156.84 109.562H159.693C161.194 109.562 162.416 110.785 162.416 112.286V114.065C162.416 114.612 161.969 115.059 161.422 115.059H161.432ZM156.105 113.071H160.438V112.286C160.438 111.878 160.11 111.55 159.703 111.55H156.85C156.443 111.55 156.115 111.878 156.115 112.286V113.071H156.105Z" fill="#13706D"/>
<path d="M84.0331 77.9843H82.8404C81.5284 77.9843 80.4648 79.0479 80.4648 80.3599C80.4648 81.6718 81.5284 82.7354 82.8404 82.7354H84.0331C85.3451 82.7354 86.4087 81.6718 86.4087 80.3599C86.4087 79.0479 85.3451 77.9843 84.0331 77.9843Z" fill="#C4EAE7"/>
<path d="M84.0232 83.7294H82.8304C80.9717 83.7294 79.4609 82.2186 79.4609 80.3599C79.4609 78.5012 80.9717 76.9904 82.8304 76.9904H84.0232C85.8819 76.9904 87.3927 78.5012 87.3927 80.3599C87.3927 82.2186 85.8819 83.7294 84.0232 83.7294ZM82.8404 78.9783C82.075 78.9783 81.4588 79.5945 81.4588 80.3599C81.4588 81.1252 82.075 81.7415 82.8404 81.7415H84.0331C84.7985 81.7415 85.4147 81.1252 85.4147 80.3599C85.4147 79.5945 84.7985 78.9783 84.0331 78.9783H82.8404Z" fill="#13706D"/>
<path d="M92.9983 55.3818C94.2993 55.3818 95.3539 54.3271 95.3539 53.0261C95.3539 51.7251 94.2993 50.6704 92.9983 50.6704C91.6973 50.6704 90.6426 51.7251 90.6426 53.0261C90.6426 54.3271 91.6973 55.3818 92.9983 55.3818Z" fill="#AFE0DD"/>
<path d="M92.9883 56.3757C92.3025 56.3757 91.6365 56.167 91.07 55.7595C90.3344 55.2426 89.8474 54.4773 89.6983 53.5927C89.5393 52.708 89.748 51.8234 90.2549 51.0879C90.7618 50.3524 91.5371 49.8653 92.4217 49.7162C93.3064 49.5671 94.191 49.7659 94.9265 50.2728C95.662 50.7897 96.1491 51.555 96.2982 52.4397C96.6162 54.2586 95.3937 55.998 93.5648 56.3161C93.366 56.3459 93.1771 56.3658 92.9783 56.3658L92.9883 56.3757ZM92.9982 51.6544C92.9187 51.6544 92.8392 51.6544 92.7597 51.6743C92.4019 51.734 92.0838 51.9328 91.8751 52.2309C91.6663 52.5291 91.5868 52.8969 91.6465 53.2547C91.7061 53.6125 91.9049 53.9306 92.2031 54.1393C92.5012 54.3481 92.8591 54.4375 93.2268 54.3679C93.9723 54.2387 94.4693 53.533 94.3401 52.7875C94.2804 52.4297 94.0816 52.1117 93.7834 51.9029C93.5548 51.734 93.2765 51.6544 92.9982 51.6544Z" fill="#13706D"/>
<path d="M101.954 53.8213C103.255 53.8213 104.309 52.7666 104.309 51.4656C104.309 50.1646 103.255 49.1099 101.954 49.1099C100.653 49.1099 99.5981 50.1646 99.5981 51.4656C99.5981 52.7666 100.653 53.8213 101.954 53.8213Z" fill="#AFE0DD"/>
<path d="M101.954 54.8152C100.354 54.8152 98.9323 53.6622 98.6441 52.0421C98.326 50.2231 99.5486 48.4738 101.377 48.1657C102.252 48.0166 103.147 48.2054 103.882 48.7223C104.618 49.2391 105.105 50.0045 105.254 50.8891C105.403 51.7737 105.214 52.6583 104.697 53.3938C104.18 54.1294 103.415 54.6164 102.53 54.7655C102.342 54.7953 102.143 54.8152 101.954 54.8152ZM101.954 50.0939C101.874 50.0939 101.795 50.0939 101.715 50.1138C101.358 50.1734 101.04 50.3722 100.831 50.6704C100.622 50.9686 100.543 51.3364 100.602 51.6942C100.731 52.4397 101.437 52.9366 102.183 52.8074C102.54 52.7478 102.858 52.549 103.067 52.2508C103.276 51.9526 103.355 51.5849 103.296 51.227C103.236 50.8692 103.037 50.5511 102.739 50.3424C102.511 50.1734 102.232 50.0939 101.954 50.0939Z" fill="#13706D"/>
<path d="M95.3243 53.6125C94.8472 53.6125 94.4297 53.2746 94.3502 52.7876L92.412 41.6851C92.3722 41.4267 92.4219 41.1583 92.5809 40.9396C92.73 40.721 92.9686 40.5818 93.227 40.5321L102.183 38.9716C102.441 38.9318 102.709 38.9815 102.928 39.1406C103.147 39.2897 103.286 39.5282 103.336 39.7866L105.274 50.8891C105.363 51.4258 105.005 51.9427 104.469 52.0421C103.922 52.1316 103.415 51.7737 103.316 51.237L101.546 41.1086L94.549 42.3312L96.3182 52.4596C96.4077 52.9963 96.0498 53.5132 95.5131 53.6125C95.4535 53.6125 95.3938 53.6225 95.3441 53.6225L95.3243 53.6125Z" fill="#13706D"/>
<path d="M120.948 64.1882C122.249 64.1882 123.304 63.1335 123.304 61.8325C123.304 60.5315 122.249 59.4769 120.948 59.4769C119.647 59.4769 118.593 60.5315 118.593 61.8325C118.593 63.1335 119.647 64.1882 120.948 64.1882Z" fill="#AFE0DD"/>
<path d="M120.958 65.1822C120.859 65.1822 120.759 65.1822 120.67 65.1723C118.821 65.0132 117.46 63.3831 117.619 61.5344C117.698 60.6398 118.116 59.8347 118.801 59.2582C119.487 58.6817 120.352 58.4034 121.247 58.4829C122.141 58.5625 122.946 58.9799 123.523 59.6657C124.099 60.3516 124.377 61.2163 124.298 62.1109C124.149 63.8602 122.678 65.1723 120.958 65.1723V65.1822ZM120.948 60.4609C120.63 60.4609 120.322 60.5702 120.074 60.779C119.795 61.0175 119.626 61.3455 119.587 61.7034C119.517 62.4588 120.084 63.1148 120.829 63.1843C121.565 63.234 122.24 62.6874 122.31 61.9419C122.34 61.5741 122.231 61.2263 121.992 60.948C121.753 60.6696 121.425 60.5007 121.068 60.4609C121.028 60.4609 120.988 60.4609 120.948 60.4609Z" fill="#13706D"/>
<path d="M123.304 63.0253C123.304 63.0253 123.245 63.0253 123.215 63.0253C122.668 62.9756 122.261 62.4985 122.31 61.9518L123.284 50.7201C123.304 50.4617 123.433 50.2132 123.632 50.0442C123.831 49.8752 124.099 49.7858 124.358 49.8156C126.942 50.0442 129.188 51.6644 130.212 54.0499L131.017 55.9284C131.236 56.4353 130.997 57.0218 130.5 57.2305C129.994 57.4492 129.417 57.2106 129.198 56.7137L128.393 54.8351C127.787 53.4336 126.604 52.3999 125.173 51.9824L124.288 62.1208C124.248 62.6376 123.811 63.0253 123.294 63.0253H123.304Z" fill="#13706D"/>
<path d="M172.475 67.5577H154.514C150.489 67.5577 147.229 70.8179 147.229 74.8434V80.2008C147.229 84.2264 150.489 87.4865 154.514 87.4865L151.96 94.4641L159.683 88.3016C160.349 87.7648 161.184 87.4766 162.028 87.4766H172.475C176.5 87.4766 179.761 84.2164 179.761 80.1909V74.8335C179.761 70.808 176.5 67.5478 172.475 67.5478V67.5577Z" fill="white"/>
<path d="M151.96 95.468C151.751 95.468 151.552 95.4083 151.383 95.2791C151.025 95.0207 150.876 94.5535 151.025 94.1261L153.132 88.3612C149.216 87.7052 146.234 84.286 146.234 80.1909V74.8335C146.234 70.2712 149.952 66.5538 154.514 66.5538H172.475C177.037 66.5538 180.754 70.2712 180.754 74.8335V80.1909C180.754 84.7531 177.037 88.4705 172.475 88.4705H162.028C161.402 88.4705 160.786 88.6892 160.299 89.0768L152.576 95.2394C152.397 95.3785 152.178 95.458 151.96 95.458V95.468ZM154.514 68.5517C151.045 68.5517 148.222 71.3745 148.222 74.8434V80.2008C148.222 83.6697 151.045 86.4926 154.514 86.4926C154.842 86.4926 155.14 86.6516 155.329 86.92C155.518 87.1883 155.558 87.5263 155.448 87.8344L154.107 91.4822L159.056 87.5362C159.891 86.8703 160.955 86.5025 162.028 86.5025H172.475C175.944 86.5025 178.767 83.6797 178.767 80.2108V74.8534C178.767 71.3845 175.944 68.5616 172.475 68.5616H154.514V68.5517Z" fill="#13706D"/>
<path d="M116.118 43.4643C117.419 43.4643 118.474 42.4096 118.474 41.1086C118.474 39.8076 117.419 38.7529 116.118 38.7529C114.817 38.7529 113.762 39.8076 113.762 41.1086C113.762 42.4096 114.817 43.4643 116.118 43.4643Z" fill="#AFE0DD"/>
<path d="M116.108 44.4682C115.362 44.4682 114.637 44.2197 114.04 43.7525C113.335 43.1959 112.888 42.4007 112.778 41.5161C112.669 40.6215 112.917 39.7469 113.474 39.0412C114.031 38.3355 114.826 37.8882 115.71 37.7788C116.595 37.6695 117.48 37.918 118.185 38.4746C118.891 39.0312 119.338 39.8264 119.448 40.711C119.557 41.5956 119.308 42.4802 118.752 43.1859C118.195 43.8917 117.4 44.3389 116.515 44.4483C116.376 44.4682 116.247 44.4682 116.108 44.4682ZM116.118 39.7469C116.058 39.7469 116.009 39.7469 115.949 39.7568C115.581 39.7966 115.263 39.9854 115.034 40.2637C114.806 40.552 114.706 40.9098 114.756 41.2676C114.796 41.6254 114.985 41.9534 115.273 42.1821C115.561 42.4107 115.909 42.5101 116.277 42.4604C116.635 42.4206 116.963 42.2318 117.191 41.9435C117.42 41.6553 117.519 41.2974 117.47 40.9396C117.43 40.5718 117.241 40.2538 116.953 40.0252C116.714 39.8363 116.416 39.7369 116.108 39.7369L116.118 39.7469Z" fill="#13706D"/>
<path d="M118.463 41.8242C117.966 41.8242 117.539 41.4565 117.479 40.9496L116.138 29.7576C116.108 29.4992 116.177 29.2308 116.346 29.0221C116.505 28.8134 116.744 28.6842 117.012 28.6444C119.606 28.3363 122.121 29.4694 123.612 31.5865L124.785 33.2564C125.103 33.7036 124.994 34.3298 124.546 34.6379C124.099 34.956 123.473 34.8467 123.165 34.3994L121.992 32.7296C121.117 31.4772 119.746 30.7118 118.255 30.5926L119.467 40.7011C119.537 41.2477 119.139 41.7447 118.603 41.8044C118.563 41.8044 118.523 41.8044 118.483 41.8044L118.463 41.8242Z" fill="#13706D"/>
<path d="M153.6 77.8156C153.6 76.1557 154.554 75.1915 156.055 75.1915C157.019 75.1915 157.744 75.5891 158.122 76.3048C158.202 76.4638 158.251 76.6228 158.251 76.7719C158.251 77.0999 158.023 77.3186 157.685 77.3186C157.397 77.3186 157.228 77.1993 157.078 76.921C156.85 76.4538 156.512 76.2153 156.065 76.2153C155.359 76.2153 154.912 76.8216 154.912 77.8056C154.912 78.7896 155.359 79.4059 156.065 79.4059C156.532 79.4059 156.87 79.1773 157.088 78.7002C157.218 78.4219 157.377 78.3125 157.655 78.3125C158.023 78.3125 158.261 78.5412 158.261 78.8791C158.261 78.9984 158.231 79.1276 158.182 79.2568C157.874 79.9824 157.069 80.4396 156.094 80.4396C154.534 80.4396 153.6 79.4755 153.6 77.8156Z" fill="#13706D"/>
<path d="M159.136 77.8253C159.136 76.2051 160.11 75.2012 161.64 75.2012C163.171 75.2012 164.145 76.2151 164.145 77.8253C164.145 79.4355 163.181 80.4493 161.64 80.4493C160.1 80.4493 159.136 79.4454 159.136 77.8253ZM162.833 77.8253C162.833 76.8611 162.366 76.2449 161.64 76.2449C160.915 76.2449 160.448 76.8611 160.448 77.8253C160.448 78.7894 160.915 79.4057 161.64 79.4057C162.366 79.4057 162.833 78.7894 162.833 77.8253Z" fill="#13706D"/>
<path d="M165.01 79.8033C165.01 79.5647 165.11 79.3858 165.368 79.1671L166.819 77.8551C167.416 77.3184 167.575 77.0798 167.575 76.7518C167.575 76.3841 167.296 76.1256 166.889 76.1256C166.551 76.1256 166.322 76.2847 166.143 76.6226C165.984 76.8711 165.835 76.9705 165.567 76.9705C165.229 76.9705 165.03 76.7717 165.03 76.4636C165.03 76.3642 165.04 76.2747 165.08 76.1853C165.299 75.5988 165.974 75.1516 166.899 75.1516C168.052 75.1516 168.817 75.7678 168.817 76.6624C168.817 77.3084 168.489 77.6861 167.684 78.4117L166.67 79.3361V79.356H168.429C168.757 79.356 168.946 79.5448 168.946 79.853C168.946 80.1611 168.757 80.3499 168.429 80.3499H165.617C165.199 80.3499 165.01 80.1213 165.01 79.7933V79.8033Z" fill="#13706D"/>
<path d="M169.652 78.4614C169.652 77.219 170.388 76.4338 171.56 76.4338C172.733 76.4338 173.449 77.1892 173.449 78.2229C173.449 78.541 173.27 78.7199 172.942 78.7199H170.855V78.7895C170.855 79.2566 171.163 79.5747 171.61 79.5747C171.948 79.5747 172.187 79.4653 172.465 79.187C172.594 79.0678 172.694 79.0181 172.853 79.0181C173.101 79.0181 173.32 79.1771 173.32 79.4554C173.32 79.5548 173.29 79.6442 173.24 79.7337C172.992 80.181 172.366 80.4593 171.6 80.4593C170.368 80.4593 169.642 79.7138 169.642 78.4714L169.652 78.4614ZM172.266 78.0042C172.246 77.5868 171.968 77.3184 171.58 77.3184C171.193 77.3184 170.904 77.5967 170.875 78.0042H172.266Z" fill="#13706D"/>
<path d="M123.493 103.102L120.968 116.629C120.839 117.345 121.664 117.832 122.23 117.375L126.455 113.916C126.614 113.787 126.813 113.727 127.011 113.747L132.876 114.214C133.571 114.274 133.979 113.459 133.532 112.932L124.864 102.734C124.437 102.237 123.622 102.455 123.503 103.092L123.493 103.102Z" fill="#C4EAE7"/>
<path d="M127.211 98.0522L124.944 110.198C124.855 110.666 125.402 110.994 125.769 110.685L129.854 107.346L135.431 107.793C135.888 107.833 136.156 107.296 135.858 106.948L128.095 97.8137C127.817 97.4857 127.28 97.6248 127.201 98.0522H127.211Z" fill="white"/>
<path d="M125.451 111.799C125.183 111.799 124.924 111.729 124.676 111.58C124.129 111.252 123.851 110.636 123.97 110.01L126.236 97.8733C126.346 97.2968 126.763 96.8396 127.33 96.6905C127.896 96.5414 128.483 96.7203 128.86 97.1676L136.623 106.302C137.021 106.769 137.09 107.415 136.822 107.962C136.544 108.509 135.977 108.827 135.361 108.777L130.182 108.36L126.405 111.451C126.127 111.679 125.789 111.789 125.451 111.789V111.799ZM128.006 99.2251L126.167 109.075L129.228 106.57C129.427 106.411 129.675 106.332 129.934 106.352L134.347 106.71L127.996 99.2351L128.006 99.2251Z" fill="#13706D"/>
</svg>
