<svg width="220" height="180" viewBox="0 0 220 180" fill="none" xmlns="http://www.w3.org/2000/svg">
<g id="tools-quizz-end">
<path id="Vector" d="M112.36 12H107.64C82.6295 12 59.6595 20.78 41.6595 35.43C41.7395 35.61 41.8195 35.8 41.8795 36.01C42.4795 38.25 45.1195 39.23 47.0295 37.91C49.6095 36.14 52.9895 38.53 52.1895 41.55C51.5895 43.79 53.3895 45.95 55.6995 45.77C58.8195 45.53 60.5495 49.29 58.3395 51.5C56.6995 53.14 57.1795 55.91 59.2695 56.91C62.0895 58.26 61.7095 62.39 58.6895 63.2C56.4495 63.8 55.4695 66.44 56.7895 68.35C58.5595 70.93 56.1695 74.31 53.1495 73.51C50.9095 72.91 48.7495 74.71 48.9295 77.02C49.1695 80.14 45.4095 81.87 43.1995 79.66C41.5595 78.02 38.7895 78.5 37.7895 80.59C36.4395 83.41 32.3095 83.03 31.4995 80.01C30.8995 77.77 28.2595 76.79 26.3495 78.11C23.7695 79.88 20.3895 77.49 21.1895 74.47C21.7895 72.23 19.9895 70.07 17.6795 70.25C16.3195 70.36 15.2195 69.7 14.5995 68.73C7.19953 83.08 3.01953 99.36 3.01953 116.63V141.37C3.01953 156.08 14.9395 168 29.6495 168H190.4C205.11 168 217.03 156.08 217.03 141.37V116.63C217.03 58.84 170.18 11.99 112.39 11.99L112.36 12ZM37.4095 134.4L35.9395 135.2C35.0895 135.66 34.4395 136.42 34.0995 137.33L33.1095 139.97C32.9195 140.47 32.4595 140.79 31.9295 140.79C31.3995 140.79 30.9395 140.47 30.7495 139.97L29.7595 137.32C29.4195 136.41 28.7695 135.66 27.9195 135.19L26.4495 134.39C26.0495 134.17 25.7895 133.75 25.7895 133.29C25.7895 132.83 26.0395 132.41 26.4395 132.19L27.9095 131.39C28.7595 130.93 29.4095 130.17 29.7495 129.26L30.7395 126.62C30.9295 126.12 31.3895 125.8 31.9195 125.8C32.4495 125.8 32.9095 126.12 33.0995 126.62L34.0895 129.26C34.4295 130.17 35.0795 130.92 35.9295 131.39L37.3995 132.19C37.7995 132.41 38.0495 132.83 38.0495 133.29C38.0495 133.75 37.7995 134.17 37.3995 134.39L37.4095 134.4ZM67.6495 102.99L65.8495 104.79C65.1595 105.48 64.0295 105.48 63.3395 104.79L61.5395 102.99C60.8495 102.3 60.8495 101.17 61.5395 100.48L63.3395 98.68C64.0295 97.99 65.1595 97.99 65.8495 98.68L67.6495 100.48C68.3395 101.17 68.3395 102.3 67.6495 102.99ZM83.2595 46.17L81.3895 47.19C80.3595 47.75 79.5695 48.66 79.1595 49.76L77.9095 53.12C77.6395 53.85 76.9495 54.33 76.1695 54.33C75.3895 54.33 74.7095 53.86 74.4295 53.12L73.1795 49.76C72.7695 48.66 71.9795 47.75 70.9495 47.19L69.0795 46.17C68.4795 45.84 68.1195 45.22 68.1195 44.54C68.1195 43.86 68.4895 43.24 69.0795 42.92L70.9495 41.9C71.9795 41.34 72.7695 40.43 73.1795 39.33L74.4295 35.97C74.6995 35.24 75.3895 34.76 76.1695 34.76C76.9495 34.76 77.6295 35.23 77.9095 35.97L79.1595 39.33C79.5695 40.43 80.3595 41.34 81.3895 41.9L83.2595 42.92C83.8495 43.24 84.2195 43.87 84.2195 44.54C84.2195 45.22 83.8495 45.84 83.2595 46.17ZM200.27 98.83L200.81 98.29C201.5 97.6 202.63 97.6 203.32 98.29L203.86 98.83C204.55 99.52 204.55 100.65 203.86 101.34L203.32 101.88C202.63 102.57 201.5 102.57 200.81 101.88L200.27 101.34C199.58 100.65 199.58 99.52 200.27 98.83ZM151.47 42.6L149.67 44.4C148.98 45.09 147.85 45.09 147.16 44.4L145.36 42.6C144.67 41.91 144.67 40.78 145.36 40.09L147.16 38.29C147.85 37.6 148.98 37.6 149.67 38.29L151.47 40.09C152.16 40.78 152.16 41.91 151.47 42.6ZM161.9 150.34L160.1 152.14C159.41 152.83 158.28 152.83 157.59 152.14L155.79 150.34C155.1 149.65 155.1 148.52 155.79 147.83L157.59 146.03C158.28 145.34 159.41 145.34 160.1 146.03L161.9 147.83C162.59 148.52 162.59 149.65 161.9 150.34ZM204.08 131.19L198.44 132.33C197.02 132.62 195.91 133.78 195.69 135.21L194.42 143.43C194.32 144.08 193.79 144.53 193.13 144.53C192.48 144.53 191.95 143.98 191.86 143.33L190.61 135.21C190.39 133.78 189.28 132.62 187.86 132.33L182.31 131.21C181.7 131.09 181.19 130.57 181.18 129.94C181.18 129.3 181.59 128.78 182.22 128.66L187.86 127.52C189.28 127.23 190.39 126.07 190.61 124.64L191.86 116.52C191.96 115.88 192.48 115.33 193.13 115.32C193.79 115.32 194.32 115.76 194.42 116.41L195.69 124.63C195.91 126.06 197.02 127.22 198.44 127.51L203.99 128.63C204.61 128.75 205.11 129.27 205.12 129.9C205.12 130.54 204.71 131.06 204.08 131.18V131.19Z" fill="#DCF0EF"/>
<g id="Group">
<path id="Vector_2" d="M43.6708 53.33L39.7708 52.97L39.7408 49.07C39.7308 47.74 38.7208 46.64 37.3908 46.51C36.0608 46.38 34.8808 47.37 34.7508 48.7L34.7208 49.01C34.6208 50.09 34.2708 51.15 33.6908 52.07L32.5608 53.89C32.2408 53.64 31.8508 53.48 31.4408 53.44L28.9708 53.21C27.8108 53.1 26.7808 53.96 26.6708 55.12L25.8708 63.78C25.7608 64.94 26.6208 65.97 27.7808 66.08L30.2508 66.31C30.8808 66.37 31.4808 66.15 31.9308 65.71C32.4808 66.25 33.1908 66.58 33.9608 66.65L41.6108 67.35C43.3308 67.51 44.8808 66.35 45.2108 64.65L46.6308 57.3C46.6508 57.19 46.6708 57.08 46.6808 56.97C46.8508 55.13 45.4908 53.49 43.6508 53.32L43.6708 53.33ZM36.4608 49.18L36.4908 48.87C36.5208 48.5 36.8608 48.22 37.2308 48.25C37.6608 48.29 37.9908 48.65 38.0008 49.08L38.0408 53.77C38.0408 54.22 38.3808 54.59 38.8308 54.63L43.5208 55.06C44.4108 55.14 45.0608 55.93 44.9808 56.81C44.9808 56.86 44.9708 56.92 44.9608 56.97L43.5408 64.32C43.3808 65.14 42.6408 65.69 41.8108 65.62L34.1608 64.92C33.2708 64.84 32.6208 64.05 32.7008 63.17L33.3608 55.95L35.2008 52.99C35.9108 51.84 36.3608 50.52 36.4808 49.17L36.4608 49.18ZM28.4108 55.3C28.4308 55.1 28.6108 54.95 28.8108 54.96L31.2808 55.19C31.4808 55.21 31.6308 55.39 31.6208 55.59L30.8208 64.25C30.8008 64.45 30.6208 64.6 30.4208 64.59L27.9508 64.36C27.7508 64.34 27.6008 64.16 27.6108 63.96L28.4108 55.3Z" fill="#13706D"/>
<path id="Vector_3" d="M28.4149 55.2942L27.6198 63.9478C27.6011 64.1513 27.7509 64.3314 27.9544 64.3501L30.4339 64.5779C30.6374 64.5966 30.8175 64.4468 30.8362 64.2433L31.6314 55.5898C31.6501 55.3863 31.5003 55.2062 31.2968 55.1875L28.8172 54.9596C28.6138 54.9409 28.4336 55.0907 28.4149 55.2942Z" fill="#ABDCD9"/>
</g>
<g id="Group_2">
<path id="Vector_4" d="M64.8209 149.45L90.4009 95.86C91.0609 94.48 92.9309 94.26 93.8909 95.45L122.531 130.72C123.441 131.84 122.961 133.53 121.591 133.99L67.5709 152.54C65.6909 153.18 63.9709 151.25 64.8209 149.46V149.45Z" fill="white"/>
<path id="Vector_5" d="M66.8206 153.66C65.9206 153.66 65.0606 153.28 64.4206 152.57C63.5406 151.58 63.3406 150.22 63.9206 149.02L89.5006 95.43C89.9606 94.47 90.8606 93.83 91.9106 93.7C92.9606 93.58 93.9906 93.99 94.6606 94.82L123.291 130.09C123.921 130.87 124.141 131.91 123.861 132.88C123.581 133.85 122.851 134.62 121.901 134.94L67.8806 153.49C67.5206 153.61 67.1606 153.67 66.8006 153.67L66.8206 153.66ZM92.2806 95.67C92.2806 95.67 92.1906 95.67 92.1506 95.67C91.7806 95.71 91.4706 95.94 91.3106 96.28L65.7306 149.87C65.4006 150.56 65.7906 151.08 65.9206 151.23C66.0506 151.37 66.5306 151.83 67.2506 151.58L121.271 133.03C121.611 132.91 121.861 132.65 121.961 132.31C122.061 131.97 121.991 131.61 121.761 131.33L93.1306 96.06C92.9206 95.8 92.6206 95.66 92.3006 95.66L92.2806 95.67Z" fill="#13706D"/>
</g>
<g id="Group_3">
<path id="Vector_6" d="M160.419 114.19L158.329 116.06C158.029 116.33 157.879 116.72 157.939 117.12L158.299 119.9C158.429 120.9 157.359 121.61 156.479 121.11L154.049 119.7C153.699 119.5 153.279 119.48 152.919 119.65L150.379 120.85C149.469 121.28 148.459 120.48 148.669 119.5L149.259 116.76C149.339 116.37 149.229 115.96 148.959 115.67L147.029 113.63C146.339 112.9 146.789 111.69 147.789 111.58L150.579 111.29C150.979 111.25 151.329 111.01 151.519 110.66L152.869 108.2C153.349 107.32 154.639 107.37 155.049 108.29L156.189 110.86C156.349 111.23 156.679 111.49 157.079 111.56L159.839 112.08C160.829 112.27 161.179 113.51 160.429 114.18L160.419 114.19Z" fill="white"/>
<path id="Vector_7" d="M157.09 122.29C156.71 122.29 156.32 122.19 155.98 121.99L153.55 120.58C153.49 120.54 153.41 120.54 153.35 120.58L150.81 121.78C150.04 122.14 149.15 122.04 148.48 121.51C147.81 120.98 147.51 120.14 147.69 119.31L148.28 116.56C148.29 116.49 148.28 116.42 148.23 116.37L146.3 114.33C145.72 113.71 145.54 112.83 145.83 112.04C146.13 111.24 146.83 110.69 147.68 110.61L150.47 110.32C150.54 110.32 150.6 110.27 150.64 110.21L151.98 107.75C152.39 107 153.15 106.55 154.02 106.6C154.87 106.64 155.61 107.14 155.95 107.92L157.09 110.49C157.12 110.56 157.18 110.6 157.25 110.62L160.01 111.14C160.85 111.3 161.51 111.9 161.74 112.72C161.97 113.54 161.72 114.4 161.08 114.97L158.99 116.84C158.94 116.89 158.91 116.96 158.92 117.03L159.28 119.81C159.39 120.65 159.02 121.47 158.31 121.94C157.94 122.19 157.51 122.31 157.08 122.31L157.09 122.29ZM153.44 118.55C153.82 118.55 154.21 118.65 154.55 118.85L156.98 120.26C157.06 120.31 157.13 120.3 157.21 120.26C157.29 120.22 157.32 120.14 157.3 120.05L156.94 117.27C156.85 116.55 157.12 115.82 157.66 115.34L159.75 113.47C159.82 113.41 159.84 113.34 159.81 113.25C159.79 113.16 159.73 113.11 159.64 113.09L156.88 112.57C156.16 112.44 155.56 111.96 155.26 111.29L154.12 108.72C154.08 108.64 154.02 108.6 153.93 108.59C153.85 108.58 153.77 108.62 153.73 108.7L152.38 111.16C152.03 111.8 151.39 112.23 150.66 112.3L147.87 112.59C147.78 112.59 147.72 112.65 147.69 112.73C147.66 112.81 147.67 112.89 147.74 112.95L149.67 114.99C150.17 115.52 150.38 116.26 150.22 116.98L149.63 119.73C149.61 119.82 149.63 119.89 149.71 119.94C149.78 120 149.86 120 149.94 119.97L152.48 118.77C152.78 118.63 153.1 118.56 153.43 118.56L153.44 118.55Z" fill="#13706D"/>
</g>
<g id="Group_4">
<path id="Vector_8" d="M129.55 61.44L132.85 63.05C133.15 63.2 133.5 63.19 133.79 63.02L136.99 61.21C137.72 60.8 138.61 61.4 138.5 62.24L137.99 65.88C137.94 66.21 138.06 66.54 138.31 66.77L141.02 69.25C141.64 69.82 141.34 70.85 140.51 71L136.89 71.64C136.56 71.7 136.28 71.91 136.14 72.22L134.62 75.56C134.27 76.33 133.19 76.36 132.8 75.62L131.07 72.38C130.91 72.08 130.62 71.89 130.29 71.85L126.64 71.43C125.8 71.33 125.44 70.32 126.02 69.72L128.57 67.08C128.8 66.84 128.9 66.5 128.83 66.17L128.1 62.57C127.93 61.74 128.78 61.09 129.54 61.45L129.55 61.44Z" fill="white"/>
<path id="Vector_9" d="M133.69 77.14C132.94 77.14 132.27 76.73 131.91 76.07L130.18 72.83L126.52 72.41C125.75 72.32 125.11 71.82 124.85 71.09C124.59 70.36 124.76 69.57 125.3 69.01L127.85 66.37L127.12 62.76C126.97 62 127.25 61.24 127.86 60.76C128.47 60.29 129.28 60.2 129.98 60.54L133.28 62.15L136.49 60.34C137.16 59.96 137.98 59.99 138.62 60.43C139.26 60.86 139.59 61.61 139.48 62.38L138.97 66.02L141.68 68.52C142.25 69.04 142.47 69.83 142.25 70.57C142.03 71.31 141.43 71.86 140.67 71.99L137.05 72.63L135.52 75.98C135.2 76.68 134.52 77.13 133.75 77.16C133.73 77.16 133.71 77.16 133.69 77.16V77.14ZM129.1 62.33L129.82 65.95C129.95 66.6 129.76 67.28 129.29 67.75L126.74 70.39L130.4 70.83C131.06 70.91 131.64 71.3 131.95 71.88L133.68 75.12L135.23 71.78C135.51 71.18 136.06 70.75 136.72 70.63L140.33 69.99L137.63 67.48C137.14 67.03 136.9 66.37 137 65.71L137.51 62.08L134.29 63.87C133.71 64.2 133.01 64.22 132.42 63.93L129.12 62.32L129.1 62.33Z" fill="#13706D"/>
</g>
<path id="Vector_10" d="M122.991 82.45C122.761 82.45 122.531 82.37 122.341 82.21C121.921 81.85 121.871 81.22 122.221 80.8L126.451 75.82C126.811 75.4 127.441 75.35 127.861 75.7C128.281 76.06 128.331 76.69 127.981 77.11L123.751 82.09C123.551 82.32 123.271 82.44 122.991 82.44V82.45Z" fill="#13706D"/>
<path id="Vector_11" d="M107.17 101.09C106.94 101.09 106.71 101.01 106.52 100.85C106.1 100.49 106.05 99.86 106.4 99.44L118.29 85.43C118.65 85.01 119.28 84.96 119.7 85.31C120.12 85.67 120.17 86.3 119.82 86.72L107.93 100.73C107.73 100.96 107.45 101.08 107.17 101.08V101.09Z" fill="#13706D"/>
<path id="Vector_12" d="M139.14 119.67C138.73 119.67 138.34 119.41 138.2 119C138.02 118.48 138.29 117.91 138.82 117.73L142.9 116.31C143.42 116.13 143.99 116.4 144.17 116.93C144.35 117.45 144.08 118.02 143.55 118.2L139.47 119.62C139.36 119.66 139.25 119.68 139.14 119.68V119.67Z" fill="#13706D"/>
<path id="Vector_13" d="M125.74 124.33C125.33 124.33 124.94 124.07 124.8 123.66C124.62 123.14 124.89 122.57 125.42 122.39L134.16 119.35C134.68 119.17 135.25 119.44 135.43 119.97C135.61 120.49 135.34 121.06 134.81 121.24L126.07 124.28C125.96 124.32 125.85 124.34 125.74 124.34V124.33Z" fill="#13706D"/>
<path id="Vector_14" d="M124.38 105.63C124.24 105.63 124.1 105.6 123.97 105.54C123.47 105.31 123.24 104.72 123.47 104.22C123.55 104.04 131.64 86.67 154.15 96.29C174.84 105.13 181.95 91.81 182.24 91.24C182.49 90.75 183.09 90.55 183.58 90.8C184.07 91.05 184.27 91.65 184.02 92.14C183.94 92.3 175.83 107.73 153.36 98.13C132.7 89.3 125.58 104.4 125.29 105.04C125.12 105.41 124.76 105.63 124.38 105.63Z" fill="#13706D"/>
<path id="Vector_15" d="M100.329 91C100.099 91 99.8592 90.92 99.6692 90.75C99.2492 90.39 99.2092 89.76 99.5692 89.34C99.8392 89.03 106.099 81.69 100.859 76.69C96.9692 72.98 95.2292 69.98 95.2092 66.97C95.1892 64.4 96.4692 61.89 99.1192 59.28C99.5092 58.89 100.149 58.9 100.529 59.29C100.919 59.68 100.909 60.32 100.519 60.7C98.2692 62.91 97.1892 64.95 97.2092 66.95C97.2292 69.35 98.8292 71.98 102.239 75.24C107.539 80.3 103.799 87.53 101.079 90.65C100.879 90.88 100.609 90.99 100.329 90.99V91Z" fill="#13706D"/>
<g id="Group_5">
<path id="Vector_16" d="M106.309 58.02C108.347 58.02 109.999 56.3679 109.999 54.33C109.999 52.2921 108.347 50.64 106.309 50.64C104.271 50.64 102.619 52.2921 102.619 54.33C102.619 56.3679 104.271 58.02 106.309 58.02Z" fill="#C0E6E3"/>
<path id="Vector_17" d="M106.309 59.02C103.729 59.02 101.619 56.92 101.619 54.33C101.619 51.74 103.719 49.64 106.309 49.64C108.899 49.64 110.999 51.74 110.999 54.33C110.999 56.92 108.899 59.02 106.309 59.02ZM106.309 51.64C104.829 51.64 103.619 52.85 103.619 54.33C103.619 55.81 104.829 57.02 106.309 57.02C107.789 57.02 108.999 55.81 108.999 54.33C108.999 52.85 107.789 51.64 106.309 51.64Z" fill="#13706D"/>
</g>
<g id="Group_6">
<path id="Vector_18" d="M188.651 85.14C190.689 85.14 192.341 83.4879 192.341 81.45C192.341 79.4121 190.689 77.76 188.651 77.76C186.613 77.76 184.961 79.4121 184.961 81.45C184.961 83.4879 186.613 85.14 188.651 85.14Z" fill="#C0E6E3"/>
<path id="Vector_19" d="M188.651 86.14C186.061 86.14 183.961 84.04 183.961 81.45C183.961 78.86 186.061 76.76 188.651 76.76C191.241 76.76 193.341 78.86 193.341 81.45C193.341 84.04 191.241 86.14 188.651 86.14ZM188.651 78.76C187.171 78.76 185.961 79.97 185.961 81.45C185.961 82.93 187.171 84.14 188.651 84.14C190.131 84.14 191.341 82.93 191.341 81.45C191.341 79.97 190.131 78.76 188.651 78.76Z" fill="#13706D"/>
</g>
<g id="Group_7">
<path id="Vector_20" d="M92.9402 143.82L108.75 138.39L99.9302 102.87L93.8902 95.44C92.9302 94.26 91.0602 94.48 90.4002 95.85L84.7402 107.71L92.9302 143.82H92.9402Z" fill="#C0E6E3"/>
<path id="Vector_21" d="M92.9402 144.82C92.7702 144.82 92.6002 144.78 92.4502 144.69C92.2002 144.55 92.0302 144.31 91.9602 144.04L83.7702 107.93C83.7202 107.71 83.7502 107.48 83.8402 107.28L89.5002 95.42C89.9602 94.46 90.8602 93.82 91.9102 93.69C92.9602 93.57 93.9902 93.98 94.6602 94.81L100.7 102.24C100.79 102.35 100.86 102.49 100.89 102.63L109.71 138.15C109.83 138.65 109.55 139.17 109.06 139.34L93.2502 144.77C93.1402 144.81 93.0402 144.82 92.9302 144.82H92.9402ZM85.8002 107.83L93.6702 142.51L107.56 137.74L99.0102 103.32L93.1202 96.06C92.8802 95.77 92.5202 95.63 92.1602 95.67C91.7902 95.71 91.4802 95.94 91.3202 96.28L85.8102 107.83H85.8002Z" fill="#13706D"/>
</g>
<g id="Group_8">
<path id="Vector_22" d="M73.2587 131.76L64.8187 149.44C63.9587 151.23 65.6887 153.17 67.5687 152.52L77.1287 149.24L73.2587 131.75V131.76Z" fill="#C0E6E3"/>
<path id="Vector_23" d="M66.8191 153.66C65.9191 153.66 65.0591 153.28 64.4191 152.57C63.5391 151.58 63.3391 150.22 63.9091 149.02L72.3491 131.34C72.5291 130.96 72.9391 130.73 73.3691 130.78C73.7891 130.83 74.1391 131.14 74.2291 131.56L78.0991 149.05C78.2091 149.55 77.9291 150.05 77.4491 150.21L67.8891 153.49C67.5291 153.61 67.1691 153.67 66.8091 153.67L66.8191 153.66ZM72.9091 134.82L65.7191 149.88C65.3891 150.57 65.7891 151.09 65.9091 151.24C66.0391 151.38 66.5091 151.84 67.2391 151.59L75.9591 148.6L72.9091 134.82Z" fill="#13706D"/>
</g>
</g>
</svg>
