<svg width="219" height="180" viewBox="0 0 219 180" fill="none" xmlns="http://www.w3.org/2000/svg">
<g id="tools-etiquette 1">
<path id="Vector" d="M106.988 12.4866H111.679C169.08 12.4866 215.687 59.0931 215.687 116.494V141.084C215.687 155.696 203.829 167.553 189.218 167.553H29.4495C14.8383 167.553 2.98047 155.696 2.98047 141.084V116.494C2.98047 59.0931 49.587 12.4866 106.988 12.4866Z" fill="#E0F4F3"/>
<path id="Vector_2" d="M165.393 82.4907C169.637 82.4907 173.076 85.7608 173.076 89.7863V120.271C173.076 124.306 169.637 127.567 165.393 127.567H38.3254C34.0812 127.567 30.6421 124.296 30.6421 120.271V89.7863C30.6421 85.7509 34.0812 82.4907 38.3254 82.4907H153.714" fill="#C4EAE7"/>
<g id="Group">
<path id="Vector_3" d="M173.513 73.7739C177.757 73.7739 181.196 77.044 181.196 81.0695V111.554C181.196 115.59 177.757 118.85 173.513 118.85H46.446C42.2018 118.85 38.7627 115.58 38.7627 111.554V81.0695C38.7627 77.0341 42.2018 73.7739 46.446 73.7739H161.834" fill="white"/>
<path id="Vector_4" d="M173.513 119.854H46.4459C41.6551 119.854 37.7588 116.136 37.7588 111.564V81.0794C37.7588 76.5072 41.6551 72.7898 46.4459 72.7898H161.824C162.371 72.7898 162.818 73.2371 162.818 73.7837C162.818 74.3304 162.371 74.7777 161.824 74.7777H46.4459C42.7584 74.7777 39.7467 77.6105 39.7467 81.0794V111.564C39.7467 115.043 42.7484 117.866 46.4459 117.866H173.513C177.201 117.866 180.212 115.033 180.212 111.564V81.0794C180.212 77.6005 177.211 74.7777 173.513 74.7777C172.966 74.7777 172.519 74.3304 172.519 73.7837C172.519 73.2371 172.966 72.7898 173.513 72.7898C178.304 72.7898 182.2 76.5072 182.2 81.0794V111.564C182.2 116.136 178.304 119.854 173.513 119.854Z" fill="#13706D"/>
</g>
<g id="Group_2">
<path id="Vector_5" d="M83.5801 79.2902V73.7837H47.6188C42.7286 73.7837 38.7627 77.0538 38.7627 81.0793V111.564C38.7627 115.599 42.7286 118.86 47.6188 118.86H83.5801V85.3831" fill="#C4EAE7"/>
<path id="Vector_6" d="M83.5801 119.854H47.6188C42.1819 119.854 37.7588 116.136 37.7588 111.564V81.0794C37.7588 76.5072 42.1819 72.7898 47.6188 72.7898H83.5801C84.1268 72.7898 84.574 73.2371 84.574 73.7837V79.2903C84.574 79.8369 84.1268 80.2842 83.5801 80.2842C83.0334 80.2842 82.5861 79.8369 82.5861 79.2903V74.7777H47.6188C43.2852 74.7777 39.7467 77.6105 39.7467 81.0794V111.564C39.7467 115.043 43.2752 117.866 47.6188 117.866H82.5861V85.3832C82.5861 84.8365 83.0334 84.3892 83.5801 84.3892C84.1268 84.3892 84.574 84.8365 84.574 85.3832V118.86C84.574 119.406 84.1268 119.854 83.5801 119.854Z" fill="#13706D"/>
</g>
<g id="Group_3">
<path id="Vector_7" d="M50.7302 97.1018V91.0387H50.6905L49.5573 91.8239C49.3486 91.973 49.2095 92.0227 48.9908 92.0227C48.5435 92.0227 48.2056 91.6848 48.2056 91.2176C48.2056 90.8796 48.3348 90.6212 48.6628 90.3926L50.3823 89.2197C50.8694 88.8917 51.257 88.842 51.7142 88.842C52.5491 88.842 53.0362 89.339 53.0362 90.1342V97.0919C53.0362 97.7876 52.579 98.2349 51.8832 98.2349C51.1874 98.2349 50.7302 97.7876 50.7302 97.0919V97.1018Z" fill="#13706D"/>
<path id="Vector_8" d="M55.4517 97.1117C55.4517 96.6744 55.6306 96.3663 56.0878 95.9786L58.692 93.623C59.7555 92.6489 60.0437 92.2314 60.0437 91.645C60.0437 90.989 59.5368 90.5218 58.8112 90.5218C58.2149 90.5218 57.7974 90.8101 57.4694 91.4164C57.1811 91.8637 56.9128 92.0426 56.4456 92.0426C55.8492 92.0426 55.4914 91.6947 55.4914 91.1281C55.4914 90.9492 55.5212 90.7902 55.5809 90.6212C55.9785 89.5776 57.1911 88.7725 58.851 88.7725C60.9283 88.7725 62.2901 89.8758 62.2901 91.486C62.2901 92.6489 61.6937 93.3248 60.2525 94.6269L58.4435 96.2768V96.3166H61.5943C62.1807 96.3166 62.5187 96.6645 62.5187 97.2012C62.5187 97.7379 62.1807 98.0958 61.5943 98.0958H56.545C55.7995 98.0958 55.4616 97.6783 55.4616 97.1018L55.4517 97.1117Z" fill="#13706D"/>
</g>
<g id="Group_4">
<path id="Vector_9" d="M135.892 97.1416V96.5453H132.791C131.956 96.5453 131.389 96.0185 131.389 95.2531C131.389 94.8058 131.528 94.3784 131.846 93.8119C132.453 92.7185 133.178 91.5755 134.013 90.3032C134.719 89.2198 135.246 88.8521 136.17 88.8521C137.333 88.8521 138.078 89.4882 138.078 90.4821V94.7561H138.436C139.053 94.7561 139.361 95.1338 139.361 95.6606C139.361 96.1874 139.043 96.5552 138.436 96.5552H138.078V97.1516C138.078 97.8871 137.621 98.2549 136.985 98.2549C136.349 98.2549 135.892 97.8871 135.892 97.1516V97.1416ZM135.951 90.5915H135.912C134.818 92.1818 134.063 93.3447 133.327 94.7661V94.8257H135.961V90.5815L135.951 90.5915Z" fill="#13706D"/>
<path id="Vector_10" d="M141.15 96.3366C140.772 95.6309 140.553 94.6867 140.553 93.5834C140.553 90.5916 142.064 88.7627 144.499 88.7627C146.189 88.7627 147.312 89.4485 147.7 90.2834C147.779 90.4524 147.809 90.6114 147.809 90.7804C147.809 91.2774 147.471 91.675 146.865 91.675C146.408 91.675 146.149 91.4861 145.831 91.1681C145.424 90.7307 145.046 90.5518 144.489 90.5518C143.297 90.5518 142.74 91.7446 142.75 93.4542V93.5536H142.79C143.138 92.6988 144.002 92.1024 145.235 92.1024C147.004 92.1024 148.177 93.3349 148.177 95.0445C148.177 96.9728 146.636 98.3345 144.519 98.3345C143.028 98.3345 141.845 97.6983 141.13 96.3366H141.15ZM145.97 95.1339C145.97 94.299 145.354 93.7126 144.529 93.7126C143.704 93.7126 143.048 94.2891 143.048 95.1041C143.048 95.9192 143.684 96.5454 144.509 96.5454C145.334 96.5454 145.96 95.9291 145.97 95.1339Z" fill="#13706D"/>
<path id="Vector_11" d="M149.698 93.5337C149.698 90.5419 151.209 88.7627 153.604 88.7627C155.999 88.7627 157.5 90.5319 157.5 93.5237C157.5 96.5155 156.009 98.3245 153.604 98.3245C151.199 98.3245 149.698 96.5056 149.698 93.5337ZM155.145 93.5337C155.145 91.5358 154.558 90.5717 153.604 90.5717C152.65 90.5717 152.053 91.5458 152.053 93.5337C152.053 95.5216 152.65 96.5354 153.604 96.5354C154.558 96.5354 155.145 95.5315 155.145 93.5436V93.5337Z" fill="#13706D"/>
</g>
<g id="Group_5">
<path id="Vector_12" d="M48.8218 105.461V102.022C48.8218 101.734 49.0007 101.575 49.2492 101.575C49.4977 101.575 49.6766 101.724 49.6766 102.022V103.96H49.6865L50.8196 102.827C50.929 102.708 51.0284 102.658 51.1576 102.658C51.3762 102.658 51.5353 102.817 51.5353 103.026C51.5353 103.155 51.4955 103.235 51.3762 103.344L50.5811 104.099L51.4558 105.213C51.5452 105.342 51.575 105.411 51.575 105.521C51.575 105.749 51.4061 105.908 51.1675 105.908C50.9886 105.908 50.8892 105.849 50.7501 105.64L49.9449 104.576L49.6766 104.825V105.461C49.6766 105.749 49.4977 105.908 49.2492 105.908C49.0007 105.908 48.8218 105.759 48.8218 105.461Z" fill="#13706D"/>
<path id="Vector_13" d="M52.1815 106.445C52.1318 106.366 52.1219 106.286 52.1219 106.207C52.1219 106.028 52.2511 105.898 52.4698 105.898C52.5791 105.898 52.6686 105.938 52.768 106.018C52.9966 106.236 53.2152 106.356 53.5035 106.356C53.9706 106.356 54.239 106.097 54.239 105.71V105.213H54.2191C54.07 105.551 53.7122 105.769 53.255 105.769C52.4797 105.769 51.9927 105.173 51.9927 104.219C51.9927 103.264 52.4698 102.658 53.2749 102.658C53.7222 102.658 54.0601 102.897 54.2291 103.245H54.249V103.076C54.249 102.787 54.4279 102.648 54.6764 102.648C54.9248 102.648 55.0938 102.787 55.0938 103.076V105.71C55.0938 106.525 54.5074 107.012 53.5035 107.002C52.8674 107.002 52.3903 106.753 52.1915 106.425L52.1815 106.445ZM54.239 104.248C54.239 103.692 53.9607 103.324 53.5432 103.324C53.1258 103.324 52.8574 103.682 52.8574 104.248C52.8574 104.815 53.1158 105.153 53.5432 105.153C53.9706 105.153 54.239 104.815 54.239 104.248Z" fill="#13706D"/>
<path id="Vector_14" d="M57.1908 104.09C57.1908 102.946 57.8468 102.281 58.8805 102.281C59.5465 102.281 60.0434 102.549 60.3019 103.056C60.3615 103.165 60.3913 103.274 60.3913 103.384C60.3913 103.612 60.2323 103.762 60.0037 103.762C59.8049 103.762 59.6856 103.682 59.5862 103.483C59.4272 103.155 59.1886 102.996 58.8805 102.996C58.3935 102.996 58.0853 103.414 58.0853 104.09C58.0853 104.765 58.3935 105.193 58.8805 105.193C59.2085 105.193 59.4371 105.034 59.5862 104.706C59.6757 104.517 59.785 104.437 59.9739 104.437C60.2223 104.437 60.3913 104.596 60.3913 104.835C60.3913 104.924 60.3714 105.004 60.3317 105.093C60.1229 105.59 59.5663 105.908 58.8904 105.908C57.817 105.908 57.1709 105.243 57.1709 104.099L57.1908 104.09Z" fill="#13706D"/>
<path id="Vector_15" d="M60.9976 104.099C60.9976 102.986 61.6635 102.29 62.727 102.29C63.7906 102.29 64.4565 102.986 64.4565 104.099C64.4565 105.213 63.7906 105.908 62.727 105.908C61.6635 105.908 60.9976 105.213 60.9976 104.099ZM63.552 104.099C63.552 103.433 63.224 103.006 62.727 103.006C62.2301 103.006 61.9021 103.423 61.9021 104.099C61.9021 104.775 62.2201 105.183 62.727 105.183C63.234 105.183 63.552 104.765 63.552 104.099Z" fill="#13706D"/>
<path id="Vector_16" d="M65.0532 105.461C65.0532 105.292 65.1228 105.173 65.3017 105.024L66.3056 104.119C66.7131 103.741 66.8324 103.582 66.8324 103.354C66.8324 103.105 66.6336 102.926 66.3553 102.926C66.1267 102.926 65.9677 103.036 65.8384 103.274C65.7291 103.443 65.6198 103.513 65.4409 103.513C65.2123 103.513 65.0731 103.384 65.0731 103.165C65.0731 103.095 65.0731 103.036 65.1129 102.966C65.262 102.559 65.7291 102.26 66.3652 102.26C67.1604 102.26 67.6872 102.688 67.6872 103.304C67.6872 103.751 67.4586 104.01 66.902 104.517L66.2062 105.153V105.173H67.4188C67.6474 105.173 67.7767 105.302 67.7767 105.511C67.7767 105.719 67.6474 105.849 67.4188 105.849H65.4806C65.1924 105.849 65.0632 105.69 65.0632 105.471L65.0532 105.461Z" fill="#13706D"/>
<path id="Vector_17" d="M68.2435 104.537C68.2435 103.682 68.7504 103.135 69.5555 103.135C70.3606 103.135 70.8576 103.652 70.8576 104.368C70.8576 104.586 70.7383 104.706 70.5097 104.706H69.0685V104.755C69.0685 105.073 69.2772 105.292 69.5854 105.292C69.8239 105.292 69.9829 105.213 70.1718 105.024C70.2612 104.944 70.3308 104.914 70.4402 104.914C70.6191 104.914 70.7582 105.024 70.7582 105.213C70.7582 105.272 70.7383 105.342 70.6986 105.411C70.5197 105.72 70.0923 105.908 69.5754 105.908C68.7306 105.908 68.2236 105.392 68.2236 104.537H68.2435ZM70.0525 104.219C70.0426 103.93 69.8438 103.752 69.5754 103.752C69.307 103.752 69.1083 103.95 69.0884 104.219H70.0525Z" fill="#13706D"/>
</g>
<g id="Group_6">
<path id="Vector_18" d="M130.733 105.441V102.042C130.733 101.754 130.892 101.585 131.171 101.585C131.449 101.585 131.608 101.754 131.608 102.042V103.493H131.638L133.218 101.764C133.338 101.634 133.447 101.575 133.596 101.575C133.825 101.575 134.013 101.754 134.013 101.982C134.013 102.102 133.974 102.201 133.854 102.32L132.691 103.533L133.954 105.063C134.083 105.223 134.143 105.352 134.143 105.471C134.143 105.71 133.964 105.898 133.715 105.898C133.536 105.898 133.417 105.829 133.278 105.66L132.026 104.119L131.608 104.557V105.441C131.608 105.729 131.449 105.898 131.171 105.898C130.892 105.898 130.733 105.729 130.733 105.441Z" fill="#13706D"/>
<path id="Vector_19" d="M134.838 105.461V103.095C134.838 102.807 135.007 102.658 135.246 102.658C135.484 102.658 135.653 102.807 135.653 103.095V103.294H135.673C135.803 102.916 136.14 102.668 136.568 102.668C137.015 102.668 137.333 102.897 137.443 103.304H137.462C137.602 102.916 137.979 102.668 138.436 102.668C139.053 102.668 139.46 103.085 139.46 103.712V105.461C139.46 105.749 139.281 105.908 139.033 105.908C138.784 105.908 138.615 105.749 138.615 105.461V103.92C138.615 103.562 138.436 103.364 138.108 103.364C137.78 103.364 137.572 103.602 137.572 103.95V105.461C137.572 105.749 137.413 105.908 137.164 105.908C136.916 105.908 136.757 105.749 136.757 105.461V103.9C136.757 103.562 136.568 103.364 136.25 103.364C135.932 103.364 135.713 103.612 135.713 103.96V105.461C135.713 105.749 135.534 105.908 135.286 105.908C135.037 105.908 134.858 105.749 134.858 105.461H134.838Z" fill="#13706D"/>
<path id="Vector_20" d="M141.538 104.298C141.538 103.294 142.124 102.658 143.048 102.658C143.973 102.658 144.529 103.264 144.529 104.109C144.529 104.348 144.4 104.477 144.162 104.477H142.382V104.517C142.382 104.984 142.661 105.282 143.088 105.282C143.396 105.282 143.605 105.173 143.834 104.904C143.923 104.815 144.003 104.785 144.112 104.785C144.291 104.785 144.44 104.904 144.44 105.093C144.44 105.163 144.42 105.232 144.38 105.302C144.172 105.69 143.694 105.918 143.088 105.918C142.114 105.918 141.538 105.312 141.538 104.308V104.298ZM143.704 103.96C143.685 103.553 143.426 103.284 143.048 103.284C142.671 103.284 142.402 103.562 142.373 103.96H143.694H143.704Z" fill="#13706D"/>
<path id="Vector_21" d="M145.195 105.461V103.085C145.195 102.817 145.355 102.658 145.603 102.658C145.851 102.658 146.03 102.817 146.03 103.085V103.264H146.05C146.219 102.877 146.527 102.668 147.014 102.668C147.71 102.668 148.098 103.105 148.098 103.841V105.471C148.098 105.759 147.919 105.918 147.67 105.918C147.422 105.918 147.243 105.769 147.243 105.471V104.02C147.243 103.612 147.054 103.384 146.667 103.384C146.279 103.384 146.04 103.662 146.04 104.069V105.481C146.04 105.769 145.861 105.928 145.613 105.928C145.364 105.928 145.186 105.779 145.186 105.481L145.195 105.461Z" fill="#13706D"/>
<path id="Vector_22" d="M150.98 105.471L150.165 103.294C150.136 103.215 150.116 103.125 150.116 103.046C150.116 102.817 150.295 102.668 150.543 102.668C150.752 102.668 150.891 102.777 150.951 103.006L151.577 105.103H151.597L152.233 102.996C152.292 102.777 152.432 102.668 152.63 102.668C152.869 102.668 153.048 102.827 153.048 103.046C153.048 103.125 153.028 103.215 152.998 103.284L152.183 105.481C152.074 105.779 151.895 105.918 151.587 105.918C151.259 105.918 151.09 105.789 150.971 105.481L150.98 105.471Z" fill="#13706D"/>
<path id="Vector_23" d="M153.475 104.278C153.475 103.264 154.091 102.658 155.026 102.658C155.96 102.658 156.576 103.274 156.576 104.278C156.576 105.282 155.97 105.908 155.026 105.908C154.081 105.908 153.475 105.302 153.475 104.278ZM155.702 104.278C155.702 103.662 155.433 103.304 155.016 103.304C154.598 103.304 154.33 103.662 154.33 104.278C154.33 104.894 154.598 105.252 155.016 105.252C155.433 105.252 155.702 104.904 155.702 104.278Z" fill="#13706D"/>
<path id="Vector_24" d="M157.232 101.893C157.232 101.644 157.431 101.455 157.69 101.455C157.948 101.455 158.147 101.644 158.147 101.893C158.147 102.141 157.948 102.33 157.69 102.33C157.431 102.33 157.232 102.131 157.232 101.893ZM157.262 105.461V103.105C157.262 102.827 157.421 102.658 157.69 102.658C157.958 102.658 158.117 102.827 158.117 103.105V105.461C158.117 105.739 157.958 105.908 157.69 105.908C157.421 105.908 157.262 105.739 157.262 105.461Z" fill="#13706D"/>
<path id="Vector_25" d="M159.141 103.364H158.982C158.783 103.364 158.654 103.244 158.654 103.046C158.654 102.847 158.783 102.728 158.982 102.728H159.141V102.38C159.141 102.101 159.3 101.932 159.568 101.932C159.837 101.932 159.996 102.101 159.996 102.38V102.728H160.294C160.493 102.728 160.622 102.857 160.622 103.046C160.622 103.234 160.493 103.364 160.294 103.364H159.996V104.855C159.996 105.073 160.075 105.173 160.254 105.183H160.314C160.522 105.212 160.642 105.302 160.642 105.501C160.642 105.749 160.393 105.878 160.035 105.878H160.006C159.439 105.878 159.151 105.6 159.151 105.043V103.364H159.141Z" fill="#13706D"/>
<path id="Vector_26" d="M161.258 104.735V103.105C161.258 102.817 161.437 102.658 161.685 102.658C161.934 102.658 162.113 102.817 162.113 103.105V104.556C162.113 104.974 162.321 105.193 162.699 105.193C163.077 105.193 163.315 104.924 163.315 104.507V103.105C163.315 102.817 163.494 102.658 163.743 102.658C163.991 102.658 164.17 102.817 164.17 103.105V105.471C164.17 105.749 164.001 105.898 163.763 105.898C163.524 105.898 163.355 105.749 163.355 105.471V105.282H163.335C163.176 105.67 162.868 105.898 162.401 105.898C161.725 105.898 161.278 105.461 161.278 104.735H161.258Z" fill="#13706D"/>
<path id="Vector_27" d="M164.945 105.461V103.085C164.945 102.817 165.114 102.658 165.353 102.658C165.592 102.658 165.751 102.817 165.751 103.085V103.294H165.77C165.85 102.906 166.108 102.678 166.417 102.678C166.526 102.678 166.625 102.708 166.685 102.757C166.764 102.817 166.804 102.926 166.804 103.075C166.804 103.205 166.764 103.314 166.685 103.384C166.605 103.453 166.476 103.493 166.317 103.493C165.93 103.493 165.79 103.712 165.79 104.089V105.471C165.79 105.749 165.621 105.918 165.363 105.918C165.105 105.918 164.936 105.759 164.936 105.471L164.945 105.461Z" fill="#13706D"/>
<path id="Vector_28" d="M167.132 104.298C167.132 103.294 167.718 102.658 168.643 102.658C169.567 102.658 170.124 103.264 170.124 104.109C170.124 104.348 169.994 104.477 169.756 104.477H167.977V104.517C167.977 104.984 168.255 105.282 168.682 105.282C168.991 105.282 169.199 105.173 169.428 104.904C169.517 104.815 169.597 104.785 169.706 104.785C169.885 104.785 170.034 104.904 170.034 105.093C170.034 105.163 170.014 105.232 169.975 105.302C169.766 105.69 169.289 105.918 168.682 105.918C167.708 105.918 167.132 105.312 167.132 104.308V104.298ZM169.299 103.96C169.279 103.553 169.02 103.284 168.643 103.284C168.265 103.284 167.997 103.562 167.967 103.96H169.289H169.299Z" fill="#13706D"/>
</g>
<g id="Group_7">
<g id="Group_8">
<path id="Vector_29" d="M101.859 97.8375V100.134C101.859 101.306 102.813 102.261 103.986 102.261H122.414C123.239 102.261 123.905 101.595 123.905 100.77V98.7519C123.905 97.5294 122.911 96.5255 121.679 96.5255H118.011L116.5 92.5497C115.983 91.188 114.671 90.2834 113.22 90.2834H109.055C106.888 90.2834 104.891 91.4762 103.867 93.3846L102.177 96.5255C101.958 96.9231 101.849 97.3703 101.849 97.8276L101.859 97.8375Z" fill="#AFE0DD"/>
<path id="Vector_30" d="M122.414 103.245H103.986C102.267 103.245 100.865 101.843 100.865 100.124V97.8275C100.865 97.2113 101.024 96.595 101.313 96.0484L103.002 92.9075C104.205 90.6711 106.531 89.2795 109.065 89.2795H113.23C115.089 89.2795 116.788 90.4524 117.444 92.1918L118.707 95.5216H121.689C123.458 95.5216 124.909 96.9628 124.909 98.742V100.76C124.909 102.131 123.796 103.245 122.424 103.245H122.414ZM109.055 91.2774C107.246 91.2774 105.596 92.2614 104.742 93.8517L103.052 96.9926C102.913 97.2511 102.843 97.5393 102.843 97.8275V100.124C102.843 100.75 103.35 101.257 103.976 101.257H122.404C122.683 101.257 122.901 101.038 122.901 100.76V98.742C122.901 98.0661 122.355 97.5095 121.669 97.5095H118.001C117.584 97.5095 117.216 97.2511 117.077 96.8634L115.566 92.8876C115.198 91.9135 114.244 91.2575 113.21 91.2575H109.045L109.055 91.2774Z" fill="#13706D"/>
</g>
<g id="Group_9">
<path id="Vector_31" d="M106.71 105.918C108.154 105.918 109.324 104.748 109.324 103.304C109.324 101.861 108.154 100.69 106.71 100.69C105.266 100.69 104.096 101.861 104.096 103.304C104.096 104.748 105.266 105.918 106.71 105.918Z" fill="white"/>
<path id="Vector_32" d="M106.71 106.912C104.722 106.912 103.102 105.292 103.102 103.304C103.102 101.316 104.722 99.6963 106.71 99.6963C108.698 99.6963 110.318 101.316 110.318 103.304C110.318 105.292 108.698 106.912 106.71 106.912ZM106.71 101.684C105.815 101.684 105.089 102.41 105.089 103.304C105.089 104.199 105.815 104.924 106.71 104.924C107.604 104.924 108.33 104.199 108.33 103.304C108.33 102.41 107.604 101.684 106.71 101.684Z" fill="#13706D"/>
</g>
<g id="Group_10">
<path id="Vector_33" d="M117.534 105.918C118.978 105.918 120.148 104.748 120.148 103.304C120.148 101.861 118.978 100.69 117.534 100.69C116.09 100.69 114.92 101.861 114.92 103.304C114.92 104.748 116.09 105.918 117.534 105.918Z" fill="white"/>
<path id="Vector_34" d="M117.534 106.912C115.546 106.912 113.926 105.292 113.926 103.304C113.926 101.316 115.546 99.6963 117.534 99.6963C119.522 99.6963 121.142 101.316 121.142 103.304C121.142 105.292 119.522 106.912 117.534 106.912ZM117.534 101.684C116.639 101.684 115.914 102.41 115.914 103.304C115.914 104.199 116.639 104.924 117.534 104.924C118.428 104.924 119.154 104.199 119.154 103.304C119.154 102.41 118.428 101.684 117.534 101.684Z" fill="#13706D"/>
</g>
<g id="Group_11">
<path id="Vector_35" d="M118.021 96.5255H102.188L103.917 93.3051C104.921 91.4464 106.859 90.2834 108.976 90.2834H113.489C114.801 90.2834 115.964 91.0886 116.431 92.3111L118.031 96.5255H118.021Z" fill="white"/>
<path id="Vector_36" d="M118.021 97.5194H102.187C101.839 97.5194 101.511 97.3405 101.333 97.0324C101.154 96.7342 101.144 96.3565 101.313 96.0484L103.042 92.828C104.215 90.6413 106.491 89.2795 108.976 89.2795H113.489C115.198 89.2795 116.749 90.353 117.355 91.9533L118.955 96.1676C119.075 96.4758 119.035 96.8137 118.846 97.0821C118.657 97.3505 118.359 97.5095 118.031 97.5095L118.021 97.5194ZM103.847 95.5315H116.58L115.496 92.6689C115.178 91.834 114.373 91.2774 113.479 91.2774H108.966C107.217 91.2774 105.616 92.2316 104.782 93.7722L103.837 95.5216L103.847 95.5315Z" fill="#13706D"/>
</g>
<path id="Vector_37" d="M111.103 97.5195C110.556 97.5195 110.109 97.0722 110.109 96.5255V90.2835C110.109 89.7368 110.556 89.2896 111.103 89.2896C111.65 89.2896 112.097 89.7368 112.097 90.2835V96.5255C112.097 97.0722 111.65 97.5195 111.103 97.5195Z" fill="#13706D"/>
</g>
<g id="Group_12">
<path id="Vector_38" d="M83.9482 104.487C88.4331 104.487 92.0688 100.851 92.0688 96.3662C92.0688 91.8813 88.4331 88.2456 83.9482 88.2456C79.4634 88.2456 75.8276 91.8813 75.8276 96.3662C75.8276 100.851 79.4634 104.487 83.9482 104.487Z" fill="white"/>
<path id="Vector_39" d="M83.9481 105.481C78.9186 105.481 74.8335 101.396 74.8335 96.3663C74.8335 91.3369 78.9186 87.2517 83.9481 87.2517C88.9775 87.2517 93.0626 91.3369 93.0626 96.3663C93.0626 101.396 88.9775 105.481 83.9481 105.481ZM83.9481 89.2396C80.0219 89.2396 76.8214 92.4401 76.8214 96.3663C76.8214 100.292 80.0219 103.493 83.9481 103.493C87.8742 103.493 91.0747 100.292 91.0747 96.3663C91.0747 92.4401 87.8742 89.2396 83.9481 89.2396Z" fill="#13706D"/>
</g>
<path id="Vector_40" d="M85.9954 95.5612H81.9202C81.3735 95.5612 80.9263 95.1139 80.9263 94.5672C80.9263 94.0205 81.3735 93.5732 81.9202 93.5732H85.9954C86.5421 93.5732 86.9894 94.0205 86.9894 94.5672C86.9894 95.1139 86.5421 95.5612 85.9954 95.5612Z" fill="#13706D"/>
<path id="Vector_41" d="M85.9954 99.0897H81.9202C81.3735 99.0897 80.9263 98.6424 80.9263 98.0958C80.9263 97.5491 81.3735 97.1018 81.9202 97.1018H85.9954C86.5421 97.1018 86.9894 97.5491 86.9894 98.0958C86.9894 98.6424 86.5421 99.0897 85.9954 99.0897Z" fill="#13706D"/>
<g id="Group_13">
<path id="Vector_42" d="M84.1667 43.5675C85.6079 43.5675 86.7708 42.4045 86.7708 40.9633C86.7708 39.5221 85.6079 38.3591 84.1667 38.3591H38.3553C36.4569 40.029 34.618 41.7684 32.8389 43.5774H84.1667V43.5675Z" fill="#C4EAE7"/>
<path id="Vector_43" d="M152.541 40.9632C152.541 42.4045 153.704 43.5674 155.145 43.5674H185.818C184.039 41.7584 182.2 40.019 180.302 38.3491H155.135C153.694 38.3491 152.531 39.512 152.531 40.9533L152.541 40.9632Z" fill="#C4EAE7"/>
<path id="Vector_44" d="M196.334 56.0615H117.215C115.774 56.0615 114.611 57.2244 114.611 58.6656C114.611 60.1068 115.774 61.2698 117.215 61.2698H199.823C198.71 59.4906 197.547 57.7512 196.334 56.0515V56.0615Z" fill="#C4EAE7"/>
<path id="Vector_45" d="M99.1055 40.9633C99.1055 42.4045 100.268 43.5675 101.71 43.5675H137.572C139.013 43.5675 140.176 42.4045 140.176 40.9633C140.176 39.5221 139.013 38.3591 137.572 38.3591H101.71C100.268 38.3591 99.1055 39.5221 99.1055 40.9633Z" fill="#C4EAE7"/>
<path id="Vector_46" d="M99.2547 61.2796C100.696 61.2796 101.859 60.1167 101.859 58.6755C101.859 57.2342 100.696 56.0713 99.2547 56.0713H22.3325C21.1199 57.771 19.957 59.5104 18.8438 61.2896H99.2547V61.2796Z" fill="#C4EAE7"/>
</g>
<g id="Group_14">
<path id="Vector_47" d="M18.9036 153.777H6.2207C7.25442 155.666 8.51674 157.415 9.96791 158.995H18.9036C20.3448 158.995 21.5077 157.832 21.5077 156.391C21.5077 154.95 20.3448 153.787 18.9036 153.787V153.777Z" fill="#C4EAE7"/>
<path id="Vector_48" d="M70.8576 141.651C70.8576 140.21 69.6947 139.047 68.2535 139.047H2.98047V141.084C2.98047 142.158 3.05005 143.221 3.17926 144.265H68.2535C69.6947 144.265 70.8576 143.102 70.8576 141.661V141.651Z" fill="#C4EAE7"/>
<path id="Vector_49" d="M148.595 139.037H86.4626C85.0243 139.037 83.8584 140.203 83.8584 141.641V141.651C83.8584 143.089 85.0243 144.255 86.4626 144.255H148.595C150.033 144.255 151.199 143.089 151.199 141.651V141.641C151.199 140.203 150.033 139.037 148.595 139.037Z" fill="#C4EAE7"/>
<path id="Vector_50" d="M212.447 153.777H126.44C124.998 153.777 123.835 154.94 123.835 156.381C123.835 157.822 124.998 158.985 126.44 158.985H208.699C210.15 157.415 211.413 155.666 212.447 153.767V153.777Z" fill="#C4EAE7"/>
<path id="Vector_51" d="M166.903 139.037C165.462 139.037 164.299 140.2 164.299 141.641C164.299 143.082 165.462 144.245 166.903 144.245H215.488C215.617 143.201 215.687 142.138 215.687 141.064V139.027H166.903V139.037Z" fill="#C4EAE7"/>
<path id="Vector_52" d="M39.7965 158.985H101.929C103.37 158.985 104.533 157.823 104.533 156.381C104.533 154.94 103.37 153.777 101.929 153.777H39.7965C38.3553 153.777 37.1924 154.94 37.1924 156.381C37.1924 157.823 38.3553 158.985 39.7965 158.985Z" fill="#C4EAE7"/>
</g>
</g>
</svg>
