<svg width="219" height="180" viewBox="0 0 219 180" fill="none" xmlns="http://www.w3.org/2000/svg">
<path d="M106.988 12.8393H111.679C169.08 12.8393 215.687 59.4458 215.687 116.847V141.437C215.687 156.048 203.829 167.906 189.218 167.906H29.4495C14.8383 167.906 2.98047 156.048 2.98047 141.437V116.847C2.98047 59.4458 49.587 12.8393 106.988 12.8393Z" fill="#E0F4F3"/>
<path d="M215.687 121.459V116.847C215.687 91.133 206.344 67.5962 190.878 49.4466L153.972 121.469H215.687V121.459Z" fill="#C4EAE7"/>
<path d="M148.436 132.253L130.167 167.896H189.218C203.839 167.896 215.687 156.048 215.687 141.427V132.253H148.436Z" fill="#C4EAE7"/>
<path d="M103.042 39.1095H59.0298C57.1194 39.1095 55.5708 40.6581 55.5708 42.5685V79.3348C55.5708 81.2452 57.1194 82.7938 59.0298 82.7938H103.042C104.952 82.7938 106.501 81.2452 106.501 79.3348V42.5685C106.501 40.6581 104.952 39.1095 103.042 39.1095Z" fill="#AFE0DD"/>
<path d="M103.042 83.7877H59.0296C56.5745 83.7877 54.5767 81.7899 54.5767 79.3348V42.5585C54.5767 40.1034 56.5745 38.1056 59.0296 38.1056H103.042C105.497 38.1056 107.495 40.1034 107.495 42.5585V79.3348C107.495 81.7899 105.497 83.7877 103.042 83.7877ZM59.0296 40.1034C57.6679 40.1034 56.5646 41.2067 56.5646 42.5684V79.3448C56.5646 80.7065 57.6679 81.8098 59.0296 81.8098H103.042C104.404 81.8098 105.507 80.7065 105.507 79.3448V42.5684C105.507 41.2067 104.404 40.1034 103.042 40.1034H59.0296Z" fill="#13706D"/>
<path d="M215.687 122.373H115.109C111.938 122.373 108.767 121.618 105.944 120.176L98.44 116.36C97.5256 115.892 97.0783 114.918 97.3168 113.924C97.5554 112.93 98.4003 112.265 99.424 112.265H215.697C216.244 112.265 216.691 112.712 216.691 113.258C216.691 113.805 216.244 114.252 215.697 114.252H99.424C99.424 114.252 99.2849 114.252 99.2451 114.392C99.2153 114.531 99.2948 114.571 99.3346 114.59L106.839 118.407C109.393 119.699 112.246 120.385 115.109 120.385H215.687C216.234 120.385 216.681 120.832 216.681 121.379C216.681 121.926 216.234 122.373 215.687 122.373Z" fill="#13706D"/>
<path d="M104.433 167.896C104.384 167.896 104.334 167.896 104.274 167.886C103.728 167.807 103.36 167.29 103.449 166.753L110.566 121.23C110.656 120.683 111.163 120.316 111.699 120.405C112.246 120.485 112.614 121.001 112.524 121.538L105.408 167.061C105.328 167.548 104.911 167.906 104.424 167.906L104.433 167.896Z" fill="#13706D"/>
<path d="M110.099 167.896C110.01 167.896 109.91 167.886 109.811 167.856C109.284 167.697 108.986 167.151 109.145 166.624L116.172 142.968C117.921 136.09 124.124 131.269 131.26 131.269H215.677C216.224 131.269 216.671 131.716 216.671 132.263C216.671 132.81 216.224 133.257 215.677 133.257H131.26C125.038 133.257 119.621 137.471 118.09 143.495L111.053 167.19C110.924 167.618 110.526 167.906 110.099 167.906V167.896Z" fill="#13706D"/>
<path d="M74.754 142.809C74.754 142.809 75.6884 106.639 45.2833 97.4446C37.6696 95.1387 29.9664 99.3332 32.0637 113.288L37.4012 147.818H90.2498C90.2498 147.818 83.3816 140.026 53.1156 143.157" fill="#AFE0DD"/>
<path d="M90.2496 148.802H37.4011C36.914 148.802 36.4966 148.444 36.4171 147.957L31.0795 113.427C29.7476 104.591 32.312 100.277 34.6975 98.2199C37.4309 95.8543 41.3968 95.2182 45.5714 96.4805C73.6108 104.959 75.6186 136.139 75.7478 141.904C87.4069 143.256 90.8062 146.914 91.005 147.142C91.2635 147.431 91.3231 147.848 91.1641 148.206C91.005 148.564 90.6472 148.792 90.2596 148.792L90.2496 148.802ZM38.2559 146.814H86.91C82.8248 144.846 73.2133 142.073 53.2248 144.131C52.6682 144.19 52.1911 143.793 52.1315 143.246C52.0718 142.699 52.4694 142.212 53.0161 142.153C61.6834 141.258 68.4721 141.248 73.75 141.705C73.581 135.722 71.4043 106.38 44.9949 98.3889C41.4862 97.3254 38.2062 97.8124 35.9996 99.7208C33.1271 102.206 32.1033 106.847 33.0476 113.129L38.2559 146.814Z" fill="#13706D"/>
<path d="M90.3195 147.808H37.4014V154.428H90.3195V147.808Z" fill="#AFE0DD"/>
<path d="M90.3193 155.422H37.4012C36.8545 155.422 36.4072 154.975 36.4072 154.428V147.808C36.4072 147.262 36.8545 146.814 37.4012 146.814H90.3193C90.866 146.814 91.3133 147.262 91.3133 147.808V154.428C91.3133 154.975 90.866 155.422 90.3193 155.422ZM38.3951 153.434H89.3254V148.802H38.3951V153.434Z" fill="#13706D"/>
<path d="M35.9898 167.658C35.9898 167.658 35.9102 167.658 35.8705 167.658C35.3238 167.598 34.9362 167.101 34.9958 166.554L36.4072 154.309C36.4669 153.762 36.9638 153.375 37.5105 153.434C38.0572 153.494 38.4448 153.991 38.3852 154.537L36.9738 166.783C36.9141 167.29 36.4867 167.668 35.9898 167.668V167.658Z" fill="#13706D"/>
<path d="M60.3413 167.658C60.3413 167.658 60.2618 167.658 60.222 167.658C59.6754 167.598 59.2877 167.101 59.3474 166.554L60.7588 154.309C60.8184 153.762 61.3154 153.375 61.8621 153.434C62.4087 153.494 62.7964 153.991 62.7367 154.537L61.3253 166.783C61.2657 167.29 60.8383 167.668 60.3413 167.668V167.658Z" fill="#13706D"/>
<path d="M40.4424 165.908C40.3728 165.908 40.3032 165.908 40.2336 165.888C39.6969 165.779 39.3589 165.242 39.4683 164.706L41.6947 154.219C41.8041 153.683 42.3309 153.335 42.8775 153.454C43.4143 153.563 43.7522 154.1 43.6429 154.637L41.4164 165.123C41.317 165.59 40.8996 165.908 40.4424 165.908Z" fill="#13706D"/>
<path d="M64.9834 165.908C64.9138 165.908 64.8442 165.908 64.7746 165.888C64.2379 165.779 63.9 165.242 64.0093 164.706L66.2357 154.219C66.355 153.683 66.8719 153.335 67.4186 153.454C67.9553 153.563 68.2932 154.1 68.1839 154.637L65.9574 165.123C65.858 165.59 65.4406 165.908 64.9834 165.908Z" fill="#13706D"/>
<path d="M87.3472 167.658C86.89 167.658 86.4725 167.34 86.3731 166.872L83.7193 154.627C83.6 154.09 83.9479 153.563 84.4846 153.444C85.0213 153.325 85.5481 153.673 85.6674 154.209L88.3213 166.455C88.4405 166.992 88.0926 167.518 87.5559 167.638C87.4863 167.658 87.4168 167.658 87.3472 167.658Z" fill="#13706D"/>
<path d="M91.8001 167.896C91.3031 167.896 90.8757 167.528 90.8161 167.021L89.3351 154.547C89.2655 154.001 89.6631 153.504 90.2097 153.444C90.7564 153.374 91.2534 153.772 91.313 154.319L92.794 166.793C92.8636 167.34 92.466 167.837 91.9193 167.896C91.8796 167.896 91.8398 167.896 91.8001 167.896Z" fill="#13706D"/>
<path d="M101.81 43.4232H60.2622V78.49H101.81V43.4232Z" fill="#E0F4F3"/>
<path d="M101.809 79.4839H60.262C59.7153 79.4839 59.2681 79.0366 59.2681 78.49V43.4232C59.2681 42.8766 59.7153 42.4293 60.262 42.4293H101.809C102.356 42.4293 102.803 42.8766 102.803 43.4232V78.49C102.803 79.0366 102.356 79.4839 101.809 79.4839ZM61.256 77.496H100.815V44.4172H61.256V77.496Z" fill="#13706D"/>
<path d="M143.377 112.94H151.805C154.161 110.704 155.751 106.669 155.751 102.047C155.751 95.0095 152.104 89.3042 147.591 89.3042C143.078 89.3042 139.431 95.0095 139.431 102.047C139.431 106.669 141.011 110.704 143.377 112.94Z" fill="#AFE0DD"/>
<path d="M151.805 113.934H143.376C143.118 113.934 142.879 113.835 142.691 113.666C140.027 111.151 138.437 106.808 138.437 102.057C138.437 94.4827 142.542 88.3202 147.591 88.3202C152.64 88.3202 156.745 94.4827 156.745 102.057C156.745 106.808 155.155 111.151 152.491 113.666C152.302 113.845 152.064 113.934 151.805 113.934ZM143.784 111.946H151.398C153.475 109.78 154.757 106.032 154.757 102.047C154.757 95.5661 151.547 90.2982 147.591 90.2982C143.635 90.2982 140.424 95.5661 140.424 102.047C140.424 106.032 141.707 109.77 143.784 111.946Z" fill="#13706D"/>
<path d="M153.843 113.249H169.498C171.197 110.316 172.241 106.45 172.241 102.186C172.241 97.9218 171.118 93.7571 169.309 90.7951C168.603 89.6521 168.245 88.3003 168.454 86.9784C168.524 86.5609 168.553 86.1236 168.553 85.6862C168.553 81.5215 165.472 78.152 161.665 78.152C157.858 78.152 154.777 81.5215 154.777 85.6862C154.777 86.1236 154.817 86.5609 154.877 86.9784C155.095 88.3103 154.728 89.6521 154.032 90.7951C152.213 93.7571 151.1 97.7628 151.1 102.186C151.1 106.609 152.143 110.316 153.843 113.249Z" fill="#E0F4F3"/>
<path d="M169.488 114.243H153.833C153.475 114.243 153.147 114.054 152.968 113.746C151.11 110.545 150.096 106.44 150.096 102.186C150.096 97.9317 151.189 93.5086 153.177 90.2783C153.803 89.2645 154.052 88.1413 153.893 87.1374C153.813 86.6603 153.773 86.1733 153.773 85.6862C153.773 80.9848 157.312 77.1581 161.655 77.1581C165.999 77.1581 169.537 80.9848 169.537 85.6862C169.537 86.1733 169.498 86.6603 169.418 87.1374C169.259 88.1413 169.508 89.2645 170.134 90.2783C172.122 93.5186 173.215 97.7429 173.215 102.186C173.215 106.629 172.191 110.545 170.343 113.746C170.164 114.054 169.836 114.243 169.478 114.243H169.488ZM154.419 112.255H168.901C170.412 109.432 171.237 105.883 171.237 102.186C171.237 98.1007 170.243 94.2442 168.444 91.312C167.569 89.8906 167.222 88.2904 167.46 86.8094C167.52 86.4317 167.55 86.054 167.55 85.6763C167.55 82.0682 164.906 79.136 161.655 79.136C158.405 79.136 155.761 82.0682 155.761 85.6763C155.761 86.054 155.791 86.4416 155.851 86.8094C156.089 88.2904 155.741 89.8807 154.867 91.312C153.068 94.2442 152.074 98.1007 152.074 102.186C152.074 105.883 152.899 109.432 154.409 112.255H154.419Z" fill="#13706D"/>
<path d="M215.687 113.249H99.4139C98.1814 113.249 97.7838 114.908 98.8771 115.465L106.382 119.282C109.085 120.653 112.067 121.369 115.098 121.369H215.677" fill="white"/>
<path d="M215.687 122.373H115.109C111.938 122.373 108.767 121.618 105.944 120.176L98.44 116.36C97.5256 115.892 97.0783 114.918 97.3168 113.924C97.5554 112.93 98.4003 112.265 99.424 112.265H215.697C216.244 112.265 216.691 112.712 216.691 113.258C216.691 113.805 216.244 114.252 215.697 114.252H99.424C99.424 114.252 99.2849 114.252 99.2451 114.392C99.2153 114.531 99.2948 114.571 99.3346 114.59L106.839 118.407C109.393 119.699 112.246 120.385 115.109 120.385H215.687C216.234 120.385 216.681 120.832 216.681 121.379C216.681 121.926 216.234 122.373 215.687 122.373Z" fill="#13706D"/>
<path d="M145.603 90.3081C145.165 90.3081 144.758 90.0099 144.639 89.5725L141.319 77.0288C141.18 76.502 141.498 75.9554 142.025 75.8162C142.551 75.6771 143.098 75.9951 143.237 76.5219L146.557 89.0656C146.696 89.5924 146.378 90.1391 145.851 90.2782C145.762 90.2981 145.682 90.3081 145.593 90.3081H145.603Z" fill="#13706D"/>
<path d="M149.151 90.3081C149.082 90.3081 149.012 90.3081 148.933 90.2882C148.396 90.1689 148.058 89.6421 148.177 89.1054L152.988 67.4571C153.107 66.9203 153.644 66.5824 154.171 66.7017C154.708 66.821 155.045 67.3477 154.926 67.8845L150.115 89.5328C150.016 90 149.599 90.3081 149.141 90.3081H149.151Z" fill="#13706D"/>
<path d="M142.283 71.3732C142.283 71.3732 142.363 71.3931 143.943 71.9199C145.524 72.4467 145.603 72.2976 143.943 74.534C142.283 76.7704 143.436 79.9212 135.465 83.0423C127.493 86.1633 125.535 84.076 121.877 85.6365C121.877 85.6365 120.834 84.3344 121.877 80.2791C122.921 76.2337 122.533 69.4151 128.408 67.6658C134.282 65.9164 136.737 63.9583 139.431 65.2604C142.124 66.5625 136.677 68.7889 137.443 70.4886C138.208 72.1883 140.623 70.8266 142.283 71.3832V71.3732Z" fill="#AFE0DD"/>
<path d="M121.877 86.6304C121.579 86.6304 121.291 86.5012 121.102 86.2527C120.873 85.9744 119.8 84.3443 120.913 80.0306C121.122 79.2255 121.271 78.2812 121.43 77.2773C122.076 73.2618 122.881 68.2721 128.119 66.7116C129.898 66.1848 131.35 65.6381 132.622 65.1511C135.524 64.0577 137.612 63.2725 139.858 64.3559C140.613 64.7237 141.051 65.2306 141.15 65.8667C141.329 66.98 140.405 67.8845 139.51 68.7591C139.122 69.1468 138.387 69.8525 138.357 70.1407C138.486 70.3892 138.804 70.4389 140.047 70.3097C140.842 70.2302 141.746 70.1407 142.581 70.419C142.641 70.4389 142.929 70.5284 144.241 70.9657L144.49 71.0452C145.215 71.2838 145.851 71.4826 146.07 72.1883C146.319 72.9636 145.901 73.5202 144.788 75.0211L144.718 75.1105C144.37 75.5777 144.162 76.1243 143.923 76.7605C143.128 78.8577 142.134 81.4718 135.803 83.9468C130.972 85.8353 128.268 85.885 126.102 85.9148C124.64 85.9347 123.587 85.9546 122.245 86.531C122.116 86.5807 121.987 86.6106 121.857 86.6106L121.877 86.6304ZM137.592 65.827C136.548 65.827 135.296 66.2743 133.328 67.0197C132.016 67.5167 130.535 68.0733 128.686 68.62C124.64 69.8227 124.004 73.7786 123.388 77.5954C123.219 78.639 123.06 79.633 122.831 80.5276C122.325 82.4757 122.354 83.6883 122.464 84.3642C123.726 83.9865 124.829 83.9666 126.082 83.9468C128.09 83.9169 130.594 83.8672 135.087 82.1179C140.593 79.961 141.379 77.8936 142.074 76.0746C142.343 75.3689 142.621 74.6334 143.128 73.9476L143.198 73.8581C143.446 73.5301 143.685 73.2121 143.864 72.9536L143.615 72.8741C142.164 72.397 141.985 72.3374 141.965 72.3274C141.518 72.1783 140.872 72.2479 140.246 72.3076C138.993 72.4268 137.294 72.5958 136.538 70.9061C135.922 69.5245 137.144 68.3218 138.128 67.3676C138.456 67.0495 138.973 66.5426 139.142 66.2544C139.103 66.2345 139.063 66.2047 139.003 66.1749C138.546 65.9562 138.089 65.8469 137.592 65.8469V65.827Z" fill="#13706D"/>
<path d="M162.5 68.6995C162.5 68.6995 167.202 73.55 170.73 74.2855C174.259 75.0211 175.879 73.9973 181.018 75.687C181.018 75.687 177.191 67.6757 173.811 66.7911C170.432 65.9065 162.49 68.6995 162.49 68.6995H162.5Z" fill="#AFE0DD"/>
<path d="M181.017 76.681C180.918 76.681 180.809 76.6611 180.709 76.6313C177.737 75.6572 175.998 75.6274 174.328 75.6075C173.185 75.5876 172.012 75.5777 170.521 75.2596C166.734 74.4744 161.983 69.5941 161.775 69.3953C161.536 69.1567 161.447 68.8089 161.516 68.4709C161.596 68.1429 161.834 67.8745 162.152 67.7652C162.997 67.467 170.482 64.9026 174.05 65.827C177.767 66.8011 181.485 74.3949 181.902 75.2596C182.071 75.6174 182.011 76.0448 181.753 76.343C181.564 76.5617 181.286 76.681 181.008 76.681H181.017ZM164.379 69.1269C166.098 70.6874 168.871 72.8841 170.929 73.3115C172.231 73.5798 173.265 73.5997 174.358 73.6097C175.65 73.6295 177.081 73.6494 179.069 74.1066C177.509 71.3534 175.253 68.1926 173.563 67.7453C171.505 67.2086 167.102 68.3019 164.379 69.1269Z" fill="#13706D"/>
<path d="M153.356 63.1731C153.356 63.1731 151.308 63.5608 151.1 65.9065C150.891 68.2522 158.972 69.2859 162.5 68.6995C166.029 68.1131 169.995 67.6658 174.855 69.8724C179.716 72.0789 181.028 75.6771 181.028 75.6771C181.028 75.6771 179.994 67.7254 175.293 64.8231C170.591 61.9207 168.385 59.4259 163.971 60.1614C159.558 60.897 155.622 60.4199 153.366 63.1632L153.356 63.1731Z" fill="#AFE0DD"/>
<path d="M181.018 76.6809C180.61 76.6809 180.232 76.4324 180.083 76.0249C180.034 75.8957 178.801 72.7648 174.428 70.7768C169.875 68.7094 166.118 69.0971 162.649 69.6736C159.797 70.1507 153.018 69.6338 150.871 67.6359C150.155 66.97 150.046 66.2742 150.096 65.8071C150.295 63.6403 151.786 62.6165 152.799 62.2785C154.738 60.1515 157.58 59.8732 160.582 59.575C161.616 59.4756 162.689 59.3662 163.792 59.1774C167.639 58.5313 170.054 60.1614 173.106 62.2189C173.941 62.7855 174.805 63.3619 175.799 63.9782C180.849 67.0893 181.952 75.1999 182.002 75.5478C182.061 76.0448 181.743 76.5219 181.256 76.6412C181.177 76.6611 181.097 76.671 181.018 76.671V76.6809ZM167.351 67.2185C169.746 67.2185 172.34 67.636 175.263 68.9679C176.724 69.6338 177.887 70.419 178.811 71.2042C178.006 69.1368 176.734 66.8905 174.776 65.6779C173.752 65.0417 172.828 64.4255 172.012 63.8788C169.021 61.8611 167.222 60.6385 164.14 61.1554C162.977 61.3442 161.874 61.4635 160.801 61.5629C157.869 61.8511 155.553 62.0797 154.131 63.7993C153.982 63.9782 153.783 64.0975 153.555 64.1372C153.406 64.1671 152.233 64.4752 152.094 65.986C152.282 66.97 158.415 68.3615 162.341 67.7055C163.942 67.4372 165.592 67.2085 167.361 67.2085L167.351 67.2185Z" fill="#13706D"/>
<path d="M53.1153 148.802C52.5686 148.802 52.1213 148.365 52.1213 147.818C52.1213 147.699 51.9225 136.139 44.2492 127.194C36.1286 117.721 33.0871 107.205 36.8641 101.619C37.1722 101.162 37.7885 101.043 38.2457 101.351C38.7029 101.659 38.8222 102.275 38.5141 102.733C35.2937 107.503 38.3451 117.244 45.76 125.902C53.9204 135.414 54.1092 147.301 54.1092 147.808C54.1092 148.355 53.6719 148.802 53.1252 148.812L53.1153 148.802Z" fill="#13706D"/>
<path d="M89.4149 51.1761C88.2022 50.9773 87.0493 51.1065 86.0155 51.4742C84.5842 49.9137 82.5069 48.9595 80.2208 49.049C76.563 49.1882 73.6209 51.9315 73.1041 55.4202C72.0803 55.1022 70.9472 55.0624 69.6948 55.798C68.2337 56.6528 67.2497 58.2232 67.3391 59.9129C67.4783 62.3282 69.5258 64.1969 71.9511 64.1074C73.452 64.0478 74.7441 63.2526 75.4995 62.0897C76.891 63.3421 78.7497 64.0776 80.7774 63.9981C82.0099 63.9484 83.1629 63.6005 84.1668 63.0339C85.3695 63.9683 86.8902 64.505 88.5302 64.4454C92.6353 64.2963 95.7265 60.4795 94.8021 56.2651C94.2256 53.651 92.0488 51.6035 89.4149 51.1661V51.1761Z" fill="#AFE0DD"/>
<path d="M88.2817 65.4493C86.7907 65.4493 85.3296 65.0119 84.0872 64.1969C83.0634 64.6839 81.9601 64.9523 80.8171 64.992C78.9584 65.0517 77.1593 64.5249 75.6585 63.4713C74.6943 64.4553 73.3823 65.0417 71.9908 65.0914C69.0387 65.2107 66.524 62.9047 66.355 59.9626C66.2457 57.9946 67.3589 56.0166 69.1977 54.9332C70.2116 54.3368 71.2453 54.1082 72.3486 54.2375C73.3227 50.7288 76.4735 48.1843 80.1909 48.0451C82.4472 47.9656 84.6537 48.7906 86.3037 50.3412C87.3672 50.0529 88.4705 50.0032 89.5837 50.1921C92.6252 50.699 95.1201 53.0546 95.786 56.0564C96.283 58.3226 95.7661 60.6584 94.3746 62.4674C92.9731 64.2764 90.866 65.3598 88.5799 65.4493C88.4805 65.4493 88.391 65.4493 88.2916 65.4493H88.2817ZM84.1667 62.04C84.3854 62.04 84.604 62.1096 84.783 62.2487C85.8365 63.0737 87.1585 63.5011 88.5003 63.4514C90.1901 63.3918 91.7605 62.5867 92.7942 61.2448C93.8478 59.8831 94.2156 58.1934 93.8379 56.4838C93.3508 54.2673 91.5021 52.5279 89.2557 52.1601C88.2618 51.9911 87.2877 52.0806 86.3534 52.4185C85.9757 52.5577 85.5582 52.4483 85.2799 52.1501C83.9878 50.7387 82.149 49.9634 80.2505 50.043C77.1295 50.1622 74.5353 52.4881 74.0781 55.5694C74.0383 55.8576 73.8693 56.1061 73.6208 56.2651C73.3724 56.4142 73.0742 56.454 72.7959 56.3745C71.8317 56.0763 71.0266 56.1657 70.1917 56.6528C68.989 57.3585 68.2535 58.6208 68.3231 59.8533C68.4324 61.7219 70.0525 63.193 71.9013 63.1035C73.0145 63.0638 74.0383 62.4773 74.6546 61.5331C74.8136 61.2945 75.072 61.1256 75.3603 61.0957C75.6485 61.056 75.9368 61.1454 76.1554 61.3442C77.4178 62.4773 79.0478 63.0737 80.7276 63.0041C81.7713 62.9644 82.7553 62.6861 83.6697 62.1692C83.8188 62.0798 83.9878 62.04 84.1568 62.04H84.1667Z" fill="#13706D"/>
<path d="M104.463 89.165H64.9137C63.7225 89.165 62.7568 90.1307 62.7568 91.3219C62.7568 92.5131 63.7225 93.4788 64.9137 93.4788H104.463C105.654 93.4788 106.62 92.5131 106.62 91.3219C106.62 90.1307 105.654 89.165 104.463 89.165Z" fill="#AFE0DD"/>
<path d="M104.463 94.4628H64.9038C63.1643 94.4628 61.7529 93.0514 61.7529 91.312C61.7529 89.5725 63.1643 88.1611 64.9038 88.1611H104.463C106.203 88.1611 107.614 89.5725 107.614 91.312C107.614 93.0514 106.203 94.4628 104.463 94.4628ZM64.9038 90.159C64.2676 90.159 63.7408 90.6758 63.7408 91.3219C63.7408 91.968 64.2577 92.4848 64.9038 92.4848H104.463C105.099 92.4848 105.626 91.968 105.626 91.3219C105.626 90.6758 105.109 90.159 104.463 90.159H64.9038Z" fill="#13706D"/>
<path d="M104.463 97.9317H84.7926C83.6014 97.9317 82.6357 98.8974 82.6357 100.089C82.6357 101.28 83.6014 102.245 84.7926 102.245H104.463C105.654 102.245 106.62 101.28 106.62 100.089C106.62 98.8974 105.654 97.9317 104.463 97.9317Z" fill="#AFE0DD"/>
<path d="M104.463 103.229H84.7827C83.0433 103.229 81.6318 101.818 81.6318 100.079C81.6318 98.3392 83.0433 96.9278 84.7827 96.9278H104.463C106.202 96.9278 107.614 98.3392 107.614 100.079C107.614 101.818 106.202 103.229 104.463 103.229ZM84.7827 98.9256C84.1465 98.9256 83.6197 99.4425 83.6197 100.089C83.6197 100.735 84.1366 101.251 84.7827 101.251H104.463C105.099 101.251 105.626 100.735 105.626 100.089C105.626 99.4425 105.109 98.9256 104.463 98.9256H84.7827Z" fill="#13706D"/>
<path d="M71.2554 70.9457C71.2554 69.2858 72.2096 68.3217 73.7104 68.3217C74.6746 68.3217 75.4002 68.7192 75.7779 69.4349C75.8574 69.5939 75.9071 69.753 75.9071 69.902C75.9071 70.2301 75.6785 70.4487 75.3405 70.4487C75.0523 70.4487 74.8833 70.3294 74.7342 70.0511C74.5056 69.584 74.1677 69.3554 73.7204 69.3554C73.0147 69.3554 72.5674 69.9617 72.5674 70.9457C72.5674 71.9297 73.0147 72.546 73.7204 72.546C74.1875 72.546 74.5255 72.3174 74.7441 71.8403C74.8734 71.5619 75.0324 71.4526 75.3107 71.4526C75.6785 71.4526 75.917 71.6812 75.917 72.0192C75.917 72.1384 75.8872 72.2677 75.8375 72.3969C75.5294 73.1225 74.7243 73.5797 73.7502 73.5797C72.1897 73.5797 71.2554 72.6155 71.2554 70.9556V70.9457Z" fill="#13706D"/>
<path d="M76.7915 70.9458C76.7915 69.3257 77.7656 68.3218 79.2963 68.3218C80.827 68.3218 81.801 69.3356 81.801 70.9458C81.801 72.556 80.8369 73.5699 79.2963 73.5699C77.7556 73.5699 76.7915 72.566 76.7915 70.9458ZM80.489 70.9458C80.489 69.9817 80.0219 69.3654 79.2963 69.3654C78.5707 69.3654 78.1035 69.9817 78.1035 70.9458C78.1035 71.91 78.5707 72.5262 79.2963 72.5262C80.0219 72.5262 80.489 71.91 80.489 70.9458Z" fill="#13706D"/>
<path d="M82.666 72.9338C82.666 72.6952 82.7654 72.5163 83.0238 72.2976L84.475 70.9856C85.0714 70.4489 85.2304 70.2103 85.2304 69.8823C85.2304 69.5145 84.9521 69.2561 84.5446 69.2561C84.2066 69.2561 83.978 69.4152 83.7991 69.7531C83.6401 70.0016 83.491 70.101 83.2226 70.101C82.8847 70.101 82.6859 69.9121 82.6859 69.5941C82.6859 69.4947 82.6958 69.4052 82.7356 69.3158C82.9543 68.7293 83.6302 68.282 84.5545 68.282C85.7075 68.282 86.4729 68.8983 86.4729 69.7929C86.4729 70.4389 86.1449 70.8166 85.3398 71.5422L84.3259 72.4666V72.4865H86.0852C86.4132 72.4865 86.6021 72.6753 86.6021 72.9835C86.6021 73.2916 86.4132 73.4804 86.0852 73.4804H83.2723C82.8549 73.4804 82.666 73.2518 82.666 72.9238V72.9338Z" fill="#13706D"/>
<path d="M87.3078 71.582C87.3078 70.3395 88.0433 69.5543 89.2162 69.5543C90.3891 69.5543 91.1047 70.3097 91.1047 71.3434C91.1047 71.6615 90.9258 71.8404 90.5978 71.8404H88.5105V71.91C88.5105 72.3772 88.8186 72.6952 89.2659 72.6952C89.6038 72.6952 89.8424 72.5859 90.1207 72.3076C90.2499 72.1883 90.3493 72.1386 90.5083 72.1386C90.7568 72.1386 90.9755 72.2976 90.9755 72.5759C90.9755 72.6753 90.9457 72.7648 90.896 72.8542C90.6475 73.3015 90.0213 73.5798 89.2559 73.5798C88.0234 73.5798 87.2979 72.8344 87.2979 71.5919L87.3078 71.582ZM89.9219 71.1248C89.902 70.7073 89.6237 70.4389 89.2361 70.4389C88.8484 70.4389 88.5602 70.7172 88.5304 71.1248H89.9219Z" fill="#13706D"/>
</svg>
