<svg xmlns="http://www.w3.org/2000/svg" width="220" height="180" fill="none"><path fill="#E0F4F3" d="M107.654 12.487h4.692c57.401 0 104.007 46.606 104.007 104.007v24.59c0 14.612-11.858 26.469-26.469 26.469H30.116c-14.611 0-26.469-11.857-26.469-26.469v-24.59c0-57.4 46.607-104.007 104.007-104.007"/><path fill="#C4EAE7" d="M158.515 64.838c3.439 0 6.232 2.515 6.232 5.626V93.93c0 3.101-2.793 5.626-6.232 5.626H55.472c-3.44 0-6.232-2.515-6.232-5.626V70.464c0-3.101 2.793-5.626 6.232-5.626h93.571"/><path fill="#fff" d="M91.473 56.757H63.88a8.04 8.04 0 0 0-8.04 8.041v20.615a8.04 8.04 0 0 0 8.04 8.041h44.4l4.046 7.504 4.174-7.504h44.281a8.04 8.04 0 0 0 8.041-8.041V64.798a8.04 8.04 0 0 0-8.041-8.04h-60.79"/><path fill="#13706D" d="M112.336 101.952a.96.96 0 0 1-.865-.526l-3.767-6.978H63.891c-4.98 0-9.035-4.055-9.035-9.035V64.789c0-4.98 4.055-9.036 9.035-9.036h27.592c.546 0 .994.448.994.994a.997.997 0 0 1-.994.994H63.89a7.054 7.054 0 0 0-7.048 7.047v20.625a7.054 7.054 0 0 0 7.047 7.047h44.4c.368 0 .706.199.875.527l3.181 5.904 3.29-5.914a.99.99 0 0 1 .865-.507h44.28a7.054 7.054 0 0 0 7.047-7.047V64.798a7.054 7.054 0 0 0-7.047-7.047H99.99a.997.997 0 0 1-.994-.994c0-.546.447-.994.994-.994h60.79c4.98 0 9.035 4.056 9.035 9.035v20.625c0 4.98-4.055 9.035-9.035 9.035h-43.694l-3.886 6.988a.99.99 0 0 1-.865.506"/><path fill="#C4EAE7" d="M87.199 132.735H68.035a6.507 6.507 0 0 1-6.51-6.51v-12.584a6.507 6.507 0 0 1 6.51-6.51h88.88a6.507 6.507 0 0 1 6.51 6.51v12.584a6.507 6.507 0 0 1-6.51 6.51h-62.66"/><path fill="#13706D" d="M156.915 133.729h-62.66a.997.997 0 0 1-.993-.994c0-.546.447-.994.994-.994h62.659a5.523 5.523 0 0 0 5.516-5.516v-12.584a5.523 5.523 0 0 0-5.516-5.516h-88.88a5.523 5.523 0 0 0-5.516 5.516v12.584a5.523 5.523 0 0 0 5.516 5.516H87.2c.546 0 .993.448.993.994a.997.997 0 0 1-.993.994H68.035c-4.135 0-7.504-3.369-7.504-7.504v-12.584c0-4.135 3.37-7.504 7.504-7.504h88.88c4.134 0 7.504 3.369 7.504 7.504v12.584c0 4.135-3.37 7.504-7.504 7.504"/><path fill="#13706D" d="M75.45 123.382v-6.063h-.04l-1.133.785c-.209.149-.348.199-.567.199-.447 0-.785-.338-.785-.805 0-.338.13-.597.457-.825l1.72-1.173c.487-.328.875-.378 1.332-.378.835 0 1.322.497 1.322 1.292v6.958c0 .696-.457 1.143-1.153 1.143s-1.153-.447-1.153-1.143zm4.721 0c0-.437.18-.745.636-1.133l2.605-2.356c1.063-.974 1.361-1.391 1.361-1.978 0-.656-.507-1.123-1.232-1.123-.596 0-1.014.288-1.342.895-.288.447-.567.626-1.034.626-.596 0-.954-.348-.954-.915 0-.179.03-.338.1-.507.397-1.043 1.61-1.848 3.27-1.848 2.077 0 3.439 1.103 3.439 2.713 0 1.163-.597 1.839-2.038 3.141l-1.809 1.65v.04h3.151c.586 0 .924.348.924.884 0 .537-.338.895-.924.895h-5.05c-.745 0-1.083-.417-1.083-.994zm8.469-1.471c0-1.233.934-2.087 2.216-2.306v-.04c-1.113-.248-1.888-1.024-1.888-2.028 0-1.441 1.46-2.475 3.568-2.475s3.568 1.044 3.568 2.485c0 .994-.765 1.78-1.878 2.028v.04c1.282.218 2.206 1.083 2.206 2.316 0 1.6-1.6 2.683-3.896 2.683s-3.896-1.083-3.896-2.693zm5.367-.169c0-.726-.596-1.253-1.471-1.253s-1.461.527-1.461 1.253.596 1.272 1.46 1.272c.866 0 1.472-.537 1.472-1.272m-.179-3.976c0-.676-.547-1.133-1.282-1.133-.736 0-1.272.457-1.272 1.133s.526 1.133 1.272 1.133c.745 0 1.282-.467 1.282-1.133m7.226 5.596v-7.077c0-.785.467-1.163 1.123-1.163s1.114.378 1.114 1.163v3.777h.039l2.187-2.246c.318-.318.567-.457.914-.457.577 0 1.014.417 1.014.974 0 .348-.109.566-.437.874l-1.451 1.362 1.58 2.087c.249.348.328.547.328.835 0 .617-.437 1.024-1.073 1.024-.507 0-.785-.179-1.163-.765l-1.352-1.948-.567.526v1.034c0 .785-.467 1.163-1.113 1.163s-1.123-.378-1.123-1.163zm7.644 2.316a1.1 1.1 0 0 1-.15-.557c0-.447.338-.785.885-.785.268 0 .507.08.736.269.477.397.954.665 1.54.665.925 0 1.461-.497 1.461-1.272v-1.103h-.039c-.269.725-1.064 1.222-2.078 1.222-1.69 0-2.733-1.272-2.733-3.349s1.014-3.38 2.763-3.38c.994 0 1.749.547 2.058 1.312h.039v-.228c0-.766.487-1.123 1.133-1.123s1.104.357 1.104 1.123v5.556c0 1.859-1.322 2.922-3.668 2.922-1.531 0-2.614-.576-3.042-1.282zm4.482-4.86c0-1.094-.497-1.79-1.292-1.79s-1.282.686-1.282 1.79c0 1.103.477 1.729 1.282 1.729s1.292-.616 1.292-1.729m6.75-.994c0-2.972 1.709-4.712 4.393-4.712 1.719 0 3.021.706 3.707 1.998.149.278.229.567.229.845 0 .596-.408.974-1.014.974-.507 0-.825-.209-1.083-.716-.408-.844-1.024-1.252-1.819-1.252-1.263 0-2.068 1.083-2.068 2.843 0 1.759.795 2.862 2.068 2.862.835 0 1.451-.407 1.839-1.262.238-.497.526-.696 1.013-.696.656 0 1.084.408 1.084 1.024 0 .219-.05.447-.149.666-.547 1.292-1.998 2.127-3.748 2.127-2.802 0-4.472-1.739-4.472-4.711zm9.899 0c0-2.903 1.74-4.712 4.503-4.712s4.492 1.809 4.492 4.712-1.739 4.711-4.492 4.711-4.503-1.809-4.503-4.711m6.64 0c0-1.74-.845-2.833-2.137-2.833s-2.137 1.093-2.137 2.833c0 1.739.835 2.822 2.137 2.822s2.137-1.093 2.137-2.822m3.657 6.291c0-.258.11-.437.368-.666l1.521-1.381c.626-.567.795-.815.795-1.153 0-.388-.298-.656-.716-.656-.347 0-.586.169-.785.527-.169.258-.328.367-.596.367-.348 0-.557-.198-.557-.536 0-.1.01-.199.06-.298.229-.617.944-1.084 1.908-1.084 1.213 0 2.008.646 2.008 1.58 0 .686-.348 1.074-1.193 1.839l-1.053.964v.03h1.839c.338 0 .536.199.536.517s-.198.517-.536.517h-2.952c-.438 0-.637-.249-.637-.577zm4.98-5.138c0-2.227 1.322-3.638 3.42-3.638s3.389 1.352 3.389 3.2c0 .567-.318.885-.904.885h-3.738v.129c0 .835.547 1.402 1.362 1.402.616 0 1.034-.199 1.531-.696.238-.219.417-.298.695-.298.458 0 .835.288.835.785a1 1 0 0 1-.149.507c-.457.805-1.56 1.292-2.932 1.292-2.197 0-3.509-1.332-3.509-3.568m4.702-.825c-.04-.746-.537-1.223-1.233-1.223-.695 0-1.202.507-1.262 1.223zm-49.072-46.199a1.7 1.7 0 0 1-.139-.636c0-.696.457-1.134 1.213-1.134.527 0 .865.19 1.133.627.397.675.885 1.073 1.918 1.073.954 0 1.61-.556 1.61-1.342 0-.914-.675-1.401-1.888-1.401h-.268c-.656 0-1.004-.378-1.004-.945 0-.566.348-.934 1.004-.934h.248c1.064 0 1.71-.517 1.71-1.312s-.547-1.262-1.481-1.262c-.776 0-1.283.318-1.611.964-.308.577-.636.795-1.252.795-.755 0-1.133-.457-1.133-1.083 0-.239.04-.418.139-.656.428-1.054 1.71-2.078 3.857-2.078 2.365 0 4.065 1.074 4.065 2.923 0 1.391-1.014 2.286-2.256 2.534v.05c1.64.169 2.683 1.093 2.683 2.564 0 2.038-1.759 3.35-4.482 3.35-2.316 0-3.638-1.054-4.076-2.107zm10.466.656c0-.517.219-.895.766-1.362l3.101-2.823c1.272-1.163 1.62-1.66 1.62-2.365 0-.786-.606-1.342-1.471-1.342-.716 0-1.203.348-1.61 1.073-.348.537-.666.756-1.233.756-.715 0-1.143-.418-1.143-1.094 0-.208.03-.407.11-.606.477-1.252 1.918-2.207 3.906-2.207 2.485 0 4.105 1.322 4.105 3.24 0 1.392-.706 2.197-2.435 3.758l-2.167 1.978v.05h3.757c.706 0 1.113.417 1.113 1.063s-.407 1.064-1.113 1.064h-6.033c-.885 0-1.292-.497-1.292-1.183zm10.387-.656a1.7 1.7 0 0 1-.139-.636c0-.696.457-1.134 1.213-1.134.527 0 .865.19 1.133.627.398.675.885 1.073 1.918 1.073.954 0 1.61-.556 1.61-1.342 0-.914-.675-1.401-1.888-1.401h-.268c-.656 0-1.004-.378-1.004-.945 0-.566.348-.934 1.004-.934h.248c1.064 0 1.71-.517 1.71-1.312s-.547-1.262-1.481-1.262c-.776 0-1.283.318-1.611.964-.308.577-.636.795-1.252.795-.755 0-1.133-.457-1.133-1.083 0-.239.04-.418.139-.656.428-1.054 1.71-2.078 3.857-2.078 2.365 0 4.065 1.074 4.065 2.923 0 1.391-1.014 2.286-2.256 2.534v.05c1.64.169 2.683 1.093 2.683 2.564 0 2.038-1.759 3.35-4.482 3.35-2.316 0-3.638-1.054-4.076-2.107zM98.858 84.558v-4.055c0-.348.199-.547.527-.547s.526.199.526.547v1.74h.03l1.889-2.058c.149-.16.278-.229.447-.229.278 0 .497.209.497.487 0 .15-.05.258-.179.398l-1.381 1.45 1.5 1.83c.159.199.229.348.229.487a.497.497 0 0 1-.507.507c-.219 0-.358-.08-.527-.289l-1.491-1.838-.497.526v1.054c0 .348-.198.547-.526.547s-.527-.2-.527-.547zm4.751 1.192a.5.5 0 0 1-.08-.278c0-.208.16-.367.418-.367.129 0 .238.04.348.149.278.258.537.407.874.407.557 0 .885-.298.885-.765V84.3h-.02c-.169.397-.606.666-1.143.666-.924 0-1.511-.706-1.511-1.85 0-1.142.567-1.858 1.531-1.858.537 0 .944.279 1.133.706h.02v-.209c0-.348.219-.517.507-.517s.507.17.507.517v3.141c0 .964-.706 1.55-1.899 1.54-.765 0-1.322-.288-1.57-.685m2.455-2.623c0-.666-.328-1.103-.835-1.103s-.815.427-.815 1.093.308 1.083.815 1.083.835-.407.835-1.073m3.519.049c0-1.183.586-1.919 1.52-1.919.537 0 .955.288 1.134.696h.019v-1.471c0-.348.209-.527.507-.527s.507.189.507.527v4.115c0 .338-.208.517-.507.517-.298 0-.507-.17-.507-.517v-.219h-.019c-.159.418-.577.716-1.143.716-.935 0-1.521-.736-1.521-1.928zm2.693 0c0-.676-.328-1.104-.825-1.104s-.825.428-.825 1.104c0 .675.308 1.103.825 1.103s.825-.428.825-1.103m1.829.019c0-1.202.696-1.958 1.799-1.958s1.769.726 1.769 1.73c0 .278-.159.437-.437.437h-2.127v.04c0 .556.338.914.845.914.367 0 .616-.119.884-.447.11-.11.199-.15.328-.15.219 0 .398.14.398.369 0 .08-.02.159-.07.248-.248.457-.825.726-1.54.726-1.163 0-1.849-.716-1.849-1.928zm2.584-.407c-.02-.487-.328-.805-.775-.805s-.765.328-.805.805zm3.479 3.051v-4.075c0-.338.209-.517.497-.517s.497.18.497.527v.199h.02c.199-.437.616-.706 1.153-.706.944 0 1.521.716 1.521 1.918 0 1.203-.577 1.919-1.511 1.919-.537 0-.954-.269-1.153-.686h-.02v1.421c0 .348-.209.527-.507.527s-.507-.179-.507-.527zm2.664-2.663c0-.676-.318-1.104-.825-1.104s-.825.438-.825 1.104c0 .665.328 1.103.825 1.103s.825-.427.825-1.103m1.71 0c0-1.203.725-1.939 1.848-1.939s1.849.726 1.849 1.939c0 1.212-.716 1.948-1.849 1.948s-1.848-.726-1.848-1.948m2.653 0c0-.736-.318-1.163-.815-1.163s-.815.427-.815 1.163c0 .735.318 1.162.815 1.162s.815-.417.815-1.162m1.839 1.411v-2.823c0-.338.199-.517.487-.517s.487.18.487.517v.229h.02a1.1 1.1 0 0 1 1.064-.746c.536 0 .914.279 1.033.766h.02c.169-.468.607-.766 1.153-.766.726 0 1.223.497 1.223 1.253v2.087c0 .348-.209.527-.507.527s-.507-.19-.507-.527v-1.829c0-.427-.219-.666-.606-.666-.388 0-.636.278-.636.696v1.809c0 .348-.189.527-.487.527-.299 0-.488-.19-.488-.527v-1.869c0-.397-.228-.636-.596-.636s-.646.288-.646.706v1.789c0 .348-.209.527-.507.527s-.507-.19-.507-.527m6.431 0v-2.823c0-.338.199-.517.487-.517.289 0 .487.18.487.517v.229h.02a1.1 1.1 0 0 1 1.064-.746c.537 0 .914.279 1.034.766h.019c.169-.468.607-.766 1.153-.766.726 0 1.223.497 1.223 1.253v2.087c0 .348-.209.527-.507.527s-.507-.19-.507-.527v-1.829c0-.427-.219-.666-.606-.666-.388 0-.636.278-.636.696v1.809c0 .348-.189.527-.487.527-.299 0-.487-.19-.487-.527v-1.869c0-.397-.229-.636-.597-.636s-.646.288-.646.706v1.789c0 .348-.209.527-.507.527s-.507-.19-.507-.527m6.302-1.392c0-1.202.696-1.958 1.799-1.958s1.769.726 1.769 1.73c0 .278-.159.437-.437.437h-2.127v.04c0 .556.338.914.845.914.368 0 .616-.119.884-.447.11-.11.199-.15.328-.15.219 0 .398.14.398.369 0 .08-.02.159-.07.248-.248.457-.825.726-1.54.726-1.163 0-1.849-.716-1.849-1.928zm2.584-.407c-.02-.487-.328-.805-.775-.805s-.765.328-.805.805zm1.7 1.591c-.02-.07-.04-.13-.04-.19 0-.228.169-.387.408-.387.159 0 .298.07.437.228.199.259.427.378.815.378s.606-.15.606-.398c0-.198-.129-.308-.497-.387l-.626-.13c-.725-.159-1.093-.526-1.093-1.083 0-.716.616-1.173 1.58-1.173.776 0 1.342.348 1.461.776.01.05.02.099.02.149 0 .208-.129.347-.387.347a.48.48 0 0 1-.368-.159c-.179-.228-.378-.397-.746-.397-.347 0-.586.169-.586.408 0 .198.149.318.517.407l.616.13c.795.168 1.123.456 1.123 1.013 0 .745-.666 1.223-1.65 1.223-.854 0-1.421-.309-1.6-.746z"/><path fill="#C4EAE7" d="M168.832 85.373c5.671 0 10.268-4.597 10.268-10.267s-4.597-10.268-10.268-10.268c-5.67 0-10.267 4.597-10.267 10.268 0 5.67 4.597 10.267 10.267 10.267"/><path fill="#13706D" d="M168.832 86.367c-6.212 0-11.261-5.049-11.261-11.261s5.049-11.262 11.261-11.262c6.213 0 11.262 5.05 11.262 11.262s-5.049 11.261-11.262 11.261m0-20.525c-5.109 0-9.273 4.155-9.273 9.274s4.154 9.273 9.273 9.273 9.274-4.154 9.274-9.273c0-5.12-4.155-9.274-9.274-9.274"/><path fill="#AFE0DD" d="M87.06 78.962c-.398 3.708-3.758 7.107-7.763 6.232-4.175.994-7.137-2.554-7.763-6.232-.666-3.966.566-9.512 7.763-6.232 8-2.634 8.22 2.018 7.762 6.232"/><path fill="#13706D" d="M77.905 86.367a6.4 6.4 0 0 1-3.578-1.093c-1.918-1.272-3.32-3.568-3.757-6.143-.428-2.544-.14-5.834 1.958-7.454 1.63-1.253 3.936-1.253 6.838 0 3.28-1.024 5.596-.925 7.097.288 1.918 1.55 1.889 4.473 1.6 7.117-.258 2.345-1.53 4.562-3.419 5.924-1.58 1.133-3.459 1.56-5.318 1.222-.477.1-.944.15-1.411.15zM75.49 72.74c-.656 0-1.263.15-1.75.527-1.401 1.073-1.53 3.658-1.212 5.546.338 2.008 1.45 3.857 2.892 4.81 1.103.727 2.326.935 3.658.617q.224-.06.447 0c1.76.388 3.121-.248 3.956-.855 1.412-1.014 2.416-2.753 2.604-4.522.219-1.988.308-4.403-.874-5.358-.955-.775-2.893-.715-5.586.18a1.02 1.02 0 0 1-.726-.04c-1.024-.468-2.286-.905-3.41-.905"/><path fill="#fff" d="M79.307 71.736s.855-3.18-2.157-4.592z"/><path fill="#13706D" d="M79.307 72.73c-.09 0-.17-.01-.259-.03a.996.996 0 0 1-.705-1.212c.06-.249.546-2.426-1.62-3.44a1 1 0 0 1-.478-1.321 1 1 0 0 1 1.322-.478c2.982 1.402 3.062 4.374 2.694 5.755a.985.985 0 0 1-.954.736z"/><path fill="#fff" d="M79.307 69.45s.129-5.407 7.275-4.502c0 0-.775 4.681-7.275 4.502"/><path fill="#13706D" d="M79.655 70.444h-.378a.99.99 0 0 1-.964-1.014c0-.1.08-2.405 1.978-4.035 1.5-1.292 3.667-1.77 6.42-1.422.269.03.508.18.677.388a.98.98 0 0 1 .178.755c0 .05-.974 5.338-7.902 5.338zm5.387-4.612c-1.471 0-2.624.348-3.44 1.034a3.7 3.7 0 0 0-1.063 1.55c2.803-.238 4.075-1.59 4.642-2.584z"/><path fill="#fff" d="M75.739 77.56a1.6 1.6 0 1 0 0-3.2 1.6 1.6 0 0 0 0 3.2"/><path fill="#C4EAE7" d="M164.757 75.106a4.08 4.08 0 0 1 4.076-4.075 4.08 4.08 0 0 1 4.075 4.075 4.08 4.08 0 0 1-4.075 4.075"/><path fill="#13706D" d="M168.832 80.175a.997.997 0 0 1-.994-.994c0-.547.448-.994.994-.994 1.7 0 3.082-1.382 3.082-3.081s-1.382-3.081-3.082-3.081a3.084 3.084 0 0 0-3.081 3.08.997.997 0 0 1-.994.995.997.997 0 0 1-.994-.994 5.08 5.08 0 0 1 5.069-5.07 5.08 5.08 0 0 1 5.07 5.07 5.08 5.08 0 0 1-5.07 5.069"/><path fill="#13706D" d="m164.519 78.018-1.78-2.157c-.169-.199-.02-.497.239-.497h3.558c.259 0 .398.298.239.497l-1.779 2.157a.31.31 0 0 1-.477 0"/><path fill="#C4EAE7" d="M87.407 15.975c1.56 0 2.833-.725 3.509-2.147-2.057.328-4.095.726-6.113 1.173.606.617 1.501.974 2.604.974m10.854-1.59c0 1.958-.795 2.942-3.896 4.761-2.485 1.411-3.827 3.081-3.827 5.566v.14c0 2.166 1.412 3.647 3.598 3.647 1.76 0 2.823-.845 3.35-2.435.457-1.64 1.043-2.465 4.174-4.264 3.35-1.938 4.921-4.264 4.921-7.614a9 9 0 0 0-.16-1.68q-4.308.045-8.528.448c.229.427.358.904.358 1.44zm-4.015 16.41c-2.396 0-4.304 1.8-4.304 4.085s1.918 4.105 4.304 4.105c2.385 0 4.304-1.799 4.304-4.105s-1.939-4.085-4.304-4.085m-62.043 103.59c.706-1.66 1.938-2.505 3.757-2.505 2.048 0 3.529 1.302 3.529 3.151 0 1.958-.795 2.942-3.896 4.761-2.485 1.412-3.827 3.081-3.827 5.566v.14c0 2.166 1.411 3.647 3.598 3.647 1.76 0 2.823-.845 3.35-2.435.457-1.64 1.043-2.465 4.174-4.264 3.35-1.938 4.92-4.264 4.92-7.614 0-5.536-4.532-9.144-11.44-9.144-5.179 0-8.986 1.958-10.506 4.831a5.5 5.5 0 0 0-.706 2.733c-.02 2.048 1.342 3.369 3.489 3.369 1.6 0 2.892-.755 3.558-2.236m-9.711-69.587c0 1.958-.795 2.942-3.896 4.761-2.485 1.412-3.827 3.082-3.827 5.566v.14c0 2.166 1.411 3.647 3.598 3.647 1.76 0 2.823-.845 3.35-2.435.457-1.64 1.043-2.465 4.174-4.264 3.35-1.938 4.92-4.264 4.92-7.614 0-4.453-2.932-7.643-7.673-8.737a100 100 0 0 0-3.886 5.815c1.888.12 3.24 1.372 3.24 3.121m-4.006 24.591c2.366 0 4.304-1.8 4.304-4.105s-1.938-4.086-4.304-4.086c-2.365 0-4.303 1.8-4.303 4.086s1.918 4.105 4.303 4.105m16.997 70.233c2.366 0 4.304-1.799 4.304-4.105s-1.938-4.086-4.304-4.086-4.304 1.799-4.304 4.086c0 2.286 1.918 4.105 4.304 4.105m165.275-84.685c-2.396 0-4.304 1.799-4.304 4.085s1.918 4.105 4.304 4.105c2.385 0 4.304-1.8 4.304-4.105s-1.938-4.086-4.304-4.086m-72.807 86.574c0-5.536-4.533-9.144-11.441-9.144-5.178 0-8.985 1.958-10.506 4.83a5.5 5.5 0 0 0-.705 2.734c-.02 2.047 1.341 3.369 3.488 3.369 1.601 0 2.893-.755 3.559-2.236.705-1.66 1.938-2.505 3.757-2.505 2.047 0 3.528 1.302 3.528 3.151 0 1.958-.795 2.942-3.896 4.761-.596.338-1.113.686-1.57 1.063h11.102c1.819-1.62 2.694-3.538 2.694-6.033zm65.799-5.238c0-2.276-1.938-4.085-4.304-4.085-2.365 0-4.303 1.799-4.303 4.085s1.918 4.105 4.303 4.105c2.386 0 4.304-1.799 4.304-4.105m7.117-92.985c-2.485 1.412-3.826 3.082-3.826 5.567v.139c0 2.167 1.411 3.648 3.598 3.648 1.759 0 2.822-.845 3.349-2.436.169-.616.358-1.113.696-1.59a99 99 0 0 0-3.191-5.695c-.208.129-.397.248-.626.387zm-9.73-9.273a5.5 5.5 0 0 0-.706 2.733c-.02 2.048 1.342 3.37 3.489 3.37 1.6 0 2.892-.756 3.558-2.236.099-.24.219-.458.338-.666a103 103 0 0 0-4.324-5.785c-1.024.725-1.829 1.59-2.355 2.574zm-11.322 77.25a5.5 5.5 0 0 0-.705 2.733c-.02 2.048 1.341 3.37 3.488 3.37 1.601 0 2.893-.755 3.559-2.236.705-1.67 1.938-2.505 3.757-2.505 2.047 0 3.528 1.302 3.528 3.141 0 1.958-.795 2.942-3.896 4.761-2.485 1.411-3.827 3.081-3.827 5.566v.139c0 2.167 1.412 3.648 3.599 3.648 1.759 0 2.822-.845 3.349-2.445.457-1.64 1.044-2.465 4.175-4.264 3.349-1.939 4.92-4.264 4.92-7.614 0-5.536-4.533-9.144-11.441-9.144-5.178 0-8.985 1.958-10.506 4.83z"/></svg>