<svg xmlns="http://www.w3.org/2000/svg" width="219" height="180" fill="none"><path fill="#E0F4F3" d="M107.321 12.84h4.692c57.401 0 104.007 46.606 104.007 104.007v24.59c0 14.611-11.858 26.469-26.469 26.469H29.783c-14.611 0-26.469-11.858-26.469-26.469v-24.59c0-57.401 46.607-104.008 104.007-104.008"/><path fill="#C4EAE7" d="M112.013 12.84h-4.692c-25.972 0-49.708 9.521-67.937 25.256l4.453 10.506c23.925 56.436 72.817 98.471 132.196 113.649h29.859c6.162-4.841 10.128-12.365 10.128-20.814v-24.59c0-57.441-46.567-104.008-104.007-104.008"/><path fill="#E0F4F3" d="M185.625 60.142H160.16a2.525 2.525 0 0 0-2.525 2.524v25.356a2.525 2.525 0 0 0 2.525 2.525h25.465a2.525 2.525 0 0 0 2.525-2.525V62.666a2.525 2.525 0 0 0-2.525-2.524"/><path fill="#13706D" d="M185.635 91.55H160.16a3.523 3.523 0 0 1-3.519-3.508V62.676a3.526 3.526 0 0 1 3.519-3.519h25.475a3.525 3.525 0 0 1 3.518 3.52v25.365a3.516 3.516 0 0 1-3.518 3.508M160.15 61.137a1.53 1.53 0 0 0-1.531 1.53v25.366c0 .845.686 1.52 1.531 1.52h25.475a1.53 1.53 0 0 0 1.531-1.52V62.666a1.53 1.53 0 0 0-1.531-1.53z"/><path fill="#AFE0DD" d="M173.32 84.762c5.319 0 9.631-4.312 9.631-9.632s-4.312-9.631-9.631-9.631-9.632 4.312-9.632 9.631c0 5.32 4.313 9.632 9.632 9.632"/><path fill="#13706D" d="M173.32 85.756c-5.865 0-10.626-4.771-10.626-10.626s4.771-10.625 10.626-10.625 10.625 4.771 10.625 10.625c0 5.855-4.771 10.626-10.625 10.626m0-19.263c-4.761 0-8.638 3.876-8.638 8.637s3.877 8.638 8.638 8.638 8.637-3.877 8.637-8.638c0-4.76-3.876-8.637-8.637-8.637"/><path fill="#13706D" d="M169.344 74.952a1.82 1.82 0 1 1 .002-3.64 1.82 1.82 0 0 1-.002 3.64m0-1.988c-.1 0-.169.08-.169.168 0 .19.348.19.348 0a.167.167 0 0 0-.169-.168zm7.951 1.988a1.82 1.82 0 0 1 0-3.638 1.82 1.82 0 0 1 0 3.638m0-1.988a.167.167 0 0 0-.168.168c0 .19.347.19.347 0a.167.167 0 0 0-.169-.168zm-3.975 8.041a2.643 2.643 0 1 1 0-5.288 2.643 2.643 0 1 1 0 5.288m0-3.29a.655.655 0 0 0-.656.656.65.65 0 0 0 .656.656.65.65 0 0 0 .656-.656.65.65 0 0 0-.656-.656"/><path fill="#E0F4F3" d="M138.303 109.511v-2.465a2.83 2.83 0 0 0-2.833-2.832h-4.343a2.83 2.83 0 0 0-2.833 2.832v2.475"/><path fill="#13706D" d="M128.304 110.525a.997.997 0 0 1-.994-.994v-2.475a3.835 3.835 0 0 1 3.827-3.827h4.343a3.835 3.835 0 0 1 3.827 3.827v2.465a.997.997 0 0 1-.994.994.997.997 0 0 1-.994-.994v-2.465a1.84 1.84 0 0 0-1.839-1.839h-4.343a1.84 1.84 0 0 0-1.839 1.839v2.475a.997.997 0 0 1-.994.994"/><path fill="#AFE0DD" d="M152.924 160.998h39.947v-4.234a2.89 2.89 0 0 0-2.892-2.893h-23.587"/><path fill="#13706D" d="M192.871 161.992h-39.947a.997.997 0 0 1-.994-.994c0-.547.447-.994.994-.994h38.953v-3.24a1.905 1.905 0 0 0-1.898-1.899h-23.587a.997.997 0 0 1-.994-.994c0-.546.448-.993.994-.993h23.587a3.885 3.885 0 0 1 3.886 3.886v4.234a.997.997 0 0 1-.994.994"/><path fill="#E0F4F3" d="M124.815 140.175v-23.696a6.727 6.727 0 0 1 6.729-6.729h5.447a14.69 14.69 0 0 1 12.693 7.305l15.098 25.953a11.97 11.97 0 0 1 1.62 6.013c0 6.61-5.357 11.967-11.967 11.967h-20.217"/><path fill="#13706D" d="M154.425 161.992h-20.217a.997.997 0 0 1-.994-.994c0-.547.447-.994.994-.994h20.217c6.053 0 10.973-4.92 10.973-10.973 0-1.938-.517-3.847-1.491-5.517l-15.098-25.952a13.75 13.75 0 0 0-11.838-6.808h-5.447a5.744 5.744 0 0 0-5.735 5.735v23.696a.997.997 0 0 1-.994.994 1 1 0 0 1-.994-.994v-23.696c0-4.254 3.459-7.723 7.723-7.723h5.447a15.7 15.7 0 0 1 13.548 7.792l15.098 25.953a12.96 12.96 0 0 1 1.759 6.52c0 7.146-5.814 12.961-12.961 12.961z"/><path fill="#AFE0DD" d="M129.298 162.241c6.17 0 11.172-5.002 11.172-11.172s-5.002-11.173-11.172-11.173-11.172 5.002-11.172 11.173c0 6.17 5.002 11.172 11.172 11.172"/><path fill="#13706D" d="M129.298 163.235c-6.709 0-12.166-5.457-12.166-12.166s5.457-12.166 12.166-12.166 12.166 5.456 12.166 12.166c0 6.709-5.457 12.166-12.166 12.166m0-22.345c-5.616 0-10.178 4.563-10.178 10.179 0 5.615 4.562 10.178 10.178 10.178s10.178-4.563 10.178-10.178-4.562-10.179-10.178-10.179"/><path fill="#AFE0DD" d="M125.292 151.069a4.007 4.007 0 0 1 8.012 0 4 4 0 0 1-4.006 4.005"/><path fill="#13706D" d="M129.298 156.068a.997.997 0 0 1-.994-.994c0-.547.447-.994.994-.994a3.016 3.016 0 0 0 3.012-3.011 3.016 3.016 0 0 0-3.012-3.012 3.016 3.016 0 0 0-3.012 3.012.996.996 0 0 1-.994.993.997.997 0 0 1-.994-.993c0-2.754 2.237-5 5-5s5 2.246 5 5a5.004 5.004 0 0 1-5 4.999m24.958-4.791h-2.912a.997.997 0 0 1-.994-.994c0-.546.447-.994.994-.994h2.912c.547 0 .994.448.994.994a.997.997 0 0 1-.994.994m5.338 0a1 1 0 0 1-.378-.079.9.9 0 0 1-.328-.209c-.04-.05-.09-.099-.119-.149-.04-.06-.07-.119-.1-.179-.02-.06-.04-.119-.05-.189-.019-.059-.019-.129-.019-.189 0-.258.099-.517.288-.705a.9.9 0 0 1 .328-.209.99.99 0 0 1 1.073.209c.1.099.169.198.219.328a1 1 0 0 1 .08.377c0 .06 0 .13-.02.189a.6.6 0 0 1-.06.189.8.8 0 0 1-.089.179c-.04.05-.08.099-.13.149a1 1 0 0 1-.695.288"/><path fill="#AFE0DD" d="M141.822 135.374c8.846 8.031 20.833 4.006 20.833 4.006l-12.981-22.325a14.68 14.68 0 0 0-12.693-7.305s-4.016 17.593 4.841 25.624"/><path fill="#13706D" d="M155.508 141.397c-4.274 0-9.701-1.063-14.353-5.288-9.174-8.329-5.307-25.832-5.138-26.578a.99.99 0 0 1 .964-.775 15.73 15.73 0 0 1 13.547 7.792l12.982 22.325a.97.97 0 0 1 .069.845 1.01 1.01 0 0 1-.616.596c-.249.089-3.32 1.083-7.465 1.083zm-13.021-6.759c6.739 6.113 15.506 4.841 18.657 4.115l-12.325-21.201a13.71 13.71 0 0 0-11.023-6.778c-.626 3.459-2.574 17.265 4.691 23.864"/><path fill="#E0F4F3" d="M141.881 117.771a9.56 9.56 0 0 1 3.718 3.489c1.968 3.25 3.767 6.5 3.767 6.5"/><path fill="#13706D" d="M149.366 128.764c-.348 0-.686-.189-.875-.517-.02-.029-1.809-3.27-3.747-6.47a8.57 8.57 0 0 0-3.33-3.131 1 1 0 0 1-.417-1.342.99.99 0 0 1 1.342-.418c1.182.627 2.862 1.809 4.095 3.857 1.958 3.23 3.767 6.5 3.787 6.53a.997.997 0 0 1-.388 1.352c-.149.08-.318.119-.477.119z"/><path fill="#E0F4F3" d="M142.338 34.319c4.175 3.001 5.576 8.24 4.185 15.575-1.173 6.153-4.344 13.369-8.498 19.303-7.743 11.062-7.733 20.137-7.704 21.22v13.806h5.964V90.248c0-.08-.189-7.872 6.63-17.632 8.458-12.097 16.221-33.576 2.912-43.138"/><path fill="#13706D" d="M136.285 105.217h-5.964a.997.997 0 0 1-.994-.994V90.417c-.03-1.013-.049-10.436 7.882-21.787 4.076-5.825 7.187-12.902 8.34-18.915 1.322-6.928.039-11.828-3.787-14.581a1 1 0 0 1-.229-1.392 1 1 0 0 1 1.392-.228c4.512 3.24 6.053 8.816 4.582 16.569-1.193 6.282-4.433 13.647-8.658 19.69-7.574 10.824-7.554 19.65-7.524 20.624v12.842h3.976V90.378c0-.17-.219-8.27 6.809-18.319 8.239-11.778 15.873-32.612 3.14-41.766a1 1 0 0 1-.228-1.391 1 1 0 0 1 1.391-.23c13.896 9.99 6.014 32.096-2.673 44.52-6.57 9.393-6.461 16.957-6.451 17.027v14.014a.997.997 0 0 1-.994.994z"/><path fill="#E0F4F3" d="M170.696 153.862h5.337l-11.251-56.507c-1.262-6.311-5.457-11.699-11.341-14.303-3.409-1.51-6.302-2.226-7.017-2.395-23.836-7.713-34.68-20.515-30.525-36.07 1.64-6.134 5.656-10.745 11.033-12.674 5.119-1.829 10.745-.954 15.416 2.406l1.77-2.465 1.709-2.376c-6.292-4.522-13.905-5.675-20.903-3.18-7.246 2.594-12.633 8.697-14.79 16.748-2.962 11.072-2.395 31.418 34.59 43.326l.268.07c1.6.348 5.179 1.44 8.578 3.33a12.32 12.32 0 0 1 6.113 8.378l11.023 55.712"/><path fill="#13706D" d="M176.034 154.855h-5.338a.99.99 0 0 1-.974-.805l-11.023-55.71a11.32 11.32 0 0 0-5.616-7.704c-3.32-1.849-6.779-2.892-8.299-3.23l-.318-.08c-37.82-12.176-38.347-33.138-35.296-44.549 2.237-8.369 7.852-14.72 15.416-17.424 7.316-2.614 15.268-1.401 21.818 3.31.209.15.358.388.397.646s-.02.527-.169.746l-3.478 4.84a.98.98 0 0 1-.647.398 1.04 1.04 0 0 1-.745-.17c-4.403-3.17-9.691-3.995-14.502-2.275-5.059 1.809-8.856 6.182-10.406 11.987-3.996 14.959 6.609 27.343 29.868 34.868.735.169 3.658.904 7.117 2.435 6.132 2.713 10.585 8.33 11.917 15.018l11.252 56.507a1 1 0 0 1-.209.825 1 1 0 0 1-.765.367m-4.513-1.987h3.31l-11.013-55.314c-1.203-6.053-5.238-11.132-10.775-13.587-3.3-1.462-6.073-2.157-6.838-2.336-24.501-7.922-35.574-21.161-31.26-37.293 1.72-6.451 5.974-11.312 11.659-13.35 5.139-1.838 10.735-1.112 15.506 1.969l2.326-3.23c-5.855-3.857-12.783-4.762-19.174-2.485-6.937 2.475-12.096 8.339-14.163 16.062-6.68 24.998 18.398 37.124 33.933 42.124l.219.06c1.58.337 5.278 1.46 8.806 3.419a13.26 13.26 0 0 1 6.6 9.055z"/><path fill="#13706D" d="M144.992 87.446c-.079 0-.159 0-.238-.03a.99.99 0 0 1-.726-1.203l1.422-5.795a.99.99 0 0 1 1.202-.725.99.99 0 0 1 .726 1.202l-1.422 5.795a.985.985 0 0 1-.964.755"/><path fill="#E0F4F3" d="M115.531 60.142H40.935a2.346 2.346 0 0 0-2.346 2.345v96.334a2.346 2.346 0 0 0 2.346 2.346h74.596a2.346 2.346 0 0 0 2.346-2.346V62.487a2.346 2.346 0 0 0-2.346-2.346"/><path fill="#13706D" d="M115.531 162.171H40.935a3.347 3.347 0 0 1-3.34-3.34V62.487a3.347 3.347 0 0 1 3.34-3.34h74.596a3.35 3.35 0 0 1 3.34 3.34v96.334a3.347 3.347 0 0 1-3.34 3.34zM40.935 61.136c-.746 0-1.352.606-1.352 1.351v96.334c0 .746.606 1.352 1.352 1.352h74.596c.746 0 1.352-.606 1.352-1.352V62.487c0-.745-.606-1.352-1.352-1.352z"/><path fill="#fff" d="M77.414 141.715c16.67 0 30.186-13.515 30.186-30.186S94.085 81.343 77.414 81.343c-16.672 0-30.187 13.514-30.187 30.186 0 16.671 13.515 30.186 30.187 30.186"/><path fill="#13706D" d="M77.443 142.709c-12.911 0-25.008-8.081-29.48-20.942-5.646-16.241 2.971-34.043 19.213-39.689 16.24-5.645 34.042 2.972 39.688 19.213s-2.972 34.043-19.213 39.689a31 31 0 0 1-10.208 1.729m-.06-60.372c-3.17 0-6.4.516-9.561 1.62-15.208 5.288-23.269 21.956-17.991 37.154 5.288 15.207 21.956 23.268 37.154 17.99 15.208-5.288 23.268-21.956 17.991-37.154-4.185-12.037-15.516-19.61-27.602-19.61z"/><path fill="#35A099" d="M77.413 134.996c12.96 0 23.467-10.506 23.467-23.467S90.374 88.062 77.413 88.062s-23.467 10.506-23.467 23.467 10.507 23.467 23.467 23.467"/><path fill="#13706D" d="M107.6 112.543a.99.99 0 0 1-.935-.666.987.987 0 0 1 .617-1.262l2.077-.726a2.484 2.484 0 0 0 1.531-3.171l-3.161-9.085a2.483 2.483 0 0 0-3.171-1.53l-.487.169a.987.987 0 0 1-1.262-.616.987.987 0 0 1 .616-1.263l.487-.169a4.484 4.484 0 0 1 5.705 2.763l3.161 9.085a4.44 4.44 0 0 1-.199 3.419 4.45 4.45 0 0 1-2.564 2.277l-2.077.725a1 1 0 0 1-.328.06z"/><path fill="#fff" d="M111.655 70.906a4.204 4.204 0 1 0-8.408 0 4.204 4.204 0 0 0 8.408 0"/><path fill="#13706D" d="M107.45 76.105a5.21 5.21 0 0 1-5.198-5.199 5.21 5.21 0 0 1 5.198-5.198 5.21 5.21 0 0 1 5.199 5.198 5.21 5.21 0 0 1-5.199 5.198m0-8.41a3.215 3.215 0 0 0-3.21 3.211c0 1.77 1.441 3.21 3.21 3.21a3.215 3.215 0 0 0 3.211-3.21c0-1.77-1.441-3.21-3.211-3.21"/><path fill="#fff" d="M98.565 70.906a4.204 4.204 0 1 0-8.41 0 4.204 4.204 0 0 0 8.41 0"/><path fill="#13706D" d="M94.36 76.105a5.21 5.21 0 0 1-5.198-5.199 5.21 5.21 0 0 1 5.198-5.198 5.21 5.21 0 0 1 5.198 5.198 5.21 5.21 0 0 1-5.198 5.198m0-8.41a3.215 3.215 0 0 0-3.21 3.211c0 1.77 1.44 3.21 3.21 3.21s3.21-1.44 3.21-3.21-1.44-3.21-3.21-3.21m-16.132 82.757c-24.988 0-39.639-11.043-40.255-11.51a.985.985 0 0 1-.179-1.391.997.997 0 0 1 1.392-.189c.149.109 14.77 11.102 39.042 11.102s38.894-10.983 39.043-11.092a.993.993 0 0 1 1.213 1.57c-.617.467-15.258 11.51-40.256 11.51m-24.292 11.719a.997.997 0 0 1-.994-.994v-5.407c0-1.7-1.382-3.091-3.091-3.091H38.579a.997.997 0 0 1-.994-.994c0-.547.448-.994.994-.994h11.272a5.08 5.08 0 0 1 5.079 5.079v5.407a.997.997 0 0 1-.994.994m.139-86.067H38.589a.997.997 0 0 1-.994-.993c0-.547.447-.995.994-.995h15.486a4.106 4.106 0 0 0 4.105-4.105v-9.87c0-.546.447-.993.994-.993s.994.447.994.993v9.87a6.1 6.1 0 0 1-6.093 6.093m-5.198 26.589h-2.614a.997.997 0 0 1-.994-.994c0-.547.447-.994.994-.994h2.614c.546 0 .994.447.994.994a.997.997 0 0 1-.994.994m.029 19.74h-2.643a.997.997 0 0 1-.994-.994c0-.547.447-.994.994-.994h2.643c.547 0 .994.447.994.994a.997.997 0 0 1-.994.994"/><path fill="#AFE0DD" d="M99.579 103.826C95.324 91.58 81.946 85.11 69.71 89.364a23.4 23.4 0 0 0-10.735 7.653c-2.465 5.328-2.962 11.58-.874 17.563 4.254 12.246 17.633 18.717 29.868 14.463a23.4 23.4 0 0 0 10.735-7.654c2.465-5.328 2.962-11.58.875-17.563"/><path fill="#13706D" d="M77.394 136a24.4 24.4 0 0 1-10.636-2.455c-5.884-2.843-10.297-7.812-12.444-13.985-4.433-12.742 2.336-26.707 15.078-31.14a24.3 24.3 0 0 1 18.687 1.083c5.884 2.843 10.297 7.812 12.444 13.985a24.3 24.3 0 0 1-1.084 18.686c-2.842 5.884-7.812 10.298-13.984 12.445a24.5 24.5 0 0 1-8.052 1.371zm.04-46.954c-2.486 0-4.98.417-7.396 1.262-11.708 4.065-17.92 16.907-13.845 28.606a22.34 22.34 0 0 0 11.43 12.852c5.407 2.614 11.5 2.972 17.176 1.004s10.237-6.034 12.851-11.441 2.972-11.5 1.004-17.175a22.3 22.3 0 0 0-11.43-12.852 22.4 22.4 0 0 0-9.77-2.256z"/><path fill="#C4EAE7" d="M79.739 92.932A18.43 18.43 0 0 0 65.933 96.6c-1.55 3.36-2.147 7.236-1.352 11.341 1.501 7.633 7.843 13.617 15.546 14.661a18.43 18.43 0 0 0 13.806-3.668c1.55-3.36 2.147-7.236 1.351-11.341-1.5-7.634-7.842-13.617-15.545-14.66"/><path fill="#fff" d="M83.834 106.162a5.596 5.596 0 1 0 0-11.193 5.596 5.596 0 0 0 0 11.193"/><path fill="#C4EAE7" d="M27.268 146.099a4.384 4.384 0 1 0 0-8.767 4.384 4.384 0 0 0 0 8.767"/><path fill="#E0F4F3" d="M190.346 125.067a2.187 2.187 0 1 0 0-4.374 2.187 2.187 0 0 0 0 4.374m-42.551-22.315a2.187 2.187 0 1 0 0-4.373 2.187 2.187 0 0 0 0 4.373M78.984 47.558a3.767 3.767 0 1 0 0-7.534 3.767 3.767 0 0 0 0 7.534m120.815 60.433a3.768 3.768 0 1 0-.002-7.536 3.768 3.768 0 0 0 .002 7.536m-32.443-54.827a2.803 2.803 0 1 0 0-5.606 2.803 2.803 0 0 0 0 5.606"/><path fill="#C4EAE7" d="M17.955 106.072a2.187 2.187 0 1 0 0-4.374 2.187 2.187 0 0 0 0 4.374"/></svg>