<svg width="219" height="180" viewBox="0 0 219 180" fill="none" xmlns="http://www.w3.org/2000/svg">
<path d="M106.988 12.751H111.679C169.08 12.751 215.687 59.3576 215.687 116.758V141.349C215.687 155.96 203.829 167.818 189.218 167.818H29.4495C14.8383 167.818 2.98047 155.96 2.98047 141.349V116.758C2.98047 59.3576 49.587 12.751 106.988 12.751Z" fill="#E0F4F3"/>
<path d="M139.003 87.6356V90.707C139.003 92.7843 141.041 94.4641 143.556 94.4641H174.915C177.43 94.4641 179.467 92.7843 179.467 90.707V51.1177C179.467 49.3286 177.947 47.8874 176.078 47.8874H142.393C140.514 47.8874 139.003 49.3386 139.003 51.1177V68.5716" fill="#AFE0DD"/>
<path d="M174.915 95.4481H143.556C140.494 95.4481 138.009 93.321 138.009 90.697V87.6257C138.009 87.079 138.457 86.6317 139.003 86.6317C139.55 86.6317 139.997 87.079 139.997 87.6257V90.697C139.997 92.2178 141.597 93.4602 143.556 93.4602H174.915C176.873 93.4602 178.473 92.2178 178.473 90.697V51.1078C178.473 49.8753 177.4 48.8714 176.078 48.8714H142.393C141.071 48.8714 139.997 49.8753 139.997 51.1078V68.5616C139.997 69.1083 139.55 69.5556 139.003 69.5556C138.457 69.5556 138.009 69.1083 138.009 68.5616V51.1078C138.009 48.7819 139.977 46.8835 142.393 46.8835H176.078C178.493 46.8835 180.461 48.7819 180.461 51.1078V90.697C180.461 93.3111 177.976 95.4481 174.915 95.4481Z" fill="#13706D"/>
<path d="M143.953 82.3478V84.7233C143.953 86.3335 145.464 87.6356 147.323 87.6356H170.512C172.37 87.6356 173.881 86.3335 173.881 84.7233V54.0499C173.881 52.6683 172.758 51.5451 171.376 51.5451H146.478C145.096 51.5451 143.973 52.6683 143.973 54.0499V67.5677" fill="white"/>
<path d="M170.502 88.6295H147.313C144.907 88.6295 142.949 86.8802 142.949 84.7233V82.3478C142.949 81.8011 143.396 81.3538 143.943 81.3538C144.49 81.3538 144.937 81.8011 144.937 82.3478V84.7233C144.937 85.7769 146.001 86.6416 147.313 86.6416H170.502C171.814 86.6416 172.877 85.7868 172.877 84.7233V54.0499C172.877 53.2149 172.201 52.5391 171.366 52.5391H146.468C145.633 52.5391 144.957 53.2149 144.957 54.0499V67.5677C144.957 68.1143 144.51 68.5616 143.963 68.5616C143.416 68.5616 142.969 68.1143 142.969 67.5677V54.0499C142.969 52.1216 144.54 50.5511 146.468 50.5511H171.366C173.295 50.5511 174.865 52.1216 174.865 54.0499V84.7233C174.865 86.8802 172.907 88.6295 170.502 88.6295Z" fill="#13706D"/>
<path d="M142.164 54.4674C142.164 54.4674 141.369 78.3024 136.409 87.6257H170.412C170.412 87.6257 175.829 70.2414 173.851 53.6125L142.154 54.4674H142.164Z" fill="white"/>
<path d="M170.422 88.6296H136.419C136.071 88.6296 135.743 88.4507 135.564 88.1525C135.385 87.8543 135.375 87.4865 135.534 87.1784C140.325 78.1632 141.16 54.686 141.17 54.4475C141.19 53.9207 141.607 53.5032 142.134 53.4833L173.831 52.6285H173.861C174.358 52.6285 174.785 53.0062 174.845 53.5032C176.833 70.152 171.426 87.7549 171.366 87.9338C171.237 88.3513 170.849 88.6296 170.412 88.6296H170.422ZM137.989 86.6417H169.676C170.621 83.3219 174.418 68.7405 172.976 54.6363L143.128 55.4414C142.929 59.7751 141.915 77.5569 137.999 86.6417H137.989Z" fill="#13706D"/>
<path d="M150.324 72.3585V63.6714H150.265L148.634 64.8045C148.336 65.0132 148.138 65.0828 147.819 65.0828C147.173 65.0828 146.696 64.6057 146.696 63.9298C146.696 63.4527 146.885 63.0849 147.352 62.7569L149.817 61.0771C150.513 60.61 151.07 60.5305 151.726 60.5305C152.918 60.5305 153.614 61.2461 153.614 62.3792V72.3486C153.614 73.3425 152.958 73.9886 151.964 73.9886C150.97 73.9886 150.314 73.3425 150.314 72.3486L150.324 72.3585Z" fill="#13706D"/>
<path d="M157.083 72.3685C157.083 71.7423 157.341 71.3049 157.997 70.7384L161.725 67.3589C163.255 65.9674 163.673 65.371 163.673 64.5162C163.673 63.572 162.947 62.906 161.914 62.906C161.059 62.906 160.462 63.3235 159.985 64.1882C159.568 64.8343 159.18 65.0927 158.514 65.0927C157.66 65.0927 157.143 64.5957 157.143 63.7807C157.143 63.5322 157.182 63.2937 157.282 63.0551C157.848 61.5542 159.588 60.4112 161.963 60.4112C164.935 60.4112 166.893 61.9916 166.893 64.2976C166.893 65.9674 166.039 66.9315 163.971 68.8002L161.377 71.1658V71.2254H165.889C166.734 71.2254 167.221 71.7224 167.221 72.4977C167.221 73.273 166.734 73.7699 165.889 73.7699H158.653C157.59 73.7699 157.103 73.1736 157.103 72.3486L157.083 72.3685Z" fill="#13706D"/>
<path d="M146.835 80.4394V77.4675C146.835 77.219 146.984 77.0798 147.203 77.0798C147.422 77.0798 147.571 77.209 147.571 77.4675V79.1373L148.545 78.1533C148.644 78.0539 148.724 78.0042 148.833 78.0042C149.022 78.0042 149.161 78.1434 149.161 78.3223C149.161 78.4316 149.131 78.5012 149.022 78.6006L148.336 79.2467L149.092 80.2108C149.171 80.3201 149.191 80.3798 149.191 80.4792C149.191 80.6779 149.052 80.8072 148.843 80.8072C148.684 80.8072 148.595 80.7475 148.485 80.5786L147.79 79.6641L147.551 79.8828V80.4295C147.551 80.6779 147.402 80.8072 147.183 80.8072C146.965 80.8072 146.815 80.6779 146.815 80.4295L146.835 80.4394Z" fill="#13706D"/>
<path d="M149.728 81.2843C149.688 81.2147 149.668 81.1451 149.668 81.0755C149.668 80.9264 149.787 80.8072 149.966 80.8072C150.066 80.8072 150.135 80.837 150.225 80.9165C150.423 81.1054 150.612 81.2047 150.861 81.2147C151.268 81.2147 151.497 80.996 151.497 80.6581V80.2307H151.477C151.348 80.5189 151.04 80.7177 150.652 80.7177C149.976 80.7177 149.559 80.2009 149.559 79.3858C149.559 78.5708 149.976 78.034 150.672 78.034C151.059 78.034 151.358 78.2428 151.497 78.541H151.507V78.3919C151.507 78.1434 151.666 78.0142 151.875 78.0142C152.083 78.0142 152.242 78.1334 152.242 78.3919V80.668C152.242 81.3737 151.735 81.7912 150.861 81.7912C150.314 81.7912 149.897 81.5825 149.728 81.2942V81.2843ZM151.517 79.3858C151.517 78.8988 151.278 78.5906 150.91 78.5906C150.543 78.5906 150.324 78.8988 150.324 79.3858C150.324 79.8729 150.553 80.171 150.91 80.171C151.268 80.171 151.517 79.8828 151.517 79.3858Z" fill="#13706D"/>
<path d="M154.051 79.2566C154.051 78.2726 154.618 77.6961 155.512 77.6961C156.079 77.6961 156.516 77.9347 156.745 78.3621C156.795 78.4515 156.824 78.5509 156.824 78.6404C156.824 78.8392 156.695 78.9684 156.486 78.9684C156.317 78.9684 156.208 78.8988 156.129 78.7298C155.989 78.4515 155.791 78.3124 155.522 78.3124C155.105 78.3124 154.836 78.6702 154.836 79.2566C154.836 79.8431 155.105 80.2108 155.522 80.2108C155.801 80.2108 155.999 80.0816 156.139 79.7934C156.218 79.6244 156.308 79.5647 156.477 79.5647C156.695 79.5647 156.834 79.7039 156.834 79.9027C156.834 79.9723 156.814 80.0518 156.785 80.1214C156.606 80.5488 156.119 80.8271 155.542 80.8271C154.608 80.8271 154.061 80.2506 154.061 79.2666L154.051 79.2566Z" fill="#13706D"/>
<path d="M157.332 79.2566C157.332 78.2925 157.908 77.6961 158.822 77.6961C159.737 77.6961 160.313 78.2925 160.313 79.2566C160.313 80.2208 159.737 80.8171 158.822 80.8171C157.908 80.8171 157.332 80.2208 157.332 79.2566ZM159.538 79.2566C159.538 78.6801 159.26 78.3124 158.832 78.3124C158.405 78.3124 158.127 78.6801 158.127 79.2566C158.127 79.8331 158.405 80.1909 158.832 80.1909C159.26 80.1909 159.538 79.8232 159.538 79.2566Z" fill="#13706D"/>
<path d="M160.83 80.4394C160.83 80.3002 160.89 80.1909 161.039 80.0617L161.904 79.2765C162.261 78.9584 162.351 78.8192 162.351 78.6204C162.351 78.4018 162.182 78.2427 161.943 78.2427C161.745 78.2427 161.605 78.3421 161.496 78.5409C161.397 78.69 161.307 78.7497 161.158 78.7497C160.959 78.7497 160.84 78.6304 160.84 78.4415C160.84 78.3819 160.84 78.3322 160.87 78.2726C160.999 77.9247 161.407 77.6563 161.953 77.6563C162.639 77.6563 163.096 78.0241 163.096 78.5608C163.096 78.9484 162.898 79.1671 162.42 79.6045L161.824 80.1511L162.868 80.1611C163.066 80.1611 163.176 80.2804 163.176 80.4593C163.176 80.6382 163.066 80.7574 162.868 80.7574H161.198C160.949 80.7574 160.84 80.6183 160.84 80.4294L160.83 80.4394Z" fill="#13706D"/>
<path d="M163.584 79.6442C163.584 78.9087 164.021 78.4415 164.717 78.4415C165.413 78.4415 165.84 78.8888 165.84 79.5051C165.84 79.6939 165.731 79.7933 165.542 79.7933H164.299V79.8331C164.299 80.1114 164.478 80.3002 164.747 80.3002C164.955 80.3002 165.094 80.2307 165.254 80.0716C165.333 80.002 165.393 79.9722 165.482 79.9722C165.631 79.9722 165.76 80.0716 165.76 80.2306C165.76 80.2903 165.741 80.34 165.711 80.3996C165.562 80.668 165.194 80.827 164.737 80.827C164.001 80.827 163.574 80.3897 163.574 79.6442H163.584ZM165.144 79.3659C165.134 79.1174 164.965 78.9584 164.737 78.9584C164.508 78.9584 164.339 79.1274 164.319 79.3659H165.144Z" fill="#13706D"/>
<path d="M129.084 58.1549C129.084 58.1549 127.503 66.5439 123.547 69.3866L111.361 65.5897C111.361 65.5897 118.011 59.6856 118.17 55.2823L129.084 58.1549Z" fill="#C4EAE7"/>
<path d="M93.3507 56.0676C93.3507 56.0676 87.9436 49.4578 88.3114 44.5974L99.0561 37.7093C99.0561 37.7093 99.3045 46.5952 102.575 49.5473L93.3507 56.0577V56.0676Z" fill="#C4EAE7"/>
<path d="M108.588 32.8389C108.588 32.8389 102.416 31.676 100.318 28.7637L103.111 19.7883C103.111 19.7883 107.455 24.6785 110.705 24.7978L108.588 32.8389Z" fill="#C4EAE7"/>
<path d="M77.358 94.8418C77.845 105.924 69.3368 121.46 59.109 117.474C57.8964 116.997 56.7931 116.51 54.7356 117.673C45.2731 123 35.0652 107.793 34.5782 96.7203C34.2005 88.1823 36.7748 81.6619 44.4084 81.4433C48.2948 81.3339 51.0281 83.5604 55.4314 83.3616C60.2023 83.1529 62.8164 80.6282 66.9712 80.5388C74.068 80.3797 77.0002 86.582 77.3679 94.8418H77.358Z" fill="#C4EAE7"/>
<path d="M74.7936 84.7134C72.9249 85.3793 71.6129 87.5263 71.8316 90.1404C72.1993 94.474 70.7681 109.513 56.6837 112.216C42.6988 114.9 36.3573 104.722 36.2778 104.583C39.6473 113.628 47.4101 121.798 54.7356 117.673C56.803 116.51 57.8963 117.007 59.109 117.474C69.3368 121.46 77.845 105.924 77.358 94.8418C77.1791 90.8063 76.3839 87.2678 74.7936 84.7134Z" fill="#AFE0DD"/>
<path d="M55.7889 82.8447C55.7094 82.8447 55.6398 82.8447 55.5603 82.8149C55.0236 82.6857 54.6956 82.149 54.8248 81.6222C54.8944 81.3439 56.3555 74.6645 50.0339 71.6926C49.537 71.454 49.3282 70.8676 49.5568 70.3706C49.7954 69.8736 50.3818 69.6649 50.8788 69.8935C58.6813 73.5612 56.7729 81.9899 56.7531 82.0794C56.6437 82.5366 56.2362 82.8447 55.7889 82.8447Z" fill="#13706D"/>
<path d="M56.6437 76.5033C56.6437 76.5033 55.3516 61.6338 72.5072 65.2716C72.5072 65.2716 74.0678 79.6243 56.6437 76.5033Z" fill="#AFE0DD"/>
<path d="M61.2458 77.9346C59.7748 77.9346 58.1844 77.7855 56.4748 77.4774C56.0275 77.3979 55.6995 77.0301 55.6598 76.5828C55.6399 76.3244 55.1529 70.142 59.3871 66.3948C62.369 63.7509 66.8616 63.0452 72.726 64.2876C73.1434 64.3771 73.4615 64.7249 73.5112 65.1523C73.541 65.4008 74.1175 71.2055 70.1119 74.9527C67.9848 76.9406 65.0228 77.9346 61.2557 77.9346H61.2458ZM57.6278 75.6584C62.6473 76.4238 66.3846 75.7081 68.7303 73.5115C71.2748 71.1459 71.5631 67.5975 71.5531 66.0867C66.7126 65.1921 63.0747 65.7984 60.7091 67.8758C58.0055 70.2613 57.6477 74.0482 57.6179 75.6485L57.6278 75.6584Z" fill="#13706D"/>
<path d="M45.2731 101.65C44.458 101.65 43.7026 101.153 43.4044 100.348C40.5915 92.665 42.8279 88.5004 43.0963 88.0531C43.6529 87.1088 44.8755 86.7908 45.8197 87.3474C46.7541 87.8941 47.0721 89.0967 46.5354 90.041C46.4459 90.2199 45.0047 93.1421 47.1417 98.9766C47.5194 100.01 46.9926 101.153 45.9589 101.531C45.7303 101.611 45.5017 101.65 45.2731 101.65Z" fill="white"/>
<path d="M50.69 119.76C49.0202 119.76 47.3106 119.293 45.6209 118.349C39.349 114.87 33.9518 105.179 33.5741 96.7601C33.3058 90.7268 34.4786 86.2739 37.043 83.5206C38.852 81.5725 41.317 80.5388 44.3685 80.4493C46.3962 80.3897 48.1256 80.9165 49.7955 81.4135C51.5747 81.9502 53.2445 82.4571 55.3815 82.3676C57.6577 82.2683 59.4468 81.5924 61.1763 80.9364C62.9256 80.2704 64.7346 79.5945 66.9412 79.5448C73.8293 79.4156 77.9145 84.8028 78.3518 94.7921C78.7196 103.072 74.4754 112.793 68.7005 116.927C65.5397 119.194 62.0907 119.701 58.751 118.398L58.6317 118.349C57.5384 117.921 56.8128 117.633 55.2225 118.528C53.7713 119.343 52.2505 119.75 50.69 119.75V119.76ZM44.6866 82.4372C44.5971 82.4372 44.5176 82.4372 44.4281 82.4372C41.9333 82.5068 39.9354 83.3318 38.4942 84.8724C36.3373 87.1883 35.3235 91.2735 35.562 96.6707C35.9 104.344 40.9493 113.478 46.585 116.609C49.2587 118.09 51.8331 118.16 54.2484 116.798C56.6538 115.437 58.095 116.003 59.3573 116.5L59.4766 116.55C62.21 117.613 64.9235 117.196 67.5475 115.317C72.7459 111.6 76.7018 102.436 76.3738 94.8915C76.1054 88.7787 74.2965 81.5327 67.2294 81.5327C67.1499 81.5327 67.0704 81.5327 66.9909 81.5327C65.1223 81.5725 63.5518 82.1689 61.882 82.795C60.0034 83.5008 58.0652 84.2363 55.471 84.3556C53.0159 84.4649 51.0876 83.8785 49.2289 83.3218C47.7181 82.8646 46.2968 82.4372 44.6965 82.4372H44.6866Z" fill="#13706D"/>
<path d="M116.003 115.546C116.003 115.546 111.103 119.204 107.137 115.546C104.93 113.508 106.521 111.58 108.369 110.258C109.691 109.314 110.357 107.634 109.87 106.083C109.473 104.821 109.532 103.181 111.142 101.432C112.554 99.911 113.916 99.6128 115.039 99.8016C116.291 100.01 117.553 99.5035 118.219 98.42C118.657 97.7243 119.372 96.9291 120.515 96.0644C124.69 92.9235 124.73 104.414 124.73 104.414" fill="#AFE0DD"/>
<path d="M111.212 118.16C109.632 118.16 107.962 117.663 106.461 116.281C105.467 115.367 105 114.373 105.069 113.3C105.149 111.978 106.063 110.685 107.783 109.453C108.797 108.737 109.254 107.475 108.916 106.392C108.479 105.03 108.389 102.952 110.407 100.766C112.226 98.7977 114.015 98.6288 115.198 98.8375C116.082 98.9866 116.927 98.6188 117.364 97.9131C117.911 97.0285 118.766 96.1439 119.899 95.2891C121.201 94.3051 122.225 94.474 122.861 94.7822C125.475 96.0743 125.704 102.485 125.704 104.424C125.704 104.97 125.266 105.417 124.71 105.417C124.163 105.417 123.716 104.97 123.716 104.424C123.706 101.034 123 97.0683 121.976 96.5613C121.738 96.452 121.37 96.6707 121.102 96.8695C120.167 97.5752 119.482 98.2809 119.054 98.9568C118.18 100.358 116.54 101.074 114.86 100.796C113.826 100.627 112.842 101.054 111.858 102.118C110.745 103.32 110.397 104.523 110.804 105.785C111.421 107.714 110.665 109.841 108.936 111.073C107.763 111.908 107.087 112.743 107.047 113.419C107.037 113.588 107.007 114.085 107.793 114.81C111.103 117.852 115.218 114.87 115.396 114.741C115.834 114.413 116.46 114.502 116.788 114.95C117.116 115.387 117.027 116.013 116.589 116.341C115.466 117.176 113.428 118.16 111.212 118.16Z" fill="#13706D"/>
<path d="M161.725 135.892L162.56 140.246C162.997 142.502 161.397 144.45 159.101 144.47L155.204 144.5C148.147 144.549 141.011 142.691 134.57 139.132L134.172 138.914C128.884 135.982 124.213 131.986 120.505 127.225L119.631 126.102C117.126 122.881 115.983 118.915 116.47 115.148L116.5 114.95C117.086 110.357 120.028 106.6 124.322 104.93L125.515 104.463C129.073 103.082 133.198 103.271 136.935 104.98C143.187 107.843 148.744 112.157 153.077 117.524C157.48 122.971 160.462 129.302 161.725 135.902V135.892Z" fill="white"/>
<path d="M132.393 117.723C132.393 117.723 132.373 117.723 132.363 117.723C132.224 117.723 132.095 117.693 131.976 117.643C131.787 117.653 131.578 117.603 131.399 117.484C130.952 117.186 130.813 116.609 131.101 116.152C131.369 115.725 131.717 115.516 132.125 115.506C132.274 115.486 132.413 115.526 132.572 115.606C132.781 115.606 132.989 115.665 133.158 115.804C133.596 116.132 133.695 116.749 133.367 117.186C133.039 117.633 132.661 117.733 132.383 117.733L132.393 117.723Z" fill="#13706D"/>
<path d="M135.276 114.532C135.007 114.532 134.739 114.423 134.54 114.214C134.172 113.806 134.192 113.18 134.6 112.812C139.987 107.843 145.026 108.777 145.245 108.827C145.782 108.936 146.13 109.453 146.03 109.99C145.921 110.526 145.394 110.874 144.867 110.775C144.678 110.745 140.543 110.039 135.951 114.274C135.763 114.453 135.514 114.532 135.276 114.532Z" fill="#13706D"/>
<path d="M142.949 127.175C142.74 127.175 142.532 127.106 142.353 126.976C141.915 126.648 141.836 126.022 142.164 125.585C149.43 116.033 154.807 118.508 155.035 118.617C155.532 118.856 155.731 119.452 155.493 119.949C155.254 120.436 154.668 120.645 154.181 120.416C154.071 120.377 149.887 118.727 143.754 126.797C143.555 127.056 143.257 127.185 142.959 127.185L142.949 127.175Z" fill="#13706D"/>
<path d="M119.631 126.082L120.505 127.205C124.203 131.976 128.874 135.972 134.172 138.894L134.57 139.113C141.011 142.671 148.147 144.53 155.204 144.48L159.101 144.45L149.201 140.295C148.684 140.077 148.237 139.749 147.869 139.321L140.822 131.081C140.027 130.147 138.814 129.69 137.601 129.869C135.862 130.127 134.202 129.074 133.685 127.394L133.258 126.022C132.731 124.323 131.061 123.17 129.302 123.448C127.99 123.657 126.429 123.339 125.187 121.44C122.463 117.295 122.98 106.332 122.98 106.332L122.662 105.706C119.283 107.624 117.017 110.964 116.5 114.94L116.47 115.138C115.983 118.905 117.126 122.861 119.631 126.092V126.082Z" fill="#C4EAE7"/>
<path d="M154.797 134.799C154.548 134.799 154.31 134.709 154.111 134.53C153.713 134.153 153.693 133.526 154.071 133.129C158.425 128.537 160.929 130.386 161.208 130.614C161.625 130.962 161.685 131.588 161.337 132.016C160.999 132.423 160.393 132.493 159.975 132.175C159.886 132.125 158.474 131.38 155.522 134.501C155.323 134.709 155.065 134.809 154.797 134.809V134.799Z" fill="#13706D"/>
<path d="M154.926 145.484C147.789 145.484 140.593 143.585 134.093 139.987L133.695 139.769C128.318 136.797 123.487 132.662 119.73 127.811L118.855 126.688C116.201 123.269 114.979 119.005 115.496 114.999L115.525 114.8C116.162 109.831 119.322 105.785 123.974 103.976L125.167 103.509C128.954 102.038 133.407 102.227 137.363 104.046C143.744 106.968 149.439 111.401 153.862 116.868C158.355 122.434 161.416 128.944 162.718 135.683L163.553 140.037C163.812 141.409 163.484 142.78 162.639 143.804C161.794 144.828 160.512 145.424 159.12 145.434L155.224 145.464C155.125 145.464 155.035 145.464 154.936 145.464L154.926 145.484ZM130.494 104.533C128.894 104.533 127.324 104.811 125.872 105.378L124.68 105.845C120.714 107.385 118.03 110.835 117.484 115.069L117.454 115.268C117.006 118.756 118.08 122.474 120.416 125.475L121.29 126.599C124.888 131.23 129.51 135.186 134.649 138.029L135.047 138.248C141.338 141.727 148.276 143.565 155.184 143.496L159.081 143.466C159.896 143.466 160.601 143.138 161.078 142.562C161.555 141.985 161.734 141.23 161.575 140.425L160.74 136.071C159.508 129.64 156.586 123.438 152.292 118.13C148.068 112.902 142.611 108.658 136.518 105.865C134.58 104.98 132.512 104.523 130.494 104.523V104.533Z" fill="#13706D"/>
<path d="M124.014 126.181C124.292 128.05 122.99 129.789 121.122 130.068C119.253 130.346 117.514 129.044 117.235 127.175C116.957 125.307 118.259 123.567 120.128 123.289" fill="#AFE0DD"/>
<path d="M120.615 131.101C118.458 131.101 116.559 129.511 116.241 127.314C115.893 124.899 117.563 122.653 119.978 122.305C120.525 122.215 121.022 122.603 121.102 123.14C121.181 123.686 120.803 124.183 120.267 124.263C118.945 124.462 118.02 125.694 118.209 127.026C118.408 128.358 119.64 129.262 120.972 129.084C121.618 128.994 122.185 128.646 122.573 128.129C122.96 127.613 123.119 126.966 123.03 126.32C122.95 125.774 123.328 125.277 123.865 125.197C124.402 125.108 124.908 125.495 124.988 126.032C125.157 127.205 124.869 128.368 124.163 129.312C123.457 130.256 122.424 130.873 121.261 131.042C121.042 131.071 120.833 131.091 120.624 131.091L120.615 131.101Z" fill="#13706D"/>
<path d="M32.2227 44.4682C32.9184 45.6708 33.9621 46.6946 35.2145 47.4003C36.1985 47.9569 37.1328 48.2154 38.0373 48.2651C39.4984 48.3545 40.7508 49.2193 41.2975 50.5909C43.0071 54.9047 47.122 58.0257 52.062 58.2146C55.1333 58.3338 57.976 57.2802 60.1727 55.4712C60.9778 54.8053 62.0115 54.5469 63.0352 54.7456C64.2578 54.9842 65.55 55.014 66.8918 54.7854C71.1857 54.0698 74.7043 50.7301 75.6088 46.4759C77.0401 39.7171 72.0604 33.6241 65.4704 33.3756C63.413 33.2961 61.4747 33.803 59.795 34.7473C58.9203 35.2343 57.8965 35.3238 56.9721 34.956C55.7297 34.459 54.3779 34.1608 52.9665 34.1012C50.6903 34.0118 48.5335 34.5684 46.6748 35.6021C45.4224 36.2979 43.9016 36.2183 42.7586 35.3536C42.6691 35.284 42.5797 35.2443 42.4902 35.1747C38.8722 38.0373 35.453 41.1484 32.2425 44.4582L32.2227 44.4682Z" fill="white"/>
<path d="M134.192 22.5415C135.176 23.0981 136.111 23.3566 137.015 23.4063C138.476 23.4957 139.729 24.3605 140.275 25.7321C141.985 30.0459 146.1 33.1669 151.04 33.3558C154.111 33.475 156.954 32.4214 159.151 30.6124C159.956 29.9465 160.989 29.6881 162.013 29.8869C163.236 30.1254 164.528 30.1552 165.87 29.9266C166.615 29.7974 167.341 29.5887 168.036 29.3203C156.825 22.0744 144.122 16.9356 130.495 14.4507C130.376 14.898 130.306 15.3552 130.276 15.8323C130.117 18.6154 131.777 21.1699 134.202 22.5415H134.192Z" fill="white"/>
<path d="M77.9944 152.243C81.3155 152.243 84.0078 149.55 84.0078 146.229C84.0078 142.908 81.3155 140.216 77.9944 140.216C74.6733 140.216 71.981 142.908 71.981 146.229C71.981 149.55 74.6733 152.243 77.9944 152.243Z" fill="#AFE0DD"/>
<path d="M77.9942 153.237C74.1277 153.237 70.9868 150.096 70.9868 146.229C70.9868 142.363 74.1277 139.222 77.9942 139.222C81.8607 139.222 85.0016 142.363 85.0016 146.229C85.0016 150.096 81.8607 153.237 77.9942 153.237ZM77.9942 141.21C75.2211 141.21 72.9747 143.466 72.9747 146.229C72.9747 148.992 75.231 151.249 77.9942 151.249C80.7574 151.249 83.0137 148.992 83.0137 146.229C83.0137 143.466 80.7574 141.21 77.9942 141.21Z" fill="#13706D"/>
<path d="M96.6707 154.211C99.9918 154.211 102.684 151.518 102.684 148.197C102.684 144.876 99.9918 142.184 96.6707 142.184C93.3495 142.184 90.6572 144.876 90.6572 148.197C90.6572 151.518 93.3495 154.211 96.6707 154.211Z" fill="#AFE0DD"/>
<path d="M96.6705 155.205C92.804 155.205 89.6631 152.064 89.6631 148.197C89.6631 144.331 92.804 141.19 96.6705 141.19C100.537 141.19 103.678 144.331 103.678 148.197C103.678 152.064 100.537 155.205 96.6705 155.205ZM96.6705 143.178C93.8973 143.178 91.651 145.434 91.651 148.197C91.651 150.96 93.9073 153.217 96.6705 153.217C99.4337 153.217 101.69 150.96 101.69 148.197C101.69 145.434 99.4337 143.178 96.6705 143.178Z" fill="#13706D"/>
<path d="M95.3984 143.307C95.2891 143.307 95.1797 143.287 95.0704 143.247C94.5535 143.068 94.2752 142.502 94.4542 141.985C96.2532 136.816 93.8777 132.254 92.347 130.038C89.8621 136.737 82.7553 141.766 82.4273 142.005C81.98 142.323 81.3538 142.214 81.0457 141.756C80.7276 141.309 80.837 140.683 81.2843 140.375C81.3638 140.315 89.4645 134.57 90.9654 127.712C91.0449 127.354 91.3133 127.066 91.6611 126.966C92.009 126.867 92.3967 126.966 92.6452 127.235C92.9135 127.513 99.2649 134.222 96.3228 142.651C96.1836 143.059 95.796 143.317 95.3885 143.317L95.3984 143.307Z" fill="#13706D"/>
<path d="M80.0718 133.954C80.0718 133.954 81.9007 127.752 91.87 128.159C91.87 128.159 93.5896 135.554 80.0718 133.954Z" fill="#9DD1CC"/>
<path d="M83.6101 135.176C82.4869 135.176 81.2644 135.097 79.9523 134.938C79.6641 134.898 79.4057 134.739 79.2367 134.501C79.0777 134.252 79.028 133.954 79.1174 133.676C79.1969 133.387 81.2743 126.738 91.9096 127.165C92.3569 127.185 92.7346 127.493 92.834 127.931C92.8539 128.04 93.4105 130.515 91.5518 132.582C90.0112 134.302 87.3474 135.167 83.6002 135.167L83.6101 135.176ZM81.6023 133.109C86.8404 133.517 89.1067 132.364 90.0807 131.27C90.7367 130.545 90.9157 129.72 90.9455 129.143C85.111 129.143 82.6062 131.608 81.6122 133.119L81.6023 133.109Z" fill="#13706D"/>
<path d="M91.8698 129.163C91.7108 129.163 91.5617 129.123 91.4126 129.054C90.9256 128.805 90.7367 128.209 90.9852 127.722C91.025 127.642 91.7605 126.122 90.9554 124.273C90.7367 123.766 90.9653 123.179 91.4722 122.961C91.9792 122.742 92.5557 122.971 92.7843 123.478C93.977 126.231 92.8041 128.537 92.7545 128.636C92.5755 128.974 92.2277 129.173 91.8698 129.173V129.163Z" fill="#13706D"/>
<path d="M77.4775 146.229C78.3393 146.229 79.038 145.531 79.038 144.669C79.038 143.807 78.3393 143.108 77.4775 143.108C76.6157 143.108 75.917 143.807 75.917 144.669C75.917 145.531 76.6157 146.229 77.4775 146.229Z" fill="white"/>
<path d="M95.7265 147.79C96.5884 147.79 97.287 147.091 97.287 146.229C97.287 145.367 96.5884 144.669 95.7265 144.669C94.8647 144.669 94.166 145.367 94.166 146.229C94.166 147.091 94.8647 147.79 95.7265 147.79Z" fill="white"/>
</svg>
