<svg xmlns="http://www.w3.org/2000/svg" width="220" height="180" fill="none"><path fill="#E0F4F3" d="M107.654 12.751h4.692c57.401 0 104.007 46.607 104.007 104.007v24.591c0 14.611-11.858 26.469-26.469 26.469H30.116c-14.611 0-26.469-11.858-26.469-26.469v-24.591c0-57.4 46.607-104.007 104.007-104.007"/><path fill="#13706D" d="M128.309 48.623a.98.98 0 0 1-.577-.189l-15.813-11.242a.99.99 0 0 1-.239-1.381.99.99 0 0 1 1.382-.239l15.813 11.242a.99.99 0 0 1-.576 1.799z"/><path fill="#13706D" d="M96.343 46.098a.99.99 0 0 1-.874-.517.99.99 0 0 1 .397-1.342l15.655-8.448.199-4.88c.02-.547.497-.975 1.033-.955a1 1 0 0 1 .955 1.034l-.219 5.447a.99.99 0 0 1-.517.835L96.82 45.989a1 1 0 0 1-.467.12z"/><path fill="#13706D" d="M112.863 31.925h-.169a.985.985 0 0 1-.964-1.024c.02-.547.457-1.014 1.023-.964 2.336.08 4.344-1.82 4.414-4.185a4.32 4.32 0 0 0-4.185-4.413 4.32 4.32 0 0 0-3.071 1.183 4.22 4.22 0 0 0-1.332 3.001c-.02.547-.418.984-1.024.965a.985.985 0 0 1-.964-1.024 6.2 6.2 0 0 1 1.958-4.393 6.25 6.25 0 0 1 4.493-1.72 6.294 6.294 0 0 1 6.123 6.45 6.296 6.296 0 0 1-6.282 6.124z"/><path fill="#AFE0DD" d="M61.773 144.241s-1.49 8.707.308 9.89c1.8 1.183 4.831 1.501 7.614 2.922 2.793 1.422 5.517.925 5.576-1.55.06-2.475 1.442-6.64 1.442-6.64"/><path fill="#13706D" d="M72.627 158.833c-1.043 0-2.206-.299-3.379-.895-1.282-.656-2.624-1.064-3.926-1.461-1.412-.427-2.753-.835-3.787-1.521-2.107-1.391-1.223-8.081-.746-10.894a1 1 0 0 1 1.143-.815 1 1 0 0 1 .816 1.143c-.696 4.096-.756 8.33-.12 8.896.795.517 1.939.865 3.27 1.273 1.312.397 2.803.854 4.245 1.59 1.401.716 2.802.885 3.578.427.368-.218.546-.586.556-1.113.06-2.594 1.432-6.749 1.491-6.928a.986.986 0 0 1 1.253-.626.986.986 0 0 1 .626 1.252c-.01.04-1.332 4.056-1.392 6.342-.03 1.222-.576 2.206-1.53 2.773-.597.358-1.322.527-2.117.527z"/><path fill="#AFE0DD" d="M147.83 148.714s1.659 4.871 2.266 6.719c.606 1.849 4.304 1.591 6.739.418s4.403-3.986 3.558-9.035"/><path fill="#13706D" d="M152.889 157.759c-.775 0-1.511-.109-2.127-.378-.805-.338-1.362-.914-1.6-1.65-.607-1.838-2.266-6.699-2.266-6.709l1.878-.646s1.66 4.88 2.276 6.729c.02.07.09.269.487.438 1.064.447 3.251.178 4.881-.607 1.5-.725 3.896-2.723 3.011-7.971a.992.992 0 1 1 1.958-.328c1.133 6.779-2.494 9.313-4.115 10.088-1.232.597-2.882 1.014-4.393 1.014z"/><path fill="#AFE0DD" d="M128.309 47.629c-14.452 4.741-31.002-.169-31.002-.169l-3.558 9.85 32.423 5.139 3.479-5.139z"/><path fill="#13706D" d="M126.162 63.443c-.05 0-.1 0-.159-.01L93.58 58.294a1.03 1.03 0 0 1-.706-.477 1.01 1.01 0 0 1-.08-.845l3.56-9.85a.987.987 0 0 1 1.212-.616c.159.05 16.43 4.77 30.415.179.278-.09.586-.05.835.1.248.158.417.417.457.705l1.342 9.68c.03.24-.02.488-.159.697l-3.479 5.138a1 1 0 0 1-.825.438zm-31.071-6.928 30.604 4.85 2.912-4.303-1.123-8.14c-12.504 3.667-25.962.665-29.56-.27l-2.833 7.853z"/><path fill="#fff" d="m108.27 55.491-.109-2.445 6.868-.219.14 3.509"/><path fill="#13706D" d="M115.169 57.33a.996.996 0 0 1-.994-.954l-.1-2.525-4.88.15.06 1.44a.99.99 0 0 1-.954 1.034.974.974 0 0 1-1.034-.954l-.11-2.445a.95.95 0 0 1 .269-.716 1 1 0 0 1 .696-.318l6.868-.209c.537 0 1.004.408 1.024.955l.139 3.508a1 1 0 0 1-.954 1.034h-.04z"/><path fill="#C4EAE7" d="M95.578 44.488s5.596 12.315 16.847 12.106 16.708-10.267 16.708-10.267l2.913 1.004s8.14 1.252 11.858 10.337 8.975 23.606 8.975 23.606 3.121 20.774 3.459 27.354 1.113 22.622 2.495 27.244c1.381 4.622 2.455 8.161 1.58 10.934-.874 2.773-10.506 2.246-12.573 1.898s-1.76-3.648-1.76-3.648-7.007 4.195-15.585 2.137c-8.578-2.067-19.839-2.405-25.753-2.634-5.914-.228-18.716 3.052-25.376-3.737 0 0-.447 7.564-2.634 8.041s-15.287-1.58-15.426-5.973c-.14-4.394 6.023-27.096 5.835-37.383-.19-10.288 3.389-27.702 3.389-27.702s7.345-24.113 13.945-28.307c6.6-4.185 11.103-5.01 11.103-5.01"/><path fill="#13706D" d="M152.7 149.996c-2.693 0-4.97-.288-5.029-.298-1.63-.278-2.316-1.68-2.535-3.041-2.564 1.163-8.24 3.111-14.879 1.51-8.061-1.938-18.448-2.335-24.65-2.564l-.915-.04c-1.352-.049-3.061.09-5.05.249-5.993.477-14.004 1.113-19.47-2.952-.329 2.793-1.164 6.53-3.241 6.987-2.167.477-11.073-.904-14.77-3.777-1.203-.934-1.829-1.988-1.869-3.131-.06-1.878.885-6.53 2.087-12.414 1.72-8.439 3.857-18.945 3.748-24.988-.18-10.288 3.27-27.205 3.419-27.92.328-1.094 7.554-24.61 14.382-28.944 6.68-4.245 11.262-5.12 11.45-5.15a.994.994 0 0 1 1.084.567c.05.12 5.497 11.73 15.933 11.52 10.516-.198 15.794-9.65 15.854-9.75a1 1 0 0 1 1.203-.468l2.832.984c1.004.18 8.817 1.87 12.524 10.934 3.678 8.995 8.936 23.497 8.986 23.646.019.06.039.13.049.19.129.854 3.131 20.892 3.469 27.442l.05.984c.368 7.057 1.123 21.728 2.405 26.032l.04.129c1.391 4.662 2.495 8.349 1.531 11.391-.746 2.365-5.07 2.882-8.658 2.882zm-6.629-5.924a.985.985 0 0 1 .984 1.084c0 .02-.16 2.395.934 2.584 3.369.567 10.963.358 11.46-1.223.775-2.455-.248-5.884-1.54-10.217l-.04-.13c-1.352-4.522-2.117-19.362-2.485-26.488l-.05-.985c-.328-6.222-3.2-25.604-3.439-27.154-.457-1.263-5.417-14.9-8.926-23.478-3.439-8.418-10.774-9.68-11.092-9.73a.5.5 0 0 1-.169-.04l-2.157-.746c-1.541 2.406-7.107 9.87-17.126 10.06h-.308c-10.059 0-15.655-9.215-17.096-11.948-1.49.407-5.198 1.63-10.029 4.701-5.159 3.27-11.51 21.142-13.528 27.752-.01.079-3.528 17.334-3.35 27.393.11 6.262-2.057 16.887-3.786 25.415-1.123 5.527-2.098 10.308-2.048 11.958.02.526.388 1.073 1.103 1.63 3.25 2.524 11.6 3.747 13.12 3.409.657-.149 1.63-3.36 1.86-7.137a.99.99 0 0 1 .645-.874.97.97 0 0 1 1.054.238c4.771 4.861 13.24 4.185 19.422 3.688 2.047-.169 3.817-.308 5.278-.249l.904.03c6.282.239 16.788.636 25.038 2.624 8.061 1.938 14.77-1.978 14.84-2.018.159-.089.328-.139.507-.139z"/><path fill="#13706D" d="M112.425 61.018c-15.973 0-20.585-14.492-20.624-14.641a1 1 0 0 1 .656-1.243.984.984 0 0 1 1.242.656c.17.537 4.254 13.24 18.726 13.24h.11c14.621-.07 18.527-11.878 18.567-11.998a.99.99 0 0 1 1.252-.645.993.993 0 0 1 .646 1.252c-.04.13-4.403 13.309-20.456 13.378zm-33.069 80.798c-.06 0-.129 0-.189-.02a1 1 0 0 1-.785-1.163l2.386-12.096c.795-4.056 1.103-8.2.894-12.325-.417-8.29-.745-23.438 1.73-31.707 3.37-11.282.924-26.887.904-27.046a.998.998 0 0 1 1.968-.318c.11.656 2.545 16.202-.954 27.93-2.386 7.982-2.058 22.871-1.65 31.031.219 4.294-.1 8.598-.924 12.813l-2.386 12.096a.99.99 0 0 1-.974.805zm66.714 4.244h-.099a.993.993 0 0 1-.895-1.083c.348-3.638-1.451-10.198-3.19-16.54-1.799-6.56-3.658-13.338-3.519-17.921.08-2.614-.169-8.289-.427-14.293-.249-5.765-.517-11.728-.547-16.191-.059-6.878 2.256-17.355 2.356-17.792a.995.995 0 0 1 1.183-.755.99.99 0 0 1 .755 1.182c-.02.11-2.356 10.695-2.306 17.345.04 4.423.298 10.367.547 16.122.268 6.043.517 11.748.427 14.442-.129 4.284 1.69 10.914 3.449 17.335 1.869 6.818 3.638 13.259 3.25 17.255a.983.983 0 0 1-.984.894"/><path fill="#13706D" d="M138.715 90.826a.98.98 0 0 1-.924-.636c-2.306-5.993-4.403-19.134-4.493-19.69a.986.986 0 0 1 .825-1.133.984.984 0 0 1 1.133.825c.02.139 2.157 13.498 4.384 19.292a.99.99 0 0 1-.567 1.283 1.1 1.1 0 0 1-.358.07zm-65.73-11.629c-.07 0-.139 0-.209-.02a23 23 0 0 0-2.325-.378.99.99 0 0 1-.905-1.073.986.986 0 0 1 1.074-.905c.04 0 1.073.1 2.564.418.537.12.875.646.765 1.183a1 1 0 0 1-.974.785zm7.186 2.873c-.188 0-.387-.06-.556-.17-.925-.626-2.018-1.192-3.25-1.67a1 1 0 0 1-.577-1.282.99.99 0 0 1 1.282-.566c1.382.527 2.614 1.163 3.668 1.878a.99.99 0 0 1 .258 1.382 1 1 0 0 1-.825.437zm3.837 4.95a1 1 0 0 1-.954-.716 7.1 7.1 0 0 0-.925-1.968.993.993 0 0 1 .269-1.382.993.993 0 0 1 1.382.268c.526.786.924 1.63 1.182 2.515a.996.996 0 0 1-.954 1.272zm54.836 8.05c-.198 0-.407-.06-.586-.188a1 1 0 0 1-.219-1.392s.587-.795 1.541-1.998a1.004 1.004 0 0 1 1.401-.159c.428.338.497.964.159 1.402-.924 1.153-1.481 1.928-1.49 1.938a1 1 0 0 1-.806.407zm4.593-5.605a.95.95 0 0 1-.666-.259.99.99 0 0 1-.07-1.401 55 55 0 0 1 3.399-3.48.99.99 0 0 1 1.402.06.98.98 0 0 1-.06 1.402c-1.024.944-2.127 2.077-3.27 3.34a1 1 0 0 1-.735.328zm7.126-6.312a.98.98 0 0 1-.865-.507.985.985 0 0 1 .378-1.352c.964-.546 1.869-.884 2.674-.994a1.003 1.003 0 0 1 1.123.855 1.003 1.003 0 0 1-.855 1.123c-.546.08-1.212.328-1.958.756a1 1 0 0 1-.487.129zm-67.519 52.351q-.194-.002-.388-.079c-1.45-.606-2.325-1.143-2.355-1.163a.99.99 0 0 1-.328-1.362.99.99 0 0 1 1.362-.328s.795.477 2.097 1.034a.985.985 0 0 1 .526 1.302.99.99 0 0 1-.914.606zm50.155 2.277a.995.995 0 0 1-.994-.984c0-.547.437-.994.984-1.004a47 47 0 0 0 4.513-.259 1 1 0 0 1 1.093.885.993.993 0 0 1-.885 1.093 51 51 0 0 1-4.701.269zm-4.622-.149h-.079a42 42 0 0 1-4.692-.627 1.005 1.005 0 0 1-.785-1.173 1.006 1.006 0 0 1 1.173-.785c1.362.269 2.862.477 4.463.597a1 1 0 0 1 .914 1.073.997.997 0 0 1-.994.915m-37.273-.358c-1.322 0-2.684-.139-4.055-.418a.996.996 0 0 1-.776-1.173.99.99 0 0 1 1.173-.775c1.481.298 2.912.427 4.354.368a.985.985 0 0 1 1.033.954.99.99 0 0 1-.954 1.034c-.258.01-.517.02-.775.02zm5.298-.716a1 1 0 0 1-.975-.815 1.007 1.007 0 0 1 .796-1.163c1.58-.288 3.13-.547 4.602-.755a.99.99 0 0 1 1.123.845.99.99 0 0 1-.845 1.123c-1.441.208-2.962.457-4.513.745-.06.01-.119.02-.178.02zm22.93-.696c-.069 0-.149 0-.219-.02a31.5 31.5 0 0 0-4.423-.656 1 1 0 0 1-.914-1.073c.05-.547.517-.954 1.073-.915 1.68.14 3.261.378 4.702.706a.986.986 0 0 1 .745 1.193 1.004 1.004 0 0 1-.964.775zm-13.786-.576c-.507 0-.944-.388-.994-.905a.99.99 0 0 1 .905-1.073 72 72 0 0 1 4.681-.249c.537-.03 1.004.428 1.004.974 0 .547-.427 1.004-.984 1.014a62 62 0 0 0-4.542.239h-.09zm36.617 1.421a.995.995 0 0 1-.278-1.948c1.371-.398 1.7-.745 1.739-.775a.993.993 0 1 1 1.501 1.302c-.477.546-1.352.994-2.684 1.381a.9.9 0 0 1-.278.04m50.841 5.487h-29.372a.997.997 0 0 1-.994-.994c0-.547.448-.994.994-.994h28.547c3.976.099 14.79-.437 18.378-4.006 0-.735-.149-2.644-1.421-4.095-1.084-1.232-2.773-1.908-5.02-1.998-8.269-.348-23.298-11.361-23.934-11.828-.149-.119-1.123-.855-2.435.03-.368.249-.577.646-.915 1.342-.845 1.739-1.988 4.115-7.892 4.97-5.069.735-6.749-1.273-8.101-2.883-.447-.537-.834-.994-1.302-1.292a.994.994 0 0 1-.288-1.372.994.994 0 0 1 1.372-.288c.715.467 1.232 1.084 1.739 1.68 1.203 1.421 2.326 2.763 6.302 2.187 4.85-.706 5.665-2.386 6.391-3.867.378-.775.765-1.57 1.6-2.127 2.088-1.391 4.036-.557 4.781.07.09.069 15.118 11.082 22.782 11.4 2.822.12 4.989 1.024 6.45 2.694 2.177 2.495 1.899 5.755 1.889 5.884-.02.209-.109.408-.239.567-4.045 4.602-15.943 4.93-19.272 4.93z"/><path fill="#13706D" d="M169.558 136.816c-2.515 0-4.89-.119-7.067-.357a.98.98 0 0 1-.875-1.094.98.98 0 0 1 1.094-.874c2.544.278 5.367.397 8.399.338 1.918-.04 4.075-.05 6.401-.07 10.386-.07 24.61-.169 33.367-2.594a.99.99 0 0 1 1.222.696.99.99 0 0 1-.696 1.222c-9.005 2.495-23.377 2.594-33.883 2.664-2.316.02-4.463.03-6.372.069-.536.01-1.063.02-1.58.02z"/><path fill="#13706D" d="M200.997 135.624h-.04a.997.997 0 0 1-.954-1.034c.039-1.123.288-4.88 1.6-6.083a1.68 1.68 0 0 1 1.232-.467.993.993 0 0 1 .06 1.978c-.407.477-.825 2.624-.904 4.642a.99.99 0 0 1-.994.954z"/><path fill="#AFE0DD" d="M165.135 132.692a2.933 2.933 0 1 0-.001-5.865 2.933 2.933 0 0 0 .001 5.865"/><path fill="#13706D" d="M165.135 133.685a3.93 3.93 0 0 1-3.927-3.926 3.93 3.93 0 0 1 3.927-3.926 3.93 3.93 0 0 1 3.926 3.926 3.93 3.93 0 0 1-3.926 3.926m0-5.864a1.94 1.94 0 0 0-1.939 1.938c0 1.074.865 1.939 1.939 1.939a1.935 1.935 0 0 0 1.938-1.939 1.935 1.935 0 0 0-1.938-1.938m19.759-1.938a.986.986 0 0 1-.835-1.521l2.108-3.349a.984.984 0 0 1 1.371-.309.986.986 0 0 1 .308 1.372l-2.107 3.35a1.01 1.01 0 0 1-.845.467zm2.943 1.938a.986.986 0 0 1-.835-1.521l2.107-3.349a.985.985 0 0 1 1.372-.308.985.985 0 0 1 .308 1.371l-2.107 3.35a1.01 1.01 0 0 1-.845.467zm3.32 1.68a.985.985 0 0 1-.835-1.521l2.107-3.349a.985.985 0 0 1 1.372-.309.986.986 0 0 1 .308 1.372l-2.108 3.35a1 1 0 0 1-.844.467zm-9.443-5.288a.986.986 0 0 1-.835-1.521l2.107-3.349a.985.985 0 0 1 1.372-.308.985.985 0 0 1 .308 1.371l-2.107 3.35a1.01 1.01 0 0 1-.845.467z"/><path fill="#AFE0DD" d="m23.417 114.82 1.282 28.209c.09 1.948 4.482 3.319 9.82 3.081 5.337-.239 9.592-2.018 9.502-3.956l-1.282-28.208-19.313.874z"/><path fill="#13706D" d="M33.306 147.134c-2.226 0-4.313-.279-5.963-.795-2.922-.915-3.588-2.287-3.638-3.261l-1.282-28.208a1 1 0 0 1 .258-.716.97.97 0 0 1 .686-.318l19.312-.874c.527-.02 1.014.397 1.034.944l1.282 28.208c.04.984-.497 2.406-3.33 3.578-1.898.796-4.422 1.293-7.116 1.412q-.627.03-1.252.03zm-8.846-31.36 1.233 27.215c.02.368.725.984 2.246 1.461 1.75.547 4.065.785 6.53.676s4.761-.557 6.441-1.262c1.471-.617 2.117-1.283 2.107-1.65l-1.232-27.215-17.335.785z"/><path fill="#AFE0DD" d="M33.21 117.317c5.336-.243 9.59-2.013 9.502-3.954s-4.485-3.319-9.82-3.076c-5.337.242-9.59 2.012-9.502 3.953.088 1.942 4.485 3.319 9.82 3.077"/><path fill="#13706D" d="M32.034 118.349c-4.87 0-9.502-1.322-9.631-4.056-.04-.984.497-2.395 3.33-3.578 1.898-.795 4.423-1.292 7.116-1.411 5.288-.239 10.725 1.063 10.854 4.025.04.984-.497 2.396-3.33 3.579-1.898.795-4.422 1.292-7.116 1.411q-.611.03-1.223.03m2.068-7.087c-.378 0-.766 0-1.163.03-2.465.109-4.751.556-6.441 1.262-1.471.616-2.117 1.282-2.107 1.65.04.895 3.4 2.376 8.776 2.137 2.465-.109 4.761-.557 6.441-1.262 1.471-.617 2.117-1.282 2.107-1.65-.04-.825-2.922-2.157-7.613-2.157z"/><path fill="#fff" d="M33.026 113.042c2.66-.121 4.78-1.006 4.736-1.976-.044-.971-2.236-1.66-4.895-1.539-2.66.121-4.78 1.005-4.736 1.976s2.235 1.66 4.895 1.539"/><path fill="#13706D" d="M32.402 114.045c-2.664 0-5.198-.745-5.278-2.495-.09-1.898 2.793-2.882 5.686-3.012 1.391-.059 2.743.08 3.776.408 1.83.576 2.138 1.551 2.167 2.077.02.527-.198 1.531-1.968 2.267-.994.417-2.316.685-3.717.745-.219 0-.437.02-.656.02zm-3.17-2.594c.447.278 1.739.686 3.746.596 1.998-.089 3.25-.616 3.678-.934-.447-.278-1.75-.686-3.747-.597-1.998.09-3.25.617-3.678.935"/><path fill="#13706D" d="M37.302 127.573c-2.465 0-4.85-.408-6.948-1.243-9.472-3.777-7.961-12.186-7.941-12.275a.994.994 0 0 1 1.163-.785.987.987 0 0 1 .785 1.163c-.06.308-1.163 6.908 6.729 10.048 4.98 1.988 12.136 1.183 17.394-1.948 3.618-2.147 8.12-6.381 9.065-14.352.726-6.123-.378-10.387-1.879-13.26-2.276.865-4.73 1.024-7.196.418-3.32-.815-5.924-2.942-6.202-5.05-.16-1.192.437-2.256 1.62-2.912 2.435-1.342 5.775-.944 8.717 1.034 1.53 1.024 2.823 2.365 3.886 3.956 1.452-.825 2.942-2.107 4.324-4.065a.99.99 0 0 1 1.382-.239.99.99 0 0 1 .238 1.382c-1.411 2.007-3.101 3.558-4.96 4.622 1.949 3.846 2.694 8.826 2.038 14.352-1.044 8.767-6.023 13.448-10.029 15.824-3.668 2.177-8.051 3.32-12.206 3.32zm9.81-38.993c-.825 0-1.59.179-2.256.546-.686.378-.636.756-.616.915.149 1.113 2.077 2.733 4.711 3.38 1.153.288 3.27.576 5.666-.22-1.203-1.699-2.445-2.683-3.121-3.14-1.461-.984-3.002-1.491-4.394-1.491z"/><path fill="#fff" d="m177.48 76.136 1.292 8.379a4.08 4.08 0 0 0 3.22 3.379l5.755 1.163c.835.169.835 1.362 0 1.53l-5.755 1.163a4.07 4.07 0 0 0-3.22 3.38l-1.292 8.379c-.139.885-1.412.885-1.541 0l-1.292-8.379a4.08 4.08 0 0 0-3.22-3.38l-5.755-1.162c-.835-.17-.835-1.362 0-1.531l5.755-1.163a4.07 4.07 0 0 0 3.22-3.38l1.292-8.379c.139-.884 1.412-.884 1.541 0M58.663 46.595l.536 3.47a4.48 4.48 0 0 0 3.519 3.687l1.978.397c1.441.288 1.441 2.356 0 2.644l-1.978.398a4.45 4.45 0 0 0-3.519 3.687l-.536 3.47c-.24 1.53-2.436 1.53-2.674 0l-.537-3.47a4.48 4.48 0 0 0-3.519-3.687l-1.978-.398c-1.44-.288-1.44-2.355 0-2.644l1.978-.397a4.45 4.45 0 0 0 3.519-3.688l.537-3.469c.238-1.53 2.435-1.53 2.674 0m88.809-15.735.428 2.794a3.595 3.595 0 0 0 2.833 2.972l1.6.328c1.163.238 1.163 1.898 0 2.137l-1.6.328a3.58 3.58 0 0 0-2.833 2.972l-.428 2.793c-.189 1.232-1.958 1.232-2.147 0l-.427-2.793a3.6 3.6 0 0 0-2.833-2.972l-1.6-.328c-1.163-.239-1.163-1.899 0-2.137l1.6-.328a3.59 3.59 0 0 0 2.833-2.972l.427-2.793c.189-1.233 1.958-1.233 2.147 0"/><path fill="#13706D" d="M119.979 69.625h-17.155a6.48 6.48 0 0 0-6.471 6.47v17.156a6.48 6.48 0 0 0 6.471 6.471h17.155a6.477 6.477 0 0 0 6.471-6.47V76.095a6.477 6.477 0 0 0-6.471-6.47m-21.747 6.47a4.594 4.594 0 0 1 4.592-4.591h2.534c.418 0 .785.288.875.705.437 2.008-.149 4.155-1.65 5.646a6.15 6.15 0 0 1-5.646 1.65.895.895 0 0 1-.705-.875zm15.754 21.749h-11.162a4.594 4.594 0 0 1-4.592-4.593V82.09c0-.407.367-.725.765-.666.397.06.825.1 1.242.1a8.1 8.1 0 0 0 2.525-.408c.308-.1.596.199.477.497a8.71 8.71 0 0 0 1.988 9.214c2.485 2.495 6.113 3.151 9.214 1.988a.386.386 0 0 1 .497.487 8.04 8.04 0 0 0-.308 3.767.673.673 0 0 1-.666.776zm10.585-4.593a4.594 4.594 0 0 1-4.592 4.593h-2.534a.89.89 0 0 1-.875-.706c-.437-2.008.149-4.155 1.65-5.646a6.15 6.15 0 0 1 5.646-1.65c.407.09.705.447.705.875zm0-5.993a.672.672 0 0 1-.775.666 8.1 8.1 0 0 0-3.767.308.386.386 0 0 1-.487-.497 8.71 8.71 0 0 0-1.988-9.214c-2.485-2.495-6.113-3.15-9.214-1.988a.386.386 0 0 1-.497-.487 8.04 8.04 0 0 0 .308-3.767.673.673 0 0 1 .666-.775h11.162a4.594 4.594 0 0 1 4.592 4.592z"/></svg>