<svg xmlns="http://www.w3.org/2000/svg" width="219" height="180" fill="none"><path fill="#E0F4F3" d="M106.988 12.751h4.691c57.401 0 104.008 46.607 104.008 104.007v24.591c0 14.611-11.858 26.469-26.469 26.469H29.45c-14.612 0-26.47-11.858-26.47-26.469v-24.591c0-57.4 46.607-104.007 104.008-104.007"/><path fill="#AFE0DD" d="M139.003 87.636v3.071c0 2.077 2.038 3.757 4.553 3.757h31.359c2.515 0 4.552-1.68 4.552-3.757v-39.59c0-1.788-1.52-3.23-3.389-3.23h-33.685c-1.879 0-3.39 1.452-3.39 3.23v17.455"/><path fill="#13706D" d="M174.915 95.448h-31.359c-3.062 0-5.547-2.127-5.547-4.751v-3.071c0-.547.448-.994.994-.994.547 0 .994.447.994.994v3.071c0 1.52 1.6 2.763 3.559 2.763h31.359c1.958 0 3.558-1.242 3.558-2.763v-39.59c0-1.232-1.073-2.236-2.395-2.236h-33.685c-1.322 0-2.396 1.004-2.396 2.237v17.454a.997.997 0 0 1-.994.994.997.997 0 0 1-.994-.994V51.108c0-2.326 1.968-4.224 4.384-4.224h33.685c2.415 0 4.383 1.898 4.383 4.224v39.589c0 2.614-2.485 4.751-5.546 4.751"/><path fill="#fff" d="M143.953 82.348v2.375c0 1.61 1.511 2.913 3.37 2.913h23.189c1.858 0 3.369-1.302 3.369-2.913V54.05a2.507 2.507 0 0 0-2.505-2.505h-24.898a2.507 2.507 0 0 0-2.505 2.505v13.518"/><path fill="#13706D" d="M170.502 88.63h-23.189c-2.406 0-4.364-1.75-4.364-3.907v-2.375c0-.547.447-.994.994-.994s.994.447.994.994v2.375c0 1.054 1.064 1.919 2.376 1.919h23.189c1.312 0 2.375-.855 2.375-1.919V54.05a1.51 1.51 0 0 0-1.511-1.51h-24.898a1.51 1.51 0 0 0-1.511 1.51v13.518a.997.997 0 0 1-.994.994.997.997 0 0 1-.994-.994V54.05a3.504 3.504 0 0 1 3.499-3.499h24.898a3.504 3.504 0 0 1 3.499 3.499v30.673c0 2.157-1.958 3.906-4.363 3.906"/><path fill="#fff" d="M142.164 54.467s-.795 23.835-5.755 33.159h34.003s5.417-17.385 3.439-34.014l-31.697.855z"/><path fill="#13706D" d="M170.422 88.63h-34.003a1 1 0 0 1-.855-.477 1 1 0 0 1-.03-.975c4.791-9.015 5.626-32.492 5.636-32.73a1 1 0 0 1 .964-.965l31.697-.854h.03c.497 0 .924.377.984.874 1.988 16.649-3.419 34.252-3.479 34.43a.99.99 0 0 1-.954.697zm-32.433-1.988h31.687c.945-3.32 4.742-17.901 3.3-32.006l-29.848.805c-.199 4.334-1.213 22.116-5.129 31.2z"/><path fill="#13706D" d="M150.324 72.359V63.67h-.059l-1.631 1.134c-.298.208-.496.278-.815.278-.646 0-1.123-.477-1.123-1.153 0-.477.189-.845.656-1.173l2.465-1.68c.696-.467 1.253-.546 1.909-.546 1.192 0 1.888.715 1.888 1.848v9.97c0 .993-.656 1.64-1.65 1.64s-1.65-.647-1.65-1.64zm6.759.01c0-.627.258-1.064.914-1.63l3.728-3.38c1.53-1.392 1.948-1.988 1.948-2.843 0-.944-.726-1.61-1.759-1.61-.855 0-1.452.418-1.929 1.282-.417.646-.805.905-1.471.905-.854 0-1.371-.497-1.371-1.312 0-.249.039-.487.139-.726.566-1.5 2.306-2.644 4.681-2.644 2.972 0 4.93 1.58 4.93 3.887 0 1.67-.854 2.633-2.922 4.502l-2.594 2.366v.06h4.512c.845 0 1.332.496 1.332 1.272 0 .775-.487 1.272-1.332 1.272h-7.236c-1.063 0-1.55-.596-1.55-1.421zm-10.248 8.071v-2.972c0-.249.149-.388.368-.388s.368.129.368.388v1.67l.974-.985c.099-.1.179-.149.288-.149.189 0 .328.14.328.318 0 .11-.03.18-.139.279l-.686.646.756.964c.079.11.099.169.099.268 0 .199-.139.328-.348.328-.159 0-.248-.06-.358-.228l-.695-.915-.239.219v.547c0 .248-.149.377-.368.377-.218 0-.368-.13-.368-.377zm2.893.844a.4.4 0 0 1-.06-.209c0-.149.119-.268.298-.268.1 0 .169.03.259.11.198.188.387.288.636.298.407 0 .636-.219.636-.557v-.427h-.02c-.129.288-.437.487-.825.487-.676 0-1.093-.517-1.093-1.332s.417-1.352 1.113-1.352c.387 0 .686.209.825.507h.01v-.15c0-.248.159-.377.368-.377.208 0 .367.12.367.378v2.276c0 .706-.507 1.123-1.381 1.123-.547 0-.964-.209-1.133-.497zm1.789-1.898c0-.487-.239-.795-.607-.795-.367 0-.586.308-.586.795s.229.785.586.785c.358 0 .607-.288.607-.785m2.534-.129c0-.984.567-1.56 1.461-1.56.567 0 1.004.238 1.233.665a.6.6 0 0 1 .079.278c0 .2-.129.328-.338.328-.169 0-.278-.07-.357-.238-.14-.279-.338-.418-.607-.418-.417 0-.686.358-.686.945 0 .586.269.954.686.954.279 0 .477-.13.617-.418.079-.169.169-.228.338-.228.218 0 .357.139.357.338 0 .07-.02.149-.049.218-.179.428-.666.706-1.243.706-.934 0-1.481-.576-1.481-1.56zm3.281 0c0-.965.576-1.56 1.49-1.56.915 0 1.491.596 1.491 1.56s-.576 1.56-1.491 1.56c-.914 0-1.49-.596-1.49-1.56m2.206 0c0-.577-.278-.945-.706-.945s-.705.368-.705.945c0 .576.278.934.705.934.428 0 .706-.368.706-.934m1.292 1.183c0-.14.06-.25.209-.378l.865-.785c.357-.319.447-.458.447-.657 0-.218-.169-.377-.408-.377-.198 0-.338.1-.447.298-.099.149-.189.209-.338.209-.199 0-.318-.12-.318-.308 0-.06 0-.11.03-.17.129-.347.537-.616 1.083-.616.686 0 1.143.368 1.143.905 0 .387-.198.606-.676 1.043l-.596.547 1.044.01c.198 0 .308.12.308.298 0 .18-.11.298-.308.298h-1.67c-.249 0-.358-.139-.358-.328zm2.754-.796c0-.735.437-1.203 1.133-1.203s1.123.448 1.123 1.064c0 .189-.109.288-.298.288h-1.243v.04c0 .278.179.467.448.467.208 0 .347-.07.507-.228.079-.07.139-.1.228-.1.149 0 .278.1.278.259 0 .06-.019.109-.049.169-.149.268-.517.427-.974.427-.736 0-1.163-.437-1.163-1.183zm1.56-.278c-.01-.249-.179-.408-.407-.408-.229 0-.398.17-.418.408z"/><path fill="#C4EAE7" d="M129.084 58.155s-1.581 8.389-5.537 11.232l-12.186-3.797s6.65-5.904 6.809-10.308zM93.35 56.068s-5.406-6.61-5.039-11.47l10.745-6.889s.249 8.886 3.519 11.838l-9.224 6.51zm15.238-23.229s-6.172-1.163-8.27-4.075l2.793-8.976s4.344 4.89 7.594 5.01zm-31.23 62.003c.487 11.082-8.021 26.618-18.249 22.632-1.213-.477-2.316-.964-4.373.199-9.463 5.327-19.67-9.88-20.158-20.953-.378-8.538 2.197-15.058 9.83-15.277 3.887-.11 6.62 2.117 11.023 1.919 4.771-.21 7.385-2.734 11.54-2.823 7.097-.16 10.03 6.043 10.397 14.303z"/><path fill="#AFE0DD" d="M74.794 84.713c-1.87.666-3.181 2.813-2.962 5.427.367 4.334-1.064 19.373-15.148 22.076-13.985 2.684-20.327-7.494-20.406-7.633 3.37 9.045 11.132 17.215 18.458 13.09 2.067-1.163 3.16-.666 4.373-.199 10.228 3.986 18.736-11.55 18.249-22.632-.179-4.036-.974-7.574-2.564-10.129"/><path fill="#13706D" d="M55.789 82.845c-.08 0-.15 0-.229-.03a.99.99 0 0 1-.735-1.193c.07-.278 1.53-6.957-4.791-9.93a1 1 0 0 1-.477-1.321 1 1 0 0 1 1.322-.477c7.802 3.667 5.894 12.096 5.874 12.185a.995.995 0 0 1-.964.766"/><path fill="#AFE0DD" d="M56.644 76.503s-1.292-14.87 15.863-11.231c0 0 1.56 14.352-15.863 11.231"/><path fill="#13706D" d="M61.246 77.935q-2.207.002-4.771-.458a.99.99 0 0 1-.815-.894c-.02-.259-.507-6.441 3.727-10.188 2.982-2.644 7.475-3.35 13.339-2.107.417.09.736.437.785.864.03.249.607 6.054-3.4 9.8-2.126 1.989-5.088 2.983-8.855 2.983zm-3.618-2.277c5.02.766 8.757.05 11.102-2.147 2.545-2.365 2.833-5.913 2.823-7.424-4.84-.895-8.478-.289-10.844 1.789-2.704 2.385-3.061 6.172-3.091 7.772z"/><path fill="#fff" d="M45.273 101.65c-.815 0-1.57-.497-1.869-1.302-2.812-7.683-.576-11.848-.308-12.295a1.993 1.993 0 0 1 2.724-.706 1.985 1.985 0 0 1 .715 2.694c-.09.179-1.53 3.101.607 8.936a1.99 1.99 0 0 1-1.869 2.673"/><path fill="#13706D" d="M50.69 119.76c-1.67 0-3.38-.467-5.07-1.411-6.271-3.479-11.668-13.17-12.046-21.589-.268-6.033.905-10.486 3.469-13.24 1.809-1.947 4.274-2.981 7.325-3.07 2.028-.06 3.758.466 5.427.963 1.78.537 3.45 1.044 5.587.955 2.276-.1 4.065-.776 5.794-1.432 1.75-.666 3.559-1.342 5.765-1.391 6.888-.13 10.974 5.258 11.41 15.247.369 8.28-3.876 18.001-9.65 22.135-3.161 2.267-6.61 2.774-9.95 1.471l-.12-.049c-1.093-.428-1.818-.716-3.409.179-1.45.815-2.971 1.222-4.532 1.222zm-6.003-37.323h-.259c-2.495.07-4.493.895-5.934 2.435-2.157 2.316-3.17 6.401-2.932 11.799.338 7.673 5.387 16.807 11.023 19.938 2.674 1.481 5.248 1.551 7.663.189 2.406-1.361 3.847-.795 5.11-.298l.119.05c2.733 1.063 5.447.646 8.07-1.233 5.199-3.717 9.155-12.881 8.827-20.425-.269-6.113-2.078-13.36-9.145-13.36h-.238c-1.869.04-3.44.637-5.109 1.263-1.879.706-3.817 1.441-6.411 1.56-2.455.11-4.383-.477-6.242-1.033-1.51-.457-2.932-.885-4.532-.885z"/><path fill="#AFE0DD" d="M116.003 115.546s-4.9 3.658-8.866 0c-2.207-2.038-.616-3.966 1.232-5.288 1.322-.944 1.988-2.624 1.501-4.175-.397-1.262-.338-2.902 1.272-4.651 1.412-1.521 2.774-1.82 3.897-1.63 1.252.208 2.514-.299 3.18-1.382.438-.696 1.153-1.49 2.296-2.356 4.175-3.14 4.215 8.35 4.215 8.35"/><path fill="#13706D" d="M111.212 118.16c-1.58 0-3.25-.497-4.751-1.879-.994-.914-1.461-1.908-1.392-2.981.08-1.322.994-2.615 2.714-3.847 1.014-.716 1.471-1.978 1.133-3.061-.437-1.362-.527-3.44 1.491-5.626 1.819-1.968 3.608-2.137 4.791-1.928.884.149 1.729-.22 2.166-.925.547-.885 1.402-1.77 2.535-2.624 1.302-.984 2.326-.815 2.962-.507 2.614 1.292 2.843 7.703 2.843 9.642a.99.99 0 0 1-.994.993.996.996 0 0 1-.994-.993c-.01-3.39-.716-7.356-1.74-7.863-.238-.109-.606.11-.874.308-.935.706-1.62 1.412-2.048 2.088-.874 1.401-2.514 2.117-4.194 1.839-1.034-.169-2.018.258-3.002 1.322-1.113 1.202-1.461 2.405-1.054 3.667.617 1.929-.139 4.056-1.868 5.288-1.173.835-1.849 1.67-1.889 2.346-.01.169-.04.666.746 1.391 3.31 3.042 7.425.06 7.603-.069a.99.99 0 0 1 1.392.209.996.996 0 0 1-.199 1.391c-1.123.835-3.161 1.819-5.377 1.819"/><path fill="#fff" d="m161.725 135.892.835 4.354c.437 2.256-1.163 4.204-3.459 4.224l-3.897.03c-7.057.049-14.193-1.809-20.634-5.368l-.398-.218a45.1 45.1 0 0 1-13.667-11.689l-.874-1.123c-2.505-3.221-3.648-7.187-3.161-10.954l.03-.198c.586-4.593 3.528-8.35 7.822-10.02l1.193-.467c3.558-1.381 7.683-1.192 11.42.517a44.75 44.75 0 0 1 16.142 12.544c4.403 5.447 7.385 11.778 8.648 18.378z"/><path fill="#13706D" d="M132.393 117.723h-.03a1 1 0 0 1-.387-.08.96.96 0 0 1-.577-.159.967.967 0 0 1-.298-1.332c.268-.427.616-.636 1.024-.646.149-.02.288.02.447.1a.9.9 0 0 1 .586.198.987.987 0 0 1 .209 1.382c-.328.447-.706.547-.984.547zm2.883-3.191c-.269 0-.537-.109-.736-.318a.99.99 0 0 1 .06-1.402c5.387-4.969 10.426-4.035 10.645-3.985a1 1 0 0 1 .785 1.163 1.006 1.006 0 0 1-1.163.785c-.189-.03-4.324-.736-8.916 3.499a.98.98 0 0 1-.675.258m7.673 12.643c-.209 0-.417-.069-.596-.199a.994.994 0 0 1-.189-1.391c7.266-9.552 12.643-7.077 12.871-6.968a.995.995 0 0 1-.854 1.799c-.11-.039-4.294-1.689-10.427 6.381a1 1 0 0 1-.795.388z"/><path fill="#C4EAE7" d="m119.631 126.082.874 1.123a44.55 44.55 0 0 0 13.667 11.689l.398.219c6.441 3.558 13.577 5.417 20.634 5.367l3.897-.03-9.9-4.155a3.6 3.6 0 0 1-1.332-.974l-7.047-8.24a3.54 3.54 0 0 0-3.221-1.212 3.55 3.55 0 0 1-3.916-2.475l-.427-1.372c-.527-1.699-2.197-2.852-3.956-2.574-1.312.209-2.873-.109-4.115-2.008-2.724-4.145-2.207-15.108-2.207-15.108l-.318-.626c-3.379 1.918-5.645 5.258-6.162 9.234l-.03.198c-.487 3.767.656 7.723 3.161 10.954z"/><path fill="#13706D" d="M154.797 134.799a.99.99 0 0 1-.726-1.67c4.354-4.592 6.858-2.743 7.137-2.515.417.348.477.974.129 1.402a.996.996 0 0 1-1.362.159c-.089-.05-1.501-.795-4.453 2.326a1 1 0 0 1-.725.308z"/><path fill="#13706D" d="M154.926 145.484c-7.137 0-14.333-1.899-20.833-5.497l-.398-.218a45.9 45.9 0 0 1-13.965-11.958l-.875-1.123c-2.654-3.419-3.876-7.683-3.359-11.689l.029-.199c.637-4.969 3.797-9.015 8.449-10.824l1.193-.467c3.787-1.471 8.24-1.282 12.196.537a45.9 45.9 0 0 1 16.499 12.822c4.493 5.566 7.554 12.076 8.856 18.815l.835 4.354c.259 1.372-.069 2.743-.914 3.767s-2.127 1.62-3.519 1.63l-3.896.03h-.288zm-24.432-40.951c-1.6 0-3.17.278-4.622.845l-1.192.467c-3.966 1.54-6.65 4.99-7.196 9.224l-.03.199c-.448 3.488.626 7.206 2.962 10.207l.874 1.124a44.1 44.1 0 0 0 13.359 11.43l.398.219c6.291 3.479 13.229 5.317 20.137 5.248l3.897-.03c.815 0 1.52-.328 1.997-.904s.656-1.332.497-2.137l-.835-4.354c-1.232-6.431-4.154-12.633-8.448-17.941a43.9 43.9 0 0 0-15.774-12.265c-1.938-.885-4.006-1.342-6.024-1.342z"/><path fill="#AFE0DD" d="M124.014 126.181c.278 1.869-1.024 3.608-2.892 3.887-1.869.278-3.608-1.024-3.887-2.893s1.024-3.608 2.893-3.886"/><path fill="#13706D" d="M120.615 131.101a4.43 4.43 0 0 1-4.374-3.787 4.42 4.42 0 0 1 3.737-5.009.983.983 0 0 1 1.124.835.99.99 0 0 1-.835 1.123 2.45 2.45 0 0 0-2.058 2.763 2.45 2.45 0 0 0 2.763 2.058 2.42 2.42 0 0 0 1.601-.955 2.44 2.44 0 0 0 .457-1.809.99.99 0 0 1 .835-1.123c.537-.089 1.043.298 1.123.835a4.4 4.4 0 0 1-.825 3.28 4.4 4.4 0 0 1-2.902 1.73 5 5 0 0 1-.637.049z"/><path fill="#fff" d="M32.223 44.468a8 8 0 0 0 2.992 2.932c.983.557 1.918.815 2.822.865 1.461.09 2.714.954 3.26 2.326 1.71 4.314 5.825 7.435 10.765 7.624a12 12 0 0 0 8.11-2.744 3.43 3.43 0 0 1 2.863-.725c1.223.238 2.515.268 3.857.04 4.294-.716 7.812-4.056 8.717-8.31a10.792 10.792 0 0 0-10.139-13.1 10.7 10.7 0 0 0-5.675 1.371c-.875.487-1.898.577-2.823.209a12.2 12.2 0 0 0-4.005-.855 11.95 11.95 0 0 0-6.292 1.501c-1.253.696-2.773.616-3.916-.248-.09-.07-.18-.11-.269-.18a105.5 105.5 0 0 0-10.248 9.284zm101.969-21.926c.984.556 1.919.815 2.823.864 1.461.09 2.714.954 3.26 2.326 1.71 4.314 5.825 7.435 10.765 7.624a12 12 0 0 0 8.111-2.744 3.43 3.43 0 0 1 2.862-.725c1.223.238 2.515.268 3.857.04.745-.13 1.471-.338 2.166-.607a103.2 103.2 0 0 0-37.541-14.87 7 7 0 0 0-.219 1.382c-.159 2.783 1.501 5.338 3.926 6.71z"/><path fill="#AFE0DD" d="M77.994 152.243a6.014 6.014 0 1 0 0-12.028 6.014 6.014 0 0 0 0 12.028"/><path fill="#13706D" d="M77.994 153.237a7.01 7.01 0 0 1-7.007-7.008 7.01 7.01 0 0 1 7.007-7.007 7.01 7.01 0 0 1 7.008 7.007 7.01 7.01 0 0 1-7.008 7.008m0-12.027a5.024 5.024 0 0 0-5.02 5.019 5.03 5.03 0 0 0 5.02 5.02 5.03 5.03 0 0 0 5.02-5.02 5.03 5.03 0 0 0-5.02-5.019"/><path fill="#AFE0DD" d="M96.67 154.211a6.014 6.014 0 1 0 0-12.028 6.014 6.014 0 0 0 0 12.028"/><path fill="#13706D" d="M96.67 155.205a7.01 7.01 0 0 1-7.007-7.008 7.01 7.01 0 0 1 7.008-7.007 7.01 7.01 0 0 1 7.007 7.007 7.01 7.01 0 0 1-7.007 7.008m0-12.027a5.024 5.024 0 0 0-5.019 5.019 5.03 5.03 0 0 0 5.02 5.02 5.03 5.03 0 0 0 5.019-5.02 5.03 5.03 0 0 0-5.02-5.019"/><path fill="#13706D" d="M95.398 143.307a1 1 0 0 1-.328-.06.995.995 0 0 1-.616-1.262c1.8-5.169-.576-9.731-2.107-11.947-2.485 6.699-9.592 11.728-9.92 11.967a.98.98 0 0 1-1.381-.249.987.987 0 0 1 .238-1.381c.08-.06 8.18-5.805 9.681-12.663.08-.358.348-.646.696-.746a.98.98 0 0 1 .984.269c.269.278 6.62 6.987 3.678 15.416a.99.99 0 0 1-.934.666z"/><path fill="#9DD1CC" d="M80.072 133.954s1.829-6.202 11.798-5.795c0 0 1.72 7.395-11.798 5.795"/><path fill="#13706D" d="M83.61 135.176a31 31 0 0 1-3.658-.238 1.06 1.06 0 0 1-.715-.437.97.97 0 0 1-.12-.825c.08-.289 2.157-6.938 12.793-6.511.447.02.825.328.924.766.02.109.576 2.584-1.282 4.651-1.54 1.72-4.205 2.585-7.952 2.585zm-2.008-2.067c5.238.408 7.505-.745 8.479-1.839.656-.725.835-1.55.864-2.127-5.834 0-8.339 2.465-9.333 3.976z"/><path fill="#13706D" d="M91.87 129.163c-.16 0-.308-.04-.457-.109a.99.99 0 0 1-.428-1.332c.04-.08.775-1.6-.03-3.449a.995.995 0 0 1 .517-1.312 1 1 0 0 1 1.312.517c1.193 2.753.02 5.059-.03 5.158a1.01 1.01 0 0 1-.884.537z"/><path fill="#fff" d="M77.478 146.229a1.56 1.56 0 1 0 0-3.12 1.56 1.56 0 0 0 0 3.12m18.249 1.561a1.56 1.56 0 1 0-.001-3.122 1.56 1.56 0 0 0 0 3.122"/></svg>