<svg xmlns="http://www.w3.org/2000/svg" width="219" height="180" fill="none"><path fill="#E0F4F3" d="M107.321 12.751h4.692c57.401 0 104.007 46.607 104.007 104.007v24.591c0 14.611-11.858 26.469-26.469 26.469H29.783c-14.611 0-26.469-11.858-26.469-26.469v-24.591c0-57.4 46.607-104.007 104.007-104.007"/><path fill="#fff" d="M80.643 73.293H42.446a3.787 3.787 0 0 0-3.787 3.787v26.509a3.787 3.787 0 0 0 3.787 3.787h38.197a3.787 3.787 0 0 0 3.787-3.787v-26.51a3.787 3.787 0 0 0-3.787-3.786m51.706 0H94.738a3.787 3.787 0 0 0-3.787 3.787v26.509a3.787 3.787 0 0 0 3.787 3.787h37.611a3.79 3.79 0 0 0 3.787-3.787v-26.51a3.787 3.787 0 0 0-3.787-3.786"/><path fill="#E0F4F3" d="M81.906 71.474s2.714-3.906 11.868-3.906 12.246 3.906 12.246 3.906"/><path fill="#13706D" d="M106.019 72.468a1 1 0 0 1-.785-.378c-.02-.03-2.982-3.528-11.46-3.528S82.74 72.02 82.71 72.05a.997.997 0 0 1-1.63-1.143c.12-.178 3.121-4.333 12.693-4.333s12.881 4.115 13.021 4.294a.986.986 0 0 1-.786 1.6z"/><path fill="#C4EAE7" d="M75.068 136.479V76.563a5.64 5.64 0 0 1 5.636-5.636h26.001a5.637 5.637 0 0 1 5.636 5.636v60.721z"/><path fill="#13706D" d="M112.341 138.288h-.02l-37.273-.816a1 1 0 0 1-.974-.993V76.563a6.634 6.634 0 0 1 6.63-6.63h26.001a6.635 6.635 0 0 1 6.63 6.63v60.721a.98.98 0 0 1-.298.705 1.02 1.02 0 0 1-.696.289zm-36.28-2.774 35.286.766V76.573a4.647 4.647 0 0 0-4.642-4.642H80.703a4.647 4.647 0 0 0-4.641 4.642z"/><path fill="#C4EAE7" d="m89.34 134.928 9.076-45.354a5.865 5.865 0 0 1 5.745-4.712h54.637c3.668 0 6.441 3.34 5.755 6.948l-8.15 43.118"/><path fill="#13706D" d="M89.34 135.922c-.069 0-.128 0-.198-.02a.99.99 0 0 1-.775-1.173l9.075-45.354a6.865 6.865 0 0 1 6.719-5.507h54.637c2.048 0 3.966.905 5.278 2.485A6.85 6.85 0 0 1 165.537 92l-8.15 43.118a.996.996 0 1 1-1.958-.368l8.15-43.118a4.85 4.85 0 0 0-1.033-4.005 4.87 4.87 0 0 0-3.748-1.76h-54.637a4.88 4.88 0 0 0-4.771 3.907l-9.075 45.354a.98.98 0 0 1-.974.795"/><path fill="#C4EAE7" d="M56.938 104.563H39.613a3.04 3.04 0 0 0-3.041 3.041v32.94a3.04 3.04 0 0 0 3.041 3.041h17.325a3.04 3.04 0 0 0 3.041-3.041v-32.94a3.04 3.04 0 0 0-3.041-3.041"/><path fill="#13706D" d="M56.928 144.579H39.613a4.04 4.04 0 0 1-4.035-4.035v-32.93a4.04 4.04 0 0 1 4.035-4.035h17.315a4.04 4.04 0 0 1 4.035 4.035v32.93a4.04 4.04 0 0 1-4.035 4.035m-17.315-39.022a2.05 2.05 0 0 0-2.047 2.047v32.93a2.05 2.05 0 0 0 2.047 2.047h17.315a2.05 2.05 0 0 0 2.047-2.047v-32.93a2.05 2.05 0 0 0-2.047-2.047z"/><path fill="#C4EAE7" d="M50.507 138.133a2.231 2.231 0 1 0-4.463 0 2.231 2.231 0 0 0 4.463 0"/><path fill="#13706D" d="M48.27 141.359a3.237 3.237 0 0 1-3.23-3.231 3.236 3.236 0 0 1 3.23-3.23c1.78 0 3.23 1.451 3.23 3.23a3.237 3.237 0 0 1-3.23 3.231m0-4.463a1.243 1.243 0 1 0 .002 2.486 1.243 1.243 0 0 0-.002-2.486"/><path fill="#E0F4F3" d="M40.428 134.739a.943.943 0 0 1-.944-.944v-24.789c0-.786.636-1.422 1.421-1.422h15.476a.66.66 0 0 1 .596.944c-1.212 9.254-3.11 15.665-16.42 26.141l-.129.06z"/><path fill="#13706D" d="M53.698 113.707h-9.791a.997.997 0 0 1-.994-.994c0-.547.447-.994.994-.994h9.79c.547 0 .994.447.994.994a.997.997 0 0 1-.994.994m-4.899 3.777h-4.9a.997.997 0 0 1-.995-.994c0-.547.448-.994.994-.994h4.9c.547 0 .994.447.994.994a.997.997 0 0 1-.993.994"/><path fill="#C4EAE7" d="M152.119 142.959h-87.27a11.25 11.25 0 0 1-7.663-3.012c-1.928-1.789-.656-5.009 1.968-5.009h97.249v3.737a4.285 4.285 0 0 1-4.284 4.284"/><path fill="#13706D" d="M152.119 143.953h-87.27a12.2 12.2 0 0 1-8.339-3.28 3.85 3.85 0 0 1-.964-4.264 3.88 3.88 0 0 1 3.618-2.465h97.249c.547 0 .994.447.994.994v3.737a5.28 5.28 0 0 1-5.278 5.278zm-92.964-8.031c-.955 0-1.541.626-1.77 1.203-.228.586-.228 1.441.477 2.087a10.23 10.23 0 0 0 6.988 2.753h87.269a3.294 3.294 0 0 0 3.29-3.29v-2.743H59.155z"/><path fill="#13706D" d="M89.818 139.938h-6.819a5.015 5.015 0 0 1-5.01-5.01c0-.547.448-.994.995-.994s.994.447.994.994a3.02 3.02 0 0 0 3.021 3.022h6.819a3.02 3.02 0 0 0 3.021-3.022c0-.547.448-.994.994-.994.547 0 .994.447.994.994a5.015 5.015 0 0 1-5.01 5.01"/><path fill="#E0F4F3" d="M115.372 130.803c21.947 0 40.792-15.615 44.867-37.184a2.25 2.25 0 0 0-2.206-2.644h-54.191a2.1 2.1 0 0 0-2.057 1.69l-7.127 35.623a2.103 2.103 0 0 0 2.058 2.515z"/><path fill="#13706D" d="M128.472 88.48h-.447a.997.997 0 0 1-.994-.993c0-.547.448-.994.994-.994h.447c.547 0 .994.447.994.994a.997.997 0 0 1-.994.994"/><path fill="#AFE0DD" d="M191.867 114.065h-10.566c-.874 0-1.67-.507-2.057-1.292l-1.213-2.525a2.28 2.28 0 0 0-2.057-1.292h-5.228c-.875 0-1.67.497-2.048 1.282l-1.242 2.545a2.27 2.27 0 0 1-2.048 1.282h-10.307c-2.127 0-3.857 2.157-3.857 4.83v24.621a3.04 3.04 0 0 0 3.042 3.041h37.154a3.04 3.04 0 0 0 3.041-3.041v-26.171c0-1.809-1.173-3.28-2.624-3.28z"/><path fill="#13706D" d="M191.45 147.551h-37.154a4.04 4.04 0 0 1-4.036-4.035v-24.621c0-3.21 2.177-5.824 4.851-5.824h10.307a1.29 1.29 0 0 0 1.153-.726l1.242-2.544a3.3 3.3 0 0 1 2.943-1.839h5.228a3.29 3.29 0 0 1 2.952 1.859l1.212 2.524c.209.438.666.726 1.163.726h10.566c1.998 0 3.618 1.918 3.618 4.274v26.171a4.04 4.04 0 0 1-4.035 4.035zm-36.339-32.492c-1.581 0-2.863 1.719-2.863 3.836v24.621c0 1.123.915 2.047 2.048 2.047h37.154a2.05 2.05 0 0 0 2.047-2.047v-26.171c0-1.243-.745-2.286-1.63-2.286h-10.566a3.29 3.29 0 0 1-2.952-1.859l-1.212-2.525a1.27 1.27 0 0 0-1.153-.725h-5.228a1.29 1.29 0 0 0-1.153.725l-1.243 2.545a3.3 3.3 0 0 1-2.942 1.839z"/><path fill="#fff" d="M172.872 143.277c6.934 0 12.554-5.62 12.554-12.553s-5.62-12.554-12.554-12.554c-6.933 0-12.553 5.62-12.553 12.554 0 6.933 5.62 12.553 12.553 12.553"/><path fill="#13706D" d="M172.882 144.271c-5.605 0-10.863-3.509-12.812-9.105-2.455-7.057 1.293-14.79 8.35-17.245a13.4 13.4 0 0 1 10.347.607 13.47 13.47 0 0 1 6.898 7.743 13.4 13.4 0 0 1-.607 10.347 13.47 13.47 0 0 1-7.743 6.898 13.6 13.6 0 0 1-4.433.755m0-25.107c-1.282 0-2.564.218-3.806.646a11.48 11.48 0 0 0-6.61 5.884 11.5 11.5 0 0 0-.517 8.836 11.45 11.45 0 0 0 5.884 6.61 11.5 11.5 0 0 0 8.836.517 11.48 11.48 0 0 0 6.61-5.884 11.5 11.5 0 0 0 .517-8.836 11.48 11.48 0 0 0-5.884-6.61 11.46 11.46 0 0 0-5.03-1.163"/><path fill="#AFE0DD" d="M172.873 139.6a8.876 8.876 0 1 0 0-17.752 8.876 8.876 0 0 0 0 17.752"/><path fill="#AFE0DD" d="M181.252 127.811c-1.61-4.632-6.67-7.077-11.301-5.467a8.77 8.77 0 0 0-4.056 2.893 8.8 8.8 0 0 0-.328 6.64c1.611 4.631 6.67 7.076 11.302 5.466a8.76 8.76 0 0 0 4.055-2.892 8.8 8.8 0 0 0 .328-6.64"/><path fill="#13706D" d="M172.883 140.593c-4.085 0-7.912-2.554-9.334-6.629-1.789-5.139.945-10.775 6.083-12.564 5.139-1.789 10.775.944 12.564 6.083a9.84 9.84 0 0 1-.437 7.544 9.8 9.8 0 0 1-5.646 5.02 9.9 9.9 0 0 1-3.23.546m-.02-17.752c-.855 0-1.73.14-2.584.438-4.106 1.431-6.282 5.924-4.861 10.039 1.431 4.105 5.924 6.282 10.039 4.86a7.83 7.83 0 0 0 4.503-4.015 7.83 7.83 0 0 0 .348-6.024 7.91 7.91 0 0 0-7.455-5.298z"/><path fill="#C4EAE7" d="M173.747 123.696a6.92 6.92 0 0 0-5.218 1.392 6.9 6.9 0 0 0-.507 4.284c.567 2.882 2.962 5.148 5.884 5.546a6.92 6.92 0 0 0 5.218-1.392 6.9 6.9 0 0 0 .507-4.283c-.566-2.883-2.962-5.149-5.884-5.547"/><path fill="#fff" d="M175.298 128.696a2.117 2.117 0 1 0 0-4.234 2.117 2.117 0 0 0 0 4.234"/><path fill="#13706D" d="M190.307 119.164h-2.247a.997.997 0 0 1-.994-.994c0-.547.448-.994.994-.994h2.247c.546 0 .994.447.994.994a.997.997 0 0 1-.994.994m-16.311-5.308h-2.247a.997.997 0 0 1-.994-.994c0-.546.448-.994.994-.994h2.247c.546 0 .994.448.994.994a.997.997 0 0 1-.994.994"/><path fill="#C4EAE7" d="M157.427 122.344a2.087 2.087 0 1 0 0-4.174 2.087 2.087 0 0 0 0 4.174"/><path fill="#13706D" d="M157.426 123.338a3.084 3.084 0 0 1-3.081-3.081 3.084 3.084 0 0 1 3.081-3.081c1.7 0 3.082 1.382 3.082 3.081s-1.382 3.081-3.082 3.081m0-4.174a1.09 1.09 0 0 0-1.093 1.093c0 .606.497 1.094 1.093 1.094.597 0 1.094-.488 1.094-1.094a1.09 1.09 0 0 0-1.094-1.093"/><path fill="#C4EAE7" d="M155.111 114.065v-1.779c0-.955.775-1.73 1.729-1.73h2.853a1.73 1.73 0 0 1 1.729 1.73v1.779h-6.321z"/><path fill="#13706D" d="M161.432 115.059h-6.321a.997.997 0 0 1-.994-.994v-1.779a2.73 2.73 0 0 1 2.723-2.724h2.853a2.73 2.73 0 0 1 2.723 2.724v1.779a.997.997 0 0 1-.994.994zm-5.327-1.988h4.333v-.785a.734.734 0 0 0-.735-.736h-2.853a.734.734 0 0 0-.735.736v.785z"/><path fill="#C4EAE7" d="M84.033 77.984H82.84a2.376 2.376 0 0 0 0 4.751h1.193a2.376 2.376 0 1 0 0-4.75"/><path fill="#13706D" d="M84.023 83.73H82.83a3.37 3.37 0 0 1-3.37-3.37 3.373 3.373 0 0 1 3.37-3.37h1.193c1.859 0 3.37 1.511 3.37 3.37s-1.511 3.37-3.37 3.37m-1.183-4.752c-.765 0-1.381.617-1.381 1.382s.616 1.382 1.381 1.382h1.193a1.38 1.38 0 0 0 1.382-1.382 1.38 1.38 0 0 0-1.382-1.382z"/><path fill="#AFE0DD" d="M92.998 55.382a2.356 2.356 0 1 0 0-4.711 2.356 2.356 0 0 0 0 4.71"/><path fill="#13706D" d="M92.988 56.376a3.27 3.27 0 0 1-1.918-.616 3.3 3.3 0 0 1-1.372-2.167c-.159-.885.05-1.77.557-2.505a3.27 3.27 0 0 1 2.167-1.372 3.4 3.4 0 0 1 2.505.557 3.3 3.3 0 0 1 1.371 2.167 3.354 3.354 0 0 1-3.32 3.926zm.01-4.722c-.08 0-.159 0-.238.02a1.35 1.35 0 0 0-.885.557 1.4 1.4 0 0 0-.228 1.024c.06.357.258.676.556.884.298.21.656.298 1.024.229a1.365 1.365 0 0 0 1.113-1.58 1.35 1.35 0 0 0-.557-.885 1.3 1.3 0 0 0-.785-.249"/><path fill="#AFE0DD" d="M101.954 53.821a2.355 2.355 0 1 0 0-4.71 2.355 2.355 0 0 0 0 4.71"/><path fill="#13706D" d="M101.954 54.815a3.37 3.37 0 0 1-3.31-2.773 3.35 3.35 0 0 1 2.733-3.876c.875-.15 1.77.04 2.505.556a3.3 3.3 0 0 1 1.372 2.167c.149.885-.04 1.77-.557 2.505a3.3 3.3 0 0 1-2.167 1.372c-.188.03-.387.05-.576.05m0-4.721c-.08 0-.159 0-.239.02a1.35 1.35 0 0 0-.884.556 1.4 1.4 0 0 0-.229 1.024 1.365 1.365 0 0 0 1.581 1.113c.357-.06.675-.258.884-.556s.288-.666.229-1.024a1.35 1.35 0 0 0-.557-.885 1.3 1.3 0 0 0-.785-.248"/><path fill="#13706D" d="M95.324 53.613a.98.98 0 0 1-.974-.825l-1.938-11.103a1 1 0 0 1 .815-1.153l8.956-1.56a1 1 0 0 1 1.153.815l1.938 11.102a1.007 1.007 0 0 1-.805 1.153 1 1 0 0 1-1.153-.805l-1.77-10.128-6.997 1.222 1.77 10.129a1.006 1.006 0 0 1-.806 1.152c-.06 0-.12.01-.169.01z"/><path fill="#AFE0DD" d="M120.948 64.188a2.356 2.356 0 1 0 0-4.712 2.356 2.356 0 0 0 0 4.712"/><path fill="#13706D" d="M120.958 65.182c-.099 0-.199 0-.288-.01a3.355 3.355 0 0 1-3.051-3.638c.079-.894.497-1.7 1.182-2.276a3.32 3.32 0 0 1 2.446-.775c.894.08 1.699.497 2.276 1.183a3.351 3.351 0 0 1-2.565 5.507zm-.01-4.721c-.318 0-.626.11-.874.318a1.4 1.4 0 0 0-.487.924 1.37 1.37 0 0 0 1.242 1.481c.736.05 1.411-.497 1.481-1.242a1.33 1.33 0 0 0-.318-.994 1.42 1.42 0 0 0-.924-.487z"/><path fill="#13706D" d="M123.304 63.025h-.089a.99.99 0 0 1-.905-1.073l.974-11.232a1 1 0 0 1 .348-.676.97.97 0 0 1 .726-.228 7.04 7.04 0 0 1 5.854 4.234l.805 1.878a.99.99 0 0 1-.517 1.303.993.993 0 0 1-1.302-.517l-.805-1.879a5.05 5.05 0 0 0-3.22-2.853l-.885 10.139a.99.99 0 0 1-.994.904z"/><path fill="#fff" d="M172.475 67.558h-17.961a7.283 7.283 0 0 0-7.285 7.285v5.358a7.283 7.283 0 0 0 7.285 7.286l-2.554 6.977 7.723-6.162a3.75 3.75 0 0 1 2.345-.825h10.447a7.284 7.284 0 0 0 7.286-7.286v-5.358a7.284 7.284 0 0 0-7.286-7.285z"/><path fill="#13706D" d="M151.96 95.468a.93.93 0 0 1-.577-.189 1.01 1.01 0 0 1-.358-1.153l2.107-5.765a8.29 8.29 0 0 1-6.898-8.17v-5.358c0-4.562 3.718-8.28 8.28-8.28h17.961c4.562 0 8.279 3.718 8.279 8.28v5.358c0 4.562-3.717 8.28-8.279 8.28h-10.447c-.626 0-1.242.218-1.729.606l-7.723 6.162a1 1 0 0 1-.616.219zm2.554-26.916a6.3 6.3 0 0 0-6.292 6.291v5.358a6.3 6.3 0 0 0 6.292 6.292.99.99 0 0 1 .815.427 1 1 0 0 1 .119.914l-1.341 3.648 4.949-3.946a4.8 4.8 0 0 1 2.972-1.034h10.447a6.3 6.3 0 0 0 6.292-6.291v-5.358a6.3 6.3 0 0 0-6.292-6.291h-17.961z"/><path fill="#AFE0DD" d="M116.118 43.464a2.356 2.356 0 1 0 0-4.712 2.356 2.356 0 0 0 0 4.712"/><path fill="#13706D" d="M116.108 44.468a3.363 3.363 0 0 1-3.33-2.952 3.3 3.3 0 0 1 .696-2.475 3.36 3.36 0 0 1 2.236-1.262c.885-.11 1.77.139 2.475.696a3.36 3.36 0 0 1 1.263 2.236c.109.885-.14 1.77-.696 2.475a3.36 3.36 0 0 1-2.237 1.262c-.139.02-.268.02-.407.02m.01-4.721c-.06 0-.109 0-.169.01-.368.04-.686.228-.915.507a1.32 1.32 0 0 0-.278 1.004c.04.357.229.685.517.914s.636.328 1.004.278c.358-.04.686-.228.914-.517.229-.288.328-.646.279-1.003a1.35 1.35 0 0 0-.517-.915 1.36 1.36 0 0 0-.845-.288z"/><path fill="#13706D" d="M118.463 41.824a.99.99 0 0 1-.984-.874l-1.341-11.192a1.01 1.01 0 0 1 .874-1.113 7.03 7.03 0 0 1 6.6 2.942l1.173 1.67a.99.99 0 0 1-.239 1.38.987.987 0 0 1-1.381-.238l-1.173-1.67a5.03 5.03 0 0 0-3.737-2.136l1.212 10.108a.99.99 0 0 1-.864 1.103h-.12zM153.6 77.816c0-1.66.954-2.624 2.455-2.624.964 0 1.689.397 2.067 1.113.08.159.129.318.129.467 0 .328-.228.547-.566.547-.288 0-.457-.12-.607-.398-.228-.467-.566-.706-1.013-.706-.706 0-1.153.607-1.153 1.59 0 .985.447 1.6 1.153 1.6.467 0 .805-.228 1.023-.705.13-.278.289-.388.567-.388.368 0 .606.23.606.567 0 .12-.03.249-.079.378-.308.725-1.113 1.183-2.088 1.183-1.56 0-2.494-.965-2.494-2.624m5.536.009c0-1.62.974-2.624 2.504-2.624s2.505 1.014 2.505 2.624-.964 2.624-2.505 2.624-2.504-1.004-2.504-2.624m3.697 0c0-.964-.467-1.58-1.193-1.58-.725 0-1.192.616-1.192 1.58s.467 1.58 1.192 1.58c.726 0 1.193-.616 1.193-1.58m2.177 1.978c0-.238.1-.417.358-.636l1.451-1.312c.597-.537.756-.775.756-1.103 0-.368-.279-.626-.686-.626-.338 0-.567.159-.746.497-.159.248-.308.347-.576.347-.338 0-.537-.198-.537-.506 0-.1.01-.19.05-.279.219-.586.894-1.033 1.819-1.033 1.153 0 1.918.616 1.918 1.51 0 .646-.328 1.024-1.133 1.75l-1.014.924v.02h1.759c.328 0 .517.189.517.497s-.189.497-.517.497h-2.812c-.418 0-.607-.229-.607-.557zm4.642-1.342c0-1.242.736-2.027 1.908-2.027 1.173 0 1.889.755 1.889 1.789 0 .318-.179.497-.507.497h-2.087v.07c0 .467.308.785.755.785.338 0 .577-.11.855-.388.129-.12.229-.169.388-.169.248 0 .467.16.467.437 0 .1-.03.19-.08.279-.248.447-.874.725-1.64.725-1.232 0-1.958-.745-1.958-1.988zm2.614-.457c-.02-.417-.298-.686-.686-.686-.387 0-.676.279-.705.686z"/><path fill="#C4EAE7" d="m123.493 103.102-2.525 13.527c-.129.716.696 1.203 1.262.746l4.225-3.459a.76.76 0 0 1 .556-.169l5.865.467c.695.06 1.103-.755.656-1.282l-8.668-10.198c-.427-.497-1.242-.279-1.361.358z"/><path fill="#fff" d="m127.211 98.052-2.267 12.146c-.089.468.458.796.825.487l4.085-3.339 5.577.447c.457.04.725-.497.427-.845l-7.763-9.134a.512.512 0 0 0-.894.238z"/><path fill="#13706D" d="M125.451 111.799a1.5 1.5 0 0 1-.775-.219 1.49 1.49 0 0 1-.706-1.57l2.266-12.137a1.5 1.5 0 0 1 1.094-1.183 1.49 1.49 0 0 1 1.53.478l7.763 9.134c.398.467.467 1.113.199 1.66a1.49 1.49 0 0 1-1.461.815l-5.179-.417-3.777 3.091a1.5 1.5 0 0 1-.954.338zm2.555-12.574-1.839 9.85 3.061-2.505a1 1 0 0 1 .706-.218l4.413.358-6.351-7.475z"/></svg>