<svg width="219" height="180" viewBox="0 0 219 180" fill="none" xmlns="http://www.w3.org/2000/svg">
<g id="tools-api">
<path id="Vector" d="M106.988 12.3984H111.679C169.08 12.3984 215.687 59.005 215.687 116.406V140.996C215.687 155.607 203.829 167.465 189.218 167.465H29.4495C14.8383 167.465 2.98047 155.607 2.98047 140.996V116.406C2.98047 59.005 49.587 12.3984 106.988 12.3984Z" fill="#E0F4F3"/>
<g id="cloud">
<path id="Vector_2" d="M133.417 93.8729C131.558 84.4602 123.269 77.3733 113.299 77.3733C105.387 77.3733 98.5191 81.866 95.0999 88.4062C86.8601 89.3107 80.459 96.2584 80.459 104.747C80.459 113.812 87.8143 121.167 96.8791 121.167H132.453C140.007 121.167 146.14 115.044 146.14 107.48C146.14 99.9162 140.534 94.3997 133.417 93.8829V93.8729Z" fill="#AFE0DD"/>
</g>
<g id="cloud_2">
<g id="Group">
<path id="Vector_3" d="M128.587 77.3434C126.728 67.9306 118.439 60.8438 108.469 60.8438C100.557 60.8438 93.6891 65.3364 90.2699 71.8766C82.03 72.7811 75.6289 79.7289 75.6289 88.2173C75.6289 97.2821 82.9842 104.637 92.049 104.637H127.623C135.177 104.637 141.309 98.5146 141.309 90.9506C141.309 83.3866 135.704 77.8702 128.587 77.3533V77.3434Z" fill="white"/>
<path id="Vector_4" d="M127.632 106.029H92.0587C82.2385 106.029 74.2471 98.0375 74.2471 88.2172C74.2471 79.3511 80.7078 71.8965 89.3949 70.5844C93.2912 63.6963 100.537 59.4521 108.479 59.4521C118.558 59.4521 127.344 66.38 129.74 76.0711C137.095 77.1247 142.721 83.4661 142.721 90.9506C142.721 99.27 135.952 106.029 127.642 106.029H127.632ZM108.479 62.2452C101.332 62.2452 94.8319 66.1812 91.522 72.5226C91.3033 72.9302 90.8958 73.2085 90.4386 73.2681C82.805 74.103 77.0401 80.5339 77.0401 88.2172C77.0401 96.4968 83.7791 103.236 92.0587 103.236H127.632C134.411 103.236 139.918 97.7194 139.918 90.9506C139.918 84.5694 134.898 79.212 128.487 78.7448C127.861 78.6951 127.344 78.2379 127.215 77.6216C125.456 68.7158 117.574 62.2452 108.469 62.2452H108.479Z" fill="#13706D"/>
</g>
</g>
<g id="refresh">
<path id="Vector_5" fill-rule="evenodd" clip-rule="evenodd" d="M108.509 69.5309C109.055 68.9842 109.94 68.9842 110.487 69.5309L114.681 73.7253C115.228 74.272 115.228 75.1566 114.681 75.7033L110.487 79.8978C109.94 80.4445 109.055 80.4445 108.509 79.8978C107.962 79.3511 107.962 78.4665 108.509 77.9198L110.318 76.1108H108.101C103.141 76.1108 99.0165 80.2357 99.0165 85.1956C99.0165 90.1554 103.141 94.2803 108.101 94.2803C113.061 94.2803 117.186 90.1554 117.186 85.1956C117.186 84.4203 117.812 83.7941 118.587 83.7941C119.363 83.7941 119.989 84.4203 119.989 85.1956C119.989 91.696 114.612 97.0733 108.111 97.0733C101.611 97.0733 96.2334 91.696 96.2334 85.1956C96.2334 78.6951 101.611 73.3178 108.111 73.3178H110.328L108.519 71.5088C107.972 70.9621 107.972 70.0775 108.519 69.5309H108.509Z" fill="#13706D"/>
</g>
<path id="Vector_6" d="M38.8922 154.852H34.9164C34.3697 154.852 33.9224 154.405 33.9224 153.858C33.9224 153.311 34.3697 152.864 34.9164 152.864H38.8922C39.4389 152.864 39.8862 153.311 39.8862 153.858C39.8862 154.405 39.4389 154.852 38.8922 154.852ZM27.9587 154.852H23.9829C23.4362 154.852 22.9889 154.405 22.9889 153.858C22.9889 153.311 23.4362 152.864 23.9829 152.864H27.9587C28.5054 152.864 28.9527 153.311 28.9527 153.858C28.9527 154.405 28.5054 154.852 27.9587 154.852ZM17.0252 154.852H13.0494C12.5027 154.852 12.0554 154.405 12.0554 153.858C12.0554 153.311 12.5027 152.864 13.0494 152.864H17.0252C17.5719 152.864 18.0192 153.311 18.0192 153.858C18.0192 154.405 17.5719 154.852 17.0252 154.852ZM45.8499 154.792C45.343 154.792 44.9056 154.405 44.8559 153.888C44.8062 153.341 45.2138 152.854 45.7604 152.805C46.9929 152.695 48.1956 152.397 49.3088 151.93C49.8158 151.711 50.4022 151.96 50.6109 152.467C50.8197 152.973 50.5811 153.56 50.0742 153.769C48.7721 154.315 47.3806 154.663 45.9393 154.792C45.9095 154.792 45.8797 154.792 45.8499 154.792ZM54.9843 149.485C54.7955 149.485 54.6166 149.435 54.4476 149.326C53.9904 149.027 53.8512 148.411 54.1494 147.954C54.8154 146.93 55.2428 145.817 55.4515 144.644C55.5409 144.107 56.0578 143.74 56.6045 143.829C57.1412 143.919 57.509 144.435 57.4195 144.982C57.171 146.413 56.6343 147.775 55.8292 149.027C55.6403 149.326 55.3223 149.485 54.9943 149.485H54.9843ZM56.5647 138.859C56.018 138.859 55.5708 138.412 55.5708 137.865V133.89C55.5708 133.343 56.018 132.896 56.5647 132.896C57.1114 132.896 57.5587 133.343 57.5587 133.89V137.865C57.5587 138.412 57.1114 138.859 56.5647 138.859ZM56.5647 127.926C56.018 127.926 55.5708 127.479 55.5708 126.932V122.956C55.5708 122.409 56.018 121.962 56.5647 121.962C57.1114 121.962 57.5587 122.409 57.5587 122.956V126.932C57.5587 127.479 57.1114 127.926 56.5647 127.926ZM56.5647 116.992C56.018 116.992 55.5708 116.545 55.5708 115.998V113.891C55.5708 113.335 55.5211 112.768 55.4117 112.221C55.3024 111.685 55.6602 111.158 56.197 111.058C56.7337 110.949 57.2605 111.307 57.3599 111.844C57.4891 112.52 57.5587 113.205 57.5587 113.891V115.998C57.5587 116.545 57.1114 116.992 56.5647 116.992ZM52.8771 107.172C52.6485 107.172 52.4199 107.093 52.2311 106.934C51.3166 106.148 50.273 105.522 49.12 105.065C48.6131 104.866 48.3646 104.28 48.5634 103.773C48.7622 103.266 49.3486 103.007 49.8555 103.216C51.2172 103.753 52.4497 104.498 53.5232 105.423C53.9407 105.781 53.9904 106.407 53.6325 106.824C53.4338 107.053 53.1555 107.172 52.8771 107.172ZM42.6394 104.21H38.6636C38.1169 104.21 37.6696 103.763 37.6696 103.216C37.6696 102.669 38.1169 102.222 38.6636 102.222H42.6394C43.1861 102.222 43.6334 102.669 43.6334 103.216C43.6334 103.763 43.1861 104.21 42.6394 104.21ZM31.7059 104.21H27.7301C27.1834 104.21 26.7361 103.763 26.7361 103.216C26.7361 102.669 27.1834 102.222 27.7301 102.222H31.7059C32.2526 102.222 32.6999 102.669 32.6999 103.216C32.6999 103.763 32.2526 104.21 31.7059 104.21ZM20.7724 104.21H16.7966C16.2499 104.21 15.8026 103.763 15.8026 103.216C15.8026 102.669 16.2499 102.222 16.7966 102.222H20.7724C21.3191 102.222 21.7664 102.669 21.7664 103.216C21.7664 103.763 21.3191 104.21 20.7724 104.21ZM9.83891 104.21H5.8631C5.31642 104.21 4.86914 103.763 4.86914 103.216C4.86914 102.669 5.31642 102.222 5.8631 102.222H9.83891C10.3856 102.222 10.8329 102.669 10.8329 103.216C10.8329 103.763 10.3856 104.21 9.83891 104.21Z" fill="#13706D"/>
<path id="Vector_7" d="M193.949 73.5167H189.973C189.426 73.5167 188.979 73.0694 188.979 72.5228C188.979 71.9761 189.426 71.5288 189.973 71.5288H193.949C194.496 71.5288 194.943 71.9761 194.943 72.5228C194.943 73.0694 194.496 73.5167 193.949 73.5167ZM183.015 73.5167H179.04C178.493 73.5167 178.046 73.0694 178.046 72.5228C178.046 71.9761 178.493 71.5288 179.04 71.5288H183.015C183.562 71.5288 184.009 71.9761 184.009 72.5228C184.009 73.0694 183.562 73.5167 183.015 73.5167ZM172.082 73.5167H168.106C167.559 73.5167 167.112 73.0694 167.112 72.5228C167.112 71.9761 167.559 71.5288 168.106 71.5288H172.082C172.629 71.5288 173.076 71.9761 173.076 72.5228C173.076 73.0694 172.629 73.5167 172.082 73.5167ZM161.297 72.5228C161.158 72.5228 161.019 72.4929 160.88 72.4333C159.558 71.8171 158.375 70.9821 157.361 69.9285C156.984 69.531 156.994 68.9048 157.391 68.5271C157.789 68.1494 158.415 68.1593 158.793 68.5569C159.638 69.4316 160.612 70.1273 161.715 70.6442C162.212 70.8728 162.431 71.4692 162.202 71.9661C162.033 72.3339 161.675 72.5426 161.297 72.5426V72.5228ZM155.155 64.0543C154.658 64.0543 154.23 63.6865 154.171 63.1796C154.121 62.7224 154.091 62.2651 154.091 61.8079V59.0944C154.091 58.5478 154.539 58.1005 155.085 58.1005C155.632 58.1005 156.079 58.5478 156.079 59.0944V61.8079C156.079 62.1856 156.099 62.5733 156.149 62.951C156.208 63.4977 155.821 63.9946 155.274 64.0543C155.234 64.0543 155.195 64.0543 155.155 64.0543ZM155.085 53.1208C154.539 53.1208 154.091 52.6735 154.091 52.1268V48.151C154.091 47.6043 154.539 47.157 155.085 47.157C155.632 47.157 156.079 47.6043 156.079 48.151V52.1268C156.079 52.6735 155.632 53.1208 155.085 53.1208ZM155.085 42.1873C154.539 42.1873 154.091 41.74 154.091 41.1933V37.2175C154.091 36.6708 154.539 36.2235 155.085 36.2235C155.632 36.2235 156.079 36.6708 156.079 37.2175V41.1933C156.079 41.74 155.632 42.1873 155.085 42.1873ZM155.085 31.2538C154.539 31.2538 154.091 30.8065 154.091 30.2598V26.284C154.091 25.7373 154.539 25.29 155.085 25.29C155.632 25.29 156.079 25.7373 156.079 26.284V30.2598C156.079 30.8065 155.632 31.2538 155.085 31.2538Z" fill="#13706D"/>
<path id="Vector_8" d="M204.852 154.852H200.877C200.33 154.852 199.883 154.405 199.883 153.858C199.883 153.311 200.33 152.864 200.877 152.864H204.852C205.399 152.864 205.846 153.311 205.846 153.858C205.846 154.405 205.399 154.852 204.852 154.852ZM193.919 154.852H189.943C189.396 154.852 188.949 154.405 188.949 153.858C188.949 153.311 189.396 152.864 189.943 152.864H193.919C194.466 152.864 194.913 153.311 194.913 153.858C194.913 154.405 194.466 154.852 193.919 154.852ZM182.985 154.852H179.01C178.463 154.852 178.016 154.405 178.016 153.858C178.016 153.311 178.463 152.864 179.01 152.864H182.985C183.532 152.864 183.979 153.311 183.979 153.858C183.979 154.405 183.532 154.852 182.985 154.852ZM172.052 154.852H168.076C167.529 154.852 167.082 154.405 167.082 153.858C167.082 153.311 167.529 152.864 168.076 152.864H172.052C172.599 152.864 173.046 153.311 173.046 153.858C173.046 154.405 172.599 154.852 172.052 154.852ZM161.118 154.852H159.349C158.514 154.852 157.689 154.743 156.904 154.514C156.377 154.365 156.069 153.818 156.218 153.291C156.367 152.765 156.924 152.456 157.441 152.606C158.057 152.785 158.703 152.864 159.349 152.864H161.118C161.665 152.864 162.112 153.311 162.112 153.858C162.112 154.405 161.665 154.852 161.118 154.852ZM152.083 150.141C151.706 150.141 151.338 149.922 151.179 149.554C150.662 148.401 150.404 147.179 150.404 145.906V145.27C150.404 144.724 150.851 144.276 151.397 144.276C151.944 144.276 152.391 144.724 152.391 145.27V145.906C152.391 146.9 152.59 147.854 152.998 148.749C153.226 149.246 152.998 149.842 152.501 150.061C152.372 150.121 152.232 150.151 152.093 150.151L152.083 150.141ZM151.388 139.306C150.841 139.306 150.394 138.859 150.394 138.313V134.337C150.394 133.79 150.841 133.343 151.388 133.343C151.934 133.343 152.381 133.79 152.381 134.337V138.313C152.381 138.859 151.934 139.306 151.388 139.306ZM153.862 129.059C153.604 129.059 153.336 128.959 153.147 128.751C152.769 128.353 152.789 127.727 153.187 127.349C154.27 126.315 155.612 125.57 157.043 125.182C157.57 125.043 158.117 125.351 158.256 125.888C158.395 126.415 158.087 126.962 157.55 127.101C156.437 127.399 155.393 127.985 154.548 128.79C154.359 128.969 154.111 129.069 153.862 129.069V129.059ZM211.939 126.862H207.963C207.417 126.862 206.969 126.415 206.969 125.868C206.969 125.322 207.417 124.874 207.963 124.874H211.939C212.486 124.874 212.933 125.322 212.933 125.868C212.933 126.415 212.486 126.862 211.939 126.862ZM201.006 126.862H197.03C196.483 126.862 196.036 126.415 196.036 125.868C196.036 125.322 196.483 124.874 197.03 124.874H201.006C201.552 124.874 202 125.322 202 125.868C202 126.415 201.552 126.862 201.006 126.862ZM190.072 126.862H186.096C185.55 126.862 185.102 126.415 185.102 125.868C185.102 125.322 185.55 124.874 186.096 124.874H190.072C190.619 124.874 191.066 125.322 191.066 125.868C191.066 126.415 190.619 126.862 190.072 126.862ZM179.139 126.862H175.163C174.616 126.862 174.169 126.415 174.169 125.868C174.169 125.322 174.616 124.874 175.163 124.874H179.139C179.685 124.874 180.133 125.322 180.133 125.868C180.133 126.415 179.685 126.862 179.139 126.862ZM168.205 126.862H164.229C163.683 126.862 163.235 126.415 163.235 125.868C163.235 125.322 163.683 124.874 164.229 124.874H168.205C168.752 124.874 169.199 125.322 169.199 125.868C169.199 126.415 168.752 126.862 168.205 126.862Z" fill="#13706D"/>
<path id="Vector_9" d="M117.762 130.093H77.5569C75.729 130.093 74.2471 131.574 74.2471 133.402C74.2471 135.23 75.729 136.712 77.5569 136.712H117.762C119.59 136.712 121.072 135.23 121.072 133.402C121.072 131.574 119.59 130.093 117.762 130.093Z" fill="#AFE0DD"/>
<path id="Vector_10" d="M134.501 143.014H77.5569C75.729 143.014 74.2471 144.496 74.2471 146.324C74.2471 148.152 75.729 149.634 77.5569 149.634H134.501C136.329 149.634 137.81 148.152 137.81 146.324C137.81 144.496 136.329 143.014 134.501 143.014Z" fill="#C4EAE7"/>
<path id="Vector_11" d="M24.6685 52.8324H57.5882C59.4171 52.8324 60.8981 51.3514 60.8981 49.5225C60.8981 47.6936 59.4171 46.2126 57.5882 46.2126H30.2346C28.2865 48.3397 26.4377 50.5463 24.6685 52.8324Z" fill="#AFE0DD"/>
<path id="Vector_12" d="M16.2495 65.555H57.598C59.4269 65.555 60.9079 64.074 60.9079 62.2452C60.9079 60.4163 59.4269 58.9353 57.598 58.9353H20.2949C18.8636 61.0822 17.5118 63.2888 16.2495 65.555Z" fill="#C4EAE7"/>
<path id="Vector_13" d="M41.4959 113.493H24.3403C20.772 113.493 17.8696 116.396 17.8696 119.964V137.12C17.8696 140.688 20.772 143.59 24.3403 143.59H41.4959C45.0642 143.59 47.9666 140.688 47.9666 137.12V119.964C47.9666 116.396 45.0642 113.493 41.4959 113.493ZM19.7482 119.964C19.7482 117.429 21.8057 115.372 24.3403 115.372H26.8749C27.2923 115.372 27.6601 115.66 27.7495 116.078C28.1869 118.085 27.6004 120.232 26.0996 121.723C24.6086 123.214 22.4617 123.811 20.4539 123.373C20.0464 123.284 19.7482 122.926 19.7482 122.499V119.964ZM35.5024 141.712H24.3403C21.8057 141.712 19.7482 139.654 19.7482 137.12V125.958C19.7482 125.55 20.116 125.232 20.5135 125.292C20.9111 125.351 21.3385 125.391 21.756 125.391C22.6108 125.391 23.4656 125.252 24.2806 124.984C24.5888 124.884 24.877 125.182 24.7577 125.48C23.5948 128.582 24.2608 132.2 26.7456 134.694C29.2305 137.189 32.8585 137.845 35.9596 136.682C36.2677 136.573 36.556 136.861 36.4566 137.169C36.059 138.372 35.9497 139.664 36.1485 140.937C36.2081 141.344 35.9 141.712 35.4825 141.712H35.5024ZM46.088 137.12C46.088 139.654 44.0305 141.712 41.4959 141.712H38.9613C38.5439 141.712 38.1761 141.424 38.0867 141.006C37.6493 138.998 38.2358 136.851 39.7366 135.36C41.2276 133.869 43.3745 133.273 45.3823 133.71C45.7898 133.8 46.088 134.158 46.088 134.585V137.12ZM46.088 131.126C46.088 131.544 45.7202 131.852 45.3127 131.792C44.0504 131.593 42.7583 131.703 41.5456 132.1C41.2375 132.2 40.9493 131.911 41.0586 131.603C42.2215 128.502 41.5556 124.884 39.0707 122.389C36.5858 119.894 32.9579 119.238 29.8567 120.401C29.5486 120.511 29.2603 120.222 29.3597 119.914C29.7573 118.712 29.8667 117.42 29.6679 116.147C29.6082 115.74 29.9164 115.372 30.3338 115.372H41.4959C44.0305 115.372 46.088 117.429 46.088 119.964V131.126Z" fill="#AFE0DD"/>
<path id="Vector_14" d="M164.13 98.8525L160.88 116.257C160.711 117.171 161.775 117.807 162.5 117.211L167.927 112.768C168.126 112.609 168.385 112.519 168.643 112.549L176.187 113.155C177.072 113.225 177.608 112.191 177.032 111.506L165.88 98.3853C165.333 97.7393 164.289 98.0176 164.13 98.8525Z" fill="#C4EAE7"/>
<g id="Group_2">
<path id="Vector_15" d="M168.911 92.3522L165.999 107.967C165.889 108.574 166.585 108.991 167.062 108.593L172.32 104.29L179.487 104.866C180.073 104.916 180.421 104.23 180.043 103.783L170.064 92.0441C169.706 91.6266 169.02 91.8055 168.911 92.3522Z" fill="white"/>
<path id="Vector_16" d="M166.645 109.746C166.357 109.746 166.069 109.667 165.8 109.508C165.194 109.15 164.886 108.474 165.015 107.778L167.927 92.1632C168.046 91.5271 168.504 91.0301 169.13 90.8711C169.746 90.7021 170.392 90.9109 170.81 91.3979L180.789 103.136C181.226 103.643 181.306 104.359 180.998 104.955C180.69 105.552 180.063 105.9 179.397 105.85L172.629 105.313L167.679 109.359C167.371 109.607 167.003 109.736 166.635 109.736L166.645 109.746ZM169.756 93.2268L167.142 107.242L171.694 103.524C171.893 103.365 172.142 103.286 172.4 103.305L178.761 103.812L169.756 93.2268Z" fill="#13706D"/>
</g>
<g id="Group_3">
<path id="Vector_17" d="M162.361 143.372C162.361 143.173 162.42 142.895 162.53 142.616L164.776 136.444C165.114 135.519 165.671 135.092 166.575 135.092C167.529 135.092 168.086 135.5 168.434 136.444L170.7 142.616C170.809 142.914 170.849 143.123 170.849 143.362C170.849 144.008 170.362 144.475 169.686 144.475C169.01 144.475 168.672 144.177 168.474 143.431L168.166 142.417H165.045L164.736 143.392C164.518 144.157 164.17 144.475 163.554 144.475C162.818 144.475 162.371 144.058 162.371 143.372H162.361ZM167.649 140.668L166.585 137.159H166.535L165.502 140.668H167.649Z" fill="#13706D"/>
<path id="Vector_18" d="M172.469 143.272V136.444C172.469 135.678 172.897 135.231 173.632 135.231H176.415C178.373 135.231 179.695 136.503 179.695 138.452C179.695 140.4 178.304 141.662 176.276 141.662H174.785V143.262C174.785 144.028 174.368 144.465 173.632 144.465C172.897 144.465 172.469 144.028 172.469 143.262V143.272ZM175.789 139.923C176.773 139.923 177.35 139.416 177.35 138.462C177.35 137.507 176.773 137 175.799 137H174.785V139.923H175.789Z" fill="#13706D"/>
<path id="Vector_19" d="M181.236 143.272V136.305C181.236 135.539 181.663 135.102 182.399 135.102C183.134 135.102 183.552 135.539 183.552 136.305V143.272C183.552 144.038 183.124 144.475 182.399 144.475C181.673 144.475 181.236 144.038 181.236 143.272Z" fill="#13706D"/>
</g>
</g>
</svg>
