<svg xmlns="http://www.w3.org/2000/svg" width="219" height="180" fill="none"><path fill="#E0F4F3" d="M106.988 12.398h4.691c57.401 0 104.008 46.607 104.008 104.008v24.59c0 14.611-11.858 26.469-26.469 26.469H29.45c-14.612 0-26.47-11.858-26.47-26.469v-24.59c0-57.401 46.607-104.008 104.008-104.008"/><path fill="#AFE0DD" d="M133.417 93.873c-1.859-9.413-10.148-16.5-20.118-16.5-7.912 0-14.78 4.493-18.2 11.033-8.239.905-14.64 7.852-14.64 16.341 0 9.065 7.355 16.42 16.42 16.42h35.574c7.554 0 13.687-6.123 13.687-13.687s-5.606-13.08-12.723-13.597z"/><path fill="#fff" d="M128.587 77.343c-1.859-9.412-10.148-16.5-20.118-16.5-7.912 0-14.78 4.493-18.2 11.034-8.239.904-14.64 7.852-14.64 16.34 0 9.065 7.355 16.42 16.42 16.42h35.574c7.554 0 13.686-6.122 13.686-13.686s-5.605-13.08-12.722-13.598z"/><path fill="#13706D" d="M127.632 106.029H92.059c-9.82 0-17.812-7.992-17.812-17.812 0-8.866 6.46-16.32 15.148-17.633a21.87 21.87 0 0 1 19.084-11.132c10.079 0 18.865 6.928 21.261 16.62 7.355 1.053 12.981 7.394 12.981 14.879 0 8.319-6.769 15.078-15.079 15.078zm-19.153-43.784a19.07 19.07 0 0 0-16.957 10.278 1.45 1.45 0 0 1-1.083.745 15.02 15.02 0 0 0-13.399 14.95c0 8.279 6.74 15.018 15.019 15.018h35.573c6.779 0 12.286-5.517 12.286-12.285 0-6.382-5.02-11.739-11.431-12.206a1.415 1.415 0 0 1-1.272-1.123c-1.759-8.906-9.641-15.377-18.746-15.377z"/><path fill="#13706D" fill-rule="evenodd" d="M108.509 69.53a1.4 1.4 0 0 1 1.978 0l4.194 4.195a1.397 1.397 0 0 1 0 1.978l-4.194 4.195a1.398 1.398 0 1 1-1.978-1.978l1.809-1.81h-2.217c-4.96 0-9.085 4.126-9.085 9.086s4.125 9.084 9.085 9.084 9.085-4.125 9.085-9.084a1.4 1.4 0 0 1 1.401-1.402 1.4 1.4 0 0 1 1.402 1.402c0 6.5-5.377 11.877-11.878 11.877-6.5 0-11.878-5.377-11.878-11.877s5.378-11.878 11.878-11.878h2.217l-1.809-1.81a1.397 1.397 0 0 1 0-1.977z" clip-rule="evenodd"/><path fill="#13706D" d="M38.892 154.852h-3.976a.997.997 0 0 1-.994-.994c0-.547.448-.994.994-.994h3.976c.547 0 .994.447.994.994a.997.997 0 0 1-.994.994m-10.933 0h-3.976a.997.997 0 0 1-.994-.994c0-.547.447-.994.994-.994h3.976c.546 0 .994.447.994.994a.997.997 0 0 1-.994.994m-10.934 0H13.05a.997.997 0 0 1-.994-.994c0-.547.448-.994.994-.994h3.976c.547 0 .994.447.994.994a.997.997 0 0 1-.994.994m28.825-.06c-.507 0-.944-.387-.994-.904a1 1 0 0 1 .904-1.083 12 12 0 0 0 3.549-.875.99.99 0 0 1 1.302.537 1 1 0 0 1-.537 1.302 13.9 13.9 0 0 1-4.135 1.023zm9.134-5.307a.996.996 0 0 1-.835-1.531 8.9 8.9 0 0 0 1.303-3.31 1 1 0 0 1 1.153-.815c.536.09.904.606.815 1.153a10.9 10.9 0 0 1-1.59 4.045.98.98 0 0 1-.836.458zm1.58-10.626a.997.997 0 0 1-.993-.994v-3.975c0-.547.447-.994.994-.994s.994.447.994.994v3.975a.997.997 0 0 1-.994.994m0-10.933a.997.997 0 0 1-.993-.994v-3.976c0-.547.447-.994.994-.994s.994.447.994.994v3.976a.997.997 0 0 1-.994.994m0-10.934a.997.997 0 0 1-.993-.994v-2.107c0-.556-.05-1.123-.16-1.67a.99.99 0 0 1 .786-1.163.99.99 0 0 1 1.163.786c.13.676.199 1.361.199 2.047v2.107a.997.997 0 0 1-.994.994m-3.687-9.82a1 1 0 0 1-.646-.238 10.9 10.9 0 0 0-3.111-1.869 1 1 0 0 1-.557-1.292.993.993 0 0 1 1.292-.557 12.8 12.8 0 0 1 3.668 2.207.992.992 0 0 1-.646 1.749M42.64 104.21h-3.975a.997.997 0 0 1-.994-.994c0-.547.447-.994.994-.994h3.975c.547 0 .994.447.994.994a.997.997 0 0 1-.994.994m-10.933 0H27.73a.997.997 0 0 1-.994-.994c0-.547.447-.994.994-.994h3.976c.547 0 .994.447.994.994a.997.997 0 0 1-.994.994m-10.934 0h-3.975a.997.997 0 0 1-.994-.994c0-.547.447-.994.994-.994h3.975c.547 0 .994.447.994.994a.997.997 0 0 1-.994.994m-10.933 0H5.863a.997.997 0 0 1-.994-.994c0-.547.447-.994.994-.994H9.84c.547 0 .994.447.994.994a.997.997 0 0 1-.994.994m184.109-30.693h-3.976a.997.997 0 0 1-.994-.994c0-.547.447-.994.994-.994h3.976c.547 0 .994.447.994.994a.997.997 0 0 1-.994.994m-10.934 0h-3.975a.997.997 0 0 1-.994-.994c0-.547.447-.994.994-.994h3.975c.547 0 .994.447.994.994a.997.997 0 0 1-.994.994m-10.933 0h-3.976a.997.997 0 0 1-.994-.994c0-.547.447-.994.994-.994h3.976c.547 0 .994.447.994.994a.997.997 0 0 1-.994.994m-10.785-.994a1.05 1.05 0 0 1-.417-.09 11.7 11.7 0 0 1-3.519-2.505.991.991 0 1 1 1.432-1.371 9.8 9.8 0 0 0 2.922 2.087 1 1 0 0 1 .487 1.322.99.99 0 0 1-.905.577zm-6.142-8.469a.99.99 0 0 1-.984-.874c-.05-.458-.08-.915-.08-1.372v-2.714c0-.546.448-.994.994-.994.547 0 .994.448.994.994v2.714c0 .378.02.765.07 1.143a.996.996 0 0 1-.875 1.103zm-.07-10.933a.997.997 0 0 1-.994-.994V48.15c0-.547.448-.994.994-.994.547 0 .994.447.994.994v3.976a.997.997 0 0 1-.994.994m0-10.934a.997.997 0 0 1-.994-.994v-3.975c0-.547.448-.995.994-.995.547 0 .994.448.994.995v3.975a.997.997 0 0 1-.994.994m0-10.933a.997.997 0 0 1-.994-.994v-3.976c0-.547.448-.994.994-.994.547 0 .994.447.994.994v3.976a.997.997 0 0 1-.994.994m49.767 123.599h-3.975a.997.997 0 0 1-.994-.994c0-.547.447-.994.994-.994h3.975c.547 0 .994.447.994.994a.997.997 0 0 1-.994.994m-10.933 0h-3.976a.997.997 0 0 1-.994-.994c0-.547.447-.994.994-.994h3.976c.547 0 .994.447.994.994a.997.997 0 0 1-.994.994m-10.934 0h-3.975a.997.997 0 0 1-.994-.994c0-.547.447-.994.994-.994h3.975c.547 0 .994.447.994.994a.997.997 0 0 1-.994.994m-10.933 0h-3.976a.997.997 0 0 1-.994-.994c0-.547.447-.994.994-.994h3.976c.547 0 .994.447.994.994a.997.997 0 0 1-.994.994m-10.934 0h-1.769c-.835 0-1.66-.109-2.445-.338a.991.991 0 1 1 .537-1.908 7 7 0 0 0 1.908.258h1.769c.547 0 .994.447.994.994a.997.997 0 0 1-.994.994m-9.035-4.711a.99.99 0 0 1-.904-.587 8.8 8.8 0 0 1-.775-3.648v-.636c0-.546.447-.994.993-.994.547 0 .994.448.994.994v.636c0 .994.199 1.948.607 2.843a.99.99 0 0 1-.497 1.312 1 1 0 0 1-.408.09zm-.695-10.835a.996.996 0 0 1-.994-.993v-3.976c0-.547.447-.994.994-.994s.993.447.993.994v3.976a.996.996 0 0 1-.993.993m2.474-10.247a.99.99 0 0 1-.675-1.71 9 9 0 0 1 3.856-2.167.99.99 0 0 1 1.213.706.99.99 0 0 1-.706 1.213 7 7 0 0 0-3.002 1.689 1 1 0 0 1-.686.279zm58.077-2.197h-3.976a.997.997 0 0 1-.994-.994c0-.546.448-.994.994-.994h3.976c.547 0 .994.448.994.994a.997.997 0 0 1-.994.994m-10.933 0h-3.976a.997.997 0 0 1-.994-.994c0-.546.447-.994.994-.994h3.976c.546 0 .994.448.994.994a.997.997 0 0 1-.994.994m-10.934 0h-3.976a.997.997 0 0 1-.994-.994c0-.546.448-.994.994-.994h3.976c.547 0 .994.448.994.994a.997.997 0 0 1-.994.994m-10.933 0h-3.976a.997.997 0 0 1-.994-.994c0-.546.447-.994.994-.994h3.976c.546 0 .994.448.994.994a.997.997 0 0 1-.994.994m-10.934 0h-3.976a.997.997 0 0 1-.994-.994c0-.546.448-.994.994-.994h3.976c.547 0 .994.448.994.994a.997.997 0 0 1-.994.994"/><path fill="#AFE0DD" d="M117.762 130.093H77.557a3.31 3.31 0 1 0 0 6.619h40.205a3.31 3.31 0 0 0 0-6.619"/><path fill="#C4EAE7" d="M134.501 143.014H77.557a3.31 3.31 0 0 0 0 6.62H134.5a3.31 3.31 0 0 0 0-6.62"/><path fill="#AFE0DD" d="M24.669 52.832h32.92a3.31 3.31 0 0 0 3.31-3.31 3.31 3.31 0 0 0-3.31-3.31H30.234a104 104 0 0 0-5.566 6.62"/><path fill="#C4EAE7" d="M16.25 65.555h41.348a3.31 3.31 0 0 0 3.31-3.31 3.31 3.31 0 0 0-3.31-3.31H20.295a97 97 0 0 0-4.046 6.62"/><path fill="#AFE0DD" d="M41.496 113.493H24.34a6.48 6.48 0 0 0-6.47 6.471v17.156a6.477 6.477 0 0 0 6.47 6.47h17.156a6.477 6.477 0 0 0 6.47-6.47v-17.156a6.48 6.48 0 0 0-6.47-6.471m-21.748 6.471a4.594 4.594 0 0 1 4.592-4.592h2.535c.417 0 .785.288.875.706a6.13 6.13 0 0 1-1.65 5.645 6.15 6.15 0 0 1-5.646 1.65.894.894 0 0 1-.706-.874zm15.754 21.748H24.34a4.594 4.594 0 0 1-4.592-4.592v-11.162c0-.408.368-.726.765-.666.398.059.825.099 1.243.099.855 0 1.71-.139 2.525-.407.308-.1.596.198.477.496a8.71 8.71 0 0 0 1.988 9.214c2.485 2.495 6.113 3.151 9.214 1.988a.386.386 0 0 1 .497.487 8.05 8.05 0 0 0-.309 3.768.673.673 0 0 1-.666.775zm10.586-4.592a4.594 4.594 0 0 1-4.592 4.592H38.96a.89.89 0 0 1-.874-.706 6.13 6.13 0 0 1 1.65-5.646 6.15 6.15 0 0 1 5.645-1.65c.408.09.706.448.706.875zm0-5.994a.672.672 0 0 1-.775.666 8.1 8.1 0 0 0-3.767.308.386.386 0 0 1-.487-.497 8.71 8.71 0 0 0-1.988-9.214c-2.485-2.495-6.113-3.151-9.214-1.988a.386.386 0 0 1-.497-.487 8.05 8.05 0 0 0 .308-3.767.673.673 0 0 1 .666-.775h11.162a4.594 4.594 0 0 1 4.592 4.592z"/><path fill="#C4EAE7" d="m164.13 98.853-3.25 17.404c-.169.914.895 1.55 1.62.954l5.427-4.443a.98.98 0 0 1 .716-.219l7.544.606c.885.07 1.421-.964.845-1.649l-11.152-13.12c-.547-.647-1.591-.368-1.75.467"/><path fill="#fff" d="m168.911 92.352-2.912 15.615c-.11.607.586 1.024 1.063.626l5.258-4.303 7.167.576c.586.05.934-.636.556-1.083l-9.979-11.739a.663.663 0 0 0-1.153.308"/><path fill="#13706D" d="M166.645 109.746c-.288 0-.576-.079-.845-.238a1.64 1.64 0 0 1-.785-1.73l2.912-15.615a1.62 1.62 0 0 1 1.203-1.292 1.64 1.64 0 0 1 1.68.527l9.979 11.738a1.63 1.63 0 0 1 .209 1.819 1.655 1.655 0 0 1-1.601.895l-6.768-.537-4.95 4.046a1.67 1.67 0 0 1-1.044.377zm3.111-16.52-2.614 14.016 4.552-3.718c.199-.159.448-.238.706-.219l6.361.507zm-7.395 50.146c0-.199.059-.477.169-.756l2.246-6.172c.338-.925.895-1.352 1.799-1.352.954 0 1.511.408 1.859 1.352l2.266 6.172c.109.298.149.507.149.746 0 .646-.487 1.113-1.163 1.113s-1.014-.298-1.212-1.044l-.308-1.014h-3.121l-.309.975c-.218.765-.566 1.083-1.182 1.083-.736 0-1.183-.417-1.183-1.103zm5.288-2.704-1.064-3.509h-.05l-1.033 3.509zm4.82 2.604v-6.828c0-.766.428-1.213 1.163-1.213h2.783c1.958 0 3.28 1.272 3.28 3.221 0 1.948-1.391 3.21-3.419 3.21h-1.491v1.6c0 .766-.417 1.203-1.153 1.203-.735 0-1.163-.437-1.163-1.203zm3.32-3.349c.984 0 1.561-.507 1.561-1.461s-.577-1.462-1.551-1.462h-1.014v2.923zm5.447 3.349v-6.967c0-.766.427-1.203 1.163-1.203.735 0 1.153.437 1.153 1.203v6.967c0 .766-.428 1.203-1.153 1.203s-1.163-.437-1.163-1.203"/></svg>