<svg xmlns="http://www.w3.org/2000/svg" width="220" height="179" fill="none"><path fill="#E0F4F3" d="M107.654 11.927h4.692c57.401 0 104.007 46.606 104.007 104.007v24.59c0 14.611-11.858 26.469-26.469 26.469H30.116c-14.611 0-26.47-11.858-26.47-26.469v-24.59c0-57.4 46.607-104.007 104.008-104.007"/><path fill="#fff" d="M23.128 81.96c10.149-7.712 27.076-8.458 27.076-8.458s3.38.08 14.183-1.64c10.805-1.72 7.882-5.486 32.383-14.104s23.925-13.309 23.925-13.309-11.033 4.145-20.605 6.212c-9.571 2.068-9.164 4.93-16.151 7.296-6.988 2.365-8.459 2.047-19.611 3.38-3.718.447-6.361 1.232-8.22 2.087-7.236 3.3-15.019 5.546-22.97 6.083-8.717.586-14.671.08-18.359-.537a102.8 102.8 0 0 0-7.981 21.26c5.208-1.839 11.47-4.562 16.34-8.26z"/><path fill="#AFE0DD" d="M174.925 80.56h-44.31a5.129 5.129 0 1 0 0 10.257h44.31a5.129 5.129 0 1 0 0-10.258"/><path fill="#13706D" d="M174.925 91.8h-44.32a6.125 6.125 0 0 1-6.123-6.122 6.125 6.125 0 0 1 6.123-6.123h44.32a6.125 6.125 0 0 1 6.123 6.123 6.125 6.125 0 0 1-6.123 6.123m-44.31-10.257a4.144 4.144 0 0 0-4.135 4.135 4.144 4.144 0 0 0 4.135 4.135h44.32a4.145 4.145 0 0 0 4.135-4.135 4.145 4.145 0 0 0-4.135-4.135z"/><path fill="#AFE0DD" d="M152.253 62.688h-21.638a5.129 5.129 0 1 0 0 10.258h21.638a5.129 5.129 0 1 0 0-10.258"/><path fill="#13706D" d="M152.253 73.94h-21.638a6.125 6.125 0 0 1-6.123-6.123 6.125 6.125 0 0 1 6.123-6.123h21.638a6.126 6.126 0 0 1 6.123 6.123 6.126 6.126 0 0 1-6.123 6.123m-21.638-10.258a4.144 4.144 0 0 0-4.135 4.135 4.144 4.144 0 0 0 4.135 4.135h21.638a4.145 4.145 0 0 0 4.135-4.135 4.145 4.145 0 0 0-4.135-4.135z"/><path fill="#AFE0DD" d="M191.624 98.42h-61.009a5.129 5.129 0 1 0 0 10.258h61.009a5.128 5.128 0 0 0 0-10.258"/><path fill="#13706D" d="M191.624 109.662h-61.009a6.125 6.125 0 0 1-6.123-6.123 6.125 6.125 0 0 1 6.123-6.123h61.009a6.125 6.125 0 0 1 6.122 6.123 6.125 6.125 0 0 1-6.122 6.123m-61.009-10.248a4.144 4.144 0 0 0-4.135 4.135 4.144 4.144 0 0 0 4.135 4.135h61.009a4.144 4.144 0 0 0 4.134-4.135 4.144 4.144 0 0 0-4.134-4.135z"/><path fill="#D8E9E8" d="M40.195 125.317c1.043 3.488 3.717 3.936 7.564 7.852a6.22 6.22 0 0 1 4.303 5.914v6.45a6.22 6.22 0 0 1-6.222 6.222H12.632"/><path fill="#13706D" d="M45.84 152.749H12.632a.997.997 0 0 1-.994-.994c0-.546.447-.994.994-.994H45.84a5.234 5.234 0 0 0 5.228-5.228v-6.45a5.2 5.2 0 0 0-3.618-4.97.9.9 0 0 1-.397-.249c-1.392-1.411-2.614-2.355-3.698-3.18-1.878-1.441-3.37-2.584-4.115-5.079a.983.983 0 0 1 .666-1.233.997.997 0 0 1 1.243.666c.556 1.879 1.64 2.704 3.419 4.075 1.034.796 2.316 1.78 3.737 3.191a7.2 7.2 0 0 1 4.761 6.779v6.45c0 3.976-3.24 7.216-7.216 7.216z"/><path fill="#AFE0DD" d="M4.581 103.132h23.12c4.204 0 7.862 3.051 8.836 7.375l3.687 16.271-7.564-1.442a86 86 0 0 0-14.65-1.51 85 85 0 0 0-12.823.755l-2.455.328"/><path fill="#13706D" d="M40.214 127.772c-.06 0-.119 0-.188-.02l-7.564-1.442a85.3 85.3 0 0 0-14.482-1.49 84 84 0 0 0-12.673.745l-2.455.328a.99.99 0 0 1-1.114-.855.99.99 0 0 1 .855-1.113l2.455-.328a88.5 88.5 0 0 1 12.971-.765c4.96.079 9.95.596 14.82 1.52l6.073 1.163-3.35-14.79c-.874-3.886-4.114-6.599-7.871-6.599H4.58a.997.997 0 0 1-.994-.994c0-.547.448-.994.994-.994H27.7c4.691 0 8.716 3.349 9.81 8.15l3.688 16.271a1.005 1.005 0 0 1-.975 1.222z"/><path fill="#AFE0DD" d="M28.317 151.755h11.162v9.94a3.9 3.9 0 0 1-3.896 3.896h-3.36a3.9 3.9 0 0 1-3.896-3.896v-9.94z"/><path fill="#13706D" d="M35.583 166.585h-3.36a4.9 4.9 0 0 1-4.89-4.89v-9.94c0-.546.447-.994.994-.994h11.162c.547 0 .994.448.994.994v9.94a4.9 4.9 0 0 1-4.89 4.89zm-6.272-13.836v8.946c0 1.6 1.302 2.902 2.902 2.902h3.36c1.6 0 2.902-1.302 2.902-2.902v-8.946h-9.174z"/><path fill="#fff" d="M47.788 143.208h-7.981a5.915 5.915 0 0 1-5.914-5.914 2.795 2.795 0 0 1 2.793-2.793h11.311a4.063 4.063 0 0 1 4.065 4.065v4.632"/><path fill="#13706D" d="M52.062 144.201a.997.997 0 0 1-.994-.993v-4.632a3.08 3.08 0 0 0-3.07-3.072H36.685a1.8 1.8 0 0 0-1.8 1.799 4.925 4.925 0 0 0 4.92 4.921h7.982c.547 0 .994.447.994.993a.997.997 0 0 1-.994.994h-7.981c-3.807 0-6.908-3.101-6.908-6.908 0-2.087 1.7-3.786 3.787-3.786h11.311a5.06 5.06 0 0 1 5.06 5.059v4.632a.996.996 0 0 1-.995.993M31.08 124.71a.997.997 0 0 1-.994-.994c0-3.598-2.932-6.53-6.53-6.53a6.56 6.56 0 0 0-5.656 3.26.993.993 0 0 1-1.361.358.993.993 0 0 1-.358-1.362 8.55 8.55 0 0 1 7.375-4.254c4.701 0 8.518 3.827 8.518 8.518a.997.997 0 0 1-.994.994z"/><path fill="#AFE0DD" d="M4.581 145.325h16.102v-5.089H4.581"/><path fill="#13706D" d="M20.683 146.319H4.581a.997.997 0 0 1-.994-.994c0-.547.448-.994.994-.994H19.7v-3.101H4.581a.997.997 0 0 1-.994-.994c0-.547.448-.994.994-.994h16.112c.547 0 .994.447.994.994v5.089a.997.997 0 0 1-.994.994z"/><path fill="#D8E9E8" d="M42.163 123.488s1.073-2.177 3.13-2.326 3.976-.05 4.603 1.312.556 4.224-1.879 4.294-3.757-.378-3.757-.378"/><path fill="#13706D" d="M47.51 127.772c-2.246 0-3.509-.418-3.568-.438a1.004 1.004 0 0 1-.626-1.262.996.996 0 0 1 1.262-.626s1.212.387 3.41.328c.605-.02.844-.289.973-.497.388-.626.328-1.74.03-2.386-.308-.656-1.461-.894-3.628-.735-1.451.099-2.306 1.759-2.316 1.779a1.004 1.004 0 0 1-1.332.447.985.985 0 0 1-.447-1.322c.05-.109 1.352-2.693 3.956-2.872 1.471-.1 4.552-.318 5.576 1.878.527 1.143.656 2.972-.14 4.264-.556.895-1.48 1.412-2.603 1.442zm-11.271 38.813a.997.997 0 0 1-.994-.994v-7.882c0-.546.447-.994.994-.994s.994.448.994.994v7.882a.997.997 0 0 1-.994.994m-4.026-6.918a.997.997 0 0 1-.994-.994v-6.918c0-.546.447-.994.994-.994s.994.448.994.994v6.918a.997.997 0 0 1-.994.994m0 6.918a.997.997 0 0 1-.994-.994v-3.946c0-.546.447-.994.994-.994s.994.448.994.994v3.946a.997.997 0 0 1-.994.994m96.185-126.261c-.069 0-.129 0-.199-.02l-1.56-.318a.995.995 0 0 1 .397-1.948l1.561.318a.995.995 0 0 1-.199 1.968"/><path fill="#13706D" d="M128.02 41.617a1 1 0 0 1-.954-1.272l.378-1.293c.069-.228.209-.417.397-.547l7.545-5.049a.995.995 0 0 1 1.381.278.996.996 0 0 1-.278 1.382l-7.246 4.85-.278.945a1 1 0 0 1-.955.715z"/><path fill="#13706D" d="M133.547 42.084a.997.997 0 0 1-.994-.994v-4.503l-5.497-1.928a.98.98 0 0 1-.606-1.262.98.98 0 0 1 1.262-.607l6.183 2.157a1 1 0 0 1 .666.944v5.218c-.02.547-.458.994-1.004.994zm-46.766 87.487c-1.381 0-2.117-.597-2.485-1.094-.954-1.292-.437-3.121-.377-3.32a.997.997 0 0 1 1.908 0 1 1 0 0 1 1.69-.397c.616.666 1.978 2.375 1.381 3.707-.218.497-.765 1.094-2.117 1.094zm-.954-3.837c-.1.348-.219 1.183.07 1.57.139.189.437.289.884.289.1 0 .17 0 .239-.01-.13-.358-.537-.984-.964-1.461a.96.96 0 0 1-.219-.388z"/><path fill="#13706D" d="M84.883 126.44c-.05 0-.11 0-.16-.01a1 1 0 0 1-.824-1.143c.129-.795 1.272-7.813 2.117-9.661.179-.388.437-1.074.735-1.869 1.402-3.737 2.694-6.898 4.354-7.733 1.938-.964 3.846-1.65 3.926-1.68a.997.997 0 0 1 1.272.607.99.99 0 0 1-.606 1.272c-.02 0-1.879.676-3.707 1.59-1.104.547-2.644 4.672-3.38 6.65-.308.825-.576 1.54-.785 2.007-.557 1.203-1.481 6.123-1.968 9.135a.99.99 0 0 1-.984.835z"/><path fill="#13706D" d="M98.649 109.92a3.6 3.6 0 0 1-1.799-.487c-2.405-1.332-2.187-5.844-2.147-6.351.04-.547.497-.974 1.054-.924a.99.99 0 0 1 .924 1.053c-.1 1.551.189 3.966 1.133 4.483.497.268.974.308 1.431.099.547-.248.855-.725.895-.884a.994.994 0 1 1 1.938.447c-.209.885-1.034 1.809-2.027 2.256a3.5 3.5 0 0 1-1.412.308z"/><path fill="#AFE0DD" d="m95.32 100.816-.686 1.769s.447 1.421 4.005 1.421c.875 0 1.561-.089 2.097-.218a1.937 1.937 0 0 0 1.332-2.604l-.099-.249a3.26 3.26 0 0 0-1.879-1.859c-.865-.328-1.918-.506-3.031-.08-.815.309-1.422.995-1.74 1.81z"/><path fill="#13706D" d="M98.63 105c-4.076 0-4.841-1.769-4.95-2.117a1 1 0 0 1 .02-.656l.685-1.769c.437-1.123 1.282-1.988 2.306-2.376 1.143-.427 2.435-.407 3.737.08a4.3 4.3 0 0 1 2.455 2.415l.1.249a2.94 2.94 0 0 1-.12 2.435 2.93 2.93 0 0 1-1.898 1.491c-.666.159-1.451.248-2.336.248m-2.873-2.574c.318.219 1.103.586 2.872.586.716 0 1.352-.059 1.869-.188a.89.89 0 0 0 .606-.478.97.97 0 0 0 .04-.795l-.1-.248a2.28 2.28 0 0 0-1.302-1.292c-.854-.318-1.64-.348-2.335-.08-.507.189-.925.646-1.163 1.233l-.487 1.252z"/><path fill="#13706D" d="M109.662 132.095a3.14 3.14 0 0 1-1.938-.676c-.795-.616-1.233-1.51-1.094-2.276.15-.815 1.104-1.918 1.77-2.594-.259-1.521-1.004-5.964-1.123-6.61-.07-.358-.726-1.63-1.303-2.594a1 1 0 0 1 .338-1.362 1 1 0 0 1 1.362.338c.328.537 1.392 2.366 1.551 3.26.139.786 1.212 7.147 1.212 7.147.05.328-.059.656-.288.885-.686.656-1.382 1.49-1.541 1.838.06.13.239.368.537.527q.492.254 1.044 0c.576-.268.706-2.206.437-3.777-.03-.228-.517-4.413-.517-6.659 0-1.909-2.405-8.23-3.677-10.059-.915-1.322-3.628-2.614-4.602-3.002a.99.99 0 0 1-.607-.735l-.298-1.571a.996.996 0 0 1 .785-1.163.99.99 0 0 1 1.163.786l.199 1.043c1.153.507 3.827 1.829 4.99 3.499 1.362 1.968 4.025 8.717 4.025 11.192 0 2.127.487 6.331.497 6.371.129.745.726 4.821-1.57 5.864a3.3 3.3 0 0 1-1.352.298z"/><path fill="#13706D" d="M98.4 130.415c-.069 0-.139 0-.208-.019l-10.02-2.157a1.005 1.005 0 0 1-.765-1.183.993.993 0 0 1 1.183-.765l9.91 2.137 9.095-.1c.546.03.994.438 1.004.984 0 .547-.438.994-.984 1.004l-9.204.099z"/><path fill="#13706D" d="M100.12 138.208a.96.96 0 0 1-.785-.388l-2.157-2.793a.97.97 0 0 1-.199-.695l.438-4.99c.05-.547.546-.954 1.073-.905.547.05.954.527.904 1.074l-.397 4.602 1.918 2.485a.984.984 0 0 1-.179 1.391 1 1 0 0 1-.606.209z"/><path fill="#AFE0DD" d="m98.15 139.116-.793-.057a1.24 1.24 0 0 0-1.329 1.15l-1.814 25.19c-.05.685.465 1.28 1.15 1.329l.793.057a1.243 1.243 0 0 0 1.328-1.15l1.815-25.191a1.24 1.24 0 0 0-1.15-1.328"/><path fill="#13706D" d="M96.244 167.778h-.16l-.794-.06a2.23 2.23 0 0 1-2.067-2.385l1.818-25.197c.04-.596.318-1.133.765-1.53a2.24 2.24 0 0 1 1.62-.537l.796.059a2.24 2.24 0 0 1 1.53.766c.388.447.587 1.024.537 1.62L98.47 165.71a2.236 2.236 0 0 1-2.226 2.078zm-.02-1.988c.08 0 .139-.03.179-.06s.08-.079.08-.169l1.818-25.196c0-.08-.03-.139-.06-.179a.23.23 0 0 0-.168-.08l-.796-.059a.27.27 0 0 0-.178.059c-.04.03-.08.08-.08.169L95.2 165.472c0 .079.03.139.06.179s.08.079.169.079zm-6.242-6.023c-.945 0-2.286-.517-2.982-2.485-.785-2.237.676-4.085 1.391-4.821v-9.184c0-3.697 1.193-6.997 1.61-8.031l-1.023-3.896a.992.992 0 1 1 1.918-.507l1.113 4.224c.06.219.04.447-.05.656-.02.04-1.58 3.608-1.58 7.554v9.612a.99.99 0 0 1-.358.765c-.01.01-1.68 1.441-1.142 2.972.417 1.193 1.023 1.173 1.212 1.143.527-.1 1.064.218 1.183.735a.975.975 0 0 1-.676 1.183c-.169.05-.378.08-.606.08zm12.901-6.481c-.159 0-.308-.04-.457-.109a1 1 0 0 1-.427-1.342c1.113-2.157.964-4.711.964-4.731 0-.199-.119-4.175.576-6.839.626-2.385.497-6.679.497-6.719a.997.997 0 0 1 .964-1.023c.507-.02 1.004.417 1.024.964 0 .189.129 4.622-.566 7.285-.627 2.386-.517 6.203-.517 6.242 0 .09.189 3.082-1.193 5.745a1.01 1.01 0 0 1-.885.537zM92.178 126.44a.993.993 0 0 1-.904-1.402l1.65-3.687-.706-5.865a.99.99 0 0 1 .865-1.103.98.98 0 0 1 1.103.865l.736 6.133a.96.96 0 0 1-.08.526l-1.769 3.946a1 1 0 0 1-.904.587zm-24.361 40.244a.997.997 0 0 1-.994-.993V95.429c0-.547.447-.994.994-.994s.994.447.994.994v70.262a.996.996 0 0 1-.994.993m3.419-38.266a.997.997 0 0 1-.994-.994V95.429c0-.547.447-.994.994-.994s.994.447.994.994v31.995a.997.997 0 0 1-.994.994"/><path fill="#D8E9E8" d="M72.429 64.547H67.04a3.14 3.14 0 0 0-3.14 3.14v24.6a3.14 3.14 0 0 0 3.14 3.142h5.388a3.14 3.14 0 0 0 3.14-3.141v-24.6a3.14 3.14 0 0 0-3.14-3.141"/><path fill="#13706D" d="M72.419 96.423H67.03a4.144 4.144 0 0 1-4.135-4.135v-24.6a4.144 4.144 0 0 1 4.135-4.135h5.388a4.144 4.144 0 0 1 4.134 4.135v24.6a4.144 4.144 0 0 1-4.134 4.135M67.04 65.54a2.15 2.15 0 0 0-2.147 2.147v24.6a2.15 2.15 0 0 0 2.147 2.147h5.388a2.15 2.15 0 0 0 2.147-2.147v-24.6a2.15 2.15 0 0 0-2.147-2.147z"/><path fill="#fff" d="M69.735 74.337a3.131 3.131 0 1 0 0-6.262 3.131 3.131 0 0 0 0 6.262"/><path fill="#13706D" d="M69.735 75.321a4.127 4.127 0 0 1-4.125-4.125 4.127 4.127 0 0 1 4.125-4.125 4.127 4.127 0 0 1 4.125 4.125 4.127 4.127 0 0 1-4.125 4.125m0-6.252a2.14 2.14 0 0 0-2.137 2.137c0 1.183.954 2.137 2.137 2.137a2.134 2.134 0 0 0 2.137-2.137 2.134 2.134 0 0 0-2.137-2.137"/><path fill="#D8E9E8" d="M69.735 83.203a3.131 3.131 0 1 0 0-6.262 3.131 3.131 0 0 0 0 6.262"/><path fill="#13706D" d="M69.735 84.197a4.127 4.127 0 0 1-4.125-4.125 4.127 4.127 0 0 1 4.125-4.125 4.127 4.127 0 0 1 4.125 4.125 4.127 4.127 0 0 1-4.125 4.125m0-6.262a2.14 2.14 0 0 0-2.137 2.137c0 1.183.954 2.137 2.137 2.137a2.134 2.134 0 0 0 2.137-2.137 2.134 2.134 0 0 0-2.137-2.137"/><path fill="#AFE0DD" d="M69.735 92.079a3.13 3.13 0 1 0 0-6.262 3.13 3.13 0 0 0 0 6.262"/><path fill="#13706D" d="M69.735 93.073a4.127 4.127 0 0 1-4.125-4.125 4.127 4.127 0 0 1 4.125-4.125 4.127 4.127 0 0 1 4.125 4.125 4.127 4.127 0 0 1-4.125 4.125m0-6.262a2.14 2.14 0 0 0-2.137 2.137c0 1.183.954 2.137 2.137 2.137a2.134 2.134 0 0 0 2.137-2.137 2.134 2.134 0 0 0-2.137-2.137m1.501 82.567a.997.997 0 0 1-.994-.994v-31.995c0-.547.447-.994.994-.994s.994.447.994.994v31.995a.997.997 0 0 1-.994.994"/></svg>