<?xml version="1.0" encoding="UTF-8"?>
<svg id="flatten_icons" xmlns="http://www.w3.org/2000/svg" viewBox="0 0 112 112">
  <defs>
    <style>
      .cls-1 {
        fill: none;
      }

      .cls-2 {
        fill: #bbdd94;
      }

      .cls-3 {
        fill: #5abf72;
      }

      .cls-4 {
        opacity: .2;
      }

      .cls-5 {
        fill: #d1e5d4;
      }

      .cls-6 {
        fill: #004241;
      }
    </style>
  </defs>
  <g id="area">
    <rect class="cls-1" y="0" width="112" height="112"/>
  </g>
  <g>
    <circle class="cls-2" cx="62.53" cy="53.82" r="43.34"/>
    <path class="cls-6" d="M62.53,99.16c-25,0-45.34-20.34-45.34-45.34S37.53,8.49,62.53,8.49s45.34,20.34,45.34,45.34-20.34,45.34-45.34,45.34ZM62.53,12.49c-22.79,0-41.34,18.54-41.34,41.34s18.54,41.34,41.34,41.34,41.34-18.54,41.34-41.34S85.32,12.49,62.53,12.49Z"/>
  </g>
  <g>
    <circle class="cls-5" cx="62.53" cy="53.82" r="27.65"/>
    <path class="cls-6" d="M62.53,83.47c-16.35,0-29.65-13.3-29.65-29.65s13.3-29.65,29.65-29.65,29.65,13.3,29.65,29.65-13.3,29.65-29.65,29.65ZM62.53,28.17c-14.15,0-25.65,11.51-25.65,25.65s11.51,25.65,25.65,25.65,25.65-11.51,25.65-25.65-11.51-25.65-25.65-25.65Z"/>
  </g>
  <g>
    <circle class="cls-2" cx="62.53" cy="53.82" r="9.23"/>
    <path class="cls-6" d="M62.53,65.05c-6.19,0-11.23-5.04-11.23-11.23s5.04-11.23,11.23-11.23,11.23,5.04,11.23,11.23-5.04,11.23-11.23,11.23ZM62.53,46.6c-3.98,0-7.23,3.24-7.23,7.23s3.24,7.23,7.23,7.23,7.23-3.24,7.23-7.23-3.24-7.23-7.23-7.23Z"/>
  </g>
  <g class="cls-4">
    <path d="M56.04,96.28c.08,1,3.15.61,4.14.7,1.25.11,2.52.18,3.8.18.16,0,.33,0,.49,0,1.06-.01,2.97.18,3.04-.88.43-6.12-2.69-14.69-3.53-24.65-.46-5.48.55-14.61,0-17.8-.38-2.24-3.61-2.28-4.02-.05-.63,3.35,1.29,9.98.96,15.38-.62,10.04-5.39,21.14-4.88,27.13Z"/>
  </g>
  <g>
    <g>
      <path class="cls-3" d="M62.53,53.82s-7.34,6.13-16.15,15.33"/>
      <path class="cls-6" d="M46.37,71.15c-.5,0-1-.18-1.38-.56-.8-.76-.82-2.03-.06-2.83,8.79-9.17,16.24-15.42,16.32-15.48.85-.71,2.11-.59,2.82.25.71.85.6,2.11-.25,2.82-.07.06-7.37,6.17-15.99,15.18-.39.41-.92.62-1.44.62Z"/>
    </g>
    <g>
      <path class="cls-3" d="M51.29,63.86s-11.14-4.45-23.72-.81c0,0,7.21,13.13,16.12,9.37l7.6-8.56Z"/>
      <path class="cls-6" d="M40.38,75.12c-8.36,0-14.28-10.58-14.57-11.1-.29-.53-.33-1.17-.09-1.73.23-.56.71-.99,1.29-1.15,13.09-3.78,24.54.69,25.02.88.61.24,1.05.76,1.21,1.4.15.63-.02,1.3-.45,1.79l-7.6,8.56c-.2.22-.44.4-.72.51-1.41.6-2.78.85-4.08.85ZM30.77,64.32c2.24,3.1,6.78,8.14,11.74,6.41l5.21-5.87c-3.5-.89-9.87-1.96-16.95-.54Z"/>
    </g>
    <g>
      <path class="cls-3" d="M51.29,63.86l-7.6,8.56s2.47,10.49,14.35,11.9c0,0,3.81-14.13-6.75-20.46Z"/>
      <path class="cls-6" d="M58.04,86.32c-.08,0-.16,0-.24-.01-10.49-1.25-15.1-9.33-16.06-13.43-.15-.63.02-1.3.45-1.79l7.6-8.56c.64-.72,1.7-.88,2.52-.39,9.39,5.63,9.11,17.31,7.66,22.7-.24.88-1.04,1.48-1.93,1.48ZM45.93,72.9c.81,2.19,3.48,7.53,10.51,9.12.2-1.34.37-3.33.18-5.5-.4-4.37-2.08-7.73-5.01-10.02l-5.68,6.4Z"/>
    </g>
    <g>
      <path class="cls-3" d="M24.4,89.74s-16.68,1.46-18.58,12.71c0,0,18.29,5.81,24.45-8.97l-5.87-3.74Z"/>
      <path class="cls-6" d="M13.64,105.61c-3.23,0-6.22-.55-8.43-1.26-.95-.3-1.53-1.26-1.37-2.24,2.13-12.62,19.64-14.3,20.38-14.37.44-.04.88.07,1.25.31l5.87,3.74c.82.52,1.15,1.56.77,2.46-3.69,8.86-11.61,11.37-18.47,11.37ZM8.27,100.99c1.72.35,4.46.74,7.42.51,5.61-.44,9.64-2.89,12.01-7.29l-3.78-2.41c-2.7.37-13,2.23-15.66,9.18Z"/>
    </g>
    <g>
      <path class="cls-3" d="M43.03,72.76s-11.14-4.45-23.72-.81c0,0,7.21,13.13,16.12,9.37l7.6-8.56Z"/>
      <path class="cls-6" d="M32.12,84.02c-8.36,0-14.28-10.59-14.57-11.11-.29-.53-.33-1.17-.09-1.73.23-.56.71-.99,1.29-1.15,13.09-3.78,24.54.68,25.02.88.61.24,1.05.76,1.21,1.4.15.63-.02,1.3-.45,1.79l-7.6,8.56c-.2.22-.44.4-.72.51-1.41.6-2.78.85-4.08.85ZM22.51,73.22c2.24,3.1,6.78,8.14,11.74,6.41l5.21-5.87c-3.5-.89-9.87-1.96-16.95-.54Z"/>
    </g>
    <g>
      <path class="cls-3" d="M43.03,72.76l-7.6,8.56s2.47,10.49,14.35,11.9c0,0,3.81-14.13-6.75-20.46Z"/>
      <path class="cls-6" d="M49.78,95.22c-.08,0-.16,0-.24-.01-10.49-1.25-15.1-9.33-16.06-13.43-.15-.63.02-1.3.45-1.79l7.6-8.56c.64-.72,1.7-.88,2.52-.39,9.39,5.63,9.11,17.31,7.66,22.7-.24.88-1.04,1.48-1.93,1.48ZM37.67,81.8c.81,2.19,3.48,7.53,10.51,9.12.2-1.34.37-3.33.18-5.5-.4-4.37-2.08-7.73-5.01-10.02l-5.68,6.4Z"/>
    </g>
    <g>
      <path class="cls-3" d="M33.56,81.99s-11.14-4.45-23.72-.81c0,0,7.21,13.13,16.12,9.37l7.6-8.56Z"/>
      <path class="cls-6" d="M22.65,93.24c-8.36,0-14.28-10.59-14.57-11.11-.29-.53-.33-1.17-.09-1.73.23-.56.71-.99,1.29-1.15,13.09-3.78,24.54.68,25.02.88.61.24,1.05.76,1.21,1.4.15.63-.02,1.3-.45,1.79l-7.6,8.56c-.2.22-.44.4-.72.51-1.41.6-2.78.85-4.08.85ZM13.05,82.45c2.24,3.1,6.78,8.14,11.74,6.41l5.21-5.87c-3.5-.89-9.87-1.96-16.95-.54Z"/>
    </g>
    <g>
      <path class="cls-3" d="M33.56,81.99l-7.6,8.56s2.47,10.49,14.35,11.9c0,0,3.81-14.13-6.75-20.46Z"/>
      <path class="cls-6" d="M40.31,104.45c-.08,0-.16,0-.24-.01-10.49-1.25-15.1-9.33-16.06-13.43-.15-.63.02-1.3.45-1.79l7.6-8.56c.64-.72,1.7-.88,2.52-.39,9.39,5.63,9.11,17.31,7.66,22.7-.24.88-1.04,1.48-1.93,1.48ZM28.21,91.03c.81,2.19,3.48,7.53,10.51,9.12.2-1.34.37-3.33.18-5.5-.4-4.37-2.08-7.73-5.01-10.02l-5.68,6.4Z"/>
    </g>
  </g>
</svg>