<?xml version="1.0" encoding="UTF-8"?>
<svg id="outline_icons" xmlns="http://www.w3.org/2000/svg" viewBox="0 0 112 112">
  <defs>
    <style>
      .cls-1 {
        fill: none;
      }

      .cls-2 {
        fill: #d3b7ab;
      }

      .cls-3 {
        fill: #f2d39c;
      }

      .cls-4 {
        fill: #3e5f9b;
      }

      .cls-5 {
        fill: #e5e1da;
      }

      .cls-6 {
        fill: #e0ba77;
      }

      .cls-7 {
        fill: #d3ccc2;
      }

      .cls-8 {
        fill: #f4d7a8;
      }

      .cls-9 {
        fill: #d2d9db;
      }

      .cls-10 {
        fill: #eac781;
      }

      .cls-11 {
        fill: #ef706b;
      }

      .cls-12 {
        fill: #ddb876;
      }

      .cls-13 {
        fill: #004241;
      }

      .cls-14 {
        fill: #eee;
      }

      .cls-15 {
        fill: #f9ddb4;
      }
    </style>
  </defs>
  <rect class="cls-1" width="112" height="112"/>
  <g>
    <path class="cls-5" d="M112,38.85c0-.56-.18-1.12-.52-1.57-8.69-11.55-22.56-19.03-38.2-19.03-24.57,0-44.8,18.46-47.38,42.18-.27,0-.53-.02-.8-.02-9.1,0-17.47,3.08-24.12,8.24-.63.49-.98,1.25-.98,2.04v36.96c0,1.44,1.17,2.6,2.62,2.6h106.56c1.45,0,2.62-1.17,2.62-2.6v-14.19c.07-.09.13-.19.2-.28v-54.33Z"/>
    <g>
      <path class="cls-15" d="M104.52,20.96c-3.55,4.03-10.92,3.35-10.92,3.35,0,0-1.61-7.22,1.94-11.25s10.92-3.35,10.92-3.35c0,0,1.61,7.22-1.94,11.25Z"/>
      <path class="cls-13" d="M94.82,26.35c-.8,0-1.32-.04-1.4-.05-.86-.08-1.58-.71-1.77-1.56-.07-.33-1.79-8.26,2.39-13.01,4.18-4.74,12.27-4.05,12.6-4.02.86.08,1.58.71,1.77,1.56.07.33,1.79,8.26-2.39,13.01h0c-3.18,3.61-8.64,4.07-11.21,4.07ZM104.74,11.66c-2.3.07-5.85.62-7.7,2.72-1.95,2.21-1.91,5.9-1.71,7.97,2.3-.07,5.85-.63,7.69-2.71h0c1.84-2.09,1.94-5.68,1.72-7.97ZM104.52,20.96h0,0Z"/>
    </g>
    <g>
      <path class="cls-8" d="M92.41,21.96c.75,5.32-4.56,10.47-4.56,10.47,0,0-6.53-3.47-7.29-8.79s4.56-10.47,4.56-10.47c0,0,6.53,3.47,7.29,8.79Z"/>
      <path class="cls-13" d="M87.85,34.43c-.32,0-.64-.08-.94-.23-.3-.16-7.44-4.02-8.33-10.28-.89-6.25,4.9-11.94,5.15-12.18.62-.6,1.57-.74,2.33-.33.3.16,7.44,4.02,8.33,10.28.89,6.25-4.9,11.94-5.15,12.18-.38.37-.88.56-1.39.56ZM85.49,15.76c-1.44,1.79-3.33,4.85-2.94,7.6.39,2.76,3.06,5.17,4.94,6.49,1.44-1.79,3.33-4.85,2.94-7.6h0c-.39-2.76-3.06-5.17-4.94-6.49Z"/>
    </g>
    <g>
      <path class="cls-10" d="M96.91,25.35c-5.32.75-8.8,7.28-8.8,7.28,0,0,5.15,5.31,10.47,4.56,5.32-.75,8.8-7.28,8.8-7.28,0,0-5.15-5.31-10.47-4.56Z"/>
      <path class="cls-13" d="M97.55,39.25c-5.72,0-10.65-5-10.87-5.23-.6-.62-.74-1.57-.33-2.33.16-.3,4.03-7.44,10.28-8.32h0c6.26-.89,11.95,4.9,12.19,5.14.6.62.74,1.57.33,2.33-.16.3-4.03,7.43-10.28,8.32-.44.06-.89.09-1.32.09ZM90.7,32.26c1.79,1.44,4.85,3.33,7.61,2.94,2.76-.39,5.18-3.05,6.49-4.93-1.79-1.44-4.85-3.33-7.61-2.94-2.76.39-5.18,3.05-6.49,4.94Z"/>
    </g>
    <g>
      <path class="cls-3" d="M84.3,33.5c1.35,5.2-3.34,10.92-3.34,10.92,0,0-6.89-2.71-8.24-7.9-1.35-5.2,3.34-10.92,3.34-10.92,0,0,6.89,2.71,8.24,7.9Z"/>
      <path class="cls-13" d="M80.97,46.42c-.25,0-.49-.04-.73-.14-.32-.13-7.85-3.15-9.45-9.26-1.59-6.11,3.51-12.42,3.73-12.69.55-.67,1.47-.91,2.28-.59.32.13,7.85,3.15,9.45,9.26s-3.51,12.42-3.73,12.69c-.39.47-.96.73-1.55.73ZM76.72,28.12c-1.23,1.94-2.76,5.19-2.06,7.89.7,2.69,3.63,4.79,5.65,5.88,1.23-1.94,2.76-5.19,2.06-7.89-.7-2.69-3.62-4.79-5.65-5.88Z"/>
    </g>
    <g>
      <path class="cls-10" d="M89.16,36.35c-5.2,1.35-7.91,8.23-7.91,8.23,0,0,5.72,4.69,10.93,3.33,5.2-1.35,7.91-8.23,7.91-8.23,0,0-5.72-4.69-10.93-3.33Z"/>
      <path class="cls-13" d="M90.21,50.16c-5.24,0-10-3.84-10.23-4.03-.67-.55-.91-1.47-.59-2.28.13-.32,3.15-7.85,9.27-9.44h0c6.12-1.59,12.43,3.5,12.7,3.72.67.55.91,1.47.59,2.28-.13.32-3.15,7.85-9.27,9.44-.82.21-1.65.31-2.47.31ZM83.77,43.92c1.94,1.23,5.2,2.76,7.9,2.05,2.85-.74,4.89-3.82,5.88-5.65-1.94-1.23-5.2-2.75-7.89-2.05h0c-2.7.7-4.79,3.62-5.89,5.64Z"/>
    </g>
    <g>
      <path class="cls-3" d="M78.68,47.16c1.59,5.13-2.84,11.05-2.84,11.05,0,0-7-2.4-8.59-7.53-1.59-5.13,2.84-11.05,2.84-11.05,0,0,7,2.4,8.59,7.53Z"/>
      <path class="cls-13" d="M75.84,60.21c-.22,0-.43-.04-.65-.11-.32-.11-7.98-2.8-9.85-8.83-1.86-6.04,2.95-12.57,3.15-12.84.52-.69,1.43-.97,2.25-.69.32.11,7.98,2.8,9.85,8.83h0c1.87,6.04-2.95,12.57-3.15,12.84-.39.51-.98.8-1.6.8ZM70.86,42.12c-1.14,1.99-2.52,5.31-1.7,7.97.82,2.66,3.84,4.62,5.91,5.63,1.14-1.99,2.52-5.31,1.7-7.97h0c-.82-2.66-3.84-4.62-5.91-5.63Z"/>
    </g>
    <g>
      <path class="cls-6" d="M83.66,49.78c-5.14,1.58-7.53,8.58-7.53,8.58,0,0,5.93,4.43,11.06,2.84s7.53-8.58,7.53-8.58c0,0-5.93-4.43-11.06-2.84Z"/>
      <path class="cls-13" d="M84.84,63.54c-5.05,0-9.68-3.41-9.91-3.58-.7-.52-.98-1.43-.7-2.25.11-.33,2.8-7.98,8.84-9.84h0c6.04-1.86,12.57,2.94,12.85,3.15.7.52.98,1.43.7,2.25-.11.33-2.8,7.98-8.84,9.84-.98.3-1.97.43-2.94.43ZM78.62,57.59c1.99,1.14,5.31,2.52,7.98,1.7,2.66-.82,4.63-3.83,5.63-5.9-2-1.14-5.32-2.52-7.98-1.7-2.66.82-4.63,3.83-5.63,5.9Z"/>
    </g>
    <g>
      <path class="cls-3" d="M72.82,59.89c2.2,4.9-1.48,11.32-1.48,11.32,0,0-7.24-1.53-9.44-6.43s1.48-11.32,1.48-11.32c0,0,7.24,1.53,9.44,6.43Z"/>
      <path class="cls-13" d="M71.34,73.2c-.14,0-.28-.01-.41-.04-.34-.07-8.27-1.81-10.85-7.57-2.58-5.76,1.4-12.83,1.57-13.13.43-.75,1.3-1.14,2.15-.96.34.07,8.27,1.81,10.85,7.57h0c2.58,5.76-1.4,12.83-1.57,13.13-.36.63-1.03,1-1.73,1ZM64.45,55.83c-.89,2.12-1.86,5.58-.72,8.12,1.14,2.54,4.37,4.13,6.55,4.87.89-2.12,1.86-5.58.72-8.12-1.14-2.54-4.37-4.13-6.55-4.87Z"/>
    </g>
    <path class="cls-7" d="M78.3,105.33h-26.44c-.91,0-1.64-.91-1.64-2.03v-8.84c0-.81.39-1.54.99-1.86l21.45-11.36c.39-.21.83-.22,1.22-.03l22.52,10.45v-7.22c0-1.08.73-1.95,1.64-1.95h8.47c.91,0,1.64.87,1.64,1.95v10.02c0,1.08-.73,1.95-1.64,1.95h-1.04v6.98c0,1.08-.73,1.95-1.64,1.95s-1.64-.87-1.64-1.95v-6.98h-3.05l.03,6.89c0,1.12-.73,2.04-1.64,2.04h-19.23Z"/>
    <g>
      <path class="cls-12" d="M78.08,61.89c-4.91,2.19-6.44,9.43-6.44,9.43,0,0,6.42,3.68,11.33,1.48s6.44-9.43,6.44-9.43c0,0-6.42-3.68-11.33-1.48Z"/>
      <path class="cls-13" d="M79.46,75.49c-4.48,0-8.58-2.31-8.81-2.44-.75-.43-1.14-1.3-.96-2.15.07-.34,1.81-8.26,7.58-10.84h0c5.77-2.58,12.84,1.4,13.14,1.57.75.43,1.14,1.3.96,2.15-.07.34-1.81,8.26-7.58,10.84-1.4.63-2.89.87-4.33.87ZM74.03,70.26c2.12.89,5.58,1.86,8.12.72,2.54-1.14,4.13-4.36,4.87-6.54-2.12-.89-5.59-1.86-8.13-.72-2.69,1.2-4.19,4.57-4.86,6.54Z"/>
    </g>
    <path class="cls-13" d="M64.77,105.01c-.1,0-.2,0-.31-.02-1.09-.17-1.84-1.19-1.67-2.28,8.23-53.74,28.42-78.64,29.28-79.67.7-.85,1.96-.97,2.81-.27.85.7.97,1.96.27,2.81-.2.25-20.36,25.2-28.41,77.73-.15.99-1,1.7-1.97,1.7Z"/>
    <g>
      <rect class="cls-14" x="10.7" y="6" width="36.32" height="32.19" rx="4.9" ry="4.9"/>
      <path class="cls-13" d="M30.4,31.89c-1.1,0-2-.9-2-2v-7.76l-3.82,2.9c-.88.67-2.13.49-2.8-.39-.67-.88-.49-2.14.39-2.8l7.03-5.33c.6-.46,1.42-.53,2.1-.2.68.34,1.11,1.03,1.11,1.79v11.78c0,1.1-.9,2-2,2Z"/>
      <path class="cls-13" d="M20.07,11.25c-1.1,0-2-.9-2-2V2.74c0-1.1.9-2,2-2s2,.9,2,2v6.51c0,1.1-.9,2-2,2Z"/>
      <path class="cls-13" d="M37.69,11.25c-1.1,0-2-.9-2-2V2.74c0-1.1.9-2,2-2s2,.9,2,2v6.51c0,1.1-.9,2-2,2Z"/>
      <path class="cls-4" d="M22.84,6h-7.24c-2.71,0-4.9,2.19-4.9,4.9v2.35h12.14v-7.25Z"/>
      <path class="cls-11" d="M42.12,6h-7.24v7.25h12.14v-2.35c0-2.71-2.19-4.9-4.9-4.9Z"/>
      <rect class="cls-9" x="22.84" y="7.11" width="12.03" height="6.14"/>
      <path class="cls-13" d="M42.12,40.18H15.6c-3.8,0-6.9-3.1-6.9-6.9V10.9c0-3.8,3.1-6.9,6.9-6.9h26.52c3.8,0,6.9,3.1,6.9,6.9v22.38c0,3.8-3.1,6.9-6.9,6.9ZM15.6,8c-1.6,0-2.9,1.3-2.9,2.9v22.38c0,1.6,1.3,2.9,2.9,2.9h26.52c1.6,0,2.9-1.3,2.9-2.9V10.9c0-1.6-1.3-2.9-2.9-2.9H15.6Z"/>
    </g>
    <g>
      <g>
        <g>
          <path class="cls-2" d="M41.78,71.29s10.62,1.25,11.99,7.03c0,0-7.33,3.8-11.99,2.46"/>
          <path class="cls-13" d="M44.03,83.07c-.96,0-1.91-.11-2.8-.36-1.06-.3-1.68-1.41-1.37-2.47.3-1.06,1.41-1.67,2.47-1.37,2.46.71,6.3-.5,8.77-1.52-2.06-2.6-7.5-3.83-9.55-4.07-1.1-.13-1.88-1.12-1.75-2.22.13-1.1,1.12-1.89,2.22-1.75,1.23.14,12.06,1.61,13.7,8.56.21.89-.21,1.81-1.03,2.24-.68.35-5.9,2.97-10.66,2.97Z"/>
        </g>
        <g>
          <path class="cls-2" d="M16.11,80.52s-6.82-.26-12.11-2.33c0,0,4.36-7.86,10.08-7.38"/>
          <path class="cls-13" d="M16.12,82.52s-.05,0-.08,0c-.29-.01-7.22-.3-12.77-2.46-.54-.21-.96-.64-1.15-1.18s-.15-1.14.13-1.65c.2-.37,5.06-8.97,11.99-8.4,1.1.09,1.92,1.06,1.83,2.16-.09,1.1-1.06,1.92-2.16,1.83-2.62-.21-5.17,2.23-6.78,4.31,4.39,1.21,9.01,1.4,9.06,1.4,1.1.04,1.96.97,1.92,2.08-.04,1.08-.93,1.92-2,1.92Z"/>
        </g>
        <g>
          <path class="cls-3" d="M23.13,103.76h11.63c2.42,0,4.37-1.96,4.37-4.37l2.65-28.1h-25.67l2.65,28.1c0,2.42,1.96,4.37,4.37,4.37Z"/>
          <path class="cls-13" d="M34.76,105.76h-11.63c-3.48,0-6.32-2.8-6.37-6.27l-2.64-28.01c-.05-.56.13-1.12.51-1.53.38-.42.92-.65,1.48-.65h25.67c.56,0,1.1.24,1.48.65.38.42.56.97.51,1.53l-2.64,28.01c-.05,3.47-2.89,6.27-6.37,6.27ZM18.31,73.29l2.44,25.91c0,.06,0,.12,0,.19,0,1.31,1.06,2.37,2.37,2.37h11.63c1.31,0,2.37-1.06,2.37-2.37,0-.06,0-.12,0-.19l2.44-25.91h-21.27Z"/>
        </g>
      </g>
      <g>
        <path class="cls-2" d="M18.18,90.09h21.55c1.82,0,3.3,1.48,3.3,3.3v8.06c0,1.27-1.03,2.31-2.31,2.31h-23.54c-1.27,0-2.31-1.03-2.31-2.31v-8.06c0-1.82,1.48-3.3,3.3-3.3Z" transform="translate(57.9 193.85) rotate(180)"/>
        <path class="cls-13" d="M39.72,105.76h-21.55c-2.92,0-5.3-2.38-5.3-5.3v-8.06c0-2.38,1.93-4.31,4.31-4.31h23.54c2.38,0,4.31,1.93,4.31,4.31v8.06c0,2.92-2.38,5.3-5.3,5.3ZM17.18,92.09c-.17,0-.31.14-.31.31v8.06c0,.72.58,1.3,1.3,1.3h21.55c.72,0,1.3-.58,1.3-1.3v-8.06c0-.17-.14-.31-.31-.31h-23.54Z"/>
      </g>
    </g>
    <path class="cls-13" d="M34.66,73.23c-1.1,0-2-.9-2-2s.9-2,2-2c1.82,0,3.24-.56,4.34-1.7,2.81-2.92,2.68-8.66,2.68-8.72-.04-1.1.82-2.03,1.92-2.07,1.11-.07,2.03.82,2.07,1.92.01.3.23,7.47-3.8,11.64-1.87,1.94-4.3,2.93-7.22,2.93Z"/>
    <path class="cls-13" d="M23.36,73.23c-2.92,0-5.35-.98-7.22-2.93-4.02-4.18-3.81-11.34-3.8-11.64.04-1.1,1-1.96,2.07-1.92,1.1.04,1.96.97,1.92,2.07,0,.08-.15,5.8,2.69,8.73,1.1,1.14,2.52,1.69,4.33,1.69,1.1,0,2,.9,2,2s-.9,2-2,2Z"/>
  </g>
</svg>