<?xml version="1.0" encoding="UTF-8"?>
<svg id="outline_icons" xmlns="http://www.w3.org/2000/svg" viewBox="0 0 112 112">
  <defs>
    <style>
      .cls-1 {
        fill: none;
      }

      .cls-2 {
        fill: #3e5f9b;
      }

      .cls-3 {
        fill: #c4d1d5;
      }

      .cls-4 {
        fill: #fff;
      }

      .cls-5 {
        fill: #004241;
      }

      .cls-6 {
        fill: #e26f6b;
      }
    </style>
  </defs>
  <g>
    <g>
      <path class="cls-6" d="M8.38,2h39.23c3.52,0,6.38,2.86,6.38,6.38v19.23c0,3.52-2.86,6.38-6.38,6.38H8.38c-3.52,0-6.38-2.86-6.38-6.38V8.38c0-3.52,2.86-6.38,6.38-6.38Z"/>
      <path class="cls-5" d="M47.62,4c2.42,0,4.38,1.96,4.38,4.38v19.23c0,2.42-1.96,4.38-4.38,4.38H8.38c-2.42,0-4.38-1.96-4.38-4.38V8.38c0-2.42,1.96-4.38,4.38-4.38h39.23M47.62,0H8.38C3.76,0,0,3.76,0,8.38v19.23C0,32.24,3.76,36,8.38,36h39.23c4.62,0,8.38-3.76,8.38-8.38V8.38C56,3.76,52.24,0,47.62,0h0Z"/>
    </g>
    <path class="cls-2" d="M8.37,4h11.63v28h-11.63c-2.41,0-4.37-1.96-4.37-4.37V8.37c0-2.41,1.96-4.37,4.37-4.37Z"/>
    <rect class="cls-4" x="20" y="4" width="16" height="28"/>
  </g>
  <g id="plane">
    <path class="cls-4" d="M63.83,45.39s-11.05-10.13-19.2-12.63c-8.14-2.51-17.77,2.61-17.77,2.61,0,0-1.66,2.23,4.05,6.27,5.71,4.03,12.1,10.09,12.1,10.09l-14.34,3.72-16.63-9.83-9.91,4.85,8.95,15.94-2.48,12.86,6.45-1.37,4-3.12s19.02,9.75,31.57,6.09l-5.93,16.39s-.24,3.28,5.43,2.24,14.43-7.33,17.21-15.84,4.54-10.17,4.54-10.17l29.89-9.12s8.2-8.35,8.24-12.09-4.77-5.3-8.95-6.79-9.29-6.4-16.99-5.71-20.24,5.65-20.24,5.65Z"/>
    <path class="cls-3" d="M109.23,50.45l-35.6,10.35-3.09,13.07,29.81-9.33s11.4-7.91,8.88-14.08Z"/>
    <path class="cls-3" d="M21.34,76.8l34.66-10.42-6.86,14.45s-14,1.03-27.8-4.03Z"/>
    <path class="cls-5" d="M70.54,75.86c-.86,0-1.66-.56-1.92-1.43-.31-1.06.29-2.17,1.35-2.49l26.16-7.79c3.29-.98,6.23-3.03,8.29-5.78l2.73-3.64c.86-1.14,1.08-2.58.62-3.93-.46-1.35-1.52-2.34-2.9-2.72l-7.05-1.92c-.15-.04-.29-.1-.43-.17l-4.58-2.48c-3.59-1.94-7.73-2.37-11.64-1.21l-50.2,14.95c-1.76.52-3.65.16-5.08-.98l-12.23-8.12c-.06-.04-.11-.08-.17-.12-.51-.42-1.2-.56-1.83-.37l-6.22,1.85c-.57.17-1.01.56-1.25,1.1-.22.5-.23,1.05-.02,1.55l6.67,9.68c.06.08.11.17.15.26.69,1.43,1.51,2.81,2.42,4.11.64.9.42,2.15-.48,2.79-.9.64-2.15.42-2.79-.48-1.01-1.43-1.91-2.96-2.68-4.53L.75,54.31c-.06-.08-.11-.17-.15-.26-.77-1.58-.8-3.42-.09-5.03.71-1.61,2.08-2.82,3.77-3.32l6.22-1.85c1.88-.56,3.9-.17,5.43,1.05l12.23,8.12c.06.04.11.08.17.12.41.34.97.45,1.48.3l50.2-14.95c4.94-1.47,10.15-.93,14.69,1.52l4.38,2.37,6.83,1.86c2.64.72,4.75,2.69,5.64,5.28s.44,5.44-1.2,7.63l-2.73,3.64c-2.57,3.43-6.25,5.99-10.35,7.21l-26.16,7.79c-.19.06-.38.08-.57.08Z"/>
    <path class="cls-5" d="M39.99,82.84c-2.6,0-5.21-.2-7.81-.6-5.51-.86-10.77-3.11-15.19-6.52-.87-.67-1.04-1.93-.36-2.8.67-.88,1.93-1.04,2.81-.36,3.89,3,8.51,4.98,13.36,5.73,5.64.88,11.32.72,16.9-.46,1.08-.23,2.14.46,2.37,1.54.23,1.08-.46,2.14-1.54,2.37-3.49.74-7.01,1.11-10.54,1.11Z"/>
    <path class="cls-5" d="M81.46,51.27c-.86,0-1.66-.56-1.92-1.43-.31-1.06.29-2.17,1.35-2.49l16.87-5.02c1.06-.32,2.17.29,2.49,1.35.31,1.06-.29,2.17-1.35,2.49l-16.87,5.02c-.19.06-.38.08-.57.08Z"/>
    <path class="cls-5" d="M22.88,79.11c-.86,0-1.66-.56-1.92-1.43-.31-1.06.29-2.17,1.35-2.49l33.22-9.89c1.06-.32,2.17.29,2.49,1.35.31,1.06-.29,2.17-1.35,2.49l-33.22,9.89c-.19.06-.38.08-.57.08Z"/>
    <path class="cls-5" d="M74.09,63.61c-.86,0-1.66-.56-1.92-1.43-.31-1.06.29-2.17,1.35-2.49l33.22-9.89c1.06-.32,2.17.29,2.49,1.35.31,1.06-.29,2.17-1.35,2.49l-33.22,9.89c-.19.06-.38.08-.57.08Z"/>
    <path class="cls-5" d="M71.87,55.04c-.54,0-1.04-.21-1.42-.59-.19-.19-.33-.4-.43-.65-.1-.24-.15-.5-.15-.76,0-.13,0-.27.04-.39.02-.13.06-.26.11-.38.05-.12.11-.24.18-.34.08-.11.16-.22.25-.31.46-.46,1.16-.67,1.81-.54.13.02.25.06.37.11.12.05.24.11.35.18.11.08.21.16.3.25.37.38.59.89.59,1.42,0,.26-.05.52-.15.76-.1.25-.25.46-.44.65-.38.38-.88.59-1.41.59Z"/>
    <path class="cls-5" d="M63.18,57.62c-.26,0-.52-.05-.76-.15-.24-.1-.46-.25-.65-.43-.38-.38-.58-.88-.58-1.42s.21-1.04.58-1.41c.09-.09.19-.18.3-.25.11-.07.23-.13.35-.18s.25-.09.37-.12c.26-.05.53-.05.79,0,.12.03.25.07.37.12.12.05.24.11.34.18.11.07.22.16.31.25.37.37.59.88.59,1.41s-.21,1.04-.59,1.42c-.38.37-.88.58-1.42.58Z"/>
    <path class="cls-5" d="M54.5,60.21c-.53,0-1.03-.21-1.41-.59-.38-.38-.59-.88-.59-1.41,0-.13.02-.26.04-.39.03-.13.07-.26.12-.38.05-.12.11-.23.18-.34.07-.11.16-.22.25-.31.74-.74,2.08-.74,2.83,0,.37.38.58.89.58,1.42s-.2,1.03-.58,1.41-.89.59-1.42.59Z"/>
    <path class="cls-5" d="M45.82,62.79c-.54,0-1.04-.21-1.42-.58-.37-.38-.58-.88-.58-1.42,0-.13.01-.26.04-.39.03-.12.06-.25.11-.37.05-.12.12-.24.19-.35.07-.11.15-.21.24-.3.1-.09.2-.18.31-.25.11-.07.22-.13.34-.18.13-.05.25-.09.38-.12.65-.13,1.34.09,1.8.55.38.37.59.89.59,1.41s-.21,1.04-.59,1.42-.87.58-1.41.58Z"/>
    <path class="cls-5" d="M37.14,65.38c-.54,0-1.04-.21-1.42-.59-.37-.38-.58-.88-.58-1.41,0-.13,0-.26.04-.39.02-.13.06-.26.11-.38s.11-.23.18-.34c.08-.11.16-.21.25-.31.75-.74,2.09-.74,2.83,0,.09.1.18.2.25.31.07.11.13.22.18.34s.09.25.12.38c.02.13.04.26.04.39,0,.53-.21,1.03-.59,1.41-.38.38-.88.59-1.41.59Z"/>
    <path class="cls-5" d="M47.76,102.06c-1.34,0-2.66-.58-3.64-1.66-1.44-1.57-1.87-3.85-1.1-5.79l11.22-28.13c.41-1.03,1.57-1.53,2.6-1.12,1.03.41,1.53,1.57,1.12,2.6l-11.22,28.13c-.25.64.02,1.27.33,1.62.16.17.48.45.87.33l3.62-1.08c2.76-.82,5.33-2.36,7.43-4.46,3.62-3.61,6.35-8.27,7.89-13.48l5.3-17.98c.31-1.06,1.43-1.67,2.48-1.35,1.06.31,1.67,1.42,1.35,2.48l-5.3,17.98c-1.73,5.85-4.8,11.11-8.9,15.19-2.57,2.56-5.72,4.44-9.11,5.46l-3.62,1.08c-.43.13-.88.19-1.32.19Z"/>
    <path class="cls-5" d="M44.42,53.17c-.4,0-.8-.12-1.15-.37l-16.08-11.36c-1.71-1.21-2.59-3.35-2.25-5.45.31-1.91,1.6-3.42,3.35-3.94l3.62-1.08c3.4-1.01,7.07-1.16,10.61-.42,5.66,1.18,11.11,3.89,15.76,7.84.84.72.94,1.98.23,2.82-.72.84-1.98.94-2.82.23-4.14-3.52-8.97-5.93-13.98-6.97-2.9-.6-5.89-.49-8.66.34l-3.62,1.08c-.39.12-.51.52-.55.75-.08.46.04,1.13.61,1.54l16.08,11.36c.9.64,1.12,1.88.48,2.79-.39.55-1.01.85-1.64.85Z"/>
    <path class="cls-5" d="M8.35,81.28c-.83,0-1.64-.36-2.19-1.02-.73-.87-.88-2.1-.38-3.12l4.83-9.76c.49-.99,1.69-1.39,2.68-.91.99.49,1.4,1.69.91,2.68l-3.67,7.43,2.97-.89c.2-.06.36-.19.47-.36l6.95-11.17c.58-.94,1.82-1.22,2.75-.64.94.58,1.22,1.82.64,2.75l-6.95,11.17c-.62,1-1.59,1.74-2.72,2.08l-5.47,1.63c-.27.08-.55.12-.82.12Z"/>
  </g>
  <g id="area">
    <rect class="cls-1" y="0" width="112" height="112"/>
  </g>
</svg>