<?xml version="1.0" encoding="UTF-8"?>
<svg id="outline_icons" xmlns="http://www.w3.org/2000/svg" viewBox="0 0 112 112">
  <defs>
    <style>
      .cls-1 {
        fill: none;
      }

      .cls-2 {
        fill: #ffd833;
      }

      .cls-3 {
        fill: #c4d1d5;
      }

      .cls-4 {
        fill: #fff;
      }

      .cls-5 {
        fill: #2e9343;
      }

      .cls-6 {
        fill: #004241;
      }
    </style>
  </defs>
  <path class="cls-4" d="M65.85,15.55c1.92,7.03-9.97,21.23-27.19,25.01-17.22,3.78-33.22-4.15-35.17-11.32C1.54,22.07,13.46,8,30.68,4.22c17.22-3.78,33.25,4.29,35.17,11.32Z"/>
  <path class="cls-2" d="M57.22,8.62c-3.45,5.96-12.37,13.97-34.16,22.35-4.26,1.64-14.49-7.57-19.78-5.92l1.71,5.67,7.63,7.72s25.52-7.36,40.04-19.81c3.59-3.07,12.9,2.31,14.92.21l-3.53-6.77-6.83-3.45Z"/>
  <path class="cls-5" d="M53.08,5.52c-3.64-1.27-7.83-2.1-12.32-2.23-5.79,9.04-17.22,22.29-36.57,27.57.66,1.2,1.68,2.39,3,3.52,13.08-3.82,33.84-12.19,45.89-28.87Z"/>
  <path class="cls-6" d="M29.75,43.51c-13.91,0-26.21-6.45-28.19-13.75-.75-2.78.02-6.19,2.25-9.86C7.61,13.61,16.83,5.22,30.25,2.27c18.63-4.09,35.35,4.78,37.53,12.75h0c.75,2.74-.03,6.12-2.24,9.78-3.83,6.33-13.06,14.78-26.45,17.72-3.13.69-6.27,1-9.34,1ZM39.72,5.24c-2.77,0-5.66.29-8.62.94-11.4,2.5-20.21,9.74-23.88,15.8-1.6,2.63-2.25,5.09-1.81,6.74,1.54,5.67,16.1,13.56,32.81,9.89,11.37-2.5,20.19-9.78,23.89-15.88,1.59-2.62,2.24-5.05,1.81-6.65h0c-1.27-4.66-11.36-10.83-24.2-10.83Z"/>
  <g>
    <g id="plane">
      <path class="cls-4" d="M63.83,51.17s-11.05-10.13-19.2-12.63c-8.14-2.51-17.77,2.61-17.77,2.61,0,0-1.66,2.23,4.05,6.27,5.71,4.03,12.1,10.09,12.1,10.09l-14.34,3.72-16.63-9.83-9.91,4.85,8.95,15.94-2.48,12.86,6.45-1.37,4-3.12s19.02,9.75,31.57,6.09l-5.93,16.39s-.24,3.28,5.43,2.24,14.43-7.33,17.21-15.84c2.78-8.5,4.54-10.17,4.54-10.17l29.89-9.12s8.2-8.35,8.24-12.09c.04-3.75-4.77-5.3-8.95-6.79-4.17-1.49-9.29-6.4-16.99-5.71-7.7.69-20.24,5.65-20.24,5.65Z"/>
      <path class="cls-3" d="M109.23,56.23l-35.6,10.35-3.09,13.07,29.81-9.33s11.4-7.91,8.88-14.08Z"/>
      <path class="cls-3" d="M21.34,82.58l34.66-10.42-6.86,14.45s-14,1.03-27.8-4.03Z"/>
      <path class="cls-6" d="M70.54,81.64c-.86,0-1.66-.56-1.92-1.43-.31-1.06.29-2.17,1.35-2.49l26.16-7.79c3.29-.98,6.23-3.03,8.29-5.78l2.73-3.64c.86-1.14,1.08-2.58.62-3.93-.46-1.35-1.52-2.34-2.9-2.72l-7.05-1.92c-.15-.04-.29-.1-.43-.17l-4.58-2.48c-3.59-1.94-7.73-2.37-11.64-1.21l-50.2,14.95c-1.76.52-3.65.16-5.08-.98l-12.23-8.12c-.06-.04-.11-.08-.17-.12-.51-.42-1.2-.56-1.83-.37l-6.22,1.85c-.57.17-1.01.56-1.25,1.1-.22.5-.23,1.05-.02,1.55l6.67,9.68c.06.08.11.17.15.26.69,1.43,1.5,2.81,2.42,4.11.64.9.42,2.15-.48,2.79-.9.64-2.15.42-2.79-.48-1.01-1.43-1.91-2.96-2.68-4.53L.75,60.09c-.06-.08-.11-.17-.15-.26-.77-1.58-.8-3.42-.09-5.03.71-1.61,2.08-2.82,3.77-3.32l6.22-1.85c1.88-.56,3.9-.17,5.43,1.05l12.23,8.12c.06.04.11.08.17.12.41.34.97.45,1.48.3l50.2-14.95c4.94-1.47,10.16-.93,14.69,1.52l4.38,2.37,6.83,1.86c2.64.72,4.75,2.69,5.64,5.28.89,2.59.44,5.44-1.2,7.63l-2.73,3.64c-2.57,3.43-6.25,5.99-10.35,7.21l-26.16,7.79c-.19.06-.38.08-.57.08Z"/>
      <path class="cls-6" d="M39.99,88.62c-2.6,0-5.21-.2-7.81-.6-5.52-.86-10.77-3.11-15.19-6.52-.87-.67-1.04-1.93-.36-2.8.67-.88,1.93-1.04,2.81-.36,3.89,3,8.51,4.98,13.36,5.73,5.63.88,11.32.72,16.9-.46,1.08-.23,2.14.46,2.37,1.54.23,1.08-.46,2.14-1.54,2.37-3.49.74-7.01,1.11-10.54,1.11Z"/>
      <path class="cls-6" d="M81.46,57.05c-.86,0-1.66-.56-1.92-1.43-.31-1.06.29-2.17,1.35-2.49l16.87-5.02c1.06-.32,2.17.29,2.49,1.35.31,1.06-.29,2.17-1.35,2.49l-16.87,5.02c-.19.06-.38.08-.57.08Z"/>
      <path class="cls-6" d="M22.88,84.89c-.86,0-1.66-.56-1.92-1.43-.31-1.06.29-2.17,1.35-2.49l33.22-9.89c1.06-.32,2.17.29,2.49,1.35.31,1.06-.29,2.17-1.35,2.49l-33.22,9.89c-.19.06-.38.08-.57.08Z"/>
      <path class="cls-6" d="M74.09,69.39c-.86,0-1.66-.56-1.92-1.43-.31-1.06.29-2.17,1.35-2.49l33.22-9.89c1.06-.32,2.17.29,2.49,1.35.31,1.06-.29,2.17-1.35,2.49l-33.22,9.89c-.19.06-.38.08-.57.08Z"/>
      <path class="cls-6" d="M71.87,60.82c-.13,0-.27-.02-.4-.04-.12-.03-.25-.06-.37-.11s-.23-.11-.34-.19c-.11-.07-.21-.15-.31-.25-.38-.37-.58-.88-.58-1.41,0-.13,0-.26.04-.39.02-.13.06-.26.11-.38s.11-.23.18-.34c.08-.11.16-.21.25-.31.1-.09.2-.17.31-.24.11-.08.22-.14.34-.19s.25-.09.38-.11c.65-.13,1.34.08,1.8.54.37.38.59.89.59,1.42s-.21,1.04-.59,1.41c-.09.1-.2.18-.3.25-.11.08-.23.14-.35.19-.12.05-.24.08-.37.11-.13.02-.26.04-.39.04Z"/>
      <path class="cls-6" d="M63.18,63.41c-.26,0-.52-.06-.76-.16-.24-.1-.46-.24-.65-.43-.38-.38-.59-.88-.59-1.41,0-.14.02-.27.04-.4.03-.12.07-.25.12-.37.05-.12.11-.24.18-.34.07-.11.16-.22.25-.31.09-.09.19-.17.3-.25.11-.07.23-.13.35-.18.12-.05.25-.09.37-.12.26-.05.53-.05.78,0,.13.03.26.07.38.12.12.05.24.11.35.18.11.08.21.16.3.25.09.09.18.2.25.31.07.1.13.22.18.34.05.12.09.25.12.37.02.13.03.26.03.4,0,.53-.2,1.03-.58,1.41-.19.19-.41.33-.65.43-.24.1-.5.16-.77.16Z"/>
      <path class="cls-6" d="M54.5,65.99c-.26,0-.52-.05-.76-.15-.25-.1-.46-.25-.65-.44-.38-.37-.59-.88-.59-1.41,0-.13.02-.26.04-.39.03-.13.07-.25.12-.38.05-.12.11-.23.18-.34.07-.11.16-.21.25-.3.74-.75,2.08-.75,2.83,0,.37.37.58.88.58,1.41s-.21,1.03-.58,1.41c-.1.1-.2.18-.31.25-.11.08-.22.14-.34.19s-.25.09-.37.11c-.13.03-.26.04-.4.04Z"/>
      <path class="cls-6" d="M45.82,68.57c-.27,0-.52-.05-.77-.15-.24-.1-.46-.24-.64-.43-.38-.38-.59-.88-.59-1.41,0-.14.01-.27.04-.4.02-.12.06-.25.11-.37.05-.12.11-.24.19-.34.07-.11.15-.22.25-.31.74-.74,2.08-.74,2.82,0,.1.09.18.2.25.31.07.1.14.22.19.34.05.12.08.25.11.37.03.13.04.26.04.4,0,.53-.21,1.03-.59,1.41-.18.19-.4.33-.64.43-.25.1-.5.15-.77.15Z"/>
      <path class="cls-6" d="M37.14,71.16c-.27,0-.53-.05-.77-.15-.24-.1-.46-.25-.65-.44-.37-.37-.58-.88-.58-1.41,0-.13,0-.26.04-.39.02-.13.06-.25.11-.37.05-.13.11-.24.18-.35.08-.11.16-.21.25-.3.75-.75,2.09-.75,2.83,0,.09.09.18.19.25.3.07.11.13.22.18.35.05.12.09.24.12.37.02.13.04.26.04.39,0,.53-.21,1.04-.59,1.41-.19.19-.4.34-.65.44-.24.1-.5.15-.76.15Z"/>
      <path class="cls-6" d="M47.76,107.84c-1.34,0-2.66-.58-3.64-1.66-1.44-1.57-1.87-3.85-1.1-5.79l11.22-28.13c.41-1.03,1.57-1.53,2.6-1.12,1.03.41,1.53,1.57,1.12,2.6l-11.22,28.13c-.25.64.02,1.27.33,1.61.16.17.48.45.87.33l3.62-1.08c2.76-.82,5.33-2.36,7.43-4.46,3.62-3.61,6.35-8.27,7.89-13.48l5.3-17.98c.31-1.06,1.43-1.67,2.48-1.35,1.06.31,1.67,1.42,1.35,2.48l-5.3,17.98c-1.73,5.85-4.8,11.11-8.9,15.19-2.57,2.56-5.72,4.44-9.11,5.46l-3.62,1.08c-.43.13-.88.19-1.32.19Z"/>
      <path class="cls-6" d="M44.42,58.95c-.4,0-.8-.12-1.15-.37l-16.08-11.36c-1.71-1.21-2.59-3.35-2.25-5.45.31-1.91,1.6-3.42,3.35-3.94l3.62-1.08c3.4-1.01,7.06-1.16,10.61-.42,5.66,1.18,11.11,3.89,15.76,7.84.84.72.94,1.98.23,2.82-.72.84-1.98.94-2.82.23-4.14-3.52-8.97-5.93-13.98-6.97-2.9-.6-5.9-.49-8.66.34l-3.62,1.08c-.39.12-.51.52-.55.75-.07.46.04,1.13.61,1.54l16.08,11.36c.9.64,1.12,1.88.48,2.79-.39.55-1.01.85-1.64.85Z"/>
      <path class="cls-6" d="M8.35,87.06c-.83,0-1.64-.36-2.19-1.02-.74-.87-.88-2.1-.38-3.12l4.83-9.76c.49-.99,1.69-1.39,2.68-.91.99.49,1.4,1.69.91,2.68l-3.67,7.43,2.97-.89c.2-.06.36-.19.47-.36l6.95-11.17c.58-.94,1.82-1.22,2.75-.64.94.58,1.22,1.82.64,2.75l-6.95,11.17c-.62,1-1.59,1.74-2.72,2.08l-5.47,1.63c-.27.08-.55.12-.82.12Z"/>
    </g>
    <g id="area">
      <rect class="cls-1" width="112" height="112"/>
    </g>
  </g>
</svg>