<?xml version="1.0" encoding="UTF-8"?>
<svg id="flatten_icons" xmlns="http://www.w3.org/2000/svg" viewBox="0 0 112 112">
  <defs>
    <style>
      .cls-1 {
        fill: none;
      }

      .cls-2 {
        fill: #a37a5b;
      }

      .cls-3 {
        fill: #7c503e;
      }

      .cls-4 {
        fill: #c48d60;
      }

      .cls-5 {
        fill: #89634e;
      }

      .cls-6 {
        fill: #aad681;
      }

      .cls-7 {
        fill: #86c487;
      }

      .cls-8 {
        fill: #004241;
      }
    </style>
  </defs>
  <g id="boulettes-vegetales">
    <g>
      <path class="cls-4" d="M59.49,72.01c0,11.73-9.51,23.43-21.24,23.43-3.34,0-6.49-2.95-9.3-4.32-2.73-1.33-6.22-2.13-8.14-4.45-3.06-3.68-3.8-9.5-3.8-14.66s1.87-9.96,4.96-13.65c1.78-2.12,3.97-2.8,6.45-4.1,2.94-1.54,6.28-3.5,9.83-3.5,11.73,0,21.24,9.51,21.24,21.24Z"/>
      <path class="cls-8" d="M38.24,97.43c-2.89,0-5.44-1.62-7.69-3.06-.89-.57-1.73-1.1-2.49-1.47-.7-.34-1.47-.65-2.29-.98-2.25-.91-4.8-1.93-6.51-3.98-2.83-3.41-4.26-8.77-4.26-15.94,0-5.46,1.93-10.76,5.43-14.93,1.66-1.97,3.6-2.91,5.48-3.81.51-.24,1.03-.49,1.57-.78l.81-.43c2.92-1.54,6.23-3.3,9.94-3.3,12.82,0,23.24,10.43,23.24,23.24,0,13.55-10.86,25.43-23.24,25.43ZM38.24,52.76c-2.72,0-5.44,1.44-8.07,2.83l-.83.44c-.58.3-1.15.58-1.7.84-1.7.81-3.04,1.46-4.14,2.77-2.9,3.46-4.5,7.85-4.5,12.36,0,6.21,1.12,10.71,3.34,13.38,1.06,1.27,2.94,2.03,4.92,2.83.85.34,1.72.69,2.55,1.1.97.47,1.94,1.09,2.88,1.69,1.88,1.19,3.81,2.43,5.54,2.43,11.01,0,19.24-11.31,19.24-21.43,0-10.61-8.63-19.24-19.24-19.24Z"/>
    </g>
    <g>
      <path class="cls-2" d="M96.97,41.08c0,10.02-8.12,18.14-18.14,18.14s-18.14-8.12-18.14-18.14,8.12-18.14,18.14-18.14c4.07,0,7.83,1.34,10.86,3.61,1.63,1.22.86,4.89,2,6.58.98,1.45,3.94.86,4.47,2.56s.82,3.52.82,5.39Z"/>
      <path class="cls-8" d="M78.83,61.22c-11.1,0-20.14-9.03-20.14-20.14s9.03-20.14,20.14-20.14c4.39,0,8.55,1.39,12.06,4.01,1.6,1.2,1.83,3.26,2.02,4.92.09.76.2,1.79.44,2.14.11.07.7.23,1.06.32,1.14.3,3.05.8,3.66,2.77.6,1.93.91,3.95.91,5.99,0,11.11-9.03,20.14-20.14,20.14ZM78.83,24.94c-8.9,0-16.14,7.24-16.14,16.14s7.24,16.14,16.14,16.14,16.14-7.24,16.14-16.14c0-1.57-.22-3.12-.67-4.61-.22-.09-.62-.2-.91-.28-1.05-.28-2.48-.65-3.36-1.95-.78-1.16-.95-2.63-1.1-3.92-.08-.67-.22-1.92-.46-2.18-2.79-2.08-6.13-3.19-9.64-3.19Z"/>
    </g>
    <g>
      <path class="cls-4" d="M51.34,26.9c0,9.48-7.69,17.17-17.17,17.17-3.3,0-6.37-.93-8.99-2.54-1.38-.85-2.64-2.99-3.73-4.19-1.29-1.42-2.35-1.97-3.11-3.77-.87-2.05-1.34-4.31-1.34-6.67,0-9.48,7.69-17.17,17.17-17.17s17.17,7.69,17.17,17.17Z"/>
      <path class="cls-8" d="M34.17,46.07c-3.55,0-7.02-.98-10.04-2.83-1.25-.77-2.25-2.1-3.14-3.27-.37-.49-.72-.95-1.02-1.28-.35-.38-.68-.7-.99-.99-.88-.84-1.79-1.7-2.48-3.35-1-2.36-1.5-4.87-1.5-7.45,0-10.57,8.6-19.17,19.17-19.17s19.17,8.6,19.17,19.17-8.6,19.17-19.17,19.17ZM34.17,11.73c-8.36,0-15.17,6.81-15.17,15.17,0,2.04.4,4.03,1.19,5.89.37.88.82,1.3,1.56,2.01.37.36.77.74,1.19,1.2.42.46.82.99,1.24,1.55.64.85,1.44,1.9,2.05,2.28,2.38,1.47,5.13,2.24,7.94,2.24,8.36,0,15.17-6.81,15.17-15.17s-6.81-15.17-15.17-15.17Z"/>
    </g>
    <g>
      <g>
        <path class="cls-7" d="M88.4,100.04s21.27-5.83,16.15-37.77c0,0-18.16-3.15-28.59,13.64-6.99,11.26,2.28,15.08,2.28,15.08l10.17,9.05Z"/>
        <path class="cls-8" d="M88.4,102.04c-.48,0-.96-.18-1.33-.51l-9.95-8.86c-1.05-.52-4.11-2.32-5.3-6.02-1.11-3.44-.29-7.41,2.44-11.8,11.02-17.73,30.44-14.59,30.63-14.56.84.15,1.5.81,1.63,1.65,2.77,17.25-2.06,27.18-6.61,32.48-5.02,5.85-10.74,7.47-10.98,7.53-.17.05-.35.07-.53.07ZM100.87,64.02c-5.4,0-16.15,1.57-23.22,12.95-2.06,3.32-2.75,6.16-2.04,8.42.82,2.62,3.37,3.75,3.4,3.76.2.08.39.21.55.35l9.29,8.27c3.88-1.55,17.37-8.79,13.94-33.68-.52-.04-1.17-.07-1.92-.07Z"/>
      </g>
      <g>
        <path class="cls-6" d="M87.57,100.03s-32.44,1.46-34.23-36.77c0,0,40.43-4.38,34.23,36.77Z"/>
        <path class="cls-8" d="M87.28,102.04c-3.76,0-34.19-1.18-35.94-38.67-.05-1.06.73-1.97,1.78-2.08.76-.08,18.79-1.9,29.53,9.3,6.52,6.8,8.84,16.81,6.89,29.75-.14.95-.93,1.66-1.89,1.7-.02,0-.15,0-.38,0ZM87.57,100.04h0,0ZM55.46,65.16c2.3,29.42,24.07,32.57,30.36,32.86,1.32-10.8-.71-19.09-6.04-24.66-7.48-7.81-19.66-8.32-24.32-8.21Z"/>
      </g>
    </g>
    <circle class="cls-5" cx="26.46" cy="20.98" r="1.96"/>
    <circle class="cls-5" cx="41.18" cy="59.22" r="1.96"/>
    <circle class="cls-5" cx="30.38" cy="32.94" r="1.96"/>
    <circle class="cls-5" cx="26.46" cy="80.66" r="1.96"/>
    <circle class="cls-5" cx="36.13" cy="70.99" r="1.96"/>
    <circle class="cls-5" cx="41.18" cy="29.59" r="2.94"/>
    <circle class="cls-5" cx="43.14" cy="79.68" r="2.94"/>
    <circle class="cls-3" cx="81.76" cy="32.53" r="1.96"/>
    <circle class="cls-3" cx="74.89" cy="49.57" r="1.96"/>
    <circle class="cls-3" cx="86.51" cy="43.24" r="2.79"/>
    <rect class="cls-1" width="112" height="112"/>
  </g>
</svg>