<?xml version="1.0" encoding="UTF-8"?>
<svg id="outline_icons" xmlns="http://www.w3.org/2000/svg" viewBox="0 0 112 112">
  <defs>
    <style>
      .cls-1 {
        fill: none;
      }

      .cls-2 {
        fill: #efefef;
      }

      .cls-3 {
        fill: #e2ddcf;
      }

      .cls-4 {
        fill: #fff;
      }

      .cls-5 {
        fill: #ed706b;
      }

      .cls-6 {
        fill: #d8d0ba;
      }

      .cls-7 {
        fill: #eae4d6;
      }

      .cls-8 {
        fill: #fdda49;
      }

      .cls-9 {
        fill: #d3e7ee;
      }

      .cls-10 {
        fill: #004241;
      }
    </style>
  </defs>
  <g id="campingcar">
    <g id="area">
      <rect class="cls-1" width="112" height="112"/>
    </g>
    <path class="cls-6" d="M93.8,8.35h-26.47c-3.36,0-6.67.8-9.63,2.34l-4.47,2.32c-2.97,1.54-6.27,2.34-9.63,2.34H13.46c-6.33,0-11.46,5-11.46,11.17v59.55c0,2.55,2.07,4.61,4.61,4.61h98.77c2.55,0,4.61-2.07,4.61-4.61v-22.57c0-2.49-1.65-4.69-4.07-5.45l-7.45-2.34-2.65-22.27h1.9c4.65,0,8.43-3.68,8.43-8.22v-4.84c0-6.65-5.53-12.04-12.35-12.04Z"/>
    <path class="cls-2" d="M103.61,58.6h1.83c2.52,0,4.56,2.04,4.56,4.56v6.05h-1.83c-2.52,0-4.56-2.04-4.56-4.56v-6.05h0Z"/>
    <path class="cls-3" d="M7.33,21.54h34.48c3.84,0,7.63-.8,11.02-2.34l5.11-2.32c3.39-1.54,7.18-2.34,11.02-2.34h30.29c2.11,0,4.11.41,5.91,1.11-1.89-4.3-6.26-7.31-11.36-7.31h-26.47c-3.36,0-6.67.8-9.63,2.34l-4.47,2.32c-2.97,1.54-6.27,2.34-9.63,2.34H13.46c-4.76,0-8.84,2.83-10.57,6.87,1.39-.43,2.88-.67,4.44-.67Z"/>
    <path class="cls-10" d="M105.39,92.68H6.61c-3.65,0-6.61-2.97-6.61-6.61V26.52c0-7.26,6.04-13.17,13.46-13.17h30.14c3.03,0,6.04-.73,8.71-2.12l4.47-2.32c3.24-1.68,6.89-2.57,10.55-2.57h26.47c7.91,0,14.35,6.3,14.35,14.04v4.84c0,5.52-4.49,10.03-10.07,10.21l2.23,18.75,6.22,1.95c3.27,1.03,5.47,3.99,5.47,7.36v22.57c0,3.65-2.97,6.61-6.61,6.61ZM13.46,17.35c-5.21,0-9.46,4.11-9.46,9.17v59.55c0,1.44,1.17,2.61,2.61,2.61h98.77c1.44,0,2.61-1.17,2.61-2.61v-22.57c0-1.62-1.07-3.04-2.67-3.54l-7.45-2.34c-.75-.24-1.29-.89-1.39-1.67l-2.65-22.27c-.07-.57.11-1.14.49-1.56.38-.43.92-.67,1.5-.67h1.9c3.54,0,6.43-2.79,6.43-6.22v-4.84c0-5.54-4.64-10.04-10.35-10.04h-26.47c-3.03,0-6.04.73-8.71,2.12l-4.46,2.32c-3.24,1.68-6.89,2.57-10.55,2.57H13.46Z"/>
    <path class="cls-10" d="M89.28,35.44H15.96c-1.1,0-2-.9-2-2s.9-2,2-2h73.32c1.1,0,2,.9,2,2s-.9,2-2,2Z"/>
    <g>
      <rect class="cls-9" x="14.47" y="33.44" width="31.78" height="22.27"/>
      <path class="cls-10" d="M46.25,57.71H14.47c-1.1,0-2-.9-2-2v-22.27c0-1.1.9-2,2-2h31.78c1.1,0,2,.9,2,2v22.27c0,1.1-.9,2-2,2ZM16.47,53.71h27.78v-18.27h-27.78v18.27Z"/>
    </g>
    <g>
      <path class="cls-9" d="M98.48,55.71l-16.88-.35c-1.64-.03-2.96-1.34-2.96-2.95v-18.97h17.19l2.65,22.27Z"/>
      <path class="cls-10" d="M98.48,57.71s-.03,0-.04,0l-16.88-.35c-2.71-.06-4.91-2.28-4.91-4.95v-18.97c0-1.1.9-2,2-2h17.19c1.01,0,1.87.76,1.99,1.76l2.65,22.27c.07.58-.12,1.15-.5,1.58-.38.42-.92.66-1.48.66ZM80.64,35.44v16.97c0,.51.45.93,1,.95l14.58.3-2.17-18.22h-13.41Z"/>
    </g>
    <g>
      <path class="cls-5" d="M2,73.98h108v12.09c0,2.55-2.07,4.61-4.61,4.61H6.61c-2.55,0-4.61-2.07-4.61-4.61v-12.09h0Z"/>
      <path class="cls-10" d="M105.39,92.68H6.61c-3.65,0-6.61-2.97-6.61-6.61v-12.09c0-1.1.9-2,2-2h108c1.1,0,2,.9,2,2v12.09c0,3.65-2.97,6.61-6.61,6.61ZM4,75.98v10.09c0,1.44,1.17,2.61,2.61,2.61h98.77c1.44,0,2.61-1.17,2.61-2.61v-10.09H4Z"/>
    </g>
    <g>
      <rect class="cls-9" x="67.85" y="16.48" width="27.88" height="8.28" rx="3.71" ry="3.71"/>
      <path class="cls-10" d="M92.01,26.76h-20.46c-3.15,0-5.71-2.56-5.71-5.71v-.86c0-3.15,2.56-5.71,5.71-5.71h20.46c3.15,0,5.71,2.56,5.71,5.71v.86c0,3.15-2.56,5.71-5.71,5.71ZM71.56,18.48c-.94,0-1.71.77-1.71,1.71v.86c0,.94.77,1.71,1.71,1.71h20.46c.94,0,1.71-.77,1.71-1.71v-.86c0-.94-.77-1.71-1.71-1.71h-20.46Z"/>
    </g>
    <g id="voiture">
      <g>
        <circle class="cls-4" cx="25.47" cy="92.68" r="11.93"/>
        <path class="cls-10" d="M25.47,106.61c-7.68,0-13.93-6.25-13.93-13.93s6.25-13.93,13.93-13.93,13.93,6.25,13.93,13.93-6.25,13.93-13.93,13.93ZM25.47,82.75c-5.47,0-9.93,4.45-9.93,9.93s4.45,9.93,9.93,9.93,9.93-4.45,9.93-9.93-4.45-9.93-9.93-9.93Z"/>
      </g>
      <g>
        <circle class="cls-4" cx="85.36" cy="92.68" r="11.93"/>
        <path class="cls-10" d="M85.36,106.61c-7.68,0-13.93-6.25-13.93-13.93s6.25-13.93,13.93-13.93,13.93,6.25,13.93,13.93-6.25,13.93-13.93,13.93ZM85.36,82.75c-5.47,0-9.93,4.45-9.93,9.93s4.45,9.93,9.93,9.93,9.93-4.45,9.93-9.93-4.45-9.93-9.93-9.93Z"/>
      </g>
      <g>
        <circle class="cls-4" cx="85.36" cy="92.68" r="4.27"/>
        <path class="cls-10" d="M85.36,98.96c-3.46,0-6.27-2.81-6.27-6.27s2.81-6.27,6.27-6.27,6.27,2.81,6.27,6.27-2.81,6.27-6.27,6.27ZM85.36,90.41c-1.25,0-2.27,1.02-2.27,2.27s1.02,2.27,2.27,2.27,2.27-1.02,2.27-2.27-1.02-2.27-2.27-2.27Z"/>
      </g>
      <g>
        <path class="cls-4" d="M25.47,96.96c-2.36,0-4.27-1.91-4.27-4.27s1.91-4.27,4.27-4.27,4.27,1.91,4.27,4.27"/>
        <path class="cls-10" d="M25.47,98.96c-3.46,0-6.27-2.81-6.27-6.27s2.81-6.27,6.27-6.27,6.27,2.81,6.27,6.27c0,1.1-.9,2-2,2s-2-.9-2-2c0-1.25-1.02-2.27-2.27-2.27s-2.27,1.02-2.27,2.27,1.02,2.27,2.27,2.27c1.1,0,2,.9,2,2s-.9,2-2,2Z"/>
      </g>
    </g>
    <g>
      <path class="cls-8" d="M21.29,55.71h-6.82v-22.27h9.54v2.16c0,6.51-.84,13-2.5,19.28l-.22.83Z"/>
      <path class="cls-10" d="M21.29,57.71h-6.82c-1.1,0-2-.9-2-2v-22.27c0-1.1.9-2,2-2h9.54c1.1,0,2,.9,2,2v2.16c0,6.69-.86,13.34-2.57,19.79l-.22.83c-.23.88-1.03,1.49-1.93,1.49ZM16.47,53.71h3.27c1.5-5.9,2.26-11.99,2.26-18.1v-.16h-5.54v18.27Z"/>
    </g>
    <g>
      <path class="cls-8" d="M39.25,55.71h7.31v-22.27h-10.22v2.16c0,6.51.9,13,2.68,19.28l.23.83Z"/>
      <path class="cls-10" d="M46.56,57.71h-7.31c-.89,0-1.68-.59-1.92-1.45l-.23-.83c-1.83-6.46-2.76-13.12-2.76-19.82v-2.16c0-1.1.9-2,2-2h10.22c1.1,0,2,.9,2,2v22.27c0,1.1-.9,2-2,2ZM40.76,53.71h3.79v-18.27h-6.22v.16c0,6.11.82,12.2,2.43,18.1Z"/>
    </g>
    <g>
      <path class="cls-7" d="M67.85,33.74v37.92c0,1.45-.59,2.84-1.64,3.87l-3.72,3.62c-1.05,1.03-2.48,1.6-3.97,1.6h-6.35c-3.1,0-5.61-2.45-5.61-5.47v-41.54h21.29Z"/>
      <path class="cls-10" d="M58.52,82.75h-6.35c-4.2,0-7.61-3.35-7.61-7.47v-41.54c0-1.1.9-2,2-2h21.29c1.1,0,2,.9,2,2v37.92c0,1.98-.82,3.91-2.25,5.3l-3.72,3.62c-1.43,1.4-3.34,2.17-5.36,2.17ZM48.56,35.74v39.54c0,1.91,1.62,3.47,3.61,3.47h6.35c.96,0,1.9-.38,2.57-1.03l3.72-3.62c.67-.65,1.04-1.52,1.04-2.44v-35.92h-17.29Z"/>
    </g>
    <path class="cls-4" d="M90.52,42.85h-5.16c-1.1,0-2-.9-2-2s.9-2,2-2h5.16c1.1,0,2,.9,2,2s-.9,2-2,2Z"/>
    <g>
      <rect class="cls-9" x="46.56" y="33.44" width="21.29" height="22.27"/>
      <path class="cls-10" d="M67.85,57.71h-21.29c-1.1,0-2-.9-2-2v-22.27c0-1.1.9-2,2-2h21.29c1.1,0,2,.9,2,2v22.27c0,1.1-.9,2-2,2ZM48.56,53.71h17.29v-18.27h-17.29v18.27Z"/>
    </g>
    <path class="cls-4" d="M59.78,42.85h-5.16c-1.1,0-2-.9-2-2s.9-2,2-2h5.16c1.1,0,2,.9,2,2s-.9,2-2,2Z"/>
    <path class="cls-4" d="M30.71,42.85h-.7c-1.1,0-2-.9-2-2s.9-2,2-2h.7c1.1,0,2,.9,2,2s-.9,2-2,2Z"/>
    <path class="cls-10" d="M81.09,64h-2.45c-1.1,0-2-.9-2-2s.9-2,2-2h2.45c1.1,0,2,.9,2,2s-.9,2-2,2Z"/>
    <path class="cls-6" d="M55.85,64h-2.45c-1.1,0-2-.9-2-2s.9-2,2-2h2.45c1.1,0,2,.9,2,2s-.9,2-2,2Z"/>
    <path class="cls-6" d="M59.78,75.98h-6.39c-1.1,0-2-.9-2-2s.9-2,2-2h6.39c1.1,0,2,.9,2,2s-.9,2-2,2Z"/>
  </g>
</svg>