<?xml version="1.0" encoding="UTF-8"?>
<svg id="outline_icons" xmlns="http://www.w3.org/2000/svg" viewBox="0 0 112 112">
  <defs>
    <style>
      .cls-1 {
        fill: none;
      }

      .cls-2 {
        fill: #6e6f72;
      }

      .cls-3 {
        fill: #3e5f9b;
      }

      .cls-4 {
        fill: #fff;
      }

      .cls-5 {
        fill: #d2d9db;
      }

      .cls-6 {
        fill: #ef706b;
      }

      .cls-7 {
        opacity: .1;
      }

      .cls-8 {
        fill: #004241;
      }

      .cls-9 {
        fill: #eee;
      }
    </style>
  </defs>
  <g class="cls-7">
    <path class="cls-2" d="M3.69,104.63c1.67-8.6,9.29-27.47,44.01-31.91,3.53-.45,6.37-3.17,7-6.68,2.54-13.98,12.56-47.59,50.51-51.76,2.15-.24,4.04,1.42,4.04,3.59v90.19s-101.98.84-101.98.84c-2.27.02-4.01-2.04-3.58-4.27Z"/>
  </g>
  <rect class="cls-1" y="0" width="112" height="112"/>
  <g>
    <rect class="cls-9" x="2.22" y="3.53" width="36.32" height="32.19" rx="4.9" ry="4.9"/>
    <path class="cls-8" d="M21.92,29.43c-1.1,0-2-.9-2-2v-7.76l-3.82,2.9c-.88.67-2.13.49-2.8-.39-.67-.88-.49-2.14.39-2.8l7.03-5.33c.6-.46,1.42-.53,2.1-.2.68.34,1.11,1.03,1.11,1.79v11.78c0,1.1-.9,2-2,2Z"/>
    <path class="cls-8" d="M11.59,8.79c-1.1,0-2-.9-2-2V.28c0-1.1.9-2,2-2s2,.9,2,2v6.51c0,1.1-.9,2-2,2Z"/>
    <path class="cls-8" d="M29.21,8.79c-1.1,0-2-.9-2-2V.28c0-1.1.9-2,2-2s2,.9,2,2v6.51c0,1.1-.9,2-2,2Z"/>
    <path class="cls-3" d="M14.37,3.53h-7.24c-2.71,0-4.9,2.19-4.9,4.9v2.35h12.14V3.53Z"/>
    <path class="cls-6" d="M33.64,3.53h-7.24v7.25h12.14v-2.35c0-2.71-2.19-4.9-4.9-4.9Z"/>
    <rect class="cls-5" x="14.37" y="4.65" width="12.03" height="6.14"/>
    <path class="cls-8" d="M33.64,37.72H7.12c-3.81,0-6.9-3.1-6.9-6.9V8.43C.22,4.63,3.32,1.53,7.12,1.53h26.52c3.81,0,6.9,3.1,6.9,6.9v22.38c0,3.8-3.1,6.9-6.9,6.9ZM7.12,5.53c-1.6,0-2.9,1.3-2.9,2.9v22.38c0,1.6,1.3,2.9,2.9,2.9h26.52c1.6,0,2.9-1.3,2.9-2.9V8.43c0-1.6-1.3-2.9-2.9-2.9H7.12Z"/>
  </g>
  <g>
    <g>
      <path class="cls-4" d="M24.92,66.4h-5.21c-2.66,0-4.81-2.16-4.81-4.81h0c0-2.66,2.16-4.81,4.81-4.81h5.21c2.66,0,2.66,9.63,0,9.63Z"/>
      <path class="cls-8" d="M24.92,68.4h-5.21c-3.76,0-6.81-3.06-6.81-6.81s3.06-6.81,6.81-6.81h5.21c2.46,0,3.99,2.61,3.99,6.81s-1.53,6.81-3.99,6.81ZM19.71,58.77c-1.55,0-2.81,1.26-2.81,2.81s1.26,2.81,2.81,2.81h4.77c.57-1.13.57-4.5,0-5.63h-4.77Z"/>
    </g>
    <g>
      <path class="cls-4" d="M101.66,42.54c-3.7.1-6.56,3.34-6.56,7.05v2c0,2.25-1.65,4.27-3.89,4.48-2.57.25-4.74-1.77-4.74-4.29v-2.19c0-3.7-2.85-6.95-6.56-7.05-3.8-.1-6.91,2.95-6.91,6.73v2.32c0,2.25-1.65,4.26-3.89,4.48-2.57.25-4.74-1.77-4.74-4.29v-2.22c0-3.69-2.84-6.9-6.53-7.02s-6.94,2.94-6.94,6.73v2.32c0,2.25-1.65,4.26-3.89,4.48-2.57.25-4.74-1.77-4.74-4.29v-2.22c0-3.69-2.84-6.9-6.53-7.02s-6.94,2.94-6.94,6.73v51.48c0,3.69,2.84,6.9,6.53,7.01s6.94-2.94,6.94-6.73v-3.22c0-2.38,1.93-4.31,4.31-4.31h0c2.38,0,4.31,1.93,4.31,4.31v2.93c0,3.69,2.84,6.9,6.53,7.01s6.94-2.94,6.94-6.73v-3.22c0-2.38,1.93-4.31,4.31-4.31h0c2.38,0,4.31,1.93,4.31,4.31v2.9c0,3.7,2.85,6.95,6.56,7.05,3.8.1,6.91-2.95,6.91-6.73v-3.22c0-2.38,1.93-4.31,4.31-4.31h0c2.38,0,4.31,1.93,4.31,4.31v2.9c0,3.71,2.85,6.95,6.56,7.05,3.8.1,6.91-2.95,6.91-6.73v-51.76c0-3.78-3.11-6.83-6.91-6.73ZM42.28,79.57v-3.13c0-2.25,1.65-4.26,3.89-4.48,2.57-.25,4.74,1.77,4.74,4.29v3.32c0,2.38-1.93,4.31-4.31,4.31h0c-2.38,0-4.31-1.93-4.31-4.31ZM64.38,79.57v-3.13c0-2.25,1.65-4.26,3.89-4.48,2.57-.25,4.74,1.77,4.74,4.29v3.32c0,2.38-1.93,4.31-4.31,4.31h0c-2.38,0-4.31-1.93-4.31-4.31ZM86.47,79.57v-3.13c0-2.25,1.65-4.27,3.89-4.48,2.57-.25,4.74,1.77,4.74,4.29v3.32c0,2.38-1.93,4.31-4.31,4.31h0c-2.38,0-4.31-1.93-4.31-4.31Z"/>
      <path class="cls-8" d="M79.74,109.77c-.08,0-.15,0-.23,0-4.69-.12-8.51-4.18-8.51-9.04v-2.91c0-1.28-1.04-2.31-2.31-2.31s-2.31,1.04-2.31,2.31v3.22c0,2.38-.94,4.61-2.65,6.27-1.71,1.66-3.95,2.54-6.35,2.46-4.67-.14-8.47-4.18-8.47-9.01v-2.93c0-1.28-1.04-2.31-2.31-2.31s-2.31,1.04-2.31,2.31v3.22c0,2.38-.94,4.61-2.65,6.27-1.71,1.66-3.96,2.55-6.35,2.46-4.67-.14-8.47-4.18-8.47-9.01v-51.48c0-2.38.94-4.61,2.65-6.27s3.95-2.53,6.35-2.46c4.67.14,8.47,4.18,8.47,9.01v2.22c0,.66.27,1.27.76,1.71.49.44,1.12.66,1.79.59,1.17-.11,2.08-1.2,2.08-2.49v-2.32c0-2.38.94-4.61,2.65-6.27,1.71-1.66,3.95-2.54,6.35-2.46,4.67.14,8.47,4.18,8.47,9.01v2.22c0,.66.27,1.27.76,1.71.49.44,1.12.66,1.79.59,1.17-.11,2.08-1.2,2.08-2.49v-2.32c0-2.38.94-4.6,2.64-6.26,1.7-1.66,3.93-2.54,6.33-2.48,4.69.12,8.51,4.18,8.51,9.04v2.19c0,.66.27,1.27.76,1.71.49.44,1.12.66,1.79.59,1.17-.11,2.08-1.2,2.08-2.49v-2c0-4.87,3.82-8.92,8.51-9.04h0c2.37-.07,4.62.82,6.33,2.48,1.7,1.66,2.64,3.88,2.64,6.26v51.76c0,2.38-.94,4.6-2.64,6.26s-3.94,2.54-6.33,2.48c-4.69-.12-8.51-4.18-8.51-9.04v-2.91c0-1.28-1.04-2.31-2.31-2.31s-2.31,1.04-2.31,2.31v3.22c0,2.38-.94,4.6-2.64,6.26-1.65,1.6-3.8,2.48-6.09,2.48ZM68.69,91.51c3.48,0,6.31,2.83,6.31,6.31v2.91c0,2.72,2.07,4.98,4.61,5.05,1.3.04,2.51-.44,3.43-1.34.92-.9,1.43-2.1,1.43-3.39v-3.22c0-3.48,2.83-6.31,6.31-6.31s6.31,2.83,6.31,6.31v2.91c0,2.72,2.07,4.98,4.61,5.05,1.29.04,2.51-.44,3.43-1.34.92-.9,1.43-2.1,1.43-3.39v-51.76c0-1.29-.51-2.49-1.43-3.39-.92-.9-2.14-1.37-3.43-1.34h0c-2.54.07-4.61,2.33-4.61,5.05v2c0,3.32-2.5,6.17-5.7,6.47-1.78.16-3.55-.42-4.86-1.61-1.31-1.19-2.07-2.9-2.07-4.67v-2.19c0-2.72-2.07-4.98-4.61-5.05-1.27-.02-2.51.44-3.43,1.34-.92.9-1.43,2.1-1.43,3.39v2.32c0,3.32-2.5,6.17-5.7,6.47-1.78.16-3.55-.42-4.86-1.61-1.31-1.19-2.07-2.9-2.07-4.67v-2.22c0-2.69-2.06-4.94-4.59-5.02-1.28-.02-2.52.44-3.44,1.33-.93.9-1.44,2.11-1.44,3.4v2.32c0,3.32-2.5,6.17-5.7,6.47-1.78.17-3.55-.42-4.86-1.61-1.31-1.19-2.07-2.9-2.07-4.67v-2.22c0-2.69-2.06-4.94-4.59-5.02-1.29-.02-2.52.44-3.45,1.33-.93.9-1.44,2.11-1.44,3.4v51.48c0,2.69,2.06,4.94,4.59,5.02,1.29.03,2.52-.43,3.44-1.33.93-.9,1.44-2.11,1.44-3.4v-3.22c0-3.48,2.83-6.31,6.31-6.31s6.31,2.83,6.31,6.31v2.93c0,2.69,2.06,4.94,4.59,5.02,1.3.04,2.52-.43,3.44-1.33.93-.9,1.44-2.11,1.44-3.4v-3.22c0-3.48,2.83-6.31,6.31-6.31ZM90.79,85.88c-3.48,0-6.31-2.83-6.31-6.31v-3.13c0-3.32,2.5-6.16,5.7-6.47,1.78-.17,3.55.42,4.86,1.61,1.31,1.2,2.07,2.9,2.07,4.67v3.32c0,3.48-2.83,6.31-6.31,6.31ZM90.79,73.93c-.08,0-.15,0-.23.01-1.17.11-2.08,1.2-2.08,2.49v3.13c0,1.28,1.04,2.31,2.31,2.31s2.31-1.04,2.31-2.31v-3.32c0-.66-.27-1.27-.76-1.71-.43-.39-.98-.6-1.56-.6ZM68.69,85.88c-3.48,0-6.31-2.83-6.31-6.31v-3.13c0-3.32,2.5-6.16,5.7-6.47,1.78-.16,3.55.42,4.86,1.61,1.31,1.19,2.07,2.9,2.07,4.67v3.32c0,3.48-2.83,6.31-6.31,6.31ZM68.69,73.93c-.08,0-.15,0-.23.01-1.17.11-2.08,1.2-2.08,2.49v3.13c0,1.28,1.04,2.31,2.31,2.31s2.31-1.04,2.31-2.31v-3.32c0-.66-.27-1.27-.76-1.71-.43-.39-.98-.6-1.56-.6ZM46.59,85.88c-3.48,0-6.31-2.83-6.31-6.31v-3.13c0-3.32,2.5-6.16,5.7-6.47,1.78-.17,3.55.42,4.86,1.61,1.31,1.2,2.07,2.9,2.07,4.67v3.32c0,3.48-2.83,6.31-6.31,6.31ZM46.59,73.93c-.08,0-.15,0-.23.01-1.17.11-2.08,1.2-2.08,2.49v3.13c0,1.28,1.04,2.31,2.31,2.31s2.31-1.04,2.31-2.31v-3.32c0-.66-.27-1.27-.76-1.71-.43-.39-.98-.6-1.56-.6Z"/>
    </g>
    <path class="cls-5" d="M52,70.91v-15.44h-10.22v-9.31l-2.59-3.08c-2.29,1-3.89,3.28-3.89,5.94v52.27c0,2.1,1,3.96,2.55,5.15l3.94-1.73v-10.25h10.22v-11.12h-10.22v-12.43h10.22Z"/>
    <path class="cls-5" d="M104.15,106.4l3.74-2.06v-57.9l-2.86-3.41c-2.14,1.06-3.62,3.26-3.62,5.81v52.27c0,2.19,1.09,4.12,2.74,5.29Z"/>
    <path class="cls-5" d="M74.43,70.91v-15.44h-11.01v-9.82l-2.89-2.43c-2.13,1.06-3.59,3.26-3.59,5.8v52.27c0,2.87,1.87,5.3,4.46,6.16l2.03-1.31v-11.68h11.01v-11.12h-11.01v-12.43h11.01Z"/>
    <path class="cls-5" d="M95.1,70.91v-15.44h-9.6v-9.43l-3.22-2.64c-1.95,1.12-3.26,3.21-3.26,5.62v52.27c0,2.66,1.6,4.95,3.9,5.94l2.59-1.8v-10.97h9.6v-11.12h-9.6v-12.43h9.6Z"/>
    <path class="cls-8" d="M79.74,109.77c-.08,0-.15,0-.23,0-4.69-.12-8.51-4.18-8.51-9.04v-2.91c0-1.28-1.04-2.31-2.31-2.31s-2.31,1.04-2.31,2.31v3.22c0,2.38-.94,4.61-2.65,6.27-1.71,1.66-3.95,2.54-6.35,2.46-4.67-.14-8.47-4.18-8.47-9.01v-2.93c0-1.28-1.04-2.31-2.31-2.31s-2.31,1.04-2.31,2.31v3.22c0,2.38-.94,4.61-2.65,6.27-1.71,1.66-3.96,2.55-6.35,2.46-4.67-.14-8.47-4.18-8.47-9.01v-51.48c0-2.38.94-4.61,2.65-6.27s3.95-2.53,6.35-2.46c4.67.14,8.47,4.18,8.47,9.01v2.22c0,.66.27,1.27.76,1.71.49.44,1.12.66,1.79.59,1.17-.11,2.08-1.2,2.08-2.49v-2.32c0-2.38.94-4.61,2.65-6.27,1.71-1.66,3.95-2.54,6.35-2.46,4.67.14,8.47,4.18,8.47,9.01v2.22c0,.66.27,1.27.76,1.71.49.44,1.12.66,1.79.59,1.17-.11,2.08-1.2,2.08-2.49v-2.32c0-2.38.94-4.6,2.64-6.26,1.7-1.66,3.93-2.54,6.33-2.48,4.69.12,8.51,4.18,8.51,9.04v2.19c0,.66.27,1.27.76,1.71.49.44,1.12.66,1.79.59,1.17-.11,2.08-1.2,2.08-2.49v-2c0-4.87,3.82-8.92,8.51-9.04h0c2.37-.07,4.62.82,6.33,2.48,1.7,1.66,2.64,3.88,2.64,6.26v51.76c0,2.38-.94,4.6-2.64,6.26s-3.94,2.54-6.33,2.48c-4.69-.12-8.51-4.18-8.51-9.04v-2.91c0-1.28-1.04-2.31-2.31-2.31s-2.31,1.04-2.31,2.31v3.22c0,2.38-.94,4.6-2.64,6.26-1.65,1.6-3.8,2.48-6.09,2.48ZM68.69,91.51c3.48,0,6.31,2.83,6.31,6.31v2.91c0,2.72,2.07,4.98,4.61,5.05,1.3.04,2.51-.44,3.43-1.34.92-.9,1.43-2.1,1.43-3.39v-3.22c0-3.48,2.83-6.31,6.31-6.31s6.31,2.83,6.31,6.31v2.91c0,2.72,2.07,4.98,4.61,5.05,1.29.04,2.51-.44,3.43-1.34.92-.9,1.43-2.1,1.43-3.39v-51.76c0-1.29-.51-2.49-1.43-3.39-.92-.9-2.14-1.37-3.43-1.34h0c-2.54.07-4.61,2.33-4.61,5.05v2c0,3.32-2.5,6.17-5.7,6.47-1.78.16-3.55-.42-4.86-1.61-1.31-1.19-2.07-2.9-2.07-4.67v-2.19c0-2.72-2.07-4.98-4.61-5.05-1.27-.02-2.51.44-3.43,1.34-.92.9-1.43,2.1-1.43,3.39v2.32c0,3.32-2.5,6.17-5.7,6.47-1.78.16-3.55-.42-4.86-1.61-1.31-1.19-2.07-2.9-2.07-4.67v-2.22c0-2.69-2.06-4.94-4.59-5.02-1.28-.02-2.52.44-3.44,1.33-.93.9-1.44,2.11-1.44,3.4v2.32c0,3.32-2.5,6.17-5.7,6.47-1.78.17-3.55-.42-4.86-1.61-1.31-1.19-2.07-2.9-2.07-4.67v-2.22c0-2.69-2.06-4.94-4.59-5.02-1.29-.02-2.52.44-3.45,1.33-.93.9-1.44,2.11-1.44,3.4v51.48c0,2.69,2.06,4.94,4.59,5.02,1.29.03,2.52-.43,3.44-1.33.93-.9,1.44-2.11,1.44-3.4v-3.22c0-3.48,2.83-6.31,6.31-6.31s6.31,2.83,6.31,6.31v2.93c0,2.69,2.06,4.94,4.59,5.02,1.3.04,2.52-.43,3.44-1.33.93-.9,1.44-2.11,1.44-3.4v-3.22c0-3.48,2.83-6.31,6.31-6.31ZM90.79,85.88c-3.48,0-6.31-2.83-6.31-6.31v-3.13c0-3.32,2.5-6.16,5.7-6.47,1.78-.17,3.55.42,4.86,1.61,1.31,1.2,2.07,2.9,2.07,4.67v3.32c0,3.48-2.83,6.31-6.31,6.31ZM90.79,73.93c-.08,0-.15,0-.23.01-1.17.11-2.08,1.2-2.08,2.49v3.13c0,1.28,1.04,2.31,2.31,2.31s2.31-1.04,2.31-2.31v-3.32c0-.66-.27-1.27-.76-1.71-.43-.39-.98-.6-1.56-.6ZM68.69,85.88c-3.48,0-6.31-2.83-6.31-6.31v-3.13c0-3.32,2.5-6.16,5.7-6.47,1.78-.16,3.55.42,4.86,1.61,1.31,1.19,2.07,2.9,2.07,4.67v3.32c0,3.48-2.83,6.31-6.31,6.31ZM68.69,73.93c-.08,0-.15,0-.23.01-1.17.11-2.08,1.2-2.08,2.49v3.13c0,1.28,1.04,2.31,2.31,2.31s2.31-1.04,2.31-2.31v-3.32c0-.66-.27-1.27-.76-1.71-.43-.39-.98-.6-1.56-.6ZM46.59,85.88c-3.48,0-6.31-2.83-6.31-6.31v-3.13c0-3.32,2.5-6.16,5.7-6.47,1.78-.17,3.55.42,4.86,1.61,1.31,1.2,2.07,2.9,2.07,4.67v3.32c0,3.48-2.83,6.31-6.31,6.31ZM46.59,73.93c-.08,0-.15,0-.23.01-1.17.11-2.08,1.2-2.08,2.49v3.13c0,1.28,1.04,2.31,2.31,2.31s2.31-1.04,2.31-2.31v-3.32c0-.66-.27-1.27-.76-1.71-.43-.39-.98-.6-1.56-.6Z"/>
    <path class="cls-8" d="M42.28,99.82c-1.1,0-2-.9-2-2v-46.05c0-1.1.9-2,2-2s2,.9,2,2v46.05c0,1.1-.9,2-2,2Z"/>
    <path class="cls-8" d="M50.9,99.82c-1.1,0-2-.9-2-2v-46.05c0-1.1.9-2,2-2s2,.9,2,2v46.05c0,1.1-.9,2-2,2Z"/>
    <path class="cls-8" d="M64.37,99.82c-1.1,0-2-.9-2-2v-46.05c0-1.1.9-2,2-2s2,.9,2,2v46.05c0,1.1-.9,2-2,2Z"/>
    <path class="cls-8" d="M73,99.82c-1.1,0-2-.9-2-2v-46.05c0-1.1.9-2,2-2s2,.9,2,2v46.05c0,1.1-.9,2-2,2Z"/>
    <path class="cls-8" d="M86.47,99.82c-1.1,0-2-.9-2-2v-46.05c0-1.1.9-2,2-2s2,.9,2,2v46.05c0,1.1-.9,2-2,2Z"/>
    <path class="cls-8" d="M95.1,99.82c-1.1,0-2-.9-2-2v-46.05c0-1.1.9-2,2-2s2,.9,2,2v46.05c0,1.1-.9,2-2,2Z"/>
  </g>
</svg>