<?xml version="1.0" encoding="UTF-8"?>
<svg id="outline_icons" xmlns="http://www.w3.org/2000/svg" viewBox="0 0 112 112">
  <defs>
    <style>
      .cls-1 {
        fill: none;
      }

      .cls-2 {
        fill: #8e7f75;
      }

      .cls-3 {
        fill: #bcada2;
      }

      .cls-4 {
        fill: #87634b;
      }

      .cls-5 {
        fill: #a57c60;
      }

      .cls-6 {
        fill: #968071;
      }

      .cls-7 {
        fill: #004241;
      }

      .cls-8 {
        fill: #605248;
      }
    </style>
  </defs>
  <g id="gallette-vegetale">
    <rect class="cls-1" width="112" height="112"/>
    <g>
      <g>
        <rect class="cls-8" x="22.89" y="9.59" width="66.65" height="93.35" rx="3.41" ry="3.41" transform="translate(6.35 -5.7) rotate(6.15)"/>
        <path class="cls-7" d="M81.33,107.9c-.2,0-.39-.01-.59-.03l-59.49-6.41c-1.44-.16-2.73-.86-3.63-1.99-.91-1.13-1.32-2.54-1.17-3.97L25.73,9.47c.15-1.44.86-2.73,1.99-3.63,1.12-.91,2.54-1.32,3.97-1.17l59.49,6.41c1.44.15,2.73.86,3.63,1.99.91,1.12,1.32,2.54,1.17,3.97l-9.27,86.03c-.15,1.44-.86,2.73-1.99,3.63-.97.78-2.15,1.2-3.38,1.2ZM31.11,8.63c-.32,0-.63.11-.88.31-.29.24-.48.57-.52.95l-9.27,86.03c-.04.38.07.74.3,1.04.24.29.57.48.95.52l59.49,6.41h0c.37.04.74-.07,1.04-.3s.48-.57.52-.95l9.27-86.03c.04-.38-.07-.74-.3-1.04-.24-.29-.57-.48-.95-.52l-59.49-6.41c-.05,0-.1,0-.15,0Z"/>
      </g>
      <g>
        <line class="cls-4" x1="51.21" y1="102.67" x2="61.22" y2="9.86"/>
        <path class="cls-7" d="M51.22,104.67c-.07,0-.14,0-.22-.01-1.1-.12-1.89-1.1-1.77-2.2L59.23,9.65c.12-1.1,1.11-1.88,2.2-1.77,1.1.12,1.89,1.1,1.77,2.2l-10,92.81c-.11,1.03-.98,1.79-1.99,1.79Z"/>
      </g>
      <g>
        <line class="cls-4" x1="89.35" y1="59.84" x2="23.08" y2="52.69"/>
        <path class="cls-7" d="M89.35,61.84c-.07,0-.14,0-.22-.01l-66.27-7.14c-1.1-.12-1.89-1.1-1.77-2.2s1.11-1.9,2.2-1.77l66.27,7.14c1.1.12,1.89,1.1,1.77,2.2-.11,1.03-.98,1.79-1.99,1.79Z"/>
      </g>
      <g>
        <line class="cls-4" x1="91.81" y1="36.99" x2="25.54" y2="29.84"/>
        <path class="cls-7" d="M91.82,38.99c-.07,0-.14,0-.22-.01l-66.27-7.14c-1.1-.12-1.89-1.1-1.77-2.2s1.11-1.9,2.2-1.77l66.27,7.14c1.1.12,1.89,1.1,1.77,2.2-.11,1.03-.98,1.79-1.99,1.79Z"/>
      </g>
      <g>
        <line class="cls-4" x1="86.89" y1="82.69" x2="20.62" y2="75.54"/>
        <path class="cls-7" d="M86.89,84.69c-.07,0-.14,0-.22-.01l-66.27-7.14c-1.1-.12-1.89-1.1-1.77-2.2.12-1.1,1.11-1.88,2.2-1.77l66.27,7.14c1.1.12,1.89,1.1,1.77,2.2-.11,1.03-.98,1.79-1.99,1.79Z"/>
      </g>
      <path class="cls-6" d="M31.42,24.14l1.17-10.9c.09-.86.86-1.48,1.72-1.39l18.91,2.04c.92.1,1.49,1.07,1.11,1.91-1.64,3.62-6.95,11.56-21.69,9.84-.75-.09-1.3-.76-1.22-1.51Z"/>
      <path class="cls-6" d="M64.74,27.73l1.17-10.9c.09-.86.86-1.48,1.72-1.39l18.91,2.04c.92.1,1.49,1.07,1.11,1.91-1.64,3.62-6.95,11.56-21.69,9.84-.75-.09-1.3-.76-1.22-1.51Z"/>
      <path class="cls-6" d="M28.92,47.37l1.17-10.9c.09-.86.86-1.48,1.72-1.39l18.91,2.04c.92.1,1.49,1.07,1.11,1.91-1.64,3.62-6.95,11.56-21.69,9.84-.75-.09-1.3-.76-1.22-1.51Z"/>
      <path class="cls-6" d="M62.23,50.96l1.17-10.9c.09-.86.86-1.48,1.72-1.39l18.91,2.04c.92.1,1.49,1.07,1.11,1.91-1.64,3.62-6.95,11.56-21.69,9.84-.75-.09-1.3-.76-1.22-1.51Z"/>
      <path class="cls-6" d="M26.45,70.22l1.17-10.9c.09-.86.86-1.48,1.72-1.39l18.91,2.04c.92.1,1.49,1.07,1.11,1.91-1.64,3.62-6.95,11.56-21.69,9.84-.75-.09-1.3-.76-1.22-1.51Z"/>
      <path class="cls-6" d="M59.77,73.81l1.17-10.9c.09-.86.86-1.48,1.72-1.39l18.91,2.04c.92.1,1.49,1.07,1.11,1.91-1.64,3.62-6.95,11.56-21.69,9.84-.75-.09-1.3-.76-1.22-1.51Z"/>
      <path class="cls-5" d="M23.95,93.45l1.17-10.9c.09-.86.86-1.48,1.72-1.39l18.91,2.04c.92.1,1.49,1.07,1.11,1.91-1.64,3.62-6.95,11.56-21.69,9.84-.75-.09-1.3-.76-1.22-1.51Z"/>
      <path class="cls-5" d="M57.27,97.04l1.17-10.9c.09-.86.86-1.48,1.72-1.39l18.91,2.04c.92.1,1.49,1.07,1.11,1.91-1.64,3.62-6.95,11.56-21.69,9.84-.75-.09-1.3-.76-1.22-1.51Z"/>
      <g>
        <path class="cls-2" d="M88.3,69.62l-3.56,32.99c-.22,2-2.02,3.45-4.02,3.24l-59.01-6.36c-2-.22-3.45-2.02-3.24-4.02l2.22-20.59,20.74.68,46.86-5.95Z"/>
        <path class="cls-7" d="M81.12,107.87c-.2,0-.4-.01-.61-.03l-59.01-6.36c-1.5-.16-2.85-.9-3.79-2.07-.95-1.17-1.38-2.65-1.22-4.15l2.22-20.59c.11-1.04,1-1.84,2.05-1.79l20.58.68,46.71-5.93c.61-.08,1.22.13,1.65.56.44.43.65,1.03.59,1.64l-3.56,32.99c-.31,2.89-2.77,5.04-5.61,5.04ZM22.48,76.94l-2.02,18.74c-.05.44.08.87.36,1.21s.67.56,1.11.61l59.01,6.36c.91.08,1.72-.56,1.82-1.46l3.28-30.48-44.35,5.63c-.1.01-.21.02-.32.01l-18.89-.62Z"/>
      </g>
      <g>
        <path class="cls-3" d="M88.3,69.62l-17.01,3.89-5.46,6.83c-4.26,1.35-8.61.9-11.37,4.41-6.53,8.33-7.89,1.56-11.52-.21-1.85-.9-5.82,3.55-7.47,2.32l-3.01-3.34c-2-.22-14.43,4.69-17.09-.84l5.33-7.8,20.74.68,46.86-5.95Z"/>
        <path class="cls-7" d="M49.01,90.81c-2.23,0-3.74-1.54-4.97-2.79-.62-.63-1.21-1.23-1.79-1.58-.46.13-1.41.69-2,1.04-1.81,1.07-4.07,2.41-5.98.98-.1-.08-.2-.17-.29-.26l-2.34-2.59c-.51.1-1.24.27-1.87.42-5.06,1.17-13.52,3.12-16.21-2.47-.31-.64-.25-1.4.15-1.99l5.33-7.8c.39-.57,1.03-.91,1.72-.87l20.58.68,46.71-5.93c1.06-.13,2.03.59,2.22,1.63.19,1.05-.48,2.06-1.52,2.3l-16.33,3.74-5.03,6.28c-.25.31-.58.54-.96.66-1.39.44-2.74.7-4.04.94-2.73.52-4.89.93-6.36,2.8-2.52,3.22-4.6,4.7-6.75,4.82-.09,0-.18,0-.27,0ZM42.38,82.41c.48,0,.96.1,1.44.33,1.27.62,2.24,1.61,3.09,2.48.82.84,1.59,1.6,2.16,1.59.39-.02,1.54-.39,3.82-3.3,2.39-3.05,5.63-3.67,8.76-4.26,1-.19,2.02-.38,3.01-.66l3.53-4.41-26.5,3.36c-.11.01-.21.02-.32.01l-19.64-.65-3.88,5.68c2.22,1.56,8.05.21,11.03-.47,2-.46,2.99-.68,3.8-.59.49.05.94.28,1.27.65l2.53,2.8c.48-.2,1.25-.65,1.75-.94,1.31-.77,2.74-1.63,4.17-1.63Z"/>
      </g>
    </g>
  </g>
</svg>