<?xml version="1.0" encoding="UTF-8"?>
<svg id="outline_icons" xmlns="http://www.w3.org/2000/svg" viewBox="0 0 112 112">
  <defs>
    <style>
      .cls-1 {
        fill: none;
      }

      .cls-2 {
        fill: #e5aa9c;
      }

      .cls-3 {
        fill: #f48260;
      }

      .cls-4 {
        fill: #87634b;
      }

      .cls-5 {
        fill: #a57c60;
      }

      .cls-6 {
        fill: #004241;
      }

      .cls-7 {
        fill: #af8569;
      }
    </style>
  </defs>
  <g id="gallette-vegetale">
    <rect class="cls-1" width="112" height="112"/>
    <g>
      <g>
        <rect class="cls-4" x="22.89" y="9.59" width="66.65" height="93.35" rx="3.41" ry="3.41" transform="translate(6.35 -5.7) rotate(6.15)"/>
        <path class="cls-6" d="M81.33,107.9c-.2,0-.39-.01-.59-.03l-59.49-6.41c-1.44-.16-2.73-.86-3.63-1.99-.91-1.13-1.32-2.54-1.17-3.97L25.73,9.47c.15-1.44.86-2.73,1.99-3.63s2.53-1.32,3.97-1.17l59.49,6.41c1.44.15,2.73.86,3.63,1.99.91,1.12,1.32,2.54,1.17,3.97l-9.27,86.03c-.15,1.44-.86,2.73-1.99,3.63-.97.78-2.15,1.2-3.38,1.2ZM31.11,8.63c-.32,0-.63.11-.88.31-.29.24-.48.57-.52.95l-9.27,86.03c-.04.38.07.74.3,1.04.24.29.57.48.95.52l59.49,6.41h0c.37.04.74-.07,1.04-.3s.48-.57.52-.95l9.27-86.03c.04-.38-.07-.74-.3-1.04-.24-.29-.57-.48-.95-.52l-59.49-6.41c-.05,0-.1,0-.15,0Z"/>
      </g>
      <g>
        <line class="cls-4" x1="51.21" y1="102.67" x2="61.22" y2="9.86"/>
        <path class="cls-6" d="M51.22,104.67c-.07,0-.14,0-.22-.01-1.1-.12-1.89-1.1-1.77-2.2L59.23,9.65c.12-1.1,1.11-1.88,2.2-1.77,1.1.12,1.89,1.1,1.77,2.2l-10,92.81c-.11,1.03-.98,1.79-1.99,1.79Z"/>
      </g>
      <g>
        <line class="cls-4" x1="89.35" y1="59.84" x2="23.08" y2="52.69"/>
        <path class="cls-6" d="M89.35,61.84c-.07,0-.14,0-.22-.01l-66.27-7.14c-1.1-.12-1.89-1.1-1.77-2.2.12-1.1,1.11-1.9,2.2-1.77l66.27,7.14c1.1.12,1.89,1.1,1.77,2.2-.11,1.03-.98,1.79-1.99,1.79Z"/>
      </g>
      <g>
        <line class="cls-4" x1="91.81" y1="36.99" x2="25.54" y2="29.84"/>
        <path class="cls-6" d="M91.82,38.99c-.07,0-.14,0-.22-.01l-66.27-7.14c-1.1-.12-1.89-1.1-1.77-2.2.12-1.1,1.11-1.9,2.2-1.77l66.27,7.14c1.1.12,1.89,1.1,1.77,2.2-.11,1.03-.98,1.79-1.99,1.79Z"/>
      </g>
      <g>
        <line class="cls-4" x1="86.89" y1="82.69" x2="20.62" y2="75.54"/>
        <path class="cls-6" d="M86.89,84.69c-.07,0-.14,0-.22-.01l-66.27-7.14c-1.1-.12-1.89-1.1-1.77-2.2s1.11-1.88,2.2-1.77l66.27,7.14c1.1.12,1.89,1.1,1.77,2.2-.11,1.03-.98,1.79-1.99,1.79Z"/>
      </g>
      <path class="cls-7" d="M31.42,24.14l1.17-10.9c.09-.86.86-1.48,1.72-1.39l18.91,2.04c.92.1,1.49,1.07,1.11,1.91-1.64,3.62-6.95,11.56-21.69,9.84-.75-.09-1.3-.76-1.22-1.51Z"/>
      <path class="cls-7" d="M64.74,27.73l1.17-10.9c.09-.86.86-1.48,1.72-1.39l18.91,2.04c.92.1,1.49,1.07,1.11,1.91-1.64,3.62-6.95,11.56-21.69,9.84-.75-.09-1.3-.76-1.22-1.51Z"/>
      <path class="cls-7" d="M28.92,47.37l1.17-10.9c.09-.86.86-1.48,1.72-1.39l18.91,2.04c.92.1,1.49,1.07,1.11,1.91-1.64,3.62-6.95,11.56-21.69,9.84-.75-.09-1.3-.76-1.22-1.51Z"/>
      <path class="cls-7" d="M62.23,50.96l1.17-10.9c.09-.86.86-1.48,1.72-1.39l18.91,2.04c.92.1,1.49,1.07,1.11,1.91-1.64,3.62-6.95,11.56-21.69,9.84-.75-.09-1.3-.76-1.22-1.51Z"/>
      <path class="cls-7" d="M26.45,70.22l1.17-10.9c.09-.86.86-1.48,1.72-1.39l18.91,2.04c.92.1,1.49,1.07,1.11,1.91-1.64,3.62-6.95,11.56-21.69,9.84-.75-.09-1.3-.76-1.22-1.51Z"/>
      <path class="cls-7" d="M59.77,73.81l1.17-10.9c.09-.86.86-1.48,1.72-1.39l18.91,2.04c.92.1,1.49,1.07,1.11,1.91-1.64,3.62-6.95,11.56-21.69,9.84-.75-.09-1.3-.76-1.22-1.51Z"/>
      <path class="cls-5" d="M23.95,93.45l1.17-10.9c.09-.86.86-1.48,1.72-1.39l18.91,2.04c.92.1,1.49,1.07,1.11,1.91-1.64,3.62-6.95,11.56-21.69,9.84-.75-.09-1.3-.76-1.22-1.51Z"/>
      <path class="cls-5" d="M57.27,97.04l1.17-10.9c.09-.86.86-1.48,1.72-1.39l18.91,2.04c.92.1,1.49,1.07,1.11,1.91-1.64,3.62-6.95,11.56-21.69,9.84-.75-.09-1.3-.76-1.22-1.51Z"/>
      <g>
        <path class="cls-3" d="M88.3,69.62l-3.56,32.99c-.22,2-2.02,3.45-4.02,3.24l-59.01-6.36c-2-.22-3.45-2.02-3.24-4.02l2.22-20.59,20.74.68,46.86-5.95Z"/>
        <path class="cls-6" d="M81.12,107.87c-.2,0-.4-.01-.61-.03l-59.01-6.36c-1.5-.16-2.85-.9-3.79-2.07-.95-1.17-1.38-2.65-1.22-4.15l2.22-20.59c.11-1.04,1-1.84,2.05-1.79l20.58.68,46.71-5.93c.61-.08,1.22.13,1.65.56.44.43.65,1.03.59,1.64l-3.56,32.99c-.31,2.89-2.77,5.04-5.61,5.04ZM22.48,76.94l-2.02,18.74c-.05.44.08.87.36,1.21s.67.56,1.11.61l59.01,6.36c.9.08,1.72-.56,1.82-1.46l3.28-30.48-44.35,5.63c-.1.01-.21.02-.32.01l-18.89-.62Z"/>
      </g>
      <g>
        <path class="cls-2" d="M88.3,69.62l-22.9,7.28c-4.26,1.35-8.17,3.61-11.48,6.61-9.75,8.82-16.8,6.39-20.44,4.62-1.85-.9-3.6-2-5.25-3.23l-2.5-1.86c-2-.22-7.7,2.42-10.36-3.1l5.33-5.05,20.74.68,46.86-5.95Z"/>
        <path class="cls-6" d="M40.39,91.84c-2.6,0-5.19-.64-7.79-1.91-1.87-.91-3.74-2.06-5.57-3.42l-1.95-1.45c-.28.03-.64.09-.93.13-2.56.39-7.9,1.21-10.59-4.38-.38-.78-.2-1.72.43-2.32l5.33-5.05c.39-.37.92-.57,1.44-.55l20.58.68,46.71-5.93c1.02-.12,1.98.54,2.2,1.55s-.36,2.02-1.35,2.34l-22.9,7.28c-3.94,1.25-7.66,3.39-10.75,6.19-5.05,4.57-9.96,6.84-14.86,6.84ZM25.46,81.02c.16,0,.32,0,.48.02.35.04.69.17.98.38l2.5,1.86c1.63,1.21,3.29,2.24,4.94,3.04,3.75,1.83,9.73,3.38,18.22-4.3,3.51-3.18,7.73-5.61,12.22-7.04l1.98-.63-25.09,3.18c-.11.01-.21.02-.32.01l-19.91-.65-3.53,3.34c1.3,1.49,3.14,1.35,5.61.97.7-.11,1.33-.2,1.92-.2Z"/>
      </g>
    </g>
  </g>
</svg>