<svg width="40" height="40" viewBox="0 0 40 40" fill="none" xmlns="http://www.w3.org/2000/svg">
<g id="click-collect 1">
<path id="Vector" d="M20.0001 4.60352C29.7251 4.60352 37.6215 12.4999 37.6215 22.2249V35.3464C37.6215 36.6071 36.5965 37.6321 35.3358 37.6321H4.66438C3.40366 37.6321 2.37866 36.6071 2.37866 35.3464V22.2249C2.37866 12.4999 10.2751 4.60352 20.0001 4.60352Z" fill="#C9E2DF"/>
<path id="Vector_2" d="M18.7143 21.7143C15.8107 18.1286 11.3786 15.8322 6.40357 15.8322C5.4 15.8322 4.42143 15.9286 3.46786 16.1072C2.76071 18.0143 2.375 20.075 2.375 22.225V35.3465C2.375 36.6108 3.4 37.6322 4.66071 37.6322H35.3321C36.5964 37.6322 37.6179 36.6072 37.6179 35.3465V22.225C37.6179 20.3786 37.3321 18.5965 36.8071 16.925C35.0143 16.2215 33.0643 15.8286 31.025 15.8286C26.05 15.8286 21.6143 18.125 18.7143 21.7108V21.7143Z" fill="#BAD6D2"/>
<g id="Group">
<path id="Vector_3" d="M28.8036 11.457L30.7072 31.4713H9.94287L11.6214 11.457H28.8036Z" fill="#DD7957"/>
<path id="Vector_4" d="M30.7071 32.1857H9.94277C9.74277 32.1857 9.55349 32.1035 9.41777 31.9535C9.28206 31.8071 9.2142 31.6107 9.23206 31.4107L10.9071 11.3964C10.9392 11.0249 11.2463 10.7428 11.6178 10.7428H28.7999C29.1678 10.7428 29.4749 11.0214 29.5106 11.3892L31.4142 31.4035C31.4321 31.6035 31.3678 31.8035 31.2321 31.9535C31.0963 32.1035 30.9035 32.1857 30.7035 32.1857H30.7071ZM10.7213 30.7571H29.9249L28.1571 12.1714H12.2785L10.7213 30.7571Z" fill="#004241"/>
</g>
<g id="Group_2">
<path id="Vector_5" d="M19.9964 24.5608H2.94995V34.3787H19.9964V24.5608Z" fill="#C9B58F"/>
<path id="Vector_6" d="M19.9963 35.0893H2.94988C2.55702 35.0893 2.2356 34.7679 2.2356 34.375V24.5572C2.2356 24.1643 2.55702 23.8429 2.94988 23.8429H19.9963C20.3892 23.8429 20.7106 24.1643 20.7106 24.5572V34.375C20.7106 34.7679 20.3892 35.0893 19.9963 35.0893ZM3.66417 33.6608H19.282V25.2715H3.66417V33.6608Z" fill="#004241"/>
</g>
<path id="Vector_7" d="M9.71783 28.3071H5.82854C5.43569 28.3071 5.11426 27.9857 5.11426 27.5928C5.11426 27.2 5.43569 26.8785 5.82854 26.8785H9.71783C10.1107 26.8785 10.4321 27.2 10.4321 27.5928C10.4321 27.9857 10.1107 28.3071 9.71783 28.3071Z" fill="#004241"/>
<path id="Vector_8" d="M7.77131 30.5107H5.82488C5.43202 30.5107 5.1106 30.1893 5.1106 29.7964C5.1106 29.4036 5.43202 29.0822 5.82488 29.0822H7.77131C8.16417 29.0822 8.4856 29.4036 8.4856 29.7964C8.4856 30.1893 8.16417 30.5107 7.77131 30.5107Z" fill="#004241"/>
<path id="Vector_9" d="M23.8536 14.3678C23.4607 14.3678 23.1393 14.0464 23.1393 13.6536V5.90356C23.1393 4.34999 21.875 3.08214 20.3179 3.08214C18.7607 3.08214 17.4964 4.34642 17.4964 5.90356V13.6536C17.4964 14.0464 17.175 14.3678 16.7822 14.3678C16.3893 14.3678 16.0679 14.0464 16.0679 13.6536V5.90356C16.0679 3.56071 17.975 1.65356 20.3179 1.65356C22.6607 1.65356 24.5679 3.56071 24.5679 5.90356V13.6536C24.5679 14.0464 24.2464 14.3678 23.8536 14.3678Z" fill="#004241"/>
<path id="Vector_10" d="M18.0499 14.8429H15.4999C15.1071 14.8429 14.7856 14.5214 14.7856 14.1286C14.7856 13.7357 15.1071 13.4143 15.4999 13.4143H18.0499C18.4428 13.4143 18.7642 13.7357 18.7642 14.1286C18.7642 14.5214 18.4428 14.8429 18.0499 14.8429Z" fill="#004241"/>
<path id="Vector_11" d="M25.1322 14.8429H22.5822C22.1893 14.8429 21.8679 14.5214 21.8679 14.1286C21.8679 13.7357 22.1893 13.4143 22.5822 13.4143H25.1322C25.5251 13.4143 25.8465 13.7357 25.8465 14.1286C25.8465 14.5214 25.5251 14.8429 25.1322 14.8429Z" fill="#004241"/>
<g id="Group_3" opacity="0.2">
<path id="Vector_12" d="M35.0072 30.8429L25.2894 24.1929C24.7179 23.8 23.9751 23.8 23.4001 24.1857C22.8251 24.575 22.5501 25.2607 22.7001 25.9393L25.2751 37.6322H28.7644L30.5787 34.7929C30.6144 34.7357 30.6715 34.6965 30.7358 34.6822L34.4179 33.8715C35.0822 33.725 35.5751 33.2179 35.7072 32.55C35.8358 31.8822 35.5679 31.2286 35.0072 30.8429Z" fill="#004241"/>
</g>
<g id="Group_4">
<path id="Vector_13" d="M25.2248 23.1499L27.8213 34.9392C28.007 35.7785 29.1141 35.9749 29.5784 35.2499L31.8034 31.7678C31.9427 31.5535 32.1605 31.3999 32.4105 31.3464L36.0927 30.5357C36.9177 30.3535 37.1284 29.2749 36.4284 28.7964L26.7105 22.1464C25.9891 21.6535 25.0355 22.2964 25.2213 23.1499H25.2248Z" fill="#F2E9D7"/>
<path id="Vector_14" d="M28.7677 36.4143C28.6713 36.4143 28.5713 36.4071 28.4713 36.3893C27.7999 36.2714 27.2713 35.7643 27.1249 35.0964L24.5285 23.3071C24.3785 22.6285 24.6535 21.9428 25.2285 21.5535C25.8035 21.1643 26.5463 21.1678 27.1177 21.5607L36.8356 28.2107C37.3963 28.5964 37.6642 29.25 37.5356 29.9178C37.407 30.5857 36.9142 31.0928 36.2463 31.2393L32.5642 32.05C32.4999 32.0643 32.4427 32.1035 32.407 32.1607L30.182 35.6428C29.8677 36.1321 29.3356 36.4178 28.7677 36.4178V36.4143ZM25.9213 22.9964L28.5177 34.7857C28.5499 34.9285 28.657 34.9678 28.7177 34.9785C28.7785 34.9893 28.8963 34.9893 28.9749 34.8678L31.1999 31.3857C31.4427 31.0071 31.8142 30.7464 32.2535 30.65L35.9356 29.8393C36.0749 29.8071 36.1177 29.7035 36.1285 29.6428C36.1392 29.5821 36.1427 29.4678 36.0249 29.3893L26.307 22.7393C26.1856 22.6571 26.0785 22.7035 26.0249 22.7393C25.9713 22.775 25.8892 22.8571 25.9213 23V22.9964Z" fill="#004241"/>
</g>
</g>
</svg>
