<svg width="40" height="40" viewBox="0 0 40 40" fill="none" xmlns="http://www.w3.org/2000/svg">
<path d="M27.0273 30.7568L27.3281 32.1855H20V30.7568H27.0273ZM28.7998 10.7432C29.1677 10.7432 29.475 11.0218 29.5107 11.3896L30.7803 24.7432C30.2971 24.4452 29.7713 24.1232 29.2646 23.8164L28.1572 12.1709H12.2783L11.2461 24.5H9.81055L10.9072 11.3965C10.9394 11.0251 11.2467 10.7432 11.6182 10.7432H28.7998Z" fill="#667085"/>
<path d="M19.9964 35.0893H2.95C2.55715 35.0893 2.23572 34.7678 2.23572 34.375V24.5571C2.23572 24.1643 2.55715 23.8428 2.95 23.8428H19.9964C20.3893 23.8428 20.7107 24.1643 20.7107 24.5571V34.375C20.7107 34.7678 20.3893 35.0893 19.9964 35.0893ZM3.66429 33.6607H19.2821V25.2714H3.66429V33.6607Z" fill="#667085"/>
<path d="M9.71783 28.3072H5.82854C5.43569 28.3072 5.11426 27.9857 5.11426 27.5929C5.11426 27.2 5.43569 26.8786 5.82854 26.8786H9.71783C10.1107 26.8786 10.4321 27.2 10.4321 27.5929C10.4321 27.9857 10.1107 28.3072 9.71783 28.3072Z" fill="#667085"/>
<path d="M7.77143 30.5107H5.825C5.43215 30.5107 5.11072 30.1893 5.11072 29.7964C5.11072 29.4036 5.43215 29.0822 5.825 29.0822H7.77143C8.16429 29.0822 8.48572 29.4036 8.48572 29.7964C8.48572 30.1893 8.16429 30.5107 7.77143 30.5107Z" fill="#667085"/>
<path d="M23.8536 14.3678C23.4607 14.3678 23.1393 14.0464 23.1393 13.6536V5.90356C23.1393 4.34999 21.875 3.08214 20.3179 3.08214C18.7607 3.08214 17.4964 4.34642 17.4964 5.90356V13.6536C17.4964 14.0464 17.175 14.3678 16.7822 14.3678C16.3893 14.3678 16.0679 14.0464 16.0679 13.6536V5.90356C16.0679 3.56071 17.975 1.65356 20.3179 1.65356C22.6607 1.65356 24.5679 3.56071 24.5679 5.90356V13.6536C24.5679 14.0464 24.2464 14.3678 23.8536 14.3678Z" fill="#667085"/>
<path d="M18.05 14.8429H15.5C15.1071 14.8429 14.7857 14.5214 14.7857 14.1286C14.7857 13.7357 15.1071 13.4143 15.5 13.4143H18.05C18.4428 13.4143 18.7643 13.7357 18.7643 14.1286C18.7643 14.5214 18.4428 14.8429 18.05 14.8429Z" fill="#667085"/>
<path d="M25.1321 14.8429H22.5821C22.1893 14.8429 21.8679 14.5214 21.8679 14.1286C21.8679 13.7357 22.1893 13.4143 22.5821 13.4143H25.1321C25.525 13.4143 25.8464 13.7357 25.8464 14.1286C25.8464 14.5214 25.525 14.8429 25.1321 14.8429Z" fill="#667085"/>
<path d="M28.7679 36.4143C28.6714 36.4143 28.5714 36.4071 28.4714 36.3893C27.8 36.2714 27.2714 35.7643 27.125 35.0964L24.5286 23.3071C24.3786 22.6285 24.6536 21.9428 25.2286 21.5535C25.8036 21.1643 26.5464 21.1678 27.1179 21.5607L36.8357 28.2107C37.3964 28.5964 37.6643 29.25 37.5357 29.9178C37.4071 30.5857 36.9143 31.0928 36.2464 31.2393L32.5643 32.05C32.5 32.0643 32.4429 32.1035 32.4072 32.1607L30.1822 35.6428C29.8679 36.1321 29.3357 36.4178 28.7679 36.4178V36.4143ZM25.9214 22.9964L28.5179 34.7857C28.55 34.9285 28.6572 34.9678 28.7179 34.9785C28.7786 34.9893 28.8964 34.9893 28.975 34.8678L31.2 31.3857C31.4429 31.0071 31.8143 30.7464 32.2536 30.65L35.9357 29.8393C36.075 29.8071 36.1179 29.7035 36.1286 29.6428C36.1393 29.5821 36.1429 29.4678 36.025 29.3893L26.3072 22.7393C26.1857 22.6571 26.0786 22.7035 26.025 22.7393C25.9714 22.775 25.8893 22.8571 25.9214 23V22.9964Z" fill="#667085"/>
</svg>
