<?xml version="1.0" encoding="UTF-8"?>
<svg id="outline_icons" xmlns="http://www.w3.org/2000/svg" viewBox="0 0 112 112">
  <defs>
    <style>
      .cls-1 {
        fill: none;
      }

      .cls-2 {
        fill: #3e5f9b;
      }

      .cls-3 {
        fill: #b6b8bf;
      }

      .cls-4 {
        fill: #d2d9db;
      }

      .cls-5 {
        fill: #ef706b;
      }

      .cls-6 {
        fill: #ced0d6;
      }

      .cls-7 {
        fill: #004241;
      }

      .cls-8 {
        fill: #eee;
      }
    </style>
  </defs>
  <g>
    <g>
      <rect class="cls-8" x="72.05" y="7.81" width="36.32" height="32.19" rx="4.9" ry="4.9"/>
      <path class="cls-7" d="M91.75,33.7c-1.1,0-2-.9-2-2v-7.76l-3.82,2.9c-.88.67-2.14.49-2.8-.39-.67-.88-.49-2.13.39-2.8l7.03-5.33c.61-.46,1.42-.53,2.1-.2.68.34,1.11,1.03,1.11,1.79v11.78c0,1.1-.9,2-2,2Z"/>
      <path class="cls-7" d="M81.42,13.06c-1.1,0-2-.9-2-2v-6.51c0-1.1.9-2,2-2s2,.9,2,2v6.51c0,1.1-.9,2-2,2Z"/>
      <path class="cls-7" d="M99.05,13.06c-1.1,0-2-.9-2-2v-6.51c0-1.1.9-2,2-2s2,.9,2,2v6.51c0,1.1-.9,2-2,2Z"/>
      <path class="cls-2" d="M84.2,7.81h-7.24c-2.71,0-4.9,2.19-4.9,4.9v2.35h12.14v-7.25Z"/>
      <path class="cls-5" d="M103.47,7.81h-7.24v7.25h12.14v-2.35c0-2.71-2.19-4.9-4.9-4.9Z"/>
      <rect class="cls-4" x="84.2" y="8.92" width="12.03" height="6.14"/>
      <path class="cls-7" d="M103.47,41.99h-26.52c-3.8,0-6.9-3.1-6.9-6.9V12.71c0-3.8,3.1-6.9,6.9-6.9h26.52c3.81,0,6.9,3.1,6.9,6.9v22.38c0,3.8-3.1,6.9-6.9,6.9ZM76.96,9.81c-1.6,0-2.9,1.3-2.9,2.9v22.38c0,1.6,1.3,2.9,2.9,2.9h26.52c1.6,0,2.9-1.3,2.9-2.9V12.71c0-1.6-1.3-2.9-2.9-2.9h-26.52Z"/>
    </g>
    <g>
      <g>
        <path class="cls-3" d="M7.95,45.8h41.16c2.38,0,4.32,1.94,4.32,4.32v51.67c0,3.12-2.53,5.65-5.65,5.65H9.28c-3.12,0-5.65-2.53-5.65-5.65v-51.67c0-2.38,1.94-4.32,4.32-4.32Z" transform="translate(57.06 153.25) rotate(180)"/>
        <path class="cls-7" d="M49.11,109.45H7.95c-3.49,0-6.32-2.83-6.32-6.32v-51.67c0-4.22,3.43-7.65,7.65-7.65h38.5c4.22,0,7.65,3.43,7.65,7.65v51.67c0,3.49-2.84,6.32-6.32,6.32ZM9.28,47.8c-2.01,0-3.65,1.64-3.65,3.65v51.67c0,1.28,1.04,2.32,2.32,2.32h41.16c1.28,0,2.32-1.04,2.32-2.32v-51.67c0-2.01-1.64-3.65-3.65-3.65H9.28Z"/>
      </g>
      <g>
        <path class="cls-6" d="M22.63,45.8h26.48c2.38,0,4.32,1.94,4.32,4.32v51.67c0,3.12-2.53,5.65-5.65,5.65h-23.82c-3.12,0-5.65-2.53-5.65-5.65v-51.67c0-2.38,1.94-4.32,4.32-4.32Z" transform="translate(71.74 153.25) rotate(180)"/>
        <path class="cls-7" d="M49.11,109.45h-26.48c-3.49,0-6.32-2.83-6.32-6.32v-51.67c0-4.22,3.43-7.65,7.65-7.65h23.82c4.22,0,7.65,3.43,7.65,7.65v51.67c0,3.49-2.84,6.32-6.32,6.32ZM23.96,47.8c-2.01,0-3.65,1.64-3.65,3.65v51.67c0,1.28,1.04,2.32,2.32,2.32h26.48c1.28,0,2.32-1.04,2.32-2.32v-51.67c0-2.01-1.64-3.65-3.65-3.65h-23.82Z"/>
      </g>
      <path class="cls-7" d="M43.7,66.67h-13.81c-1.1,0-2-.9-2-2s.9-2,2-2h13.81c1.1,0,2,.9,2,2s-.9,2-2,2Z"/>
      <path class="cls-7" d="M43.7,75.9h-13.81c-1.1,0-2-.9-2-2s.9-2,2-2h13.81c1.1,0,2,.9,2,2s-.9,2-2,2Z"/>
      <path class="cls-7" d="M43.7,86.24h-13.81c-1.1,0-2-.9-2-2s.9-2,2-2h13.81c1.1,0,2,.9,2,2s-.9,2-2,2Z"/>
      <path class="cls-7" d="M102.11,76.94h-40.01c-1.1,0-2-.9-2-2s.9-2,2-2h40.01c1.1,0,2,.9,2,2s-.9,2-2,2Z"/>
      <path class="cls-7" d="M87.7,67.15h-25.6c-1.1,0-2-.9-2-2s.9-2,2-2h25.6c2.56,0,4.64-2.08,4.64-4.64,0-1.8-1.46-3.26-3.26-3.26-1.05,0-2.01.49-2.63,1.34-.65.89-1.9,1.09-2.79.44-.89-.65-1.09-1.9-.44-2.79,1.36-1.87,3.55-2.98,5.86-2.98,4,0,7.26,3.26,7.26,7.26,0,4.76-3.88,8.64-8.64,8.64Z"/>
      <path class="cls-7" d="M89.08,98.62c-2.8,0-5.3-1.56-6.53-4.08-.48-.99-.07-2.19.92-2.67.99-.49,2.19-.07,2.67.92.55,1.13,1.67,1.83,2.93,1.83,1.8,0,3.26-1.46,3.26-3.26,0-2.56-2.08-4.64-4.64-4.64h-25.6c-1.1,0-2-.9-2-2s.9-2,2-2h25.6c4.76,0,8.64,3.88,8.64,8.64,0,4-3.26,7.26-7.26,7.26Z"/>
      <g>
        <polyline class="cls-6" points="43.7 97.76 43.7 97.79 43.07 97.79"/>
        <path class="cls-7" d="M43.7,99.79h-.63c-1.1,0-2-.9-2-2s.9-2,2-2h.38c.08-.01.16-.02.25-.02,1.1,0,2,.88,2,1.98v.03c0,1.1-.9,2-2,2Z"/>
      </g>
    </g>
  </g>
  <rect class="cls-1" width="112" height="112"/>
</svg>