<?xml version="1.0" encoding="UTF-8"?>
<svg id="outline_icons" xmlns="http://www.w3.org/2000/svg" viewBox="0 0 112 112">
  <defs>
    <style>
      .cls-1 {
        fill: none;
      }

      .cls-2 {
        fill: #7abcab;
      }

      .cls-3 {
        fill: #9fdecf;
      }

      .cls-4 {
        fill: #fff;
      }

      .cls-5 {
        fill: #d3e7ee;
      }

      .cls-6 {
        fill: #004241;
      }
    </style>
  </defs>
  <g id="voiture">
    <g id="area">
      <rect class="cls-1" width="112" height="112"/>
    </g>
    <g id="car">
      <path class="cls-4" d="M110,63.92c0-2.18-1.43-4.11-3.52-4.74l-18.29-5.51-12.51-22.31c-2.24-4.51-6.83-7.36-11.86-7.36h-30.74c-5.31,0-10.11,3.17-12.19,8.06l-2.06,4.27-5.29,10.96-3.08,6.38h0c-5.29,3.58-8.46,9.55-8.46,15.94v16.96h11.55s0,0,0,0c0,.06,0,.13,0,.19,0,6.59,5.34,11.93,11.93,11.93s11.93-5.34,11.93-11.93c0-.06,0-.12,0-.19h36.05s0,0,0,0c0,.06,0,.13,0,.19,0,6.59,5.34,11.93,11.93,11.93s11.93-5.34,11.93-11.93c0-.06,0-.12,0-.19h12.72v-22.65Z"/>
      <path class="cls-5" d="M76.63,33.07h-42.48s-4.53-.6-8.68,8.47c-1.94,4.23-4.06,8.62-5.8,12.13h68.51l-11.55-20.6Z"/>
      <path class="cls-6" d="M10.46,55.67c-.29,0-.59-.06-.87-.2-1-.48-1.41-1.68-.93-2.67l10.42-21.61c2.36-5.55,7.86-9.19,13.99-9.19h30.74c5.81,0,11.03,3.23,13.63,8.42l12.49,22.27c.54.96.2,2.18-.77,2.72-.96.54-2.18.2-2.72-.77l-12.51-22.31s-.03-.06-.05-.09c-1.91-3.85-5.77-6.25-10.07-6.25h-30.74c-4.52,0-8.58,2.69-10.35,6.84l-10.46,21.69c-.34.71-1.06,1.13-1.8,1.13Z"/>
      <path class="cls-6" d="M41.25,55.67c-1.1,0-2-.9-2-2v-29.06c0-1.1.9-2,2-2s2,.9,2,2v29.06c0,1.1-.9,2-2,2Z"/>
      <path class="cls-6" d="M25.47,100.68c-7.68,0-13.93-6.25-13.93-13.93s6.25-13.93,13.93-13.93,13.93,6.25,13.93,13.93-6.25,13.93-13.93,13.93ZM25.47,76.82c-5.47,0-9.93,4.45-9.93,9.93s4.45,9.93,9.93,9.93,9.93-4.45,9.93-9.93-4.45-9.93-9.93-9.93Z"/>
      <path class="cls-3" d="M101.44,64.85c-.28-1.93.22-4.55.88-6.92l-14.14-4.26h-32.19l-3.36,13.35c-.38,1.52.58,3.06,2.12,3.36l2.63.53c1.59.32,2.56,1.94,2.09,3.49l-3.7,12.16h17.67c.1-6.5,5.39-11.74,11.92-11.74s11.82,5.24,11.92,11.74h12.72v-16.41c-4.15-1.29-8.24-3.1-8.56-5.3Z"/>
      <path class="cls-6" d="M85.36,100.68c-7.68,0-13.93-6.25-13.93-13.93s6.25-13.93,13.93-13.93,13.93,6.25,13.93,13.93-6.25,13.93-13.93,13.93ZM85.36,76.82c-5.47,0-9.93,4.45-9.93,9.93s4.45,9.93,9.93,9.93,9.93-4.45,9.93-9.93-4.45-9.93-9.93-9.93Z"/>
      <g>
        <path class="cls-2" d="M57.38,70.91l-2.63-.53c-1.54-.31-2.51-1.84-2.12-3.36l3.36-13.35H10.46c-5.29,3.58-8.46,9.55-8.46,15.94v16.96h11.55c.1-6.5,5.39-11.74,11.92-11.74s11.82,5.24,11.92,11.74h18.38l3.7-12.16c.47-1.55-.5-3.17-2.09-3.49Z"/>
        <path class="cls-6" d="M55.77,88.56h-18.38c-1.09,0-1.98-.88-2-1.97-.08-5.39-4.53-9.77-9.92-9.77s-9.83,4.38-9.92,9.77c-.02,1.09-.91,1.97-2,1.97H2C.9,88.56,0,87.67,0,86.56v-16.96C0,62.55,3.49,55.97,9.34,52.01c.33-.22.72-.34,1.12-.34h45.53c.62,0,1.2.28,1.58.77s.51,1.12.36,1.72l-3.36,13.35c-.07.27.03.48.09.58.06.1.21.28.49.33l2.62.53c1.31.26,2.45,1.07,3.14,2.22.69,1.15.86,2.54.47,3.82l-3.7,12.16c-.26.84-1.03,1.42-1.91,1.42ZM39.22,84.56h15.07l3.27-10.74c.08-.27-.01-.49-.07-.6-.06-.11-.21-.29-.49-.35h0l-2.63-.53c-1.27-.26-2.39-1.03-3.08-2.12-.69-1.09-.9-2.44-.59-3.69l2.74-10.87H11.1c-4.45,3.24-7.1,8.41-7.1,13.94v14.96h7.72c1.06-6.63,6.86-11.74,13.75-11.74s12.69,5.11,13.75,11.74Z"/>
      </g>
      <path class="cls-6" d="M110,88.56h-12.72c-1.09,0-1.98-.88-2-1.97-.08-5.39-4.53-9.77-9.92-9.77s-9.83,4.38-9.92,9.77c-.02,1.09-.91,1.97-2,1.97h-36.05c-1.09,0-1.98-.88-2-1.97-.08-5.39-4.53-9.77-9.92-9.77s-9.83,4.38-9.92,9.77c-.02,1.09-.91,1.97-2,1.97H2C.9,88.56,0,87.67,0,86.56v-16.96C0,62.55,3.49,55.97,9.34,52.01c.33-.22.72-.34,1.12-.34h77.72c.2,0,.39.03.58.08l18.29,5.51c2.96.89,4.94,3.56,4.94,6.65v22.65c0,1.1-.9,2-2,2ZM99.11,84.56h8.89v-20.65c0-1.31-.84-2.44-2.1-2.82l-18.01-5.43H11.1c-4.45,3.24-7.1,8.41-7.1,13.94v14.96h7.72c1.06-6.63,6.86-11.74,13.75-11.74s12.69,5.11,13.75,11.74h32.4c1.06-6.63,6.86-11.74,13.75-11.74s12.69,5.11,13.75,11.74Z"/>
      <path class="cls-6" d="M85.36,93.03c-3.46,0-6.27-2.81-6.27-6.27s2.81-6.27,6.27-6.27,6.27,2.81,6.27,6.27-2.81,6.27-6.27,6.27ZM85.36,84.48c-1.25,0-2.27,1.02-2.27,2.27s1.02,2.27,2.27,2.27,2.27-1.02,2.27-2.27-1.02-2.27-2.27-2.27Z"/>
      <path class="cls-6" d="M25.47,93.03c-3.46,0-6.27-2.81-6.27-6.27s2.81-6.27,6.27-6.27,6.27,2.81,6.27,6.27c0,1.1-.9,2-2,2s-2-.9-2-2c0-1.25-1.02-2.27-2.27-2.27s-2.27,1.02-2.27,2.27,1.02,2.27,2.27,2.27c1.1,0,2,.9,2,2s-.9,2-2,2Z"/>
    </g>
    <path class="cls-6" d="M63.25,47.82c-1.1,0-2-.9-2-2s.9-2,2-2c1.9,0,3.44-1.54,3.44-3.44s-1.54-3.44-3.44-3.44-3.44,1.54-3.44,3.44c0,1.1-.9,2-2,2s-2-.9-2-2c0-4.1,3.34-7.44,7.44-7.44s7.44,3.34,7.44,7.44-3.34,7.44-7.44,7.44Z"/>
    <path class="cls-6" d="M34.38,47.82c-4.1,0-7.44-3.34-7.44-7.44s3.34-7.44,7.44-7.44c1.1,0,2,.9,2,2s-.9,2-2,2c-1.89,0-3.44,1.54-3.44,3.44s1.54,3.44,3.44,3.44c1.1,0,2,.9,2,2s-.9,2-2,2Z"/>
  </g>
</svg>