<?xml version="1.0" encoding="UTF-8"?>
<svg id="outline_icons" xmlns="http://www.w3.org/2000/svg" viewBox="0 0 112 112">
  <defs>
    <style>
      .cls-1 {
        fill: none;
      }

      .cls-2 {
        fill: #727889;
      }

      .cls-3 {
        fill: #3e5f9b;
      }

      .cls-4 {
        fill: #d2d9db;
      }

      .cls-5 {
        fill: #ef706b;
      }

      .cls-6 {
        fill: #ced0d6;
      }

      .cls-7 {
        fill: #004241;
      }

      .cls-8 {
        fill: #88db58;
      }

      .cls-9 {
        fill: #eee;
      }
    </style>
  </defs>
  <g>
    <g>
      <g>
        <rect class="cls-6" x="5.01" y="70.49" width="26.13" height="12.09" rx="2.91" ry="2.91"/>
        <path class="cls-7" d="M28.23,84.57H7.92c-2.71,0-4.91-2.2-4.91-4.91v-6.26c0-2.71,2.2-4.91,4.91-4.91h20.3c2.71,0,4.91,2.2,4.91,4.91v6.26c0,2.71-2.2,4.91-4.91,4.91ZM7.92,72.49c-.5,0-.91.41-.91.91v6.26c0,.5.41.91.91.91h20.3c.5,0,.91-.41.91-.91v-6.26c0-.5-.41-.91-.91-.91H7.92Z"/>
      </g>
      <g>
        <rect class="cls-6" x="5.01" y="82.7" width="26.13" height="12.09" rx="2.91" ry="2.91"/>
        <path class="cls-7" d="M28.23,96.79H7.92c-2.71,0-4.91-2.2-4.91-4.91v-6.26c0-2.71,2.2-4.91,4.91-4.91h20.3c2.71,0,4.91,2.2,4.91,4.91v6.26c0,2.71-2.2,4.91-4.91,4.91ZM7.92,84.7c-.5,0-.91.41-.91.91v6.26c0,.5.41.91.91.91h20.3c.5,0,.91-.41.91-.91v-6.26c0-.5-.41-.91-.91-.91H7.92Z"/>
      </g>
      <g>
        <rect class="cls-6" x="5.01" y="95.91" width="26.13" height="12.09" rx="2.91" ry="2.91"/>
        <path class="cls-7" d="M28.23,110H7.92c-2.71,0-4.91-2.2-4.91-4.91v-6.26c0-2.71,2.2-4.91,4.91-4.91h20.3c2.71,0,4.91,2.2,4.91,4.91v6.26c0,2.71-2.2,4.91-4.91,4.91ZM7.92,97.91c-.5,0-.91.41-.91.91v6.26c0,.5.41.91.91.91h20.3c.5,0,.91-.41.91-.91v-6.26c0-.5-.41-.91-.91-.91H7.92Z"/>
      </g>
    </g>
    <g>
      <g>
        <rect class="cls-6" x="80.86" y="70.49" width="26.13" height="12.09" rx="2.91" ry="2.91"/>
        <path class="cls-7" d="M104.08,84.57h-20.3c-2.71,0-4.91-2.2-4.91-4.91v-6.26c0-2.71,2.2-4.91,4.91-4.91h20.3c2.71,0,4.91,2.2,4.91,4.91v6.26c0,2.71-2.2,4.91-4.91,4.91ZM83.77,72.49c-.5,0-.91.41-.91.91v6.26c0,.5.41.91.91.91h20.3c.5,0,.91-.41.91-.91v-6.26c0-.5-.41-.91-.91-.91h-20.3Z"/>
      </g>
      <g>
        <rect class="cls-6" x="80.86" y="82.7" width="26.13" height="12.09" rx="2.91" ry="2.91"/>
        <path class="cls-7" d="M104.08,96.79h-20.3c-2.71,0-4.91-2.2-4.91-4.91v-6.26c0-2.71,2.2-4.91,4.91-4.91h20.3c2.71,0,4.91,2.2,4.91,4.91v6.26c0,2.71-2.2,4.91-4.91,4.91ZM83.77,84.7c-.5,0-.91.41-.91.91v6.26c0,.5.41.91.91.91h20.3c.5,0,.91-.41.91-.91v-6.26c0-.5-.41-.91-.91-.91h-20.3Z"/>
      </g>
      <g>
        <rect class="cls-6" x="80.86" y="95.91" width="26.13" height="12.09" rx="2.91" ry="2.91"/>
        <path class="cls-7" d="M104.08,110h-20.3c-2.71,0-4.91-2.2-4.91-4.91v-6.26c0-2.71,2.2-4.91,4.91-4.91h20.3c2.71,0,4.91,2.2,4.91,4.91v6.26c0,2.71-2.2,4.91-4.91,4.91ZM83.77,97.91c-.5,0-.91.41-.91.91v6.26c0,.5.41.91.91.91h20.3c.5,0,.91-.41.91-.91v-6.26c0-.5-.41-.91-.91-.91h-20.3Z"/>
      </g>
    </g>
    <g>
      <g>
        <rect class="cls-6" x="80.86" y="7.41" width="26.13" height="12.09" rx="2.91" ry="2.91"/>
        <path class="cls-7" d="M104.08,21.49h-20.3c-2.71,0-4.91-2.2-4.91-4.91v-6.26c0-2.71,2.2-4.91,4.91-4.91h20.3c2.71,0,4.91,2.2,4.91,4.91v6.26c0,2.71-2.2,4.91-4.91,4.91ZM83.77,9.41c-.5,0-.91.41-.91.91v6.26c0,.5.41.91.91.91h20.3c.5,0,.91-.41.91-.91v-6.26c0-.5-.41-.91-.91-.91h-20.3Z"/>
      </g>
      <g>
        <rect class="cls-6" x="80.86" y="19.63" width="26.13" height="12.09" rx="2.91" ry="2.91"/>
        <path class="cls-7" d="M104.08,33.71h-20.3c-2.71,0-4.91-2.2-4.91-4.91v-6.26c0-2.71,2.2-4.91,4.91-4.91h20.3c2.71,0,4.91,2.2,4.91,4.91v6.26c0,2.71-2.2,4.91-4.91,4.91ZM83.77,21.63c-.5,0-.91.41-.91.91v6.26c0,.5.41.91.91.91h20.3c.5,0,.91-.41.91-.91v-6.26c0-.5-.41-.91-.91-.91h-20.3Z"/>
      </g>
      <g>
        <rect class="cls-6" x="80.86" y="32.83" width="26.13" height="12.09" rx="2.91" ry="2.91"/>
        <path class="cls-7" d="M104.08,46.92h-20.3c-2.71,0-4.91-2.2-4.91-4.91v-6.26c0-2.71,2.2-4.91,4.91-4.91h20.3c2.71,0,4.91,2.2,4.91,4.91v6.26c0,2.71-2.2,4.91-4.91,4.91ZM83.77,34.83c-.5,0-.91.41-.91.91v6.26c0,.5.41.91.91.91h20.3c.5,0,.91-.41.91-.91v-6.26c0-.5-.41-.91-.91-.91h-20.3Z"/>
      </g>
    </g>
    <g>
      <rect class="cls-2" x="47.85" y="53.85" width="22.03" height="31.22" rx="2.91" ry="2.91"/>
      <path class="cls-7" d="M66.96,87.07h-16.2c-2.71,0-4.91-2.2-4.91-4.91v-25.39c0-2.71,2.2-4.91,4.91-4.91h16.2c2.71,0,4.91,2.2,4.91,4.91v25.39c0,2.71-2.2,4.91-4.91,4.91ZM50.76,55.85c-.5,0-.91.41-.91.91v25.39c0,.5.41.91.91.91h16.2c.5,0,.91-.41.91-.91v-25.39c0-.5-.41-.91-.91-.91h-16.2Z"/>
    </g>
    <g>
      <rect class="cls-9" x="5.01" y="7.26" width="36.32" height="32.19" rx="4.9" ry="4.9"/>
      <path class="cls-7" d="M24.71,33.15c-1.1,0-2-.9-2-2v-7.76l-3.82,2.9c-.88.67-2.13.49-2.8-.39-.67-.88-.49-2.13.39-2.8l7.03-5.33c.61-.46,1.42-.53,2.1-.2.68.34,1.11,1.03,1.11,1.79v11.78c0,1.1-.9,2-2,2Z"/>
      <path class="cls-7" d="M14.38,12.51c-1.1,0-2-.9-2-2v-6.51c0-1.1.9-2,2-2s2,.9,2,2v6.51c0,1.1-.9,2-2,2Z"/>
      <path class="cls-7" d="M32,12.51c-1.1,0-2-.9-2-2v-6.51c0-1.1.9-2,2-2s2,.9,2,2v6.51c0,1.1-.9,2-2,2Z"/>
      <path class="cls-3" d="M17.15,7.26h-7.24c-2.71,0-4.9,2.19-4.9,4.9v2.35h12.14v-7.25Z"/>
      <path class="cls-5" d="M36.43,7.26h-7.24v7.25h12.14v-2.35c0-2.71-2.19-4.9-4.9-4.9Z"/>
      <rect class="cls-4" x="17.15" y="8.37" width="12.03" height="6.14"/>
      <path class="cls-7" d="M36.43,41.44H9.91c-3.8,0-6.9-3.1-6.9-6.9V12.16c0-3.8,3.1-6.9,6.9-6.9h26.52c3.81,0,6.9,3.1,6.9,6.9v22.38c0,3.8-3.1,6.9-6.9,6.9ZM9.91,9.26c-1.6,0-2.9,1.3-2.9,2.9v22.38c0,1.6,1.3,2.9,2.9,2.9h26.52c1.6,0,2.9-1.3,2.9-2.9V12.16c0-1.6-1.3-2.9-2.9-2.9H9.91Z"/>
    </g>
    <g>
      <path class="cls-7" d="M18.07,69.78c-1.1,0-2-.9-2-2v-2c0-1.1.9-2,2-2s2,.9,2,2v2c0,1.1-.9,2-2,2Z"/>
      <path class="cls-7" d="M18.07,61.9c-1.1,0-2-.9-2-2v-2c0-1.1.9-2,2-2h2c1.1,0,2,.9,2,2s-.9,2-2,2c0,1.1-.9,2-2,2Z"/>
      <path class="cls-7" d="M39.4,59.9h-3.22c-1.1,0-2-.9-2-2s.9-2,2-2h3.22c1.1,0,2,.9,2,2s-.9,2-2,2ZM29.74,59.9h-3.22c-1.1,0-2-.9-2-2s.9-2,2-2h3.22c1.1,0,2,.9,2,2s-.9,2-2,2Z"/>
      <path class="cls-7" d="M47.85,59.9h-2c-1.1,0-2-.9-2-2s.9-2,2-2h2c1.1,0,2,.9,2,2s-.9,2-2,2Z"/>
    </g>
    <path class="cls-7" d="M58.79,55.85c-1.1,0-2-.9-2-2v-4c0-1.1.9-2,2-2s2,.9,2,2v4c0,1.1-.9,2-2,2ZM58.79,43.85c-1.1,0-2-.9-2-2v-4c0-1.1.9-2,2-2s2,.9,2,2v4c0,1.1-.9,2-2,2ZM58.79,31.85c-1.1,0-2-.9-2-2v-3.68c0-1.1.9-2,2-2h.32c1.1,0,2,.9,2,2,0,.4-.12.77-.32,1.08v2.6c0,1.1-.9,2-2,2ZM71.1,28.16h-4c-1.1,0-2-.9-2-2s.9-2,2-2h4c1.1,0,2,.9,2,2s-.9,2-2,2Z"/>
    <path class="cls-7" d="M69.97,103.96h-4c-1.1,0-2-.9-2-2s.9-2,2-2h4c1.1,0,2,.9,2,2s-.9,2-2,2ZM58.86,103.07c-1.1,0-2-.9-2-2v-4c0-1.1.9-2,2-2s2,.9,2,2v4c0,1.1-.9,2-2,2ZM58.86,91.07c-1.1,0-2-.9-2-2v-4c0-1.1.9-2,2-2s2,.9,2,2v4c0,1.1-.9,2-2,2Z"/>
    <circle class="cls-8" cx="58.99" cy="63.1" r="3.93"/>
    <path class="cls-7" d="M63.49,74.35h-8.99c-1.1,0-2-.9-2-2s.9-2,2-2h8.99c1.1,0,2,.9,2,2s-.9,2-2,2Z"/>
    <path class="cls-7" d="M57.31,80.26h-2.81c-1.1,0-2-.9-2-2s.9-2,2-2h2.81c1.1,0,2,.9,2,2s-.9,2-2,2Z"/>
  </g>
  <rect id="area" class="cls-1" width="112" height="112"/>
</svg>