<?xml version="1.0" encoding="UTF-8"?>
<svg id="outline_icons" xmlns="http://www.w3.org/2000/svg" viewBox="0 0 112 112">
  <defs>
    <style>
      .cls-1 {
        fill: none;
      }

      .cls-2 {
        fill: #af8977;
      }

      .cls-3 {
        fill: #90bac4;
      }

      .cls-4 {
        fill: #528e5f;
      }

      .cls-5 {
        fill: #bddce5;
      }

      .cls-6 {
        fill: #3e5f9b;
      }

      .cls-7 {
        fill: #84af7e;
      }

      .cls-8 {
        fill: #d2d9db;
      }

      .cls-9 {
        fill: #94c18a;
      }

      .cls-10 {
        fill: #ef706b;
      }

      .cls-11 {
        fill: #004241;
      }

      .cls-12 {
        fill: #eee;
      }
    </style>
  </defs>
  <g>
    <path class="cls-5" d="M50.98,1.74h8.25c24.62,0,44.61,19.99,44.61,44.61v56.93c0,2.68-2.17,4.85-4.85,4.85H11.22c-2.68,0-4.85-2.17-4.85-4.85v-56.93C6.37,21.74,26.36,1.74,50.98,1.74Z"/>
    <path class="cls-3" d="M48.03,20.06c-.53,0-1.04-.21-1.42-.59l-4.74-4.76c-.78-.78-.78-2.05,0-2.83s2.05-.78,2.83,0l3.32,3.33,5.29-5.31c.78-.78,2.04-.79,2.83,0,.78.78.78,2.05,0,2.83l-6.7,6.73c-.38.38-.89.59-1.42.59Z"/>
    <g>
      <path class="cls-7" d="M53.25,45.89c-.03-.4-.06-.79-.06-1.2,0-10.59,9.92-19.18,20.91-19.18,8.88,0,16.39,5.6,18.95,13.34.89,2.67,2.86,4.84,5.49,6.06,7.16,3.32,11.95,10.64,11.22,18.96-.78,8.95-8.19,16.31-17.46,17.38-1.86.21-3.67.17-5.41-.09-3.6-.54-7.21.32-10.16,2.37-4.03,2.8-9.06,4.36-14.48,4.08-11.03-.58-20.21-8.99-21.3-19.58-1.01-9.81,3.74-18.44,12.3-22.14Z"/>
      <path class="cls-11" d="M63.53,89.63c-.46,0-.92-.01-1.38-.04-12.03-.63-22-9.81-23.18-21.37-1.04-10.18,3.72-19.28,12.22-23.58.03-11.46,10.51-21.13,22.91-21.13,9.55,0,17.93,5.91,20.85,14.71.71,2.15,2.29,3.88,4.43,4.87,8.29,3.84,13.15,12.06,12.37,20.94-.87,9.94-8.95,18.01-19.22,19.19-1.99.23-3.99.2-5.94-.1-3.07-.46-6.17.26-8.72,2.04-4.23,2.94-9.16,4.47-14.35,4.47ZM74.1,27.51c-10.25,0-18.91,7.87-18.91,17.18,0,.26.02.51.04.77l.02.3c.05.84-.43,1.63-1.2,1.96-7.77,3.36-12.03,11.06-11.1,20.1.99,9.61,9.33,17.26,19.41,17.78,4.8.25,9.37-1.04,13.24-3.72,3.4-2.36,7.52-3.32,11.6-2.71,1.6.24,3.25.27,4.88.08,8.39-.97,14.99-7.51,15.69-15.57.63-7.18-3.32-13.84-10.07-16.97-3.16-1.46-5.48-4.03-6.54-7.24-2.37-7.16-9.22-11.96-17.05-11.96Z"/>
    </g>
    <g>
      <polyline class="cls-2" points="41.84 89.27 41.84 101.17 50.44 101.17 50.44 89.27"/>
      <path class="cls-11" d="M50.44,103.16h-8.6c-1.1,0-2-.9-2-2v-11.89c0-1.1.9-2,2-2s2,.9,2,2v9.89h4.6v-9.89c0-1.1.9-2,2-2s2,.9,2,2v11.89c0,1.1-.9,2-2,2Z"/>
    </g>
    <g>
      <polyline class="cls-2" points="22.36 82.41 22.36 104.17 28.9 103.17 28.9 82.41"/>
      <path class="cls-11" d="M22.36,106.16c-.47,0-.94-.17-1.3-.48-.44-.38-.7-.93-.7-1.52v-21.76c0-1.1.9-2,2-2s2,.9,2,2v19.43l2.54-.39v-19.04c0-1.1.9-2,2-2s2,.9,2,2v20.76c0,.99-.72,1.83-1.7,1.98l-6.54,1c-.1.02-.2.02-.3.02Z"/>
    </g>
    <g>
      <path class="cls-4" d="M2.59,49.5c.5-8.43,6.97-15.17,15.31-16.76,1.78-.34,3.37-1.23,4.47-2.59,2.56-3.17,6.89-4.95,11.51-4.08,4.97.94,8.81,4.94,9.31,9.71.23,2.17-.2,4.21-1.12,5.97-1.02,1.96-1.51,4.15-1.17,6.32.19,1.21.25,2.45.18,3.72-.11,1.86-.51,3.64-1.16,5.3-1.08,2.76-.89,5.82.69,8.38,1.8,2.91,2.69,6.37,2.33,10-.83,8.47-8.51,15.06-17.51,15-10.19-.07-18.15-8.21-17.58-17.72.17-2.77,1.05-5.33,2.45-7.55-4.99-3.57-8.08-9.36-7.71-15.7Z"/>
      <path class="cls-11" d="M25.56,92.47h-.14c-5.57-.04-10.89-2.33-14.6-6.29-3.5-3.74-5.27-8.55-4.97-13.54.14-2.39.78-4.75,1.86-6.91C2.86,61.59.23,55.61.6,49.38h0c.55-9.16,7.51-16.8,16.93-18.6,1.35-.26,2.52-.92,3.29-1.88,3.16-3.92,8.31-5.76,13.44-4.79,5.84,1.1,10.33,5.82,10.93,11.47.26,2.47-.2,4.92-1.33,7.1-.88,1.71-1.22,3.46-.97,5.09.21,1.36.28,2.76.2,4.14-.12,2.03-.56,4.02-1.3,5.91-.88,2.23-.68,4.64.53,6.6,2.1,3.41,3.01,7.3,2.62,11.24-.93,9.45-9.42,16.8-19.37,16.8ZM31.55,27.86c-2.98,0-5.78,1.28-7.62,3.55-1.36,1.69-3.37,2.86-5.65,3.3-7.62,1.45-13.25,7.58-13.69,14.91h0c-.32,5.43,2.25,10.64,6.87,13.96.86.62,1.09,1.8.53,2.69-1.28,2.03-2,4.25-2.14,6.6-.23,3.88,1.15,7.64,3.9,10.57,2.96,3.16,7.22,4.99,11.7,5.02,7.92.03,14.77-5.74,15.5-13.19.3-3.07-.4-6.09-2.04-8.75-1.88-3.04-2.18-6.74-.85-10.16.59-1.5.93-3.08,1.03-4.69.07-1.1.01-2.21-.16-3.29-.38-2.47.09-5.08,1.37-7.55.77-1.48,1.08-3.15.9-4.84-.41-3.91-3.57-7.18-7.69-7.96-.66-.12-1.32-.18-1.97-.18ZM2.59,49.5h0,0Z"/>
    </g>
    <g>
      <path class="cls-2" d="M82.46,77.62v4.78l10.11-2-1.49,2.24c-1.92,2.9-3.93,5.26-7.62,6.76h0s1.14,12.75,1.14,12.75l-10.75-1v-23.54"/>
      <path class="cls-11" d="M84.6,104.16c-.06,0-.12,0-.19,0l-10.75-1c-1.03-.1-1.81-.96-1.81-1.99v-23.54c0-1.1.9-2,2-2s2,.9,2,2v21.72l6.54.61-.93-10.36c-.08-.88.42-1.7,1.24-2.03,2.4-.97,3.99-2.37,5.44-4.24l-5.3,1.05c-.59.12-1.2-.04-1.66-.42-.46-.38-.73-.95-.73-1.54v-4.78c0-1.1.9-2,2-2s2,.9,2,2v2.35l7.72-1.53c.79-.16,1.6.18,2.05.85.45.67.45,1.55,0,2.22l-1.49,2.24c-1.94,2.92-3.95,5.25-7.17,6.89l1.02,11.34c.05.59-.16,1.18-.58,1.6-.38.38-.88.58-1.41.58Z"/>
    </g>
    <g>
      <rect class="cls-12" x="71.54" y="5.51" width="36.32" height="32.19" rx="4.9" ry="4.9"/>
      <path class="cls-11" d="M91.24,31.4c-1.1,0-2-.9-2-2v-7.76l-3.82,2.9c-.88.67-2.13.49-2.8-.39-.67-.88-.49-2.13.39-2.8l7.03-5.33c.6-.46,1.42-.53,2.1-.2.68.34,1.11,1.03,1.11,1.79v11.78c0,1.1-.9,2-2,2Z"/>
      <path class="cls-11" d="M80.91,10.76c-1.1,0-2-.9-2-2V2.25c0-1.1.9-2,2-2s2,.9,2,2v6.51c0,1.1-.9,2-2,2Z"/>
      <path class="cls-11" d="M98.53,10.76c-1.1,0-2-.9-2-2V2.25c0-1.1.9-2,2-2s2,.9,2,2v6.51c0,1.1-.9,2-2,2Z"/>
      <path class="cls-6" d="M83.68,5.51h-7.24c-2.71,0-4.9,2.19-4.9,4.9v2.35h12.14v-7.25Z"/>
      <path class="cls-10" d="M102.96,5.51h-7.24v7.25h12.14v-2.35c0-2.71-2.19-4.9-4.9-4.9Z"/>
      <rect class="cls-8" x="83.68" y="6.62" width="12.03" height="6.14"/>
      <path class="cls-11" d="M102.96,39.69h-26.52c-3.81,0-6.9-3.1-6.9-6.9V10.41c0-3.8,3.1-6.9,6.9-6.9h26.52c3.81,0,6.9,3.1,6.9,6.9v22.38c0,3.8-3.1,6.9-6.9,6.9ZM76.44,7.51c-1.6,0-2.9,1.3-2.9,2.9v22.38c0,1.6,1.3,2.9,2.9,2.9h26.52c1.6,0,2.9-1.3,2.9-2.9V10.41c0-1.6-1.3-2.9-2.9-2.9h-26.52Z"/>
    </g>
    <g>
      <path class="cls-7" d="M68.31,73.05s8.81,7.22,21.93,0"/>
      <path class="cls-11" d="M78.7,78.28c-7.05,0-11.4-3.46-11.66-3.68-.85-.7-.98-1.96-.28-2.81.7-.85,1.95-.98,2.81-.29.33.26,8.02,6.23,19.71-.2.97-.53,2.18-.18,2.72.79.53.97.18,2.18-.79,2.72-4.73,2.6-8.96,3.48-12.5,3.48Z"/>
    </g>
    <g>
      <path class="cls-9" d="M46.14,29.38s-17.75,29.95-16.99,48.23c.76,18.28,16.99,15.25,16.99,15.25,0,0,17.9,1.84,16.58-16.6s-16.58-46.89-16.58-46.89Z"/>
      <path class="cls-11" d="M43.62,95.05c-2.73,0-6.92-.55-10.44-3.35-3.74-2.98-5.76-7.69-6.03-14.01-.77-18.66,16.53-48.09,17.27-49.33.37-.62,1.03-1,1.76-.98.72.02,1.38.42,1.72,1.05.63,1.18,15.48,29.04,16.81,47.69.44,6.14-1.06,10.92-4.45,14.21-5.03,4.88-12.48,4.65-14.05,4.54-.45.07-1.38.17-2.6.17ZM46.06,33.6c-4.44,8.12-15.49,29.87-14.91,43.92.21,5.11,1.73,8.83,4.52,11.05,4.23,3.37,10.05,2.33,10.11,2.32.19-.04.38-.04.57-.02.06,0,6.98.63,11.15-3.43,2.49-2.43,3.58-6.14,3.23-11.03-1.01-14.19-10.7-34.86-14.67-42.8Z"/>
    </g>
    <g>
      <path class="cls-9" d="M107.86,108.84c-3.92-2.78-23.04-7.25-51.46-7.25s-46.73,3.62-51.46,7.25"/>
      <path class="cls-11" d="M107.86,110.84c-.4,0-.8-.12-1.15-.37-3.28-2.32-21.97-6.88-50.31-6.88-30.32,0-46.66,4.09-50.25,6.83-.88.67-2.13.5-2.8-.37-.67-.88-.51-2.13.37-2.8,5.98-4.58,27.15-7.66,52.68-7.66,16.89,0,45.29,2.42,52.62,7.61.9.64,1.11,1.89.48,2.79-.39.55-1.01.84-1.63.84Z"/>
    </g>
  </g>
  <g id="area">
    <rect class="cls-1" width="112" height="112"/>
  </g>
</svg>