<?xml version="1.0" encoding="UTF-8"?>
<svg id="flatten_icons" xmlns="http://www.w3.org/2000/svg" viewBox="0 0 112 112">
  <defs>
    <style>
      .cls-1 {
        fill: none;
      }

      .cls-2 {
        fill: #e8b782;
      }

      .cls-3 {
        fill: #d69a67;
      }

      .cls-4 {
        fill: #f7bc46;
      }

      .cls-5 {
        fill: #f4d553;
      }

      .cls-6 {
        fill: #004241;
      }

      .cls-7 {
        fill: #f9eaac;
      }
    </style>
  </defs>
  <g id="galette-fromage">
    <path class="cls-2" d="M101.59,60.19c0,2.99-.2,5.89-1.28,8.64s.4,5.53-1.72,8.01c-2.54,2.97-5.73,2.47-9.45,4.76-2.52,1.55-5.27,6.11-8.23,7.29-3.35,1.33-6.96-.79-10.75-.03-4.35.87-8.95,4.52-13.71,4.52-3.87,0-7.63-2.43-11.24-3.01-3.9-.63-7.63.55-11.11-.68-3.62-1.28-6.98-4.97-9.99-6.8s-5.45-1.59-7.66-3.75c-2.56-2.5-2.5-6.32-3.98-9.25-1.69-3.37-2.86-5.93-2.86-9.69s.09-6.24,1.74-9.58c1.47-2.95,2.46-6.78,5.02-9.29,2.2-2.16,5.82-2.02,8.7-3.76,3.27-1.99,5.88-5.81,9.86-7.15,2.83-.95,6.88.4,9.98-.16,4.02-.73,7.18-3.24,11.54-3.24,3.36,0,6.65,3.42,9.82,3.86,4.07.57,7.96-1.7,11.59-.49,2.55.85,3.92,3.97,6.19,5.1,3.04,1.51,6.87,1.13,9.32,3.07,3.24,2.56,1.67,6.53,3.65,9.68,2.51,4,4.57,7.34,4.57,11.96Z"/>
    <rect class="cls-1" width="112" height="112"/>
    <path class="cls-3" d="M100.13,53.74c-.26,1.25-.67,2.5-1.35,3.89-1.44,2.93-2.44,6.74-4.91,9.22-2.12,2.13-5.56,1.93-8.32,3.64-3.14,1.94-5.68,5.72-9.48,7-2.7.91-6.53-.5-9.49.02-3.83.67-6.87,3.14-11.01,3.07-3.19-.05-6.26-3.51-9.27-4-3.86-.63-7.59,1.58-11.02.32-2.41-.89-3.66-4.03-5.81-5.2-2.86-1.55-6.51-1.23-8.8-3.2-3.04-2.61-1.49-6.55-3.32-9.74-2.32-4.03-4.23-7.4-4.16-12.02,0-.13,0-.25,0-.38-.65,1.47-1.21,2.96-1.86,4.27-1.66,3.34-1.74,5.85-1.74,9.58s1.17,6.32,2.86,9.69c1.48,2.94,1.42,6.75,3.98,9.25,2.21,2.16,4.78,2.01,7.66,3.75,3.02,1.83,6.37,5.53,9.99,6.8,3.48,1.23,7.2.05,11.11.68,3.61.58,7.37,3.01,11.24,3.01,4.76,0,9.36-3.65,13.71-4.52,3.8-.76,7.4,1.36,10.75.03,2.95-1.17,5.71-5.73,8.23-7.29,3.72-2.29,6.91-1.79,9.45-4.76,2.12-2.48.6-5.17,1.72-8.01,1.09-2.75,1.28-5.65,1.28-8.64,0-2.41-.57-4.47-1.46-6.45Z"/>
    <path class="cls-6" d="M56.44,95.38c-2.6,0-4.99-.88-7.3-1.74-1.51-.56-2.93-1.08-4.25-1.3-1.48-.24-2.97-.18-4.54-.12-2.25.08-4.57.18-6.91-.65-2.58-.91-4.94-2.81-7.03-4.49-1.19-.96-2.32-1.86-3.34-2.49-1.03-.63-2.04-.97-3.1-1.33-1.64-.56-3.33-1.14-4.92-2.7-1.99-1.94-2.67-4.42-3.28-6.61-.32-1.16-.62-2.26-1.09-3.18-1.8-3.58-3.07-6.44-3.07-10.58s.13-6.79,1.95-10.46c.39-.78.75-1.64,1.12-2.55,1.01-2.43,2.16-5.19,4.28-7.27,1.6-1.57,3.6-2.15,5.53-2.7,1.29-.37,2.5-.72,3.53-1.34,1.13-.69,2.23-1.68,3.39-2.73,1.91-1.72,4.07-3.67,6.87-4.61,1.94-.65,4.09-.46,6.17-.28,1.51.13,2.94.26,4.09.05,1.47-.27,2.85-.82,4.32-1.41,2.28-.92,4.64-1.86,7.57-1.86,2.35,0,4.49,1.2,6.38,2.25,1.36.76,2.64,1.47,3.71,1.62,1.54.21,3.13-.07,4.81-.38,2.3-.42,4.68-.85,7.15-.02,1.88.63,3.16,2.03,4.29,3.27.75.82,1.45,1.59,2.16,1.94,1.1.55,2.41.81,3.8,1.08,2.03.4,4.13.82,5.87,2.2,2.5,1.98,2.86,4.6,3.15,6.71.18,1.35.34,2.51.95,3.48,2.51,4,4.88,7.78,4.88,13.02,0,3-.17,6.21-1.42,9.38-.33.84-.34,1.74-.34,2.77,0,1.7-.01,3.81-1.72,5.81-1.85,2.17-3.96,2.85-6,3.5-1.27.41-2.58.83-3.92,1.66-.85.53-1.93,1.7-2.97,2.84-1.7,1.86-3.47,3.77-5.57,4.61-2.31.92-4.63.56-6.68.25-1.55-.24-3.02-.46-4.42-.18-1.59.32-3.31,1.1-5.13,1.93-2.83,1.29-5.76,2.62-8.97,2.62ZM42.4,88.17c1.01,0,2.05.05,3.12.22,1.71.28,3.39.89,5.01,1.49,2.07.77,4.03,1.49,5.92,1.49,2.34,0,4.87-1.15,7.31-2.26,1.95-.89,3.97-1.81,6.01-2.21,2.09-.42,4.07-.12,5.81.15,1.77.27,3.29.5,4.6-.01,1.25-.5,2.76-2.14,4.1-3.59,1.28-1.4,2.5-2.72,3.82-3.53,1.75-1.08,3.37-1.6,4.79-2.06,1.78-.58,3.07-.99,4.18-2.29.72-.84.76-1.69.76-3.22,0-1.26,0-2.68.62-4.23,1.01-2.55,1.15-5.31,1.15-7.91,0-4.09-1.88-7.09-4.27-10.9-1.06-1.7-1.31-3.48-1.52-5.06-.27-2.01-.49-3.19-1.67-4.12-.99-.78-2.54-1.09-4.17-1.42-1.51-.3-3.22-.64-4.8-1.43-1.37-.68-2.41-1.82-3.33-2.83-.88-.96-1.71-1.87-2.61-2.17-1.49-.5-3.19-.19-5.16.17-1.83.33-3.9.71-6.07.4-1.82-.25-3.49-1.19-5.11-2.09-1.61-.9-3.12-1.74-4.43-1.74-2.16,0-4.06.76-6.08,1.57-1.59.64-3.23,1.3-5.1,1.64-1.68.31-3.45.15-5.16,0-1.67-.14-3.4-.3-4.55.09-2.01.68-3.69,2.19-5.47,3.79-1.25,1.12-2.54,2.29-3.99,3.17-1.48.9-3.09,1.37-4.5,1.77-1.59.46-2.95.85-3.83,1.71-1.54,1.52-2.48,3.78-3.39,5.96-.39.93-.79,1.9-1.23,2.79-1.46,2.95-1.54,5.12-1.54,8.69,0,3.28,1,5.51,2.65,8.79.64,1.27,1.01,2.61,1.37,3.91.52,1.86,1,3.62,2.22,4.81.95.93,2.04,1.3,3.42,1.77,1.16.4,2.47.85,3.88,1.7,1.25.76,2.48,1.75,3.78,2.79,1.92,1.55,3.92,3.15,5.85,3.83,1.62.57,3.47.5,5.42.42.72-.03,1.46-.06,2.21-.06Z"/>
    <circle class="cls-3" cx="57.76" cy="56.83" r="2.56"/>
    <circle class="cls-3" cx="80.58" cy="45.67" r="2.56"/>
    <circle class="cls-3" cx="85.71" cy="69.86" r="2.56"/>
    <circle class="cls-3" cx="38.49" cy="64.32" r="2.96"/>
    <circle class="cls-3" cx="19.5" cy="61.36" r="2.96"/>
    <circle class="cls-3" cx="40.52" cy="43.11" r="3.46"/>
  </g>
  <g id="fromagepatedure">
    <g>
      <rect class="cls-7" x="51.81" y="70.64" width="52.41" height="27.23"/>
      <path class="cls-5" d="M51.81,70.37s2.69-14.08,23.21-16.68l29.21,16.68h-52.41Z"/>
      <g>
        <ellipse class="cls-5" cx="66.35" cy="88.45" rx="4.41" ry="4.2"/>
        <path class="cls-6" d="M66.35,94.65c-3.53,0-6.41-2.78-6.41-6.2s2.88-6.2,6.41-6.2,6.41,2.78,6.41,6.2-2.88,6.2-6.41,6.2ZM66.35,86.25c-1.33,0-2.41.99-2.41,2.2s1.08,2.2,2.41,2.2,2.41-.99,2.41-2.2-1.08-2.2-2.41-2.2Z"/>
      </g>
      <g>
        <path class="cls-5" d="M104.23,81.84c-.93-.69-2.1-1.11-3.37-1.11-3.02,0-5.47,2.33-5.47,5.21s2.45,5.21,5.47,5.21c1.27,0,2.44-.42,3.37-1.11v-8.2Z"/>
        <path class="cls-6" d="M100.86,93.15c-4.12,0-7.47-3.24-7.47-7.21s3.35-7.21,7.47-7.21c1.67,0,3.25.52,4.57,1.51.51.38.8.97.8,1.6v8.2c0,.63-.3,1.22-.8,1.6-1.32.99-2.9,1.51-4.57,1.51ZM100.86,82.73c-1.92,0-3.47,1.44-3.47,3.21s1.56,3.21,3.47,3.21c.48,0,.94-.09,1.37-.26v-5.9c-.43-.17-.89-.26-1.37-.26Z"/>
      </g>
      <g>
        <path class="cls-5" d="M77.63,73.63c0,2.32,1.97,4.2,4.41,4.2s4.41-1.88,4.41-4.2c0-1.17-.51-2.23-1.32-2.99h-6.17c-.81.76-1.32,1.82-1.32,2.99Z"/>
        <path class="cls-6" d="M82.04,79.83c-3.53,0-6.41-2.78-6.41-6.2,0-1.69.69-3.28,1.96-4.46.37-.35.86-.54,1.37-.54h6.17c.51,0,1,.19,1.37.54,1.26,1.18,1.96,2.76,1.96,4.46,0,3.42-2.88,6.2-6.41,6.2ZM79.89,72.64c-.17.31-.26.64-.26.99,0,1.21,1.08,2.2,2.41,2.2s2.41-.99,2.41-2.2c0-.35-.09-.69-.26-.99h-4.29Z"/>
      </g>
      <path class="cls-4" d="M74.43,53.78c-19.97,2.8-22.61,16.59-22.61,16.59h16.24c-.88-1.72-1.51-3.54-1.7-5.43-.58-5.71,4.24-9.26,8.08-11.16Z"/>
      <path class="cls-6" d="M104.23,72.37h-52.41c-.6,0-1.16-.27-1.54-.73-.38-.46-.54-1.06-.42-1.65.12-.63,3.21-15.53,24.92-18.29.43-.06.87.03,1.24.25l29.21,16.68c.79.45,1.17,1.37.94,2.25-.23.88-1.03,1.49-1.93,1.49ZM54.61,68.37h42.08l-22.07-12.6c-13.36,1.89-18.29,8.87-20,12.6Z"/>
      <path class="cls-6" d="M104.23,99.86h-52.41c-1.1,0-2-.9-2-2v-27.23c0-1.1.9-2,2-2h52.41c1.1,0,2,.9,2,2v27.23c0,1.1-.9,2-2,2ZM53.81,95.86h48.41v-23.23h-48.41v23.23Z"/>
    </g>
  </g>
</svg>