<?xml version="1.0" encoding="UTF-8"?>
<svg id="flatten_icons" xmlns="http://www.w3.org/2000/svg" viewBox="0 0 112 112">
  <defs>
    <style>
      .cls-1 {
        fill: none;
      }

      .cls-2 {
        fill: #e5c283;
      }

      .cls-3 {
        fill: #aad681;
      }

      .cls-4 {
        fill: #d39d67;
      }

      .cls-5 {
        fill: #86c487;
      }

      .cls-6 {
        fill: #004241;
      }
    </style>
  </defs>
  <g id="gallette-vegetale">
    <path class="cls-2" d="M101.59,60.19c0,2.99-.2,5.89-1.28,8.64s.4,5.53-1.72,8.01c-2.54,2.97-5.73,2.47-9.45,4.76-2.52,1.55-5.27,6.11-8.23,7.29-3.35,1.33-6.96-.79-10.75-.03-4.35.87-8.95,4.52-13.71,4.52-3.87,0-7.63-2.43-11.24-3.01-3.9-.63-7.63.55-11.11-.68s-6.98-4.97-9.99-6.8-5.45-1.59-7.66-3.75c-2.56-2.5-2.5-6.32-3.98-9.25-1.69-3.37-2.86-5.93-2.86-9.69s.09-6.24,1.74-9.58c1.47-2.95,2.46-6.78,5.02-9.29,2.2-2.16,5.82-2.02,8.7-3.76,3.27-1.99,5.88-5.81,9.86-7.15,2.83-.95,6.88.4,9.98-.16,4.02-.73,7.18-3.24,11.54-3.24,3.36,0,6.65,3.42,9.82,3.86,4.07.57,7.96-1.7,11.59-.49,2.55.85,3.92,3.97,6.19,5.1,3.04,1.51,6.87,1.13,9.32,3.07,3.24,2.56,3.32,7.17,5.29,10.32,2.51,4,2.93,6.7,2.93,11.32Z"/>
    <rect class="cls-1" width="112" height="112"/>
    <path class="cls-4" d="M100.13,53.74c-.26,1.25-.67,2.5-1.35,3.89-1.44,2.93-2.44,6.74-4.91,9.22-2.12,2.13-5.56,1.93-8.32,3.64-3.14,1.94-5.68,5.72-9.48,7-2.7.91-6.53-.5-9.49.02-3.83.67-6.87,1.14-11.01,1.07-3.19-.05-6.26-3.51-9.27-4-3.86-.63-7.59,3.58-11.02,2.32-2.41-.89-3.66-4.03-5.81-5.2-2.86-1.55-6.51-1.23-8.8-3.2-3.04-2.61-.49-6.55-2.32-9.74-2.32-4.03-5.23-7.4-5.16-12.02,0-.13,0-.25,0-.38-.65,1.47-1.21,2.96-1.86,4.27-1.66,3.34-1.74,5.85-1.74,9.58s1.17,6.32,2.86,9.69c1.48,2.94,1.42,6.75,3.98,9.25,2.21,2.16,4.78,2.01,7.66,3.75,3.02,1.83,6.37,5.53,9.99,6.8,3.48,1.23,7.2.05,11.11.68,3.61.58,7.37,3.01,11.24,3.01,4.76,0,9.36-3.65,13.71-4.52,3.8-.76,7.4,1.36,10.75.03,2.95-1.17,5.71-5.73,8.23-7.29,3.72-2.29,6.91-1.79,9.45-4.76,2.12-2.48.6-5.17,1.72-8.01,1.09-2.75,1.28-5.65,1.28-8.64,0-2.41-.57-4.47-1.46-6.45Z"/>
    <path class="cls-6" d="M55.65,95.38c-3.21,0-6.14-1.33-8.97-2.62-1.82-.83-3.54-1.61-5.13-1.93-1.44-.29-2.88-.26-4.42-.24-2.17.04-4.42.07-6.68-.83-2.08-.83-3.88-2.46-5.62-4.04-1.05-.96-2.05-1.86-2.92-2.4-1.34-.83-2.65-1.25-3.92-1.66-2.04-.66-4.15-1.34-6-3.5-1.71-2-1.71-4.11-1.72-5.81,0-1.03,0-1.93-.34-2.77-1.25-3.17-1.42-6.38-1.42-9.38,0-4.86,1.12-8.63,3.88-13.02.63-1.01.96-2.21,1.32-3.48.62-2.23,1.32-4.76,3.79-6.71,1.75-1.38,3.84-1.8,5.87-2.2,1.39-.28,2.7-.54,3.8-1.08.7-.35,1.41-1.12,2.16-1.94,1.13-1.24,2.41-2.64,4.29-3.27,2.47-.82,4.84-.39,7.14.03,1.68.31,3.27.59,4.81.38,1.12-.16,2.67-.91,4.18-1.64,2.26-1.1,4.61-2.23,6.91-2.23,2.93,0,5.05.98,6.92,1.85,1.29.6,2.51,1.16,3.97,1.43,1.15.21,2.58.08,4.09-.05,2.08-.18,4.23-.37,6.17.28,2.8.94,4.96,2.89,6.87,4.61,1.16,1.05,2.26,2.04,3.39,2.73,1.01.62,2.44.97,3.94,1.34,2.21.55,4.5,1.12,6.12,2.7,1.99,1.96,2.69,4.45,3.31,6.66.33,1.16.63,2.25,1.09,3.17,1.38,2.77.88,5.96.44,8.78-.21,1.33-.4,2.58-.4,3.69,0,.94.05,1.67.1,2.32.15,2.12.16,3.45-1.25,6.27-.46.92-.77,2.02-1.09,3.18-.6,2.18-1.29,4.66-3.28,6.61-1.6,1.56-3.29,2.14-4.92,2.7-1.06.36-2.07.71-3.1,1.33-1.02.62-2.15,1.53-3.34,2.49-2.08,1.68-4.45,3.58-7.02,4.49-2.34.82-4.66.73-6.91.65-1.57-.06-3.06-.12-4.55.12-1.32.21-2.75.74-4.25,1.3-2.31.86-4.7,1.74-7.3,1.74ZM38.38,86.57c1.26,0,2.57.06,3.95.33,2.04.41,4.06,1.33,6.01,2.21,2.44,1.11,4.97,2.26,7.31,2.26,1.88,0,3.84-.72,5.92-1.49,1.62-.6,3.3-1.22,5-1.49,1.88-.3,3.64-.23,5.34-.17,1.96.08,3.8.15,5.42-.42,1.93-.68,3.92-2.28,5.84-3.83,1.3-1.05,2.52-2.03,3.78-2.79,1.4-.85,2.72-1.3,3.88-1.7,1.38-.47,2.47-.85,3.42-1.77,1.22-1.19,1.7-2.95,2.22-4.81.36-1.3.73-2.64,1.37-3.91.99-1.98.95-2.54.84-4.2-.05-.67-.1-1.51-.1-2.59,0-1.42.23-2.89.45-4.3.38-2.44.74-4.75-.07-6.38-.62-1.26-1-2.58-1.36-3.87-.53-1.89-1.04-3.68-2.27-4.89-.83-.82-2.58-1.25-4.27-1.67-1.73-.43-3.52-.87-5.06-1.81-1.45-.88-2.74-2.05-3.99-3.17-1.78-1.6-3.45-3.11-5.47-3.79-1.15-.38-2.88-.23-4.55-.09-1.71.15-3.48.3-5.16,0-1.97-.36-3.55-1.09-4.94-1.73-1.71-.79-3.19-1.48-5.24-1.48-1.39,0-3.31.93-5.17,1.83-1.79.87-3.63,1.76-5.37,2-2.17.31-4.24-.07-6.07-.4-1.97-.36-3.67-.66-5.16-.17-.9.3-1.73,1.21-2.61,2.17-.92,1-1.96,2.14-3.33,2.83-1.58.78-3.29,1.12-4.8,1.43-1.64.33-3.18.63-4.17,1.42-1.44,1.14-1.87,2.68-2.41,4.64-.39,1.42-.84,3.04-1.78,4.54-2.38,3.8-3.27,6.75-3.27,10.9,0,2.6.14,5.36,1.14,7.91.61,1.54.61,2.97.62,4.23,0,1.54.04,2.38.76,3.22,1.11,1.3,2.4,1.72,4.18,2.29,1.43.46,3.04.98,4.79,2.06,1.19.74,2.32,1.76,3.51,2.85,1.48,1.34,3,2.73,4.4,3.28,1.52.6,3.2.58,5.15.55.43,0,.87-.01,1.32-.01Z"/>
    <circle class="cls-4" cx="34.33" cy="50.39" r="2.56"/>
    <circle class="cls-4" cx="81.62" cy="51.44" r="2.56"/>
    <circle class="cls-4" cx="64.95" cy="52.95" r="2.56"/>
    <circle class="cls-4" cx="38.49" cy="64.32" r="2.96"/>
    <circle class="cls-4" cx="28.81" cy="72.43" r="2.96"/>
    <circle class="cls-4" cx="56" cy="42.21" r="3.46"/>
    <g>
      <g>
        <path class="cls-5" d="M88.23,100.04s21.27-5.83,16.15-37.77c0,0-18.16-3.15-28.59,13.64-6.99,11.26,2.28,15.08,2.28,15.08l10.17,9.05Z"/>
        <path class="cls-6" d="M88.23,102.04c-.48,0-.96-.18-1.33-.51l-9.95-8.86c-1.05-.52-4.11-2.32-5.3-6.02-1.11-3.44-.29-7.41,2.44-11.8,11.02-17.73,30.44-14.59,30.63-14.56.84.15,1.5.81,1.63,1.65,2.77,17.25-2.06,27.18-6.61,32.48-5.02,5.85-10.74,7.47-10.98,7.53-.17.05-.35.07-.53.07ZM100.71,64.02c-5.4,0-16.15,1.57-23.22,12.95-2.06,3.32-2.75,6.16-2.04,8.42.82,2.62,3.37,3.75,3.4,3.76.2.08.39.21.55.35l9.29,8.27c3.88-1.55,17.37-8.79,13.94-33.68-.52-.04-1.17-.07-1.92-.07Z"/>
      </g>
      <g>
        <path class="cls-3" d="M87.4,100.03s-32.44,1.46-34.23-36.77c0,0,40.43-4.38,34.23,36.77Z"/>
        <path class="cls-6" d="M87.12,102.04c-3.76,0-34.19-1.18-35.94-38.67-.05-1.06.73-1.97,1.78-2.08.76-.08,18.79-1.9,29.53,9.3,6.52,6.8,8.84,16.81,6.89,29.75-.14.95-.93,1.66-1.89,1.7-.02,0-.15,0-.38,0ZM87.4,100.04h0,0ZM55.3,65.16c2.3,29.42,24.07,32.57,30.36,32.86,1.32-10.8-.71-19.09-6.04-24.66-7.48-7.81-19.65-8.32-24.32-8.21Z"/>
      </g>
    </g>
  </g>
</svg>