<?xml version="1.0" encoding="UTF-8"?>
<svg id="flatten_icons" xmlns="http://www.w3.org/2000/svg" viewBox="0 0 112 112">
  <defs>
    <style>
      .cls-1 {
        fill: none;
      }

      .cls-2 {
        fill: #c18d48;
      }

      .cls-3 {
        fill: #aad681;
      }

      .cls-4 {
        fill: #86c487;
      }

      .cls-5 {
        fill: #004241;
      }

      .cls-6 {
        fill: #e0ab5f;
      }
    </style>
  </defs>
  <g id="hache-vegetal">
    <g>
      <g>
        <path class="cls-6" d="M18.34,77.94c-3.39.77-5.51,4.15-4.74,7.54.77,3.39,3.81,4.03,7.21,3.26,3.39-.77,5.85-2.67,5.08-6.06s-4.15-5.51-7.54-4.74Z"/>
        <path class="cls-5" d="M18.39,91.04c-3.54,0-5.98-1.8-6.74-5.11-1.02-4.46,1.78-8.92,6.24-9.94,4.46-1.01,8.92,1.78,9.94,6.25.51,2.25,0,4.27-1.47,5.83-1.17,1.23-2.89,2.12-5.11,2.62-1.02.23-1.98.35-2.87.35ZM19.75,79.78c-.32,0-.64.04-.96.11-1.12.25-2.07.93-2.68,1.9-.61.97-.81,2.12-.55,3.25.17.74.62,2.71,4.81,1.75,1.42-.32,2.49-.83,3.09-1.48.37-.39.75-.99.48-2.19-.46-1.99-2.23-3.34-4.19-3.34Z"/>
      </g>
      <g>
        <path class="cls-6" d="M78.61,52.5c1.19-1.45,1.72-3.41,1.27-5.38-.13-.58-.35-1.12-.62-1.62.08-.01.16-.02.24-.04,3.39-.77,4.96-4.07,4.74-7.54-.35-5.52-3.89-3.77-5.21-6.69-.99-2.19.07-5.56-.24-6.91-.77-3.39-4.15-5.51-7.54-4.74s-5.3,3.83-4.83,7.04c-1.47-1.34-3.56-1.97-5.65-1.49-3.06.7-5.08,3.52-4.88,6.56-1.41-.99-3.21-1.41-5.02-.99-.09.02-.17.05-.26.07.03-.63-.01-1.27-.16-1.91-.85-3.74-4.58-6.09-8.33-5.23-2.76.63-4.76,2.83-5.27,5.44-1.3-.72-2.86-.98-4.43-.62-2.95.67-4.94,3.32-4.9,6.23-.9-.17-1.85-.16-2.8.06-3.74.85-6.09,4.58-5.23,8.33-3.39.77-5.51,4.15-4.74,7.54.62,2.73,2.93,4.63,5.58,4.87-.2.95-.21,1.96.02,2.96.34,1.49,1.14,2.75,2.2,3.68-.56,1.3-.73,2.78-.39,4.27.85,3.74,4.58,6.09,8.33,5.23.85,3.74,4.58,6.09,8.33,5.23.52-.12,1-.3,1.46-.51,1.52,2.46,4.48,3.8,7.46,3.12,3.29-.75,5.49-3.72,5.4-6.96.73.1,1.48.08,2.24-.1,1.15-.26,2.16-.83,2.95-1.6,1.1,2.9,4.18,4.62,7.29,3.91,3.39-.77,5.51-4.15,4.74-7.54-.08-.37-.21-.72-.35-1.06.77.12,1.58.11,2.39-.08,2.03-.46,3.61-1.87,4.38-3.65,7.09-4.09,2.5-10.31,1.83-9.86Z"/>
        <path class="cls-5" d="M46.19,81.62c-2.5,0-4.91-1.06-6.6-2.91-.11.03-.21.05-.32.08-4.21.96-8.41-1.23-10.14-5-1.74.02-3.44-.43-4.95-1.37-2.02-1.27-3.43-3.26-3.97-5.59-.32-1.4-.3-2.82.05-4.19-.91-1.08-1.55-2.36-1.87-3.75-.14-.61-.21-1.22-.22-1.84-2.67-.92-4.73-3.15-5.38-6-.49-2.16-.12-4.39,1.06-6.26.85-1.35,2.04-2.41,3.45-3.08-.04-1.74.43-3.45,1.37-4.96,1.27-2.03,3.26-3.43,5.59-3.97.5-.11,1-.18,1.5-.21.75-2.96,3.12-5.37,6.2-6.07,1.21-.28,2.45-.27,3.65,0,1.17-2.4,3.38-4.2,6.05-4.81,4.81-1.1,9.62,1.92,10.72,6.74,0,.04.02.09.03.13.61.01,1.22.09,1.82.24.85-2.75,3.11-4.92,6.07-5.6,1.47-.33,2.98-.26,4.38.19.84-2.79,3.11-5.06,6.1-5.74,4.47-1.01,8.92,1.78,9.94,6.25.19.83.1,1.77-.01,2.86-.12,1.25-.27,2.8.12,3.67.21.46.5.63,1.33,1.04,1.5.74,3.77,1.85,4.05,6.35.26,4.03-1.46,7.38-4.4,8.93.41,1.84.19,3.73-.61,5.39.81,1.12,1.44,2.73,1.47,4.45.03,1.67-.51,4.75-4.37,7.21-1.13,2.11-3.13,3.66-5.47,4.2-.12.03-.23.05-.35.07.25,3.99-2.42,7.69-6.44,8.61-3.19.72-6.44-.51-8.38-2.98-.59.3-1.22.52-1.87.67-.29.07-.58.12-.87.15-.7,3.36-3.31,6.12-6.77,6.91-.66.15-1.33.22-1.99.22ZM40.28,74.32c.67,0,1.33.34,1.7.95,1.11,1.8,3.24,2.7,5.31,2.22,2.29-.52,3.91-2.61,3.85-4.96-.02-.59.23-1.15.66-1.54.44-.39,1.02-.57,1.6-.5.52.07,1.04.05,1.53-.06.75-.17,1.45-.55,2.01-1.09.48-.47,1.17-.66,1.83-.51.66.15,1.19.61,1.43,1.24.76,1.99,2.9,3.14,4.97,2.67,1.12-.25,2.07-.93,2.68-1.9.61-.97.81-2.12.55-3.25-.05-.23-.13-.47-.24-.72-.28-.67-.18-1.44.27-2.01.45-.57,1.17-.86,1.89-.74.55.09,1.1.07,1.63-.05,1.34-.31,2.43-1.22,2.98-2.49.17-.39.46-.72.84-.94,1.78-1.03,2.76-2.24,2.89-3.59.12-1.19-.42-2.22-.73-2.65-.31-.11-.59-.29-.82-.54-.66-.73-.69-1.84-.07-2.6.85-1.04,1.16-2.38.87-3.68-.09-.38-.23-.75-.42-1.1-.31-.56-.33-1.23-.06-1.81.27-.58.8-.99,1.43-1.11l.18-.03c2.58-.59,3.33-3.31,3.19-5.47-.14-2.18-.67-2.44-1.83-3.01-1.01-.5-2.39-1.17-3.21-2.98-.84-1.85-.63-3.99-.46-5.71.06-.57.13-1.35.09-1.59-.53-2.3-2.83-3.75-5.15-3.22-2.17.49-3.61,2.61-3.29,4.81.12.84-.29,1.66-1.04,2.05-.75.4-1.66.28-2.29-.29-1.04-.95-2.48-1.33-3.86-1.02-2.07.47-3.47,2.35-3.33,4.47.05.77-.34,1.5-1.01,1.88-.67.38-1.5.34-2.13-.11-1.01-.71-2.23-.95-3.43-.68l-.18.05c-.62.17-1.28.03-1.78-.38-.5-.4-.77-1.02-.74-1.66.02-.47-.01-.93-.11-1.36-.61-2.66-3.27-4.34-5.93-3.73-1.9.43-3.38,1.96-3.76,3.88-.12.63-.54,1.16-1.12,1.43-.58.27-1.25.25-1.81-.06-.93-.51-2-.66-3.02-.43-1.97.45-3.37,2.23-3.34,4.25,0,.6-.25,1.17-.71,1.56-.46.39-1.06.55-1.65.44-.66-.12-1.33-.11-1.99.04-1.29.29-2.39,1.07-3.09,2.19-.7,1.12-.93,2.45-.63,3.74.25,1.08-.43,2.15-1.5,2.4-1.12.25-2.07.93-2.68,1.9-.61.97-.81,2.12-.55,3.25.42,1.82,1.95,3.16,3.81,3.32.57.05,1.09.34,1.43.8.34.46.47,1.04.35,1.6-.15.71-.14,1.42.02,2.11.23,1.02.77,1.93,1.57,2.62.65.57.86,1.5.52,2.29-.41.97-.51,2.02-.28,3.04.29,1.29,1.07,2.39,2.19,3.09,1.12.7,2.45.93,3.74.63.52-.12,1.06-.03,1.51.26.45.28.77.73.89,1.25.61,2.66,3.27,4.34,5.93,3.73.35-.08.7-.2,1.04-.37.28-.13.57-.2.86-.2Z"/>
      </g>
    </g>
    <g>
      <g>
        <path class="cls-4" d="M88.11,100.04s21.27-5.83,16.15-37.77c0,0-18.16-3.15-28.59,13.64-6.99,11.26,2.28,15.08,2.28,15.08l10.17,9.05Z"/>
        <path class="cls-5" d="M88.11,102.04c-.48,0-.96-.18-1.33-.51l-9.95-8.86c-1.05-.52-4.11-2.32-5.3-6.02-1.11-3.44-.29-7.41,2.44-11.8,11.02-17.73,30.44-14.59,30.63-14.56.84.15,1.5.81,1.63,1.65,2.77,17.25-2.06,27.18-6.61,32.48-5.02,5.85-10.74,7.47-10.98,7.53-.17.05-.35.07-.53.07ZM100.58,64.02c-5.4,0-16.15,1.57-23.22,12.95-2.06,3.32-2.75,6.16-2.04,8.42.82,2.62,3.37,3.75,3.4,3.76.2.08.39.21.55.35l9.29,8.27c3.88-1.55,17.37-8.79,13.94-33.68-.52-.04-1.17-.07-1.92-.07Z"/>
      </g>
      <g>
        <path class="cls-3" d="M87.28,100.03s-32.44,1.46-34.23-36.77c0,0,40.43-4.38,34.23,36.77Z"/>
        <path class="cls-5" d="M86.99,102.04c-3.76,0-34.19-1.18-35.94-38.67-.05-1.06.73-1.97,1.78-2.08.76-.08,18.79-1.9,29.53,9.3,6.52,6.8,8.84,16.81,6.89,29.75-.14.95-.93,1.66-1.89,1.7-.02,0-.15,0-.38,0ZM87.28,100.04h0,0ZM55.17,65.16c2.3,29.42,24.07,32.57,30.36,32.86,1.32-10.8-.71-19.09-6.04-24.66-7.48-7.81-19.66-8.32-24.32-8.21Z"/>
      </g>
    </g>
    <path class="cls-2" d="M37.69,48.23c0,1.97-1.6,1.75-3.57,1.75s-5.4,1.98-5.4,0,3.43-5.33,5.4-5.33,3.57,1.6,3.57,3.57Z"/>
    <path class="cls-2" d="M45.14,57c0,1.97-.08,1.03-2.05,1.03s-5.4,1.98-5.4,0,1.22-2.65,3.19-2.65,4.26-.36,4.26,1.62Z"/>
    <path class="cls-2" d="M47.27,41.92s5.32-.03,6.54,5.84,2.86,2.71,2.19-.43-1.61-5.72.15-8.76-2.43-.3-4.44.91-2.62.15-6.57.15-1.98,3.65,2.13,2.28Z"/>
    <path class="cls-2" d="M67.86,48.88c0,1.55-2.37,4.29-2.81,2.81-1.18-4.01-2.77-1.59-2.81-2.81-.04-1.55,1.26-2.81,2.81-2.81s2.81,1.26,2.81,2.81Z"/>
    <path class="cls-2" d="M40.02,35.13c0,1.14-.92,2.06-2.06,2.06s-2.06-.92-2.06-2.06.65-.65,1.79-.65,2.34-.49,2.34.65Z"/>
    <rect class="cls-1" y="0" width="112" height="112"/>
  </g>
</svg>