<?xml version="1.0" encoding="UTF-8"?>
<svg id="outline_icons" xmlns="http://www.w3.org/2000/svg" viewBox="0 0 112 112">
  <defs>
    <style>
      .cls-1 {
        fill: none;
      }

      .cls-2 {
        fill: #dd7957;
      }

      .cls-3 {
        fill: #a7c6c1;
      }

      .cls-4 {
        fill: #bad6d2;
      }

      .cls-5 {
        fill: #c9b58f;
      }

      .cls-6 {
        fill: #c9e2df;
      }

      .cls-7 {
        fill: #f2e9d7;
      }

      .cls-8 {
        fill: #004241;
      }
    </style>
  </defs>
  <path class="cls-6" d="M55.66,16.04h0c27.23,0,49.34,22.11,49.34,49.34v36.74c0,3.53-2.87,6.4-6.4,6.4H12.72c-3.53,0-6.4-2.87-6.4-6.4v-36.74c0-27.23,22.11-49.34,49.34-49.34Z"/>
  <path class="cls-4" d="M105,102.12v-36.74c0-5.44-.89-10.67-2.52-15.56h-4.68c-1.15,0-2.08.93-2.08,2.08v8.29c0,1.15-.93,2.08-2.08,2.08h-20.91c-1.15,0-2.08.93-2.08,2.08v33.21h-35.65v-33.21c0-1.15-.93-2.08-2.08-2.08H6.42c-.06,1.03-.11,2.06-.11,3.1v36.74c0,3.54,2.87,6.4,6.4,6.4h85.88c3.54,0,6.4-2.87,6.4-6.4Z"/>
  <g>
    <rect class="cls-5" x="27" y="74.54" width="56" height="31.95"/>
    <path class="cls-8" d="M83,108.49H27c-1.1,0-2-.9-2-2v-31.95c0-1.1.9-2,2-2h56c1.1,0,2,.9,2,2v31.95c0,1.1-.9,2-2,2ZM29,104.49h52v-27.95H29v27.95Z"/>
  </g>
  <g>
    <path class="cls-2" d="M77.43,27.51c0,17.99-22.55,39.14-22.55,39.14,0,0-22.55-19.26-22.55-39.14,0-12.46,10.1-22.55,22.55-22.55s22.55,10.1,22.55,22.55Z"/>
    <path class="cls-8" d="M54.87,68.66c-.46,0-.92-.16-1.3-.48-.24-.2-5.86-5.03-11.56-12.41-7.76-10.05-11.69-19.55-11.69-28.25,0-13.54,11.02-24.55,24.55-24.55s24.55,11.02,24.55,24.55c0,18.64-22.24,39.71-23.19,40.6-.38.36-.88.54-1.37.54ZM54.87,6.96c-11.33,0-20.55,9.22-20.55,20.55,0,15.98,15.72,31.92,20.5,36.39,4.73-4.78,20.61-21.93,20.61-36.39,0-11.33-9.22-20.55-20.55-20.55Z"/>
  </g>
  <g>
    <circle class="cls-7" cx="54.87" cy="27.27" r="9.52"/>
    <path class="cls-8" d="M54.87,38.79c-6.35,0-11.52-5.17-11.52-11.52s5.17-11.52,11.52-11.52,11.52,5.17,11.52,11.52-5.17,11.52-11.52,11.52ZM54.87,19.75c-4.15,0-7.52,3.37-7.52,7.52s3.37,7.52,7.52,7.52,7.52-3.37,7.52-7.52-3.37-7.52-7.52-7.52Z"/>
  </g>
  <path class="cls-8" d="M75,86.24h-11.5c-1.1,0-2-.9-2-2s.9-2,2-2h11.5c1.1,0,2,.9,2,2s-.9,2-2,2Z"/>
  <path class="cls-8" d="M69.25,92.37h-5.75c-1.1,0-2-.9-2-2s.9-2,2-2h5.75c1.1,0,2,.9,2,2s-.9,2-2,2Z"/>
  <g>
    <rect class="cls-7" x="37.44" y="74.54" width="7.91" height="31.95"/>
    <path class="cls-8" d="M45.35,108.49h-7.91c-1.1,0-2-.9-2-2v-31.95c0-1.1.9-2,2-2h7.91c1.1,0,2,.9,2,2v31.95c0,1.1-.9,2-2,2ZM39.44,104.49h3.91v-27.95h-3.91v27.95Z"/>
  </g>
  <path class="cls-3" d="M19,89.52c0-1.32-1.07-2.39-2.39-2.39H6.32v14.99c0,3.54,2.87,6.4,6.4,6.4h6.28v-19Z"/>
  <path class="cls-3" d="M94.21,80.1c-1.2,0-2.17.97-2.17,2.17v26.25h6.55c3.54,0,6.4-2.87,6.4-6.4v-22.01h-10.79Z"/>
  <g id="area">
    <rect class="cls-1" x="0" width="112" height="112"/>
  </g>
</svg>