<svg width="40" height="40" viewBox="0 0 40 40" fill="none" xmlns="http://www.w3.org/2000/svg">
<g id="domicile 1" clip-path="url(#clip0_36_84)">
<g id="Group">
<path id="Vector" d="M35 12.0249H5V34.882H35V12.0249Z" fill="#E2DBC9"/>
<path id="Vector_2" d="M34.9999 35.5964H4.99993C4.60707 35.5964 4.28564 35.275 4.28564 34.8821V12.025C4.28564 11.6321 4.60707 11.3107 4.99993 11.3107H34.9999C35.3928 11.3107 35.7142 11.6321 35.7142 12.025V34.8821C35.7142 35.275 35.3928 35.5964 34.9999 35.5964ZM5.71422 34.1678H34.2856V12.7392H5.71422V34.1678Z" fill="#004241"/>
</g>
<g id="Group_2">
<path id="Vector_3" d="M36.4572 16.2429H3.68582C2.94296 16.2429 2.43225 15.4964 2.69654 14.8036L5.56796 7.35C5.85368 6.61071 6.56439 6.125 7.35368 6.125H33.5501C34.4072 6.125 35.1608 6.69286 35.393 7.51786L37.4751 14.8964C37.6644 15.5714 37.1572 16.2429 36.4572 16.2429Z" fill="#838A9E"/>
<path id="Vector_4" d="M36.4573 16.9572H3.68582C3.10011 16.9572 2.55368 16.6679 2.22511 16.1858C1.89297 15.7036 1.82154 15.0893 2.03225 14.5465L4.90368 7.09291C5.29297 6.08577 6.27868 5.41077 7.35725 5.41077H33.5537C34.7251 5.41077 35.7644 6.19648 36.0823 7.32505L38.1644 14.7036C38.318 15.2429 38.2108 15.8072 37.8715 16.2536C37.5323 16.7001 37.018 16.9572 36.4573 16.9572ZM7.35725 6.83934C6.8644 6.83934 6.4144 7.15005 6.23582 7.60719L3.3644 15.0608C3.30725 15.2072 3.3644 15.3251 3.40011 15.3786C3.43582 15.4322 3.52511 15.5286 3.68225 15.5286H36.4537C36.6037 15.5286 36.6894 15.4429 36.7287 15.3929C36.768 15.3429 36.8251 15.2358 36.7858 15.0929L34.7037 7.71434C34.5573 7.20005 34.0823 6.83934 33.5501 6.83934H7.35725Z" fill="#004241"/>
</g>
<g id="Group_3">
<path id="Vector_5" d="M29.0499 20.5963H21.6677V27.0749H29.0499V20.5963Z" fill="#98D2E2"/>
<path id="Vector_6" d="M29.0464 27.7892H21.6642C21.2714 27.7892 20.95 27.4678 20.95 27.0749V20.5964C20.95 20.2035 21.2714 19.8821 21.6642 19.8821H29.0464C29.4392 19.8821 29.7607 20.2035 29.7607 20.5964V27.0749C29.7607 27.4678 29.4392 27.7892 29.0464 27.7892ZM22.3821 26.3607H28.3357V21.3107H22.3821V26.3607Z" fill="#004241"/>
</g>
<g id="Group_4">
<path id="Vector_7" d="M29.0465 3.22144H25.3572V10.9393H29.0465V3.22144Z" fill="#E2DBC9"/>
<path id="Vector_8" d="M29.0464 11.6536H25.3571C24.9643 11.6536 24.6428 11.3322 24.6428 10.9393V3.22149C24.6428 2.82863 24.9643 2.5072 25.3571 2.5072H29.0464C29.4393 2.5072 29.7607 2.82863 29.7607 3.22149V10.9393C29.7607 11.3322 29.4393 11.6536 29.0464 11.6536ZM26.0714 10.2251H28.3321V3.93577H26.0714V10.2251Z" fill="#004241"/>
</g>
<g id="Group_5">
<path id="Vector_9" d="M16.0716 20.5963H8.92871V34.882H16.0716V20.5963Z" fill="#DD7957"/>
<path id="Vector_10" d="M16.0715 35.5964H8.92864C8.53578 35.5964 8.21436 35.2749 8.21436 34.8821V20.5964C8.21436 20.2035 8.53578 19.8821 8.92864 19.8821H16.0715C16.4644 19.8821 16.7858 20.2035 16.7858 20.5964V34.8821C16.7858 35.2749 16.4644 35.5964 16.0715 35.5964ZM9.64293 34.1678H15.3572V21.3107H9.64293V34.1678Z" fill="#004241"/>
</g>
<g id="Group_6">
<path id="Vector_11" d="M23.3393 30.4142H12.5V38.0678H23.3393V30.4142Z" fill="#C9B58F"/>
<path id="Vector_12" d="M23.3392 38.7821H12.4999C12.1071 38.7821 11.7856 38.4607 11.7856 38.0678V30.4142C11.7856 30.0214 12.1071 29.7 12.4999 29.7H23.3392C23.7321 29.7 24.0535 30.0214 24.0535 30.4142V38.0678C24.0535 38.4607 23.7321 38.7821 23.3392 38.7821ZM13.2142 37.3535H22.6249V31.1285H13.2142V37.3535Z" fill="#004241"/>
</g>
<path id="Vector_13" d="M18.4251 33.9143H15.2858C14.893 33.9143 14.5715 33.5929 14.5715 33.2C14.5715 32.8071 14.893 32.4857 15.2858 32.4857H18.4251C18.818 32.4857 19.1394 32.8071 19.1394 33.2C19.1394 33.5929 18.818 33.9143 18.4251 33.9143Z" fill="#F2E9D7"/>
</g>
<defs>
<clipPath id="clip0_36_84">
<rect width="40" height="40" fill="white"/>
</clipPath>
</defs>
</svg>
