<svg width="40" height="40" viewBox="0 0 40 40" fill="none" xmlns="http://www.w3.org/2000/svg">
<g clip-path="url(#clip0_292_869)">
<path d="M29.0464 27.7893H21.6643C21.2714 27.7893 20.95 27.4679 20.95 27.075V20.5964C20.95 20.2036 21.2714 19.8821 21.6643 19.8821H29.0464C29.4393 19.8821 29.7607 20.2036 29.7607 20.5964V27.075C29.7607 27.4679 29.4393 27.7893 29.0464 27.7893ZM22.3822 26.3607H28.3357V21.3107H22.3822V26.3607Z" fill="#667085"/>
<path d="M33.5538 5.41046C34.725 5.41059 35.7642 6.19627 36.0822 7.32452L38.1642 14.7034C38.3177 15.2427 38.2104 15.8068 37.8712 16.2532C37.5319 16.6997 37.0179 16.9573 36.4572 16.9573H3.68567C3.09997 16.9573 2.5533 16.668 2.22473 16.1859C1.8926 15.7037 1.82164 15.0891 2.03235 14.5462L4.90344 7.09308C5.29273 6.08594 6.27897 5.41046 7.35754 5.41046H25.3575V6.83917H7.35754C6.86478 6.83917 6.41411 7.14975 6.23547 7.60675L3.36438 15.0609C3.30745 15.2068 3.36381 15.3245 3.39954 15.3782C3.43522 15.4318 3.52485 15.5285 3.68176 15.5286H36.4532C36.6032 15.5286 36.6894 15.4429 36.7286 15.3929C36.7679 15.3429 36.8245 15.2359 36.7853 15.0931L34.7032 7.71417C34.5568 7.19998 34.082 6.83917 33.5499 6.83917H29.046V5.41046H33.5538Z" fill="#667085"/>
<path d="M29.0465 11.6536H25.3572C24.9643 11.6536 24.6429 11.3321 24.6429 10.9393V3.22143C24.6429 2.82857 24.9643 2.50714 25.3572 2.50714H29.0465C29.4393 2.50714 29.7607 2.82857 29.7607 3.22143V10.9393C29.7607 11.3321 29.4393 11.6536 29.0465 11.6536ZM26.0715 10.225H28.3322V3.93571H26.0715V10.225Z" fill="#667085"/>
<path d="M5.71442 34.1678H12.4996V35.5965H4.99957C4.60706 35.5963 4.28596 35.2751 4.28571 34.8826V16.243H5.71442V34.1678ZM35.7144 34.8826C35.7142 35.2753 35.3923 35.5965 34.9996 35.5965H23.3394V34.1678H34.2857V16.243H35.7144V34.8826Z" fill="#667085"/>
<path d="M16.0718 19.8826C16.4645 19.8828 16.7857 20.2038 16.7857 20.5965V30.9998H15.357V21.3104H9.64313V34.1678H12.9996V35.5965H8.92828C8.53572 35.5963 8.21468 35.2752 8.21442 34.8826V20.5965C8.21442 20.2037 8.53556 19.8828 8.92828 19.8826H16.0718Z" fill="#667085"/>
<path d="M23.3393 38.7822H12.5C12.1071 38.7822 11.7857 38.4607 11.7857 38.0679V30.4143C11.7857 30.0214 12.1071 29.7 12.5 29.7H23.3393C23.7321 29.7 24.0536 30.0214 24.0536 30.4143V38.0679C24.0536 38.4607 23.7321 38.7822 23.3393 38.7822ZM13.2143 37.3536H22.625V31.1286H13.2143V37.3536Z" fill="#667085"/>
</g>
<defs>
<clipPath id="clip0_292_869">
<rect width="40" height="40" fill="white"/>
</clipPath>
</defs>
</svg>
