<svg width="40" height="40" viewBox="0 0 40 40" fill="none" xmlns="http://www.w3.org/2000/svg">
<g id="magasin" clip-path="url(#clip0_36_165)">
<g id="Group">
<path id="Vector" d="M37.1428 12.5H7.14282V35.3571H37.1428V12.5Z" fill="#FFDB49"/>
<path id="Vector_2" d="M37.1428 36.0715H7.14275C6.7499 36.0715 6.42847 35.7501 6.42847 35.3572V12.5001C6.42847 12.1072 6.7499 11.7858 7.14275 11.7858H37.1428C37.5356 11.7858 37.857 12.1072 37.857 12.5001V35.3572C37.857 35.7501 37.5356 36.0715 37.1428 36.0715ZM7.85704 34.6429H36.4285V13.2143H7.85704V34.6429Z" fill="#004241"/>
</g>
<g id="Group_2">
<path id="Vector_3" d="M33.2145 21.0714H21.7859V32.1428H33.2145V21.0714Z" fill="#98D2E2"/>
<path id="Vector_4" d="M33.2144 32.8572H21.7858C21.393 32.8572 21.0715 32.5357 21.0715 32.1429V21.0715C21.0715 20.6786 21.393 20.3572 21.7858 20.3572H33.2144C33.6072 20.3572 33.9287 20.6786 33.9287 21.0715V32.1429C33.9287 32.5357 33.6072 32.8572 33.2144 32.8572ZM22.5001 31.4286H32.5001V21.7857H22.5001V31.4286Z" fill="#004241"/>
</g>
<g id="Group_3">
<path id="Vector_5" d="M18.2144 21.0714H11.0715V35.3571H18.2144V21.0714Z" fill="#98D2E2"/>
<path id="Vector_6" d="M18.2143 36.0715H11.0715C10.6786 36.0715 10.3572 35.75 10.3572 35.3572V21.0715C10.3572 20.6786 10.6786 20.3572 11.0715 20.3572H18.2143C18.6072 20.3572 18.9286 20.6786 18.9286 21.0715V35.3572C18.9286 35.75 18.6072 36.0715 18.2143 36.0715ZM11.7857 34.6429H17.5V21.7857H11.7857V34.6429Z" fill="#004241"/>
</g>
<g id="Group_4">
<path id="Vector_7" d="M9.76071 5.35718C9.03214 5.35718 8.36429 5.76789 8.03929 6.42146L5.35357 11.7929C5.12143 12.2572 5 12.7679 5 13.2893V15.2607C5 16.7822 6.15 18.1108 7.66786 18.2107C9.33214 18.3179 10.7143 17 10.7143 15.3607V13.025C10.7143 12.6786 10.7714 12.3357 10.8786 12.0107L13.0964 5.36075H9.76071V5.35718Z" fill="#DD7957"/>
<path id="Vector_8" d="M7.86064 18.9286C7.78207 18.9286 7.69993 18.9286 7.62136 18.9215C5.74993 18.8001 4.28564 17.1929 4.28564 15.2608V13.2893C4.28564 12.6643 4.43207 12.0358 4.71422 11.4751L7.39993 6.10363C7.84993 5.20363 8.7535 4.64648 9.76064 4.64648H13.0964C13.3249 4.64648 13.5428 4.7572 13.6749 4.94291C13.8071 5.12863 13.8464 5.36791 13.7714 5.58577L11.5535 12.2358C11.4678 12.4893 11.4249 12.7572 11.4249 13.0251V15.3608C11.4249 16.3429 11.0142 17.2929 10.2964 17.9679C9.6285 18.5965 8.76779 18.9322 7.85707 18.9322L7.86064 18.9286ZM9.76064 6.07148C9.29993 6.07148 8.88564 6.32863 8.6785 6.73934L5.99279 12.1108C5.81064 12.4751 5.71422 12.8822 5.71422 13.2858V15.2572C5.71422 16.4393 6.59279 17.4215 7.71422 17.4929C8.31779 17.5322 8.88564 17.3286 9.32493 16.9179C9.76064 16.5072 10.0035 15.9536 10.0035 15.3536V13.0179C10.0035 12.5965 10.0714 12.1786 10.2035 11.7751L12.1071 6.06791H9.76422L9.76064 6.07148Z" fill="#004241"/>
</g>
<g id="Group_5">
<path id="Vector_9" d="M17.618 5.35706L16.4287 12.4999V15.3571C16.4287 16.9356 17.7073 18.2142 19.2859 18.2142C20.8644 18.2142 22.143 16.9356 22.143 15.3571V5.35706H17.618Z" fill="#DD7957"/>
<path id="Vector_10" d="M19.2858 18.9285C17.3179 18.9285 15.7144 17.325 15.7144 15.3571V12.5C15.7144 12.4607 15.7144 12.4214 15.7251 12.3821L16.9144 5.23925C16.9715 4.89639 17.2715 4.64282 17.6179 4.64282H22.1429C22.5358 4.64282 22.8572 4.96425 22.8572 5.35711V15.3571C22.8572 17.325 21.2536 18.9285 19.2858 18.9285ZM17.1429 12.5607V15.3571C17.1429 16.5393 18.1036 17.5 19.2858 17.5C20.4679 17.5 21.4286 16.5393 21.4286 15.3571V6.07139H18.2251L17.1429 12.5607Z" fill="#004241"/>
</g>
<g id="Group_6">
<path id="Vector_11" d="M26.6678 5.35706H22.1428V15.3571C22.1428 16.9356 23.4214 18.2142 25 18.2142C26.5785 18.2142 27.8571 16.9356 27.8571 15.3571V12.4999L26.6678 5.35706Z" fill="#F2E9D7"/>
<path id="Vector_12" d="M24.9999 18.9285C23.032 18.9285 21.4285 17.325 21.4285 15.3571V5.35711C21.4285 4.96425 21.7499 4.64282 22.1428 4.64282H26.6678C27.0178 4.64282 27.3142 4.89639 27.3713 5.23925L28.5606 12.3821C28.5678 12.4214 28.5713 12.4607 28.5713 12.5V15.3571C28.5713 17.325 26.9678 18.9285 24.9999 18.9285ZM22.857 6.07139V15.3571C22.857 16.5393 23.8178 17.5 24.9999 17.5C26.182 17.5 27.1428 16.5393 27.1428 15.3571V12.5607L26.0606 6.07139H22.857Z" fill="#004241"/>
</g>
<g id="Group_7">
<path id="Vector_13" d="M13.0963 5.35718L10.9463 11.8107C10.7928 12.2679 10.7178 12.7465 10.7178 13.225V15.2572C10.7178 16.7786 11.8678 18.1072 13.3856 18.2072C15.0499 18.3143 16.4321 16.9965 16.4321 15.3572V12.5L17.6213 5.35718H13.0963Z" fill="#F2E9D7"/>
<path id="Vector_14" d="M13.575 18.9286C13.4964 18.9286 13.4143 18.9286 13.3357 18.9215C11.4643 18.8001 10 17.1929 10 15.2608V13.2286C10 12.6715 10.0893 12.1179 10.2679 11.5893L12.4179 5.13577C12.5143 4.84291 12.7893 4.64648 13.0964 4.64648H17.6214C17.8321 4.64648 18.0321 4.73934 18.1679 4.90006C18.3036 5.06077 18.3607 5.27148 18.3286 5.47863L17.1464 12.5643V15.3608C17.1464 16.3429 16.7357 17.2929 16.0179 17.9679C15.35 18.5965 14.4893 18.9322 13.5786 18.9322L13.575 18.9286ZM13.6107 6.07148L11.6214 12.0358C11.4929 12.4215 11.4286 12.8215 11.4286 13.2251V15.2572C11.4286 16.4393 12.3071 17.4215 13.4286 17.4929C14.0286 17.5286 14.6 17.3286 15.0393 16.9179C15.475 16.5072 15.7179 15.9536 15.7179 15.3536V12.4965C15.7179 12.4572 15.7179 12.4179 15.7286 12.3786L16.7821 6.06791H13.6179L13.6107 6.07148Z" fill="#004241"/>
</g>
<g id="Group_8">
<path id="Vector_15" d="M31.1893 5.35706H26.6643L27.8536 12.4999V15.2606C27.8536 16.7821 29.0036 18.1106 30.5214 18.2106C32.1857 18.3178 33.5679 16.9999 33.5679 15.3606V12.9428C33.5679 12.6535 33.5214 12.3642 33.4286 12.0892L31.1857 5.36063L31.1893 5.35706Z" fill="#DD7957"/>
<path id="Vector_16" d="M30.7179 18.9285C30.6393 18.9285 30.5572 18.9285 30.4786 18.9214C28.6072 18.8 27.1429 17.1928 27.1429 15.2607V12.5607L25.9607 5.47497C25.925 5.26782 25.9857 5.05711 26.1215 4.89639C26.2572 4.73568 26.4572 4.64282 26.6679 4.64282H31.1929C31.5 4.64282 31.7715 4.83925 31.8715 5.13211L34.1143 11.8607C34.2322 12.2107 34.2893 12.5714 34.2893 12.9393V15.3571C34.2893 16.3393 33.8786 17.2893 33.1607 17.9643C32.4929 18.5928 31.6322 18.9285 30.7215 18.9285H30.7179ZM27.5107 6.07139L28.5643 12.3821C28.5715 12.4214 28.575 12.4607 28.575 12.5V15.2607C28.575 16.4428 29.4536 17.425 30.575 17.4964C31.1786 17.5357 31.7465 17.3321 32.1857 16.9214C32.6215 16.5107 32.8643 15.9571 32.8643 15.3571V12.9393C32.8643 12.725 32.8286 12.5143 32.7607 12.3107L30.6822 6.07139H27.5179H27.5107Z" fill="#004241"/>
</g>
<g id="Group_9">
<path id="Vector_17" d="M36.2466 6.42146C35.9216 5.76789 35.2537 5.35718 34.5252 5.35718H31.1895L33.3395 11.8107C33.493 12.2679 33.568 12.7465 33.568 13.225V15.2572C33.568 16.7786 34.718 18.1072 36.2359 18.2072C37.9002 18.3143 39.2823 16.9965 39.2823 15.3572V13.2893C39.2823 12.7715 39.1609 12.2572 38.9287 11.7929L36.243 6.42146H36.2466Z" fill="#F2E9D7"/>
<path id="Vector_18" d="M36.4323 18.9286C36.3537 18.9286 36.2715 18.9286 36.193 18.9215C34.3215 18.8001 32.8572 17.1929 32.8572 15.2608V13.2286C32.8572 12.8251 32.793 12.4251 32.6644 12.0393L30.5144 5.58577C30.443 5.36791 30.4787 5.12863 30.6108 4.94291C30.743 4.7572 30.9608 4.64648 31.1894 4.64648H34.5251C35.5322 4.64648 36.4358 5.20363 36.8858 6.10363L39.5715 11.4751C39.8501 12.0358 40.0001 12.6643 40.0001 13.2893V15.3572C40.0001 16.3393 39.5894 17.2893 38.8715 17.9643C38.2037 18.5929 37.343 18.9286 36.4323 18.9286ZM32.1822 6.07148L34.0215 11.5858C34.1965 12.1143 34.2894 12.6679 34.2894 13.2251V15.2572C34.2894 16.4393 35.168 17.4215 36.2894 17.4929C36.893 17.5322 37.4608 17.3286 37.9001 16.9179C38.3358 16.5072 38.5787 15.9536 38.5787 15.3536V13.2858C38.5787 12.8786 38.4822 12.4715 38.3001 12.1108L35.6144 6.73934C35.4072 6.32506 34.993 6.07148 34.5323 6.07148H32.1894H32.1822Z" fill="#004241"/>
</g>
<g id="Group_10">
<path id="Vector_19" d="M4.28572 20.3713H0.721436V26.0713H4.28572V20.3713Z" fill="#F2E9D7"/>
<path id="Vector_20" d="M4.28565 26.7857H0.721366C0.328509 26.7857 0.00708008 26.4642 0.00708008 26.0714V20.3714C0.00708008 19.9785 0.328509 19.6571 0.721366 19.6571H4.28565C4.67851 19.6571 4.99994 19.9785 4.99994 20.3714V26.0714C4.99994 26.4642 4.67851 26.7857 4.28565 26.7857ZM1.43565 25.3571H3.57137V21.0857H1.43565V25.3571Z" fill="#004241"/>
</g>
<path id="Vector_21" d="M7.14279 23.2143H4.99993C4.60707 23.2143 4.28564 22.8929 4.28564 22.5001C4.28564 22.1072 4.60707 21.7858 4.99993 21.7858H7.14279C7.53564 21.7858 7.85707 22.1072 7.85707 22.5001C7.85707 22.8929 7.53564 23.2143 7.14279 23.2143Z" fill="#004241"/>
<path id="Vector_22" d="M16.0714 29.5035H13.3749C12.9821 29.5035 12.6606 29.1821 12.6606 28.7892C12.6606 28.3964 12.9821 28.075 13.3749 28.075H16.0714C16.4642 28.075 16.7856 28.3964 16.7856 28.7892C16.7856 29.1821 16.4642 29.5035 16.0714 29.5035Z" fill="white"/>
<path id="Vector_23" d="M30.6215 29.5036H28.4001C28.0072 29.5036 27.6858 29.1821 27.6858 28.7893V27.8571H26.2858V28.7893C26.2858 29.1821 25.9644 29.5036 25.5715 29.5036H23.9679C23.5751 29.5036 23.2537 29.1821 23.2537 28.7893C23.2537 28.3964 23.5751 28.075 23.9679 28.075H24.8572V27.1428C24.8572 26.75 25.1787 26.4286 25.5715 26.4286H28.4001C28.7929 26.4286 29.1144 26.75 29.1144 27.1428V28.075H29.9072V25.2714C29.9072 24.8786 30.2287 24.5571 30.6215 24.5571C31.0144 24.5571 31.3358 24.8786 31.3358 25.2714V28.7893C31.3358 29.1821 31.0144 29.5036 30.6215 29.5036Z" fill="white"/>
</g>
<defs>
<clipPath id="clip0_36_165">
<rect width="40" height="40" fill="white"/>
</clipPath>
</defs>
</svg>
