<svg width="40" height="40" viewBox="0 0 40 40" fill="none" xmlns="http://www.w3.org/2000/svg">
<g clip-path="url(#clip0_309_77)">
<path d="M33.2143 32.8571H21.7857C21.3928 32.8571 21.0714 32.5357 21.0714 32.1429V21.0714C21.0714 20.6786 21.3928 20.3571 21.7857 20.3571H33.2143C33.6071 20.3571 33.9286 20.6786 33.9286 21.0714V32.1429C33.9286 32.5357 33.6071 32.8571 33.2143 32.8571ZM22.5 31.4286H32.5V21.7857H22.5V31.4286Z" fill="#667085"/>
<path d="M18.2143 36.0714H11.0714C10.6785 36.0714 10.3571 35.75 10.3571 35.3571V21.0714C10.3571 20.6786 10.6785 20.3571 11.0714 20.3571H18.2143C18.6071 20.3571 18.9285 20.6786 18.9285 21.0714V35.3571C18.9285 35.75 18.6071 36.0714 18.2143 36.0714ZM11.7857 34.6429H17.5V21.7857H11.7857V34.6429Z" fill="#667085"/>
<path d="M7.86071 18.9286C7.78213 18.9286 7.69999 18.9286 7.62142 18.9214C5.74999 18.8 4.28571 17.1929 4.28571 15.2607V13.2893C4.28571 12.6643 4.43213 12.0357 4.71428 11.475L7.39999 6.10357C7.84999 5.20357 8.75356 4.64642 9.76071 4.64642H13.0964C13.325 4.64642 13.5428 4.75714 13.675 4.94285C13.8071 5.12857 13.8464 5.36785 13.7714 5.58571L11.5536 12.2357C11.4678 12.4893 11.425 12.7571 11.425 13.025V15.3607C11.425 16.3429 11.0143 17.2929 10.2964 17.9679C9.62856 18.5964 8.76785 18.9321 7.85713 18.9321L7.86071 18.9286ZM9.76071 6.07142C9.29999 6.07142 8.88571 6.32857 8.67856 6.73928L5.99285 12.1107C5.81071 12.475 5.71428 12.8821 5.71428 13.2857V15.2571C5.71428 16.4393 6.59285 17.4214 7.71428 17.4929C8.31785 17.5321 8.88571 17.3286 9.32499 16.9179C9.76071 16.5071 10.0036 15.9536 10.0036 15.3536V13.0179C10.0036 12.5964 10.0714 12.1786 10.2036 11.775L12.1071 6.06785H9.76428L9.76071 6.07142Z" fill="#667085"/>
<path d="M19.2857 18.9286C17.3179 18.9286 15.7143 17.325 15.7143 15.3571V12.5C15.7143 12.4607 15.7143 12.4214 15.725 12.3821L16.9143 5.23928C16.9714 4.89642 17.2714 4.64285 17.6179 4.64285H22.1429C22.5357 4.64285 22.8572 4.96428 22.8572 5.35714V15.3571C22.8572 17.325 21.2536 18.9286 19.2857 18.9286ZM17.1429 12.5607V15.3571C17.1429 16.5393 18.1036 17.5 19.2857 17.5C20.4679 17.5 21.4286 16.5393 21.4286 15.3571V6.07142H18.225L17.1429 12.5607Z" fill="#667085"/>
<path d="M25 18.9286C23.0322 18.9286 21.4286 17.325 21.4286 15.3571V5.35714C21.4286 4.96428 21.75 4.64285 22.1429 4.64285H26.6679C27.0179 4.64285 27.3143 4.89642 27.3714 5.23928L28.5607 12.3821C28.5679 12.4214 28.5714 12.4607 28.5714 12.5V15.3571C28.5714 17.325 26.9679 18.9286 25 18.9286ZM22.8572 6.07142V15.3571C22.8572 16.5393 23.8179 17.5 25 17.5C26.1822 17.5 27.1429 16.5393 27.1429 15.3571V12.5607L26.0607 6.07142H22.8572Z" fill="#667085"/>
<path d="M13.575 18.9286C13.4964 18.9286 13.4143 18.9286 13.3357 18.9214C11.4643 18.8 10 17.1929 10 15.2607V13.2286C10 12.6714 10.0893 12.1179 10.2679 11.5893L12.4179 5.13571C12.5143 4.84285 12.7893 4.64642 13.0964 4.64642H17.6214C17.8321 4.64642 18.0321 4.73928 18.1679 4.89999C18.3036 5.06071 18.3607 5.27142 18.3286 5.47857L17.1464 12.5643V15.3607C17.1464 16.3429 16.7357 17.2929 16.0179 17.9679C15.35 18.5964 14.4893 18.9321 13.5786 18.9321L13.575 18.9286ZM13.6107 6.07142L11.6214 12.0357C11.4929 12.4214 11.4286 12.8214 11.4286 13.225V15.2571C11.4286 16.4393 12.3071 17.4214 13.4286 17.4929C14.0286 17.5286 14.6 17.3286 15.0393 16.9179C15.475 16.5071 15.7179 15.9536 15.7179 15.3536V12.4964C15.7179 12.4571 15.7179 12.4179 15.7286 12.3786L16.7821 6.06785H13.6179L13.6107 6.07142Z" fill="#667085"/>
<path d="M30.7179 18.9286C30.6393 18.9286 30.5572 18.9286 30.4786 18.9214C28.6072 18.8 27.1429 17.1929 27.1429 15.2607V12.5607L25.9607 5.475C25.925 5.26785 25.9857 5.05714 26.1215 4.89642C26.2572 4.73571 26.4572 4.64285 26.6679 4.64285H31.1929C31.5 4.64285 31.7715 4.83928 31.8715 5.13214L34.1143 11.8607C34.2322 12.2107 34.2893 12.5714 34.2893 12.9393V15.3571C34.2893 16.3393 33.8786 17.2893 33.1607 17.9643C32.4929 18.5929 31.6322 18.9286 30.7215 18.9286H30.7179ZM27.5107 6.07142L28.5643 12.3821C28.5715 12.4214 28.575 12.4607 28.575 12.5V15.2607C28.575 16.4429 29.4536 17.425 30.575 17.4964C31.1786 17.5357 31.7465 17.3321 32.1857 16.9214C32.6215 16.5107 32.8643 15.9571 32.8643 15.3571V12.9393C32.8643 12.725 32.8286 12.5143 32.7607 12.3107L30.6822 6.07142H27.5179H27.5107Z" fill="#667085"/>
<path d="M36.4321 18.9286C36.3536 18.9286 36.2714 18.9286 36.1928 18.9214C34.3214 18.8 32.8571 17.1929 32.8571 15.2607V13.2286C32.8571 12.825 32.7928 12.425 32.6643 12.0393L30.5143 5.58571C30.4428 5.36785 30.4786 5.12857 30.6107 4.94285C30.7428 4.75714 30.9607 4.64642 31.1893 4.64642H34.525C35.5321 4.64642 36.4357 5.20357 36.8857 6.10357L39.5714 11.475C39.85 12.0357 40 12.6643 40 13.2893V15.3571C40 16.3393 39.5893 17.2893 38.8714 17.9643C38.2036 18.5929 37.3428 18.9286 36.4321 18.9286ZM32.1821 6.07142L34.0214 11.5857C34.1964 12.1143 34.2893 12.6679 34.2893 13.225V15.2571C34.2893 16.4393 35.1678 17.4214 36.2893 17.4929C36.8928 17.5321 37.4607 17.3286 37.9 16.9179C38.3357 16.5071 38.5786 15.9536 38.5786 15.3536V13.2857C38.5786 12.8786 38.4821 12.4714 38.3 12.1107L35.6143 6.73928C35.4071 6.325 34.9928 6.07142 34.5321 6.07142H32.1893H32.1821Z" fill="#667085"/>
<path d="M7.86071 18.9286C7.78213 18.9286 7.69999 18.9286 7.62142 18.9214C5.74999 18.8 4.28571 17.1929 4.28571 15.2607V13.2893C4.28571 12.6643 4.43213 12.0357 4.71428 11.475L7.39999 6.10357C7.84999 5.20357 8.75356 4.64642 9.76071 4.64642H13.0964C13.325 4.64642 13.5428 4.75714 13.675 4.94285C13.8071 5.12857 13.8464 5.36785 13.7714 5.58571L11.5536 12.2357C11.4678 12.4893 11.425 12.7571 11.425 13.025V15.3607C11.425 16.3429 11.0143 17.2929 10.2964 17.9679C9.62856 18.5964 8.76785 18.9321 7.85713 18.9321L7.86071 18.9286ZM9.76071 6.07142C9.29999 6.07142 8.88571 6.32857 8.67856 6.73928L5.99285 12.1107C5.81071 12.475 5.71428 12.8821 5.71428 13.2857V15.2571C5.71428 16.4393 6.59285 17.4214 7.71428 17.4929C8.31785 17.5321 8.88571 17.3286 9.32499 16.9179C9.76071 16.5071 10.0036 15.9536 10.0036 15.3536V13.0179C10.0036 12.5964 10.0714 12.1786 10.2036 11.775L12.1071 6.06785H9.76428L9.76071 6.07142Z" fill="#667085"/>
<path d="M19.2857 18.9286C17.3179 18.9286 15.7143 17.325 15.7143 15.3571V12.5C15.7143 12.4607 15.7143 12.4214 15.725 12.3821L16.9143 5.23928C16.9714 4.89642 17.2714 4.64285 17.6179 4.64285H22.1429C22.5357 4.64285 22.8572 4.96428 22.8572 5.35714V15.3571C22.8572 17.325 21.2536 18.9286 19.2857 18.9286ZM17.1429 12.5607V15.3571C17.1429 16.5393 18.1036 17.5 19.2857 17.5C20.4679 17.5 21.4286 16.5393 21.4286 15.3571V6.07142H18.225L17.1429 12.5607Z" fill="#667085"/>
<path d="M25 18.9286C23.0322 18.9286 21.4286 17.325 21.4286 15.3571V5.35714C21.4286 4.96428 21.75 4.64285 22.1429 4.64285H26.6679C27.0179 4.64285 27.3143 4.89642 27.3714 5.23928L28.5607 12.3821C28.5679 12.4214 28.5714 12.4607 28.5714 12.5V15.3571C28.5714 17.325 26.9679 18.9286 25 18.9286ZM22.8572 6.07142V15.3571C22.8572 16.5393 23.8179 17.5 25 17.5C26.1822 17.5 27.1429 16.5393 27.1429 15.3571V12.5607L26.0607 6.07142H22.8572Z" fill="#667085"/>
<path d="M13.575 18.9286C13.4964 18.9286 13.4143 18.9286 13.3357 18.9214C11.4643 18.8 10 17.1929 10 15.2607V13.2286C10 12.6714 10.0893 12.1179 10.2679 11.5893L12.4179 5.13571C12.5143 4.84285 12.7893 4.64642 13.0964 4.64642H17.6214C17.8321 4.64642 18.0321 4.73928 18.1679 4.89999C18.3036 5.06071 18.3607 5.27142 18.3286 5.47857L17.1464 12.5643V15.3607C17.1464 16.3429 16.7357 17.2929 16.0179 17.9679C15.35 18.5964 14.4893 18.9321 13.5786 18.9321L13.575 18.9286ZM13.6107 6.07142L11.6214 12.0357C11.4929 12.4214 11.4286 12.8214 11.4286 13.225V15.2571C11.4286 16.4393 12.3071 17.4214 13.4286 17.4929C14.0286 17.5286 14.6 17.3286 15.0393 16.9179C15.475 16.5071 15.7179 15.9536 15.7179 15.3536V12.4964C15.7179 12.4571 15.7179 12.4179 15.7286 12.3786L16.7821 6.06785H13.6179L13.6107 6.07142Z" fill="#667085"/>
<path d="M30.7179 18.9286C30.6393 18.9286 30.5572 18.9286 30.4786 18.9214C28.6072 18.8 27.1429 17.1929 27.1429 15.2607V12.5607L25.9607 5.475C25.925 5.26785 25.9857 5.05714 26.1215 4.89642C26.2572 4.73571 26.4572 4.64285 26.6679 4.64285H31.1929C31.5 4.64285 31.7715 4.83928 31.8715 5.13214L34.1143 11.8607C34.2322 12.2107 34.2893 12.5714 34.2893 12.9393V15.3571C34.2893 16.3393 33.8786 17.2893 33.1607 17.9643C32.4929 18.5929 31.6322 18.9286 30.7215 18.9286H30.7179ZM27.5107 6.07142L28.5643 12.3821C28.5715 12.4214 28.575 12.4607 28.575 12.5V15.2607C28.575 16.4429 29.4536 17.425 30.575 17.4964C31.1786 17.5357 31.7465 17.3321 32.1857 16.9214C32.6215 16.5107 32.8643 15.9571 32.8643 15.3571V12.9393C32.8643 12.725 32.8286 12.5143 32.7607 12.3107L30.6822 6.07142H27.5179H27.5107Z" fill="#667085"/>
<path d="M36.4321 18.9286C36.3536 18.9286 36.2714 18.9286 36.1928 18.9214C34.3214 18.8 32.8571 17.1929 32.8571 15.2607V13.2286C32.8571 12.825 32.7928 12.425 32.6643 12.0393L30.5143 5.58571C30.4428 5.36785 30.4786 5.12857 30.6107 4.94285C30.7428 4.75714 30.9607 4.64642 31.1893 4.64642H34.525C35.5321 4.64642 36.4357 5.20357 36.8857 6.10357L39.5714 11.475C39.85 12.0357 40 12.6643 40 13.2893V15.3571C40 16.3393 39.5893 17.2893 38.8714 17.9643C38.2036 18.5929 37.3428 18.9286 36.4321 18.9286ZM32.1821 6.07142L34.0214 11.5857C34.1964 12.1143 34.2893 12.6679 34.2893 13.225V15.2571C34.2893 16.4393 35.1678 17.4214 36.2893 17.4929C36.8928 17.5321 37.4607 17.3286 37.9 16.9179C38.3357 16.5071 38.5786 15.9536 38.5786 15.3536V13.2857C38.5786 12.8786 38.4821 12.4714 38.3 12.1107L35.6143 6.73928C35.4071 6.325 34.9928 6.07142 34.5321 6.07142H32.1893H32.1821Z" fill="#667085"/>
<path d="M4.28571 26.7857H0.721427C0.32857 26.7857 0.00714111 26.4643 0.00714111 26.0714V20.3714C0.00714111 19.9786 0.32857 19.6571 0.721427 19.6571H4.28571C4.67857 19.6571 5 19.9786 5 20.3714V26.0714C5 26.4643 4.67857 26.7857 4.28571 26.7857ZM1.43571 25.3571H3.57143V21.0857H1.43571V25.3571Z" fill="#667085"/>
<path d="M7.14285 23.2143H4.99999C4.60713 23.2143 4.28571 22.8928 4.28571 22.5C4.28571 22.1071 4.60713 21.7857 4.99999 21.7857H7.14285C7.53571 21.7857 7.85713 22.1071 7.85713 22.5C7.85713 22.8928 7.53571 23.2143 7.14285 23.2143Z" fill="#667085"/>
<path d="M37.8574 35.3574C37.8573 35.7501 37.5353 36.0713 37.1426 36.0713H7.14258C6.74995 36.0711 6.42887 35.75 6.42871 35.3574V18H7.85742V34.6426H36.4287V18H37.8574V35.3574Z" fill="#667085"/>
</g>
<defs>
<clipPath id="clip0_309_77">
<rect width="40" height="40" fill="white"/>
</clipPath>
</defs>
</svg>
