<?xml version="1.0" encoding="UTF-8"?>
<svg id="outline_icons" xmlns="http://www.w3.org/2000/svg" viewBox="0 0 112 112">
  <defs>
    <style>
      .cls-1 {
        fill: none;
      }

      .cls-2 {
        fill: #dd7957;
      }

      .cls-3 {
        fill: #e2dbc9;
      }

      .cls-4 {
        fill: #98d2e2;
      }

      .cls-5 {
        fill: #004241;
      }

      .cls-6 {
        fill: #827773;
      }
    </style>
  </defs>
  <g>
    <g>
      <polyline class="cls-2" points="37.87 75.52 28.44 75.52 28.44 86.84 13.02 86.84 13.02 92.93 3.01 92.93 3.01 101.83 40.37 101.83 49.89 101.83 49.89 92.7 45.79 92.7 45.79 83.85"/>
      <path class="cls-5" d="M49.89,103.83H3.01c-1.1,0-2-.9-2-2v-8.9c0-1.1.9-2,2-2h8.01v-4.09c0-1.1.9-2,2-2h13.43v-9.32c0-1.1.9-2,2-2h9.43c1.1,0,2,.9,2,2s-.9,2-2,2h-7.43v9.32c0,1.1-.9,2-2,2h-13.43v4.09c0,1.1-.9,2-2,2H5.01v4.9h42.88v-5.13h-2.11c-1.1,0-2-.9-2-2v-8.85c0-1.1.9-2,2-2s2,.9,2,2v6.85h2.11c1.1,0,2,.9,2,2v9.13c0,1.1-.9,2-2,2Z"/>
    </g>
    <g>
      <polygon class="cls-3" points="38.4 33.76 38.4 46.09 65.99 46.09 65.99 59.18 38.4 59.18 38.4 101.82 108.99 101.82 108.99 33.76 38.4 33.76"/>
      <path class="cls-5" d="M108.99,103.82H38.4c-1.1,0-2-.9-2-2v-42.64c0-1.1.9-2,2-2h25.59v-9.1h-25.59c-1.1,0-2-.9-2-2v-12.33c0-1.1.9-2,2-2h70.59c1.1,0,2,.9,2,2v68.07c0,1.1-.9,2-2,2ZM40.4,99.82h66.59V35.76H40.4v8.33h25.59c1.1,0,2,.9,2,2v13.1c0,1.1-.9,2-2,2h-25.59v38.64Z"/>
    </g>
    <g>
      <g>
        <rect class="cls-4" x="46.43" y="73.65" width="11.16" height="13.1"/>
        <path class="cls-5" d="M57.58,88.75h-11.16c-1.1,0-2-.9-2-2v-13.1c0-1.1.9-2,2-2h11.16c1.1,0,2,.9,2,2v13.1c0,1.1-.9,2-2,2ZM48.43,84.75h7.16v-9.1h-7.16v9.1Z"/>
      </g>
      <g>
        <rect class="cls-4" x="89.81" y="73.65" width="11.16" height="13.1"/>
        <path class="cls-5" d="M100.96,88.75h-11.16c-1.1,0-2-.9-2-2v-13.1c0-1.1.9-2,2-2h11.16c1.1,0,2,.9,2,2v13.1c0,1.1-.9,2-2,2ZM91.81,84.75h7.16v-9.1h-7.16v9.1Z"/>
      </g>
    </g>
    <g>
      <rect class="cls-4" x="89.17" y="46.18" width="11.16" height="13.1"/>
      <path class="cls-5" d="M100.32,61.28h-11.16c-1.1,0-2-.9-2-2v-13.1c0-1.1.9-2,2-2h11.16c1.1,0,2,.9,2,2v13.1c0,1.1-.9,2-2,2ZM91.17,57.28h7.16v-9.1h-7.16v9.1Z"/>
    </g>
    <g>
      <rect class="cls-6" x="65.99" y="73.1" width="15.41" height="28.18"/>
      <path class="cls-5" d="M81.4,103.28h-15.41c-1.1,0-2-.9-2-2v-28.18c0-1.1.9-2,2-2h15.41c1.1,0,2,.9,2,2v28.18c0,1.1-.9,2-2,2ZM67.99,99.28h11.41v-24.18h-11.41v24.18Z"/>
    </g>
    <path class="cls-5" d="M16.86,87.95c-1.1,0-2-.9-2-2V14.61c0-1.1.9-2,2-2s2,.9,2,2v71.35c0,1.1-.9,2-2,2Z"/>
    <path class="cls-5" d="M31.54,52.28h-14.68c-1.1,0-2-.9-2-2s.9-2,2-2h10.44l-10.92-13.25c-.49-.6-.6-1.42-.27-2.12.33-.7,1.03-1.15,1.81-1.15h13.61c1.1,0,2,.9,2,2s-.9,2-2,2h-9.38l10.92,13.25c.49.6.6,1.42.27,2.12-.33.7-1.03,1.15-1.81,1.15Z"/>
    <g>
      <polygon class="cls-2" points="108.99 33.76 63.45 33.76 66.18 24.44 68 18.2 60.95 18.06 62.7 10.17 98.29 10.17 108.99 33.76"/>
      <path class="cls-5" d="M108.99,35.76h-45.54c-.63,0-1.22-.3-1.6-.8-.38-.5-.5-1.16-.32-1.76l3.82-13.05-4.43-.08c-.6-.01-1.16-.29-1.53-.76-.37-.47-.51-1.08-.38-1.67l1.75-7.9c.2-.92,1.01-1.57,1.95-1.57h35.59c.79,0,1.5.46,1.82,1.17l10.69,23.59c.28.62.23,1.34-.14,1.91s-1,.92-1.68.92ZM66.12,31.76h39.77l-8.88-19.59h-32.7l-.87,3.94,4.61.09c.62.01,1.21.31,1.57.82.37.5.48,1.15.31,1.75l-3.8,13Z"/>
    </g>
    <path class="cls-5" d="M39.39,28.63c-.26,0-.52-.05-.77-.16-1.02-.43-1.5-1.6-1.07-2.62l6.81-16.2c.31-.74,1.04-1.22,1.84-1.22h7.79c1.1,0,2,.9,2,2s-.9,2-2,2h-6.46l-6.29,14.98c-.32.76-1.06,1.22-1.84,1.23Z"/>
    <path class="cls-5" d="M21.7,73.87c-.43,0-.86-.14-1.23-.42-.87-.68-1.02-1.94-.34-2.81l7.31-9.35h-10.58c-1.1,0-2-.9-2-2s.9-2,2-2h14.68c.76,0,1.46.44,1.8,1.12.33.69.25,1.51-.22,2.11l-9.84,12.59c-.39.5-.98.77-1.58.77Z"/>
  </g>
  <rect class="cls-1" width="112" height="112"/>
</svg>