<?xml version="1.0" encoding="UTF-8"?>
<svg id="flatten_icons" xmlns="http://www.w3.org/2000/svg" viewBox="0 0 112 112">
  <defs>
    <style>
      .cls-1 {
        fill: none;
      }

      .cls-2 {
        fill: #817a91;
      }

      .cls-3 {
        fill: #d3d9dc;
      }

      .cls-4 {
        fill: #e7edef;
      }

      .cls-5 {
        fill: #ed706b;
      }

      .cls-6 {
        fill: #004241;
      }

      .cls-7 {
        fill: #8e889b;
      }
    </style>
  </defs>
  <g id="four-electrique">
    <g id="area">
      <rect class="cls-1" width="112" height="112"/>
    </g>
    <g id="four">
      <g>
        <g>
          <rect class="cls-7" x="10.39" y="86.45" width="11.39" height="5.76"/>
          <path class="cls-6" d="M21.78,94.21h-11.39c-1.1,0-2-.9-2-2v-5.76c0-1.1.9-2,2-2h11.39c1.1,0,2,.9,2,2v5.76c0,1.1-.9,2-2,2ZM12.39,90.21h7.39v-1.76h-7.39v1.76Z"/>
        </g>
        <g>
          <rect class="cls-7" x="90.8" y="86.45" width="11.39" height="5.76"/>
          <path class="cls-6" d="M102.19,94.21h-11.39c-1.1,0-2-.9-2-2v-5.76c0-1.1.9-2,2-2h11.39c1.1,0,2,.9,2,2v5.76c0,1.1-.9,2-2,2ZM92.8,90.21h7.39v-1.76h-7.39v1.76Z"/>
        </g>
      </g>
      <g>
        <rect class="cls-3" x="22.96" y="2.42" width="66.66" height="101.39" rx="3.37" ry="3.37" transform="translate(3.17 109.41) rotate(-90)"/>
        <path class="cls-6" d="M103.62,88.45H8.96c-2.96,0-5.37-2.41-5.37-5.37V23.16c0-2.96,2.41-5.37,5.37-5.37h94.66c2.96,0,5.37,2.41,5.37,5.37v59.93c0,2.96-2.41,5.37-5.37,5.37ZM8.96,21.79c-.75,0-1.37.61-1.37,1.37v59.93c0,.75.61,1.37,1.37,1.37h94.66c.75,0,1.37-.61,1.37-1.37V23.16c0-.75-.61-1.37-1.37-1.37H8.96Z"/>
      </g>
      <g>
        <rect class="cls-5" x="90.72" y="28.48" width="7.81" height="11.1" transform="translate(60.6 128.66) rotate(-90)"/>
        <path class="cls-6" d="M100.18,39.94h-11.1c-1.1,0-2-.9-2-2v-7.81c0-1.1.9-2,2-2h11.1c1.1,0,2,.9,2,2v7.81c0,1.1-.9,2-2,2ZM91.08,35.94h7.1v-3.81h-7.1v3.81Z"/>
      </g>
      <g>
        <circle class="cls-4" cx="94.63" cy="70.82" r="4.99"/>
        <path class="cls-6" d="M94.63,77.8c-1.79,0-3.58-.68-4.94-2.04-1.32-1.32-2.05-3.07-2.05-4.94s.73-3.62,2.05-4.94c2.73-2.72,7.16-2.72,9.88,0h0c2.72,2.72,2.72,7.16,0,9.88-1.36,1.36-3.15,2.04-4.94,2.04ZM94.63,67.83c-.77,0-1.53.29-2.11.87-.56.56-.88,1.31-.88,2.11s.31,1.55.88,2.11c1.17,1.17,3.06,1.17,4.23,0,1.16-1.17,1.16-3.06,0-4.23-.58-.58-1.35-.87-2.11-.87Z"/>
      </g>
      <g>
        <circle class="cls-4" cx="94.63" cy="52.69" r="4.99"/>
        <path class="cls-6" d="M94.63,59.68c-1.79,0-3.58-.68-4.94-2.04-2.72-2.72-2.72-7.16,0-9.88,2.73-2.73,7.16-2.72,9.88,0t0,0c2.72,2.72,2.72,7.16,0,9.88-1.36,1.36-3.15,2.04-4.94,2.04ZM94.63,49.71c-.77,0-1.53.29-2.11.87-1.17,1.17-1.17,3.06,0,4.23,1.17,1.17,3.06,1.17,4.23,0,1.16-1.17,1.16-3.06,0-4.23-.58-.58-1.35-.87-2.11-.87Z"/>
      </g>
      <g>
        <g>
          <path class="cls-2" d="M16.23,30.13v45.86h53.79V30.13H16.23Z"/>
          <path class="cls-6" d="M70.02,77.98H16.23c-1.1,0-2-.9-2-2V30.13c0-1.1.9-2,2-2h53.79c1.1,0,2,.9,2,2v45.86c0,1.1-.9,2-2,2ZM18.23,73.98h49.79v-41.86H18.23v41.86Z"/>
        </g>
        <g>
          <path class="cls-6" d="M25.31,39.94h-.21c-1.1,0-2-.9-2-2s.9-2,2-2h.21c1.1,0,2,.9,2,2s-.9,2-2,2Z"/>
          <path class="cls-6" d="M37.26,39.94h-.21c-1.1,0-2-.9-2-2s.9-2,2-2h.21c1.1,0,2,.9,2,2s-.9,2-2,2Z"/>
          <path class="cls-6" d="M49.21,39.94h-.21c-1.1,0-2-.9-2-2s.9-2,2-2h.21c1.1,0,2,.9,2,2s-.9,2-2,2Z"/>
          <path class="cls-6" d="M61.16,39.94h-.21c-1.1,0-2-.9-2-2s.9-2,2-2h.21c1.1,0,2,.9,2,2s-.9,2-2,2Z"/>
        </g>
        <g>
          <path class="cls-6" d="M31.29,62.02h-.21c-1.1,0-2-.9-2-2s.9-2,2-2h.21c1.1,0,2,.9,2,2s-.9,2-2,2Z"/>
          <path class="cls-6" d="M43.23,62.02h-.21c-1.1,0-2-.9-2-2s.9-2,2-2h.21c1.1,0,2,.9,2,2s-.9,2-2,2Z"/>
          <path class="cls-6" d="M55.18,62.02h-.21c-1.1,0-2-.9-2-2s.9-2,2-2h.21c1.1,0,2,.9,2,2s-.9,2-2,2Z"/>
        </g>
        <g>
          <path class="cls-6" d="M25.31,54.94h-.21c-1.1,0-2-.9-2-2s.9-2,2-2h.21c1.1,0,2,.9,2,2s-.9,2-2,2Z"/>
          <path class="cls-6" d="M37.26,54.94h-.21c-1.1,0-2-.9-2-2s.9-2,2-2h.21c1.1,0,2,.9,2,2s-.9,2-2,2Z"/>
          <path class="cls-6" d="M49.21,54.94h-.21c-1.1,0-2-.9-2-2s.9-2,2-2h.21c1.1,0,2,.9,2,2s-.9,2-2,2Z"/>
          <path class="cls-6" d="M61.16,54.94h-.21c-1.1,0-2-.9-2-2s.9-2,2-2h.21c1.1,0,2,.9,2,2s-.9,2-2,2Z"/>
        </g>
        <g>
          <path class="cls-6" d="M31.29,47.02h-.21c-1.1,0-2-.9-2-2s.9-2,2-2h.21c1.1,0,2,.9,2,2s-.9,2-2,2Z"/>
          <path class="cls-6" d="M43.23,47.02h-.21c-1.1,0-2-.9-2-2s.9-2,2-2h.21c1.1,0,2,.9,2,2s-.9,2-2,2Z"/>
          <path class="cls-6" d="M55.18,47.02h-.21c-1.1,0-2-.9-2-2s.9-2,2-2h.21c1.1,0,2,.9,2,2s-.9,2-2,2Z"/>
        </g>
        <path class="cls-6" d="M62.08,69.95H24.18c-1.1,0-2-.9-2-2s.9-2,2-2h37.9c1.1,0,2,.9,2,2s-.9,2-2,2Z"/>
      </g>
      <path class="cls-6" d="M81.51,87.98c-1.1,0-2-.9-2-2V19.79c0-1.1.9-2,2-2s2,.9,2,2v66.19c0,1.1-.9,2-2,2Z"/>
    </g>
  </g>
</svg>