<svg width="22" height="14" viewBox="0 0 22 14" fill="none" xmlns="http://www.w3.org/2000/svg">
<g id="mini-car 1" clip-path="url(#clip0_1802_683)">
<g id="flatten_icons">
<g id="Group">
<g id="Group_2">
<path id="Vector" d="M10.382 11.0823H20.1863C20.7069 11.0823 21.1313 10.6667 21.1313 10.1548V7.43797C21.1313 6.24359 20.1469 5.27672 18.9263 5.27672H17.5394C16.8001 5.27672 16.1132 4.91359 15.7063 4.30984L14.3413 2.29734C13.7376 1.40922 12.7226 0.871094 11.6332 0.871094H6.62383C5.63945 0.871094 4.7032 1.30859 4.08633 2.06547L1.71945 4.95734C1.2557 5.52609 1.00195 6.23047 1.00195 6.95672V11.078H10.382V11.0823Z" fill="#EF706B"/>
<path id="Vector_2" d="M20.1819 11.9569H1.00195C0.520703 11.9569 0.126953 11.5631 0.126953 11.0819V6.96062C0.126953 6.03312 0.450703 5.1275 1.04133 4.40562L3.4082 1.51375C4.1957 0.55125 5.3682 0 6.62383 0H11.6332C13.0157 0 14.2976 0.678125 15.0676 1.81125L16.4326 3.82375C16.6776 4.18687 17.0932 4.40562 17.5438 4.40562H18.9307C20.6282 4.40562 22.0107 5.77063 22.0107 7.44187V10.1587C22.0107 11.1519 21.197 11.9613 20.1907 11.9613L20.1819 11.9569ZM1.87695 10.2069H20.1819C20.2213 10.2069 20.252 10.1806 20.252 10.1544V7.4375C20.252 6.72875 19.6569 6.15125 18.9219 6.15125H17.5351C16.507 6.15125 15.5488 5.64812 14.9757 4.80375L13.6107 2.79125C13.1688 2.13937 12.4251 1.75 11.6245 1.75H6.61508C5.88883 1.75 5.2107 2.06938 4.7557 2.625L2.38883 5.51687C2.05195 5.92812 1.8682 6.44 1.8682 6.965V10.2113L1.87695 10.2069Z" fill="#004241"/>
</g>
<g id="Group_3">
<path id="Vector_3" d="M5.67039 13.1252C6.82052 13.1252 7.75289 12.1576 7.75289 10.964C7.75289 9.77036 6.82052 8.80273 5.67039 8.80273C4.52026 8.80273 3.58789 9.77036 3.58789 10.964C3.58789 12.1576 4.52026 13.1252 5.67039 13.1252Z" fill="#E4F2F4"/>
<path id="Vector_4" d="M5.67039 14.0002C4.03852 14.0002 2.71289 12.6396 2.71289 10.964C2.71289 9.28836 4.03852 7.92773 5.67039 7.92773C7.30227 7.92773 8.62789 9.28836 8.62789 10.964C8.62789 12.6396 7.30227 14.0002 5.67039 14.0002ZM5.67039 9.67773C5.00539 9.67773 4.46289 10.2552 4.46289 10.964C4.46289 11.6727 5.00539 12.2502 5.67039 12.2502C6.33539 12.2502 6.87789 11.6727 6.87789 10.964C6.87789 10.2552 6.33539 9.67773 5.67039 9.67773Z" fill="#004241"/>
</g>
<g id="Group_4">
<path id="Vector_5" d="M15.1899 13.1252C16.3401 13.1252 17.2724 12.1576 17.2724 10.964C17.2724 9.77036 16.3401 8.80273 15.1899 8.80273C14.0398 8.80273 13.1074 9.77036 13.1074 10.964C13.1074 12.1576 14.0398 13.1252 15.1899 13.1252Z" fill="#E4F2F4"/>
<path id="Vector_6" d="M15.1899 14.0002C13.558 14.0002 12.2324 12.6396 12.2324 10.964C12.2324 9.28836 13.558 7.92773 15.1899 7.92773C16.8218 7.92773 18.1474 9.28836 18.1474 10.964C18.1474 12.6396 16.8218 14.0002 15.1899 14.0002ZM15.1899 9.67773C14.5249 9.67773 13.9824 10.2552 13.9824 10.964C13.9824 11.6727 14.5249 12.2502 15.1899 12.2502C15.8549 12.2502 16.3974 11.6727 16.3974 10.964C16.3974 10.2552 15.8549 9.67773 15.1899 9.67773Z" fill="#004241"/>
</g>
<path id="Vector_7" d="M7.47734 5.08789H6.33984C5.85859 5.08789 5.46484 4.69414 5.46484 4.21289C5.46484 3.73164 5.85859 3.33789 6.33984 3.33789H7.47734C7.95859 3.33789 8.35234 3.73164 8.35234 4.21289C8.35234 4.69414 7.95859 5.08789 7.47734 5.08789Z" fill="#004241"/>
<path id="Vector_8" d="M12.0184 5.08789H10.8809C10.3996 5.08789 10.0059 4.69414 10.0059 4.21289C10.0059 3.73164 10.3996 3.33789 10.8809 3.33789H12.0184C12.4996 3.33789 12.8934 3.73164 12.8934 4.21289C12.8934 4.69414 12.4996 5.08789 12.0184 5.08789Z" fill="#004241"/>
</g>
</g>
</g>
<defs>
<clipPath id="clip0_1802_683">
<rect width="21.875" height="14" fill="white" transform="translate(0.126953)"/>
</clipPath>
</defs>
</svg>
