<svg width="22" height="18" viewBox="0 0 22 18" fill="none" xmlns="http://www.w3.org/2000/svg">
<g id="elec 1" clip-path="url(#clip0_1802_808)">
<g id="flatten_icons">
<g id="Group">
<g id="Group_2">
<g id="Group_3">
<path id="Vector" d="M10.3154 14.1885H20.1758C20.6994 14.1885 21.1262 13.7705 21.1262 13.2557V10.5233C21.1262 9.32215 20.1362 8.34975 18.9086 8.34975H17.5138C16.7702 8.34975 16.0794 7.98455 15.6702 7.37735L14.2974 5.35335C13.6902 4.46015 12.6694 3.91895 11.5738 3.91895H6.53584C5.54584 3.91895 4.60424 4.35895 3.98384 5.12015L1.60344 8.02855C1.13704 8.60055 0.881836 9.30895 0.881836 10.0393V14.1841H10.3154V14.1885Z" fill="#FFDB49"/>
<path id="Vector_2" d="M20.1716 15.0682H0.881953C0.397953 15.0682 0.00195312 14.6722 0.00195312 14.1882V10.0434C0.00195312 9.11057 0.327553 8.19977 0.921553 7.47377L3.30195 4.56537C4.09395 3.59737 5.27315 3.04297 6.53595 3.04297H11.574C12.9644 3.04297 14.2536 3.72497 15.028 4.86457L16.4008 6.88857C16.6472 7.25377 17.0652 7.47377 17.5184 7.47377H18.9132C20.6204 7.47377 22.0108 8.84657 22.0108 10.5274V13.2598C22.0108 14.2586 21.1924 15.0726 20.1804 15.0726L20.1716 15.0682ZM1.76195 13.3082H20.1716C20.2112 13.3082 20.242 13.2818 20.242 13.2554V10.523C20.242 9.81017 19.6436 9.22937 18.9044 9.22937H17.5096C16.4756 9.22937 15.512 8.72337 14.9356 7.87417L13.5628 5.85017C13.1184 5.19457 12.3704 4.80297 11.5652 4.80297H6.52715C5.79675 4.80297 5.11475 5.12417 4.65715 5.68297L2.27675 8.59137C1.93795 9.00497 1.75315 9.51977 1.75315 10.0478V13.3126L1.76195 13.3082Z" fill="#004241"/>
</g>
<path id="Vector_3" d="M20.1716 15.0682H0.881953C0.397953 15.0682 0.00195312 14.6722 0.00195312 14.1882V10.0434C0.00195312 9.11057 0.327553 8.19977 0.921553 7.47377L3.30195 4.56537C4.09395 3.59737 5.27315 3.04297 6.53595 3.04297H11.574C12.9644 3.04297 14.2536 3.72497 15.028 4.86457L16.4008 6.88857C16.6472 7.25377 17.0652 7.47377 17.5184 7.47377H18.9132C20.6204 7.47377 22.0108 8.84657 22.0108 10.5274V13.2598C22.0108 14.2586 21.1924 15.0726 20.1804 15.0726L20.1716 15.0682ZM1.76195 13.3082H20.1716C20.2112 13.3082 20.242 13.2818 20.242 13.2554V10.523C20.242 9.81017 19.6436 9.22937 18.9044 9.22937H17.5096C16.4756 9.22937 15.512 8.72337 14.9356 7.87417L13.5628 5.85017C13.1184 5.19457 12.3704 4.80297 11.5652 4.80297H6.52715C5.79675 4.80297 5.11475 5.12417 4.65715 5.68297L2.27675 8.59137C1.93795 9.00497 1.75315 9.51977 1.75315 10.0478V13.3126L1.76195 13.3082Z" fill="#004241"/>
</g>
<g id="Group_4">
<path id="Vector_4" d="M5.57682 16.2427C6.73353 16.2427 7.67122 15.2696 7.67122 14.0691C7.67122 12.8687 6.73353 11.8955 5.57682 11.8955C4.42012 11.8955 3.48242 12.8687 3.48242 14.0691C3.48242 15.2696 4.42012 16.2427 5.57682 16.2427Z" fill="#E4F2F4"/>
<path id="Vector_5" d="M5.57694 17.1228C3.93574 17.1228 2.60254 15.7544 2.60254 14.0692C2.60254 12.384 3.93574 11.0156 5.57694 11.0156C7.21814 11.0156 8.55134 12.384 8.55134 14.0692C8.55134 15.7544 7.21814 17.1228 5.57694 17.1228ZM5.57694 12.7756C4.90814 12.7756 4.36254 13.3564 4.36254 14.0692C4.36254 14.782 4.90814 15.3628 5.57694 15.3628C6.24574 15.3628 6.79134 14.782 6.79134 14.0692C6.79134 13.3564 6.24574 12.7756 5.57694 12.7756Z" fill="#004241"/>
</g>
<g id="Group_5">
<path id="Vector_6" d="M15.151 16.2427C16.3077 16.2427 17.2454 15.2696 17.2454 14.0691C17.2454 12.8687 16.3077 11.8955 15.151 11.8955C13.9943 11.8955 13.0566 12.8687 13.0566 14.0691C13.0566 15.2696 13.9943 16.2427 15.151 16.2427Z" fill="#E4F2F4"/>
<path id="Vector_7" d="M15.1512 17.1228C13.51 17.1228 12.1768 15.7544 12.1768 14.0692C12.1768 12.384 13.51 11.0156 15.1512 11.0156C16.7924 11.0156 18.1256 12.384 18.1256 14.0692C18.1256 15.7544 16.7924 17.1228 15.1512 17.1228ZM15.1512 12.7756C14.4824 12.7756 13.9368 13.3564 13.9368 14.0692C13.9368 14.782 14.4824 15.3628 15.1512 15.3628C15.82 15.3628 16.3656 14.782 16.3656 14.0692C16.3656 13.3564 15.82 12.7756 15.1512 12.7756Z" fill="#004241"/>
</g>
<path id="Vector_8" d="M7.39412 8.15551H6.25012C5.76612 8.15551 5.37012 7.75951 5.37012 7.27551C5.37012 6.79151 5.76612 6.39551 6.25012 6.39551H7.39412C7.87812 6.39551 8.27412 6.79151 8.27412 7.27551C8.27412 7.75951 7.87812 8.15551 7.39412 8.15551Z" fill="#004241"/>
<path id="Vector_9" d="M11.9615 8.15551H10.8175C10.3335 8.15551 9.9375 7.75951 9.9375 7.27551C9.9375 6.79151 10.3335 6.39551 10.8175 6.39551H11.9615C12.4455 6.39551 12.8415 6.79151 12.8415 7.27551C12.8415 7.75951 12.4455 8.15551 11.9615 8.15551Z" fill="#004241"/>
</g>
<path id="Vector_10" d="M20.242 3.5266H18.878C18.394 3.5266 17.998 3.1306 17.998 2.6466C17.998 2.1626 18.394 1.7666 18.878 1.7666H20.242C20.726 1.7666 21.122 2.1626 21.122 2.6466C21.122 3.1306 20.726 3.5266 20.242 3.5266Z" fill="#004241"/>
<path id="Vector_11" d="M20.242 6.13109H18.878C18.394 6.13109 17.998 5.73509 17.998 5.25109C17.998 4.76709 18.394 4.37109 18.878 4.37109H20.242C20.726 4.37109 21.122 4.76709 21.122 5.25109C21.122 5.73509 20.726 6.13109 20.242 6.13109Z" fill="#004241"/>
<path id="Vector_12" d="M17.8796 6.98953C17.3956 6.98953 16.9996 6.59353 16.9996 6.10953V2.63793H16.7136C16.4012 2.63793 16.0844 2.71273 15.8072 2.86233L15.3892 3.08233C14.958 3.30673 14.4256 3.13953 14.2012 2.70833C13.9768 2.27713 14.144 1.74473 14.5752 1.52033L14.9932 1.30033C15.5212 1.02313 16.1152 0.87793 16.7136 0.87793H17.8796C18.3636 0.87793 18.7596 1.27393 18.7596 1.75793V6.10953C18.7596 6.59353 18.3636 6.98953 17.8796 6.98953Z" fill="#004241"/>
</g>
</g>
<defs>
<clipPath id="clip0_1802_808">
<rect width="22" height="16.2448" fill="white" transform="translate(0.00195312 0.87793)"/>
</clipPath>
</defs>
</svg>
