<?xml version="1.0" encoding="UTF-8"?>
<svg id="flatten_icons" xmlns="http://www.w3.org/2000/svg" viewBox="0 0 112 112">
  <defs>
    <style>
      .cls-1 {
        fill: none;
      }

      .cls-2 {
        fill: #dbab9c;
      }

      .cls-3 {
        fill: #c48d60;
      }

      .cls-4 {
        fill: #e2ceb3;
      }

      .cls-5 {
        fill: #aad681;
      }

      .cls-6 {
        fill: #86c487;
      }

      .cls-7 {
        fill: #004241;
      }

      .cls-8 {
        fill: #e0ab5f;
      }
    </style>
  </defs>
  <g id="nuggets-vegetaux">
    <g>
      <path class="cls-8" d="M60.36,42.82c-.04,4.02-12.3,13.94-23.89,14.3-13.94.43-23.24-4.37-24.8-11.78-.77-3.62-2.52-8.06.54-11.23s17.06-7.7,22.86-8.93c8.03-1.7,9.71-.38,13.53.59,3.81.97,6.98.26,10.67,4.74,1.92,2.33,1.11,10.71,1.09,12.31Z"/>
      <path class="cls-7" d="M34.72,59.14c-13.74,0-23.26-5.05-25.02-13.4-.11-.52-.24-1.06-.37-1.6-.82-3.35-1.93-7.93,1.43-11.42,3.79-3.93,18.63-8.39,23.89-9.5,7.19-1.52,9.77-.75,12.75.13.53.16,1.08.32,1.69.48.81.21,1.6.33,2.43.46,2.81.44,5.99.94,9.29,4.95,1.75,2.13,1.91,6.53,1.6,12.49-.03.49-.05.87-.05,1.1h0c-.05,5.41-13.34,15.89-25.83,16.28-.61.02-1.21.03-1.8.03ZM41.49,26.35c-1.48,0-3.35.22-6.02.78-6.08,1.28-19.17,5.59-21.84,8.36-1.71,1.77-1.28,4.2-.43,7.7.14.59.28,1.17.4,1.73,1.39,6.58,10.34,10.59,22.78,10.2,11.48-.36,21.93-10.17,21.96-12.32l2,.02-2-.02c0-.27.02-.71.05-1.28.36-6.92-.18-9.12-.69-9.74-2.34-2.83-4.22-3.13-6.82-3.54-.89-.14-1.81-.28-2.8-.54-.66-.17-1.26-.35-1.84-.52-1.52-.45-2.79-.83-4.76-.83Z"/>
    </g>
    <g>
      <path class="cls-4" d="M37.71,55.73c1.71-1.17,2.22-2.45,2.22-2.45,0,0,2.4-11.73-1.46-11.99-3.86-.26-10.65-3.09-10.65-3.09-7.18-2.48-12.42-7.42-15.62-4.09-3.06,3.17-1.31,7.6-.54,11.23,1.42,6.7,9.15,11.26,20.91,11.76,1.81.08,3.65-.34,5.14-1.36Z"/>
      <path class="cls-7" d="M33,59.09c-.17,0-.34,0-.52-.01-12.61-.53-21.13-5.52-22.78-13.34-.11-.52-.24-1.06-.37-1.61-.82-3.35-1.93-7.93,1.43-11.42,3.19-3.31,7.3-1.26,11.64.9,1.82.91,3.89,1.94,6.07,2.69.04.01.08.03.12.04,1.8.75,7.12,2.74,10.01,2.94,1.09.07,2.04.59,2.73,1.5,2.34,3.07,1.02,10.64.56,12.89-.02.12-.06.23-.1.34-.12.31-.84,1.91-2.95,3.36-1.65,1.13-3.66,1.72-5.84,1.72ZM14.88,35c-.52,0-.92.16-1.24.49-1.71,1.77-1.28,4.2-.43,7.7.14.59.28,1.17.4,1.73,1.23,5.83,8.53,9.72,19.04,10.17,1.05.04,2.59-.1,3.93-1.01h0c.87-.6,1.29-1.2,1.44-1.45.78-4,.86-8.39.17-9.35-4-.32-10.36-2.9-11.09-3.2-2.41-.83-4.58-1.92-6.5-2.87-2.8-1.4-4.57-2.2-5.74-2.2Z"/>
    </g>
    <g>
      <path class="cls-8" d="M60.39,92.65l-22.84,4.57c-2.43.49-5,.23-7.25-.73h0c-4.12-1.76-6.45-5.56-5.77-9.39l1.91-10.65c.55-3.07,2.96-5.67,6.37-6.84l2.78-.96c1.63-.56,3.42-.77,5.18-.6l17.47,1.67c4.97.47,8.91,3.82,9.45,8.02l.68,5.37c.56,4.44-2.84,8.52-7.98,9.55Z"/>
      <path class="cls-7" d="M35.12,99.46c-1.93,0-3.85-.38-5.61-1.13-5.01-2.14-7.81-6.8-6.95-11.58l1.91-10.65c.68-3.77,3.62-6.98,7.68-8.38l2.78-.96c1.9-.66,3.98-.9,6.02-.7l17.47,1.67c5.96.57,10.58,4.58,11.24,9.76l.68,5.38c.7,5.47-3.42,10.53-9.57,11.76h0l-22.84,4.57c-.93.19-1.88.28-2.82.28ZM39.58,69.99c-1.14,0-2.28.19-3.34.55l-2.78.96c-2.7.93-4.63,2.96-5.05,5.31l-1.91,10.65c-.52,2.91,1.32,5.8,4.58,7.2,1.87.8,4.03,1.02,6.07.61l22.84-4.57c4.07-.81,6.81-3.97,6.39-7.34l-.68-5.38c-.41-3.25-3.63-5.89-7.65-6.28l-17.47-1.67c-.33-.03-.67-.05-1-.05ZM60.39,92.65h0,0Z"/>
    </g>
    <g>
      <g>
        <path class="cls-6" d="M87.65,100.04s21.27-5.83,16.15-37.77c0,0-18.16-3.15-28.59,13.64-6.99,11.26,2.28,15.08,2.28,15.08l10.17,9.05Z"/>
        <path class="cls-7" d="M87.65,102.04c-.48,0-.96-.18-1.33-.51l-9.95-8.86c-1.05-.52-4.11-2.32-5.3-6.02-1.11-3.44-.29-7.41,2.44-11.8,11.02-17.73,30.44-14.59,30.63-14.56.84.15,1.5.81,1.63,1.65,2.77,17.25-2.06,27.18-6.61,32.48-5.02,5.85-10.74,7.47-10.98,7.53-.17.05-.35.07-.53.07ZM100.13,64.02c-5.4,0-16.15,1.57-23.22,12.95-2.06,3.32-2.75,6.16-2.04,8.42.82,2.62,3.37,3.75,3.4,3.76.2.08.39.21.55.35l9.29,8.27c3.88-1.55,17.37-8.79,13.94-33.68-.52-.04-1.17-.07-1.92-.07Z"/>
      </g>
      <g>
        <path class="cls-5" d="M86.82,100.03s-32.44,1.46-34.23-36.77c0,0,40.43-4.38,34.23,36.77Z"/>
        <path class="cls-7" d="M86.54,102.04c-3.76,0-34.19-1.18-35.94-38.67-.05-1.06.73-1.97,1.78-2.08.76-.08,18.79-1.9,29.53,9.3,6.52,6.8,8.84,16.81,6.89,29.75-.14.95-.93,1.66-1.89,1.7-.02,0-.15,0-.38,0ZM86.82,100.04h0,0ZM54.72,65.16c2.3,29.42,24.07,32.57,30.36,32.86,1.32-10.8-.71-19.09-6.04-24.66-7.48-7.81-19.65-8.32-24.32-8.21Z"/>
      </g>
    </g>
    <g>
      <path class="cls-8" d="M81.19,18.71l-11.43,18.03c-1.22,1.92-1.71,4.21-1.4,6.46h0c.57,4.13,3.75,7.42,7.87,8.14l11.43,1.99c3.3.57,6.66-.61,8.87-3.13l1.8-2.06c1.06-1.21,1.8-2.67,2.15-4.24l3.47-15.55c.99-4.43-1.25-8.94-5.38-10.83l-5.28-2.41c-4.37-2-9.53-.46-12.1,3.59Z"/>
      <path class="cls-7" d="M89.27,55.47c-.65,0-1.31-.05-1.96-.17l-11.43-1.99c-4.99-.87-8.81-4.82-9.5-9.83-.38-2.72.22-5.49,1.69-7.81l11.43-18.03c3.09-4.87,9.38-6.74,14.62-4.34l5.28,2.42c4.95,2.26,7.69,7.77,6.5,13.08l-3.47,15.55c-.42,1.89-1.32,3.66-2.6,5.12l-1.8,2.06c-2.21,2.52-5.44,3.95-8.75,3.95ZM89.32,16.25c-2.54,0-5.01,1.27-6.44,3.53h0l-11.43,18.03c-.96,1.52-1.36,3.34-1.11,5.12.46,3.29,2.96,5.88,6.23,6.44l11.43,1.99c2.59.45,5.28-.5,7.02-2.48l1.8-2.06c.84-.96,1.43-2.12,1.7-3.35l3.48-15.55c.78-3.48-1.01-7.09-4.26-8.57l-5.28-2.42c-1.01-.46-2.08-.68-3.14-.68ZM81.19,18.71h0,0Z"/>
    </g>
    <path class="cls-2" d="M22.91,46.65s11.31,7.16,12.6,4.03-3.64-4.48-12.6-4.03Z"/>
    <circle class="cls-3" cx="93.6" cy="27.57" r="1.96"/>
    <circle class="cls-3" cx="37.46" cy="77.66" r="1.96"/>
    <circle class="cls-3" cx="49.93" cy="84.68" r="1.96"/>
    <circle class="cls-3" cx="37.46" cy="31.9" r="1.96"/>
    <circle class="cls-3" cx="52.6" cy="33.86" r="1.96"/>
    <circle class="cls-3" cx="80.74" cy="34.15" r="2.25"/>
    <rect class="cls-1" width="112" height="112"/>
  </g>
</svg>