<?xml version="1.0" encoding="UTF-8"?>
<svg id="outline_icons" xmlns="http://www.w3.org/2000/svg" viewBox="0 0 112 112">
  <defs>
    <style>
      .cls-1 {
        fill: none;
      }

      .cls-2 {
        fill: #3e5f9b;
      }

      .cls-3 {
        fill: #fff;
      }

      .cls-4 {
        fill: #ef706b;
      }

      .cls-5 {
        fill: #004241;
      }

      .cls-6 {
        fill: #eee;
      }
    </style>
  </defs>
  <g>
    <path class="cls-6" d="M76.38,46.3c-1.72-.41-3.52-.63-5.36-.63-7.38,0-13.98,3.47-18.36,8.91v29.28h23.73v-37.55Z"/>
    <g>
      <path class="cls-3" d="M89.23,59.25s0-.04,0-.06c0-13.62-10.69-24.66-23.87-24.66-11.92,0-21.79,9.02-23.58,20.81-1.43-.5-2.96-.78-4.55-.78-7.83,0-14.18,6.56-14.18,14.64s6.35,14.64,14.18,14.64h50.94c6.59,0,11.94-5.52,11.94-12.33,0-6.44-4.78-11.71-10.87-12.27Z"/>
      <path class="cls-5" d="M88.17,85.85h-50.94c-8.92,0-16.18-7.47-16.18-16.64s7.26-16.64,16.18-16.64c1,0,2,.1,3,.29,2.79-11.9,13.04-20.32,25.14-20.32,13.73,0,24.99,11.07,25.82,25,6.33,1.42,10.92,7.14,10.92,13.99,0,7.9-6.25,14.33-13.94,14.33ZM37.23,56.57c-6.71,0-12.18,5.67-12.18,12.64s5.46,12.64,12.18,12.64h50.94c5.48,0,9.94-4.63,9.94-10.33,0-5.3-3.98-9.82-9.05-10.28-1.03-.09-1.82-.96-1.82-1.99,0-.02,0-.06,0-.08,0-12.47-9.81-22.63-21.87-22.63-10.84,0-19.92,8.04-21.6,19.11-.09.59-.44,1.11-.95,1.41-.51.31-1.13.37-1.69.17-1.27-.45-2.58-.67-3.89-.67Z"/>
    </g>
    <g>
      <path class="cls-2" d="M52.65,54.57c-2.69,3.34-4.54,7.42-5.22,11.91-1.43-.5-2.96-.78-4.55-.78-7.83,0-14.18,6.56-14.18,14.64,0,.19.02.38.03.57,2.37,1.84,5.31,2.94,8.5,2.94h15.42v-29.28Z"/>
      <path class="cls-2" d="M89.23,59.25s0-.04,0-.06c0-1.9-.21-3.74-.61-5.51-3.21-3.62-7.46-6.25-12.25-7.38v37.55h11.79c6.59,0,11.94-5.52,11.94-12.33,0-6.44-4.78-11.71-10.87-12.27Z"/>
    </g>
    <path class="cls-4" d="M89.23,59.25s0-.04,0-.06c0-1.9-.21-3.74-.61-5.51-3.21-3.62-7.46-6.25-12.25-7.38v37.55h11.79c6.59,0,11.94-5.52,11.94-12.33,0-6.44-4.78-11.71-10.87-12.27Z"/>
    <path class="cls-5" d="M88.17,85.85h-50.94c-8.92,0-16.18-7.47-16.18-16.64s7.26-16.64,16.18-16.64c1,0,2,.1,3,.29,2.79-11.9,13.04-20.32,25.14-20.32,13.73,0,24.99,11.07,25.82,25,6.33,1.42,10.92,7.14,10.92,13.99,0,7.9-6.25,14.33-13.94,14.33ZM37.23,56.57c-6.71,0-12.18,5.67-12.18,12.64s5.46,12.64,12.18,12.64h50.94c5.48,0,9.94-4.63,9.94-10.33,0-5.3-3.98-9.82-9.05-10.28-1.03-.09-1.82-.96-1.82-1.99,0-.02,0-.06,0-.08,0-12.47-9.81-22.63-21.87-22.63-10.84,0-19.92,8.04-21.6,19.11-.09.59-.44,1.11-.95,1.41-.51.31-1.13.37-1.69.17-1.27-.45-2.58-.67-3.89-.67Z"/>
  </g>
  <path class="cls-5" d="M53.97,21.96c-1.1,0-2-.9-2-2v-8.26c-.65.16-1.38-.02-1.89-.53-.78-.78-.78-2.05,0-2.83l2.47-2.47c.57-.57,1.43-.74,2.18-.43.75.31,1.23,1.04,1.23,1.85v12.68c0,1.1-.9,2-2,2Z"/>
  <path class="cls-5" d="M10.61,90.84c-1.1,0-2-.9-2-2v-8.26c-.66.16-1.38-.02-1.89-.53-.78-.78-.78-2.05,0-2.83l2.48-2.48c.57-.57,1.43-.74,2.18-.43.75.31,1.23,1.04,1.23,1.85v12.68c0,1.1-.9,2-2,2Z"/>
  <path class="cls-5" d="M55.21,107.53c-1.1,0-2-.9-2-2v-8.26c-.66.16-1.38-.02-1.89-.53-.78-.78-.78-2.05,0-2.83l2.47-2.48c.57-.57,1.43-.74,2.18-.43.75.31,1.23,1.04,1.23,1.85v12.68c0,1.1-.9,2-2,2Z"/>
  <path class="cls-5" d="M100.21,46.14c-1.1,0-2-.9-2-2v-8.26c-.66.16-1.38-.02-1.89-.53-.78-.78-.78-2.05,0-2.83l2.48-2.48c.57-.57,1.43-.74,2.18-.43.75.31,1.23,1.04,1.23,1.85v12.68c0,1.1-.9,2-2,2Z"/>
  <path class="cls-5" d="M10.61,62.91c-3.89,0-7.06-3.74-7.06-8.34s3.17-8.34,7.06-8.34,7.06,3.74,7.06,8.34-3.17,8.34-7.06,8.34ZM10.61,50.24c-1.66,0-3.06,1.99-3.06,4.34s1.4,4.34,3.06,4.34,3.06-1.99,3.06-4.34-1.4-4.34-3.06-4.34Z"/>
  <path class="cls-5" d="M98.97,107.53c-3.89,0-7.06-3.74-7.06-8.34s3.17-8.34,7.06-8.34,7.06,3.74,7.06,8.34-3.17,8.34-7.06,8.34ZM98.97,94.85c-1.66,0-3.06,1.99-3.06,4.34s1.4,4.34,3.06,4.34,3.06-1.99,3.06-4.34-1.4-4.34-3.06-4.34Z"/>
  <path class="cls-5" d="M98.97,21.96c-3.89,0-7.06-3.74-7.06-8.34s3.17-8.34,7.06-8.34,7.06,3.74,7.06,8.34-3.17,8.34-7.06,8.34ZM98.97,9.28c-1.66,0-3.06,1.99-3.06,4.34s1.4,4.34,3.06,4.34,3.06-1.99,3.06-4.34-1.4-4.34-3.06-4.34Z"/>
  <path class="cls-5" d="M80.06,107.51c-1.1,0-2-.9-2-2,0-2.35-1.4-4.34-3.06-4.34s-3.06,1.99-3.06,4.34c0,1.1-.9,2-2,2s-2-.9-2-2c0-4.6,3.17-8.34,7.06-8.34s7.06,3.74,7.06,8.34c0,1.1-.9,2-2,2Z"/>
  <path class="cls-5" d="M37.2,107.51c-1.1,0-2-.9-2-2,0-2.35-1.4-4.34-3.06-4.34s-3.06,1.99-3.06,4.34c0,1.1-.9,2-2,2s-2-.9-2-2c0-4.6,3.17-8.34,7.06-8.34s7.06,3.74,7.06,8.34c0,1.1-.9,2-2,2Z"/>
  <path class="cls-5" d="M75,15.98c-3.89,0-7.06-3.74-7.06-8.34,0-1.1.9-2,2-2s2,.9,2,2c0,2.35,1.4,4.34,3.06,4.34s3.06-1.99,3.06-4.34c0-1.1.9-2,2-2s2,.9,2,2c0,4.6-3.17,8.34-7.06,8.34Z"/>
  <path class="cls-5" d="M10.37,107.68c-1.1,0-2-.9-2-2v-.33c0-1.1.9-2,2-2s2,.9,2,2v.33c0,1.1-.9,2-2,2Z"/>
  <g id="area">
    <rect class="cls-1" width="112" height="112"/>
  </g>
  <g>
    <rect class="cls-6" x="3.56" y="6.4" width="36.32" height="32.19" rx="4.9" ry="4.9"/>
    <path class="cls-5" d="M23.25,32.3c-1.1,0-2-.9-2-2v-7.76l-3.82,2.9c-.88.67-2.13.49-2.8-.39-.67-.88-.49-2.14.39-2.8l7.03-5.33c.6-.46,1.42-.53,2.1-.2.68.34,1.11,1.03,1.11,1.79v11.78c0,1.1-.9,2-2,2Z"/>
    <path class="cls-4" d="M3.56,13.65v-2.35c0-2.71,2.19-4.9,4.9-4.9h26.52c2.71,0,4.9,2.19,4.9,4.9v2.35"/>
    <path class="cls-5" d="M12.93,11.66c-1.1,0-2-.9-2-2V3.15c0-1.1.9-2,2-2s2,.9,2,2v6.51c0,1.1-.9,2-2,2Z"/>
    <path class="cls-5" d="M30.55,11.66c-1.1,0-2-.9-2-2V3.15c0-1.1.9-2,2-2s2,.9,2,2v6.51c0,1.1-.9,2-2,2Z"/>
    <path class="cls-5" d="M34.97,40.59H8.46c-3.8,0-6.9-3.1-6.9-6.9V11.3c0-3.81,3.1-6.9,6.9-6.9h26.52c3.8,0,6.9,3.1,6.9,6.9v22.38c0,3.8-3.1,6.9-6.9,6.9ZM8.46,8.4c-1.6,0-2.9,1.3-2.9,2.9v22.38c0,1.6,1.3,2.9,2.9,2.9h26.52c1.6,0,2.9-1.3,2.9-2.9V11.3c0-1.6-1.3-2.9-2.9-2.9H8.46Z"/>
  </g>
</svg>