<?xml version="1.0" encoding="UTF-8"?>
<svg id="outline_icons" xmlns="http://www.w3.org/2000/svg" viewBox="0 0 112 112">
  <defs>
    <style>
      .cls-1 {
        fill: none;
      }

      .cls-2 {
        fill: #3e5f9b;
      }

      .cls-3 {
        fill: #fff;
      }

      .cls-4 {
        fill: #ef706b;
      }

      .cls-5 {
        fill: #004241;
      }

      .cls-6 {
        fill: #eee;
      }
    </style>
  </defs>
  <g>
    <path class="cls-6" d="M73.3,41.43c-1.95-.46-3.97-.71-6.06-.71-8.34,0-15.8,3.91-20.74,10.06v33.07h26.8v-42.42Z"/>
    <g>
      <path class="cls-3" d="M87.82,56.06s0-.04,0-.06c0-15.38-12.07-27.85-26.97-27.85-13.46,0-24.62,10.19-26.64,23.51-1.62-.57-3.34-.89-5.14-.89-8.85,0-16.02,7.41-16.02,16.54s7.17,16.54,16.02,16.54h57.54c7.45,0,13.48-6.24,13.48-13.93,0-7.27-5.4-13.23-12.28-13.86Z"/>
      <path class="cls-5" d="M86.62,85.85H29.08c-9.93,0-18.02-8.32-18.02-18.54s8.08-18.54,18.02-18.54c1.2,0,2.4.13,3.58.38,3.04-13.45,14.57-23,28.2-23,15.43,0,28.08,12.5,28.92,28.19,7.14,1.5,12.32,7.91,12.32,15.59,0,8.78-6.95,15.93-15.48,15.93ZM29.08,52.77c-7.73,0-14.02,6.52-14.02,14.54s6.29,14.54,14.02,14.54h57.54c6.33,0,11.48-5.35,11.48-11.93,0-6.22-4.5-11.33-10.46-11.87-1.05-.1-1.84-.99-1.82-2.04,0-.01,0-.05,0-.06,0-14.21-11.2-25.81-24.97-25.81-12.37,0-22.75,9.17-24.66,21.81-.09.59-.44,1.11-.95,1.41-.51.31-1.13.37-1.69.17-1.46-.51-2.97-.77-4.48-.77Z"/>
    </g>
    <g>
      <path class="cls-2" d="M46.5,50.78c-3.04,3.77-5.13,8.38-5.9,13.45-1.62-.57-3.34-.89-5.14-.89-8.85,0-16.02,7.41-16.02,16.54,0,.22.02.43.03.65,2.68,2.08,5.99,3.32,9.6,3.32h17.42v-33.07Z"/>
      <path class="cls-2" d="M87.82,56.06s0-.04,0-.06c0-2.14-.24-4.22-.68-6.23-3.63-4.09-8.42-7.06-13.84-8.34v42.42h13.32c7.45,0,13.48-6.24,13.48-13.93,0-7.27-5.4-13.23-12.28-13.86Z"/>
    </g>
    <path class="cls-4" d="M87.82,56.06s0-.04,0-.06c0-2.14-.24-4.22-.68-6.23-3.63-4.09-8.42-7.06-13.84-8.34v42.42h13.32c7.45,0,13.48-6.24,13.48-13.93,0-7.27-5.4-13.23-12.28-13.86Z"/>
    <path class="cls-5" d="M86.62,85.85H29.08c-9.93,0-18.02-8.32-18.02-18.54s8.08-18.54,18.02-18.54c1.2,0,2.4.13,3.58.38,3.04-13.45,14.57-23,28.2-23,15.43,0,28.08,12.5,28.92,28.19,7.14,1.5,12.32,7.91,12.32,15.59,0,8.78-6.95,15.93-15.48,15.93ZM29.08,52.77c-7.73,0-14.02,6.52-14.02,14.54s6.29,14.54,14.02,14.54h57.54c6.33,0,11.48-5.35,11.48-11.93,0-6.22-4.5-11.33-10.46-11.87-1.05-.1-1.84-.99-1.82-2.04,0-.01,0-.05,0-.06,0-14.21-11.2-25.81-24.97-25.81-12.37,0-22.75,9.17-24.66,21.81-.09.59-.44,1.11-.95,1.41-.51.31-1.13.37-1.69.17-1.46-.51-2.97-.77-4.48-.77Z"/>
  </g>
  <path class="cls-5" d="M10.61,21.96c-1.1,0-2-.9-2-2v-8.26c-.66.16-1.38-.02-1.89-.53-.78-.78-.78-2.05,0-2.83l2.48-2.48c.57-.57,1.43-.74,2.18-.43.75.31,1.23,1.04,1.23,1.85v12.68c0,1.1-.9,2-2,2Z"/>
  <path class="cls-5" d="M53.97,21.96c-1.1,0-2-.9-2-2v-8.26c-.65.16-1.38-.02-1.89-.53-.78-.78-.78-2.05,0-2.83l2.47-2.48c.57-.57,1.43-.74,2.18-.43.75.31,1.23,1.04,1.23,1.85v12.68c0,1.1-.9,2-2,2Z"/>
  <path class="cls-5" d="M10.61,107.53c-1.1,0-2-.9-2-2v-8.26c-.66.16-1.38-.02-1.89-.53-.78-.78-.78-2.05,0-2.83l2.48-2.47c.57-.57,1.43-.74,2.18-.43.75.31,1.23,1.04,1.23,1.85v12.68c0,1.1-.9,2-2,2Z"/>
  <path class="cls-5" d="M55.21,107.53c-1.1,0-2-.9-2-2v-8.26c-.66.16-1.38-.02-1.89-.53-.78-.78-.78-2.05,0-2.83l2.47-2.47c.57-.57,1.43-.74,2.18-.43.75.31,1.23,1.04,1.23,1.85v12.68c0,1.1-.9,2-2,2Z"/>
  <path class="cls-5" d="M32.15,38.63c-1.1,0-2-.9-2-2v-8.26c-.65.16-1.38-.02-1.89-.53-.78-.78-.78-2.05,0-2.83l2.47-2.47c.57-.57,1.43-.74,2.18-.43.75.31,1.23,1.04,1.23,1.85v12.68c0,1.1-.9,2-2,2Z"/>
  <path class="cls-5" d="M100.21,46.14c-1.1,0-2-.9-2-2v-8.26c-.66.16-1.38-.02-1.89-.53-.78-.78-.78-2.05,0-2.83l2.48-2.47c.57-.57,1.43-.74,2.18-.43.75.31,1.23,1.04,1.23,1.85v12.68c0,1.1-.9,2-2,2Z"/>
  <path class="cls-5" d="M10.61,46.14c-3.89,0-7.06-3.74-7.06-8.34s3.17-8.34,7.06-8.34,7.06,3.74,7.06,8.34-3.17,8.34-7.06,8.34ZM10.61,33.46c-1.66,0-3.06,1.99-3.06,4.34s1.4,4.34,3.06,4.34,3.06-1.99,3.06-4.34-1.4-4.34-3.06-4.34Z"/>
  <path class="cls-5" d="M98.97,107.53c-3.89,0-7.06-3.74-7.06-8.34s3.17-8.34,7.06-8.34,7.06,3.74,7.06,8.34-3.17,8.34-7.06,8.34ZM98.97,94.85c-1.66,0-3.06,1.99-3.06,4.34s1.4,4.34,3.06,4.34,3.06-1.99,3.06-4.34-1.4-4.34-3.06-4.34Z"/>
  <path class="cls-5" d="M98.97,21.96c-3.89,0-7.06-3.74-7.06-8.34s3.17-8.34,7.06-8.34,7.06,3.74,7.06,8.34-3.17,8.34-7.06,8.34ZM98.97,9.28c-1.66,0-3.06,1.99-3.06,4.34s1.4,4.34,3.06,4.34,3.06-1.99,3.06-4.34-1.4-4.34-3.06-4.34Z"/>
  <path class="cls-5" d="M80.06,107.51c-1.1,0-2-.9-2-2,0-2.35-1.4-4.34-3.06-4.34s-3.06,1.99-3.06,4.34c0,1.1-.9,2-2,2s-2-.9-2-2c0-4.6,3.17-8.34,7.06-8.34s7.06,3.74,7.06,8.34c0,1.1-.9,2-2,2Z"/>
  <path class="cls-5" d="M37.2,107.51c-1.1,0-2-.9-2-2,0-2.35-1.4-4.34-3.06-4.34s-3.06,1.99-3.06,4.34c0,1.1-.9,2-2,2s-2-.9-2-2c0-4.6,3.17-8.34,7.06-8.34s7.06,3.74,7.06,8.34c0,1.1-.9,2-2,2Z"/>
  <path class="cls-5" d="M32.15,15.98c-3.89,0-7.06-3.74-7.06-8.34,0-1.1.9-2,2-2s2,.9,2,2c0,2.35,1.4,4.34,3.06,4.34s3.06-1.99,3.06-4.34c0-1.1.9-2,2-2s2,.9,2,2c0,4.6-3.17,8.34-7.06,8.34Z"/>
  <path class="cls-5" d="M75,15.98c-3.89,0-7.06-3.74-7.06-8.34,0-1.1.9-2,2-2s2,.9,2,2c0,2.35,1.4,4.34,3.06,4.34s3.06-1.99,3.06-4.34c0-1.1.9-2,2-2s2,.9,2,2c0,4.6-3.17,8.34-7.06,8.34Z"/>
  <path class="cls-5" d="M9.37,82.65c-1.1,0-2-.9-2-2v-.33c0-1.1.9-2,2-2s2,.9,2,2v.33c0,1.1-.9,2-2,2Z"/>
  <g id="area">
    <rect class="cls-1" y="0" width="112" height="112"/>
  </g>
</svg>