<?xml version="1.0" encoding="UTF-8"?>
<svg id="outline_icons" xmlns="http://www.w3.org/2000/svg" viewBox="0 0 112 112">
  <defs>
    <style>
      .cls-1 {
        fill: none;
      }

      .cls-2 {
        fill: #af8977;
      }

      .cls-3 {
        fill: #d3b7ab;
      }

      .cls-4 {
        fill: #3e5f9b;
      }

      .cls-5 {
        fill: #ceaa9b;
      }

      .cls-6 {
        fill: #c17667;
      }

      .cls-7 {
        fill: #fff;
      }

      .cls-8 {
        fill: #c4a79b;
      }

      .cls-9 {
        fill: #004241;
      }

      .cls-10 {
        fill: #e26f6b;
      }
    </style>
  </defs>
  <g>
    <g>
      <path class="cls-10" d="M8.38,2h39.23c3.52,0,6.38,2.86,6.38,6.38v19.23c0,3.52-2.86,6.38-6.38,6.38H8.38c-3.52,0-6.38-2.86-6.38-6.38V8.38c0-3.52,2.86-6.38,6.38-6.38Z"/>
      <path class="cls-9" d="M47.62,4c2.42,0,4.38,1.96,4.38,4.38v19.23c0,2.42-1.96,4.38-4.38,4.38H8.38c-2.42,0-4.38-1.96-4.38-4.38V8.38c0-2.42,1.96-4.38,4.38-4.38h39.23M47.62,0H8.38C3.76,0,0,3.76,0,8.38v19.23C0,32.24,3.76,36,8.38,36h39.23c4.62,0,8.38-3.76,8.38-8.38V8.38C56,3.76,52.24,0,47.62,0h0Z"/>
    </g>
    <path class="cls-4" d="M8.37,4h11.63v28h-11.63c-2.41,0-4.37-1.96-4.37-4.37V8.37c0-2.41,1.96-4.37,4.37-4.37Z"/>
    <rect class="cls-7" x="20" y="4" width="16" height="28"/>
  </g>
  <g>
    <g>
      <polygon class="cls-8" points="69.59 108.08 81.5 108.08 82.61 82.15 69.59 82.15 69.59 108.08"/>
      <path class="cls-9" d="M81.5,110.08h-11.91c-1.1,0-2-.9-2-2v-25.93c0-1.1.9-2,2-2h13.02c.55,0,1.07.22,1.44.62.38.39.58.92.55,1.47l-1.11,25.93c-.05,1.07-.93,1.91-2,1.91ZM71.59,106.08h7.99l.94-21.93h-8.93v21.93Z"/>
    </g>
    <g>
      <polygon class="cls-8" points="29.64 108.08 41.55 108.08 42.67 82.15 29.64 82.15 29.64 108.08"/>
      <path class="cls-9" d="M41.55,110.08h-11.91c-1.1,0-2-.9-2-2v-25.93c0-1.1.9-2,2-2h13.02c.55,0,1.07.22,1.44.62.38.39.58.92.55,1.47l-1.11,25.93c-.05,1.07-.93,1.91-2,1.91ZM31.64,106.08h7.99l.94-21.93h-8.93v21.93Z"/>
    </g>
    <g>
      <path class="cls-2" d="M40.54,53.86h20.42c3.08-2.38,13.9-6.52,18.82-6.52,9.3,0,10.42,7.98,10.42,14.56,0,.16-.02.31-.03.46.54,1.48.84,3.11.84,4.83,0,5.16-2.69,9.57-6.49,11.37-1.54,4.16-4.82,7.46-8.96,9.02l-.87,20.5h-7.64l-.82-19.51h-24.6c-1.76,2.09-4.25,3.46-7.01,3.77l-.62,15.74h-7.64l-1.11-25.11v-13.81c0-8.45,6.85-15.3,15.3-15.3Z"/>
      <path class="cls-9" d="M74.68,110.08h-7.64c-1.07,0-1.95-.84-2-1.92l-.74-17.59h-21.8c-1.64,1.68-3.7,2.87-5.96,3.44l-.56,14.15c-.04,1.07-.92,1.92-2,1.92h-7.64c-1.07,0-1.95-.84-2-1.91l-1.11-25.11v-13.9c0-9.54,7.76-17.3,17.3-17.3h19.78c3.87-2.58,14.16-6.52,19.46-6.52,12.42,0,12.42,12.46,12.42,16.56,0,.07,0,.14,0,.2.54,1.63.81,3.33.81,5.08,0,5.5-2.68,10.42-6.9,12.8-1.67,3.95-4.74,7.13-8.6,8.94l-.82,19.24c-.05,1.07-.93,1.92-2,1.92ZM68.95,106.08h3.81l.79-18.59c.03-.8.54-1.5,1.29-1.79,3.61-1.36,6.45-4.22,7.79-7.85.18-.49.55-.89,1.02-1.11,3.2-1.52,5.34-5.36,5.34-9.57,0-1.44-.24-2.83-.72-4.15-.09-.25-.13-.52-.12-.79,0-.09.01-.18.02-.27v-.1c0-8.91-2.43-12.54-8.42-12.54-4.46,0-14.92,4.03-17.6,6.1-.35.27-.78.42-1.22.42h-20.42c-7.33,0-13.3,5.97-13.3,13.3v13.81l1.03,23.11h3.81l.54-13.82c.04-.99.79-1.8,1.78-1.91,2.22-.25,4.25-1.34,5.7-3.06.38-.45.94-.71,1.53-.71h24.6c1.07,0,1.95.84,2,1.92l.74,17.59Z"/>
    </g>
    <g>
      <g>
        <g>
          <path class="cls-3" d="M96.25,39.94s8.92,1.05,10.07,5.91c0,0-6.16,3.19-10.07,2.07"/>
          <path class="cls-9" d="M98.13,50.15c-.84,0-1.66-.09-2.43-.31-1.06-.3-1.68-1.41-1.37-2.47.3-1.06,1.41-1.68,2.47-1.37,1.73.5,4.55-.23,6.74-1.09-1.73-1.76-5.54-2.75-7.53-2.98-1.1-.13-1.88-1.12-1.75-2.22.13-1.1,1.12-1.89,2.22-1.75,1.06.12,10.36,1.38,11.79,7.44.21.89-.21,1.81-1.03,2.24-.58.3-5.02,2.53-9.12,2.53Z"/>
        </g>
        <g>
          <path class="cls-3" d="M74.68,47.69s-5.73-.22-10.18-1.95c0,0,3.66-6.6,8.47-6.2"/>
          <path class="cls-9" d="M74.68,49.69s-.05,0-.08,0c-.25,0-6.12-.25-10.83-2.09-.54-.21-.96-.64-1.15-1.18s-.15-1.14.13-1.65c.18-.32,4.36-7.72,10.38-7.23,1.1.09,1.92,1.06,1.83,2.16s-1.05,1.92-2.16,1.83c-1.92-.15-3.82,1.53-5.12,3.12,3.51.9,7.03,1.04,7.08,1.04,1.1.04,1.96.97,1.92,2.07-.04,1.08-.93,1.92-2,1.92Z"/>
        </g>
        <g>
          <path class="cls-2" d="M80.58,67.23h9.77c2.03,0,3.67-1.65,3.67-3.67l2.22-23.61h-21.57l2.22,23.61c0,2.03,1.65,3.67,3.67,3.67Z"/>
          <path class="cls-9" d="M90.35,69.23h-9.77c-3.09,0-5.62-2.49-5.67-5.57l-2.22-23.53c-.05-.56.13-1.12.51-1.53.38-.42.92-.65,1.48-.65h21.57c.56,0,1.1.24,1.48.65.38.42.56.97.51,1.53l-2.22,23.53c-.06,3.08-2.58,5.57-5.67,5.57ZM76.88,41.94l2.02,21.43c0,.06,0,.12,0,.19,0,.92.75,1.67,1.67,1.67h9.77c.92,0,1.67-.75,1.67-1.67,0-.06,0-.12,0-.19l2.02-21.43h-17.18Z"/>
        </g>
      </g>
      <g>
        <path class="cls-6" d="M76.94,55.74h17.05c1.82,0,3.3,1.48,3.3,3.3v5.88c0,1.27-1.03,2.31-2.31,2.31h-19.04c-1.27,0-2.31-1.03-2.31-2.31v-5.88c0-1.82,1.48-3.3,3.3-3.3Z" transform="translate(170.93 122.97) rotate(180)"/>
        <path class="cls-9" d="M93.99,69.23h-17.05c-2.92,0-5.3-2.38-5.3-5.3v-5.88c0-2.38,1.93-4.31,4.31-4.31h19.04c2.38,0,4.31,1.93,4.31,4.31v5.88c0,2.92-2.38,5.3-5.3,5.3ZM75.95,57.74c-.17,0-.31.14-.31.31v5.88c0,.72.58,1.3,1.3,1.3h17.05c.72,0,1.3-.58,1.3-1.3v-5.88c0-.17-.14-.31-.31-.31h-19.04Z"/>
      </g>
    </g>
    <path class="cls-9" d="M16.99,69.18c-.16,0-.31-.02-.47-.06-1.07-.26-1.73-1.34-1.47-2.42,2.29-9.44,8.63-14.85,17.4-14.85h8.09c1.1,0,2,.9,2,2s-.9,2-2,2h-8.09c-9.27,0-12.44,7.39-13.51,11.8-.22.92-1.04,1.53-1.94,1.53Z"/>
    <path class="cls-9" d="M90.2,41.94c-1.1,0-2-.9-2-2s.9-2,2-2c1.44,0,2.56-.44,3.42-1.33,2.27-2.36,2.16-7.05,2.16-7.09-.04-1.1.82-2.03,1.92-2.07,1.1-.06,2.03.82,2.07,1.92,0,.26.2,6.41-3.28,10.02-1.64,1.7-3.75,2.56-6.3,2.56Z"/>
    <path class="cls-9" d="M80.7,41.94c-2.54,0-4.66-.86-6.3-2.56-3.47-3.61-3.29-9.76-3.28-10.02.04-1.1.97-1.98,2.07-1.92,1.1.04,1.96.97,1.92,2.07-.04,1.31.27,5.14,2.17,7.1.86.89,1.98,1.32,3.41,1.32,1.1,0,2,.9,2,2s-.9,2-2,2Z"/>
    <g>
      <path class="cls-8" d="M45.32,80.97s-.72,5.14-3.7,7.6"/>
      <path class="cls-9" d="M41.62,90.57c-.58,0-1.15-.25-1.54-.73-.7-.85-.58-2.11.27-2.82,2.32-1.91,2.99-6.3,3-6.34.15-1.09,1.16-1.86,2.26-1.7,1.09.15,1.86,1.17,1.7,2.26-.08.61-.93,5.99-4.41,8.87-.37.31-.82.46-1.27.46Z"/>
    </g>
    <path class="cls-5" d="M32.63,71.7c-1.1,0-2-.9-2-2,0-5.91,4.81-10.72,10.72-10.72h8.69c1.1,0,2,.9,2,2s-.9,2-2,2h-8.69c-3.7,0-6.72,3.01-6.72,6.72,0,1.1-.9,2-2,2Z"/>
  </g>
  <g id="area">
    <rect class="cls-1" y="0" width="112" height="112"/>
  </g>
</svg>