<?xml version="1.0" encoding="UTF-8"?>
<svg id="flatten_icons" xmlns="http://www.w3.org/2000/svg" viewBox="0 0 112 112">
  <defs>
    <style>
      .cls-1 {
        fill: none;
      }

      .cls-2 {
        fill: #f78d46;
      }

      .cls-3 {
        fill: #ffaf50;
      }

      .cls-4 {
        fill: #bd9578;
      }

      .cls-5 {
        fill: #ffe549;
      }

      .cls-6 {
        fill: #ffc84d;
      }

      .cls-7 {
        fill: #f48040;
      }

      .cls-8 {
        fill: #004241;
      }
    </style>
  </defs>
  <rect class="cls-6" x="7" y="28" width="98" height="56" rx="9.45" ry="9.45" transform="translate(112 112) rotate(180)"/>
  <path class="cls-3" d="M7,37.45v8.26c8.82,18.07,27.38,30.52,48.84,30.52s40.47-12.76,49.16-31.2v-7.58c0-5.22-4.23-9.45-9.45-9.45H16.45c-5.22,0-9.45,4.23-9.45,9.45Z"/>
  <rect class="cls-1" width="112" height="112"/>
  <path class="cls-2" d="M95.55,28H16.45c-.08,0-.17.01-.25.01,3.01,19.27,19.67,34.02,39.79,34.02s36.79-14.75,39.79-34.02c-.08,0-.16-.01-.23-.01Z"/>
  <g>
    <polygon class="cls-4" points="54.87 69.48 49.23 80.3 50.99 83.46 54.33 83.31 60.48 72.28 58.75 68.9 54.87 69.48"/>
    <polygon class="cls-4" points="53.89 93.32 41.56 92.53 39.32 95.38 40.79 98.34 53.52 99.5 55.98 96.59 53.89 93.32"/>
    <polygon class="cls-4" points="74.66 94.12 67.54 84.17 63.88 84.24 62.47 87.23 69.53 97.71 73.38 97.77 74.66 94.12"/>
    <path class="cls-7" d="M84.9,72.68s3.54-7.49,1.76-17.28c-1.79-9.79-8.86-14.96-10.47-18.68-1.6-3.72-1.99-9.68-1.99-9.68,0,0-5.5,2.95-6.45,9.68-.95,6.73-.58,8.17-.58,8.17,0,0-11.13-13.04-12.84-17.84-1.71-4.8-2.42-11.48-.63-14.96,0,0-5.32,2.81-9.7,8.2-4.38,5.39-2.92,16.53-2.01,21.02.74,3.63,2,9.26.73,12.41-.59.99-1.61,1.75-3.28,2.68-2.56,1.43-4.4.74-5.45,0-1.93-1.74-4.04-7.08-4.04-7.08l.98-3.87s-6.85,7.81-6.26,14.71c.59,6.9,2.63,13.67,2.63,13.67l.46-.74c2.21,3.45,6.41,9.39,8.76,8.85,3.28-.75,1.93-3.79,1.79-6.31-.15-2.52,2.96-16.51,14.63-17.15,11.68-.64,17.93,3.68,19.91,7.99,1.98,4.31,1.98,12.08,4.36,12.15,2.37.07,4.52-.05,6.11-2.98.37-.69.97-.79,1.66-.56,0-.13,0-.25,0-.38,0-.67-.03-1.34-.08-2h0Z"/>
    <path class="cls-5" d="M52.94,43.96c-3.11-6.58-11.03-6.2-8.94-23.69-4.38,5.39-2.92,16.53-2.01,21.02.74,3.63,2,9.26.73,12.41-.59.99-1.61,1.75-3.28,2.68-2.56,1.43-4.4.74-5.45,0-1.93-1.74-4.04-7.08-4.04-7.08l.98-3.87s-6.85,7.81-6.26,14.71c.59,6.9,2.63,13.67,2.63,13.67l.46-.74c2.21,3.45,6.41,9.39,8.76,8.85,3.28-.75,1.93-3.79,1.79-6.31-.15-2.52,2.96-16.51,14.63-17.15,0,0,3.11-7.92,0-14.5Z"/>
    <path class="cls-8" d="M52.55,85.86c-.81,0-1.64-.19-2.41-.58,0,0,0,0,0,0l-.14-.07c-1.24-.64-2.16-1.73-2.58-3.06-.41-1.32-.28-2.72.37-3.95l4.76-8.93c1.34-2.52,4.5-3.49,7.04-2.18l.14.07c1.25.65,2.17,1.73,2.58,3.07.41,1.32.28,2.72-.37,3.95l-4.76,8.93c-.94,1.76-2.76,2.76-4.64,2.76ZM51.98,81.72c.61.31,1.36.09,1.68-.5l4.76-8.93c.15-.27.17-.58.08-.88-.09-.3-.31-.55-.6-.7l-.14-.07c-.61-.31-1.36-.09-1.68.5l-4.76,8.93c-.15.27-.17.58-.08.88.09.3.31.55.6.7l.14.07Z"/>
    <path class="cls-8" d="M52.82,101.02c-.08,0-.16,0-.25,0l-10.4-.48c-1.41-.06-2.7-.67-3.64-1.71-.93-1.02-1.41-2.34-1.34-3.71v-.16c.14-2.85,2.6-5.05,5.48-4.94l10.4.48c1.41.06,2.7.67,3.64,1.71.93,1.02,1.41,2.34,1.34,3.71v.16c-.14,2.77-2.46,4.94-5.23,4.94ZM42.42,94.02c-.65,0-1.2.49-1.23,1.13v.16s0,0,0,0c-.01.31.09.6.3.83.22.24.53.39.87.4l10.4.48c.67.04,1.26-.47,1.29-1.13v-.16c.02-.31-.09-.6-.3-.83-.22-.24-.53-.39-.87-.4l-10.4-.48s-.04,0-.06,0ZM39.19,95.21h0,0Z"/>
    <path class="cls-8" d="M71.41,100.31c-1.67,0-3.3-.78-4.32-2.24l-5.64-8.1c-.79-1.14-1.09-2.52-.84-3.88.26-1.37,1.04-2.56,2.2-3.34l.13-.09c2.37-1.6,5.62-1,7.25,1.34l5.64,8.1c.79,1.14,1.09,2.52.84,3.88-.26,1.37-1.04,2.56-2.2,3.34l-.13.09c-.9.61-1.92.9-2.94.9ZM65.89,85.76c-.24,0-.49.07-.71.22l-.13.09c-.27.18-.45.45-.5.76-.06.3.01.61.19.86l5.64,8.1c.39.55,1.16.69,1.73.31l.13-.09s0,0,0,0c.27-.18.45-.45.5-.76.06-.3-.01-.61-.19-.86l-5.64-8.1c-.24-.34-.63-.53-1.02-.53Z"/>
    <path class="cls-8" d="M35.39,84.07c-1.29,0-2.55-.49-3.54-1.45-3.44-3.31-6.01-7.21-7.43-11.26-3.25-9.23-2.12-17.8,3.43-26.2.68-1.03,1.98-1.46,3.15-1.06,1.17.41,1.92,1.55,1.82,2.78-.11,1.36-.22,2.64-.11,3.81.23,2.42,1.93,4.1,4.23,4.2.92.03,3.93-.11,4.28-3.48.32-3.05,0-6.07-.89-8.5-6.94-18.78,5.16-28.39,10.69-31.65.98-.58,2.18-.49,3.06.21.89.7,1.24,1.86.9,2.94-2.34,7.46,1.51,13.28,6.02,19.09,1.47,1.89,2.9,3.78,4.38,5.75.65-6.52,2.79-9.67,6.19-12.61.81-.7,1.97-.86,2.94-.4.98.46,1.59,1.46,1.55,2.54-.15,4.7,2.59,8.32,5.49,12.16.5.66.99,1.31,1.48,1.97,8.57,11.74,8.48,26.2-.22,36.85-1.43,1.75-3.71,2.35-5.83,1.55-2.04-.78-3.3-2.67-3.2-4.84,0-.21.01-.41.01-.62,0-8.59-7.51-15.57-16.74-15.57s-16.74,6.99-16.74,15.57c0,.79.06,1.58.19,2.35.35,2.16-.69,4.22-2.65,5.25-.78.41-1.62.61-2.44.61ZM28.8,51.67c-2.67,5.91-2.86,11.96-.6,18.37,1.22,3.46,3.44,6.82,6.43,9.7.55.53,1.18.27,1.35.17.25-.13.66-.45.56-1.06-.16-.98-.24-1.99-.24-3,0-10.79,9.3-19.57,20.74-19.57s20.74,8.78,20.74,19.57c0,.26,0,.52-.02.78-.02.56.33.81.63.93.18.07.82.25,1.31-.34,7.51-9.19,7.55-21.74.09-31.96h0c-.47-.64-.95-1.28-1.43-1.92-2.66-3.52-5.4-7.13-6.12-11.77-1.95,2.32-3.18,5.66-3.06,13.35.01.87-.53,1.64-1.35,1.92-.82.28-1.73,0-2.25-.69-.88-1.16-1.73-2.29-2.56-3.4-1.78-2.37-3.46-4.6-5.18-6.82-4.19-5.4-8.44-11.72-7.4-19.49-5.41,4.1-11.22,11.88-6.35,25.06,1.42,3.84,1.39,7.73,1.12,10.31-.47,4.41-3.86,7.23-8.42,7.06-4.12-.17-7.33-3.1-7.97-7.22Z"/>
  </g>
</svg>