<?xml version="1.0" encoding="UTF-8"?>
<svg id="flatten_icons" xmlns="http://www.w3.org/2000/svg" viewBox="0 0 112 112">
  <defs>
    <style>
      .cls-1 {
        fill: none;
      }

      .cls-2 {
        fill: #f9ba67;
      }

      .cls-3 {
        fill: #bd9578;
      }

      .cls-4 {
        fill: #dbc59b;
      }

      .cls-5 {
        fill: #ed8666;
      }

      .cls-6 {
        fill: #004241;
      }

      .cls-7 {
        fill: #f7a277;
      }
    </style>
  </defs>
  <rect class="cls-5" x="7" y="28" width="98" height="56" rx="9.45" ry="9.45"/>
  <path class="cls-7" d="M105,74.55v-8.26c-8.82-18.07-27.38-30.52-48.84-30.52S15.69,48.53,7,66.97v7.58c0,5.22,4.23,9.45,9.45,9.45h79.1c5.22,0,9.45-4.23,9.45-9.45Z"/>
  <path class="cls-2" d="M16.45,84h79.1c.08,0,.17-.01.25-.01-3.01-19.27-19.67-34.02-39.79-34.02s-36.79,14.75-39.79,34.02c.08,0,.16.01.23.01Z"/>
  <rect class="cls-1" width="112" height="112"/>
  <g>
    <path class="cls-4" d="M29.87,28.61v57.99c0,5.92,11.54,10.71,25.77,10.71s25.77-4.8,25.77-10.71v-13.35s2.73-9.13,13.81-16.07c.23-.15.46-.29.67-.44.45-.31.53-.87.2-1.28l-4.45-5.5-1.63-.16c-1.88,1.52-5.23,2.21-8.59,2.51v-23.71"/>
    <path class="cls-3" d="M96.09,55.46l-4.45-5.5-1.61-.18c-1.87,1.54-5.24,2.23-8.62,2.54v-23.71h-40.09v29.92c0,1.61,1.3,2.91,2.91,2.91h0c1.61,0,2.91,1.3,2.91,2.91v11.08c0,.77-.31,1.51-.85,2.06l-4.31,4.31c-1.14,1.14-1.14,2.98,0,4.12l2,2c1.38,1.38,1.04,3.7-.67,4.62l-4.2,2.27c4.47,1.56,10.24,2.5,16.53,2.5,14.23,0,25.77-4.8,25.77-10.71v-13.35s2.73-9.13,13.81-16.07c.23-.15.46-.29.67-.44.45-.31.53-.87.2-1.28Z"/>
    <path class="cls-4" d="M78.35,61.34c-.23.89-1.48.97-1.85.12-.84-1.94-1.66-4.67-1.38-7.51.53-5.37,3.71-.56,16.51-3.98,0,0,4.71,4.49,1.9,4.22s-6.44,2.52-12.13,3.67c-1.81.36-2.66,1.97-3.05,3.49Z"/>
    <path class="cls-4" d="M57.05,40.01v10.01c0,.6.22,1.18.63,1.62l1.65,1.82c1.16,1.28,3.26.96,3.98-.62l1.27-2.78c.32-.69.94-1.19,1.68-1.35l.95-.21c1.11-.24,1.9-1.22,1.9-2.36v-2.04c0-.63-.25-1.24-.7-1.69l-3.04-3.08"/>
    <ellipse class="cls-3" cx="55.64" cy="28.61" rx="25.77" ry="10.71"/>
    <path class="cls-4" d="M50.12,24.94c1.68-.23,3.55-.35,5.52-.35,7.44,0,13.47,1.8,13.47,4.02s-6.03,4.02-13.47,4.02-13.47-1.8-13.47-4.02c0-.96,1.13-1.84,3.01-2.54"/>
    <g>
      <path class="cls-6" d="M39.64,67.97c-1.1,0-2-.9-2-2v-1.67c0-1.1.9-2,2-2s2,.9,2,2v1.67c0,1.1-.9,2-2,2Z"/>
      <path class="cls-6" d="M66.57,70.58c-1.1,0-2-.9-2-2v-2.6c0-1.1.9-2,2-2s2,.9,2,2v2.6c0,1.1-.9,2-2,2Z"/>
      <path class="cls-6" d="M51.08,97.55c-1.1,0-2-.9-2-2v-2.73c0-1.1.9-2,2-2s2,.9,2,2v2.73c0,1.1-.9,2-2,2Z"/>
      <path class="cls-6" d="M97.64,54.2l-3.91-4.83c-.3-.37-.73-.63-1.2-.71l-2.66-.47c-.51-.09-1.02.02-1.45.3-.77.51-2.24,1.15-5.01,1.57v-21.46c0-7.25-11.94-12.71-27.77-12.71s-27.77,5.47-27.77,12.71v57.99c0,7.25,11.94,12.71,27.77,12.71s27.77-5.47,27.77-12.71v-13.02c.53-1.44,3.61-8.9,12.87-14.71.26-.16.51-.33.74-.49.67-.47,1.12-1.19,1.24-1.98.11-.78-.11-1.59-.62-2.21ZM55.64,19.9c13.6,0,23.77,4.6,23.77,8.71s-10.17,8.71-23.77,8.71-23.77-4.6-23.77-8.71,10.17-8.71,23.77-8.71ZM79.47,72.77c-.04.16-.06.32-.06.48v13.35c0,2.65-4.21,5.49-10.84,7.19v-15.54c0-1.1-.9-2-2-2s-2,.9-2,2v16.36c-2.73.44-5.73.7-8.93.7-13.6,0-23.77-4.6-23.77-8.71v-51.23c1.54,1.17,3.49,2.2,5.76,3.07v10.57c0,1.1.9,2,2,2s2-.9,2-2v-9.32c4.06,1.04,8.82,1.63,14,1.63.33,0,.65,0,.97-.01v1.7c0,1.1.9,2,2,2s2-.9,2-2v-1.88c8.11-.62,14.81-2.73,18.8-5.76v14.95h-3.17c-1.1,0-2,.9-2,2s.9,2,2,2h5.17s.06,0,.1,0c.03,0,.06,0,.09,0,3.63-.33,6.36-1,8.31-2.05l1.2.21,2.65,3.27c-11.42,7.34-14.25,16.92-14.28,17.02Z"/>
      <path class="cls-6" d="M55.64,34.63c-7.14,0-15.47-1.58-15.47-6.02,0-1.87,1.45-3.36,4.32-4.41,1.04-.38,2.19.15,2.57,1.19.38,1.04-.15,2.19-1.19,2.57-.68.25-1.13.49-1.4.67,1.24.83,5.11,2.01,11.17,2.01s9.97-1.2,11.19-2.02c-1.22-.83-5.1-2.02-11.19-2.02-1.1,0-2-.9-2-2s.9-2,2-2c7.14,0,15.47,1.58,15.47,6.02s-8.33,6.02-15.47,6.02ZM67.18,28.93h.01-.01Z"/>
    </g>
  </g>
</svg>