<svg width="40" height="40" viewBox="0 0 40 40" fill="none" xmlns="http://www.w3.org/2000/svg">
<g clip-path="url(#clip0_292_574)">
<path d="M29.6429 38.7465H9.64287C9.25002 38.7465 8.92859 38.425 8.92859 38.0322V26.6215C8.92859 26.2286 9.25002 25.9072 9.64287 25.9072H29.6429C30.0357 25.9072 30.3572 26.2286 30.3572 26.6215V38.0322C30.3572 38.425 30.0357 38.7465 29.6429 38.7465ZM10.3572 37.3179H28.9286V27.3357H10.3572V37.3179Z" fill="#667085"/>
<path d="M19.5964 24.5214C19.4321 24.5214 19.2678 24.4643 19.1321 24.35C19.0464 24.2786 17.0393 22.5536 15.0036 19.9179C12.2321 16.3286 10.8286 12.9357 10.8286 9.82859C10.8286 4.99287 14.7643 1.06073 19.5964 1.06073C24.4286 1.06073 28.3643 4.99644 28.3643 9.82859C28.3643 16.4857 20.4214 24.0107 20.0821 24.3286C19.9464 24.4572 19.7678 24.5214 19.5928 24.5214H19.5964ZM19.5964 2.48573C15.55 2.48573 12.2571 5.77859 12.2571 9.82502C12.2571 15.5322 17.8714 21.225 19.5786 22.8214C21.2678 21.1143 26.9393 14.9893 26.9393 9.82502C26.9393 5.77859 23.6464 2.48573 19.6 2.48573H19.5964Z" fill="#667085"/>
<path d="M19.5964 13.8536C17.3285 13.8536 15.4821 12.0071 15.4821 9.73929C15.4821 7.47143 17.3285 5.625 19.5964 5.625C21.8643 5.625 23.7107 7.47143 23.7107 9.73929C23.7107 12.0071 21.8643 13.8536 19.5964 13.8536ZM19.5964 7.05357C18.1143 7.05357 16.9107 8.25714 16.9107 9.73929C16.9107 11.2214 18.1143 12.425 19.5964 12.425C21.0785 12.425 22.2821 11.2214 22.2821 9.73929C22.2821 8.25714 21.0785 7.05357 19.5964 7.05357Z" fill="#667085"/>
<path d="M26.7857 30.8H22.6786C22.2857 30.8 21.9643 30.4785 21.9643 30.0857C21.9643 29.6928 22.2857 29.3714 22.6786 29.3714H26.7857C27.1786 29.3714 27.5 29.6928 27.5 30.0857C27.5 30.4785 27.1786 30.8 26.7857 30.8Z" fill="#667085"/>
<path d="M24.7322 32.9893H22.6786C22.2857 32.9893 21.9643 32.6679 21.9643 32.275C21.9643 31.8822 22.2857 31.5607 22.6786 31.5607H24.7322C25.125 31.5607 25.4464 31.8822 25.4464 32.275C25.4464 32.6679 25.125 32.9893 24.7322 32.9893Z" fill="#667085"/>
<path d="M16.1965 38.7465H13.3715C12.9786 38.7465 12.6572 38.425 12.6572 38.0322V26.6215C12.6572 26.2286 12.9786 25.9072 13.3715 25.9072H16.1965C16.5893 25.9072 16.9107 26.2286 16.9107 26.6215V38.0322C16.9107 38.425 16.5893 38.7465 16.1965 38.7465ZM14.0857 37.3179H15.4822V27.3357H14.0857V37.3179Z" fill="#667085"/>
</g>
<defs>
<clipPath id="clip0_292_574">
<rect width="40" height="40" fill="white"/>
</clipPath>
</defs>
</svg>
