<svg width="40" height="40" viewBox="0 0 40 40" fill="none" xmlns="http://www.w3.org/2000/svg">
<g id="point-relais 1" clip-path="url(#clip0_36_137)">
<path id="Vector" d="M19.8785 5.72852C29.6035 5.72852 37.4999 13.6249 37.4999 23.3499V36.4714C37.4999 37.7321 36.4749 38.7571 35.2142 38.7571H4.54279C3.28208 38.7571 2.25708 37.7321 2.25708 36.4714V23.3499C2.25708 13.6249 10.1535 5.72852 19.8785 5.72852Z" fill="#C9E2DF"/>
<path id="Vector_2" d="M37.5001 36.4714V23.35C37.5001 21.4071 37.1822 19.5393 36.6001 17.7928H34.9287C34.518 17.7928 34.1858 18.125 34.1858 18.5357V21.4964C34.1858 21.9071 33.8537 22.2393 33.4429 22.2393H25.9751C25.5644 22.2393 25.2322 22.5714 25.2322 22.9821V34.8428H12.5001V22.9821C12.5001 22.5714 12.1679 22.2393 11.7572 22.2393H2.29295C2.27152 22.6071 2.25366 22.975 2.25366 23.3464V36.4678C2.25366 37.7321 3.27866 38.7536 4.53938 38.7536H35.2108C36.4751 38.7536 37.4965 37.7286 37.4965 36.4678L37.5001 36.4714Z" fill="#BAD6D2"/>
<g id="Group">
<path id="Vector_3" d="M29.6428 26.6213H9.64282V38.0321H29.6428V26.6213Z" fill="#C9B58F"/>
<path id="Vector_4" d="M29.6428 38.7464H9.64275C9.2499 38.7464 8.92847 38.425 8.92847 38.0321V26.6214C8.92847 26.2285 9.2499 25.9071 9.64275 25.9071H29.6428C30.0356 25.9071 30.357 26.2285 30.357 26.6214V38.0321C30.357 38.425 30.0356 38.7464 29.6428 38.7464ZM10.357 37.3178H28.9285V27.3357H10.357V37.3178Z" fill="#004241"/>
</g>
<g id="Group_2">
<path id="Vector_5" d="M27.6535 9.82493C27.6535 16.2499 19.6 23.8035 19.6 23.8035C19.6 23.8035 11.5464 16.9249 11.5464 9.82493C11.5464 5.37493 15.1535 1.77136 19.6 1.77136C24.0464 1.77136 27.6535 5.3785 27.6535 9.82493Z" fill="#DD7957"/>
<path id="Vector_6" d="M19.5965 24.5214C19.4322 24.5214 19.2679 24.4642 19.1322 24.35C19.0465 24.2785 17.0393 22.5535 15.0036 19.9178C12.2322 16.3285 10.8286 12.9357 10.8286 9.82853C10.8286 4.99281 14.7643 1.06067 19.5965 1.06067C24.4286 1.06067 28.3643 4.99638 28.3643 9.82853C28.3643 16.4857 20.4215 24.0107 20.0822 24.3285C19.9465 24.4571 19.7679 24.5214 19.5929 24.5214H19.5965ZM19.5965 2.48567C15.55 2.48567 12.2572 5.77853 12.2572 9.82495C12.2572 15.5321 17.8715 21.225 19.5786 22.8214C21.2679 21.1142 26.9393 14.9892 26.9393 9.82495C26.9393 5.77853 23.6465 2.48567 19.6 2.48567H19.5965Z" fill="#004241"/>
</g>
<g id="Group_3">
<path id="Vector_7" d="M19.5965 13.1392C21.4743 13.1392 22.9965 11.617 22.9965 9.73923C22.9965 7.86147 21.4743 6.33923 19.5965 6.33923C17.7188 6.33923 16.1965 7.86147 16.1965 9.73923C16.1965 11.617 17.7188 13.1392 19.5965 13.1392Z" fill="#F2E9D7"/>
<path id="Vector_8" d="M19.5965 13.8536C17.3286 13.8536 15.4822 12.0071 15.4822 9.73929C15.4822 7.47143 17.3286 5.625 19.5965 5.625C21.8643 5.625 23.7107 7.47143 23.7107 9.73929C23.7107 12.0071 21.8643 13.8536 19.5965 13.8536ZM19.5965 7.05357C18.1143 7.05357 16.9107 8.25714 16.9107 9.73929C16.9107 11.2214 18.1143 12.425 19.5965 12.425C21.0786 12.425 22.2822 11.2214 22.2822 9.73929C22.2822 8.25714 21.0786 7.05357 19.5965 7.05357Z" fill="#004241"/>
</g>
<path id="Vector_9" d="M26.7858 30.8H22.6786C22.2858 30.8 21.9644 30.4786 21.9644 30.0857C21.9644 29.6929 22.2858 29.3715 22.6786 29.3715H26.7858C27.1786 29.3715 27.5001 29.6929 27.5001 30.0857C27.5001 30.4786 27.1786 30.8 26.7858 30.8Z" fill="#004241"/>
<path id="Vector_10" d="M24.7322 32.9892H22.6786C22.2858 32.9892 21.9644 32.6678 21.9644 32.275C21.9644 31.8821 22.2858 31.5607 22.6786 31.5607H24.7322C25.1251 31.5607 25.4465 31.8821 25.4465 32.275C25.4465 32.6678 25.1251 32.9892 24.7322 32.9892Z" fill="#004241"/>
<g id="Group_4">
<path id="Vector_11" d="M16.1966 26.6213H13.3716V38.0321H16.1966V26.6213Z" fill="#F2E9D7"/>
<path id="Vector_12" d="M16.1965 38.7464H13.3715C12.9787 38.7464 12.6572 38.425 12.6572 38.0321V26.6214C12.6572 26.2285 12.9787 25.9071 13.3715 25.9071H16.1965C16.5894 25.9071 16.9108 26.2285 16.9108 26.6214V38.0321C16.9108 38.425 16.5894 38.7464 16.1965 38.7464ZM14.0858 37.3178H15.4822V27.3357H14.0858V37.3178Z" fill="#004241"/>
</g>
<path id="Vector_13" d="M6.78565 31.9714C6.78565 31.4999 6.40351 31.1178 5.93208 31.1178H2.25708V36.4714C2.25708 37.7357 3.28208 38.7571 4.54279 38.7571H6.78565V31.9714Z" fill="#A7C6C1"/>
<path id="Vector_14" d="M33.6463 28.6072C33.2178 28.6072 32.8713 28.9536 32.8713 29.3822V38.7572H35.2106C36.4749 38.7572 37.4963 37.7322 37.4963 36.4715V28.6107H33.6428L33.6463 28.6072Z" fill="#A7C6C1"/>
</g>
<defs>
<clipPath id="clip0_36_137">
<rect width="40" height="40" fill="white"/>
</clipPath>
</defs>
</svg>
