<?xml version="1.0" encoding="UTF-8"?>
<svg id="outline_icons" xmlns="http://www.w3.org/2000/svg" viewBox="0 0 112 112">
  <defs>
    <style>
      .cls-1 {
        fill: none;
      }

      .cls-2 {
        fill: #3e5f9b;
      }

      .cls-3 {
        fill: #ef706b;
      }

      .cls-4 {
        fill: #004241;
      }

      .cls-5 {
        fill: #eee;
      }
    </style>
  </defs>
  <g id="area">
    <rect class="cls-1" y="0" width="112" height="112"/>
  </g>
  <path class="cls-2" d="M57.94,4.71c-1.55-.32-3.16.55-4.24,1.65-2.62,2.73-1.43,8.06-5.17,10.46-2.15,1.68-5.04,2.4-6.91,4.22-1.32,1.29-1.27,2.64-2.34,3.26-1.44.79-3.18.76-4.83.42-2.89-.45-5.11-4.01-7.9-3.17-3.52,2.44,5.9,11.51-3.17,11.82-1.83.18-3.2.02-4.68-.7-1.36-.64-2.65-1.66-4.27-1.49-1.01.08-2.06.37-3.07.64-2.64.83-5.7,1.27-6.81,3.07-.77,1.56.65,3.21.68,4.75.1.69.22,1.28,1.26,1.99,2.6,1.73,10.49,4,13.84,6.47,2.48,1.7,2.71,4.4,4.38,7.11,1,1.7,2.6,2.97,3.94,4.37,1.33,1.28,2.13,2.7,1.78,4.35-.06,1.04.28,1.74,1.04,3.02.4.77,1.19,1.55,1.34,2.33,0,.07,0,.07-.04.21-.41.59-1.15.97-1.51,1.65-1.28,2.17-.69,6.16-1.3,8.84-.45,2.31-1.4,5.25-2.09,7.81-.48,1.87-.72,3.78.28,5.34,3.21,3.71,9.7,5.11,14.21,5.17,2.27-.08,4.46-.4,6.66.31,3.77,1.27,9.37,4.85,12.93,2.51,1.54-1.04,1.74-3,2.14-4.69.42-2.1,1.42-3.85,3.61-4.73,4.97-2.14,10.23.47,15.04,1.83,4.94,1.12,10.69-1.59,13.82-6.08,2.84-3.98-.47-4.14-2.41-7.35-.75-1.43-1.26-3.24-1.38-4.79-.24-1.81.79-3.36,1.04-5.05.21-1.66-.27-3.25-.57-4.96-.4-2-.38-4.23-1.78-5.51-.75-.72-1.8-1.17-2.6-1.79-2.35-1.83,1.95-5.29,2.92-7.09,1.95-3.14,5.3-4.57,6.28-8.34.24-.79.43-1.65.62-2.47.93-4.19,3.16-7.75,2.43-10.1-.34-1.56-2.88-2.55-4.83-2.9-2.85-.53-5.28-1.68-7.81-2.96-3.21-1.62-7.63-2.1-9.76-4.57-.77-.81-1.5-1.81-2.46-2.29-1.4-.65-2.63-.37-4.01-1.72-1.2-1.1-2.38-2.36-3.7-3.38-2.18-1.76-4.54-3.02-6.39-4.58-1.36-1.09-2.43-2.32-4.08-2.85l-.14-.03Z"/>
  <path class="cls-3" d="M105.54,92.9c-.58.3-1.04,1.1-1.49,1.63-1.9,2.35-4.59,2.53-4.71,5.39.06,2.9,1.16,6,2.64,8.56,3.82,4.87,6.16-9.13,5.13-12.69-.26-1.55-.81-3.16-1.47-2.92l-.1.03Z"/>
  <path class="cls-3" d="M96.29,27.11c-2.85-.53-5.28-1.68-7.81-2.96-3.21-1.62-7.63-2.1-9.76-4.57-.77-.81-1.5-1.81-2.46-2.29-.78-.36-1.5-.44-2.23-.66v74.47c2.96.45,5.92,1.67,8.72,2.46,4.94,1.12,10.69-1.59,13.82-6.08,2.84-3.98-.47-4.14-2.41-7.35-.75-1.43-1.26-3.24-1.38-4.79-.24-1.81.79-3.36,1.04-5.05.21-1.66-.27-3.25-.57-4.96-.4-2-.38-4.23-1.78-5.51-.75-.72-1.8-1.17-2.6-1.79-2.35-1.83,1.95-5.29,2.92-7.09,1.95-3.14,5.3-4.57,6.28-8.34.24-.79.43-1.65.62-2.47.93-4.19,3.16-7.75,2.43-10.1-.34-1.56-2.88-2.55-4.83-2.9Z"/>
  <path class="cls-5" d="M72.25,15.56c-1.2-1.1-2.38-2.36-3.7-3.38-2.18-1.76-4.54-3.02-6.39-4.58-1.36-1.09-2.43-2.32-4.08-2.85l-.14-.03c-1.55-.32-3.16.55-4.24,1.65-2.62,2.73-1.43,8.06-5.17,10.46-1.04.81-2.25,1.4-3.43,2v79.35c1.32-.04,2.62.02,3.93.44,3.77,1.27,9.37,4.85,12.93,2.51,1.54-1.04,1.74-3,2.14-4.69.42-2.1,1.42-3.85,3.61-4.73,2.07-.89,4.2-.95,6.32-.63V16.62c-.58-.18-1.17-.45-1.79-1.05Z"/>
  <g>
    <path class="cls-4" d="M59.15,103.9c-2.72,0-5.58-1.23-8.04-2.29-.99-.43-1.93-.83-2.72-1.1-1.4-.45-2.89-.37-4.62-.27-.44.02-.89.05-1.34.06-5.06-.07-12.14-1.66-15.79-5.87-.06-.07-.12-.15-.17-.23-1.46-2.27-1.06-4.89-.54-6.92.24-.88.5-1.79.76-2.69.5-1.74,1.02-3.54,1.3-5,.21-.94.26-2.08.32-3.29.09-2.19.19-4.45,1.23-6.2.23-.44.57-.81.88-1.11-.01-.02-.02-.03-.03-.05-.21-.3-.46-.65-.66-1.03-.82-1.38-1.39-2.49-1.3-4.11,0-.1.02-.21.04-.31.06-.3.23-1.1-1.21-2.49-.4-.41-.76-.76-1.12-1.11-1.12-1.08-2.29-2.21-3.16-3.69-.64-1.04-1.09-2.09-1.49-3.01-.67-1.56-1.15-2.68-2.29-3.46-1.73-1.28-4.96-2.57-7.81-3.71-2.52-1.01-4.7-1.88-6.01-2.75-1.68-1.14-1.98-2.34-2.13-3.37-.01-.08-.02-.17-.02-.25,0-.27-.17-.73-.33-1.18-.42-1.17-.99-2.77-.14-4.49.03-.06.06-.11.09-.17,1.29-2.1,3.84-2.79,6.3-3.47.54-.15,1.09-.3,1.62-.46l.24-.06c1-.26,2.13-.56,3.27-.66,1.8-.19,3.25.6,4.42,1.23.29.15.57.31.86.44,1.1.53,2.08.67,3.64.52.04,0,.08,0,.12,0,1.47-.05,2-.36,2.08-.48.31-.45-.38-2.47-.72-3.44-.82-2.4-1.94-5.69.74-7.54.17-.12.36-.21.56-.27,2.52-.76,4.55.63,6.18,1.74.94.64,1.82,1.24,2.61,1.36.03,0,.07.01.1.02,1.48.31,2.64.24,3.46-.21,0-.03.15-.34.27-.56.32-.64.75-1.51,1.64-2.38,1.25-1.21,2.75-1.97,4.2-2.7,1.06-.53,2.06-1.03,2.87-1.67.05-.04.1-.07.15-.11,1.42-.92,1.84-2.63,2.32-4.61.45-1.86.96-3.96,2.49-5.55,1.78-1.82,4.05-2.65,6.09-2.22.02,0,.04,0,.06.01l.14.03s.1.03.14.04c1.65.53,2.81,1.55,3.84,2.44.29.25.58.51.89.76.9.76,1.92,1.45,3.01,2.17,1.1.74,2.25,1.5,3.38,2.41.97.75,1.86,1.61,2.73,2.45.36.35.72.69,1.07,1.02.53.51.93.61,1.66.78.51.12,1.15.27,1.84.59,1.14.57,1.9,1.43,2.58,2.19.16.18.32.36.49.54,1.07,1.24,3.06,1.9,5.16,2.6,1.36.45,2.76.92,4.05,1.57,2.34,1.19,4.66,2.29,7.28,2.78,1.31.24,5.65,1.26,6.39,4.36.61,2.08-.18,4.29-1.1,6.85-.48,1.35-.99,2.74-1.31,4.2l-.11.48c-.16.71-.33,1.43-.55,2.14-.71,2.73-2.48,4.46-4.04,5.99-.92.9-1.78,1.75-2.43,2.77-.36.64-.92,1.32-1.51,2.03-.53.64-1.59,1.91-1.8,2.55.22.16.48.32.76.48.6.36,1.29.78,1.89,1.36,1.57,1.43,1.88,3.48,2.15,5.28.06.43.13.86.21,1.28.07.43.15.8.22,1.16.28,1.39.58,2.84.37,4.45-.13.85-.38,1.6-.6,2.25-.29.86-.54,1.61-.45,2.28,0,.03,0,.07.01.1.1,1.31.53,2.82,1.13,3.96.46.74,1.05,1.31,1.62,1.85,1.45,1.39,3.65,3.49.68,7.65-3.7,5.32-10.24,8.15-15.89,6.87-.04,0-.07-.02-.1-.03-.94-.27-1.9-.58-2.88-.9-3.86-1.26-7.5-2.45-10.83-1.02-1.38.56-2.1,1.53-2.44,3.28-.07.3-.12.54-.17.78-.37,1.71-.82,3.83-2.81,5.17-1.23.81-2.56,1.12-3.93,1.12ZM45.75,96.16c1.26,0,2.55.12,3.89.55.98.33,1.99.76,3.06,1.22,2.82,1.21,6.33,2.72,8.17,1.52.59-.4.81-1.28,1.12-2.69.06-.27.11-.53.18-.79.59-2.99,2.22-5.08,4.81-6.12,4.67-2.01,9.42-.46,13.61.91.9.29,1.79.59,2.67.84,4.03.88,8.93-1.33,11.69-5.29.76-1.07.75-1.44.75-1.45-.06-.18-.58-.67-.92-1-.7-.67-1.57-1.5-2.31-2.72-.02-.03-.04-.07-.06-.1-.85-1.61-1.45-3.67-1.6-5.52-.19-1.56.26-2.92.63-4.01.18-.55.36-1.07.43-1.54.12-.91-.09-1.92-.33-3.1-.08-.4-.16-.81-.24-1.22-.09-.43-.16-.93-.24-1.43-.19-1.25-.36-2.43-.92-2.95-.32-.31-.76-.58-1.23-.86-.41-.25-.83-.5-1.24-.82-.85-.66-1.35-1.53-1.46-2.52-.23-2.11,1.35-4,2.74-5.68.43-.52.93-1.12,1.09-1.42.02-.04.04-.07.06-.11.9-1.45,2.05-2.57,3.05-3.56,1.36-1.34,2.54-2.49,2.99-4.22.2-.66.35-1.33.5-1.97l.11-.46c.37-1.68.94-3.26,1.44-4.66.63-1.75,1.28-3.56,1.02-4.39-.02-.06-.03-.12-.05-.17-.15-.27-1.37-1.02-3.23-1.36-3.15-.59-5.75-1.82-8.36-3.15-1.02-.52-2.23-.92-3.5-1.34-2.53-.84-5.15-1.71-6.87-3.71-.13-.13-.32-.34-.51-.56-.46-.52-.94-1.05-1.34-1.25-.26-.12-.61-.2-1.02-.3-.93-.22-2.2-.52-3.49-1.77-.34-.31-.72-.68-1.1-1.05-.79-.76-1.6-1.55-2.43-2.18-1.03-.83-2.09-1.54-3.12-2.23-1.13-.75-2.3-1.54-3.33-2.41-.31-.25-.64-.54-.97-.83-.86-.75-1.54-1.34-2.37-1.63h-.03c-.66-.13-1.61.3-2.37,1.08-.77.8-1.11,2.22-1.48,3.72-.56,2.32-1.26,5.19-3.97,6.98-1.11.85-2.31,1.45-3.47,2.04-1.24.62-2.4,1.21-3.21,1.99-.4.39-.6.81-.85,1.29-.36.73-.81,1.64-1.88,2.26-1.71.94-3.79,1.16-6.2.66-1.65-.27-3-1.19-4.19-2-.95-.65-1.66-1.11-2.22-1.22.06.61.5,1.88.78,2.7.79,2.3,1.67,4.91.22,7.01-.96,1.39-2.65,2.11-5.17,2.2-2.25.21-3.96-.06-5.68-.89-.33-.16-.69-.34-1.04-.54-.82-.44-1.53-.82-2.14-.76-.83.07-1.74.31-2.62.54l-.15.04c-.49.15-1.08.32-1.67.48-1.56.43-3.31.91-3.87,1.6-.04.25.18.86.34,1.32.24.68.52,1.45.56,2.31.01.09.03.2.05.23h0s.07.1.34.29c.95.63,3.14,1.51,5.26,2.36,3.22,1.29,6.55,2.62,8.64,4.16,2.04,1.39,2.86,3.3,3.65,5.14.38.88.74,1.71,1.24,2.53.62,1.04,1.54,1.93,2.51,2.87.4.38.79.77,1.17,1.16,1.91,1.84,2.71,3.86,2.33,5.96,0,.35.11.66.77,1.77.02.03.04.06.05.09.11.21.27.42.42.64.42.59.94,1.33,1.11,2.24.03.17.04.35.03.53,0,.27-.08.52-.16.75-.06.16-.14.31-.23.45-.31.45-.68.78-.98,1.05-.14.13-.36.32-.41.4-.57.96-.65,2.79-.72,4.41-.06,1.33-.12,2.71-.4,3.94-.3,1.57-.84,3.46-1.37,5.28-.25.88-.51,1.76-.73,2.6-.45,1.76-.46,2.87-.03,3.63,2.64,2.92,8.22,4.3,12.62,4.37.32-.01.74-.04,1.16-.06.72-.04,1.45-.08,2.19-.08Z"/>
    <path class="cls-4" d="M103.54,111.49c-.89,0-2.02-.37-3.13-1.77-.06-.07-.11-.15-.16-.23-1.82-3.13-2.85-6.51-2.91-9.52,0-.04,0-.08,0-.13.12-2.77,1.86-3.98,3.25-4.95.7-.49,1.36-.95,1.9-1.62.14-.17.25-.31.35-.45.43-.57.96-1.28,1.78-1.7.08-.04.17-.08.25-.11l.1-.03c.64-.24,1.38-.17,2.01.19.41.24,1.5.87,2.08,4.18.86,3.34-.31,13.87-4.03,15.78-.26.13-.8.36-1.5.36ZM101.35,99.95c.06,2.2.85,4.8,2.19,7.21,1.21-1.95,2.3-8.58,1.65-10.82,0-.02-.01-.04-.02-.05-.76.82-1.6,1.4-2.3,1.88-1.2.84-1.49,1.1-1.54,1.78Z"/>
  </g>
</svg>