<?xml version="1.0" encoding="UTF-8"?>
<svg id="flatten_icons" xmlns="http://www.w3.org/2000/svg" viewBox="0 0 112 112">
  <defs>
    <style>
      .cls-1 {
        fill: none;
      }

      .cls-2 {
        fill: #f2bfaf;
      }

      .cls-3 {
        fill: #cfd18f;
      }

      .cls-4 {
        fill: #f4d0c6;
      }

      .cls-5 {
        fill: #fff;
      }

      .cls-6 {
        fill: #004241;
      }

      .cls-7 {
        fill: #eee;
      }
    </style>
  </defs>
  <g id="repasthon">
    <g id="area">
      <rect class="cls-1" width="112" height="112"/>
    </g>
    <path class="cls-2" d="M91.59,73.46c0,12.23-15.93,22.14-35.59,22.14s-35.59-9.91-35.59-22.14c0-.28,0-26.18.02-26.46.71-11.84,16.36-21.3,35.56-21.3s34.76,9.4,35.55,21.19c.02.31.03,26.25.03,26.57Z"/>
    <path class="cls-5" d="M63.19,97.14c-.37,0-.74-.1-1.08-.32-.83-.53-1.14-1.57-.77-2.45,0-.31-.17-2.14-3.95-6.12-6.42-6.74-4.01-18.72-3.9-19.23.23-1.08,1.29-1.77,2.37-1.55,1.08.23,1.77,1.28,1.55,2.36h0c-.02.1-2.08,10.45,2.88,15.66,6.18,6.49,5.27,9.66,4.59,10.72-.38.6-1.03.92-1.69.92ZM61.51,94.07s0,0,0,0c0,0,0,0,0,0ZM61.51,94.07s0,0,0,0c0,0,0,0,0,0ZM61.51,94.06s0,0,0,0c0,0,0,0,0,0Z"/>
    <path class="cls-5" d="M82.4,90c-.37,0-.74-.1-1.08-.32-.83-.53-1.14-1.57-.77-2.45,0-.31-.17-2.14-3.95-6.12-6.27-6.59-5.99-16.81-5.98-17.24.04-1.1.98-1.95,2.07-1.93,1.1.04,1.97.96,1.93,2.06,0,.1-.22,9,4.88,14.35,6.18,6.49,5.27,9.66,4.59,10.72-.38.6-1.03.92-1.69.92ZM80.71,86.92s0,0,0,0c0,0,0,0,0,0ZM80.71,86.92s0,0,0,0c0,0,0,0,0,0Z"/>
    <path class="cls-5" d="M66.02,79.17c-.78,0-1.52-.46-1.85-1.23-2.76-6.58-1.15-14.51-1.08-14.84.23-1.08,1.29-1.77,2.37-1.55,1.08.23,1.78,1.28,1.55,2.37-.03.14-1.4,7.09.86,12.48.43,1.02-.05,2.19-1.07,2.62-.25.11-.51.16-.77.16Z"/>
    <path class="cls-5" d="M90.12,80.33c-.39,0-.79-.12-1.14-.36-6.11-4.26-6.8-12.17-6.82-12.5-.09-1.1.74-2.06,1.84-2.15,1.1-.08,2.06.73,2.15,1.83h0c0,.06.59,6.37,5.12,9.54.91.63,1.13,1.88.5,2.78-.39.56-1.01.86-1.64.86Z"/>
    <path class="cls-5" d="M41.58,95.7s-.05,0-.08,0c-1.1-.04-1.96-.97-1.92-2.07.07-1.82-.14-4.44-.61-7.57-.28-1.84-.76-3.68-1.25-5.39-1.76-6.22.53-12.43.62-12.69.39-1.03,1.54-1.56,2.58-1.17,1.03.39,1.56,1.54,1.17,2.57-.04.1-1.91,5.29-.52,10.2.52,1.84,1.04,3.82,1.35,5.89.51,3.42.74,6.22.66,8.32-.04,1.08-.93,1.92-2,1.92Z"/>
    <path class="cls-5" d="M32.61,89.83s-.05,0-.08,0c-1.1-.04-1.96-.97-1.92-2.07.07-1.82-.14-4.44-.61-7.57-.28-1.85-.76-3.69-1.25-5.39-1.72-6.06-.41-12.48-.36-12.75.23-1.08,1.29-1.78,2.37-1.55,1.08.23,1.77,1.28,1.55,2.36h0c-.01.06-1.15,5.75.29,10.85.52,1.84,1.04,3.82,1.35,5.89.51,3.42.74,6.22.66,8.32-.04,1.08-.93,1.92-2,1.92Z"/>
    <path class="cls-6" d="M56,97.59c-20.72,0-37.59-10.83-37.59-24.14,0-.26,0-26.2.03-26.58.78-13,17.27-23.18,37.56-23.18s36.67,10.13,37.55,23.05c.03.43.04,26.44.04,26.7,0,13.31-16.86,24.14-37.59,24.14ZM56,27.7c-17.87,0-32.92,8.71-33.56,19.42-.01.7-.02,25.09-.02,26.34,0,11.1,15.07,20.14,33.59,20.14s33.59-9.03,33.59-20.14c0-1.2-.01-25.69-.03-26.5-.72-10.59-15.77-19.26-33.56-19.26Z"/>
    <path class="cls-4" d="M91.59,45.3c0,12.23-15.93,22.14-35.59,22.14-4.51,0-7.5-.22-11.46-1.17-1.73-.41-4.81,3.68-6.4,3.12-1.16-.42-2.18-5.76-3.25-6.26-8.78-4.03-14.47-10.51-14.47-17.82,0-12.23,15.93-22.14,35.59-22.14s35.59,9.91,35.59,22.14Z"/>
    <path class="cls-5" d="M25.24,57.27c-.42,0-.85-.13-1.21-.41-.88-.67-1.05-1.92-.38-2.8.06-.08,3.68-4.91,6.92-13.16,3.02-7.69,1.4-12.13,1.39-12.17-.39-1.02.11-2.18,1.13-2.58,1.02-.4,2.17.08,2.58,1.1.09.23,2.28,5.81-1.38,15.12-3.47,8.83-7.29,13.9-7.46,14.11-.39.52-.99.79-1.59.79Z"/>
    <path class="cls-5" d="M31.24,63.2c-.45,0-.9-.15-1.27-.45-.85-.7-.98-1.96-.28-2.81.54-.66,1.23-1.4,2.03-2.26,3.42-3.69,8.6-9.26,11.71-18.38,1.21-3.53,1.03-7.54.87-11.08-.06-1.4-.12-2.71-.08-3.88.04-1.1.96-1.94,2.07-1.93,1.1.04,1.97.96,1.93,2.07-.03,1.01.02,2.25.08,3.56.17,3.7.37,8.3-1.08,12.55-3.39,9.92-9.13,16.11-12.57,19.81-.75.81-1.4,1.51-1.86,2.07-.4.48-.97.73-1.55.73Z"/>
    <path class="cls-5" d="M43.82,68.31c-.58,0-1.16-.25-1.56-.74-.69-.86-.56-2.12.3-2.81.16-.13,11.49-9.47,9.95-19.87-1.09-7.34,6.13-19.37,12.1-22.66.97-.53,2.18-.18,2.72.79.53.97.18,2.18-.79,2.72-4.58,2.51-10.88,13.1-10.07,18.57,1.88,12.69-10.85,23.13-11.39,23.57-.37.3-.81.44-1.25.44Z"/>
    <path class="cls-5" d="M56.22,68.12c-.79,0-1.54-.48-1.86-1.26-.41-1.02.08-2.17,1.08-2.59.18-.08,6.45-3.16,9.06-18.32.38-2.2,2.12-4.08,4.14-6.26,3.92-4.24,6.54-7.61,4.45-12.34-.45-1.01,0-2.19,1.02-2.64,1.01-.45,2.19,0,2.64,1.02,3.32,7.5-1.59,12.8-5.17,16.68-1.45,1.57-2.95,3.19-3.13,4.22-3.06,17.78-11.15,21.2-11.49,21.34-.24.1-.5.14-.74.14Z"/>
    <path class="cls-5" d="M71.42,67.25c-.55,0-1.09-.22-1.49-.66-.74-.82-.67-2.08.14-2.82.23-.21,5.57-5.22,4.77-14.02-.1-1.1.71-2.07,1.81-2.17,1.1-.11,2.07.71,2.17,1.81.99,10.87-5.78,17.09-6.07,17.35-.38.34-.86.51-1.34.51Z"/>
    <path class="cls-6" d="M38.46,71.43c-.33,0-.66-.05-1-.17-1.48-.53-2.11-2.25-2.91-4.43-.23-.62-.59-1.61-.83-2.05-9.59-4.51-15.31-11.77-15.31-19.49,0-13.31,16.86-24.14,37.59-24.14s37.59,10.83,37.59,24.14-16.86,24.14-37.59,24.14c-4.34,0-7.51-.19-11.72-1.18-.41.17-1.25.8-1.76,1.19-1.24.94-2.61,1.98-4.06,1.98ZM56,25.16c-18.52,0-33.59,9.03-33.59,20.14,0,6.19,4.97,12.18,13.31,16,1.28.59,1.83,2.08,2.59,4.15.17.47.42,1.14.64,1.65.38-.25.83-.6,1.15-.84,1.54-1.17,3.12-2.38,4.9-1.95,3.95.95,6.8,1.12,11,1.12,18.52,0,33.59-9.03,33.59-20.14s-15.07-20.14-33.59-20.14Z"/>
    <path class="cls-5" d="M79.74,43.59c-1.1,0-2-.85-2-1.96v-.09c0-1.1.9-2,2-2s2,.9,2,2-.9,2.04-2,2.04Z"/>
    <g>
      <path class="cls-3" d="M101.73,31.2c0,7.68-6.23,13.91-13.91,13.91s-13.91-6.23-13.91-13.91,13.91-26.23,13.91-26.23c0,0,13.91,18.55,13.91,26.23Z"/>
      <path class="cls-6" d="M87.82,47.11c-8.77,0-15.91-7.14-15.91-15.91,0-8.11,12.84-25.47,14.31-27.43.75-1.01,2.45-1.01,3.2,0,1.46,1.95,14.31,19.31,14.31,27.43,0,8.77-7.14,15.91-15.91,15.91ZM87.82,8.37c-4.37,6.15-11.91,17.78-11.91,22.83,0,6.56,5.34,11.91,11.91,11.91s11.91-5.34,11.91-11.91c0-5.05-7.53-16.69-11.91-22.83Z"/>
    </g>
    <circle class="cls-7" cx="90.84" cy="30.17" r="3.53"/>
  </g>
</svg>