<?xml version="1.0" encoding="UTF-8"?>
<svg id="flatten_icons" xmlns="http://www.w3.org/2000/svg" viewBox="0 0 112 112">
  <defs>
    <style>
      .cls-1 {
        fill: none;
      }

      .cls-2 {
        fill: #dba7a7;
      }

      .cls-3 {
        fill: #f2dfda;
      }

      .cls-4 {
        fill: #efc6bd;
      }

      .cls-5 {
        fill: #efbdbd;
      }

      .cls-6 {
        fill: #ddd5b6;
      }

      .cls-7 {
        fill: #004241;
      }

      .cls-8 {
        fill: #f9f6e8;
      }
    </style>
  </defs>
  <g id="repasporc">
    <g id="area">
      <rect class="cls-1" width="112" height="112"/>
    </g>
    <path class="cls-8" d="M75.81,60.17c-1.48,10.53-12.78,18.29-33.17,22.3-20.38,4.02-38.55-1.12-40.59-11.46-.16-.82.03-16.47.1-17.24.78-8.99,16.14-.22,33.12-8.77,19.28-9.7,36.57-12.11,41.03-2.75.5,1.05-.26,16.17-.51,17.92Z"/>
    <path class="cls-6" d="M23.22,69.13s.05,12.71,6.4,15.11l18.22-2.77-16.31-11.88-8.31-.46Z"/>
    <path class="cls-7" d="M29.03,85.84c-5.09,0-9.88-.6-14.1-1.79-8.43-2.38-13.69-6.88-14.83-12.66-.25-1.29.06-17.67.07-17.8.55-6.33,6.38-6.38,12.59-6.38.09,0,.18,0,.28,0,6.01,0,13.46-.03,21.36-4,15.35-7.72,28.72-10.58,36.71-7.84,3.3,1.13,5.66,3.15,7.03,6.02.94,1.96-.31,18.91-.33,19.06-1.13,8.04-8.08,18.73-34.76,23.99-4.77.94-9.5,1.41-14,1.41ZM4.04,70.69c.86,4.19,5.11,7.57,11.98,9.51,7.37,2.08,16.69,2.19,26.24.31,19.29-3.8,30.21-10.93,31.57-20.62h0c.25-1.75.86-14.84.59-16.96-.91-1.79-2.42-3.02-4.62-3.78-6.87-2.35-19.44.5-33.62,7.63-8.74,4.4-17.05,4.43-23.16,4.43-.05,0-.07,0-.15,0-7.21,0-8.52.41-8.72,2.72-.07,1.05-.23,15.23-.12,16.75ZM74.41,42.82h0s0,0,0,0Z"/>
    <path class="cls-5" d="M76.12,40.83c2.03,10.35-12.9,23.16-33.29,27.18-20.38,4.02-38.49-2.29-40.53-12.64-2.03-10.35,14.78-16.73,33.23-26.01,21.44-10.78,38.55,1.12,40.59,11.46Z"/>
    <path class="cls-2" d="M23.22,67.78s-.6-9.74,8.27-11.04,2.24,11.81,2.24,11.81l-10.51-.78Z"/>
    <path class="cls-7" d="M30.53,71.23c-5.54,0-10.8-.76-15.45-2.26-8.23-2.66-13.6-7.48-14.73-13.22-2.05-10.43,10.7-16.65,26.84-24.51,2.42-1.18,4.92-2.4,7.45-3.67,14.59-7.34,25.73-4.05,31.07-1.43,6.53,3.2,11.27,8.68,12.37,14.3h0c2.32,11.82-13.64,25.35-34.86,29.53-4.29.85-8.57,1.27-12.7,1.27ZM52.22,27.1c-4.45,0-9.77,1.02-15.79,4.05-2.54,1.28-5.06,2.51-7.5,3.69-14.02,6.83-26.12,12.73-24.66,20.14.84,4.27,5.22,7.99,12.03,10.19,7.47,2.41,16.75,2.72,26.14.87,16.63-3.28,33.72-14.59,31.71-24.83h0c-.85-4.35-4.86-8.86-10.21-11.48-2.52-1.23-6.53-2.64-11.73-2.64Z"/>
    <g>
      <path class="cls-8" d="M103.92,75.05c-4.53,9.62-17.61,13.68-38.27,11.47-20.66-2.21-36.5-12.49-35.38-22.98.09-.83,4.9-15.72,5.19-16.44,3.4-8.35,15.48,4.57,34.23,1.44,21.28-3.55,38.51-.73,40.01,9.54.17,1.15-5.03,15.37-5.78,16.97Z"/>
      <path class="cls-7" d="M75.91,89.11c-3.17,0-6.65-.19-10.47-.6-22.09-2.36-38.41-13.42-37.16-25.18.14-1.32,5.28-16.87,5.33-16.98,2.41-5.93,8.05-4.18,14.03-2.32,5.76,1.79,12.94,4.02,21.73,2.55,16.94-2.82,30.56-1.59,37.38,3.39,2.82,2.06,4.48,4.69,4.94,7.83.31,2.15-5.88,17.97-5.95,18.11h0c-2.97,6.31-10.61,13.21-29.82,13.21ZM32.25,63.82c-.9,9.19,14.46,18.67,33.61,20.71,19.55,2.09,32.08-1.49,36.25-10.34.75-1.6,5.21-13.92,5.58-16.02-.34-1.98-1.42-3.61-3.31-4.98-5.87-4.28-18.71-5.28-34.36-2.67-9.72,1.62-17.73-.86-23.57-2.68-6.9-2.14-8.26-2.14-9.14.01-.38.98-4.72,14.47-5.06,15.97ZM103.92,75.05h0,0ZM107.71,58.05h0Z"/>
    </g>
    <path class="cls-4" d="M109.93,56.66c-1.12,10.49-19.17,18.3-39.83,16.1-20.66-2.21-36.09-13.6-34.98-24.08,1.12-10.49,19.06-11.6,39.42-14.99,23.67-3.95,36.5,12.49,35.38,22.98Z"/>
    <path class="cls-7" d="M77.15,75.14c-2.39,0-4.82-.13-7.26-.39-21.2-2.26-38.03-14.3-36.75-26.28,1.13-10.57,15.14-12.73,32.88-15.46,2.66-.41,5.41-.83,8.21-1.3,16.11-2.69,25.77,3.76,30.1,7.84,5.29,4.99,8.2,11.63,7.6,17.33h0c-.62,5.81-5.65,11.07-13.81,14.44-6.08,2.51-13.34,3.82-20.96,3.82ZM81.61,35.08c-2.08,0-4.32.18-6.73.58-2.81.47-5.58.89-8.26,1.31-15.4,2.37-28.71,4.42-29.51,11.93-.91,8.58,12.5,19.67,33.2,21.88,9.56,1.02,18.88-.1,26.26-3.15,6.76-2.79,10.9-6.87,11.36-11.17,0,0,0,0,0,0,.47-4.41-2.03-9.91-6.36-13.99-3.16-2.97-9.59-7.38-19.97-7.38Z"/>
    <path class="cls-3" d="M83.59,64.9c-.72,0-1.42-.39-1.77-1.07-6.14-11.74-17.18-15.52-17.29-15.56-1.05-.35-1.62-1.48-1.27-2.53.35-1.05,1.48-1.62,2.53-1.27.51.17,12.69,4.34,19.57,17.5.51.98.13,2.19-.84,2.7-.3.15-.61.23-.93.23Z"/>
    <path class="cls-3" d="M65.15,62.84c-.59,0-1.17-.26-1.57-.75-4.51-5.66-10.68-8.6-13.96-9.84-1.03-.39-1.55-1.55-1.16-2.58.39-1.03,1.55-1.55,2.58-1.16,3.67,1.39,10.57,4.68,15.67,11.09.69.86.54,2.12-.32,2.81-.37.29-.81.44-1.24.44Z"/>
    <path class="cls-3" d="M95.89,57.43c-.63,0-1.25-.29-1.63-.84-6.21-8.78-14.92-11.79-15.01-11.82-1.04-.35-1.61-1.48-1.26-2.53s1.48-1.61,2.52-1.26c.41.13,10.01,3.41,17.01,13.31.64.9.42,2.15-.48,2.79-.35.25-.75.37-1.15.37Z"/>
  </g>
</svg>