<?xml version="1.0" encoding="UTF-8"?>
<svg id="flatten_icons" xmlns="http://www.w3.org/2000/svg" viewBox="0 0 112 112">
  <defs>
    <style>
      .cls-1 {
        fill: none;
      }

      .cls-2 {
        fill: #c7d3dd;
      }

      .cls-3 {
        fill: #a7bac9;
      }

      .cls-4 {
        fill: #fff;
      }

      .cls-5 {
        fill: #004241;
      }
    </style>
  </defs>
  <g id="repaslieu">
    <g id="area">
      <rect class="cls-1" width="112" height="112"/>
    </g>
    <path class="cls-2" d="M7.1,84.47c.99,3.36,3.4,6.11,6.5,7.73,8.61,4.49,33.82,10.73,42.57,10.73,11.51,0,19.6-12.14,19.6-12.14l28.83-42.24c1.17-1.8,2.82-11.56,4.13-13.26,2.07-2.67,1.01-12-.32-17.73s-22.02-4.9-38.2-4.9-26.09,27.57-42.9,38.5C.59,68.55,2.99,70.54,7.1,84.47Z"/>
    <path class="cls-3" d="M105.49,16.31c-5.8,3.32-10.8,26.53-24.54,38.61-22.22,19.51-22.62,26.6-17.34,45.62,15.39-8.17,35.1-42.37,42.37-56.35,2.68-2.28,7.28-31.03-.48-27.88Z"/>
    <path class="cls-4" d="M35.82,79.72c-.52,0-1.03-.2-1.43-.6-6.7-6.81-24.9-6.3-28.21-5.19-.27.37-.66.64-1.14.76-1.07.26-2.15-.4-2.41-1.48-.2-.82.04-1.95,1.31-2.65,3.51-1.94,24.81-2.88,33.31,5.76.77.79.76,2.05-.02,2.83-.39.38-.9.57-1.4.57ZM6.52,72.27s0,0,0,0c0,0,0,0,0,0Z"/>
    <path class="cls-4" d="M42.88,85.53c-.51,0-1.01-.19-1.4-.57l-.2-.2c-.79-.77-.8-2.04-.03-2.83.77-.79,2.04-.8,2.83-.03l.2.2c.79.77.8,2.04.03,2.83-.39.4-.91.6-1.43.6Z"/>
    <path class="cls-4" d="M76.73,74.36c-5.6,0-9.32-1.87-10.74-2.73-15.34.42-22.36-3.5-28.02-6.66-2.28-1.28-4.25-2.38-6.45-3-7.53-2.12-17.52.98-17.62,1.01-1.05.34-2.18-.25-2.51-1.31-.33-1.05.25-2.18,1.31-2.51.46-.14,11.23-3.48,19.9-1.05,2.66.75,4.93,2.02,7.33,3.36,5.57,3.12,11.89,6.66,26.56,6.14.46-.02.91.13,1.27.4.18.13,4.74,3.39,12.81,2.02,6.19-1.05,14.4-8.09,14.48-8.16.83-.72,2.1-.63,2.82.21.72.84.63,2.1-.21,2.82-.37.32-9.14,7.84-16.42,9.08-1.62.27-3.12.39-4.51.39Z"/>
    <path class="cls-4" d="M66.63,62.05c-9.69,0-18.13-4.11-22.04-9.59-4.26-5.96-10.61-5.46-10.88-5.43-1.11.09-2.07-.7-2.18-1.8-.11-1.09.69-2.07,1.78-2.18.36-.04,8.89-.82,14.54,7.08,4.43,6.2,16.66,10.35,28.7,6.27.56-.19,1.17-.12,1.68.18.21.13,5.54,3.16,10.92-1.34,7.92-6.62,15.53-12.58,15.61-12.64.87-.68,2.13-.53,2.81.34.68.87.53,2.13-.34,2.81-.08.06-7.64,5.98-15.51,12.56-5.53,4.62-11.6,3.6-14.7,2.14-3.52,1.1-7.02,1.59-10.37,1.59Z"/>
    <path class="cls-4" d="M71.91,86.15c-2.43,0-4.13-.29-4.28-.32-1.09-.19-1.81-1.23-1.62-2.32.19-1.09,1.22-1.81,2.31-1.62h0c.07.01,7.13,1.19,12.55-1.67.98-.52,2.19-.14,2.7.84.51.98.14,2.19-.84,2.7-3.68,1.94-7.81,2.38-10.82,2.38Z"/>
    <path class="cls-4" d="M72.53,48.14c-6.26,0-14.85-1.1-17.22-10.66-1.3-5.25-7.73-7.91-7.8-7.94-1.02-.41-1.52-1.58-1.11-2.6s1.57-1.52,2.6-1.11c.34.14,8.39,3.43,10.19,10.69.93,3.77,3.25,7.62,13.34,7.62,8.43,0,17.16-2.92,17.25-2.95,1.05-.35,2.18.21,2.54,1.25s-.21,2.18-1.25,2.54c-.38.13-9.43,3.16-18.54,3.16Z"/>
    <path class="cls-4" d="M102.33,37.48c-.57,0-1.13-.24-1.53-.71-.71-.84-.61-2.1.23-2.82,2.63-2.23,6.6-3.75,6.77-3.81,1.03-.39,2.19.13,2.58,1.16s-.13,2.19-1.16,2.58c-.03.01-3.5,1.35-5.6,3.12-.38.32-.84.48-1.29.48Z"/>
    <path class="cls-4" d="M92.19,34.13c-9.4,0-21.65-1.48-24.7-8.8-2.9-6.98-7.66-6.17-8.19-6.05-1.07.23-2.14-.44-2.39-1.5-.25-1.07.4-2.13,1.46-2.39,2.92-.71,9.36.12,12.81,8.4,2.24,5.39,14.63,6.75,25.47,6.23h.25c1.1-.07,2.04.8,2.08,1.9.05,1.1-.81,2.04-1.91,2.08h-.23c-1.42.08-2.99.13-4.66.13Z"/>
    <path class="cls-4" d="M31.4,97.83c-1.02,0-1.88-.77-1.99-1.8-.38-3.76-1.8-6.44-4.35-8.2-6.34-4.37-17.33-1.46-17.44-1.43-1.07.29-2.16-.34-2.45-1.41-.29-1.07.34-2.17,1.41-2.45.52-.14,12.9-3.42,20.75,1.99,3.53,2.43,5.57,6.16,6.06,11.09.11,1.1-.69,2.08-1.79,2.19-.07,0-.14,0-.2,0Z"/>
    <path class="cls-4" d="M99.89,26.7c-15.61,0-16.74-14.16-16.75-14.31-.07-1.1.76-2.06,1.86-2.13,1.11-.07,2.05.76,2.13,1.85,0,.06.25,2.92,2.06,5.61,2.36,3.51,6.27,5.17,11.64,4.95,1.1-.03,2.04.81,2.08,1.92.05,1.1-.81,2.04-1.92,2.08-.38.02-.75.02-1.11.02Z"/>
    <path class="cls-5" d="M56.18,104.94c-9.24,0-34.85-6.45-43.5-10.96-3.65-1.9-6.38-5.16-7.5-8.94h0c-.75-2.53-1.6-4.51-2.35-6.25-3.91-9.09-2.97-11.57,18.54-25.54,6.63-4.31,13.22-12.27,19.59-19.97,9.9-11.97,19.26-23.27,29.76-23.27,27.42,0,38.59,2.15,39.86,7.65.36,1.54.49,4.11.41,7.84-.32,14.69-5.23,28.76-14.19,40.68l-19.38,25.79c-.69,1.01-9.06,12.98-21.23,12.98ZM70.72,14c-8.62,0-17.8,11.09-26.68,21.82-6.56,7.93-13.35,16.13-20.49,20.77-9.34,6.07-15.56,10.44-17.67,13.48-1.44,2.07-1.03,3.27.63,7.13.76,1.76,1.7,3.94,2.51,6.7h0c.81,2.74,2.82,5.12,5.51,6.52,8.11,4.22,33.02,10.51,41.65,10.51,10.32,0,17.87-11.13,17.94-11.25.02-.03.04-.06.07-.09l19.41-25.83c8.45-11.25,13.08-24.51,13.39-38.36.1-4.39-.15-6.17-.31-6.85-.02-.09-.65-2.3-11.64-3.57-7.68-.89-17.56-.99-24.32-.99Z"/>
    <path class="cls-5" d="M63.43,102.52c-.56,0-1.11-.23-1.51-.69-3.25-3.73-2.46-20.56-1.02-25.06,1.76-5.51,7.97-13.35,17.97-22.68,8.63-8.06,15.9-21.94,20.24-30.23,1.74-3.33,3-5.73,3.9-6.95,1.47-2,3.01-2.86,4.57-2.55,2.16.42,2.86,2.77,2.98,3.24.27,1.07-.37,2.16-1.44,2.43-1.04.27-2.1-.33-2.41-1.35-.14.15-.3.34-.49.6-.72.97-2.04,3.5-3.58,6.43-4.46,8.52-11.92,22.78-21.05,31.3-12.63,11.79-16,18.2-16.89,20.97-1.55,4.86-1.4,19.34.23,21.22.72.83.63,2.1-.2,2.82-.38.33-.85.49-1.31.49Z"/>
  </g>
</svg>