<?xml version="1.0" encoding="UTF-8"?>
<svg id="flatten_icons" xmlns="http://www.w3.org/2000/svg" viewBox="0 0 112 112">
  <defs>
    <style>
      .cls-1 {
        fill: none;
      }

      .cls-2 {
        fill: #fff2bd;
      }

      .cls-3 {
        fill: #dd7f7f;
      }

      .cls-4 {
        fill: #ea9b9b;
      }

      .cls-5 {
        fill: #004241;
      }
    </style>
  </defs>
  <g id="repasveau">
    <g id="area">
      <rect class="cls-1" width="112" height="112"/>
    </g>
    <g>
      <g>
        <path class="cls-2" d="M103.52,49.86c-.18,3.95-.61,20.8-1.95,23.37-8.03,15.37-36.49,8.96-52.78,17.18-19.2,9.69-34.82,13.87-38.41,7.37-1.2-2.17-3.22-13.86-.83-18.61,13.35-26.48,7.47-32.65,24.89-44.9,25.66-18.04,70.55-16.88,69.08,15.58Z"/>
        <path class="cls-5" d="M17.59,102.92c-4.12,0-7.33-1.2-8.96-4.16-1.43-2.59-3.6-15.04-.86-20.48,4.89-9.69,7.16-16.61,8.98-22.16,3.15-9.6,5.05-15.39,16.55-23.47,17.8-12.52,43.71-15.76,58.98-7.38,9.17,5.03,13.75,13.57,13.25,24.69-.02.54-.05,1.32-.09,2.27-.53,14.09-1.09,20.03-2.09,21.94-5.31,10.18-18.41,11.65-31.08,13.08-8.06.91-16.39,1.85-22.58,4.97-10.79,5.44-23.46,10.72-32.1,10.72ZM71.75,24.66c-12.13,0-25.78,3.96-36.16,11.26-10.41,7.32-11.96,12.04-15.05,21.45-1.86,5.68-4.18,12.75-9.21,22.72-1.98,3.93-.23,14.89.79,16.74,3.14,5.69,21.22-.86,35.76-8.19,6.82-3.44,15.52-4.42,23.93-5.37,12.16-1.37,23.65-2.66,27.98-10.95.63-1.3,1.18-8.11,1.64-20.24.04-.96.07-1.75.09-2.3h0c.43-9.5-3.43-16.76-11.17-21-5.07-2.78-11.58-4.11-18.6-4.11Z"/>
      </g>
      <path class="cls-3" d="M103.52,49.86c-1.25,27.61-34.1,17.28-53.11,26.87-25.61,12.93-48.43,16.05-38.86-2.91,13.35-26.48,10.57-43.16,27.98-55.41,25.66-18.04,65.47-1.02,63.99,31.44Z"/>
      <path class="cls-2" d="M22.59,46.59s9.3-13.43,31.89-10.51l6.94-12.25s-24.51.36-12.75-10.2c0,0-19.85,4.19-26.09,32.97Z"/>
      <g>
        <ellipse class="cls-2" cx="54.49" cy="29.34" rx="7.52" ry="5.82"/>
        <path class="cls-5" d="M54.49,37.16c-5.25,0-9.52-3.51-9.52-7.82s4.27-7.82,9.52-7.82,9.52,3.51,9.52,7.82-4.27,7.82-9.52,7.82ZM54.49,25.52c-2.99,0-5.52,1.75-5.52,3.82s2.53,3.82,5.52,3.82,5.52-1.75,5.52-3.82-2.53-3.82-5.52-3.82Z"/>
      </g>
      <path class="cls-5" d="M17.71,89.21c-3.59,0-6.5-.79-8.34-2.63-2.87-2.87-2.74-7.46.39-13.65,4.94-9.81,7.64-18.24,10.02-25.68,4.01-12.53,7.17-22.43,18.6-30.46,13.46-9.46,31.8-10.28,46.74-2.09,13.44,7.37,21.06,20.55,20.4,35.26-.9,19.89-16.92,21.78-32.41,23.61-7.69.91-15.64,1.85-21.8,4.96-11.46,5.78-24.65,10.69-33.6,10.69ZM63.2,13.07c-8.02,0-15.92,2.35-22.52,6.99-10.33,7.26-13.16,16.13-17.09,28.41-2.43,7.58-5.17,16.18-10.26,26.27-1.27,2.52-3.11,7.05-1.13,9.02,3.31,3.31,17.19,1.35,37.31-8.8,6.8-3.43,15.1-4.41,23.14-5.36,15.09-1.78,28.13-3.32,28.88-19.82.61-13.34-6.07-24.85-18.32-31.57-6.26-3.43-13.17-5.13-20-5.13Z"/>
      <path class="cls-4" d="M89.6,47.5c-.62,0-1.23-.29-1.63-.83-5.53-7.69-14.6-6.26-14.99-6.19-1.08.18-2.12-.54-2.31-1.63s.53-2.12,1.62-2.31c.48-.08,11.9-1.97,18.92,7.8.64.9.44,2.15-.46,2.79-.35.25-.76.38-1.17.38Z"/>
      <path class="cls-4" d="M75.07,56.86c-.62,0-1.23-.29-1.63-.83-5.53-7.69-14.61-6.26-14.99-6.19-1.08.18-2.12-.54-2.31-1.63s.53-2.12,1.62-2.31c.48-.09,11.9-1.98,18.92,7.8.64.9.44,2.15-.46,2.79-.35.25-.76.38-1.17.38Z"/>
      <path class="cls-4" d="M57.89,65.77c-.62,0-1.23-.29-1.63-.83-5.57-7.75-14.89-6.21-14.98-6.19-1.09.19-2.13-.53-2.32-1.62-.19-1.09.53-2.13,1.62-2.32.48-.08,11.9-1.97,18.92,7.8.64.9.44,2.15-.46,2.79-.35.25-.76.38-1.17.38Z"/>
    </g>
  </g>
</svg>