<?xml version="1.0" encoding="UTF-8"?>
<svg id="flatten_icons" xmlns="http://www.w3.org/2000/svg" viewBox="0 0 112 112">
  <defs>
    <style>
      .cls-1 {
        fill: none;
      }

      .cls-2 {
        fill: #c48d60;
      }

      .cls-3 {
        fill: #fff;
      }

      .cls-4 {
        fill: #aad681;
      }

      .cls-5 {
        fill: #b78563;
      }

      .cls-6 {
        fill: #86c487;
      }

      .cls-7 {
        fill: #004241;
      }
    </style>
  </defs>
  <g id="saucisse-vegetales">
    <path class="cls-2" d="M20.01,88.54c-5.5,0-10.12-4.28-10.47-9.84-.36-5.79,4.04-10.77,9.82-11.14,48.86-3.06,59.65-46.35,60.08-48.19,1.33-5.63,6.96-9.15,12.59-7.84,5.63,1.3,9.15,6.89,7.88,12.53-.14.63-3.61,15.53-15.02,30.76-10.63,14.2-30.41,31.57-64.21,33.69-.22.01-.45.02-.67.02Z"/>
    <path class="cls-5" d="M96.77,14.02c-.78,3.03-4.62,16.45-14.87,30.15-10.63,14.2-30.41,31.57-64.21,33.69-.22.01-.45.02-.67.02-2.7,0-5.19-1.04-7.07-2.75-.33,1.13-.48,2.33-.4,3.57.35,5.56,4.97,9.84,10.47,9.84.22,0,.44,0,.67-.02,33.81-2.12,53.58-19.49,64.21-33.69,11.41-15.24,14.88-30.14,15.02-30.76.86-3.81-.47-7.58-3.15-10.04Z"/>
    <path class="cls-7" d="M20.01,90.54c-6.58,0-12.05-5.15-12.47-11.72-.43-6.88,4.81-12.83,11.69-13.26,47.39-2.97,57.84-44.87,58.26-46.66,1.58-6.69,8.3-10.88,14.99-9.32,6.68,1.55,10.89,8.24,9.37,14.92-.15.65-3.72,15.96-15.37,31.52-10.89,14.54-31.12,32.32-65.69,34.49-.27.02-.53.02-.79.02ZM89.68,13.26c-3.85,0-7.36,2.65-8.28,6.57-.45,1.9-11.59,46.57-61.9,49.73-4.68.29-8.24,4.34-7.95,9.02.29,4.65,4.31,8.24,9.02,7.95,33.04-2.07,52.35-19.03,62.73-32.9,11.15-14.88,14.54-29.4,14.68-30.01,1.03-4.54-1.83-9.08-6.38-10.14-.64-.15-1.28-.22-1.91-.22Z"/>
    <g>
      <g>
        <path class="cls-6" d="M88.05,100.04s21.27-5.83,16.15-37.77c0,0-18.16-3.15-28.59,13.64-6.99,11.26,2.28,15.08,2.28,15.08l10.17,9.05Z"/>
        <path class="cls-7" d="M88.05,102.04c-.48,0-.96-.18-1.33-.51l-9.95-8.86c-1.05-.52-4.11-2.32-5.3-6.02-1.11-3.44-.29-7.41,2.44-11.8,11.02-17.73,30.44-14.59,30.63-14.56.84.15,1.5.81,1.63,1.65,2.77,17.25-2.06,27.18-6.61,32.48-5.02,5.85-10.74,7.47-10.98,7.53-.17.05-.35.07-.53.07ZM100.52,64.02c-5.4,0-16.15,1.57-23.22,12.95-2.06,3.32-2.75,6.16-2.04,8.42.82,2.62,3.37,3.75,3.4,3.76.2.08.39.21.55.35l9.29,8.27c3.88-1.55,17.37-8.79,13.94-33.68-.52-.04-1.17-.07-1.92-.07Z"/>
      </g>
      <g>
        <path class="cls-4" d="M87.22,100.03s-32.44,1.46-34.23-36.77c0,0,40.43-4.38,34.23,36.77Z"/>
        <path class="cls-7" d="M86.93,102.04c-3.76,0-34.19-1.18-35.94-38.67-.05-1.06.73-1.97,1.78-2.08.76-.08,18.79-1.9,29.53,9.3,6.52,6.8,8.84,16.81,6.89,29.75-.14.95-.93,1.66-1.89,1.7-.02,0-.15,0-.38,0ZM87.22,100.04h0,0ZM55.11,65.16c2.3,29.42,24.07,32.57,30.36,32.86,1.32-10.8-.71-19.09-6.04-24.66-7.48-7.81-19.66-8.32-24.32-8.21Z"/>
      </g>
    </g>
    <g>
      <path class="cls-2" d="M96.52,12.67l4.42-9.29c-1.37-.76-7.16,0-7.16,0l1.14,9.05,1.6.24Z"/>
      <path class="cls-7" d="M96.52,14.67c-.1,0-.2,0-.3-.02l-1.6-.24c-.89-.13-1.57-.84-1.69-1.73l-1.14-9.05c-.14-1.09.63-2.09,1.72-2.23,2.94-.39,6.78-.66,8.39.23.92.51,1.29,1.65.83,2.61l-4.42,9.29c-.33.71-1.04,1.14-1.81,1.14ZM96.02,5.15l.39,3.09,1.52-3.21c-.58.02-1.23.05-1.91.11Z"/>
    </g>
    <g>
      <path class="cls-2" d="M11.17,83.99l-8.46-1.3c-.03,1.5,2.73,6.62,2.73,6.62l6.16-3.77-.43-1.55Z"/>
      <path class="cls-7" d="M5.44,91.31c-.17,0-.35-.02-.52-.07-.53-.14-.98-.5-1.24-.98-1.12-2.09-3-5.85-2.96-7.61.01-.58.27-1.12.71-1.49.44-.37,1.02-.53,1.59-.44l8.46,1.29c.78.12,1.41.68,1.62,1.44l.43,1.55c.24.86-.12,1.78-.88,2.24l-6.16,3.77c-.32.19-.68.29-1.04.29ZM5.62,85.16c.19.42.4.86.62,1.32l1.6-.98-2.22-.34Z"/>
    </g>
    <path class="cls-3" d="M81.14,39.75c-.37,0-.74-.1-1.07-.31-.93-.59-1.21-1.83-.62-2.76,2.15-3.39,3.85-7.17,5.07-11.24.32-1.06,1.43-1.66,2.49-1.35,1.06.32,1.66,1.43,1.34,2.49-1.32,4.42-3.17,8.53-5.52,12.24-.38.6-1.03.93-1.69.93Z"/>
    <rect class="cls-1" width="112" height="112"/>
  </g>
</svg>