<?xml version="1.0" encoding="UTF-8"?>
<svg id="outline_icons" xmlns="http://www.w3.org/2000/svg" viewBox="0 0 112 112">
  <defs>
    <style>
      .cls-1 {
        fill: none;
      }

      .cls-2 {
        fill: #9fdecf;
      }

      .cls-3 {
        fill: #d8d0ba;
      }

      .cls-4 {
        fill: #fdda49;
      }

      .cls-5 {
        fill: #8eb767;
      }

      .cls-6 {
        fill: #8e88a6;
      }

      .cls-7 {
        fill: #a9d384;
      }

      .cls-8 {
        fill: #004241;
      }
    </style>
  </defs>
  <g id="scoot_elec">
    <g>
      <polygon class="cls-6" points="46.63 89.57 61.01 89.57 63.19 83.99 45.59 83.99 46.63 89.57"/>
      <path class="cls-8" d="M61.01,91.57h-14.38c-.96,0-1.79-.69-1.97-1.63l-1.04-5.58c-.11-.58.05-1.19.43-1.64s.94-.72,1.54-.72h17.6c.66,0,1.28.33,1.65.87.37.55.45,1.24.21,1.86l-2.18,5.58c-.3.77-1.04,1.27-1.86,1.27ZM48.29,87.57h11.35l.62-1.58h-12.26l.29,1.58Z"/>
    </g>
    <g id="scooter">
      <g id="area">
        <rect class="cls-1" width="112" height="112"/>
      </g>
      <g id="vespa">
        <g>
          <path class="cls-3" d="M31.35,73.12c-9.08,0-16.45,7.36-16.45,16.45s7.36,16.45,16.45,16.45,16.45-7.36,16.45-16.45-7.36-16.45-16.45-16.45ZM31.35,96.71c-3.94,0-7.14-3.2-7.14-7.14s3.2-7.14,7.14-7.14,7.14,3.2,7.14,7.14-3.2,7.14-7.14,7.14Z"/>
          <path class="cls-8" d="M31.35,108.02c-10.17,0-18.45-8.28-18.45-18.45s8.28-18.45,18.45-18.45,18.45,8.28,18.45,18.45-8.28,18.45-18.45,18.45ZM31.35,75.12c-7.97,0-14.45,6.48-14.45,14.45s6.48,14.45,14.45,14.45,14.45-6.48,14.45-14.45-6.48-14.45-14.45-14.45ZM31.35,98.71c-5.04,0-9.14-4.1-9.14-9.14s4.1-9.14,9.14-9.14,9.14,4.1,9.14,9.14-4.1,9.14-9.14,9.14ZM31.35,84.43c-2.83,0-5.14,2.31-5.14,5.14s2.31,5.14,5.14,5.14,5.14-2.31,5.14-5.14-2.31-5.14-5.14-5.14Z"/>
        </g>
        <g>
          <path class="cls-3" d="M88.52,73.12c-9.08,0-16.45,7.36-16.45,16.45s7.36,16.45,16.45,16.45,16.45-7.36,16.45-16.45-7.36-16.45-16.45-16.45ZM88.52,96.71c-3.94,0-7.14-3.2-7.14-7.14s3.2-7.14,7.14-7.14,7.14,3.2,7.14,7.14-3.2,7.14-7.14,7.14Z"/>
          <path class="cls-8" d="M88.52,108.02c-10.17,0-18.45-8.28-18.45-18.45s8.28-18.45,18.45-18.45,18.45,8.28,18.45,18.45-8.28,18.45-18.45,18.45ZM88.52,75.12c-7.97,0-14.45,6.48-14.45,14.45s6.48,14.45,14.45,14.45,14.45-6.48,14.45-14.45-6.48-14.45-14.45-14.45ZM88.52,98.71c-5.04,0-9.14-4.1-9.14-9.14s4.1-9.14,9.14-9.14,9.14,4.1,9.14,9.14-4.1,9.14-9.14,9.14ZM88.52,84.43c-2.83,0-5.14,2.31-5.14,5.14s2.31,5.14,5.14,5.14,5.14-2.31,5.14-5.14-2.31-5.14-5.14-5.14Z"/>
        </g>
        <g>
          <path class="cls-5" d="M38.27,76.11h-21.37c-4.07,0-7.37-3.3-7.37-7.37v-11.15h38.67l-2.78,12.93c-.82,3.28-3.77,5.59-7.15,5.59Z"/>
          <path class="cls-8" d="M38.27,78.11h-21.37c-5.17,0-9.37-4.2-9.37-9.37v-11.15c0-1.1.9-2,2-2h38.67c.6,0,1.18.27,1.56.74s.53,1.09.4,1.68l-2.78,12.93c-1.06,4.25-4.79,7.17-9.11,7.17ZM11.54,59.59v9.15c0,2.96,2.41,5.37,5.37,5.37h21.37c2.47,0,4.61-1.67,5.21-4.07l2.25-10.45H11.54Z"/>
        </g>
        <g>
          <path class="cls-3" d="M15.93,48.81h25.89c3.53,0,6.39,2.86,6.39,6.39v2.4H9.54v-2.4c0-3.53,2.86-6.39,6.39-6.39Z"/>
          <path class="cls-8" d="M48.2,59.59H9.54c-1.1,0-2-.9-2-2v-2.4c0-4.63,3.76-8.39,8.39-8.39h25.89c4.63,0,8.39,3.76,8.39,8.39v2.4c0,1.1-.9,2-2,2ZM11.54,55.59h34.67v-.4c0-2.42-1.97-4.39-4.39-4.39H15.93c-2.42,0-4.39,1.97-4.39,4.39v.4Z"/>
        </g>
        <g>
          <path class="cls-7" d="M50.6,89.57c0-10.63-8.62-19.26-19.26-19.26-6.92,0-12.99,3.65-16.38,9.13-.96,1.55-.34,3.59,1.27,4.44l1.9,1c4.04,2.13,8.41,3.52,12.93,4.12,2.38.31,5.01.56,7.42.56h11.46"/>
          <path class="cls-8" d="M50.6,91.57c-.11,0-.22,0-.33-.03-.11.02-.22.03-.33.03h-11.46c-2.2,0-4.79-.19-7.69-.58-4.77-.63-9.34-2.09-13.6-4.33l-1.9-1c-1.28-.68-2.23-1.86-2.61-3.26-.38-1.38-.17-2.8.57-4,3.91-6.31,10.67-10.08,18.08-10.08,11.72,0,21.25,9.54,21.25,21.26,0,1.1-.9,2-2,2ZM31.35,72.32c-6.02,0-11.51,3.06-14.68,8.19-.21.34-.16.68-.11.85.09.33.31.61.62.77l1.9,1c3.84,2.02,7.97,3.34,12.26,3.91,2.73.36,5.13.54,7.16.54h10c-.99-8.58-8.3-15.26-17.14-15.26Z"/>
        </g>
      </g>
    </g>
    <g id="bolt">
      <path class="cls-4" d="M46.62,28.34h-17.07c-.81,0-1.37-.8-1.11-1.56l7.32-20.97c.42-1.19-1.09-2.11-1.96-1.19L4.69,35.36c-.71.75-.18,1.98.85,1.98h17.07c.81,0,1.37.8,1.11,1.56l-7.32,20.97c-.42,1.19,1.09,2.11,1.96,1.19l29.12-30.75c.71-.75.18-1.98-.85-1.98Z"/>
      <path class="cls-8" d="M17.51,63.43c-.57,0-1.14-.15-1.66-.47-1.29-.79-1.84-2.33-1.35-3.75l6.94-19.87H5.54c-1.27,0-2.41-.75-2.91-1.92s-.26-2.51.61-3.43L32.36,3.24c1.04-1.1,2.67-1.31,3.95-.53,1.29.79,1.84,2.33,1.34,3.75l-6.94,19.87h15.9c1.27,0,2.41.75,2.91,1.92s.26,2.51-.61,3.43l-29.12,30.75c-.62.66-1.45,1-2.3,1ZM7.47,35.34h15.14c1.03,0,1.99.5,2.59,1.34.59.84.75,1.91.41,2.88l-6.05,17.33,25.14-26.54h-15.14c-1.03,0-1.99-.5-2.58-1.33s-.75-1.91-.41-2.88l6.05-17.33L7.47,35.34ZM46.62,30.34h0,0Z"/>
    </g>
    <g>
      <path class="cls-2" d="M67.47,11.85h7.21v7.31h-7.21c-1.86,0-3.37-1.51-3.37-3.37v-.58c0-1.86,1.51-3.37,3.37-3.37Z"/>
      <path class="cls-8" d="M74.68,21.16h-7.21c-2.96,0-5.37-2.41-5.37-5.37v-.58c0-2.96,2.41-5.37,5.37-5.37h7.21c1.1,0,2,.9,2,2v7.31c0,1.1-.9,2-2,2ZM67.47,13.85c-.75,0-1.37.61-1.37,1.37v.58c0,.75.61,1.37,1.37,1.37h5.21v-3.31h-5.21Z"/>
    </g>
    <path class="cls-8" d="M76.47,32.13c-.55,0-1.1-.23-1.5-.67-.73-.83-.66-2.09.17-2.82l5.98-5.3c.78-.66,1.21-1.57,1.21-2.54,0-1.81-1.47-3.28-3.28-3.28h-2.89c-1.1,0-2-.9-2-2s.9-2,2-2h2.89c4.02,0,7.28,3.27,7.28,7.28,0,2.15-.94,4.18-2.59,5.57l-5.95,5.26c-.38.34-.85.5-1.33.5Z"/>
    <g>
      <path class="cls-4" d="M87.9,26.63h2.56v19.39h-2.56c-5.35,0-9.7-4.34-9.7-9.7h0c0-5.35,4.34-9.7,9.7-9.7Z"/>
      <path class="cls-8" d="M90.46,48.02h-2.56c-6.45,0-11.7-5.25-11.7-11.7s5.25-11.7,11.7-11.7h2.56c1.1,0,2,.9,2,2v19.39c0,1.1-.9,2-2,2ZM87.9,28.63c-4.24,0-7.7,3.45-7.7,7.7s3.45,7.7,7.7,7.7h.56v-15.39h-.56Z"/>
    </g>
    <g>
      <path class="cls-7" d="M84.98,65.21c-.46.06-1.29-1.02-1.39-1.64l-2.39-14.74c-.42-2.61-5.04-18.7-5.04-18.7h0c-4.31,0-7.05,4.63-4.97,8.4l.93,1.68c.69,1.25.88,2.71.54,4.09l-10.12,40.96,1.85.9c5.33,2.6,11.55.19,14.22-5.1,1.25-2.48,3.42-4.37,6.04-5.28l15.58-5.37s-4.38-6.57-15.24-5.21Z"/>
      <path class="cls-8" d="M68.92,89.23c-1.82,0-3.66-.41-5.42-1.26l-1.85-.9c-.85-.41-1.29-1.36-1.07-2.28l10.12-40.96c.22-.9.1-1.84-.35-2.65l-.93-1.68c-1.32-2.4-1.28-5.24.12-7.6s3.86-3.77,6.6-3.77c.89,0,1.68.59,1.92,1.45.48,1.66,4.66,16.28,5.09,18.93l2.37,14.63c11.38-1.08,16.14,5.87,16.34,6.17.34.52.43,1.16.23,1.75-.2.59-.66,1.05-1.24,1.25l-15.58,5.37c-2.15.74-3.89,2.26-4.91,4.29-2.32,4.6-6.81,7.26-11.47,7.26ZM64.86,84.18l.39.19c4.25,2.07,9.32.22,11.56-4.21,1.49-2.96,4.04-5.19,7.18-6.27l12.53-4.32c-2.02-1.46-5.65-3.09-11.29-2.39t0,0c-1.95.24-3.41-2.06-3.61-3.31l-2.39-14.74c-.29-1.82-3-11.49-4.49-16.73-.71.3-1.32.82-1.73,1.52-.67,1.13-.69,2.49-.06,3.64l.93,1.68c.93,1.69,1.19,3.66.73,5.54l-9.73,39.39ZM84.98,65.21h0,0Z"/>
    </g>
    <path class="cls-8" d="M69.39,36.9h-3.71c-1.1,0-2-.9-2-2s.9-2,2-2h3.71c1.1,0,2,.9,2,2s-.9,2-2,2Z"/>
  </g>
</svg>