<?xml version="1.0" encoding="UTF-8"?>
<svg id="flatten_icons" xmlns="http://www.w3.org/2000/svg" viewBox="0 0 112 112">
  <defs>
    <style>
      .cls-1 {
        fill: none;
      }

      .cls-2 {
        fill: #6df2e2;
      }

      .cls-3 {
        fill: #6a8e9e;
      }

      .cls-4 {
        fill: #587f89;
      }

      .cls-5 {
        fill: #cad7db;
      }

      .cls-6 {
        fill: #004241;
      }
    </style>
  </defs>
  <g id="ssd">
    <rect class="cls-1" width="112" height="112"/>
    <g>
      <rect class="cls-3" x="21.79" y="32.13" width="68.41" height="47.75" rx="6.65" ry="6.65"/>
      <g>
        <circle class="cls-2" cx="35.15" cy="45.5" r="4.87"/>
        <path class="cls-6" d="M35.15,52.37c-3.79,0-6.87-3.08-6.87-6.87s3.08-6.87,6.87-6.87,6.87,3.08,6.87,6.87-3.08,6.87-6.87,6.87ZM35.15,42.63c-1.58,0-2.87,1.29-2.87,2.87s1.29,2.87,2.87,2.87,2.87-1.29,2.87-2.87-1.29-2.87-2.87-2.87Z"/>
      </g>
      <path class="cls-4" d="M83.56,68.43h-48.28c-7.45,0-13.48-6.04-13.48-13.48v18.28c0,3.67,2.98,6.65,6.65,6.65h55.11c3.67,0,6.65-2.98,6.65-6.65v-11.45c0,3.67-2.98,6.65-6.65,6.65Z"/>
      <g>
        <rect class="cls-5" x="74.58" y="32.13" width="15.62" height="47.75" rx="7.81" ry="7.81"/>
        <path class="cls-6" d="M82.39,81.87c-5.41,0-9.81-4.4-9.81-9.81v-32.12c0-5.41,4.4-9.81,9.81-9.81s9.81,4.4,9.81,9.81v32.12c0,5.41-4.4,9.81-9.81,9.81ZM82.39,34.13c-3.2,0-5.81,2.61-5.81,5.81v32.12c0,3.2,2.61,5.81,5.81,5.81s5.81-2.61,5.81-5.81v-32.12c0-3.2-2.61-5.81-5.81-5.81Z"/>
      </g>
      <path class="cls-6" d="M82.39,47.9c-1.1,0-2-.9-2-2v-4.62c0-1.1.9-2,2-2s2,.9,2,2v4.62c0,1.1-.9,2-2,2Z"/>
      <path class="cls-6" d="M83.56,81.87H28.44c-4.77,0-8.65-3.88-8.65-8.65v-34.45c0-4.77,3.88-8.65,8.65-8.65h55.11c4.77,0,8.65,3.88,8.65,8.65v34.45c0,4.77-3.88,8.65-8.65,8.65ZM28.44,34.13c-2.56,0-4.65,2.09-4.65,4.65v34.45c0,2.56,2.09,4.65,4.65,4.65h55.11c2.56,0,4.65-2.09,4.65-4.65v-34.45c0-2.56-2.09-4.65-4.65-4.65H28.44Z"/>
    </g>
  </g>
</svg>