<?xml version="1.0" encoding="UTF-8"?>
<svg id="outline_icons" xmlns="http://www.w3.org/2000/svg" viewBox="0 0 112 112">
  <defs>
    <style>
      .cls-1 {
        fill: none;
      }

      .cls-2 {
        fill: #6e6f72;
      }

      .cls-3 {
        fill: #727889;
      }

      .cls-4 {
        fill: #acd8e2;
      }

      .cls-5 {
        fill: #eac96c;
      }

      .cls-6 {
        fill: #e2dbc9;
      }

      .cls-7 {
        fill: #3e5f9b;
      }

      .cls-8 {
        fill: #d2d9db;
      }

      .cls-9 {
        fill: #ef706b;
      }

      .cls-10 {
        opacity: .16;
      }

      .cls-11 {
        fill: #004241;
      }

      .cls-12 {
        fill: #dbc8b2;
      }

      .cls-13 {
        fill: #eee;
      }
    </style>
  </defs>
  <g>
    <g>
      <rect class="cls-13" x="4.35" y="5.15" width="36.32" height="32.19" rx="4.9" ry="4.9"/>
      <path class="cls-11" d="M24.05,31.05c-1.1,0-2-.9-2-2v-7.76l-3.82,2.9c-.88.67-2.14.49-2.8-.39-.67-.88-.49-2.14.39-2.8l7.03-5.33c.6-.46,1.42-.53,2.1-.2.68.34,1.11,1.03,1.11,1.79v11.78c0,1.1-.9,2-2,2Z"/>
      <path class="cls-11" d="M13.72,10.41c-1.1,0-2-.9-2-2V1.9C11.72.8,12.62-.1,13.72-.1s2,.9,2,2v6.51c0,1.1-.9,2-2,2Z"/>
      <path class="cls-11" d="M31.34,10.41c-1.1,0-2-.9-2-2V1.9c0-1.1.9-2,2-2s2,.9,2,2v6.51c0,1.1-.9,2-2,2Z"/>
      <path class="cls-7" d="M16.49,5.15h-7.24c-2.71,0-4.9,2.19-4.9,4.9v2.35h12.14v-7.25Z"/>
      <path class="cls-9" d="M35.77,5.15h-7.24v7.25h12.14v-2.35c0-2.71-2.19-4.9-4.9-4.9Z"/>
      <rect class="cls-8" x="16.49" y="6.27" width="12.03" height="6.14"/>
      <path class="cls-11" d="M35.77,39.34H9.25c-3.81,0-6.9-3.1-6.9-6.9V10.06c0-3.8,3.1-6.9,6.9-6.9h26.52c3.81,0,6.9,3.1,6.9,6.9v22.38c0,3.8-3.1,6.9-6.9,6.9ZM9.25,7.16c-1.6,0-2.9,1.3-2.9,2.9v22.38c0,1.6,1.3,2.9,2.9,2.9h26.52c1.6,0,2.9-1.3,2.9-2.9V10.06c0-1.6-1.3-2.9-2.9-2.9H9.25Z"/>
    </g>
    <g class="cls-10">
      <path class="cls-2" d="M6.49,105.96h99.02c1.18,0,2.14-.96,2.14-2.14v-58.62c0-.57-.23-1.11-.63-1.51l-11.99-11.99c-.84-.84-2.19-.84-3.03,0l-12.4,12.4c-.4.4-.63.95-.63,1.51v22.41c0,1.18-.96,2.14-2.14,2.14h-13.92c-1.18,0-2.14-.96-2.14-2.14v-6.27c0-1.18-.96-2.14-2.14-2.14h-7.26c-1.18,0-2.14.96-2.14,2.14v11.25c0,1.18-.96,2.14-2.14,2.14h-18.8c-1.18,0-2.14-.96-2.14-2.14v-19.09c0-1.18-.96-2.14-2.14-2.14h-13.25c-1.18,0-2.14.96-2.14,2.14v7.62c0,1.18-.96,2.14-2.14,2.14h0c-1.18,0-2.14.96-2.14,2.14v38.02c0,1.18.96,2.14,2.14,2.14Z"/>
    </g>
    <g>
      <path class="cls-4" d="M96.5,45.11c0,8.33-6.76,15.09-15.09,15.09s-15.09-6.76-15.09-15.09,15.09-32.28,15.09-32.28c0,0,15.09,23.95,15.09,32.28Z"/>
      <path class="cls-11" d="M81.41,62.2c-9.42,0-17.09-7.67-17.09-17.09,0-8.66,13.82-30.85,15.4-33.35.37-.58,1.01-.93,1.69-.93s1.33.35,1.69.93c1.58,2.5,15.4,24.69,15.4,33.35,0,9.42-7.67,17.09-17.09,17.09ZM81.41,16.64c-4.78,7.92-13.09,22.86-13.09,28.47,0,7.22,5.87,13.09,13.09,13.09s13.09-5.87,13.09-13.09c0-5.61-8.31-20.55-13.09-28.47Z"/>
    </g>
    <g>
      <path class="cls-3" d="M35.31,63.2s-20.23,6.09-25.09,12.85c-4.86,6.76,2.27,25.78,10.65,29,8.38,3.22,7.6-3.98,16,.91s14.73-3.21,19.93-12.42c5.2-9.21-11.05-24.47-12.37-29.6s-9.12-.74-9.12-.74Z"/>
      <path class="cls-11" d="M41.84,109.43c-1.99,0-3.99-.58-5.98-1.74-3.57-2.08-4.76-1.58-6.55-.83-1.99.83-4.46,1.87-9.16.06-5.65-2.17-10.2-9.9-12.2-16.61-1.95-6.52-1.71-12.14.65-15.42,4.97-6.92,23.01-12.65,25.94-13.54,1.27-.69,5.68-2.83,8.94-1.44,1.02.44,2.35,1.4,2.9,3.53.31,1.22,2.25,3.92,4.12,6.52,5.18,7.21,12.27,17.09,8.05,24.56-3.34,5.91-7.94,12.9-13.98,14.54-.9.24-1.81.37-2.71.37ZM31.75,102.2c1.63,0,3.53.53,6.12,2.03,1.98,1.15,3.82,1.47,5.64.97,4.66-1.26,8.82-7.82,11.54-12.65,2.96-5.25-3.27-13.92-7.82-20.26-2.37-3.3-4.25-5.91-4.75-7.86-.17-.67-.45-.79-.59-.85-1.23-.52-4.07.5-5.61,1.36-.13.07-.26.13-.4.17-5.45,1.64-20.39,7.02-24.05,12.11-1.58,2.21-1.61,6.78-.07,11.94,2.01,6.71,6.13,12.61,9.81,14.02,3.21,1.23,4.52.68,6.18-.02,1.29-.54,2.53-.97,3.99-.97ZM35.31,63.2h0,0Z"/>
    </g>
    <g>
      <path class="cls-3" d="M40.62,63.73s-1.22-.87-1.59-6.22c-.37-5.35,1.07-9.02,1.07-9.02l4.93,2.06,3.13-1.5,3.78,2.2s-9.33,8.81-8.64,13.07"/>
      <path class="cls-11" d="M43.29,66.32c-.67,0-1.28-.33-1.65-.87-.66.39-1.52.38-2.18-.09-.91-.65-2.07-2.51-2.43-7.71-.4-5.74,1.13-9.72,1.2-9.88.2-.5.59-.9,1.08-1.11.5-.21,1.05-.21,1.55,0l4.1,1.71,2.32-1.11c.6-.29,1.3-.26,1.87.07l3.78,2.2c.55.32.91.87.98,1.5.07.63-.15,1.25-.61,1.68-4.13,3.9-8.35,9.38-8.04,11.3.18,1.09-.56,2.12-1.65,2.29-.11.02-.22.03-.32.03ZM41.42,51.22c-.3,1.45-.57,3.59-.4,6.16.15,2.17.45,3.46.68,4.18,1.19-3.48,4.57-7.4,6.97-9.88l-.61-.35-2.18,1.04c-.51.25-1.11.26-1.64.04l-2.83-1.18Z"/>
    </g>
    <g>
      <rect class="cls-6" x="46.91" y="80.6" width="30.09" height="25.36"/>
      <path class="cls-11" d="M76.99,107.96h-30.09c-1.1,0-2-.9-2-2v-25.36c0-1.1.9-2,2-2h30.09c1.1,0,2,.9,2,2v25.36c0,1.1-.9,2-2,2ZM48.91,103.96h26.09v-21.36h-26.09v21.36Z"/>
    </g>
    <g>
      <path class="cls-5" d="M105.51,105.96h-23.57v-16.26l13.64-7.62,6.1,4.68c2.42,1.86,3.83,4.73,3.83,7.77v11.43Z"/>
      <path class="cls-11" d="M105.51,107.96h-23.57c-1.1,0-2-.9-2-2v-16.26c0-.72.39-1.39,1.02-1.75l13.64-7.62c.7-.39,1.56-.33,2.19.16l6.1,4.68c2.89,2.22,4.61,5.72,4.61,9.36v11.43c0,1.1-.9,2-2,2ZM83.94,103.96h19.57v-9.43c0-2.41-1.14-4.72-3.05-6.19l-5.05-3.88-11.46,6.41v13.09Z"/>
    </g>
    <g>
      <polygon class="cls-12" points="83.76 105.96 70.22 105.96 75.04 76.41 80.45 76.41 83.76 105.96"/>
      <path class="cls-11" d="M83.76,107.96h-13.54c-.59,0-1.14-.26-1.52-.7-.38-.45-.54-1.04-.45-1.62l4.81-29.55c.16-.97.99-1.68,1.97-1.68h5.42c1.02,0,1.87.77,1.99,1.78l3.31,29.55c.06.57-.12,1.13-.5,1.56-.38.42-.92.67-1.49.67ZM72.57,103.96h8.95l-2.86-25.55h-1.93l-4.16,25.55Z"/>
    </g>
    <g>
      <polyline class="cls-3" points="95.58 82.08 93.15 75.76 100.02 77.92 95.58 82.08"/>
      <path class="cls-11" d="M95.58,84.08c-.15,0-.3-.02-.45-.05-.65-.15-1.18-.61-1.42-1.23l-2.43-6.32c-.28-.72-.12-1.53.41-2.09.53-.56,1.33-.77,2.06-.54l6.88,2.16c.68.21,1.19.77,1.35,1.46s-.06,1.42-.58,1.91l-4.44,4.16c-.37.35-.87.54-1.37.54Z"/>
    </g>
    <path class="cls-11" d="M24.13,89.39h-1.62c-1.1,0-2-.9-2-2s.9-2,2-2h1.62c1.1,0,2,.9,2,2s-.9,2-2,2Z"/>
    <path class="cls-11" d="M67.13,75.72h-1.62c-1.1,0-2-.9-2-2s.9-2,2-2h1.62c1.1,0,2,.9,2,2s-.9,2-2,2Z"/>
    <path class="cls-11" d="M18.64,59.45h-1.62c-1.1,0-2-.9-2-2s.9-2,2-2h1.62c1.1,0,2,.9,2,2s-.9,2-2,2Z"/>
  </g>
  <rect class="cls-1" width="112" height="112"/>
</svg>