<?xml version="1.0" encoding="UTF-8"?>
<svg id="outline_icons" xmlns="http://www.w3.org/2000/svg" viewBox="0 0 112 112">
  <defs>
    <style>
      .cls-1 {
        fill: none;
      }

      .cls-2 {
        fill: #3e5f9b;
      }

      .cls-3 {
        fill: #c4d1d5;
      }

      .cls-4 {
        fill: #fff;
      }

      .cls-5 {
        fill: #d2d9db;
      }

      .cls-6 {
        fill: #ef706b;
      }

      .cls-7 {
        opacity: .16;
      }

      .cls-8 {
        fill: #004978;
      }

      .cls-9 {
        fill: #004241;
      }

      .cls-10 {
        fill: #eee;
      }
    </style>
  </defs>
  <g class="cls-7">
    <path class="cls-9" d="M21.57,11.52h51.31c1.11,0,2.18.44,2.97,1.23l7.04,7.04c.79.79,1.23,1.85,1.23,2.97h0c0,2.32-1.88,4.19-4.19,4.19H21.57"/>
  </g>
  <g class="cls-7">
    <path class="cls-9" d="M43.77,33.83h51.31c1.11,0,2.18.44,2.97,1.23l7.04,7.04c.79.79,1.23,1.85,1.23,2.97h0c0,2.32-1.88,4.19-4.19,4.19h-58.34"/>
  </g>
  <g>
    <rect class="cls-1" width="112" height="112"/>
    <g id="tgv">
      <g id="area">
        <rect class="cls-1" width="112" height="112"/>
      </g>
      <g id="rails">
        <path class="cls-3" d="M97.84,106.55c-1.1,0-2-.9-2-2v-2.87c0-1.1.9-2,2-2s2,.9,2,2v2.87c0,1.1-.9,2-2,2Z"/>
        <path class="cls-3" d="M83.55,106.55c-1.1,0-2-.9-2-2v-2.87c0-1.1.9-2,2-2s2,.9,2,2v2.87c0,1.1-.9,2-2,2Z"/>
        <path class="cls-3" d="M69.81,106.55c-1.1,0-2-.9-2-2v-2.87c0-1.1.9-2,2-2s2,.9,2,2v2.87c0,1.1-.9,2-2,2Z"/>
        <path class="cls-3" d="M55.52,106.55c-1.1,0-2-.9-2-2v-2.87c0-1.1.9-2,2-2s2,.9,2,2v2.87c0,1.1-.9,2-2,2Z"/>
        <path class="cls-3" d="M41.08,106.55c-1.1,0-2-.9-2-2v-2.87c0-1.1.9-2,2-2s2,.9,2,2v2.87c0,1.1-.9,2-2,2Z"/>
        <path class="cls-3" d="M26.79,106.55c-1.1,0-2-.9-2-2v-2.87c0-1.1.9-2,2-2s2,.9,2,2v2.87c0,1.1-.9,2-2,2Z"/>
        <path class="cls-3" d="M13.05,106.55c-1.1,0-2-.9-2-2v-2.87c0-1.1.9-2,2-2s2,.9,2,2v2.87c0,1.1-.9,2-2,2Z"/>
        <path class="cls-9" d="M105.87,103.69H4.02c-1.1,0-2-.9-2-2s.9-2,2-2h101.85c1.1,0,2,.9,2,2s-.9,2-2,2Z"/>
      </g>
      <g id="train">
        <path class="cls-9" d="M55.99,85.35c-3.06-2.04-6.96-1.84-9.81.21-1.03.74-2.28,1.09-3.55,1.09h-12.93c-1.29,0-2.55-.39-3.6-1.13-2.69-1.9-6.32-2.21-9.33-.47-4.14,2.39-5.54,7.73-3.12,11.92,2.42,4.19,7.74,5.65,11.88,3.26,1.42-.82,2.52-1.99,3.25-3.34,1.08-2,3.22-3.19,5.49-3.19h3.85c2.33,0,4.4,1.31,5.57,3.32.63,1.09,1.51,2.05,2.62,2.79,3.95,2.64,9.31,1.54,11.98-2.46,2.67-3.99,1.64-9.37-2.31-12.01Z"/>
        <g>
          <path class="cls-3" d="M13.96,30.9h38.49c13.32,0,25.76,7.18,33.15,19.12h0c2.16,3.49,4.99,6.45,8.29,8.67l4.03,2.71c4.3,2.89,7.97,6.75,10.76,11.31h0c2.09,3.42,1.67,7.95-1,10.86h0c-1.51,1.64-3.56,2.57-5.71,2.57h-56.24s-31.76,0-31.76,0"/>
          <path class="cls-9" d="M101.96,88.13H13.96v-4h88.01c1.59,0,3.1-.68,4.24-1.92,2.07-2.25,2.39-5.81.77-8.46-2.62-4.28-6.13-7.98-10.17-10.69l-4.03-2.71c-3.56-2.4-6.55-5.52-8.87-9.27-7.04-11.38-18.8-18.17-31.45-18.17H13.96v-4h38.49c14.05,0,27.08,7.5,34.85,20.07,2.02,3.27,4.62,5.98,7.7,8.06l4.03,2.71c4.51,3.03,8.43,7.15,11.35,11.92,2.58,4.21,2.07,9.67-1.24,13.26-1.88,2.04-4.49,3.21-7.18,3.21Z"/>
        </g>
        <g>
          <path class="cls-8" d="M13.96,45.21h34.56c3.06,0,5.99,1.36,8.09,3.75l17.4,17.4c2.24,2.56.56,6.76-2.7,6.76H13.96"/>
          <path class="cls-4" d="M71.31,75.12H13.96c-1.1,0-2-.9-2-2s.9-2,2-2h57.35c.93,0,1.37-.75,1.52-1.07.28-.63.36-1.57-.28-2.33l-17.34-17.35s-.06-.06-.09-.09c-1.72-1.95-4.12-3.07-6.59-3.07H13.96c-1.1,0-2-.9-2-2s.9-2,2-2h34.56c3.6,0,7.08,1.6,9.55,4.38l17.35,17.36s.06.06.09.09c1.59,1.81,1.97,4.43.96,6.66-.96,2.11-2.93,3.42-5.16,3.42Z"/>
        </g>
        <path class="cls-9" d="M88.42,57.49h-4.48c-4.19,0-8-2.19-10.2-5.87-5.65-9.45-17.5-18.09-17.62-18.18-.89-.65-1.1-1.9-.45-2.79.65-.9,1.9-1.1,2.79-.45.51.37,12.63,9.2,18.71,19.36,1.47,2.45,4,3.92,6.77,3.92h4.48c1.1,0,2,.9,2,2s-.9,2-2,2Z"/>
        <path class="cls-9" d="M24.38,88.13h-15.97c-1.1,0-2-.9-2-2s.9-2,2-2h15.97c1.1,0,2,.9,2,2s-.9,2-2,2Z"/>
        <path class="cls-9" d="M14.21,32.9h-.5c-1.1,0-2-.9-2-2s.9-2,2-2h.5c1.1,0,2,.9,2,2s-.9,2-2,2Z"/>
        <path class="cls-9" d="M2.92,88.13h-.53c-1.1,0-2-.9-2-2s.9-2,2-2h.53c1.1,0,2,.9,2,2s-.9,2-2,2Z"/>
        <path class="cls-9" d="M8.68,32.9h-.53c-1.1,0-2-.9-2-2s.9-2,2-2h.53c1.1,0,2,.9,2,2s-.9,2-2,2Z"/>
        <path class="cls-4" d="M100.61,73.08h-5.96c-1.05,0-1.9-.92-1.9-2.05v-1.93c0-.73.55-1.33,1.23-1.33h2.28c.87,0,1.72.35,2.37.97l2.62,2.51c.67.64.25,1.83-.65,1.83Z"/>
        <path class="cls-6" d="M52.83,59.68h3.69c1.8,0,3.26,1.46,3.26,3.26v1.27c0,.67-.54,1.21-1.21,1.21h-5.74c-.67,0-1.21-.54-1.21-1.21v-3.32c0-.67.54-1.21,1.21-1.21Z"/>
        <path class="cls-9" d="M22.78,62.11h-13.25c-1.1,0-2-.9-2-2s.9-2,2-2h13.25c1.1,0,2,.9,2,2s-.9,2-2,2Z"/>
        <path class="cls-9" d="M2.98,62.11h-.98C.9,62.11,0,61.21,0,60.11s.9-2,2-2h.98c1.1,0,2,.9,2,2s-.9,2-2,2Z"/>
        <path class="cls-9" d="M61.03,87.07l4.81,8.33c.21.45.56.72.93.72h33.68c.86,0,1.4-1.32.98-2.39l-3.51-6.66"/>
        <path class="cls-9" d="M22.2,32.9c-.23,0-.47-.04-.71-.13-1.03-.39-1.55-1.54-1.16-2.58l3.52-9.33-5.9-5.94c-.78-.78-.77-2.05,0-2.83.78-.78,2.05-.78,2.83,0l6.81,6.85c.55.56.73,1.38.45,2.12l-3.98,10.53c-.3.8-1.06,1.29-1.87,1.29Z"/>
      </g>
    </g>
    <g>
      <rect class="cls-10" x="2" y="5.04" width="36.32" height="32.19" rx="4.9" ry="4.9"/>
      <path class="cls-9" d="M21.7,30.94c-1.1,0-2-.9-2-2v-7.76l-3.82,2.9c-.88.67-2.13.49-2.8-.39-.67-.88-.49-2.14.39-2.8l7.03-5.33c.6-.46,1.42-.53,2.1-.2.68.34,1.11,1.03,1.11,1.79v11.78c0,1.1-.9,2-2,2Z"/>
      <path class="cls-9" d="M11.37,10.3c-1.1,0-2-.9-2-2V1.79c0-1.1.9-2,2-2s2,.9,2,2v6.51c0,1.1-.9,2-2,2Z"/>
      <path class="cls-9" d="M28.99,10.3c-1.1,0-2-.9-2-2V1.79c0-1.1.9-2,2-2s2,.9,2,2v6.51c0,1.1-.9,2-2,2Z"/>
      <path class="cls-2" d="M14.14,5.04h-7.24c-2.71,0-4.9,2.19-4.9,4.9v2.35h12.14v-7.25Z"/>
      <path class="cls-6" d="M33.42,5.04h-7.24v7.25h12.14v-2.35c0-2.71-2.19-4.9-4.9-4.9Z"/>
      <rect class="cls-5" x="14.14" y="6.15" width="12.03" height="6.14"/>
      <path class="cls-9" d="M33.42,39.23H6.9C3.1,39.23,0,36.13,0,32.33V9.94C0,6.14,3.1,3.04,6.9,3.04h26.52c3.8,0,6.9,3.1,6.9,6.9v22.38c0,3.8-3.1,6.9-6.9,6.9ZM6.9,7.04c-1.6,0-2.9,1.3-2.9,2.9v22.38c0,1.6,1.3,2.9,2.9,2.9h26.52c1.6,0,2.9-1.3,2.9-2.9V9.94c0-1.6-1.3-2.9-2.9-2.9H6.9Z"/>
    </g>
  </g>
</svg>