<?xml version="1.0" encoding="UTF-8"?>
<svg id="outline_icons" xmlns="http://www.w3.org/2000/svg" viewBox="0 0 112 112">
  <defs>
    <style>
      .cls-1 {
        fill: none;
      }

      .cls-2 {
        fill: #9fdecf;
      }

      .cls-3 {
        fill: #ed706b;
      }

      .cls-4 {
        fill: #d8d0ba;
      }

      .cls-5 {
        fill: #fdda49;
      }

      .cls-6 {
        fill: #004241;
      }
    </style>
  </defs>
  <g id="triporteur">
    <g id="area">
      <rect class="cls-1" x=".14" width="112" height="112"/>
    </g>
    <g id="bolt">
      <path class="cls-5" d="M45.44,26.73h-17.21c-.81,0-1.38-.8-1.12-1.57l7.39-21.15c.42-1.2-1.1-2.13-1.97-1.2L3.16,33.82c-.71.75-.18,1.99.86,1.99h17.21c.81,0,1.38.8,1.12,1.57l-7.39,21.15c-.42,1.2,1.1,2.13,1.97,1.2l29.37-31.01c.71-.75.18-1.99-.86-1.99Z"/>
      <path class="cls-6" d="M16.08,62.11c-.57,0-1.14-.15-1.66-.47-1.29-.79-1.85-2.34-1.35-3.77l7.01-20.06H4.02c-1.27,0-2.42-.76-2.92-1.92-.5-1.17-.26-2.52.61-3.44L31.07,1.43c1.04-1.1,2.67-1.32,3.96-.53s1.85,2.34,1.35,3.76l-7.01,20.06h16.06c1.27,0,2.42.76,2.92,1.92.5,1.17.26,2.52-.61,3.44l-29.37,31.01c-.62.66-1.46,1-2.3,1ZM5.92,33.81h15.31c1.03,0,2,.5,2.59,1.34.6.84.75,1.92.41,2.89l-6.13,17.55,25.44-26.85h-15.31c-1.03,0-2-.5-2.59-1.34s-.75-1.92-.41-2.89l6.13-17.55L5.92,33.81ZM45.44,28.73h0,0Z"/>
    </g>
    <g id="bike">
      <g>
        <path class="cls-3" d="M39.76,53.07h-10.51c-2.47,0-4.48-2.16-4.48-4.83v-.93c0-2.67,2.01-4.83,4.48-4.83h2.58c.66,0,1.31.11,1.93.32l3.65,1.24c.54.18,1.1.29,1.66.31l2.79.13c2.11.09,3.78,1.97,3.78,4.25v.1c0,2.35-1.76,4.25-3.94,4.25h-1.95Z"/>
        <path class="cls-6" d="M41.72,55.07h-12.46c-3.57,0-6.48-3.06-6.48-6.83v-.93c0-3.77,2.91-6.83,6.48-6.83h2.58c.88,0,1.74.14,2.58.43l3.65,1.24c.36.12.74.19,1.11.21l2.79.13c3.19.14,5.69,2.89,5.69,6.24,0,3.54-2.67,6.35-5.94,6.35ZM29.25,44.49c-1.37,0-2.48,1.27-2.48,2.83v.93c0,1.56,1.11,2.83,2.48,2.83h12.46c1.07,0,1.94-1.01,1.94-2.25s-.84-2.3-1.87-2.34l-2.79-.13c-.75-.03-1.5-.17-2.22-.42l-3.65-1.24c-.42-.14-.85-.21-1.29-.21h-2.58Z"/>
      </g>
      <path class="cls-6" d="M51.83,86.41c-5.58,0-10.53-3.55-12.32-8.84l-.08-.25s-.02-.07-.03-.1l-6.53-23.17c-.3-1.06.32-2.17,1.38-2.47,1.06-.3,2.17.32,2.47,1.38l6.58,23.32c1.24,3.66,4.67,6.12,8.53,6.12,1.1,0,2,.9,2,2s-.9,2-2,2Z"/>
      <path class="cls-6" d="M23.3,88.69c-.44,0-.89-.15-1.26-.45-.86-.7-.99-1.96-.29-2.81l14.67-18.1c.7-.86,1.95-.99,2.81-.29.86.7.99,1.96.29,2.81l-14.67,18.1c-.4.49-.97.74-1.55.74Z"/>
      <path class="cls-6" d="M47.6,102.84c-.82,0-1.59-.51-1.88-1.33l-5.22-14.58c-.37-1.04.17-2.18,1.21-2.56,1.04-.37,2.19.17,2.56,1.21l5.22,14.58c.37,1.04-.17,2.18-1.21,2.56-.22.08-.45.12-.67.12Z"/>
      <path class="cls-6" d="M51.6,103.78h-6.61c-1.1,0-2-.9-2-2s.9-2,2-2h6.61c1.1,0,2,.9,2,2s-.9,2-2,2Z"/>
      <path class="cls-6" d="M67.35,86.41c-.9,0-1.72-.61-1.94-1.52l-9.05-36.93c-.18-.74.07-1.52.65-2.01l6.1-5.14c.71-.6,1.11-1.47,1.11-2.39,0-1.72-1.4-3.13-3.13-3.13h-4.8c-1.1,0-2-.9-2-2s.9-2,2-2h4.8c3.93,0,7.13,3.2,7.13,7.13,0,2.11-.92,4.09-2.54,5.45l-5.15,4.34,8.75,35.72c.26,1.07-.39,2.16-1.47,2.42-.16.04-.32.06-.48.06Z"/>
      <g>
        <path class="cls-4" d="M20.25,71.28c-10.12,0-18.33,8.21-18.33,18.33s8.21,18.33,18.33,18.33,18.33-8.21,18.33-18.33-8.21-18.33-18.33-18.33ZM20.25,100.84c-6.2,0-11.23-5.03-11.23-11.23s5.03-11.23,11.23-11.23,11.23,5.03,11.23,11.23-5.03,11.23-11.23,11.23Z"/>
        <path class="cls-6" d="M20.25,109.94C9.04,109.94-.08,100.82-.08,89.61s9.12-20.33,20.33-20.33,20.33,9.12,20.33,20.33-9.12,20.33-20.33,20.33ZM20.25,73.28c-9,0-16.33,7.33-16.33,16.33s7.33,16.33,16.33,16.33,16.33-7.33,16.33-16.33-7.33-16.33-16.33-16.33ZM20.25,102.84c-7.29,0-13.23-5.94-13.23-13.23s5.94-13.23,13.23-13.23,13.23,5.94,13.23,13.23-5.94,13.23-13.23,13.23ZM20.25,80.38c-5.09,0-9.23,4.14-9.23,9.23s4.14,9.23,9.23,9.23,9.23-4.14,9.23-9.23-4.14-9.23-9.23-9.23Z"/>
      </g>
      <g>
        <polygon class="cls-2" points="69.5 91.91 44.99 91.91 44.99 84.41 67.35 84.41 69.5 91.91"/>
        <path class="cls-6" d="M69.5,93.91h-24.51c-1.1,0-2-.9-2-2v-7.5c0-1.1.9-2,2-2h22.36c.89,0,1.68.59,1.92,1.45l2.15,7.5c.17.6.05,1.25-.33,1.75-.38.5-.97.8-1.6.8ZM46.99,89.91h19.85l-1-3.5h-18.85v3.5Z"/>
      </g>
      <g>
        <path class="cls-2" d="M45.95,86.04c.33,2.56-1.06,5.81-4.22,6.09-8.67.77-20.87.92-21.46-3.1-.72-4.95,13.29-7.78,20.84-8.41,3.16-.26,4.51,2.87,4.84,5.42Z"/>
        <path class="cls-6" d="M32.65,94.58c-13.59,0-14.15-3.85-14.36-5.26-.13-.9-.05-2.28,1.09-3.71,4.36-5.48,20.87-6.92,21.57-6.98,3.65-.31,6.4,2.51,6.99,7.16.27,2.14-.34,4.38-1.63,5.98-1.11,1.38-2.63,2.2-4.4,2.35-3.62.32-6.67.46-9.26.46ZM41.45,82.61c-.05,0-.11,0-.17,0-7.42.62-16.71,2.89-18.77,5.48-.3.38-.27.57-.26.65.32.95,5.63,2.61,19.31,1.4.67-.06,1.21-.35,1.63-.88.6-.75.91-1.92.77-2.97h0c-.11-.88-.62-3.69-2.52-3.69Z"/>
      </g>
      <path class="cls-6" d="M76.87,92.78h-7.37c-1.1,0-2-.9-2-2s.9-2,2-2h7.37c1.1,0,2,.9,2,2s-.9,2-2,2Z"/>
      <g>
        <path class="cls-3" d="M69.67,48.85l-2.92.66,8.8,42.4h8.68c.87-2.54,3.26-4.37,6.09-4.37s5.22,1.83,6.09,4.37h9.04c2.06,0,3.75-1.93,3.82-4.37l.72-21.54v-16.49c-8.22-1.52-16.82-2.18-25.37-2.25-5.03-.04-10.04.49-14.95,1.6Z"/>
        <path class="cls-6" d="M105.45,93.91h-9.04c-.85,0-1.61-.54-1.89-1.35-.62-1.8-2.31-3.01-4.2-3.01s-3.59,1.21-4.21,3.01c-.28.81-1.03,1.35-1.89,1.35h-8.68c-.94,0-1.76-.67-1.95-1.59l-8.8-42.4c-.22-1.07.45-2.12,1.52-2.36l2.92-.66c5.05-1.14,10.23-1.69,15.41-1.64,9.31.08,17.96.85,25.71,2.29.95.18,1.63,1,1.63,1.97v16.49l-.72,21.61c-.1,3.53-2.65,6.3-5.81,6.3ZM97.7,89.91h7.75c.97,0,1.78-1.09,1.82-2.43l.72-21.55v-14.74c-7.11-1.21-14.97-1.86-23.39-1.93-4.83-.04-9.74.48-14.5,1.55h0l-1,.23,8.07,38.88h5.77c1.47-2.66,4.28-4.37,7.38-4.37s5.91,1.71,7.38,4.37ZM69.67,48.85h0,0Z"/>
      </g>
      <g>
        <path class="cls-4" d="M90.38,80.07c-7.7,0-13.94,6.24-13.94,13.94s6.24,13.94,13.94,13.94,13.94-6.24,13.94-13.94-6.24-13.94-13.94-13.94ZM90.38,100.47c-3.57,0-6.46-2.89-6.46-6.46s2.89-6.46,6.46-6.46,6.46,2.89,6.46,6.46-2.89,6.46-6.46,6.46Z"/>
        <path class="cls-6" d="M90.38,109.94c-8.79,0-15.94-7.15-15.94-15.94s7.15-15.94,15.94-15.94,15.94,7.15,15.94,15.94-7.15,15.94-15.94,15.94ZM90.38,82.07c-6.58,0-11.94,5.36-11.94,11.94s5.36,11.94,11.94,11.94,11.94-5.36,11.94-11.94-5.36-11.94-11.94-11.94ZM90.38,102.47c-4.67,0-8.46-3.8-8.46-8.46s3.8-8.46,8.46-8.46,8.46,3.8,8.46,8.46-3.8,8.46-8.46,8.46ZM90.38,89.54c-2.46,0-4.46,2-4.46,4.46s2,4.46,4.46,4.46,4.46-2,4.46-4.46-2-4.46-4.46-4.46Z"/>
      </g>
    </g>
  </g>
</svg>