<?xml version="1.0" encoding="UTF-8"?>
<svg id="outline_icons" xmlns="http://www.w3.org/2000/svg" viewBox="0 0 112 112">
  <defs>
    <style>
      .cls-1 {
        fill: none;
      }

      .cls-2 {
        fill: #87acaf;
      }

      .cls-3 {
        fill: #fff;
      }

      .cls-4 {
        fill: #ed706b;
      }

      .cls-5 {
        fill: #dae5e8;
      }

      .cls-6 {
        fill: #d3e7ee;
      }

      .cls-7 {
        fill: #004241;
      }

      .cls-8 {
        fill: #d05954;
      }
    </style>
  </defs>
  <g id="area">
    <rect class="cls-1" width="112" height="112"/>
  </g>
  <path class="cls-6" d="M108.05,57.86l-22.89-25.02H17.01c-2.02,0-3.76,1.42-4.17,3.4l-2.46,11.94c-.66,3.2-1.14,6.44-1.45,9.69h99.12Z"/>
  <path class="cls-5" d="M4.38,40.54c-.16.79-.31,1.58-.46,2.38.14-.79.29-1.59.46-2.38Z"/>
  <path class="cls-8" d="M102.05,50.23H2.93c.15-1.6.35-3.19.58-4.78-.67,4.46-1.01,8.97-1.01,13.49v28.08c0,3.27,2.5,5.93,5.58,5.93h95.67c3.08,0,5.58-2.65,5.58-5.93v-23.89c0-3.17-1.16-6.21-3.24-8.48"/>
  <path class="cls-5" d="M3.88,43.2c-.13.72-.24,1.43-.35,2.15.11-.72.23-1.44.35-2.15Z"/>
  <path class="cls-3" d="M56,40.43H17.65c-1.1,0-2-.9-2-2s.9-2,2-2h38.35c1.1,0,2,.9,2,2s-.9,2-2,2Z"/>
  <path class="cls-3" d="M81.09,40.43h-7.65c-1.1,0-2-.9-2-2s.9-2,2-2h7.65c1.1,0,2,.9,2,2s-.9,2-2,2Z"/>
  <path class="cls-4" d="M32.78,62.54v5.14c0,1-.68,1.92-1.66,2.08-1.25.2-2.34-.76-2.34-1.97v-5.25c0-1.68-1.37-3.05-3.05-3.05H2.51v27.54c0,3.27,2.5,5.93,5.58,5.93h95.67c3.08,0,5.58-2.65,5.58-5.93v-27.54H35.83c-1.68,0-3.05,1.37-3.05,3.05Z"/>
  <path class="cls-3" d="M106.49,56h-2.9c-2.19,0-3.96,1.9-3.96,4.24v1.3c0,2.34,1.77,4.24,3.96,4.24h2.9c1.57,0,2.84-1.36,2.84-3.04v-1.1c0-1.61-.27-3.19-.77-4.67-.52-.59-1.25-.97-2.07-.97Z"/>
  <path class="cls-2" d="M79.16,25.21H7.54l.4-1.96c.8-3.91,4.06-6.7,7.82-6.7h45.91c6.12,0,11.97,2.63,16.24,7.29l1.24,1.36Z"/>
  <path class="cls-2" d="M2.51,83.03v4.01c0,3.27,2.5,5.92,5.58,5.92h95.67c3.08,0,5.58-2.65,5.58-5.92v-4.01H2.51Z"/>
  <path class="cls-7" d="M103.76,94.96H8.08c-4.18,0-7.58-3.56-7.58-7.93v-28.08c0-6.31.64-12.64,1.91-18.8l3.56-17.29c.99-4.8,5.1-8.29,9.78-8.29h45.91c6.64,0,13.1,2.9,17.72,7.94l28.18,30.81c2.43,2.65,3.76,6.14,3.76,9.83v23.89c0,4.37-3.4,7.93-7.58,7.93ZM15.76,18.55c-2.83,0-5.25,2.1-5.86,5.1l-3.56,17.29c-1.21,5.9-1.83,11.96-1.83,18v28.08c0,2.17,1.6,3.93,3.58,3.93h95.67c1.97,0,3.58-1.76,3.58-3.93v-23.89c0-2.68-.96-5.21-2.71-7.13l-28.18-30.81c-3.86-4.22-9.24-6.64-14.76-6.64H15.76Z"/>
  <path class="cls-7" d="M30.78,50.22c-1.1,0-2-.9-2-2v-23.01c0-1.1.9-2,2-2s2,.9,2,2v23.01c0,1.1-.9,2-2,2Z"/>
  <path class="cls-7" d="M66.17,50.22c-1.1,0-2-.9-2-2v-23.01c0-1.1.9-2,2-2s2,.9,2,2v23.01c0,1.1-.9,2-2,2Z"/>
  <path class="cls-7" d="M70.3,61.49h-4.12c-1.1,0-2-.9-2-2s.9-2,2-2h4.12c1.1,0,2,.9,2,2s-.9,2-2,2Z"/>
  <path class="cls-7" d="M108.23,85.03H2.51c-1.1,0-2-.9-2-2s.9-2,2-2h105.73c1.1,0,2,.9,2,2s-.9,2-2,2Z"/>
  <path class="cls-7" d="M102.05,52.23H2.93c-.56,0-1.1-.24-1.48-.65-.38-.42-.56-.97-.51-1.54.32-3.35.82-6.68,1.48-9.9l3.16-15.34c.19-.93,1.01-1.6,1.96-1.6h71.62c.56,0,1.1.24,1.48.65l22.89,25.02c.54.58.67,1.43.35,2.16-.32.73-1.04,1.19-1.83,1.19ZM5.16,48.23h92.35l-19.23-21.02H9.17l-2.83,13.74c-.49,2.38-.89,4.82-1.18,7.29Z"/>
  <g id="voiture">
    <g>
      <circle class="cls-3" cx="25.47" cy="89.68" r="11.93"/>
      <path class="cls-7" d="M25.47,103.61c-7.68,0-13.93-6.25-13.93-13.93s6.25-13.93,13.93-13.93,13.93,6.25,13.93,13.93-6.25,13.93-13.93,13.93ZM25.47,79.75c-5.47,0-9.93,4.45-9.93,9.93s4.45,9.93,9.93,9.93,9.93-4.45,9.93-9.93-4.45-9.93-9.93-9.93Z"/>
    </g>
    <g>
      <circle class="cls-3" cx="85.36" cy="89.68" r="11.93"/>
      <path class="cls-7" d="M85.36,103.61c-7.68,0-13.93-6.25-13.93-13.93s6.25-13.93,13.93-13.93,13.93,6.25,13.93,13.93-6.25,13.93-13.93,13.93ZM85.36,79.75c-5.47,0-9.93,4.45-9.93,9.93s4.45,9.93,9.93,9.93,9.93-4.45,9.93-9.93-4.45-9.93-9.93-9.93Z"/>
    </g>
    <g>
      <circle class="cls-3" cx="85.36" cy="89.68" r="4.27"/>
      <path class="cls-7" d="M85.36,95.96c-3.46,0-6.27-2.81-6.27-6.27s2.81-6.27,6.27-6.27,6.27,2.81,6.27,6.27-2.81,6.27-6.27,6.27ZM85.36,87.41c-1.25,0-2.27,1.02-2.27,2.27s1.02,2.27,2.27,2.27,2.27-1.02,2.27-2.27-1.02-2.27-2.27-2.27Z"/>
    </g>
    <g>
      <path class="cls-3" d="M25.47,93.96c-2.36,0-4.27-1.91-4.27-4.27s1.91-4.27,4.27-4.27,4.27,1.91,4.27,4.27"/>
      <path class="cls-7" d="M25.47,95.96c-3.46,0-6.27-2.81-6.27-6.27s2.81-6.27,6.27-6.27,6.27,2.81,6.27,6.27c0,1.1-.9,2-2,2s-2-.9-2-2c0-1.25-1.02-2.27-2.27-2.27s-2.27,1.02-2.27,2.27,1.02,2.27,2.27,2.27c1.1,0,2,.9,2,2s-.9,2-2,2Z"/>
    </g>
  </g>
</svg>