<?xml version="1.0" encoding="UTF-8"?>
<svg id="outline_icons" xmlns="http://www.w3.org/2000/svg" viewBox="0 0 112 112">
  <defs>
    <style>
      .cls-1 {
        fill: none;
      }

      .cls-2 {
        fill: #efefef;
      }

      .cls-3 {
        fill: #fff;
      }

      .cls-4 {
        fill: #d8d0ba;
      }

      .cls-5 {
        fill: #fdda49;
      }

      .cls-6 {
        fill: #8e88a6;
      }

      .cls-7 {
        fill: #d3e7ee;
      }

      .cls-8 {
        fill: #a9d384;
      }

      .cls-9 {
        fill: #004241;
      }
    </style>
  </defs>
  <g id="veli">
    <g id="area">
      <rect class="cls-1" width="112" height="112"/>
    </g>
    <g>
      <path class="cls-6" d="M28.42,94.87h26.57c6.27,0,18.14-1.52,23.32-4.36l4.8-3.86H26.36l2.06,8.21Z"/>
      <path class="cls-9" d="M54.99,96.87h-26.57c-.92,0-1.72-.62-1.94-1.51l-2.06-8.21c-.15-.6-.02-1.23.36-1.72.38-.49.96-.77,1.58-.77h56.75c.85,0,1.6.54,1.89,1.34.28.8.03,1.69-.63,2.22l-4.8,3.86c-.09.07-.19.14-.29.2-5.48,3-17.62,4.6-24.28,4.6ZM29.98,92.87h25.01c6.14,0,17.47-1.53,22.21-4.03l.23-.19H28.92l1.06,4.21Z"/>
    </g>
    <path class="cls-7" d="M45.39,34.9h-18.94v45.39h30.82c9.43,0,16.22-7.61,15.96-15.86l-10.01-18.98c-3.41-6.47-10.3-10.55-17.83-10.55Z"/>
    <path class="cls-9" d="M57.4,82.29H24.99c-1.1,0-2-.9-2-2V26.43c0-1.1.9-2,2-2h18.28c8.06,0,15.34,4.46,18.99,11.65l11.11,20.9c2.71,5.33,2.44,11.58-.73,16.74-3.29,5.37-8.99,8.58-15.24,8.58ZM26.99,78.29h30.41c4.85,0,9.27-2.49,11.83-6.67,2.47-4.02,2.68-8.69.59-12.8l-11.11-20.9c-2.98-5.87-8.89-9.49-15.44-9.49h-16.28v49.86Z"/>
    <path class="cls-2" d="M79.33,63.56s6.89-.78,8.31.89,3.09,4.05,3.33,6.82-1.18,4.95-1.18,4.95h-10.45v-12.66Z"/>
    <path class="cls-8" d="M81.16,68.54c-.06-1.27-.62-3.71,2.48-4.59-1.44-.44-2.83-1.02-4.15-1.74l-7.89-4.31H29.3c-2.38,0-4.31-1.93-4.31-4.31v-27.16l-5.37.22c-5.39,0-9.76,4.37-9.76,9.76v21.32c-3.27.07-5.88,2.74-5.88,6.01v23.93h79.9c3.92,0,7.1-3.18,7.1-7.1v-8.14c-6.31,1.95-9.63-.39-9.8-3.91Z"/>
    <path class="cls-9" d="M83.87,89.68H3.97c-1.1,0-2-.9-2-2v-23.93c0-3.65,2.5-6.78,5.88-7.72v-19.61c0-6.48,5.28-11.76,11.76-11.76l5.29-.22c.56-.03,1.08.18,1.47.55s.62.9.62,1.44v29.47h44.62c.33,0,.67.08.96.25l7.89,4.31c1.87,1.02,3.87,1.74,5.96,2.14,3.8.73,6.55,4.07,6.55,7.94v10.05c0,5.02-4.08,9.1-9.1,9.1ZM5.97,85.68h77.9c2.81,0,5.1-2.29,5.1-5.1v-10.05c0-1.95-1.39-3.64-3.31-4.01-2.5-.48-4.89-1.34-7.12-2.56l-7.44-4.07H24.99c-1.1,0-2-.9-2-2v-29.39l-3.29.14c-4.36,0-7.84,3.48-7.84,7.76v21.32c0,1.09-.87,1.98-1.96,2-2.17.05-3.93,1.84-3.93,4.01v21.93Z"/>
    <path class="cls-5" d="M108.35,24.1h-15.59c-.74,0-1.25-.73-1.01-1.42l6.69-19.16c.38-1.09-.99-1.93-1.79-1.09l-26.6,28.09c-.65.68-.16,1.81.78,1.81h15.59c.74,0,1.25.73,1.01,1.42l-6.69,19.16c-.38,1.09.99,1.93,1.79,1.09l26.6-28.09c.65-.68.16-1.81-.78-1.81Z"/>
    <path class="cls-9" d="M81.93,57.17c-.56,0-1.12-.15-1.62-.46-1.26-.77-1.8-2.28-1.32-3.68l6.34-18.15h-14.46c-1.24,0-2.36-.74-2.86-1.88-.49-1.14-.26-2.46.6-3.37L95.55,1.18c1.02-1.07,2.61-1.29,3.88-.52,1.26.77,1.8,2.28,1.32,3.68l-6.34,18.15h14.47c1.24,0,2.36.74,2.86,1.88.49,1.14.26,2.46-.6,3.37l-26.94,28.45c-.61.64-1.42.98-2.25.98ZM73.05,30.82h13.6c1.01,0,1.95.49,2.53,1.31.58.82.73,1.88.4,2.83l-5.33,15.26,22.42-23.67h-13.6c-1,0-1.95-.49-2.53-1.31-.58-.82-.73-1.88-.4-2.82l5.33-15.26-22.42,23.67ZM108.87,26.54h0,0Z"/>
    <path class="cls-9" d="M31.94,59.86H9.87c-1.1,0-2-.9-2-2s.9-2,2-2h22.07c1.1,0,2,.9,2,2s-.9,2-2,2Z"/>
    <path class="cls-3" d="M41.61,43.77h-7.65c-1.1,0-2-.9-2-2s.9-2,2-2h7.65c1.1,0,2,.9,2,2s-.9,2-2,2Z"/>
    <g>
      <path class="cls-4" d="M19.23,81.18c-7.02,0-12.71,5.69-12.71,12.71s5.69,12.71,12.71,12.71,12.71-5.69,12.71-12.71-5.69-12.71-12.71-12.71Z"/>
      <path class="cls-9" d="M19.23,108.59c-8.11,0-14.71-6.6-14.71-14.71s6.6-14.71,14.71-14.71,14.71,6.6,14.71,14.71-6.6,14.71-14.71,14.71ZM19.23,83.18c-5.9,0-10.71,4.8-10.71,10.71s4.8,10.71,10.71,10.71,10.71-4.8,10.71-10.71-4.8-10.71-10.71-10.71Z"/>
    </g>
    <g>
      <path class="cls-4" d="M77.08,81.18c-7.02,0-12.71,5.69-12.71,12.71s5.69,12.71,12.71,12.71,12.71-5.69,12.71-12.71-5.69-12.71-12.71-12.71Z"/>
      <path class="cls-9" d="M77.08,108.59c-8.11,0-14.71-6.6-14.71-14.71s6.6-14.71,14.71-14.71,14.71,6.6,14.71,14.71-6.6,14.71-14.71,14.71ZM77.08,83.18c-5.9,0-10.71,4.8-10.71,10.71s4.8,10.71,10.71,10.71,10.71-4.8,10.71-10.71-4.8-10.71-10.71-10.71Z"/>
    </g>
    <path class="cls-9" d="M31.28,70.54h-4.48c-1.1,0-2-.9-2-2s.9-2,2-2h4.48c1.1,0,2,.9,2,2s-.9,2-2,2Z"/>
    <path class="cls-9" d="M77.08,100.38c-3.58,0-6.5-2.91-6.5-6.5s2.91-6.49,6.5-6.49,6.5,2.91,6.5,6.49-2.91,6.5-6.5,6.5ZM77.08,91.39c-1.38,0-2.5,1.12-2.5,2.49s1.12,2.5,2.5,2.5,2.5-1.12,2.5-2.5-1.12-2.49-2.5-2.49Z"/>
    <g>
      <path class="cls-4" d="M19.23,98.38c-2.48,0-4.49-2.01-4.49-4.49s2.01-4.49,4.49-4.49,4.49,2.01,4.49,4.49"/>
      <path class="cls-9" d="M19.23,100.38c-3.58,0-6.5-2.91-6.5-6.5s2.91-6.49,6.5-6.49,6.5,2.91,6.5,6.49c0,1.1-.9,2-2,2s-2-.9-2-2c0-1.38-1.12-2.49-2.5-2.49s-2.5,1.12-2.5,2.49,1.12,2.5,2.5,2.5c1.1,0,2,.9,2,2s-.9,2-2,2Z"/>
    </g>
  </g>
</svg>