<?xml version="1.0" encoding="UTF-8"?>
<svg id="outline_icons" xmlns="http://www.w3.org/2000/svg" viewBox="0 0 112 112">
  <defs>
    <style>
      .cls-1 {
        fill: none;
      }

      .cls-2 {
        fill: #fff;
      }

      .cls-3 {
        fill: #d8d0ba;
      }

      .cls-4 {
        fill: #fdda49;
      }

      .cls-5 {
        fill: #dae5e8;
      }

      .cls-6 {
        fill: #8e88a6;
      }

      .cls-7 {
        fill: #d3e7ee;
      }

      .cls-8 {
        fill: #004241;
      }
    </style>
  </defs>
  <g id="veli_2">
    <g id="area">
      <rect class="cls-1" width="112" height="112"/>
    </g>
    <path class="cls-5" d="M3.88,43.24c-.13.72-.24,1.43-.35,2.15.11-.72.23-1.44.35-2.15Z"/>
    <g>
      <path class="cls-6" d="M30.42,94.91h26.57c6.27,0,18.14-1.52,23.32-4.36l4.8-3.86H28.36l2.06,8.21Z"/>
      <path class="cls-8" d="M56.99,96.91h-26.57c-.92,0-1.72-.62-1.94-1.51l-2.06-8.21c-.15-.6-.02-1.23.36-1.72.38-.49.96-.77,1.58-.77h56.75c.85,0,1.6.54,1.89,1.34.28.8.03,1.69-.63,2.22l-4.8,3.86c-.09.07-.19.14-.29.2-5.48,3-17.62,4.6-24.28,4.6ZM31.98,92.91h25.01c6.14,0,17.47-1.53,22.21-4.03l.23-.19H30.92l1.06,4.21Z"/>
    </g>
    <g>
      <path class="cls-3" d="M89.83,81.22c-7.02,0-12.71,5.69-12.71,12.71s5.69,12.71,12.71,12.71,12.71-5.69,12.71-12.71-5.69-12.71-12.71-12.71ZM89.83,98.42c-2.48,0-4.49-2.01-4.49-4.49s2.01-4.49,4.49-4.49,4.49,2.01,4.49,4.49-2.01,4.49-4.49,4.49Z"/>
      <path class="cls-8" d="M89.83,108.63c-8.11,0-14.71-6.6-14.71-14.71s6.6-14.71,14.71-14.71,14.71,6.6,14.71,14.71-6.6,14.71-14.71,14.71ZM89.83,83.22c-5.9,0-10.71,4.8-10.71,10.71s4.8,10.71,10.71,10.71,10.71-4.8,10.71-10.71-4.8-10.71-10.71-10.71ZM89.83,100.42c-3.58,0-6.5-2.91-6.5-6.5s2.91-6.49,6.5-6.49,6.49,2.91,6.49,6.49-2.91,6.5-6.49,6.5ZM89.83,91.43c-1.38,0-2.5,1.12-2.5,2.49s1.12,2.5,2.5,2.5,2.49-1.12,2.49-2.5-1.12-2.49-2.49-2.49Z"/>
    </g>
    <g>
      <polygon class="cls-6" points="49.08 79.68 49.08 86.69 30.81 86.69 20.27 76.15 39.14 76.15 49.08 79.68"/>
      <path class="cls-8" d="M49.08,88.69h-18.27c-.53,0-1.04-.21-1.41-.59l-10.55-10.55c-.57-.57-.74-1.43-.43-2.18.31-.75,1.04-1.23,1.85-1.23h18.88c.23,0,.46.04.67.12l9.94,3.53c.8.28,1.33,1.04,1.33,1.88v7.01c0,1.1-.9,2-2,2ZM31.64,84.69h15.44v-3.6l-8.28-2.94h-13.7l6.55,6.55Z"/>
    </g>
    <path class="cls-7" d="M47.94,34.93h-18.28v45.39h29.74c9.1,0,15.65-7.61,15.4-15.86l-9.66-18.98c-3.29-6.47-9.94-10.55-17.21-10.55Z"/>
    <g>
      <path class="cls-3" d="M42.53,69.22l-19.9-3.67v14.13h26.45v-2.58c0-3.86-2.76-7.17-6.55-7.87Z"/>
      <path class="cls-8" d="M49.08,81.68h-26.45c-1.1,0-2-.9-2-2v-14.13c0-.59.26-1.16.72-1.54.46-.38,1.06-.54,1.64-.43l19.9,3.67h0c4.75.88,8.19,5.01,8.19,9.84v2.58c0,1.1-.9,2-2,2ZM24.63,77.68h22.45v-.58c0-2.9-2.07-5.38-4.92-5.91l-17.54-3.23v9.72Z"/>
    </g>
    <path class="cls-8" d="M59.4,82.33H26.99c-1.1,0-2-.9-2-2V26.47c0-1.1.9-2,2-2h18.28c8.06,0,15.34,4.46,18.99,11.65l10.65,20.93c2.76,5.44,2.51,11.78-.68,16.98-3.19,5.2-8.73,8.3-14.83,8.3ZM28.99,78.33h30.41c4.7,0,8.96-2.39,11.42-6.39,2.46-4,2.65-8.89.52-13.08l-10.65-20.93c-2.97-5.83-8.88-9.46-15.42-9.46h-16.28v49.86Z"/>
    <g>
      <path class="cls-6" d="M26.99,26.47h-11.26c-5.39,0-9.76,4.37-9.76,9.76v44.1h16.38c11.59,0,19.69-11.47,15.81-22.39l-11.17-31.47Z"/>
      <path class="cls-8" d="M22.35,82.33H5.97c-1.1,0-2-.9-2-2v-44.1c0-6.48,5.28-11.76,11.76-11.76h11.26c.85,0,1.6.53,1.88,1.33l11.17,31.47c2.07,5.83,1.21,12.06-2.36,17.11-3.57,5.05-9.16,7.95-15.34,7.95ZM7.97,78.33h14.38c4.86,0,9.26-2.28,12.07-6.25,2.81-3.97,3.48-8.88,1.85-13.47l-10.7-30.14h-9.85c-4.28,0-7.76,3.48-7.76,7.76v42.1Z"/>
    </g>
    <path class="cls-8" d="M86.34,91.43c-.54,0-1.07-.21-1.46-.64l-22.51-24.18c-.23-.25-.39-.55-.48-.87l-1.66-6.6h-7.93c-1.1,0-2-.9-2-2s.9-2,2-2h9.49c.92,0,1.72.62,1.94,1.51l1.92,7.61,22.16,23.8c.75.81.71,2.07-.1,2.83-.39.36-.88.54-1.36.54Z"/>
    <path class="cls-8" d="M12.95,70.58h-6.98c-1.1,0-2-.9-2-2s.9-2,2-2h6.98c1.1,0,2,.9,2,2s-.9,2-2,2Z"/>
    <path class="cls-2" d="M49.57,43.81h-7.65c-1.1,0-2-.9-2-2s.9-2,2-2h7.65c1.1,0,2,.9,2,2s-.9,2-2,2Z"/>
    <g>
      <circle class="cls-3" cx="63.8" cy="91.4" r="5.83"/>
      <path class="cls-8" d="M63.8,99.23c-4.32,0-7.83-3.51-7.83-7.83s3.51-7.83,7.83-7.83,7.83,3.51,7.83,7.83-3.51,7.83-7.83,7.83ZM63.8,87.56c-2.11,0-3.83,1.72-3.83,3.83s1.72,3.83,3.83,3.83,3.83-1.72,3.83-3.83-1.72-3.83-3.83-3.83Z"/>
    </g>
    <path class="cls-8" d="M61.59,103.66h-3.63c-1.1,0-2-.9-2-2s.9-2,2-2h2.01l1.86-8.69c.23-1.08,1.29-1.77,2.38-1.54,1.08.23,1.77,1.29,1.54,2.38l-2.2,10.27c-.2.92-1.01,1.58-1.96,1.58Z"/>
    <g>
      <path class="cls-3" d="M21.23,80.48c-7.43,0-13.44,6.02-13.44,13.44s6.02,13.44,13.44,13.44,13.44-6.02,13.44-13.44-6.02-13.44-13.44-13.44ZM21.23,98.68c-2.63,0-4.76-2.13-4.76-4.76s2.13-4.76,4.76-4.76,4.76,2.13,4.76,4.76-2.13,4.76-4.76,4.76Z"/>
      <path class="cls-8" d="M21.23,109.37c-8.52,0-15.44-6.93-15.44-15.44s6.93-15.44,15.44-15.44,15.44,6.93,15.44,15.44-6.93,15.44-15.44,15.44ZM21.23,82.48c-6.31,0-11.44,5.13-11.44,11.44s5.13,11.44,11.44,11.44,11.44-5.13,11.44-11.44-5.13-11.44-11.44-11.44ZM21.23,100.68c-3.73,0-6.76-3.03-6.76-6.76s3.03-6.76,6.76-6.76,6.76,3.03,6.76,6.76-3.03,6.76-6.76,6.76ZM21.23,91.17c-1.52,0-2.76,1.24-2.76,2.76s1.24,2.76,2.76,2.76,2.76-1.24,2.76-2.76-1.24-2.76-2.76-2.76Z"/>
    </g>
    <path class="cls-4" d="M108.35,24.07h-15.59c-.74,0-1.25-.73-1.01-1.42l6.69-19.16c.38-1.09-.99-1.93-1.79-1.09l-26.6,28.09c-.65.68-.16,1.81.78,1.81h15.59c.74,0,1.25.73,1.01,1.42l-6.69,19.16c-.38,1.09.99,1.93,1.79,1.09l26.6-28.09c.65-.68.16-1.81-.78-1.81Z"/>
    <path class="cls-8" d="M81.93,57.2c-.56,0-1.12-.15-1.62-.46-1.26-.77-1.8-2.28-1.32-3.68l6.34-18.15h-14.46c-1.24,0-2.36-.74-2.86-1.88-.49-1.14-.26-2.46.6-3.37L95.55,1.21c1.02-1.07,2.61-1.29,3.88-.52,1.26.77,1.8,2.28,1.32,3.68l-6.34,18.15h14.47c1.24,0,2.36.74,2.86,1.88.49,1.14.26,2.46-.6,3.37l-26.94,28.45c-.61.64-1.42.98-2.25.98ZM73.05,30.86h13.6c1.01,0,1.95.49,2.53,1.31.58.82.73,1.88.4,2.83l-5.33,15.26,22.42-23.67h-13.6c-1,0-1.95-.49-2.53-1.31-.58-.82-.73-1.88-.4-2.82l5.33-15.26-22.42,23.67ZM108.87,26.58h0,0Z"/>
  </g>
</svg>