<?xml version="1.0" encoding="UTF-8"?>
<svg id="outline_icons" xmlns="http://www.w3.org/2000/svg" viewBox="0 0 112 112">
  <defs>
    <style>
      .cls-1 {
        fill: none;
      }

      .cls-2 {
        fill: #b7e7f1;
      }

      .cls-3 {
        fill: #8ed4ea;
      }

      .cls-4 {
        fill: #6a8e9e;
      }

      .cls-5 {
        fill: #c2cfd5;
      }

      .cls-6 {
        fill: #87a5af;
      }

      .cls-7 {
        fill: #8e889a;
      }

      .cls-8 {
        fill: #004241;
      }

      .cls-9 {
        fill: #eee;
      }
    </style>
  </defs>
  <g id="ssd">
    <g>
      <path class="cls-7" d="M88.74,77.57h5.45c.68,0,1.24.55,1.24,1.24v1.53c0,2.14-1.74,3.88-3.88,3.88h-.16c-2.14,0-3.88-1.74-3.88-3.88v-1.53c0-.68.55-1.24,1.24-1.24Z"/>
      <path class="cls-8" d="M91.55,86.22h-.16c-3.24,0-5.88-2.64-5.88-5.88v-1.53c0-1.79,1.45-3.24,3.24-3.24h5.45c1.79,0,3.24,1.45,3.24,3.24v1.53c0,3.24-2.64,5.88-5.88,5.88ZM89.5,79.57v.77c0,1.04.84,1.88,1.88,1.88h.16c1.04,0,1.88-.84,1.88-1.88v-.77h-3.93Z"/>
    </g>
    <g>
      <path class="cls-7" d="M18.32,77.57h5.45c.68,0,1.24.55,1.24,1.24v1.53c0,2.14-1.74,3.88-3.88,3.88h-.16c-2.14,0-3.88-1.74-3.88-3.88v-1.53c0-.68.55-1.24,1.24-1.24Z"/>
      <path class="cls-8" d="M21.12,86.22h-.16c-3.24,0-5.88-2.64-5.88-5.88v-1.53c0-1.79,1.45-3.24,3.24-3.24h5.45c1.79,0,3.24,1.45,3.24,3.24v1.53c0,3.24-2.64,5.88-5.88,5.88ZM19.08,79.57v.77c0,1.04.84,1.88,1.88,1.88h.16c1.04,0,1.88-.84,1.88-1.88v-.77h-3.93Z"/>
    </g>
    <g>
      <path class="cls-7" d="M79.75,32.2h7.76v4.01c0,1.46-1.18,2.64-2.64,2.64h-2.47c-1.46,0-2.64-1.18-2.64-2.64v-4.01h0Z"/>
      <path class="cls-8" d="M84.86,40.85h-2.47c-2.56,0-4.64-2.08-4.64-4.64v-4.01c0-1.1.9-2,2-2h7.76c1.1,0,2,.9,2,2v4.01c0,2.56-2.08,4.64-4.64,4.64ZM81.75,34.2v2.01c0,.36.29.64.64.64h2.47c.36,0,.64-.29.64-.64v-2.01h-3.76Z"/>
    </g>
    <g>
      <path class="cls-7" d="M62.46,32.2h7.76v4.01c0,1.46-1.18,2.64-2.64,2.64h-2.47c-1.46,0-2.64-1.18-2.64-2.64v-4.01h0Z"/>
      <path class="cls-8" d="M67.57,40.85h-2.47c-2.56,0-4.64-2.08-4.64-4.64v-4.01c0-1.1.9-2,2-2h7.76c1.1,0,2,.9,2,2v4.01c0,2.56-2.08,4.64-4.64,4.64ZM64.46,34.2v2.01c0,.36.29.64.64.64h2.47c.36,0,.64-.29.64-.64v-2.01h-3.76Z"/>
    </g>
    <rect class="cls-1" width="112" height="112"/>
    <path class="cls-6" d="M19.88,35.58h77.65c4.12,0,7.47,3.35,7.47,7.47v28.11c0,3.67-2.98,6.65-6.65,6.65H13.65c-3.67,0-6.65-2.98-6.65-6.65v-22.7c0-7.11,5.77-12.88,12.88-12.88Z"/>
    <path class="cls-4" d="M95.48,64.48h-28.7c-1.85,0-3.52-1.5-3.67-3.35,0-.04,0-.09-.01-.13-1.1-12.96-11.89-23.28-24.9-23.24-10.07.03-18.73,6.04-22.62,14.66-1.69,3.74-7.31,3.28-8.24-.71-.22-.94-.34-1.92-.34-2.92v21.28c0,4.27,4.26,7.74,9.52,7.74h78.95c5.26,0,9.52-3.46,9.52-7.74v-13.32c0,4.27-4.26,7.74-9.52,7.74Z"/>
    <path class="cls-8" d="M79.58,67.84c-1.1,0-2-.9-2-2v-18.24c0-1.1.9-2,2-2s2,.9,2,2v18.24c0,1.1-.9,2-2,2Z"/>
    <path class="cls-8" d="M87.7,67.84c-1.1,0-2-.9-2-2v-18.24c0-1.1.9-2,2-2s2,.9,2,2v18.24c0,1.1-.9,2-2,2Z"/>
    <path class="cls-8" d="M95.43,67.84c-1.1,0-2-.9-2-2v-18.24c0-1.1.9-2,2-2s2,.9,2,2v18.24c0,1.1-.9,2-2,2Z"/>
    <path class="cls-8" d="M98.35,79.81H13.65c-4.77,0-8.65-3.88-8.65-8.65v-22.72c0-8.19,6.66-14.86,14.86-14.86h78.25c4.9,0,8.89,3.99,8.89,8.89v28.69c0,4.77-3.88,8.65-8.65,8.65ZM19.86,37.58c-5.99,0-10.86,4.87-10.86,10.86v22.72c0,2.56,2.08,4.65,4.65,4.65h84.7c2.56,0,4.65-2.09,4.65-4.65v-28.69c0-2.7-2.2-4.89-4.89-4.89H19.86Z"/>
    <g>
      <circle class="cls-5" cx="36.45" cy="56.64" r="20.93"/>
      <path class="cls-8" d="M36.45,79.57c-12.64,0-22.93-10.28-22.93-22.93s10.29-22.93,22.93-22.93,22.93,10.29,22.93,22.93-10.29,22.93-22.93,22.93ZM36.45,37.72c-10.44,0-18.93,8.49-18.93,18.93s8.49,18.93,18.93,18.93,18.93-8.49,18.93-18.93-8.49-18.93-18.93-18.93Z"/>
    </g>
    <circle class="cls-2" cx="36.45" cy="56.64" r="12.28"/>
    <circle class="cls-3" cx="35.84" cy="53.32" r="8.07"/>
    <circle class="cls-9" cx="35.57" cy="53.04" r="3.07"/>
    <path class="cls-8" d="M36.45,70.92c-7.87,0-14.28-6.41-14.28-14.28s6.41-14.28,14.28-14.28,14.28,6.41,14.28,14.28-6.41,14.28-14.28,14.28ZM36.45,46.36c-5.67,0-10.28,4.61-10.28,10.28s4.61,10.28,10.28,10.28,10.28-4.61,10.28-10.28-4.61-10.28-10.28-10.28Z"/>
    <circle class="cls-4" cx="69.48" cy="47.6" r="2.06"/>
  </g>
</svg>