<?xml version="1.0" encoding="UTF-8"?>
<svg id="outline_icons" xmlns="http://www.w3.org/2000/svg" viewBox="0 0 112 112">
  <defs>
    <style>
      .cls-1 {
        fill: none;
      }

      .cls-2 {
        fill: #e4f2f4;
      }

      .cls-3 {
        fill: #ef706b;
      }

      .cls-4 {
        fill: #ced0d6;
      }

      .cls-5 {
        fill: #4f74aa;
      }

      .cls-6 {
        fill: #004241;
      }

      .cls-7 {
        fill: #eee;
      }
    </style>
  </defs>
  <g>
    <g>
      <path class="cls-4" d="M3.68,76.89h34.15c1.27,0,2.3-1.01,2.3-2.26v-5.57c0-2.44-1.68-4.49-3.97-5.1h-5.06c-1.93,0-3.69-1.09-4.54-2.82l-2.58-5.21c-2-4.03-6.11-6.58-10.62-6.58H3.15"/>
      <path class="cls-6" d="M37.83,78.89H3.68c-1.1,0-2-.9-2-2s.9-2,2-2h34.15c.17,0,.3-.12.3-.26v-5.57c0-1.4-.92-2.64-2.26-3.1h-4.77c-2.71,0-5.13-1.51-6.34-3.93l-2.58-5.21c-1.68-3.38-5.06-5.47-8.83-5.47H3.15c-1.1,0-2-.9-2-2s.9-2,2-2h10.2c5.3,0,10.05,2.95,12.41,7.7l2.58,5.21c.52,1.05,1.58,1.71,2.75,1.71h5.06c.17,0,.35.02.52.07,3.21.86,5.45,3.75,5.45,7.03v5.57c0,2.35-1.93,4.26-4.3,4.26Z"/>
    </g>
    <g>
      <ellipse class="cls-2" cx="25.62" cy="77.67" rx="5.09" ry="5.28"/>
      <path class="cls-6" d="M25.62,84.96c-3.91,0-7.09-3.27-7.09-7.28s3.18-7.28,7.09-7.28,7.09,3.27,7.09,7.28-3.18,7.28-7.09,7.28ZM25.62,74.39c-1.7,0-3.09,1.47-3.09,3.28s1.38,3.28,3.09,3.28,3.09-1.47,3.09-3.28-1.38-3.28-3.09-3.28Z"/>
    </g>
    <path class="cls-6" d="M17.86,63.17h-8.64c-1.1,0-2-.9-2-2s.9-2,2-2h8.64c1.1,0,2,.9,2,2s-.9,2-2,2Z"/>
  </g>
  <g>
    <g>
      <path class="cls-5" d="M56.35,40.95v8.83h48.92c1.33,0,2.4-1,2.4-2.22v-2.75c0-1.7-.98-3.24-2.51-3.97l-8.95-4.26c-1.06-.51-1.95-1.32-2.54-2.34l-2.82-5.31c-2.23-4.2-6.6-6.82-11.35-6.82h-6.41c-4.4,0-8.25,2.98-9.34,7.25l-1.14,4.47c-.59,2.32-2.03,4.33-4.03,5.65l-2.23,1.48Z"/>
      <path class="cls-6" d="M105.27,51.78h-48.92c-1.1,0-2-.9-2-2v-8.83c0-.67.34-1.3.9-1.67l2.24-1.48c1.59-1.05,2.72-2.64,3.19-4.48l1.14-4.47c1.32-5.15,5.96-8.75,11.28-8.75h6.41c5.51,0,10.53,3.02,13.12,7.88l2.82,5.31c.35.61.93,1.14,1.63,1.47l8.95,4.26c2.22,1.05,3.65,3.32,3.65,5.77v2.75c0,2.33-1.98,4.22-4.4,4.22ZM58.35,47.78h46.92c.26,0,.4-.16.4-.22v-2.75c0-.92-.54-1.77-1.37-2.16l-8.95-4.26c-1.44-.68-2.62-1.77-3.41-3.15l-2.86-5.37c-1.89-3.55-5.56-5.76-9.58-5.76h-6.41c-3.49,0-6.53,2.36-7.4,5.74l-1.14,4.47c-.72,2.81-2.44,5.23-4.86,6.82l-1.34.88v5.75Z"/>
    </g>
    <g>
      <ellipse class="cls-2" cx="68.26" cy="49.5" rx="5.31" ry="5.19"/>
      <path class="cls-6" d="M68.25,56.69c-4.03,0-7.31-3.23-7.31-7.19s3.28-7.19,7.31-7.19,7.31,3.23,7.31,7.19-3.28,7.19-7.31,7.19ZM68.25,46.31c-1.82,0-3.31,1.43-3.31,3.19s1.48,3.19,3.31,3.19,3.31-1.43,3.31-3.19-1.48-3.19-3.31-3.19Z"/>
    </g>
    <g>
      <ellipse class="cls-2" cx="92.53" cy="49.5" rx="5.31" ry="5.19"/>
      <path class="cls-6" d="M92.53,56.69c-4.03,0-7.31-3.23-7.31-7.19s3.28-7.19,7.31-7.19,7.31,3.23,7.31,7.19-3.28,7.19-7.31,7.19ZM92.53,46.31c-1.82,0-3.31,1.43-3.31,3.19s1.48,3.19,3.31,3.19,3.31-1.43,3.31-3.19-1.48-3.19-3.31-3.19Z"/>
    </g>
    <path class="cls-6" d="M75.21,35.42c-1.1,0-2-.9-2-2v-2.24c0-1.1.9-2,2-2s2,.9,2,2v2.24c0,1.1-.9,2-2,2Z"/>
    <path class="cls-6" d="M83.44,35.81c-1.1,0-2-.9-2-2v-2.63c0-1.1.9-2,2-2s2,.9,2,2v2.63c0,1.1-.9,2-2,2Z"/>
  </g>
  <path class="cls-6" d="M100.37,13.66h-20.94c-1.1,0-2-.9-2-2s.9-2,2-2h20.94c1.1,0,2,.9,2,2s-.9,2-2,2Z"/>
  <path class="cls-6" d="M80.61,71.8h-30c-1.1,0-2-.9-2-2s.9-2,2-2h30c1.1,0,2,.9,2,2s-.9,2-2,2Z"/>
  <path class="cls-6" d="M36.15,109.29h-3.78c-1.1,0-2-.9-2-2s.9-2,2-2h3.78c1.1,0,2,.9,2,2s-.9,2-2,2Z"/>
  <path class="cls-6" d="M96.09,71.8h-6.91c-1.1,0-2-.9-2-2s.9-2,2-2h6.91c1.1,0,2,.9,2,2s-.9,2-2,2Z"/>
  <path class="cls-6" d="M47.02,51.78h-3.78c-1.1,0-2-.9-2-2s.9-2,2-2h3.78c1.1,0,2,.9,2,2s-.9,2-2,2Z"/>
  <path class="cls-6" d="M36.5,102.48H14.74c-1.1,0-2-.9-2-2s.9-2,2-2h21.76c1.1,0,2,.9,2,2s-.9,2-2,2Z"/>
  <g id="area">
    <rect class="cls-1" y="0" width="112" height="112"/>
  </g>
  <g>
    <path class="cls-3" d="M105.12,106.62v-4.76c0-2.76-1.91-5.16-4.6-5.77l-8.94-2.05c-1.63-.37-3.04-1.39-3.91-2.82l-3.41-5.61c-1.54-2.54-4.3-4.09-7.27-4.09h-20.93c-3.81,0-7.16,2.54-8.19,6.21l-3.19,11.41c-.25.89-.37,1.8-.37,2.72v4.76"/>
    <path class="cls-6" d="M105.12,108.62c-1.1,0-2-.9-2-2v-4.76c0-1.84-1.25-3.41-3.05-3.82l-8.94-2.05c-2.15-.49-4.03-1.85-5.18-3.73l-3.41-5.61c-1.17-1.93-3.3-3.13-5.56-3.13h-20.93c-2.91,0-5.48,1.95-6.27,4.75l-3.19,11.41c-.2.71-.3,1.45-.3,2.18v4.76c0,1.1-.9,2-2,2s-2-.9-2-2v-4.76c0-1.1.15-2.2.45-3.26l3.19-11.41c1.26-4.52,5.42-7.67,10.12-7.67h20.93c3.64,0,7.08,1.93,8.98,5.05l3.41,5.61c.59.96,1.55,1.66,2.65,1.91l8.94,2.05c3.62.83,6.15,4,6.15,7.72v4.76c0,1.1-.9,2-2,2Z"/>
  </g>
  <path class="cls-6" d="M78.19,93.28h-3.48c-1.1,0-2-.9-2-2s.9-2,2-2h3.48c1.1,0,2,.9,2,2s-.9,2-2,2Z"/>
  <path class="cls-6" d="M68.99,93.28h-3.48c-1.1,0-2-.9-2-2s.9-2,2-2h3.48c1.1,0,2,.9,2,2s-.9,2-2,2Z"/>
  <g>
    <rect class="cls-7" x="10.7" y="6.82" width="36.32" height="32.19" rx="4.9" ry="4.9"/>
    <path class="cls-6" d="M30.4,32.71c-1.1,0-2-.9-2-2v-7.76l-3.82,2.9c-.88.67-2.13.49-2.8-.39-.67-.88-.49-2.14.39-2.8l7.03-5.33c.6-.46,1.42-.53,2.1-.2.68.34,1.11,1.03,1.11,1.79v11.78c0,1.1-.9,2-2,2Z"/>
    <path class="cls-3" d="M10.7,14.07v-2.35c0-2.71,2.19-4.9,4.9-4.9h26.52c2.71,0,4.9,2.19,4.9,4.9v2.35"/>
    <path class="cls-6" d="M20.07,12.07c-1.1,0-2-.9-2-2V3.56c0-1.1.9-2,2-2s2,.9,2,2v6.51c0,1.1-.9,2-2,2Z"/>
    <path class="cls-6" d="M37.69,12.07c-1.1,0-2-.9-2-2V3.56c0-1.1.9-2,2-2s2,.9,2,2v6.51c0,1.1-.9,2-2,2Z"/>
    <path class="cls-6" d="M42.12,41H15.6c-3.8,0-6.9-3.1-6.9-6.9V11.72c0-3.8,3.1-6.9,6.9-6.9h26.52c3.81,0,6.9,3.1,6.9,6.9v22.38c0,3.8-3.1,6.9-6.9,6.9ZM15.6,8.82c-1.6,0-2.9,1.3-2.9,2.9v22.38c0,1.6,1.3,2.9,2.9,2.9h26.52c1.6,0,2.9-1.3,2.9-2.9V11.72c0-1.6-1.3-2.9-2.9-2.9H15.6Z"/>
  </g>
</svg>