<?xml version="1.0" encoding="UTF-8"?>
<svg id="outline_icons" xmlns="http://www.w3.org/2000/svg" viewBox="0 0 112 112">
  <defs>
    <style>
      .cls-1 {
        fill: none;
      }

      .cls-2 {
        fill: #efefef;
      }

      .cls-3 {
        fill: #fff;
      }

      .cls-4 {
        fill: #8eb767;
      }

      .cls-5 {
        fill: #d3e7ee;
      }

      .cls-6 {
        fill: #a9d384;
      }

      .cls-7 {
        fill: #ffdc49;
      }

      .cls-8 {
        fill: #004241;
      }
    </style>
  </defs>
  <polygon class="cls-2" points="100.03 55.62 107.5 58.06 110.45 62.73 109.19 68.25 98.68 66.93 98.25 59.89 100.03 55.62"/>
  <path class="cls-6" d="M105.47,67.18c-2.59,0-4.69-2.1-4.69-4.69v-1.25c0-2.16,1.75-3.92,3.92-3.92h.21l-21.46-7.49-6.62-10c-6.24-9.43-16.8-15.11-28.12-15.11h0c-2.38,0-4.75.08-7.1.26-12.78,1-28.26-.87-32.4,17.5-.55,2.46-2.79,4.04-3.46,5.86h0c-3.88,10.53-4.62,21.96-2.13,32.91h0c0,3,2.43,5.42,5.42,5.42h4.31c.1-6.5,5.39-11.74,11.92-11.74s11.82,5.24,11.92,11.74h36.05c.1-6.5,5.39-11.74,11.92-11.74s11.82,5.24,11.92,11.74h5.02c2.18,0,4.14-1.31,4.97-3.32l2.11-15.1c.05-.36.15-.72.26-1.07h-3.98Z"/>
  <path class="cls-4" d="M15.8,40.93s-3.53,12.71-4.29,20.83c-.18,1.91,1.58,3.41,3.43,2.92,3.01-.79,7.92-1.39,14.61.06,11.84,2.56,11.84,12.54,19.01,13.05s14.59,0,14.59,0l22.02-25.71-63.04-14.31-6.34,3.16Z"/>
  <path class="cls-5" d="M86.27,52.03l.45-1.06-3.27-1.14-6.62-10c-6.24-9.43-16.8-15.11-28.12-15.11h0c-2.38,0-4.75.08-7.1.26-12.78,1-28.26-.87-32.4,17.5-.55,2.46-2.79,4.04-3.46,5.86h0s.91.21.91.21c15.21,3.47,30.76,5.23,46.36,5.23l33.24-1.75Z"/>
  <path class="cls-2" d="M15.91,50.3s1.62-1.62,2.5-5.44,3.09-10.15,13.68-10.59,23.54-1.47,28.84,1.91,15.6-.74,15.6-.74c0,0-14.73-10.82-23.54-10.72s-25.75.42-33.7,3.51-10.3,12.95-10.3,12.95l-3.25,7.16,10.16,1.96Z"/>
  <path class="cls-8" d="M53.03,55.77c-15.73,0-31.48-1.78-46.81-5.28l-.92-.21c-1.08-.25-1.75-1.32-1.5-2.4.25-1.08,1.32-1.75,2.4-1.5l.92.21c15.02,3.43,30.46,5.17,45.87,5.18l33.19-1.74c1.09-.05,2.04.79,2.1,1.89.06,1.1-.79,2.04-1.89,2.1l-33.24,1.75s-.07,0-.1,0Z"/>
  <circle class="cls-3" cx="25.28" cy="86.86" r="11.93"/>
  <path class="cls-8" d="M25.28,100.79c-7.68,0-13.93-6.25-13.93-13.93s6.25-13.93,13.93-13.93,13.93,6.25,13.93,13.93-6.25,13.93-13.93,13.93ZM25.28,76.93c-5.47,0-9.93,4.45-9.93,9.93s4.45,9.93,9.93,9.93,9.93-4.45,9.93-9.93-4.45-9.93-9.93-9.93Z"/>
  <circle class="cls-3" cx="85.17" cy="86.86" r="11.93"/>
  <path class="cls-8" d="M85.17,100.79c-7.68,0-13.93-6.25-13.93-13.93s6.25-13.93,13.93-13.93,13.93,6.25,13.93,13.93-6.25,13.93-13.93,13.93ZM85.17,76.93c-5.47,0-9.93,4.45-9.93,9.93s4.45,9.93,9.93,9.93,9.93-4.45,9.93-9.93-4.45-9.93-9.93-9.93Z"/>
  <path class="cls-8" d="M85.17,93.13c-3.46,0-6.27-2.81-6.27-6.27s2.81-6.27,6.27-6.27,6.27,2.81,6.27,6.27-2.81,6.27-6.27,6.27ZM85.17,84.58c-1.25,0-2.27,1.02-2.27,2.27s1.02,2.27,2.27,2.27,2.27-1.02,2.27-2.27-1.02-2.27-2.27-2.27Z"/>
  <path class="cls-8" d="M102.11,88.98h-5.02c-1.09,0-1.98-.88-2-1.97-.08-5.39-4.53-9.77-9.92-9.77s-9.84,4.38-9.92,9.77c-.02,1.09-.91,1.97-2,1.97h-36.05c-1.09,0-1.98-.88-2-1.97-.08-5.39-4.53-9.77-9.92-9.77s-9.84,4.38-9.92,9.77c-.02,1.09-.91,1.97-2,1.97h-4.31c-4.01,0-7.29-3.2-7.42-7.19C-.9,70.51-.12,58.81,3.87,47.95c.39-1.07,1.09-1.96,1.76-2.82.73-.93,1.41-1.81,1.63-2.79,3.95-17.54,17.43-18.19,29.32-18.77,1.69-.08,3.29-.16,4.88-.28,2.31-.18,4.68-.27,7.25-.27,12.02,0,23.15,5.98,29.78,16l6.25,9.44,21.83,7.62s.1.04.14.06c3.11,1.36,5.09,4.33,5.03,7.55,0,.13-.06,3.29-.36,4.29-.1.32-.18.61-.22.85l-2.11,15.1c-.02.17-.07.33-.13.49-1.15,2.77-3.82,4.56-6.82,4.56ZM98.92,84.98h3.19c1.29,0,2.46-.73,3.03-1.88l2.07-14.82c.08-.53.21-1,.36-1.47.07-.35.17-2.22.19-3.18.03-1.56-1.01-3.08-2.58-3.79l-22.38-7.82c-.41-.14-.77-.42-1.01-.78l-6.62-10c-5.89-8.9-15.78-14.21-26.45-14.21-2.47,0-4.74.08-6.94.26-1.64.13-3.34.21-4.99.29-11.48.56-22.33,1.08-25.61,15.65-.42,1.85-1.5,3.25-2.38,4.37-.5.65-.98,1.26-1.16,1.74-3.75,10.19-4.47,21.18-2.06,31.77.03.15.05.29.05.44,0,1.89,1.54,3.42,3.42,3.42h2.49c1.06-6.63,6.86-11.74,13.75-11.74s12.69,5.11,13.75,11.74h32.4c1.06-6.63,6.86-11.74,13.75-11.74s12.69,5.11,13.75,11.74Z"/>
  <path class="cls-8" d="M25.28,93.13c-3.46,0-6.27-2.81-6.27-6.27s2.81-6.27,6.27-6.27,6.27,2.81,6.27,6.27c0,1.1-.9,2-2,2s-2-.9-2-2c0-1.25-1.02-2.27-2.27-2.27s-2.27,1.02-2.27,2.27,1.02,2.27,2.27,2.27c1.1,0,2,.9,2,2s-.9,2-2,2Z"/>
  <path class="cls-7" d="M102.37,31.51h-20.83c-.98,0-1.67-.97-1.35-1.9l8.94-25.6c.51-1.45-1.33-2.57-2.39-1.45l-35.54,37.53c-.86.91-.22,2.41,1.04,2.41h20.83c.98,0,1.67.97,1.35,1.9l-8.94,25.6c-.51,1.45,1.33,2.57,2.39,1.45l35.54-37.53c.86-.91.22-2.41-1.04-2.41Z"/>
  <path class="cls-8" d="M66.84,73.91c-.61,0-1.23-.17-1.79-.51-1.39-.85-1.99-2.52-1.45-4.06l8.67-24.84h-20.03c-1.37,0-2.61-.81-3.15-2.07-.54-1.26-.28-2.72.66-3.71L85.29,1.19c1.12-1.18,2.88-1.42,4.27-.57,1.39.85,1.99,2.52,1.45,4.06l-8.67,24.84h20.03c1.37,0,2.61.81,3.15,2.07.54,1.26.28,2.72-.66,3.71l-35.54,37.53c-.67.71-1.57,1.08-2.48,1.08ZM53.57,40.5h19.51c1.11,0,2.15.54,2.8,1.44.64.9.81,2.07.44,3.12l-8.06,23.09,32.8-34.63h-19.51c-1.11,0-2.15-.54-2.8-1.44-.64-.9-.81-2.07-.44-3.12l8.06-23.09-32.8,34.63ZM102.37,33.52h0,0Z"/>
  <path class="cls-8" d="M37.21,55.17c-1.1,0-2-.9-2-2v-27.63c0-1.1.9-2,2-2s2,.9,2,2v27.63c0,1.1-.9,2-2,2Z"/>
  <rect class="cls-1" width="112" height="112"/>
</svg>