<?xml version="1.0" encoding="UTF-8"?>
<svg id="outline_icons" xmlns="http://www.w3.org/2000/svg" viewBox="0 0 112 112">
  <defs>
    <style>
      .cls-1 {
        fill: none;
      }

      .cls-2 {
        fill: #3e5f9b;
      }

      .cls-3 {
        fill: #e4f2f4;
      }

      .cls-4 {
        fill: #fff;
      }

      .cls-5 {
        fill: #ef706b;
      }

      .cls-6 {
        fill: #ced0d6;
      }

      .cls-7 {
        fill: #004241;
      }
    </style>
  </defs>
  <g>
    <g>
      <path class="cls-2" d="M3.72,35.03h34.15c1.27,0,2.3-1.01,2.3-2.26v-5.57c0-2.44-1.68-4.49-3.97-5.1h-5.06c-1.93,0-3.69-1.09-4.54-2.82l-2.58-5.21c-2-4.03-6.11-6.58-10.62-6.58H3.2"/>
      <path class="cls-7" d="M37.87,37.03H3.72c-1.1,0-2-.9-2-2s.9-2,2-2h34.15c.17,0,.31-.12.31-.26v-5.57c0-1.4-.92-2.64-2.26-3.1h-4.77c-2.71,0-5.13-1.51-6.34-3.93l-2.58-5.21c-1.67-3.38-5.06-5.47-8.83-5.47H3.2c-1.1,0-2-.9-2-2s.9-2,2-2h10.2c5.3,0,10.05,2.95,12.41,7.7l2.58,5.21c.52,1.05,1.58,1.71,2.75,1.71h5.06c.17,0,.35.02.52.07,3.21.86,5.45,3.75,5.45,7.04v5.57c0,2.35-1.93,4.26-4.31,4.26Z"/>
    </g>
    <g>
      <ellipse class="cls-3" cx="25.66" cy="35.81" rx="5.09" ry="5.28"/>
      <path class="cls-7" d="M25.66,43.09c-3.91,0-7.09-3.27-7.09-7.28s3.18-7.28,7.09-7.28,7.09,3.27,7.09,7.28-3.18,7.28-7.09,7.28ZM25.66,32.52c-1.7,0-3.09,1.47-3.09,3.28s1.38,3.28,3.09,3.28,3.09-1.47,3.09-3.28-1.38-3.28-3.09-3.28Z"/>
    </g>
    <path class="cls-7" d="M11.09,21.3h-.64c-1.1,0-2-.9-2-2s.9-2,2-2h.64c1.1,0,2,.9,2,2s-.9,2-2,2Z"/>
    <path class="cls-7" d="M17.91,21.3h-.64c-1.1,0-2-.9-2-2s.9-2,2-2h.64c1.1,0,2,.9,2,2s-.9,2-2,2Z"/>
  </g>
  <g>
    <g>
      <path class="cls-5" d="M86.52,66.14c1.53.73,2.51,2.27,2.51,3.97v2.75c0,1.23-1.08,2.22-2.4,2.22h-48.92v-8.83c0-.71.15-1.4.44-2.05l5.88-12.88c1.09-2.38,3.47-3.92,6.09-3.92h14.65c2.36,0,4.55,1.26,5.73,3.3l4.53,8.83c.59,1.02,1.48,1.84,2.54,2.34l8.95,4.26Z"/>
      <path class="cls-7" d="M86.63,77.08h-48.92c-1.1,0-2-.9-2-2v-8.83c0-1,.21-1.97.62-2.88l5.88-12.88c1.41-3.09,4.51-5.08,7.91-5.08h14.65c3.07,0,5.92,1.65,7.46,4.3.02.03.03.06.05.09l4.51,8.78c.39.65.96,1.17,1.65,1.5l8.95,4.26c2.22,1.05,3.65,3.32,3.65,5.77v2.75c0,2.33-1.98,4.22-4.4,4.22ZM39.7,73.08h46.92c.26,0,.4-.16.4-.22v-2.75c0-.92-.54-1.77-1.37-2.16h0l-8.95-4.26c-1.44-.68-2.62-1.77-3.41-3.15-.02-.03-.03-.06-.05-.09l-4.51-8.78c-.83-1.4-2.35-2.27-3.98-2.27h-14.65c-1.83,0-3.51,1.08-4.27,2.75l-5.88,12.88c-.18.38-.26.79-.26,1.22v6.83Z"/>
    </g>
    <g>
      <ellipse class="cls-3" cx="49.61" cy="74.79" rx="5.31" ry="5.19"/>
      <path class="cls-7" d="M49.61,81.99c-4.03,0-7.31-3.23-7.31-7.19s3.28-7.19,7.31-7.19,7.31,3.23,7.31,7.19-3.28,7.19-7.31,7.19ZM49.61,71.6c-1.82,0-3.31,1.43-3.31,3.19s1.48,3.19,3.31,3.19,3.31-1.43,3.31-3.19-1.48-3.19-3.31-3.19Z"/>
    </g>
    <g>
      <ellipse class="cls-3" cx="73.89" cy="74.79" rx="5.31" ry="5.19"/>
      <path class="cls-7" d="M73.89,81.99c-4.03,0-7.31-3.23-7.31-7.19s3.28-7.19,7.31-7.19,7.31,3.23,7.31,7.19-3.28,7.19-7.31,7.19ZM73.89,71.6c-1.82,0-3.31,1.43-3.31,3.19s1.48,3.19,3.31,3.19,3.31-1.43,3.31-3.19-1.48-3.19-3.31-3.19Z"/>
    </g>
    <path class="cls-7" d="M57.57,60.72c-1.1,0-2-.9-2-2v-2.24c0-1.1.9-2,2-2s2,.9,2,2v2.24c0,1.1-.9,2-2,2Z"/>
    <path class="cls-7" d="M65.8,61.11c-1.1,0-2-.9-2-2v-2.63c0-1.1.9-2,2-2s2,.9,2,2v2.63c0,1.1-.9,2-2,2Z"/>
  </g>
  <path class="cls-7" d="M56.69,13.66h-20.94c-1.1,0-2-.9-2-2s.9-2,2-2h20.94c1.1,0,2,.9,2,2s-.9,2-2,2Z"/>
  <path class="cls-7" d="M105.28,88.94h-10.78c-1.1,0-2-.9-2-2s.9-2,2-2h10.78c1.1,0,2,.9,2,2s-.9,2-2,2Z"/>
  <path class="cls-7" d="M86.47,88.94h-3.78c-1.1,0-2-.9-2-2s.9-2,2-2h3.78c1.1,0,2,.9,2,2s-.9,2-2,2Z"/>
  <path class="cls-7" d="M28,68.15H8.59c-1.1,0-2-.9-2-2s.9-2,2-2h19.41c1.1,0,2,.9,2,2s-.9,2-2,2Z"/>
  <path class="cls-7" d="M27.55,77.08h-3.78c-1.1,0-2-.9-2-2s.9-2,2-2h3.78c1.1,0,2,.9,2,2s-.9,2-2,2Z"/>
  <path class="cls-7" d="M105.17,102.48h-35.96c-1.1,0-2-.9-2-2s.9-2,2-2h35.96c1.1,0,2,.9,2,2s-.9,2-2,2Z"/>
  <path class="cls-7" d="M58.12,23.26h-7.97c-1.1,0-2-.9-2-2s.9-2,2-2h7.97c1.1,0,2,.9,2,2s-.9,2-2,2Z"/>
  <g id="area">
    <rect class="cls-1" y="0" width="112" height="112"/>
  </g>
  <g>
    <circle class="cls-4" cx="86.76" cy="26.32" r="17.63"/>
    <path class="cls-7" d="M86.76,45.96c-10.83,0-19.63-8.81-19.63-19.63s8.81-19.63,19.63-19.63,19.63,8.81,19.63,19.63-8.81,19.63-19.63,19.63ZM86.76,10.69c-8.62,0-15.63,7.01-15.63,15.63s7.01,15.63,15.63,15.63,15.63-7.01,15.63-15.63-7.01-15.63-15.63-15.63Z"/>
  </g>
  <g>
    <path class="cls-6" d="M58.71,106.62v-1.2c0-2.81-2.13-5.15-4.93-5.42l-6.84-.65c-2.74-.26-5.27-1.59-7.04-3.7l-1.85-2.21c-1.99-2.37-4.93-3.74-8.03-3.74h-8.58c-1.75,0-3.46.44-5,1.27l-9.5,5.15c-2.31,1.25-3.75,3.67-3.75,6.3v4.19"/>
    <path class="cls-7" d="M58.71,108.62c-1.1,0-2-.9-2-2v-1.2c0-1.79-1.34-3.26-3.12-3.43l-6.84-.65c-3.28-.31-6.26-1.88-8.38-4.4l-1.85-2.21c-1.62-1.92-3.98-3.03-6.5-3.03h-8.58c-1.41,0-2.81.35-4.04,1.03l-9.5,5.15c-1.67.91-2.7,2.65-2.7,4.54v4.19c0,1.1-.9,2-2,2s-2-.9-2-2v-4.19c0-3.36,1.84-6.45,4.79-8.06l9.5-5.15c1.82-.99,3.88-1.51,5.95-1.51h8.58c3.7,0,7.18,1.62,9.56,4.46l1.85,2.21c1.44,1.72,3.46,2.78,5.69,2.99l6.84.65c3.84.36,6.74,3.55,6.74,7.41v1.2c0,1.1-.9,2-2,2Z"/>
  </g>
  <path class="cls-7" d="M30.53,100.17h-1.78c-1.1,0-2-.9-2-2s.9-2,2-2h1.78c1.1,0,2,.9,2,2s-.9,2-2,2Z"/>
  <path class="cls-7" d="M21.32,100.17h-1.78c-1.1,0-2-.9-2-2s.9-2,2-2h1.78c1.1,0,2,.9,2,2s-.9,2-2,2Z"/>
  <path class="cls-7" d="M96.1,29.32h-9.34c-1.1,0-2-.9-2-2v-11.4c0-1.1.9-2,2-2s2,.9,2,2v9.4h7.34c1.1,0,2,.9,2,2s-.9,2-2,2Z"/>
</svg>