<?xml version="1.0" encoding="UTF-8"?>
<svg id="outline_icons" xmlns="http://www.w3.org/2000/svg" viewBox="0 0 112 112">
  <defs>
    <style>
      .cls-1, .cls-2, .cls-3 {
        fill: none;
      }

      .cls-4 {
        fill: #efefef;
      }

      .cls-2, .cls-3, .cls-5, .cls-6 {
        stroke-linecap: round;
        stroke-linejoin: round;
        stroke-width: 4px;
      }

      .cls-2, .cls-5, .cls-6 {
        stroke: #004241;
      }

      .cls-3 {
        stroke: #fff;
      }

      .cls-7 {
        fill: #a7a4bc;
      }

      .cls-8 {
        fill: #d3e7ee;
      }

      .cls-5 {
        fill: #75728e;
      }

      .cls-6 {
        fill: #fff;
      }
    </style>
  </defs>
  <path class="cls-5" d="M6.39,46.66c.73-.71,1.38-1.5,1.94-2.36.52-.8,1.06-1.66,1.22-1.87,2.42-3.24,5.44-8.2,8.59-10.71,1.95-1.55,5.16-2.46,7.29-3.41,5.3-2.36,9.98-3.37,16.14-3.37,11.74,0,21.76,1.19,25.38,3.97,3.01,2.31,9.26,9.8,13.56,15.64,2.71,3.68,5.93,6.95,10.02,8.92l14.79,7.15c3.29,1.59,5.04,5.29,4.2,8.88l-3.24,13.82c-.82,2.01-2.76,3.32-4.91,3.32h-4.96c-.1-6.5-5.33-11.74-11.78-11.74s-11.68,5.24-11.78,11.74h-35.64c-.1-6.5-5.33-11.74-11.78-11.74s-11.68,5.24-11.78,11.74H5.01c-1.51,0-2.74-1.24-2.74-2.77v-7.59c0-.91.24-1.8.7-2.57l1.46-1.01c.75-.52,1.22-1.4,1.1-2.3,0,0,0-.01,0-.02l-2.24-13.66-.03-.44c.06-3.62.55-7.08,3.13-9.59h0Z"/>
  <path class="cls-8" d="M85.84,50.36h0c-1.99-1.7-3.75-3.69-5.33-5.83-4.3-5.84-10.55-13.33-13.56-15.64-3.63-2.77-13.64-3.97-25.38-3.97-6.17,0-10.85,1.01-16.14,3.37-2.14.95-5.35,1.86-7.29,3.41-3.14,2.51-6.16,7.47-8.59,10.71-.16.21-.7,1.07-1.22,1.87-.56.86-1.2,1.65-1.94,2.36l29.4,2.63,6.91,2.67c9.69,1.42,19.53,1.64,29.26.52,1-.11,1.93-.24,2.76-.37l11.12-1.75Z"/>
  <path class="cls-4" d="M76.47,51.84l8.33-2.44c-1.57-1.47-2.99-3.12-4.28-4.87-4.3-5.84-10.55-13.33-13.56-15.64-3.63-2.77-13.64-3.97-25.38-3.97-6.17,0-10.85,1.01-16.14,3.37-2.14.95-5.35,1.86-7.29,3.41-3.14,2.51-6.16,7.47-8.59,10.71-.16.21-.7,1.07-1.22,1.87-.56.86-1.2,1.65-1.94,2.36l10.04.9c.22-.34.4-.62.48-.72,1.94-2.59,4.35-6.55,6.86-8.56,1.55-1.24,4.12-1.97,5.83-2.73,4.23-1.88,7.97-2.7,12.9-2.7,9.38,0,27.46.95,30.35,3.17,2.41,1.84,6.74,7.81,10.17,12.47.87,1.18-6.55,3.34-6.55,3.34Z"/>
  <line class="cls-2" x1="44.74" y1="24.93" x2="35.79" y2="49.29"/>
  <path class="cls-7" d="M105.33,60.6l-14.79-7.15c-1.71-.83-3.26-1.89-4.69-3.1h0s-11.12,1.76-11.12,1.76c-.83.13-1.76.25-2.76.37-4.04.46-8.1.68-12.16.7l-3.8,9.31-2.65,6.62,7.4,3.75-4.81,13.76h16.91c.1-6.5,5.33-11.74,11.78-11.74s11.68,5.24,11.78,11.74h4.96c2.15,0,4.09-1.31,4.91-3.32l3.24-13.82c.84-3.59-.91-7.29-4.2-8.88Z"/>
  <path class="cls-2" d="M85.84,50.36l-11.12,1.75c-.83.13-1.76.25-2.76.37-9.73,1.12-19.57.9-29.26-.52l-6.91-2.67-29.4-2.63"/>
  <path class="cls-4" d="M109.52,69.47c.84-3.59-.91-7.29-4.2-8.88l-2.26-1.09-5.56,4.83c-.69.6-1.08,1.46-1.08,2.38,0,1.73,1.39,3.13,3.1,3.13h9.91l.09-.38Z"/>
  <path class="cls-2" d="M6.39,46.66c.73-.71,1.38-1.5,1.94-2.36.52-.8,1.06-1.66,1.22-1.87,2.42-3.24,5.44-8.2,8.59-10.71,1.95-1.55,5.16-2.46,7.29-3.41,5.3-2.36,9.98-3.37,16.14-3.37,11.74,0,21.76,1.19,25.38,3.97,3.01,2.31,9.26,9.8,13.56,15.64,2.71,3.68,5.93,6.95,10.02,8.92l14.79,7.15c3.29,1.59,5.04,5.29,4.2,8.88l-3.24,13.82c-.82,2.01-2.76,3.32-4.91,3.32h-4.96c-.1-6.5-5.33-11.74-11.78-11.74s-11.68,5.24-11.78,11.74h-35.64c-.1-6.5-5.33-11.74-11.78-11.74s-11.68,5.24-11.78,11.74H5.01c-1.51,0-2.74-1.24-2.74-2.77v-7.59c0-.91.24-1.8.7-2.57l1.46-1.01c.75-.52,1.22-1.4,1.1-2.3,0,0,0-.01,0-.02l-2.24-13.66-.03-.44c.06-3.62.55-7.08,3.13-9.59h0Z"/>
  <path class="cls-2" d="M60.23,53.69l-6.68,13.9c-.5,1.05,0,2.3,1.09,2.69l5.17,1.85c1.06.38,1.57,1.59,1.12,2.63l-4.93,11.25"/>
  <line class="cls-3" x1="57.31" y1="41.76" x2="64.88" y2="41.76"/>
  <circle class="cls-6" cx="25.07" cy="86.8" r="11.93"/>
  <circle class="cls-6" cx="84.96" cy="86.8" r="11.93"/>
  <circle class="cls-2" cx="84.96" cy="86.8" r="4.27"/>
  <path class="cls-2" d="M25.07,91.08c-2.36,0-4.27-1.91-4.27-4.27s1.91-4.27,4.27-4.27,4.27,1.91,4.27,4.27"/>
  <rect class="cls-1" width="112" height="112"/>
</svg>