<?xml version="1.0" encoding="UTF-8"?>
<svg id="outline_icons" xmlns="http://www.w3.org/2000/svg" viewBox="0 0 112 112">
  <defs>
    <style>
      .cls-1 {
        fill: none;
      }

      .cls-2 {
        fill: #3e5f9b;
      }

      .cls-3 {
        fill: #e4f2f4;
      }

      .cls-4 {
        fill: #ef706b;
      }

      .cls-5 {
        fill: #ced0d6;
      }

      .cls-6 {
        fill: #004241;
      }
    </style>
  </defs>
  <path class="cls-2" d="M3.58,37.48h37.93c1.19,0,2.16-.95,2.16-2.12v-6.21c0-2.73-2.25-4.94-5.04-4.94h-3.17c-1.69,0-3.26-.83-4.19-2.21l-3.12-4.6c-1.38-2.03-3.7-3.26-6.19-3.26H3.71"/>
  <path class="cls-6" d="M41.51,39.48H3.58c-1.1,0-2-.9-2-2s.9-2,2-2h37.93c.09,0,.16-.06.16-.12v-6.21c0-1.62-1.36-2.94-3.04-2.94h-3.17c-2.35,0-4.54-1.15-5.85-3.08l-3.12-4.6c-1.01-1.49-2.71-2.38-4.54-2.38H3.71c-1.1,0-2-.9-2-2s.9-2,2-2h18.24c3.16,0,6.09,1.55,7.85,4.14l3.12,4.6c.56.83,1.51,1.33,2.54,1.33h3.17c3.88,0,7.04,3.12,7.04,6.94v6.21c0,2.27-1.86,4.12-4.16,4.12Z"/>
  <ellipse class="cls-3" cx="30.09" cy="37.21" rx="4.76" ry="4.94"/>
  <path class="cls-6" d="M30.09,44.15c-3.73,0-6.76-3.11-6.76-6.94s3.03-6.94,6.76-6.94,6.76,3.11,6.76,6.94-3.03,6.94-6.76,6.94ZM30.09,34.27c-1.52,0-2.76,1.32-2.76,2.94s1.24,2.94,2.76,2.94,2.76-1.32,2.76-2.94-1.24-2.94-2.76-2.94Z"/>
  <path class="cls-6" d="M12.47,23.77h-2.6c-1.1,0-2-.9-2-2s.9-2,2-2h2.6c1.1,0,2,.9,2,2s-.9,2-2,2Z"/>
  <path class="cls-6" d="M22.84,23.77h-2.6c-1.1,0-2-.9-2-2s.9-2,2-2h2.6c1.1,0,2,.9,2,2s-.9,2-2,2Z"/>
  <path class="cls-5" d="M3.2,81.79h34.15c1.27,0,2.3-1.01,2.3-2.26v-5.57c0-2.44-1.68-4.49-3.97-5.1-1.73-.46-3.45-.98-5.12-1.64l-3.16-1.24c-1.86-.73-3.5-1.92-4.77-3.46-1.79-2.18-4.28-4.62-6.2-4.62H3.34"/>
  <path class="cls-6" d="M37.35,83.79H3.2c-1.1,0-2-.9-2-2s.9-2,2-2h34.15c.17,0,.3-.12.3-.26v-5.57c0-1.48-1.02-2.78-2.48-3.17-2.1-.56-3.79-1.1-5.33-1.71l-3.16-1.24c-2.17-.85-4.1-2.25-5.58-4.05-2.35-2.85-4.07-3.89-4.66-3.89H3.34c-1.1,0-2-.9-2-2s.9-2,2-2h13.09c2.22,0,4.83,1.8,7.75,5.35,1.05,1.27,2.41,2.26,3.95,2.87l3.16,1.24c1.39.55,2.95,1.04,4.9,1.57,3.21.86,5.45,3.75,5.45,7.03v5.57c0,2.35-1.93,4.26-4.3,4.26Z"/>
  <ellipse class="cls-3" cx="25.14" cy="82.57" rx="5.09" ry="5.28"/>
  <path class="cls-6" d="M25.14,89.85c-3.91,0-7.09-3.27-7.09-7.28s3.18-7.28,7.09-7.28,7.09,3.27,7.09,7.28-3.18,7.28-7.09,7.28ZM25.14,79.29c-1.7,0-3.09,1.47-3.09,3.28s1.38,3.28,3.09,3.28,3.09-1.47,3.09-3.28-1.38-3.28-3.09-3.28Z"/>
  <path class="cls-6" d="M10.56,68.06h-.64c-1.1,0-2-.9-2-2s.9-2,2-2h.64c1.1,0,2,.9,2,2s-.9,2-2,2Z"/>
  <path class="cls-6" d="M17.38,68.06h-.64c-1.1,0-2-.9-2-2s.9-2,2-2h.64c1.1,0,2,.9,2,2s-.9,2-2,2Z"/>
  <path class="cls-4" d="M78.87,72.88h25c1.33,0,2.4-1,2.4-2.22v-6.52c0-2.87-2.52-5.2-5.62-5.2h-3.54c-1.88,0-3.64-.87-4.68-2.32l-3.48-7.99c-1.54-2.14-4.13-3.42-6.91-3.42h-12.77s-.05,0-.08,0c-3.37.03-6.24,2.33-7.1,5.4l-.86,3.06c-.8,2.85-2.54,5.36-4.9,7.3-.8.65-1.39,1.33-1.39,2.02v9.9h23.92Z"/>
  <path class="cls-6" d="M103.87,74.88h-48.92c-1.1,0-2-.9-2-2v-9.9c0-1.63,1.21-2.82,2.13-3.57,2.11-1.73,3.57-3.9,4.24-6.29l.86-3.06c1.12-4,4.83-6.82,9.01-6.86h12.87c3.43,0,6.62,1.59,8.53,4.26.08.12.15.24.21.37l3.38,7.77c.68.84,1.77,1.34,2.94,1.34h3.54c4.2,0,7.62,3.23,7.62,7.2v6.52c0,2.33-1.98,4.22-4.4,4.22ZM56.95,70.88h46.92c.26,0,.4-.16.4-.22v-6.52c0-1.76-1.62-3.2-3.62-3.2h-3.54c-2.53,0-4.88-1.18-6.3-3.15-.08-.12-.15-.24-.21-.37l-3.39-7.78c-1.18-1.53-3.1-2.43-5.17-2.43h-12.77c-2.47.02-4.61,1.64-5.25,3.94l-.86,3.06c-.89,3.18-2.82,6.05-5.56,8.3-.41.34-.59.55-.66.65v7.73Z"/>
  <ellipse class="cls-3" cx="66.85" cy="72.59" rx="5.31" ry="5.19"/>
  <path class="cls-6" d="M66.85,79.79c-4.03,0-7.31-3.23-7.31-7.19s3.28-7.19,7.31-7.19,7.31,3.23,7.31,7.19-3.28,7.19-7.31,7.19ZM66.85,69.4c-1.82,0-3.31,1.43-3.31,3.19s1.48,3.19,3.31,3.19,3.31-1.43,3.31-3.19-1.48-3.19-3.31-3.19Z"/>
  <ellipse class="cls-3" cx="91.13" cy="72.59" rx="5.31" ry="5.19"/>
  <path class="cls-6" d="M91.13,79.79c-4.03,0-7.31-3.23-7.31-7.19s3.28-7.19,7.31-7.19,7.31,3.23,7.31,7.19-3.28,7.19-7.31,7.19ZM91.13,69.4c-1.82,0-3.31,1.43-3.31,3.19s1.48,3.19,3.31,3.19,3.31-1.43,3.31-3.19-1.48-3.19-3.31-3.19Z"/>
  <path class="cls-6" d="M74.81,60.52c-1.1,0-2-.9-2-2v-4.24c0-1.1.9-2,2-2s2,.9,2,2v4.24c0,1.1-.9,2-2,2Z"/>
  <path class="cls-6" d="M83.04,59.91c-1.1,0-2-.9-2-2v-3.63c0-1.1.9-2,2-2s2,.9,2,2v3.63c0,1.1-.9,2-2,2Z"/>
  <path class="cls-5" d="M108.44,31.76h-37.54v-6.59c0-1.38.34-2.75,1-3.96l3.76-6.95c.47-.87.86-1.79,1.26-2.69,1.09-2.48,3.66-4.94,6.18-4.96.02,0,.04,0,.06,0h10.94c6.08,0,11.66,1.24,14.33,2.11"/>
  <path class="cls-6" d="M108.44,33.76h-37.54c-1.1,0-2-.9-2-2v-6.59c0-1.71.43-3.41,1.24-4.92l3.76-6.95c.37-.68.69-1.4,1.02-2.17l.17-.38c1.34-3.03,4.51-6.12,7.99-6.15h11.02c6.04,0,11.83,1.19,14.95,2.21,1.05.34,1.62,1.47,1.28,2.52-.34,1.05-1.48,1.62-2.52,1.28-2.84-.93-8.14-2.01-13.71-2.01h-10.94c-1.52.01-3.52,1.74-4.42,3.77l-.17.38c-.35.81-.72,1.64-1.17,2.46l-3.76,6.95c-.5.92-.76,1.96-.76,3.01v4.59h35.54c1.1,0,2,.9,2,2s-.9,2-2,2Z"/>
  <ellipse class="cls-3" cx="79.82" cy="31.49" rx="4.76" ry="4.94"/>
  <path class="cls-6" d="M79.82,38.43c-3.73,0-6.76-3.11-6.76-6.94s3.03-6.94,6.76-6.94,6.76,3.11,6.76,6.94-3.03,6.94-6.76,6.94ZM79.82,28.55c-1.52,0-2.76,1.32-2.76,2.94s1.24,2.94,2.76,2.94,2.76-1.32,2.76-2.94-1.24-2.94-2.76-2.94Z"/>
  <path class="cls-5" d="M88.55,108.19c0-2.96-1.87-5.79-4.88-5.79,0,0-5.81-.63-8.55-4.13l-3.38-6.07c-1.49-2.21-4.01-3.53-6.71-3.53h-6.24s-4.44,0-4.46,0c-2.39.02-4.52,1.29-5.82,3.2-1.16,1.69-2.69,3.09-4.56,3.94h0c-2.27,1.02-3.91,3.09-4.37,5.54-.48,2.59-.87,5.19-.87,5.65v1.19"/>
  <path class="cls-6" d="M88.55,110.19c-1.1,0-2-.9-2-2,0-1.84-1.01-3.79-2.88-3.79-.07,0-.14,0-.22-.01-.27-.03-6.68-.77-9.91-4.88-.06-.08-.12-.17-.17-.26l-3.33-5.99c-1.13-1.62-3-2.58-5.01-2.58h-10.7c-1.62.01-3.18.88-4.17,2.33-1.42,2.08-3.28,3.68-5.4,4.63-1.68.76-2.88,2.28-3.22,4.09-.49,2.62-.82,4.93-.84,5.31v1.16c0,1.1-.9,2-2,2s-2-.9-2-2v-1.19c0-.79.54-4.06.91-6.02.58-3.09,2.64-5.7,5.51-7,1.44-.65,2.73-1.77,3.73-3.24,1.72-2.52,4.51-4.04,7.45-4.07h10.72c3.37,0,6.5,1.65,8.37,4.41.03.05.06.1.09.15l3.29,5.92c1.81,2.17,5.58,3.07,7.02,3.25,4.23.08,6.75,4,6.75,7.79,0,1.1-.9,2-2,2Z"/>
  <path class="cls-6" d="M56.64,100.96h-1.87c-1.1,0-2-.9-2-2s.9-2,2-2h1.87c1.1,0,2,.9,2,2s-.9,2-2,2Z"/>
  <path class="cls-6" d="M67.27,100.96h-2.66c-1.1,0-2-.9-2-2s.9-2,2-2h2.66c1.1,0,2,.9,2,2s-.9,2-2,2Z"/>
  <path class="cls-6" d="M64.61,13.91h-20.94c-1.1,0-2-.9-2-2s.9-2,2-2h20.94c1.1,0,2,.9,2,2s-.9,2-2,2Z"/>
  <path class="cls-6" d="M48.74,54.79h-20.94c-1.1,0-2-.9-2-2s.9-2,2-2h20.94c1.1,0,2,.9,2,2s-.9,2-2,2Z"/>
  <path class="cls-6" d="M105.28,91.94h-10.78c-1.1,0-2-.9-2-2s.9-2,2-2h10.78c1.1,0,2,.9,2,2s-.9,2-2,2Z"/>
  <path class="cls-6" d="M13.98,107.51H3.2c-1.1,0-2-.9-2-2s.9-2,2-2h10.78c1.1,0,2,.9,2,2s-.9,2-2,2Z"/>
  <path class="cls-6" d="M25.73,107.51h-3.78c-1.1,0-2-.9-2-2s.9-2,2-2h3.78c1.1,0,2,.9,2,2s-.9,2-2,2Z"/>
  <path class="cls-6" d="M86.47,91.94h-3.78c-1.1,0-2-.9-2-2s.9-2,2-2h3.78c1.1,0,2,.9,2,2s-.9,2-2,2Z"/>
  <path class="cls-6" d="M105.17,105.48h-3.78c-1.1,0-2-.9-2-2s.9-2,2-2h3.78c1.1,0,2,.9,2,2s-.9,2-2,2Z"/>
  <path class="cls-6" d="M64.61,28.55h-7.97c-1.1,0-2-.9-2-2s.9-2,2-2h7.97c1.1,0,2,.9,2,2s-.9,2-2,2Z"/>
  <rect class="cls-1" y="0" width="112" height="112"/>
  <circle class="cls-6" cx="86.95" cy="15.58" r="2.05"/>
  <circle class="cls-6" cx="94.27" cy="15.58" r="2.05"/>
  <circle class="cls-6" cx="94.27" cy="15.58" r="2.05"/>
  <circle class="cls-6" cx="101.58" cy="15.58" r="2.05"/>
</svg>