<svg xmlns="http://www.w3.org/2000/svg" width="1776" height="1776" version="1.0" viewBox="0 0 1332 1332"><path d="M0 666v666h1332V0H0zM444.8 63.2c20 33.4 31.2 64.9 37.3 104.8 3.2 20.7 3.2 55.2 0 76-10.3 68.4-42.4 126.9-93.2 170.5-40.4 34.6-86.2 55.3-140.9 63.6-20.7 3.2-55.2 3.2-76 0-39.5-6-75.2-18.8-106.5-38.4l-10-6.2-.3-188c-.1-103.4 0-188.6.3-189.3.3-.9 39.8-1.2 192.4-1.2h192zm832 354.7c.2 289.7 0 362.2-1 361.8-24.5-10-48-17.3-72.1-22.1-29.5-6-41.4-7.1-75.7-7-34.4 0-50 1.5-79.4 7.9-8.8 1.9-16.2 3.3-16.4 3.1s1-6.6 2.7-14.3c25-114.4-3.1-231.7-76.8-320.8-9.8-11.8-32.2-34.6-43.9-44.7-56-48.3-122.2-77.9-197.7-88.4-18.2-2.5-64.7-3-84.2-1-18.1 1.9-34.9 4.7-49.2 8.1-5.7 1.4-10.5 2.4-10.7 2.3-.1-.2.8-4.8 2.2-10.3 8-33.1 11.6-73.5 9.5-107-2.7-42.6-10.3-77.8-24.7-114.8-3-7.7-5.4-14.3-5.4-14.8s146.7-.8 361.3-.7l361.2.3zM68.5 553c48.6 20.2 107.8 30.2 160.7 27.1 26.4-1.6 52.1-5.4 71.8-10.6 3-.8 5.5-1.3 5.7-1.1.2.1-1.1 6.1-2.7 13.3-9.9 43.3-11.9 93.7-5.4 138.3 9.4 64.9 36.2 126.6 77.6 178.8 11.9 15 43.1 46.4 57.4 57.8 90.6 72.3 204.7 99 317.5 74.3 7.8-1.7 14.3-2.9 14.5-2.7s-1.2 7.6-3.1 16.4c-6.4 29.4-7.9 45-7.9 79.4-.1 33.6 1 45.9 6.5 73.5 4.9 24.9 13.6 53.2 22.3 72.8 1.8 4.1 2.2 5.9 1.3 6.3-.7.2-165 .3-365.2.2l-364-.3-.3-364.4c-.2-346.7-.1-364.3 1.5-363.8 1 .3 6.3 2.4 11.8 4.7m1101.7 299.9c35.2 5.7 68.7 17.7 98.2 35.1l8.6 5.1-.2 191.7-.3 191.7-188.3.3-188.2.2-4.8-7.2c-2.6-4-8.1-14.1-12.3-22.3-14.7-29.1-23.5-59.1-27.5-93.5-2-17.5-1.5-52.7 1.1-68.5 9.8-61.3 35.1-111.9 77-154.1 15.9-15.9 25.6-23.9 43.5-35.9 21.3-14.2 42-24.2 67.1-32.3 18.8-6.1 34.3-9.3 60.9-12.6 1.9-.2 14.5-.3 28-.1 18.7.3 27.5.8 37.2 2.4"/></svg>