<?xml version="1.0" standalone="no"?>
<!DOCTYPE svg PUBLIC "-//W3C//DTD SVG 20010904//EN"
 "http://www.w3.org/TR/2001/REC-SVG-20010904/DTD/svg10.dtd">
<svg version="1.0" xmlns="http://www.w3.org/2000/svg"
 width="600.000000pt" height="600.000000pt" viewBox="0 0 600.000000 600.000000"
 preserveAspectRatio="xMidYMid meet">
<metadata>
Created by potrace 1.14, written by Peter Selinger 2001-2017
</metadata>
<g transform="translate(0.000000,600.000000) scale(0.100000,-0.100000)"
fill="#000000" stroke="none">
<path d="M0 3000 l0 -3000 3000 0 3000 0 0 3000 0 3000 -3000 0 -3000 0 0
-3000z m1321 2685 c43 -95 60 -167 66 -281 21 -390 -254 -729 -642 -793 -118
-19 -292 -1 -390 40 -16 7 -32 13 -35 14 -3 1 -20 8 -37 16 l-33 13 0 528 0
528 521 0 520 0 30 -65z m3639 62 c0 -1 -1060 -1062 -2355 -2357 l-2355 -2355
0 1254 0 1253 48 -6 c26 -4 65 -9 87 -12 22 -3 51 -7 65 -10 29 -5 285 -5 345
0 209 18 430 80 630 176 145 71 211 110 318 192 184 140 305 268 432 458 196
292 308 659 308 1010 1 138 -5 207 -28 353 l-7 47 1256 0 c691 0 1256 -1 1256
-3z m790 -2028 l0 -1261 -46 7 c-25 3 -56 8 -67 11 -92 18 -358 24 -477 11
-231 -26 -409 -77 -617 -178 -111 -54 -266 -148 -320 -195 -12 -11 -37 -30
-55 -44 -37 -29 -189 -178 -233 -230 -95 -111 -192 -262 -261 -406 -38 -80
-108 -270 -119 -323 -2 -9 -8 -37 -14 -64 -6 -26 -14 -64 -17 -83 -3 -20 -8
-46 -10 -58 -22 -110 -22 -401 0 -536 2 -14 7 -46 11 -73 l8 -47 -1257 0
c-691 0 -1256 2 -1256 5 0 8 4714 4723 4723 4724 4 1 7 -567 7 -1260z m-290
-2324 c68 -8 135 -28 223 -68 l67 -30 0 -523 0 -524 -529 0 -529 0 -27 58
c-97 202 -99 450 -5 649 83 178 242 328 415 393 17 6 30 11 30 10 0 -1 12 3
28 9 38 15 72 21 142 28 33 3 61 6 62 7 3 3 56 -1 123 -9z"/>
</g>
</svg>
