<?xml version="1.0" standalone="no"?>
<!DOCTYPE svg PUBLIC "-//W3C//DTD SVG 20010904//EN"
 "http://www.w3.org/TR/2001/REC-SVG-20010904/DTD/svg10.dtd">
<svg version="1.0" xmlns="http://www.w3.org/2000/svg"
 width="1332.000000pt" height="1332.000000pt" viewBox="0 0 1332.000000 1332.000000"
 preserveAspectRatio="xMidYMid meet">
<metadata>
Created by potrace 1.14, written by Peter Selinger 2001-2017
</metadata>
<g transform="translate(0.000000,1332.000000) scale(0.100000,-0.100000)"
fill="#000000" stroke="none">
<path d="M0 6660 l0 -6660 6660 0 6660 0 0 6660 0 6660 -6660 0 -6660 0 0
-6660z m4448 6028 c200 -334 312 -649 373 -1048 32 -207 32 -552 0 -760 -103
-684 -424 -1269 -932 -1705 -404 -346 -862 -553 -1409 -636 -207 -32 -552 -32
-760 0 -395 60 -752 188 -1065 384 l-100 62 -3 1880 c-1 1034 0 1886 3 1893 3
9 398 12 1924 12 l1920 0 49 -82z m8320 -3547 c2 -2897 0 -3622 -10 -3618
-245 100 -480 173 -721 221 -295 60 -414 71 -757 70 -344 0 -500 -15 -794 -79
-88 -19 -162 -33 -164 -31 -2 2 10 66 27 143 250 1144 -31 2317 -768 3208 -98
118 -322 346 -439 447 -560 483 -1222 779 -1977 884 -182 25 -647 30 -842 10
-181 -19 -349 -47 -492 -81 -57 -14 -105 -24 -107 -23 -1 2 8 48 22 103 80
331 116 735 95 1070 -27 426 -103 778 -247 1148 -30 77 -54 143 -54 148 0 5
1467 8 3613 7 l3612 -3 3 -3624z m-12083 -1351 c486 -202 1078 -302 1607 -271
264 16 521 54 718 106 30 8 55 13 57 11 2 -1 -11 -61 -27 -133 -99 -433 -119
-937 -54 -1383 94 -649 362 -1266 776 -1788 119 -150 431 -464 574 -578 906
-723 2047 -990 3175 -743 78 17 143 29 145 27 2 -2 -12 -76 -31 -164 -64 -294
-79 -450 -79 -794 -1 -336 10 -459 65 -735 49 -249 136 -532 223 -728 18 -41
22 -59 13 -63 -7 -2 -1650 -3 -3652 -2 l-3640 3 -3 3644 c-2 3467 -1 3643 15
3638 10 -3 63 -24 118 -47z m11017 -2999 c352 -57 687 -177 982 -351 l86 -51
-2 -1917 -3 -1917 -1883 -3 -1882 -2 -48 72 c-26 40 -81 141 -123 223 -147
291 -235 591 -275 935 -20 175 -15 527 11 685 98 613 351 1119 770 1541 159
159 256 239 435 359 213 142 420 242 671 323 188 61 343 93 609 126 19 2 145
3 280 1 187 -3 275 -8 372 -24z"/>
</g>
</svg>
